<?xml version="1.0" encoding="utf-8" standalone="no"?>
<!DOCTYPE svg PUBLIC "-//W3C//DTD SVG 1.1//EN"
  "http://www.w3.org/Graphics/SVG/1.1/DTD/svg11.dtd">
<!-- Created with matplotlib (https://matplotlib.org/) -->
<svg height="180pt" version="1.1" viewBox="0 0 864 180" width="864pt" xmlns="http://www.w3.org/2000/svg" xmlns:xlink="http://www.w3.org/1999/xlink">
 <defs>
  <style type="text/css">
*{stroke-linecap:butt;stroke-linejoin:round;}
  </style>
 </defs>
 <g id="figure_1">
  <g id="patch_1">
   <path d="M 0 180 
L 864 180 
L 864 0 
L 0 0 
z
" style="fill:#ffffff;"/>
  </g>
  <g id="axes_1">
   <g id="patch_2">
    <path d="M 56.8 153.2 
L 821.2 153.2 
L 821.2 10.8 
L 56.8 10.8 
z
" style="fill:#e5e5e5;"/>
   </g>
   <g id="matplotlib.axis_1">
    <g id="xtick_1">
     <g id="line2d_1">
      <path clip-path="url(#p721e230872)" d="M 131.917182 153.2 
L 131.917182 10.8 
" style="fill:none;stroke:#ffffff;stroke-linecap:square;stroke-width:0.8;"/>
     </g>
     <g id="line2d_2">
      <defs>
       <path d="M 0 0 
L 0 3.5 
" id="m3ba65485fe" style="stroke:#555555;stroke-width:0.8;"/>
      </defs>
      <g>
       <use style="fill:#555555;stroke:#555555;stroke-width:0.8;" x="131.917182" xlink:href="#m3ba65485fe" y="153.2"/>
      </g>
     </g>
     <g id="text_1">
      <!-- 2020-02 -->
      <defs>
       <path d="M 7.296875 5.59375 
Q 14 12.5 19.390625 17.84375 
Q 24.796875 23.203125 28.59375 27.640625 
Q 32.40625 32.09375 34.40625 36.296875 
Q 36.40625 40.5 36.40625 45.09375 
Q 36.40625 51.59375 33.296875 54.09375 
Q 30.203125 56.59375 25.796875 56.59375 
Q 22.203125 56.59375 19.046875 55.046875 
Q 15.90625 53.5 13.296875 50.296875 
Q 12.40625 48.90625 12.203125 48.15625 
Q 12 47.40625 12.09375 46.59375 
L 11.703125 46.09375 
L 10.90625 46.59375 
L 5.796875 50.59375 
Q 8.796875 56.40625 14.046875 59.546875 
Q 19.296875 62.703125 25.703125 62.703125 
Q 33.59375 62.703125 38.59375 57.953125 
Q 43.59375 53.203125 43.59375 44.90625 
Q 43.59375 39.703125 41.296875 35 
Q 39 30.296875 35.140625 25.6875 
Q 31.296875 21.09375 26.390625 16.296875 
Q 21.5 11.5 16.296875 6.09375 
L 39.5 6.09375 
Q 41.203125 6.09375 41.890625 6.296875 
Q 42.59375 6.5 43.203125 7.09375 
L 43.90625 7.09375 
L 43.90625 0 
L 7.296875 0 
z
" id="Inconsolata-Regular-50"/>
       <path d="M 25 -1.09375 
Q 15.703125 -1.09375 10.703125 7.203125 
Q 5.703125 15.5 5.703125 30.796875 
Q 5.703125 45.59375 10.703125 54.140625 
Q 15.703125 62.703125 25 62.703125 
Q 34.296875 62.703125 39.296875 54.140625 
Q 44.296875 45.59375 44.296875 30.796875 
Q 44.296875 15.5 39.296875 7.203125 
Q 34.296875 -1.09375 25 -1.09375 
z
M 12.90625 30.796875 
Q 12.90625 24.40625 13.796875 19.40625 
L 35 46.703125 
Q 33.5 51.40625 30.953125 54 
Q 28.40625 56.59375 25 56.59375 
Q 19.296875 56.59375 16.09375 49.59375 
Q 12.90625 42.59375 12.90625 30.796875 
z
M 25 5 
Q 30.703125 5 33.890625 11.703125 
Q 37.09375 18.40625 37.09375 30.796875 
Q 37.09375 36.296875 36.40625 40.796875 
L 15.203125 13.90625 
Q 18.296875 5 25 5 
z
" id="Inconsolata-Regular-48"/>
       <path d="M 11.09375 28.09375 
L 11.09375 34.796875 
L 39.09375 34.796875 
L 39.09375 28.09375 
z
" id="Inconsolata-Regular-45"/>
      </defs>
      <g style="fill:#555555;" transform="translate(114.417182 166.85)scale(0.1 -0.1)">
       <use xlink:href="#Inconsolata-Regular-50"/>
       <use x="49.999985" xlink:href="#Inconsolata-Regular-48"/>
       <use x="99.999969" xlink:href="#Inconsolata-Regular-50"/>
       <use x="149.999954" xlink:href="#Inconsolata-Regular-48"/>
       <use x="199.999939" xlink:href="#Inconsolata-Regular-45"/>
       <use x="249.999924" xlink:href="#Inconsolata-Regular-48"/>
       <use x="299.999908" xlink:href="#Inconsolata-Regular-50"/>
      </g>
     </g>
    </g>
    <g id="xtick_2">
     <g id="line2d_3">
      <path clip-path="url(#p721e230872)" d="M 256.468255 153.2 
L 256.468255 10.8 
" style="fill:none;stroke:#ffffff;stroke-linecap:square;stroke-width:0.8;"/>
     </g>
     <g id="line2d_4">
      <g>
       <use style="fill:#555555;stroke:#555555;stroke-width:0.8;" x="256.468255" xlink:href="#m3ba65485fe" y="153.2"/>
      </g>
     </g>
     <g id="text_2">
      <!-- 2020-03 -->
      <defs>
       <path d="M 24 -1.09375 
Q 19.09375 -1.09375 14.59375 0.703125 
Q 10.09375 2.5 6.90625 6 
L 11.5 11.5 
L 12.203125 12.296875 
L 12.703125 11.796875 
Q 12.796875 11 13.09375 10.25 
Q 13.40625 9.5 14.5 8.296875 
Q 16.203125 6.796875 18.390625 5.84375 
Q 20.59375 4.90625 23.703125 4.90625 
Q 29.703125 4.90625 32.59375 8.40625 
Q 35.5 11.90625 35.5 17.40625 
Q 35.5 24.5 30.75 27.453125 
Q 26 30.40625 18 29.59375 
L 18 35.203125 
Q 24.5 35.203125 27.796875 36.890625 
Q 31.09375 38.59375 32.25 41.4375 
Q 33.40625 44.296875 33.40625 47.5 
Q 33.40625 51.796875 30.953125 54.25 
Q 28.5 56.703125 24.5 56.703125 
Q 21.5 56.703125 18.640625 55.703125 
Q 15.796875 54.703125 13.09375 52.09375 
L 8.90625 56.296875 
Q 12.296875 59.796875 16.34375 61.25 
Q 20.40625 62.703125 24.40625 62.703125 
Q 32 62.703125 36.296875 58.390625 
Q 40.59375 54.09375 40.59375 47.203125 
Q 40.59375 42.296875 38.1875 38.4375 
Q 35.796875 34.59375 30.796875 33 
Q 36.09375 31.296875 39.390625 27.390625 
Q 42.703125 23.5 42.703125 17.09375 
Q 42.703125 12.203125 40.546875 8.046875 
Q 38.40625 3.90625 34.25 1.40625 
Q 30.09375 -1.09375 24 -1.09375 
z
" id="Inconsolata-Regular-51"/>
      </defs>
      <g style="fill:#555555;" transform="translate(238.968255 166.85)scale(0.1 -0.1)">
       <use xlink:href="#Inconsolata-Regular-50"/>
       <use x="49.999985" xlink:href="#Inconsolata-Regular-48"/>
       <use x="99.999969" xlink:href="#Inconsolata-Regular-50"/>
       <use x="149.999954" xlink:href="#Inconsolata-Regular-48"/>
       <use x="199.999939" xlink:href="#Inconsolata-Regular-45"/>
       <use x="249.999924" xlink:href="#Inconsolata-Regular-48"/>
       <use x="299.999908" xlink:href="#Inconsolata-Regular-51"/>
      </g>
     </g>
    </g>
    <g id="xtick_3">
     <g id="line2d_5">
      <path clip-path="url(#p721e230872)" d="M 389.609057 153.2 
L 389.609057 10.8 
" style="fill:none;stroke:#ffffff;stroke-linecap:square;stroke-width:0.8;"/>
     </g>
     <g id="line2d_6">
      <g>
       <use style="fill:#555555;stroke:#555555;stroke-width:0.8;" x="389.609057" xlink:href="#m3ba65485fe" y="153.2"/>
      </g>
     </g>
     <g id="text_3">
      <!-- 2020-04 -->
      <defs>
       <path d="M 31.796875 0 
L 31.796875 15.296875 
L 4.796875 15.296875 
L 4.796875 20.40625 
L 33.296875 62.40625 
L 39.203125 62.40625 
L 39.203125 21.09375 
L 47.203125 21.09375 
L 47.203125 15.203125 
L 39.203125 15.203125 
L 39.203125 0 
z
M 12.90625 21.203125 
L 31.796875 21.203125 
L 31.796875 49.796875 
z
" id="Inconsolata-Regular-52"/>
      </defs>
      <g style="fill:#555555;" transform="translate(372.109057 166.85)scale(0.1 -0.1)">
       <use xlink:href="#Inconsolata-Regular-50"/>
       <use x="49.999985" xlink:href="#Inconsolata-Regular-48"/>
       <use x="99.999969" xlink:href="#Inconsolata-Regular-50"/>
       <use x="149.999954" xlink:href="#Inconsolata-Regular-48"/>
       <use x="199.999939" xlink:href="#Inconsolata-Regular-45"/>
       <use x="249.999924" xlink:href="#Inconsolata-Regular-48"/>
       <use x="299.999908" xlink:href="#Inconsolata-Regular-52"/>
      </g>
     </g>
    </g>
    <g id="xtick_4">
     <g id="line2d_7">
      <path clip-path="url(#p721e230872)" d="M 518.454995 153.2 
L 518.454995 10.8 
" style="fill:none;stroke:#ffffff;stroke-linecap:square;stroke-width:0.8;"/>
     </g>
     <g id="line2d_8">
      <g>
       <use style="fill:#555555;stroke:#555555;stroke-width:0.8;" x="518.454995" xlink:href="#m3ba65485fe" y="153.2"/>
      </g>
     </g>
     <g id="text_4">
      <!-- 2020-05 -->
      <defs>
       <path d="M 24.90625 -1.09375 
Q 19.203125 -1.09375 14.34375 1.40625 
Q 9.5 3.90625 6.40625 8.5 
L 12.796875 13.296875 
L 13.203125 12.796875 
Q 13.09375 12 13.4375 11.296875 
Q 13.796875 10.59375 14.796875 9.296875 
Q 16.796875 7.09375 19.25 6.046875 
Q 21.703125 5 25.296875 5 
Q 28.5 5 31.25 6.796875 
Q 34 8.59375 35.703125 11.9375 
Q 37.40625 15.296875 37.40625 19.90625 
Q 37.40625 26.90625 33.65625 30.796875 
Q 29.90625 34.703125 24.59375 34.703125 
Q 21.40625 34.703125 18.296875 33.140625 
Q 15.203125 31.59375 12.90625 28.796875 
L 8.5 30.59375 
L 10.59375 62.296875 
L 42.203125 62.296875 
L 42.203125 56 
L 16.5 56 
L 15.5 38.09375 
Q 20.5 40.5 25.703125 40.5 
Q 31.09375 40.5 35.34375 37.953125 
Q 39.59375 35.40625 42.046875 30.703125 
Q 44.5 26 44.5 19.59375 
Q 44.5 13.203125 41.890625 8.546875 
Q 39.296875 3.90625 34.890625 1.40625 
Q 30.5 -1.09375 24.90625 -1.09375 
z
" id="Inconsolata-Regular-53"/>
      </defs>
      <g style="fill:#555555;" transform="translate(500.954995 166.85)scale(0.1 -0.1)">
       <use xlink:href="#Inconsolata-Regular-50"/>
       <use x="49.999985" xlink:href="#Inconsolata-Regular-48"/>
       <use x="99.999969" xlink:href="#Inconsolata-Regular-50"/>
       <use x="149.999954" xlink:href="#Inconsolata-Regular-48"/>
       <use x="199.999939" xlink:href="#Inconsolata-Regular-45"/>
       <use x="249.999924" xlink:href="#Inconsolata-Regular-48"/>
       <use x="299.999908" xlink:href="#Inconsolata-Regular-53"/>
      </g>
     </g>
    </g>
    <g id="xtick_5">
     <g id="line2d_9">
      <path clip-path="url(#p721e230872)" d="M 651.595797 153.2 
L 651.595797 10.8 
" style="fill:none;stroke:#ffffff;stroke-linecap:square;stroke-width:0.8;"/>
     </g>
     <g id="line2d_10">
      <g>
       <use style="fill:#555555;stroke:#555555;stroke-width:0.8;" x="651.595797" xlink:href="#m3ba65485fe" y="153.2"/>
      </g>
     </g>
     <g id="text_5">
      <!-- 2020-06 -->
      <defs>
       <path d="M 26.09375 -1 
Q 16.796875 -1 11.75 6.890625 
Q 6.703125 14.796875 6.703125 28.40625 
Q 6.703125 45.203125 12.703125 54.09375 
Q 18.703125 63 28.703125 63 
Q 36.59375 63 42.40625 57.296875 
L 38 52.296875 
L 37.296875 51.5 
L 36.796875 52 
Q 36.703125 52.796875 36.34375 53.5 
Q 36 54.203125 34.703125 55.296875 
Q 32.5 56.796875 28.90625 56.796875 
Q 26.90625 56.796875 24.296875 55.84375 
Q 21.703125 54.90625 19.296875 52.296875 
Q 16.90625 49.703125 15.296875 44.953125 
Q 13.703125 40.203125 13.59375 32.703125 
Q 15.703125 36.203125 19.25 38.203125 
Q 22.796875 40.203125 26.796875 40.203125 
Q 31.5 40.203125 35.34375 37.640625 
Q 39.203125 35.09375 41.546875 30.546875 
Q 43.90625 26 43.90625 19.796875 
Q 43.90625 13.59375 41.5 8.890625 
Q 39.09375 4.203125 35.09375 1.59375 
Q 31.09375 -1 26.09375 -1 
z
M 26.40625 5.203125 
Q 30.703125 5.203125 33.890625 8.890625 
Q 37.09375 12.59375 37.09375 19.703125 
Q 37.09375 24.703125 35.4375 27.890625 
Q 33.796875 31.09375 31.296875 32.59375 
Q 28.796875 34.09375 26.203125 34.09375 
Q 22.59375 34.09375 19.296875 31.640625 
Q 16 29.203125 14 25.703125 
Q 13.59375 22.296875 14.25 18.6875 
Q 14.90625 15.09375 16.546875 12.046875 
Q 18.203125 9 20.703125 7.09375 
Q 23.203125 5.203125 26.40625 5.203125 
z
" id="Inconsolata-Regular-54"/>
      </defs>
      <g style="fill:#555555;" transform="translate(634.095797 166.85)scale(0.1 -0.1)">
       <use xlink:href="#Inconsolata-Regular-50"/>
       <use x="49.999985" xlink:href="#Inconsolata-Regular-48"/>
       <use x="99.999969" xlink:href="#Inconsolata-Regular-50"/>
       <use x="149.999954" xlink:href="#Inconsolata-Regular-48"/>
       <use x="199.999939" xlink:href="#Inconsolata-Regular-45"/>
       <use x="249.999924" xlink:href="#Inconsolata-Regular-48"/>
       <use x="299.999908" xlink:href="#Inconsolata-Regular-54"/>
      </g>
     </g>
    </g>
    <g id="xtick_6">
     <g id="line2d_11">
      <path clip-path="url(#p721e230872)" d="M 780.441735 153.2 
L 780.441735 10.8 
" style="fill:none;stroke:#ffffff;stroke-linecap:square;stroke-width:0.8;"/>
     </g>
     <g id="line2d_12">
      <g>
       <use style="fill:#555555;stroke:#555555;stroke-width:0.8;" x="780.441735" xlink:href="#m3ba65485fe" y="153.2"/>
      </g>
     </g>
     <g id="text_6">
      <!-- 2020-07 -->
      <defs>
       <path d="M 15.5 0 
Q 19.90625 14.296875 24.59375 28.09375 
Q 29.296875 41.90625 34.5 55.703125 
L 7.90625 55.703125 
L 7.90625 62.296875 
L 43.203125 62.296875 
L 43.203125 58.40625 
Q 37.5 44 32.5 29.5 
Q 27.5 15 23.40625 0 
z
" id="Inconsolata-Regular-55"/>
      </defs>
      <g style="fill:#555555;" transform="translate(762.941735 166.85)scale(0.1 -0.1)">
       <use xlink:href="#Inconsolata-Regular-50"/>
       <use x="49.999985" xlink:href="#Inconsolata-Regular-48"/>
       <use x="99.999969" xlink:href="#Inconsolata-Regular-50"/>
       <use x="149.999954" xlink:href="#Inconsolata-Regular-48"/>
       <use x="199.999939" xlink:href="#Inconsolata-Regular-45"/>
       <use x="249.999924" xlink:href="#Inconsolata-Regular-48"/>
       <use x="299.999908" xlink:href="#Inconsolata-Regular-55"/>
      </g>
     </g>
    </g>
   </g>
   <g id="matplotlib.axis_2">
    <g id="ytick_1">
     <g id="line2d_13">
      <path clip-path="url(#p721e230872)" d="M 56.8 153.2 
L 821.2 153.2 
" style="fill:none;stroke:#ffffff;stroke-linecap:square;stroke-width:0.8;"/>
     </g>
     <g id="line2d_14">
      <defs>
       <path d="M 0 0 
L -3.5 0 
" id="mfb3c3c571a" style="stroke:#555555;stroke-width:0.8;"/>
      </defs>
      <g>
       <use style="fill:#555555;stroke:#555555;stroke-width:0.8;" x="56.8" xlink:href="#mfb3c3c571a" y="153.2"/>
      </g>
     </g>
     <g id="line2d_15">
      <defs>
       <path d="M 0 0 
L 3.5 0 
" id="m11d13a0dbf" style="stroke:#555555;stroke-width:0.8;"/>
      </defs>
      <g>
       <use style="fill:#555555;stroke:#555555;stroke-width:0.8;" x="821.2" xlink:href="#m11d13a0dbf" y="153.2"/>
      </g>
     </g>
     <g id="text_7">
      <!-- 0 -->
      <g style="fill:#555555;" transform="translate(44.8 156.525)scale(0.1 -0.1)">
       <use xlink:href="#Inconsolata-Regular-48"/>
      </g>
     </g>
     <g id="text_8">
      <!-- 0 -->
      <g style="fill:#555555;" transform="translate(828.2 156.525)scale(0.1 -0.1)">
       <use xlink:href="#Inconsolata-Regular-48"/>
      </g>
     </g>
    </g>
    <g id="ytick_2">
     <g id="line2d_16">
      <path clip-path="url(#p721e230872)" d="M 56.8 129.929745 
L 821.2 129.929745 
" style="fill:none;stroke:#ffffff;stroke-linecap:square;stroke-width:0.8;"/>
     </g>
     <g id="line2d_17">
      <g>
       <use style="fill:#555555;stroke:#555555;stroke-width:0.8;" x="56.8" xlink:href="#mfb3c3c571a" y="129.929745"/>
      </g>
     </g>
     <g id="line2d_18">
      <g>
       <use style="fill:#555555;stroke:#555555;stroke-width:0.8;" x="821.2" xlink:href="#m11d13a0dbf" y="129.929745"/>
      </g>
     </g>
     <g id="text_9">
      <!-- 2000 -->
      <g style="fill:#555555;" transform="translate(29.8 133.254745)scale(0.1 -0.1)">
       <use xlink:href="#Inconsolata-Regular-50"/>
       <use x="49.999985" xlink:href="#Inconsolata-Regular-48"/>
       <use x="99.999969" xlink:href="#Inconsolata-Regular-48"/>
       <use x="149.999954" xlink:href="#Inconsolata-Regular-48"/>
      </g>
     </g>
     <g id="text_10">
      <!-- 2000 -->
      <g style="fill:#555555;" transform="translate(828.2 133.254745)scale(0.1 -0.1)">
       <use xlink:href="#Inconsolata-Regular-50"/>
       <use x="49.999985" xlink:href="#Inconsolata-Regular-48"/>
       <use x="99.999969" xlink:href="#Inconsolata-Regular-48"/>
       <use x="149.999954" xlink:href="#Inconsolata-Regular-48"/>
      </g>
     </g>
    </g>
    <g id="ytick_3">
     <g id="line2d_19">
      <path clip-path="url(#p721e230872)" d="M 56.8 106.659489 
L 821.2 106.659489 
" style="fill:none;stroke:#ffffff;stroke-linecap:square;stroke-width:0.8;"/>
     </g>
     <g id="line2d_20">
      <g>
       <use style="fill:#555555;stroke:#555555;stroke-width:0.8;" x="56.8" xlink:href="#mfb3c3c571a" y="106.659489"/>
      </g>
     </g>
     <g id="line2d_21">
      <g>
       <use style="fill:#555555;stroke:#555555;stroke-width:0.8;" x="821.2" xlink:href="#m11d13a0dbf" y="106.659489"/>
      </g>
     </g>
     <g id="text_11">
      <!-- 4000 -->
      <g style="fill:#555555;" transform="translate(29.8 109.984489)scale(0.1 -0.1)">
       <use xlink:href="#Inconsolata-Regular-52"/>
       <use x="49.999985" xlink:href="#Inconsolata-Regular-48"/>
       <use x="99.999969" xlink:href="#Inconsolata-Regular-48"/>
       <use x="149.999954" xlink:href="#Inconsolata-Regular-48"/>
      </g>
     </g>
     <g id="text_12">
      <!-- 4000 -->
      <g style="fill:#555555;" transform="translate(828.2 109.984489)scale(0.1 -0.1)">
       <use xlink:href="#Inconsolata-Regular-52"/>
       <use x="49.999985" xlink:href="#Inconsolata-Regular-48"/>
       <use x="99.999969" xlink:href="#Inconsolata-Regular-48"/>
       <use x="149.999954" xlink:href="#Inconsolata-Regular-48"/>
      </g>
     </g>
    </g>
    <g id="ytick_4">
     <g id="line2d_22">
      <path clip-path="url(#p721e230872)" d="M 56.8 83.389234 
L 821.2 83.389234 
" style="fill:none;stroke:#ffffff;stroke-linecap:square;stroke-width:0.8;"/>
     </g>
     <g id="line2d_23">
      <g>
       <use style="fill:#555555;stroke:#555555;stroke-width:0.8;" x="56.8" xlink:href="#mfb3c3c571a" y="83.389234"/>
      </g>
     </g>
     <g id="line2d_24">
      <g>
       <use style="fill:#555555;stroke:#555555;stroke-width:0.8;" x="821.2" xlink:href="#m11d13a0dbf" y="83.389234"/>
      </g>
     </g>
     <g id="text_13">
      <!-- 6000 -->
      <g style="fill:#555555;" transform="translate(29.8 86.714234)scale(0.1 -0.1)">
       <use xlink:href="#Inconsolata-Regular-54"/>
       <use x="49.999985" xlink:href="#Inconsolata-Regular-48"/>
       <use x="99.999969" xlink:href="#Inconsolata-Regular-48"/>
       <use x="149.999954" xlink:href="#Inconsolata-Regular-48"/>
      </g>
     </g>
     <g id="text_14">
      <!-- 6000 -->
      <g style="fill:#555555;" transform="translate(828.2 86.714234)scale(0.1 -0.1)">
       <use xlink:href="#Inconsolata-Regular-54"/>
       <use x="49.999985" xlink:href="#Inconsolata-Regular-48"/>
       <use x="99.999969" xlink:href="#Inconsolata-Regular-48"/>
       <use x="149.999954" xlink:href="#Inconsolata-Regular-48"/>
      </g>
     </g>
    </g>
    <g id="ytick_5">
     <g id="line2d_25">
      <path clip-path="url(#p721e230872)" d="M 56.8 60.118979 
L 821.2 60.118979 
" style="fill:none;stroke:#ffffff;stroke-linecap:square;stroke-width:0.8;"/>
     </g>
     <g id="line2d_26">
      <g>
       <use style="fill:#555555;stroke:#555555;stroke-width:0.8;" x="56.8" xlink:href="#mfb3c3c571a" y="60.118979"/>
      </g>
     </g>
     <g id="line2d_27">
      <g>
       <use style="fill:#555555;stroke:#555555;stroke-width:0.8;" x="821.2" xlink:href="#m11d13a0dbf" y="60.118979"/>
      </g>
     </g>
     <g id="text_15">
      <!-- 8000 -->
      <defs>
       <path d="M 25 -1 
Q 19.09375 -1 14.84375 1.25 
Q 10.59375 3.5 8.296875 7.296875 
Q 6 11.09375 6 15.703125 
Q 6 21.09375 9.390625 25.796875 
Q 12.796875 30.5 18.5 33.09375 
Q 14.203125 35.296875 11.59375 39.25 
Q 9 43.203125 9 47.703125 
Q 9 54.09375 13.140625 58.59375 
Q 17.296875 63.09375 25.5 63.09375 
Q 31.296875 63.09375 34.890625 61.09375 
Q 38.5 59.09375 40.25 55.75 
Q 42 52.40625 42 48.296875 
Q 42 43.796875 39.296875 39.75 
Q 36.59375 35.703125 32.09375 33.296875 
Q 37.5 30.796875 40.796875 26.140625 
Q 44.09375 21.5 44.09375 16.09375 
Q 44.09375 11.203125 41.75 7.34375 
Q 39.40625 3.5 35.15625 1.25 
Q 30.90625 -1 25 -1 
z
M 26.703125 35.796875 
Q 30.40625 37.796875 32.796875 41.1875 
Q 35.203125 44.59375 35.203125 48.09375 
Q 35.203125 51.59375 32.75 54.390625 
Q 30.296875 57.203125 25.296875 57.203125 
Q 20.40625 57.203125 18.046875 54.5 
Q 15.703125 51.796875 15.703125 48.40625 
Q 15.703125 43.796875 18.890625 41.046875 
Q 22.09375 38.296875 26.703125 35.796875 
z
M 25.203125 5.296875 
Q 31 5.296875 34 8.4375 
Q 37 11.59375 37 16.09375 
Q 37 20.703125 33.390625 24.546875 
Q 29.796875 28.40625 23.703125 30.296875 
Q 19.203125 28.40625 16.203125 24.65625 
Q 13.203125 20.90625 13.203125 16.40625 
Q 13.203125 11.90625 16.34375 8.59375 
Q 19.5 5.296875 25.203125 5.296875 
z
" id="Inconsolata-Regular-56"/>
      </defs>
      <g style="fill:#555555;" transform="translate(29.8 63.443979)scale(0.1 -0.1)">
       <use xlink:href="#Inconsolata-Regular-56"/>
       <use x="49.999985" xlink:href="#Inconsolata-Regular-48"/>
       <use x="99.999969" xlink:href="#Inconsolata-Regular-48"/>
       <use x="149.999954" xlink:href="#Inconsolata-Regular-48"/>
      </g>
     </g>
     <g id="text_16">
      <!-- 8000 -->
      <g style="fill:#555555;" transform="translate(828.2 63.443979)scale(0.1 -0.1)">
       <use xlink:href="#Inconsolata-Regular-56"/>
       <use x="49.999985" xlink:href="#Inconsolata-Regular-48"/>
       <use x="99.999969" xlink:href="#Inconsolata-Regular-48"/>
       <use x="149.999954" xlink:href="#Inconsolata-Regular-48"/>
      </g>
     </g>
    </g>
    <g id="ytick_6">
     <g id="line2d_28">
      <path clip-path="url(#p721e230872)" d="M 56.8 36.848724 
L 821.2 36.848724 
" style="fill:none;stroke:#ffffff;stroke-linecap:square;stroke-width:0.8;"/>
     </g>
     <g id="line2d_29">
      <g>
       <use style="fill:#555555;stroke:#555555;stroke-width:0.8;" x="56.8" xlink:href="#mfb3c3c571a" y="36.848724"/>
      </g>
     </g>
     <g id="line2d_30">
      <g>
       <use style="fill:#555555;stroke:#555555;stroke-width:0.8;" x="821.2" xlink:href="#m11d13a0dbf" y="36.848724"/>
      </g>
     </g>
     <g id="text_17">
      <!-- 10000 -->
      <defs>
       <path d="M 23 0 
L 23 53.703125 
L 10.40625 50 
L 8.796875 53.90625 
L 25.09375 62.40625 
L 30 62.40625 
L 30 0 
z
" id="Inconsolata-Regular-49"/>
      </defs>
      <g style="fill:#555555;" transform="translate(24.8 40.173724)scale(0.1 -0.1)">
       <use xlink:href="#Inconsolata-Regular-49"/>
       <use x="49.999985" xlink:href="#Inconsolata-Regular-48"/>
       <use x="99.999969" xlink:href="#Inconsolata-Regular-48"/>
       <use x="149.999954" xlink:href="#Inconsolata-Regular-48"/>
       <use x="199.999939" xlink:href="#Inconsolata-Regular-48"/>
      </g>
     </g>
     <g id="text_18">
      <!-- 10000 -->
      <g style="fill:#555555;" transform="translate(828.2 40.173724)scale(0.1 -0.1)">
       <use xlink:href="#Inconsolata-Regular-49"/>
       <use x="49.999985" xlink:href="#Inconsolata-Regular-48"/>
       <use x="99.999969" xlink:href="#Inconsolata-Regular-48"/>
       <use x="149.999954" xlink:href="#Inconsolata-Regular-48"/>
       <use x="199.999939" xlink:href="#Inconsolata-Regular-48"/>
      </g>
     </g>
    </g>
    <g id="ytick_7">
     <g id="line2d_31">
      <path clip-path="url(#p721e230872)" d="M 56.8 13.578468 
L 821.2 13.578468 
" style="fill:none;stroke:#ffffff;stroke-linecap:square;stroke-width:0.8;"/>
     </g>
     <g id="line2d_32">
      <g>
       <use style="fill:#555555;stroke:#555555;stroke-width:0.8;" x="56.8" xlink:href="#mfb3c3c571a" y="13.578468"/>
      </g>
     </g>
     <g id="line2d_33">
      <g>
       <use style="fill:#555555;stroke:#555555;stroke-width:0.8;" x="821.2" xlink:href="#m11d13a0dbf" y="13.578468"/>
      </g>
     </g>
     <g id="text_19">
      <!-- 12000 -->
      <g style="fill:#555555;" transform="translate(24.8 16.903468)scale(0.1 -0.1)">
       <use xlink:href="#Inconsolata-Regular-49"/>
       <use x="49.999985" xlink:href="#Inconsolata-Regular-50"/>
       <use x="99.999969" xlink:href="#Inconsolata-Regular-48"/>
       <use x="149.999954" xlink:href="#Inconsolata-Regular-48"/>
       <use x="199.999939" xlink:href="#Inconsolata-Regular-48"/>
      </g>
     </g>
     <g id="text_20">
      <!-- 12000 -->
      <g style="fill:#555555;" transform="translate(828.2 16.903468)scale(0.1 -0.1)">
       <use xlink:href="#Inconsolata-Regular-49"/>
       <use x="49.999985" xlink:href="#Inconsolata-Regular-50"/>
       <use x="99.999969" xlink:href="#Inconsolata-Regular-48"/>
       <use x="149.999954" xlink:href="#Inconsolata-Regular-48"/>
       <use x="199.999939" xlink:href="#Inconsolata-Regular-48"/>
      </g>
     </g>
    </g>
    <g id="text_21">
     <!-- daily change -->
     <defs>
      <path d="M 23.40625 -1 
Q 18.796875 -1 14.4375 1.640625 
Q 10.09375 4.296875 7.296875 9.6875 
Q 4.5 15.09375 4.5 23.296875 
Q 4.5 31.703125 7.390625 36.890625 
Q 10.296875 42.09375 14.75 44.5 
Q 19.203125 46.90625 23.796875 46.90625 
Q 28.5 46.90625 31.953125 44.75 
Q 35.40625 42.59375 37.09375 39 
L 37.09375 66.5 
L 44.703125 66.5 
L 44.703125 65.796875 
Q 44.09375 65.203125 43.9375 64.5 
Q 43.796875 63.796875 43.796875 62.09375 
L 43.90625 7.09375 
Q 43.90625 5.296875 44.046875 3.546875 
Q 44.203125 1.796875 44.90625 0 
L 37.796875 0 
Q 37.09375 1.796875 36.9375 3.546875 
Q 36.796875 5.296875 36.796875 7.09375 
Q 34.59375 3.40625 31.1875 1.203125 
Q 27.796875 -1 23.40625 -1 
z
M 24.5 5.296875 
Q 28.90625 5.296875 31.546875 7.6875 
Q 34.203125 10.09375 35.34375 14.140625 
Q 36.5 18.203125 36.5 23.09375 
Q 36.5 30.796875 33.5 35.890625 
Q 30.5 41 23.90625 41 
Q 17.796875 41 14.640625 36.5 
Q 11.5 32 11.5 24.40625 
Q 11.5 15.796875 14.796875 10.546875 
Q 18.09375 5.296875 24.5 5.296875 
z
" id="Inconsolata-Regular-100"/>
      <path d="M 21.09375 -1.09375 
Q 13.296875 -1.09375 9.09375 2.453125 
Q 4.90625 6 4.90625 11.5 
Q 4.90625 16.40625 8 19.953125 
Q 11.09375 23.5 16.34375 25.453125 
Q 21.59375 27.40625 27.90625 27.40625 
Q 30.203125 27.40625 32.75 27.296875 
Q 35.296875 27.203125 38.203125 26.796875 
Q 37.59375 34.796875 34.046875 37.796875 
Q 30.5 40.796875 23.90625 40.796875 
Q 20.59375 40.796875 17.390625 39.546875 
Q 14.203125 38.296875 11.59375 35.703125 
L 8.09375 40.296875 
Q 11.296875 43.5 15.5 45.09375 
Q 19.703125 46.703125 24.40625 46.703125 
Q 30.5 46.703125 35 44.703125 
Q 39.5 42.703125 42 37.796875 
Q 44.5 32.90625 44.5 24.296875 
L 44.5 0 
L 36.703125 0 
L 36.703125 7 
Q 35 3.703125 32.34375 1.953125 
Q 29.703125 0.203125 26.75 -0.4375 
Q 23.796875 -1.09375 21.09375 -1.09375 
z
M 12.09375 11.90625 
Q 12.09375 7.59375 14.890625 6 
Q 17.703125 4.40625 21.796875 4.40625 
Q 29.203125 4.40625 33.5 8.75 
Q 37.796875 13.09375 38.203125 21.296875 
Q 33 22 28.5 22 
Q 21.296875 22 16.6875 19.59375 
Q 12.09375 17.203125 12.09375 11.90625 
z
" id="Inconsolata-Regular-97"/>
      <path d="M 10 0 
L 10 5.796875 
L 21.703125 5.796875 
L 21.703125 39.90625 
L 10.59375 39.90625 
L 10.59375 45.703125 
L 28.90625 45.703125 
L 28.90625 5.796875 
L 39.59375 5.796875 
L 39.59375 0 
z
M 24.90625 55.296875 
Q 22.796875 55.296875 21.296875 56.796875 
Q 19.796875 58.296875 19.796875 60.40625 
Q 19.796875 62.59375 21.25 64.09375 
Q 22.703125 65.59375 24.90625 65.59375 
Q 27 65.59375 28.546875 64.046875 
Q 30.09375 62.5 30.09375 60.40625 
Q 30.09375 58.296875 28.546875 56.796875 
Q 27 55.296875 24.90625 55.296875 
z
" id="Inconsolata-Regular-105"/>
      <path d="M 7.90625 0 
L 7.90625 5.796875 
L 21.40625 5.796875 
L 21.40625 60.703125 
L 8.5 60.703125 
L 8.5 66.5 
L 28.703125 66.5 
L 28.703125 5.796875 
L 42.09375 5.796875 
L 42.09375 0 
z
" id="Inconsolata-Regular-108"/>
      <path d="M 12.703125 -17.40625 
Q 6.296875 -17.40625 2.203125 -13.5 
L 5.296875 -8.59375 
L 5.90625 -7.703125 
L 6.5 -8.09375 
Q 6.703125 -8.90625 7.203125 -9.453125 
Q 7.703125 -10 9.09375 -10.90625 
Q 10.90625 -11.5 13.09375 -11.5 
Q 17 -11.5 19.203125 -8.75 
Q 21.40625 -6 23.296875 -0.296875 
L 4.59375 45.703125 
L 12.09375 45.703125 
L 26.296875 9.09375 
L 32.296875 27.5 
Q 33.796875 32.09375 35.1875 36.59375 
Q 36.59375 41.09375 37.09375 45.703125 
L 44.296875 45.703125 
Q 43.59375 41.09375 42.09375 36.390625 
Q 40.59375 31.703125 38.90625 27 
L 27.5 -5.203125 
Q 25.09375 -11.90625 21.34375 -14.65625 
Q 17.59375 -17.40625 12.703125 -17.40625 
z
" id="Inconsolata-Regular-121"/>
      <path id="Inconsolata-Regular-32"/>
      <path d="M 28.5 -1.09375 
Q 21.90625 -1.09375 16.703125 2 
Q 11.5 5.09375 8.546875 10.5 
Q 5.59375 15.90625 5.59375 22.796875 
Q 5.59375 29.703125 8.546875 35.046875 
Q 11.5 40.40625 16.640625 43.5 
Q 21.796875 46.59375 28.40625 46.59375 
Q 34 46.59375 38.453125 44.34375 
Q 42.90625 42.09375 45.703125 38.09375 
L 41.203125 33.703125 
L 40.5 33 
L 40 33.5 
Q 40 34.296875 39.640625 35 
Q 39.296875 35.703125 38.09375 36.90625 
Q 35.90625 38.90625 33.40625 39.703125 
Q 30.90625 40.5 27.59375 40.5 
Q 23.796875 40.5 20.4375 38.390625 
Q 17.09375 36.296875 15.046875 32.4375 
Q 13 28.59375 13 23.296875 
Q 13 18.203125 15.046875 14.140625 
Q 17.09375 10.09375 20.6875 7.75 
Q 24.296875 5.40625 28.90625 5.40625 
Q 35.796875 5.40625 40.796875 11 
L 45 6.09375 
Q 38.296875 -1.09375 28.5 -1.09375 
z
" id="Inconsolata-Regular-99"/>
      <path d="M 7.296875 66.5 
L 15.203125 66.5 
L 15.203125 65.796875 
Q 14.59375 65.203125 14.4375 64.5 
Q 14.296875 63.796875 14.296875 62.09375 
L 14.296875 37.59375 
Q 17 41.796875 21.046875 44.296875 
Q 25.09375 46.796875 29.296875 46.796875 
Q 35.5 46.796875 39.34375 42.4375 
Q 43.203125 38.09375 43.203125 27.703125 
L 43.203125 0 
L 36.203125 0 
L 36.203125 27.5 
Q 36.203125 34.703125 33.75 37.59375 
Q 31.296875 40.5 27.796875 40.5 
Q 24.796875 40.5 21.640625 38.796875 
Q 18.5 37.09375 16.390625 33.9375 
Q 14.296875 30.796875 14.296875 26.296875 
L 14.296875 0 
L 7.296875 0 
z
" id="Inconsolata-Regular-104"/>
      <path d="M 7.203125 0 
L 7.203125 45.703125 
L 14.203125 45.703125 
L 14.203125 37.59375 
Q 16.796875 41.796875 20.9375 44.296875 
Q 25.09375 46.796875 29.703125 46.796875 
Q 35.296875 46.796875 39.1875 42.4375 
Q 43.09375 38.09375 43.09375 27.703125 
L 43.09375 0 
L 36.09375 0 
L 36.09375 27.5 
Q 36.09375 34.703125 33.640625 37.59375 
Q 31.203125 40.5 27.703125 40.5 
Q 24.703125 40.5 21.546875 38.75 
Q 18.40625 37 16.296875 33.84375 
Q 14.203125 30.703125 14.203125 26.296875 
L 14.203125 0 
z
" id="Inconsolata-Regular-110"/>
      <path d="M 22.59375 15.5 
Q 18.703125 15.5 15.5 16.90625 
Q 13.703125 14.703125 13.703125 12.703125 
Q 13.703125 10.296875 16.703125 9.25 
Q 19.703125 8.203125 27.703125 8.203125 
Q 34.703125 8.203125 38.296875 6.703125 
Q 41.90625 5.203125 43.203125 2.59375 
Q 44.5 0 44.5 -3.40625 
Q 44.5 -6.90625 42.59375 -10.09375 
Q 40.703125 -13.296875 36.34375 -15.25 
Q 32 -17.203125 24.703125 -17.203125 
Q 15.09375 -17.203125 9.4375 -14.25 
Q 3.796875 -11.296875 3.796875 -5.40625 
Q 3.796875 -1.703125 5.890625 0.9375 
Q 8 3.59375 10.90625 4.90625 
Q 7.59375 7.09375 7.59375 11 
Q 7.59375 13.203125 8.6875 15.296875 
Q 9.796875 17.40625 11.703125 19.40625 
Q 6.59375 23.90625 6.59375 31.5 
Q 6.59375 35.90625 8.546875 39.5 
Q 10.5 43.09375 14.09375 45.25 
Q 17.703125 47.40625 22.59375 47.40625 
Q 26.296875 47.40625 29.25 46.15625 
Q 32.203125 44.90625 34.296875 42.703125 
Q 36.90625 45.09375 39.796875 46.140625 
Q 42.703125 47.203125 46.59375 46.90625 
L 47.5 41 
Q 44.5 41.296875 41.84375 40.890625 
Q 39.203125 40.5 36.90625 39 
Q 38.59375 35.59375 38.59375 31.5 
Q 38.59375 27.09375 36.640625 23.4375 
Q 34.703125 19.796875 31.140625 17.640625 
Q 27.59375 15.5 22.59375 15.5 
z
M 22.59375 21.5 
Q 27 21.5 29.796875 24.453125 
Q 32.59375 27.40625 32.59375 31.5 
Q 32.59375 35.59375 29.796875 38.546875 
Q 27 41.5 22.59375 41.5 
Q 18.296875 41.5 15.4375 38.546875 
Q 12.59375 35.59375 12.59375 31.5 
Q 12.59375 27.40625 15.4375 24.453125 
Q 18.296875 21.5 22.59375 21.5 
z
M 10.40625 -4.59375 
Q 10.40625 -8 14.25 -9.890625 
Q 18.09375 -11.796875 24.796875 -11.796875 
Q 31.59375 -11.796875 34.75 -9.75 
Q 37.90625 -7.703125 37.90625 -4.5 
Q 37.90625 -2.296875 37.09375 -0.890625 
Q 36.296875 0.5 33.796875 1.203125 
Q 31.296875 1.90625 26.203125 1.90625 
Q 22.703125 1.90625 19.84375 2.203125 
Q 17 2.5 14.703125 3.203125 
Q 12.40625 1.59375 11.40625 -0.046875 
Q 10.40625 -1.703125 10.40625 -4.59375 
z
" id="Inconsolata-Regular-103"/>
      <path d="M 27.203125 -1 
Q 17.203125 -1 11.046875 5.09375 
Q 4.90625 11.203125 4.90625 22.703125 
Q 4.90625 30.5 7.75 35.84375 
Q 10.59375 41.203125 15.34375 44 
Q 20.09375 46.796875 25.90625 46.796875 
Q 31.09375 46.796875 35.296875 44.5 
Q 39.5 42.203125 42 37.390625 
Q 44.5 32.59375 44.5 25.09375 
Q 44.5 24.296875 44.453125 23.4375 
Q 44.40625 22.59375 44.296875 21.796875 
L 11.796875 21.796875 
Q 12.203125 13 16.75 8.890625 
Q 21.296875 4.796875 27.40625 4.796875 
Q 34.59375 4.796875 39.203125 9.90625 
L 43.203125 6 
Q 37.40625 -1 27.203125 -1 
z
M 12.09375 27.40625 
L 37.203125 27.40625 
Q 37.203125 33.796875 33.953125 37.546875 
Q 30.703125 41.296875 25.40625 41.296875 
Q 20.703125 41.296875 16.890625 37.9375 
Q 13.09375 34.59375 12.09375 27.40625 
z
" id="Inconsolata-Regular-101"/>
     </defs>
     <g style="fill:#555555;" transform="translate(18.71125 118)rotate(-90)scale(0.12 -0.12)">
      <use xlink:href="#Inconsolata-Regular-100"/>
      <use x="49.999985" xlink:href="#Inconsolata-Regular-97"/>
      <use x="99.999969" xlink:href="#Inconsolata-Regular-105"/>
      <use x="149.999954" xlink:href="#Inconsolata-Regular-108"/>
      <use x="199.999939" xlink:href="#Inconsolata-Regular-121"/>
      <use x="249.999924" xlink:href="#Inconsolata-Regular-32"/>
      <use x="299.999908" xlink:href="#Inconsolata-Regular-99"/>
      <use x="349.999893" xlink:href="#Inconsolata-Regular-104"/>
      <use x="399.999878" xlink:href="#Inconsolata-Regular-97"/>
      <use x="449.999863" xlink:href="#Inconsolata-Regular-110"/>
      <use x="499.999847" xlink:href="#Inconsolata-Regular-103"/>
      <use x="549.999832" xlink:href="#Inconsolata-Regular-101"/>
     </g>
    </g>
   </g>
   <g id="patch_3">
    <path clip-path="url(#p721e230872)" d="M 91.545455 153.2 
L 94.981346 153.2 
L 94.981346 153.2 
L 91.545455 153.2 
z
" style="fill:#348abd;opacity:0.2;"/>
   </g>
   <g id="patch_4">
    <path clip-path="url(#p721e230872)" d="M 95.840319 153.2 
L 99.276211 153.2 
L 99.276211 153.2 
L 95.840319 153.2 
z
" style="fill:#348abd;opacity:0.2;"/>
   </g>
   <g id="patch_5">
    <path clip-path="url(#p721e230872)" d="M 100.135184 153.2 
L 103.571075 153.2 
L 103.571075 153.2 
L 100.135184 153.2 
z
" style="fill:#348abd;opacity:0.2;"/>
   </g>
   <g id="patch_6">
    <path clip-path="url(#p721e230872)" d="M 104.430048 153.2 
L 107.86594 153.2 
L 107.86594 153.2 
L 104.430048 153.2 
z
" style="fill:#348abd;opacity:0.2;"/>
   </g>
   <g id="patch_7">
    <path clip-path="url(#p721e230872)" d="M 108.724913 153.2 
L 112.160805 153.2 
L 112.160805 153.2 
L 108.724913 153.2 
z
" style="fill:#348abd;opacity:0.2;"/>
   </g>
   <g id="patch_8">
    <path clip-path="url(#p721e230872)" d="M 113.019778 153.2 
L 116.455669 153.2 
L 116.455669 153.2 
L 113.019778 153.2 
z
" style="fill:#348abd;opacity:0.2;"/>
   </g>
   <g id="patch_9">
    <path clip-path="url(#p721e230872)" d="M 117.314642 153.2 
L 120.750534 153.2 
L 120.750534 153.2 
L 117.314642 153.2 
z
" style="fill:#348abd;opacity:0.2;"/>
   </g>
   <g id="patch_10">
    <path clip-path="url(#p721e230872)" d="M 121.609507 153.2 
L 125.045398 153.2 
L 125.045398 153.2 
L 121.609507 153.2 
z
" style="fill:#348abd;opacity:0.2;"/>
   </g>
   <g id="patch_11">
    <path clip-path="url(#p721e230872)" d="M 125.904371 153.2 
L 129.340263 153.2 
L 129.340263 153.17673 
L 125.904371 153.17673 
z
" style="fill:#348abd;opacity:0.2;"/>
   </g>
   <g id="patch_12">
    <path clip-path="url(#p721e230872)" d="M 130.199236 153.2 
L 133.635128 153.2 
L 133.635128 153.2 
L 130.199236 153.2 
z
" style="fill:#348abd;opacity:0.2;"/>
   </g>
   <g id="patch_13">
    <path clip-path="url(#p721e230872)" d="M 134.4941 153.2 
L 137.929992 153.2 
L 137.929992 153.2 
L 134.4941 153.2 
z
" style="fill:#348abd;opacity:0.2;"/>
   </g>
   <g id="patch_14">
    <path clip-path="url(#p721e230872)" d="M 138.788965 153.2 
L 142.224857 153.2 
L 142.224857 153.2 
L 138.788965 153.2 
z
" style="fill:#348abd;opacity:0.2;"/>
   </g>
   <g id="patch_15">
    <path clip-path="url(#p721e230872)" d="M 143.08383 153.2 
L 146.519721 153.2 
L 146.519721 153.2 
L 143.08383 153.2 
z
" style="fill:#348abd;opacity:0.2;"/>
   </g>
   <g id="patch_16">
    <path clip-path="url(#p721e230872)" d="M 147.378694 153.2 
L 150.814586 153.2 
L 150.814586 153.2 
L 147.378694 153.2 
z
" style="fill:#348abd;opacity:0.2;"/>
   </g>
   <g id="patch_17">
    <path clip-path="url(#p721e230872)" d="M 151.673559 153.2 
L 155.10945 153.2 
L 155.10945 153.2 
L 151.673559 153.2 
z
" style="fill:#348abd;opacity:0.2;"/>
   </g>
   <g id="patch_18">
    <path clip-path="url(#p721e230872)" d="M 155.968423 153.2 
L 159.404315 153.2 
L 159.404315 153.2 
L 155.968423 153.2 
z
" style="fill:#348abd;opacity:0.2;"/>
   </g>
   <g id="patch_19">
    <path clip-path="url(#p721e230872)" d="M 160.263288 153.2 
L 163.69918 153.2 
L 163.69918 153.2 
L 160.263288 153.2 
z
" style="fill:#348abd;opacity:0.2;"/>
   </g>
   <g id="patch_20">
    <path clip-path="url(#p721e230872)" d="M 164.558153 153.2 
L 167.994044 153.2 
L 167.994044 153.2 
L 164.558153 153.2 
z
" style="fill:#348abd;opacity:0.2;"/>
   </g>
   <g id="patch_21">
    <path clip-path="url(#p721e230872)" d="M 168.853017 153.2 
L 172.288909 153.2 
L 172.288909 153.2 
L 168.853017 153.2 
z
" style="fill:#348abd;opacity:0.2;"/>
   </g>
   <g id="patch_22">
    <path clip-path="url(#p721e230872)" d="M 173.147882 153.2 
L 176.583773 153.2 
L 176.583773 153.2 
L 173.147882 153.2 
z
" style="fill:#348abd;opacity:0.2;"/>
   </g>
   <g id="patch_23">
    <path clip-path="url(#p721e230872)" d="M 177.442746 153.2 
L 180.878638 153.2 
L 180.878638 153.2 
L 177.442746 153.2 
z
" style="fill:#348abd;opacity:0.2;"/>
   </g>
   <g id="patch_24">
    <path clip-path="url(#p721e230872)" d="M 181.737611 153.2 
L 185.173503 153.2 
L 185.173503 153.2 
L 181.737611 153.2 
z
" style="fill:#348abd;opacity:0.2;"/>
   </g>
   <g id="patch_25">
    <path clip-path="url(#p721e230872)" d="M 186.032476 153.2 
L 189.468367 153.2 
L 189.468367 153.2 
L 186.032476 153.2 
z
" style="fill:#348abd;opacity:0.2;"/>
   </g>
   <g id="patch_26">
    <path clip-path="url(#p721e230872)" d="M 190.32734 153.2 
L 193.763232 153.2 
L 193.763232 153.2 
L 190.32734 153.2 
z
" style="fill:#348abd;opacity:0.2;"/>
   </g>
   <g id="patch_27">
    <path clip-path="url(#p721e230872)" d="M 194.622205 153.2 
L 198.058096 153.2 
L 198.058096 153.2 
L 194.622205 153.2 
z
" style="fill:#348abd;opacity:0.2;"/>
   </g>
   <g id="patch_28">
    <path clip-path="url(#p721e230872)" d="M 198.917069 153.2 
L 202.352961 153.2 
L 202.352961 153.2 
L 198.917069 153.2 
z
" style="fill:#348abd;opacity:0.2;"/>
   </g>
   <g id="patch_29">
    <path clip-path="url(#p721e230872)" d="M 203.211934 153.2 
L 206.647826 153.2 
L 206.647826 153.2 
L 203.211934 153.2 
z
" style="fill:#348abd;opacity:0.2;"/>
   </g>
   <g id="patch_30">
    <path clip-path="url(#p721e230872)" d="M 207.506799 153.2 
L 210.94269 153.2 
L 210.94269 153.2 
L 207.506799 153.2 
z
" style="fill:#348abd;opacity:0.2;"/>
   </g>
   <g id="patch_31">
    <path clip-path="url(#p721e230872)" d="M 211.801663 153.2 
L 215.237555 153.2 
L 215.237555 153.2 
L 211.801663 153.2 
z
" style="fill:#348abd;opacity:0.2;"/>
   </g>
   <g id="patch_32">
    <path clip-path="url(#p721e230872)" d="M 216.096528 153.2 
L 219.532419 153.2 
L 219.532419 153.2 
L 216.096528 153.2 
z
" style="fill:#348abd;opacity:0.2;"/>
   </g>
   <g id="patch_33">
    <path clip-path="url(#p721e230872)" d="M 220.391392 153.2 
L 223.827284 153.2 
L 223.827284 153.2 
L 220.391392 153.2 
z
" style="fill:#348abd;opacity:0.2;"/>
   </g>
   <g id="patch_34">
    <path clip-path="url(#p721e230872)" d="M 224.686257 153.2 
L 228.122149 153.2 
L 228.122149 153.2 
L 224.686257 153.2 
z
" style="fill:#348abd;opacity:0.2;"/>
   </g>
   <g id="patch_35">
    <path clip-path="url(#p721e230872)" d="M 228.981121 153.2 
L 232.417013 153.2 
L 232.417013 153.2 
L 228.981121 153.2 
z
" style="fill:#348abd;opacity:0.2;"/>
   </g>
   <g id="patch_36">
    <path clip-path="url(#p721e230872)" d="M 233.275986 153.2 
L 236.711878 153.2 
L 236.711878 153.2 
L 233.275986 153.2 
z
" style="fill:#348abd;opacity:0.2;"/>
   </g>
   <g id="patch_37">
    <path clip-path="url(#p721e230872)" d="M 237.570851 153.2 
L 241.006742 153.2 
L 241.006742 153.2 
L 237.570851 153.2 
z
" style="fill:#348abd;opacity:0.2;"/>
   </g>
   <g id="patch_38">
    <path clip-path="url(#p721e230872)" d="M 241.865715 153.2 
L 245.301607 153.2 
L 245.301607 153.2 
L 241.865715 153.2 
z
" style="fill:#348abd;opacity:0.2;"/>
   </g>
   <g id="patch_39">
    <path clip-path="url(#p721e230872)" d="M 246.16058 153.2 
L 249.596472 153.2 
L 249.596472 153.2 
L 246.16058 153.2 
z
" style="fill:#348abd;opacity:0.2;"/>
   </g>
   <g id="patch_40">
    <path clip-path="url(#p721e230872)" d="M 250.455444 153.2 
L 253.891336 153.2 
L 253.891336 153.2 
L 250.455444 153.2 
z
" style="fill:#348abd;opacity:0.2;"/>
   </g>
   <g id="patch_41">
    <path clip-path="url(#p721e230872)" d="M 254.750309 153.2 
L 258.186201 153.2 
L 258.186201 153.2 
L 254.750309 153.2 
z
" style="fill:#348abd;opacity:0.2;"/>
   </g>
   <g id="patch_42">
    <path clip-path="url(#p721e230872)" d="M 259.045174 153.2 
L 262.481065 153.2 
L 262.481065 153.188365 
L 259.045174 153.188365 
z
" style="fill:#348abd;opacity:0.2;"/>
   </g>
   <g id="patch_43">
    <path clip-path="url(#p721e230872)" d="M 263.340038 153.2 
L 266.77593 153.2 
L 266.77593 153.2 
L 263.340038 153.2 
z
" style="fill:#348abd;opacity:0.2;"/>
   </g>
   <g id="patch_44">
    <path clip-path="url(#p721e230872)" d="M 267.634903 153.2 
L 271.070794 153.2 
L 271.070794 153.2 
L 267.634903 153.2 
z
" style="fill:#348abd;opacity:0.2;"/>
   </g>
   <g id="patch_45">
    <path clip-path="url(#p721e230872)" d="M 271.929767 153.2 
L 275.365659 153.2 
L 275.365659 153.188365 
L 271.929767 153.188365 
z
" style="fill:#348abd;opacity:0.2;"/>
   </g>
   <g id="patch_46">
    <path clip-path="url(#p721e230872)" d="M 276.224632 153.2 
L 279.660524 153.2 
L 279.660524 153.095284 
L 276.224632 153.095284 
z
" style="fill:#348abd;opacity:0.2;"/>
   </g>
   <g id="patch_47">
    <path clip-path="url(#p721e230872)" d="M 280.519497 153.2 
L 283.955388 153.2 
L 283.955388 153.2 
L 280.519497 153.2 
z
" style="fill:#348abd;opacity:0.2;"/>
   </g>
   <g id="patch_48">
    <path clip-path="url(#p721e230872)" d="M 284.814361 153.2 
L 288.250253 153.2 
L 288.250253 153.153459 
L 284.814361 153.153459 
z
" style="fill:#348abd;opacity:0.2;"/>
   </g>
   <g id="patch_49">
    <path clip-path="url(#p721e230872)" d="M 289.109226 153.2 
L 292.545117 153.2 
L 292.545117 153.2 
L 289.109226 153.2 
z
" style="fill:#348abd;opacity:0.2;"/>
   </g>
   <g id="patch_50">
    <path clip-path="url(#p721e230872)" d="M 293.40409 153.2 
L 296.839982 153.2 
L 296.839982 153.165095 
L 293.40409 153.165095 
z
" style="fill:#348abd;opacity:0.2;"/>
   </g>
   <g id="patch_51">
    <path clip-path="url(#p721e230872)" d="M 297.698955 153.2 
L 301.134847 153.2 
L 301.134847 153.2 
L 297.698955 153.2 
z
" style="fill:#348abd;opacity:0.2;"/>
   </g>
   <g id="patch_52">
    <path clip-path="url(#p721e230872)" d="M 301.99382 153.2 
L 305.429711 153.2 
L 305.429711 153.106919 
L 301.99382 153.106919 
z
" style="fill:#348abd;opacity:0.2;"/>
   </g>
   <g id="patch_53">
    <path clip-path="url(#p721e230872)" d="M 306.288684 153.2 
L 309.724576 153.2 
L 309.724576 153.002203 
L 306.288684 153.002203 
z
" style="fill:#348abd;opacity:0.2;"/>
   </g>
   <g id="patch_54">
    <path clip-path="url(#p721e230872)" d="M 310.583549 153.2 
L 314.01944 153.2 
L 314.01944 153.037108 
L 310.583549 153.037108 
z
" style="fill:#348abd;opacity:0.2;"/>
   </g>
   <g id="patch_55">
    <path clip-path="url(#p721e230872)" d="M 314.878413 153.2 
L 318.314305 153.2 
L 318.314305 153.153459 
L 314.878413 153.153459 
z
" style="fill:#348abd;opacity:0.2;"/>
   </g>
   <g id="patch_56">
    <path clip-path="url(#p721e230872)" d="M 319.173278 153.2 
L 322.60917 153.2 
L 322.60917 152.885852 
L 319.173278 152.885852 
z
" style="fill:#348abd;opacity:0.2;"/>
   </g>
   <g id="patch_57">
    <path clip-path="url(#p721e230872)" d="M 323.468142 153.2 
L 326.904034 153.2 
L 326.904034 152.920757 
L 323.468142 152.920757 
z
" style="fill:#348abd;opacity:0.2;"/>
   </g>
   <g id="patch_58">
    <path clip-path="url(#p721e230872)" d="M 327.763007 153.2 
L 331.198899 153.2 
L 331.198899 152.816041 
L 327.763007 152.816041 
z
" style="fill:#348abd;opacity:0.2;"/>
   </g>
   <g id="patch_59">
    <path clip-path="url(#p721e230872)" d="M 332.057872 153.2 
L 335.493763 153.2 
L 335.493763 152.594973 
L 332.057872 152.594973 
z
" style="fill:#348abd;opacity:0.2;"/>
   </g>
   <g id="patch_60">
    <path clip-path="url(#p721e230872)" d="M 336.352736 153.2 
L 339.788628 153.2 
L 339.788628 152.571703 
L 336.352736 152.571703 
z
" style="fill:#348abd;opacity:0.2;"/>
   </g>
   <g id="patch_61">
    <path clip-path="url(#p721e230872)" d="M 340.647601 153.2 
L 344.083493 153.2 
L 344.083493 152.583338 
L 340.647601 152.583338 
z
" style="fill:#348abd;opacity:0.2;"/>
   </g>
   <g id="patch_62">
    <path clip-path="url(#p721e230872)" d="M 344.942465 153.2 
L 348.378357 153.2 
L 348.378357 152.490257 
L 344.942465 152.490257 
z
" style="fill:#348abd;opacity:0.2;"/>
   </g>
   <g id="patch_63">
    <path clip-path="url(#p721e230872)" d="M 349.23733 153.2 
L 352.673222 153.2 
L 352.673222 152.373906 
L 349.23733 152.373906 
z
" style="fill:#348abd;opacity:0.2;"/>
   </g>
   <g id="patch_64">
    <path clip-path="url(#p721e230872)" d="M 353.532195 153.2 
L 356.968086 153.2 
L 356.968086 152.536798 
L 353.532195 152.536798 
z
" style="fill:#348abd;opacity:0.2;"/>
   </g>
   <g id="patch_65">
    <path clip-path="url(#p721e230872)" d="M 357.827059 153.2 
L 361.262951 153.2 
L 361.262951 151.303474 
L 357.827059 151.303474 
z
" style="fill:#348abd;opacity:0.2;"/>
   </g>
   <g id="patch_66">
    <path clip-path="url(#p721e230872)" d="M 362.121924 153.2 
L 365.557815 153.2 
L 365.557815 151.082407 
L 362.121924 151.082407 
z
" style="fill:#348abd;opacity:0.2;"/>
   </g>
   <g id="patch_67">
    <path clip-path="url(#p721e230872)" d="M 366.416788 153.2 
L 369.85268 153.2 
L 369.85268 150.919515 
L 366.416788 150.919515 
z
" style="fill:#348abd;opacity:0.2;"/>
   </g>
   <g id="patch_68">
    <path clip-path="url(#p721e230872)" d="M 370.711653 153.2 
L 374.147545 153.2 
L 374.147545 150.547191 
L 370.711653 150.547191 
z
" style="fill:#348abd;opacity:0.2;"/>
   </g>
   <g id="patch_69">
    <path clip-path="url(#p721e230872)" d="M 375.006518 153.2 
L 378.442409 153.2 
L 378.442409 150.058516 
L 375.006518 150.058516 
z
" style="fill:#348abd;opacity:0.2;"/>
   </g>
   <g id="patch_70">
    <path clip-path="url(#p721e230872)" d="M 379.301382 153.2 
L 382.737274 153.2 
L 382.737274 149.686191 
L 379.301382 149.686191 
z
" style="fill:#348abd;opacity:0.2;"/>
   </g>
   <g id="patch_71">
    <path clip-path="url(#p721e230872)" d="M 383.596247 153.2 
L 387.032138 153.2 
L 387.032138 147.370801 
L 383.596247 147.370801 
z
" style="fill:#348abd;opacity:0.2;"/>
   </g>
   <g id="patch_72">
    <path clip-path="url(#p721e230872)" d="M 387.891111 153.2 
L 391.327003 153.2 
L 391.327003 148.080544 
L 387.891111 148.080544 
z
" style="fill:#348abd;opacity:0.2;"/>
   </g>
   <g id="patch_73">
    <path clip-path="url(#p721e230872)" d="M 392.185976 153.2 
L 395.621868 153.2 
L 395.621868 144.229317 
L 392.185976 144.229317 
z
" style="fill:#348abd;opacity:0.2;"/>
   </g>
   <g id="patch_74">
    <path clip-path="url(#p721e230872)" d="M 396.480841 153.2 
L 399.916732 153.2 
L 399.916732 146.207288 
L 396.480841 146.207288 
z
" style="fill:#348abd;opacity:0.2;"/>
   </g>
   <g id="patch_75">
    <path clip-path="url(#p721e230872)" d="M 400.775705 153.2 
L 404.211597 153.2 
L 404.211597 146.428356 
L 400.775705 146.428356 
z
" style="fill:#348abd;opacity:0.2;"/>
   </g>
   <g id="patch_76">
    <path clip-path="url(#p721e230872)" d="M 405.07057 153.2 
L 408.506461 153.2 
L 408.506461 145.544086 
L 405.07057 145.544086 
z
" style="fill:#348abd;opacity:0.2;"/>
   </g>
   <g id="patch_77">
    <path clip-path="url(#p721e230872)" d="M 409.365434 153.2 
L 412.801326 153.2 
L 412.801326 142.100088 
L 409.365434 142.100088 
z
" style="fill:#348abd;opacity:0.2;"/>
   </g>
   <g id="patch_78">
    <path clip-path="url(#p721e230872)" d="M 413.660299 153.2 
L 417.096191 153.2 
L 417.096191 139.773063 
L 413.660299 139.773063 
z
" style="fill:#348abd;opacity:0.2;"/>
   </g>
   <g id="patch_79">
    <path clip-path="url(#p721e230872)" d="M 417.955164 153.2 
L 421.391055 153.2 
L 421.391055 139.528725 
L 417.955164 139.528725 
z
" style="fill:#348abd;opacity:0.2;"/>
   </g>
   <g id="patch_80">
    <path clip-path="url(#p721e230872)" d="M 422.250028 153.2 
L 425.68592 153.2 
L 425.68592 136.224349 
L 422.250028 136.224349 
z
" style="fill:#348abd;opacity:0.2;"/>
   </g>
   <g id="patch_81">
    <path clip-path="url(#p721e230872)" d="M 426.544893 153.2 
L 429.980784 153.2 
L 429.980784 132.419662 
L 426.544893 132.419662 
z
" style="fill:#348abd;opacity:0.2;"/>
   </g>
   <g id="patch_82">
    <path clip-path="url(#p721e230872)" d="M 430.839757 153.2 
L 434.275649 153.2 
L 434.275649 133.804242 
L 430.839757 133.804242 
z
" style="fill:#348abd;opacity:0.2;"/>
   </g>
   <g id="patch_83">
    <path clip-path="url(#p721e230872)" d="M 435.134622 153.2 
L 438.570514 153.2 
L 438.570514 127.765611 
L 435.134622 127.765611 
z
" style="fill:#348abd;opacity:0.2;"/>
   </g>
   <g id="patch_84">
    <path clip-path="url(#p721e230872)" d="M 439.429486 153.2 
L 442.865378 153.2 
L 442.865378 123.437344 
L 439.429486 123.437344 
z
" style="fill:#348abd;opacity:0.2;"/>
   </g>
   <g id="patch_85">
    <path clip-path="url(#p721e230872)" d="M 443.724351 153.2 
L 447.160243 153.2 
L 447.160243 120.924156 
L 443.724351 120.924156 
z
" style="fill:#348abd;opacity:0.2;"/>
   </g>
   <g id="patch_86">
    <path clip-path="url(#p721e230872)" d="M 448.019216 153.2 
L 451.455107 153.2 
L 451.455107 113.780188 
L 448.019216 113.780188 
z
" style="fill:#348abd;opacity:0.2;"/>
   </g>
   <g id="patch_87">
    <path clip-path="url(#p721e230872)" d="M 452.31408 153.2 
L 455.749972 153.2 
L 455.749972 113.08208 
L 452.31408 113.08208 
z
" style="fill:#348abd;opacity:0.2;"/>
   </g>
   <g id="patch_88">
    <path clip-path="url(#p721e230872)" d="M 456.608945 153.2 
L 460.044836 153.2 
L 460.044836 105.845031 
L 456.608945 105.845031 
z
" style="fill:#348abd;opacity:0.2;"/>
   </g>
   <g id="patch_89">
    <path clip-path="url(#p721e230872)" d="M 460.903809 153.2 
L 464.339701 153.2 
L 464.339701 97.525914 
L 460.903809 97.525914 
z
" style="fill:#348abd;opacity:0.2;"/>
   </g>
   <g id="patch_90">
    <path clip-path="url(#p721e230872)" d="M 465.198674 153.2 
L 468.634566 153.2 
L 468.634566 82.691127 
L 465.198674 82.691127 
z
" style="fill:#348abd;opacity:0.2;"/>
   </g>
   <g id="patch_91">
    <path clip-path="url(#p721e230872)" d="M 469.493539 153.2 
L 472.92943 153.2 
L 472.92943 103.541275 
L 469.493539 103.541275 
z
" style="fill:#348abd;opacity:0.2;"/>
   </g>
   <g id="patch_92">
    <path clip-path="url(#p721e230872)" d="M 473.788403 153.2 
L 477.224295 153.2 
L 477.224295 87.55461 
L 473.788403 87.55461 
z
" style="fill:#348abd;opacity:0.2;"/>
   </g>
   <g id="patch_93">
    <path clip-path="url(#p721e230872)" d="M 478.083268 153.2 
L 481.519159 153.2 
L 481.519159 92.278472 
L 478.083268 92.278472 
z
" style="fill:#348abd;opacity:0.2;"/>
   </g>
   <g id="patch_94">
    <path clip-path="url(#p721e230872)" d="M 482.378132 153.2 
L 485.814024 153.2 
L 485.814024 97.653901 
L 482.378132 97.653901 
z
" style="fill:#348abd;opacity:0.2;"/>
   </g>
   <g id="patch_95">
    <path clip-path="url(#p721e230872)" d="M 486.672997 153.2 
L 490.108889 153.2 
L 490.108889 85.146139 
L 486.672997 85.146139 
z
" style="fill:#348abd;opacity:0.2;"/>
   </g>
   <g id="patch_96">
    <path clip-path="url(#p721e230872)" d="M 490.967862 153.2 
L 494.403753 153.2 
L 494.403753 83.784829 
L 490.967862 83.784829 
z
" style="fill:#348abd;opacity:0.2;"/>
   </g>
   <g id="patch_97">
    <path clip-path="url(#p721e230872)" d="M 495.262726 153.2 
L 498.698618 153.2 
L 498.698618 79.188953 
L 495.262726 79.188953 
z
" style="fill:#348abd;opacity:0.2;"/>
   </g>
   <g id="patch_98">
    <path clip-path="url(#p721e230872)" d="M 499.557591 153.2 
L 502.993482 153.2 
L 502.993482 81.085479 
L 499.557591 81.085479 
z
" style="fill:#348abd;opacity:0.2;"/>
   </g>
   <g id="patch_99">
    <path clip-path="url(#p721e230872)" d="M 503.852455 153.2 
L 507.288347 153.2 
L 507.288347 78.607197 
L 503.852455 78.607197 
z
" style="fill:#348abd;opacity:0.2;"/>
   </g>
   <g id="patch_100">
    <path clip-path="url(#p721e230872)" d="M 508.14732 153.2 
L 511.583212 153.2 
L 511.583212 85.23922 
L 508.14732 85.23922 
z
" style="fill:#348abd;opacity:0.2;"/>
   </g>
   <g id="patch_101">
    <path clip-path="url(#p721e230872)" d="M 512.442185 153.2 
L 515.878076 153.2 
L 515.878076 70.602229 
L 512.442185 70.602229 
z
" style="fill:#348abd;opacity:0.2;"/>
   </g>
   <g id="patch_102">
    <path clip-path="url(#p721e230872)" d="M 516.737049 153.2 
L 520.172941 153.2 
L 520.172941 60.898533 
L 516.737049 60.898533 
z
" style="fill:#348abd;opacity:0.2;"/>
   </g>
   <g id="patch_103">
    <path clip-path="url(#p721e230872)" d="M 521.031914 153.2 
L 524.467805 153.2 
L 524.467805 41.235167 
L 521.031914 41.235167 
z
" style="fill:#348abd;opacity:0.2;"/>
   </g>
   <g id="patch_104">
    <path clip-path="url(#p721e230872)" d="M 525.326778 153.2 
L 528.76267 153.2 
L 528.76267 29.483688 
L 525.326778 29.483688 
z
" style="fill:#348abd;opacity:0.2;"/>
   </g>
   <g id="patch_105">
    <path clip-path="url(#p721e230872)" d="M 529.621643 153.2 
L 533.057535 153.2 
L 533.057535 30.088715 
L 529.621643 30.088715 
z
" style="fill:#348abd;opacity:0.2;"/>
   </g>
   <g id="patch_106">
    <path clip-path="url(#p721e230872)" d="M 533.916507 153.2 
L 537.352399 153.2 
L 537.352399 35.661941 
L 533.916507 35.661941 
z
" style="fill:#348abd;opacity:0.2;"/>
   </g>
   <g id="patch_107">
    <path clip-path="url(#p721e230872)" d="M 538.211372 153.2 
L 541.647264 153.2 
L 541.647264 30.344687 
L 538.211372 30.344687 
z
" style="fill:#348abd;opacity:0.2;"/>
   </g>
   <g id="patch_108">
    <path clip-path="url(#p721e230872)" d="M 542.506237 153.2 
L 545.942128 153.2 
L 545.942128 22.525882 
L 542.506237 22.525882 
z
" style="fill:#348abd;opacity:0.2;"/>
   </g>
   <g id="patch_109">
    <path clip-path="url(#p721e230872)" d="M 546.801101 153.2 
L 550.236993 153.2 
L 550.236993 28.71577 
L 546.801101 28.71577 
z
" style="fill:#348abd;opacity:0.2;"/>
   </g>
   <g id="patch_110">
    <path clip-path="url(#p721e230872)" d="M 551.095966 153.2 
L 554.531858 153.2 
L 554.531858 27.342824 
L 551.095966 27.342824 
z
" style="fill:#348abd;opacity:0.2;"/>
   </g>
   <g id="patch_111">
    <path clip-path="url(#p721e230872)" d="M 555.39083 153.2 
L 558.826722 153.2 
L 558.826722 25.073975 
L 555.39083 25.073975 
z
" style="fill:#348abd;opacity:0.2;"/>
   </g>
   <g id="patch_112">
    <path clip-path="url(#p721e230872)" d="M 559.685695 153.2 
L 563.121587 153.2 
L 563.121587 17.580952 
L 559.685695 17.580952 
z
" style="fill:#348abd;opacity:0.2;"/>
   </g>
   <g id="patch_113">
    <path clip-path="url(#p721e230872)" d="M 563.98056 153.2 
L 567.416451 153.2 
L 567.416451 26.388744 
L 563.98056 26.388744 
z
" style="fill:#348abd;opacity:0.2;"/>
   </g>
   <g id="patch_114">
    <path clip-path="url(#p721e230872)" d="M 568.275424 153.2 
L 571.711316 153.2 
L 571.711316 36.52294 
L 568.275424 36.52294 
z
" style="fill:#348abd;opacity:0.2;"/>
   </g>
   <g id="patch_115">
    <path clip-path="url(#p721e230872)" d="M 572.570289 153.2 
L 576.00618 153.2 
L 576.00618 37.151237 
L 572.570289 37.151237 
z
" style="fill:#348abd;opacity:0.2;"/>
   </g>
   <g id="patch_116">
    <path clip-path="url(#p721e230872)" d="M 576.865153 153.2 
L 580.301045 153.2 
L 580.301045 29.890917 
L 576.865153 29.890917 
z
" style="fill:#348abd;opacity:0.2;"/>
   </g>
   <g id="patch_117">
    <path clip-path="url(#p721e230872)" d="M 581.160018 153.2 
L 584.59591 153.2 
L 584.59591 46.156826 
L 581.160018 46.156826 
z
" style="fill:#348abd;opacity:0.2;"/>
   </g>
   <g id="patch_118">
    <path clip-path="url(#p721e230872)" d="M 585.454883 153.2 
L 588.890774 153.2 
L 588.890774 40.234546 
L 585.454883 40.234546 
z
" style="fill:#348abd;opacity:0.2;"/>
   </g>
   <g id="patch_119">
    <path clip-path="url(#p721e230872)" d="M 589.749747 153.2 
L 593.185639 153.2 
L 593.185639 49.344851 
L 589.749747 49.344851 
z
" style="fill:#348abd;opacity:0.2;"/>
   </g>
   <g id="patch_120">
    <path clip-path="url(#p721e230872)" d="M 594.044612 153.2 
L 597.480503 153.2 
L 597.480503 45.423813 
L 594.044612 45.423813 
z
" style="fill:#348abd;opacity:0.2;"/>
   </g>
   <g id="patch_121">
    <path clip-path="url(#p721e230872)" d="M 598.339476 153.2 
L 601.775368 153.2 
L 601.775368 51.229741 
L 598.339476 51.229741 
z
" style="fill:#348abd;opacity:0.2;"/>
   </g>
   <g id="patch_122">
    <path clip-path="url(#p721e230872)" d="M 602.634341 153.2 
L 606.070233 153.2 
L 606.070233 50.240756 
L 602.634341 50.240756 
z
" style="fill:#348abd;opacity:0.2;"/>
   </g>
   <g id="patch_123">
    <path clip-path="url(#p721e230872)" d="M 606.929206 153.2 
L 610.365097 153.2 
L 610.365097 49.717175 
L 606.929206 49.717175 
z
" style="fill:#348abd;opacity:0.2;"/>
   </g>
   <g id="patch_124">
    <path clip-path="url(#p721e230872)" d="M 611.22407 153.2 
L 614.659962 153.2 
L 614.659962 43.434206 
L 611.22407 43.434206 
z
" style="fill:#348abd;opacity:0.2;"/>
   </g>
   <g id="patch_125">
    <path clip-path="url(#p721e230872)" d="M 615.518935 153.2 
L 618.954826 153.2 
L 618.954826 53.149538 
L 615.518935 53.149538 
z
" style="fill:#348abd;opacity:0.2;"/>
   </g>
   <g id="patch_126">
    <path clip-path="url(#p721e230872)" d="M 619.813799 153.2 
L 623.249691 153.2 
L 623.249691 49.112148 
L 619.813799 49.112148 
z
" style="fill:#348abd;opacity:0.2;"/>
   </g>
   <g id="patch_127">
    <path clip-path="url(#p721e230872)" d="M 624.108664 153.2 
L 627.544556 153.2 
L 627.544556 49.472837 
L 624.108664 49.472837 
z
" style="fill:#348abd;opacity:0.2;"/>
   </g>
   <g id="patch_128">
    <path clip-path="url(#p721e230872)" d="M 628.403528 153.2 
L 631.83942 153.2 
L 631.83942 56.186306 
L 628.403528 56.186306 
z
" style="fill:#348abd;opacity:0.2;"/>
   </g>
   <g id="patch_129">
    <path clip-path="url(#p721e230872)" d="M 632.698393 153.2 
L 636.134285 153.2 
L 636.134285 55.802347 
L 632.698393 55.802347 
z
" style="fill:#348abd;opacity:0.2;"/>
   </g>
   <g id="patch_130">
    <path clip-path="url(#p721e230872)" d="M 636.993258 153.2 
L 640.429149 153.2 
L 640.429149 53.463686 
L 636.993258 53.463686 
z
" style="fill:#348abd;opacity:0.2;"/>
   </g>
   <g id="patch_131">
    <path clip-path="url(#p721e230872)" d="M 641.288122 153.2 
L 644.724014 153.2 
L 644.724014 49.042337 
L 641.288122 49.042337 
z
" style="fill:#348abd;opacity:0.2;"/>
   </g>
   <g id="patch_132">
    <path clip-path="url(#p721e230872)" d="M 645.582987 153.2 
L 649.018879 153.2 
L 649.018879 45.365637 
L 645.582987 45.365637 
z
" style="fill:#348abd;opacity:0.2;"/>
   </g>
   <g id="patch_133">
    <path clip-path="url(#p721e230872)" d="M 649.877851 153.2 
L 653.313743 153.2 
L 653.313743 54.475942 
L 649.877851 54.475942 
z
" style="fill:#348abd;opacity:0.2;"/>
   </g>
   <g id="patch_134">
    <path clip-path="url(#p721e230872)" d="M 654.172716 153.2 
L 657.608608 153.2 
L 657.608608 50.136039 
L 654.172716 50.136039 
z
" style="fill:#348abd;opacity:0.2;"/>
   </g>
   <g id="patch_135">
    <path clip-path="url(#p721e230872)" d="M 658.467581 153.2 
L 661.903472 153.2 
L 661.903472 53.963996 
L 658.467581 53.963996 
z
" style="fill:#348abd;opacity:0.2;"/>
   </g>
   <g id="patch_136">
    <path clip-path="url(#p721e230872)" d="M 662.762445 153.2 
L 666.198337 153.2 
L 666.198337 50.543269 
L 662.762445 50.543269 
z
" style="fill:#348abd;opacity:0.2;"/>
   </g>
   <g id="patch_137">
    <path clip-path="url(#p721e230872)" d="M 667.05731 153.2 
L 670.493201 153.2 
L 670.493201 51.764957 
L 667.05731 51.764957 
z
" style="fill:#348abd;opacity:0.2;"/>
   </g>
   <g id="patch_138">
    <path clip-path="url(#p721e230872)" d="M 671.352174 153.2 
L 674.788066 153.2 
L 674.788066 50.275661 
L 671.352174 50.275661 
z
" style="fill:#348abd;opacity:0.2;"/>
   </g>
   <g id="patch_139">
    <path clip-path="url(#p721e230872)" d="M 675.647039 153.2 
L 679.082931 153.2 
L 679.082931 48.82127 
L 675.647039 48.82127 
z
" style="fill:#348abd;opacity:0.2;"/>
   </g>
   <g id="patch_140">
    <path clip-path="url(#p721e230872)" d="M 679.941904 153.2 
L 683.377795 153.2 
L 683.377795 48.832905 
L 679.941904 48.832905 
z
" style="fill:#348abd;opacity:0.2;"/>
   </g>
   <g id="patch_141">
    <path clip-path="url(#p721e230872)" d="M 684.236768 153.2 
L 687.67266 153.2 
L 687.67266 53.289159 
L 684.236768 53.289159 
z
" style="fill:#348abd;opacity:0.2;"/>
   </g>
   <g id="patch_142">
    <path clip-path="url(#p721e230872)" d="M 688.531633 153.2 
L 691.967524 153.2 
L 691.967524 55.546374 
L 688.531633 55.546374 
z
" style="fill:#348abd;opacity:0.2;"/>
   </g>
   <g id="patch_143">
    <path clip-path="url(#p721e230872)" d="M 692.826497 153.2 
L 696.262389 153.2 
L 696.262389 51.078485 
L 692.826497 51.078485 
z
" style="fill:#348abd;opacity:0.2;"/>
   </g>
   <g id="patch_144">
    <path clip-path="url(#p721e230872)" d="M 697.121362 153.2 
L 700.557254 153.2 
L 700.557254 48.937621 
L 697.121362 48.937621 
z
" style="fill:#348abd;opacity:0.2;"/>
   </g>
   <g id="patch_145">
    <path clip-path="url(#p721e230872)" d="M 701.416227 153.2 
L 704.852118 153.2 
L 704.852118 52.009295 
L 701.416227 52.009295 
z
" style="fill:#348abd;opacity:0.2;"/>
   </g>
   <g id="patch_146">
    <path clip-path="url(#p721e230872)" d="M 705.711091 153.2 
L 709.146983 153.2 
L 709.146983 50.706161 
L 705.711091 50.706161 
z
" style="fill:#348abd;opacity:0.2;"/>
   </g>
   <g id="patch_147">
    <path clip-path="url(#p721e230872)" d="M 710.005956 153.2 
L 713.441847 153.2 
L 713.441847 57.594156 
L 710.005956 57.594156 
z
" style="fill:#348abd;opacity:0.2;"/>
   </g>
   <g id="patch_148">
    <path clip-path="url(#p721e230872)" d="M 714.30082 153.2 
L 717.736712 153.2 
L 717.736712 57.314913 
L 714.30082 57.314913 
z
" style="fill:#348abd;opacity:0.2;"/>
   </g>
   <g id="patch_149">
    <path clip-path="url(#p721e230872)" d="M 718.595685 153.2 
L 722.031577 153.2 
L 722.031577 62.166761 
L 718.595685 62.166761 
z
" style="fill:#348abd;opacity:0.2;"/>
   </g>
   <g id="patch_150">
    <path clip-path="url(#p721e230872)" d="M 722.89055 153.2 
L 726.326441 153.2 
L 726.326441 62.771788 
L 722.89055 62.771788 
z
" style="fill:#348abd;opacity:0.2;"/>
   </g>
   <g id="patch_151">
    <path clip-path="url(#p721e230872)" d="M 727.185414 153.2 
L 730.621306 153.2 
L 730.621306 60.456398 
L 727.185414 60.456398 
z
" style="fill:#348abd;opacity:0.2;"/>
   </g>
   <g id="patch_152">
    <path clip-path="url(#p721e230872)" d="M 731.480279 153.2 
L 734.91617 153.2 
L 734.91617 61.631546 
L 731.480279 61.631546 
z
" style="fill:#348abd;opacity:0.2;"/>
   </g>
   <g id="patch_153">
    <path clip-path="url(#p721e230872)" d="M 735.775143 153.2 
L 739.211035 153.2 
L 739.211035 63.41172 
L 735.775143 63.41172 
z
" style="fill:#348abd;opacity:0.2;"/>
   </g>
   <g id="patch_154">
    <path clip-path="url(#p721e230872)" d="M 740.070008 153.2 
L 743.5059 153.2 
L 743.5059 64.935922 
L 740.070008 64.935922 
z
" style="fill:#348abd;opacity:0.2;"/>
   </g>
   <g id="patch_155">
    <path clip-path="url(#p721e230872)" d="M 744.364872 153.2 
L 747.800764 153.2 
L 747.800764 66.948799 
L 744.364872 66.948799 
z
" style="fill:#348abd;opacity:0.2;"/>
   </g>
   <g id="patch_156">
    <path clip-path="url(#p721e230872)" d="M 748.659737 153.2 
L 752.095629 153.2 
L 752.095629 69.834311 
L 748.659737 69.834311 
z
" style="fill:#348abd;opacity:0.2;"/>
   </g>
   <g id="patch_157">
    <path clip-path="url(#p721e230872)" d="M 752.954602 153.2 
L 756.390493 153.2 
L 756.390493 70.532418 
L 752.954602 70.532418 
z
" style="fill:#348abd;opacity:0.2;"/>
   </g>
   <g id="patch_158">
    <path clip-path="url(#p721e230872)" d="M 757.249466 153.2 
L 760.685358 153.2 
L 760.685358 74.220754 
L 757.249466 74.220754 
z
" style="fill:#348abd;opacity:0.2;"/>
   </g>
   <g id="patch_159">
    <path clip-path="url(#p721e230872)" d="M 761.544331 153.2 
L 764.980222 153.2 
L 764.980222 73.580822 
L 761.544331 73.580822 
z
" style="fill:#348abd;opacity:0.2;"/>
   </g>
   <g id="patch_160">
    <path clip-path="url(#p721e230872)" d="M 765.839195 153.2 
L 769.275087 153.2 
L 769.275087 74.267294 
L 765.839195 74.267294 
z
" style="fill:#348abd;opacity:0.2;"/>
   </g>
   <g id="patch_161">
    <path clip-path="url(#p721e230872)" d="M 770.13406 153.2 
L 773.569952 153.2 
L 773.569952 75.442442 
L 770.13406 75.442442 
z
" style="fill:#348abd;opacity:0.2;"/>
   </g>
   <g id="patch_162">
    <path clip-path="url(#p721e230872)" d="M 774.428925 153.2 
L 777.864816 153.2 
L 777.864816 75.442442 
L 774.428925 75.442442 
z
" style="fill:#348abd;opacity:0.2;"/>
   </g>
   <g id="patch_163">
    <path clip-path="url(#p721e230872)" d="M 778.723789 153.2 
L 782.159681 153.2 
L 782.159681 76.989914 
L 778.723789 76.989914 
z
" style="fill:#348abd;opacity:0.2;"/>
   </g>
   <g id="patch_164">
    <path clip-path="url(#p721e230872)" d="M 783.018654 153.2 
L 786.454545 153.2 
L 786.454545 74.639618 
L 783.018654 74.639618 
z
" style="fill:#348abd;opacity:0.2;"/>
   </g>
   <g id="line2d_34">
    <path clip-path="url(#p721e230872)" d="M 93.2634 153.2 
L 308.00663 153.089044 
L 329.480953 152.813081 
L 342.365547 152.544186 
L 350.955276 152.214158 
L 359.545005 151.707232 
L 368.134734 150.948625 
L 376.724463 149.814203 
L 389.609057 147.728781 
L 398.198786 146.074233 
L 402.493651 145.082174 
L 406.788516 143.904622 
L 411.08338 142.564405 
L 415.378245 140.973746 
L 419.673109 139.085476 
L 423.967974 136.917598 
L 428.262839 134.391382 
L 432.557703 131.589266 
L 436.852568 128.475441 
L 441.147432 124.978308 
L 445.442297 120.945521 
L 449.737161 116.556458 
L 458.326891 107.385817 
L 462.621755 103.319315 
L 466.91662 99.716055 
L 471.211484 96.698136 
L 475.506349 94.137718 
L 479.801214 91.900949 
L 488.390943 88.137752 
L 492.685807 86.300775 
L 496.980672 84.181776 
L 501.275537 81.343263 
L 505.570401 77.616064 
L 509.865266 72.719844 
L 514.16013 66.843543 
L 518.454995 60.308877 
L 527.044724 46.612539 
L 531.339589 40.46142 
L 535.634453 35.425024 
L 539.929318 31.693362 
L 544.224182 29.224212 
L 548.519047 27.749336 
L 552.813912 27.045299 
L 557.108776 26.948146 
L 561.403641 27.564557 
L 565.698505 28.778633 
L 569.99337 30.658384 
L 574.288235 33.067675 
L 578.583099 35.777172 
L 582.877964 38.653753 
L 587.172828 41.328897 
L 591.467693 43.596662 
L 595.762558 45.449605 
L 600.057422 46.834106 
L 604.352287 47.884149 
L 608.647151 48.685683 
L 625.82661 51.073133 
L 630.121474 51.487863 
L 634.416339 51.703373 
L 643.006068 51.778949 
L 660.185526 51.029672 
L 668.775256 51.011073 
L 690.249579 51.376169 
L 694.544443 51.710936 
L 698.839308 52.260468 
L 703.134172 53.086785 
L 707.429037 54.11073 
L 711.723902 55.356227 
L 720.313631 58.240547 
L 728.90336 61.141873 
L 741.787954 65.101192 
L 750.377683 68.142366 
L 758.967412 71.210577 
L 763.262277 72.505251 
L 767.557141 73.535781 
L 771.852006 74.311167 
L 776.14687 74.821225 
L 780.441735 75.157326 
L 784.7366 75.317662 
L 784.7366 75.317662 
" style="fill:none;stroke:#348abd;stroke-linecap:square;stroke-width:3;"/>
   </g>
   <g id="line2d_35">
    <defs>
     <path d="M 0 3 
C 0.795609 3 1.55874 2.683901 2.12132 2.12132 
C 2.683901 1.55874 3 0.795609 3 0 
C 3 -0.795609 2.683901 -1.55874 2.12132 -2.12132 
C 1.55874 -2.683901 0.795609 -3 0 -3 
C -0.795609 -3 -1.55874 -2.683901 -2.12132 -2.12132 
C -2.683901 -1.55874 -3 -0.795609 -3 0 
C -3 0.795609 -2.683901 1.55874 -2.12132 2.12132 
C -1.55874 2.683901 -0.795609 3 0 3 
z
" id="m158e79841d" style="stroke:#e24a33;stroke-opacity:0.001;"/>
    </defs>
    <g clip-path="url(#p721e230872)">
     <use style="fill:#e24a33;fill-opacity:0.001;stroke:#e24a33;stroke-opacity:0.001;" x="439" xlink:href="#m158e79841d" y="82"/>
    </g>
   </g>
   <g id="patch_165">
    <path d="M 56.8 153.2 
L 56.8 10.8 
" style="fill:none;stroke:#ffffff;stroke-linecap:square;stroke-linejoin:miter;"/>
   </g>
   <g id="patch_166">
    <path d="M 821.2 153.2 
L 821.2 10.8 
" style="fill:none;stroke:#ffffff;stroke-linecap:square;stroke-linejoin:miter;"/>
   </g>
   <g id="patch_167">
    <path d="M 56.8 153.2 
L 821.2 153.2 
" style="fill:none;stroke:#ffffff;stroke-linecap:square;stroke-linejoin:miter;"/>
   </g>
   <g id="patch_168">
    <path d="M 56.8 10.8 
L 821.2 10.8 
" style="fill:none;stroke:#ffffff;stroke-linecap:square;stroke-linejoin:miter;"/>
   </g>
   <g id="legend_1">
    <g id="patch_169">
     <path d="M 63.8 60.210938 
L 250.8 60.210938 
Q 252.8 60.210938 252.8 58.210938 
L 252.8 17.8 
Q 252.8 15.8 250.8 15.8 
L 63.8 15.8 
Q 61.8 15.8 61.8 17.8 
L 61.8 58.210938 
Q 61.8 60.210938 63.8 60.210938 
z
" style="fill:#e5e5e5;opacity:0.8;stroke:#cccccc;stroke-linejoin:miter;stroke-width:0.5;"/>
    </g>
    <g id="patch_170">
     <path d="M 65.8 26.8 
L 85.8 26.8 
L 85.8 19.8 
L 65.8 19.8 
z
" style="fill:#348abd;opacity:0.2;"/>
    </g>
    <g id="text_22">
     <!-- Russia new cases -->
     <defs>
      <path d="M 5.59375 0 
L 5.59375 62.296875 
L 24 62.296875 
Q 35 62.296875 39.84375 57.390625 
Q 44.703125 52.5 44.703125 44.5 
Q 44.703125 41 43.140625 37.5 
Q 41.59375 34 38.75 31.390625 
Q 35.90625 28.796875 32 27.796875 
L 46.40625 0 
L 38.59375 0 
L 24.796875 27.5 
L 12.703125 27.5 
L 12.703125 0 
z
M 12.703125 33.703125 
L 24.796875 33.703125 
Q 31.5 33.703125 34.5 36.640625 
Q 37.5 39.59375 37.5 44.5 
Q 37.5 49.203125 34.5 52.453125 
Q 31.5 55.703125 24.796875 55.703125 
L 12.703125 55.703125 
z
" id="Inconsolata-Regular-82"/>
      <path d="M 22.09375 -1.09375 
Q 15.296875 -1.09375 10.796875 4 
Q 6.296875 9.09375 6.40625 20.203125 
L 6.5 45.703125 
L 13.5 45.703125 
L 13.5 20.203125 
Q 13.5 11.5 16.546875 8.09375 
Q 19.59375 4.703125 23.90625 4.703125 
Q 27.09375 4.703125 29.890625 6.390625 
Q 32.703125 8.09375 34.453125 11.59375 
Q 36.203125 15.09375 36.203125 20.5 
L 36.203125 45.703125 
L 43.203125 45.703125 
L 43.203125 7.09375 
Q 43.203125 5.296875 43.34375 3.546875 
Q 43.5 1.796875 44.203125 0 
L 37.296875 0 
Q 36.59375 1.703125 36.4375 3.5 
Q 36.296875 5.296875 36.296875 7 
Q 34.09375 3.203125 30.34375 1.046875 
Q 26.59375 -1.09375 22.09375 -1.09375 
z
" id="Inconsolata-Regular-117"/>
      <path d="M 25.09375 -1 
Q 13.5 -1 5.703125 6.203125 
L 9.703125 13 
L 10.296875 13.90625 
L 10.90625 13.5 
Q 11.09375 12.703125 11.34375 11.84375 
Q 11.59375 11 12.703125 9.796875 
Q 14.796875 7.703125 17.75 6.34375 
Q 20.703125 5 25.296875 5 
Q 30.796875 5 33.84375 6.953125 
Q 36.90625 8.90625 36.90625 12.296875 
Q 36.90625 15.203125 34.34375 17.09375 
Q 31.796875 19 25.40625 21.09375 
Q 17.5 23.40625 12.84375 26.796875 
Q 8.203125 30.203125 8.203125 35.296875 
Q 8.203125 40.5 12.453125 43.640625 
Q 16.703125 46.796875 25 46.796875 
Q 31.40625 46.796875 35.59375 45 
Q 39.796875 43.203125 43.203125 39.59375 
L 39.09375 34.59375 
L 38.40625 33.796875 
L 37.90625 34.296875 
Q 37.796875 35.09375 37.4375 35.84375 
Q 37.09375 36.59375 36 37.703125 
Q 33.703125 39.5 30.796875 40.453125 
Q 27.90625 41.40625 25.203125 41.40625 
Q 21.203125 41.40625 18.296875 40 
Q 15.40625 38.59375 15.40625 35.703125 
Q 15.40625 34.203125 16.453125 32.75 
Q 17.5 31.296875 20.296875 29.84375 
Q 23.09375 28.40625 28.296875 26.90625 
Q 36.90625 24.296875 40.453125 21.25 
Q 44 18.203125 44 13.296875 
Q 44 9.5 41.953125 6.203125 
Q 39.90625 2.90625 35.703125 0.953125 
Q 31.5 -1 25.09375 -1 
z
" id="Inconsolata-Regular-115"/>
      <path d="M 10.796875 -0.09375 
L 1.59375 45.703125 
L 7.90625 45.703125 
L 15.296875 9 
L 23.09375 41.40625 
L 27.5 41.40625 
L 37.203125 9.09375 
Q 38.5 18 39.34375 23.703125 
Q 40.203125 29.40625 40.640625 33.046875 
Q 41.09375 36.703125 41.25 39.203125 
Q 41.40625 41.703125 41.40625 44.203125 
L 41.40625 45.703125 
L 48.09375 45.703125 
Q 45.09375 22.5 40.5 -0.09375 
L 33.703125 -0.09375 
L 25.296875 29.5 
L 17.296875 -0.09375 
z
" id="Inconsolata-Regular-119"/>
     </defs>
     <g transform="translate(93.8 26.8)scale(0.1 -0.1)">
      <use xlink:href="#Inconsolata-Regular-82"/>
      <use x="49.999985" xlink:href="#Inconsolata-Regular-117"/>
      <use x="99.999969" xlink:href="#Inconsolata-Regular-115"/>
      <use x="149.999954" xlink:href="#Inconsolata-Regular-115"/>
      <use x="199.999939" xlink:href="#Inconsolata-Regular-105"/>
      <use x="249.999924" xlink:href="#Inconsolata-Regular-97"/>
      <use x="299.999908" xlink:href="#Inconsolata-Regular-32"/>
      <use x="349.999893" xlink:href="#Inconsolata-Regular-110"/>
      <use x="399.999878" xlink:href="#Inconsolata-Regular-101"/>
      <use x="449.999863" xlink:href="#Inconsolata-Regular-119"/>
      <use x="499.999847" xlink:href="#Inconsolata-Regular-32"/>
      <use x="549.999832" xlink:href="#Inconsolata-Regular-99"/>
      <use x="599.999817" xlink:href="#Inconsolata-Regular-97"/>
      <use x="649.999802" xlink:href="#Inconsolata-Regular-115"/>
      <use x="699.999786" xlink:href="#Inconsolata-Regular-101"/>
      <use x="749.999771" xlink:href="#Inconsolata-Regular-115"/>
     </g>
    </g>
    <g id="line2d_36">
     <path d="M 65.8 37.320313 
L 85.8 37.320313 
" style="fill:none;stroke:#348abd;stroke-linecap:square;stroke-width:3;"/>
    </g>
    <g id="line2d_37"/>
    <g id="text_23">
     <!-- Russia new cases (rolling mean) -->
     <defs>
      <path d="M 39.5 -10.40625 
Q 31.203125 -6.5 25.046875 0.046875 
Q 18.90625 6.59375 15.546875 14.84375 
Q 12.203125 23.09375 12.203125 32 
Q 12.203125 40.90625 15.5 48.953125 
Q 18.796875 57 24.796875 63.34375 
Q 30.796875 69.703125 38.90625 73.5 
L 40.796875 67.296875 
Q 34.40625 63.796875 29.546875 58.296875 
Q 24.703125 52.796875 22 46 
Q 19.296875 39.203125 19.296875 31.703125 
Q 19.296875 24.203125 22 17.296875 
Q 24.703125 10.40625 29.703125 4.796875 
Q 34.703125 -0.796875 41.40625 -4.40625 
z
" id="Inconsolata-Regular-40"/>
      <path d="M 11.90625 45.703125 
L 19.40625 45.703125 
L 19.203125 37.296875 
Q 21.09375 41.90625 25.09375 44.34375 
Q 29.09375 46.796875 33.703125 46.796875 
Q 41 46.796875 45.796875 41.796875 
L 42.59375 36.203125 
L 42.203125 35.296875 
L 41.5 35.703125 
Q 41.296875 36.5 40.890625 37.203125 
Q 40.5 37.90625 39.203125 38.90625 
Q 37.59375 39.90625 36.25 40.25 
Q 34.90625 40.59375 33.203125 40.59375 
Q 29.90625 40.59375 26.65625 38.890625 
Q 23.40625 37.203125 21.296875 33.59375 
Q 19.203125 30 19.203125 24.203125 
L 19.203125 -0.09375 
L 11.90625 -0.09375 
z
" id="Inconsolata-Regular-114"/>
      <path d="M 25 -0.796875 
Q 18.796875 -0.796875 14.046875 2.25 
Q 9.296875 5.296875 6.59375 10.640625 
Q 3.90625 16 3.90625 22.90625 
Q 3.90625 29.90625 6.59375 35.25 
Q 9.296875 40.59375 14.046875 43.640625 
Q 18.796875 46.703125 25 46.703125 
Q 31.203125 46.703125 35.953125 43.640625 
Q 40.703125 40.59375 43.390625 35.25 
Q 46.09375 29.90625 46.09375 22.90625 
Q 46.09375 16 43.390625 10.640625 
Q 40.703125 5.296875 35.953125 2.25 
Q 31.203125 -0.796875 25 -0.796875 
z
M 25 5.203125 
Q 29 5.203125 32 7.5 
Q 35 9.796875 36.75 13.796875 
Q 38.5 17.796875 38.5 23 
Q 38.5 30.796875 34.703125 35.75 
Q 30.90625 40.703125 25 40.703125 
Q 19.09375 40.703125 15.296875 35.75 
Q 11.5 30.796875 11.5 23 
Q 11.5 17.796875 13.25 13.796875 
Q 15 9.796875 18.046875 7.5 
Q 21.09375 5.203125 25 5.203125 
z
" id="Inconsolata-Regular-111"/>
      <path d="M 3.796875 0 
L 3.796875 45.703125 
L 10.40625 45.703125 
L 10.40625 41.203125 
Q 12 43.703125 14.5 45.25 
Q 17 46.796875 19.703125 46.796875 
Q 22.703125 46.796875 24.953125 44.890625 
Q 27.203125 43 27.796875 40.09375 
Q 29.09375 43.09375 31.890625 44.9375 
Q 34.703125 46.796875 38.09375 46.796875 
Q 42.796875 46.796875 44.9375 43.4375 
Q 47.09375 40.09375 46.90625 35.09375 
L 46.90625 0 
L 40.296875 0 
L 40.296875 32.40625 
Q 40.296875 36.59375 39.75 38.5 
Q 39.203125 40.40625 38.203125 40.953125 
Q 37.203125 41.5 36 41.5 
Q 34.09375 41.5 32.4375 39.75 
Q 30.796875 38 29.75 35.390625 
Q 28.703125 32.796875 28.703125 30.203125 
L 28.703125 0 
L 22 0 
L 22 31.796875 
Q 22 37.5 20.953125 39.390625 
Q 19.90625 41.296875 17 41.296875 
Q 14.796875 41.296875 12.59375 38.4375 
Q 10.40625 35.59375 10.40625 30.5 
L 10.40625 0 
z
" id="Inconsolata-Regular-109"/>
      <path d="M 13.25 -10.40625 
Q 21.546875 -6.5 27.6875 0.046875 
Q 33.84375 6.59375 37.1875 14.84375 
Q 40.546875 23.09375 40.546875 32 
Q 40.546875 40.90625 37.25 48.953125 
Q 33.953125 57 27.953125 63.34375 
Q 21.953125 69.703125 13.84375 73.5 
L 11.953125 67.296875 
Q 18.34375 63.796875 23.1875 58.296875 
Q 28.046875 52.796875 30.75 46 
Q 33.453125 39.203125 33.453125 31.703125 
Q 33.453125 24.203125 30.75 17.296875 
Q 28.046875 10.40625 23.046875 4.796875 
Q 18.046875 -0.796875 11.34375 -4.40625 
z
" id="Inconsolata-Regular-41"/>
     </defs>
     <g transform="translate(93.8 40.820313)scale(0.1 -0.1)">
      <use xlink:href="#Inconsolata-Regular-82"/>
      <use x="49.999985" xlink:href="#Inconsolata-Regular-117"/>
      <use x="99.999969" xlink:href="#Inconsolata-Regular-115"/>
      <use x="149.999954" xlink:href="#Inconsolata-Regular-115"/>
      <use x="199.999939" xlink:href="#Inconsolata-Regular-105"/>
      <use x="249.999924" xlink:href="#Inconsolata-Regular-97"/>
      <use x="299.999908" xlink:href="#Inconsolata-Regular-32"/>
      <use x="349.999893" xlink:href="#Inconsolata-Regular-110"/>
      <use x="399.999878" xlink:href="#Inconsolata-Regular-101"/>
      <use x="449.999863" xlink:href="#Inconsolata-Regular-119"/>
      <use x="499.999847" xlink:href="#Inconsolata-Regular-32"/>
      <use x="549.999832" xlink:href="#Inconsolata-Regular-99"/>
      <use x="599.999817" xlink:href="#Inconsolata-Regular-97"/>
      <use x="649.999802" xlink:href="#Inconsolata-Regular-115"/>
      <use x="699.999786" xlink:href="#Inconsolata-Regular-101"/>
      <use x="749.999771" xlink:href="#Inconsolata-Regular-115"/>
      <use x="799.999756" xlink:href="#Inconsolata-Regular-32"/>
      <use x="849.999741" xlink:href="#Inconsolata-Regular-40"/>
      <use x="899.999725" xlink:href="#Inconsolata-Regular-114"/>
      <use x="949.99971" xlink:href="#Inconsolata-Regular-111"/>
      <use x="999.999695" xlink:href="#Inconsolata-Regular-108"/>
      <use x="1049.99968" xlink:href="#Inconsolata-Regular-108"/>
      <use x="1099.999664" xlink:href="#Inconsolata-Regular-105"/>
      <use x="1149.999649" xlink:href="#Inconsolata-Regular-110"/>
      <use x="1199.999634" xlink:href="#Inconsolata-Regular-103"/>
      <use x="1249.999619" xlink:href="#Inconsolata-Regular-32"/>
      <use x="1299.999603" xlink:href="#Inconsolata-Regular-109"/>
      <use x="1349.999588" xlink:href="#Inconsolata-Regular-101"/>
      <use x="1399.999573" xlink:href="#Inconsolata-Regular-97"/>
      <use x="1449.999557" xlink:href="#Inconsolata-Regular-110"/>
      <use x="1499.999542" xlink:href="#Inconsolata-Regular-41"/>
     </g>
    </g>
    <g id="line2d_38"/>
    <g id="line2d_39">
     <g>
      <use style="fill:#e24a33;fill-opacity:0.001;stroke:#e24a33;stroke-opacity:0.001;" x="75.8" xlink:href="#m158e79841d" y="51.040625"/>
     </g>
    </g>
    <g id="text_24">
     <!-- [last updated: 03/07/2020] -->
     <defs>
      <path d="M 13.09375 -8.90625 
L 13.09375 67 
L 41.703125 67 
L 41.703125 61 
L 19.5 61 
L 19.5 -3.203125 
L 41.796875 -3.203125 
L 41.796875 -8.90625 
z
" id="Inconsolata-Regular-91"/>
      <path d="M 29.90625 -0.703125 
Q 24 -0.703125 20.953125 2 
Q 17.90625 4.703125 16.90625 10.34375 
Q 15.90625 16 16.203125 24.796875 
L 16.796875 39.796875 
L 7 39.796875 
L 7 45.703125 
L 17 45.703125 
L 17.40625 57.40625 
L 24.90625 58.296875 
L 25.90625 58.40625 
L 26 57.703125 
Q 25.5 57 25.140625 56.296875 
Q 24.796875 55.59375 24.59375 53.90625 
L 23.90625 45.703125 
L 39.90625 45.703125 
L 39.90625 39.796875 
L 24 39.796875 
L 23.296875 24.296875 
Q 23 16.703125 23.703125 12.546875 
Q 24.40625 8.40625 26.203125 6.84375 
Q 28 5.296875 31 5.296875 
Q 34.296875 5.296875 36.84375 6.59375 
Q 39.40625 7.90625 42.203125 9.90625 
L 44.40625 4.203125 
Q 41 1.703125 37.390625 0.5 
Q 33.796875 -0.703125 29.90625 -0.703125 
z
" id="Inconsolata-Regular-116"/>
      <path d="M 6 -16.703125 
L 6 45.703125 
L 13.296875 45.703125 
L 13.296875 36.703125 
Q 14.90625 41.90625 18.65625 44.296875 
Q 22.40625 46.703125 27.203125 46.703125 
Q 32.296875 46.703125 36.640625 44.140625 
Q 41 41.59375 43.640625 36.390625 
Q 46.296875 31.203125 46.296875 23.203125 
Q 46.296875 15.203125 43.5 9.75 
Q 40.703125 4.296875 36.296875 1.546875 
Q 31.90625 -1.203125 27 -1.203125 
Q 22.90625 -1.203125 19.296875 0.6875 
Q 15.703125 2.59375 13.40625 6 
L 13.40625 -16.703125 
z
M 25.796875 5.203125 
Q 29 5.203125 32 6.75 
Q 35 8.296875 36.890625 12.1875 
Q 38.796875 16.09375 38.796875 22.90625 
Q 38.796875 31.09375 35.6875 35.640625 
Q 32.59375 40.203125 26.90625 40.5 
Q 23.203125 40.703125 20.09375 38.84375 
Q 17 37 15.140625 32.703125 
Q 13.296875 28.40625 13.296875 21.296875 
Q 13.5 13.203125 16.890625 9.203125 
Q 20.296875 5.203125 25.796875 5.203125 
z
" id="Inconsolata-Regular-112"/>
      <path d="M 23.796875 30.796875 
Q 21.5 30.796875 19.703125 32.5 
Q 17.90625 34.203125 17.90625 36.5 
Q 17.90625 38.90625 19.703125 40.59375 
Q 21.5 42.296875 23.796875 42.296875 
Q 26.09375 42.296875 27.9375 40.59375 
Q 29.796875 38.90625 29.796875 36.5 
Q 29.796875 34.203125 28 32.5 
Q 26.203125 30.796875 23.796875 30.796875 
z
M 23.796875 -1.09375 
Q 21.296875 -1.09375 19.59375 0.546875 
Q 17.90625 2.203125 17.90625 4.59375 
Q 17.90625 7 19.703125 8.703125 
Q 21.5 10.40625 23.796875 10.40625 
Q 26.09375 10.40625 27.9375 8.703125 
Q 29.796875 7 29.796875 4.59375 
Q 29.796875 2.296875 28.046875 0.59375 
Q 26.296875 -1.09375 23.796875 -1.09375 
z
" id="Inconsolata-Regular-58"/>
      <path d="M 12.296875 -4.203125 
L 6.40625 -1.296875 
L 37.703125 66.5 
L 43.703125 63.40625 
z
" id="Inconsolata-Regular-47"/>
      <path d="M 41.78125 -8.90625 
L 41.78125 67 
L 13.171875 67 
L 13.171875 61 
L 35.375 61 
L 35.375 -3.203125 
L 13.078125 -3.203125 
L 13.078125 -8.90625 
z
" id="Inconsolata-Regular-93"/>
     </defs>
     <g transform="translate(93.8 54.540625)scale(0.1 -0.1)">
      <use xlink:href="#Inconsolata-Regular-91"/>
      <use x="49.999985" xlink:href="#Inconsolata-Regular-108"/>
      <use x="99.999969" xlink:href="#Inconsolata-Regular-97"/>
      <use x="149.999954" xlink:href="#Inconsolata-Regular-115"/>
      <use x="199.999939" xlink:href="#Inconsolata-Regular-116"/>
      <use x="249.999924" xlink:href="#Inconsolata-Regular-32"/>
      <use x="299.999908" xlink:href="#Inconsolata-Regular-117"/>
      <use x="349.999893" xlink:href="#Inconsolata-Regular-112"/>
      <use x="399.999878" xlink:href="#Inconsolata-Regular-100"/>
      <use x="449.999863" xlink:href="#Inconsolata-Regular-97"/>
      <use x="499.999847" xlink:href="#Inconsolata-Regular-116"/>
      <use x="549.999832" xlink:href="#Inconsolata-Regular-101"/>
      <use x="599.999817" xlink:href="#Inconsolata-Regular-100"/>
      <use x="649.999802" xlink:href="#Inconsolata-Regular-58"/>
      <use x="699.999786" xlink:href="#Inconsolata-Regular-32"/>
      <use x="749.999771" xlink:href="#Inconsolata-Regular-48"/>
      <use x="799.999756" xlink:href="#Inconsolata-Regular-51"/>
      <use x="849.999741" xlink:href="#Inconsolata-Regular-47"/>
      <use x="899.999725" xlink:href="#Inconsolata-Regular-48"/>
      <use x="949.99971" xlink:href="#Inconsolata-Regular-55"/>
      <use x="999.999695" xlink:href="#Inconsolata-Regular-47"/>
      <use x="1049.99968" xlink:href="#Inconsolata-Regular-50"/>
      <use x="1099.999664" xlink:href="#Inconsolata-Regular-48"/>
      <use x="1149.999649" xlink:href="#Inconsolata-Regular-50"/>
      <use x="1199.999634" xlink:href="#Inconsolata-Regular-48"/>
      <use x="1249.999619" xlink:href="#Inconsolata-Regular-93"/>
     </g>
    </g>
   </g>
  </g>
 </g>
 <defs>
  <clipPath id="p721e230872">
   <rect height="142.4" width="764.4" x="56.8" y="10.8"/>
  </clipPath>
 </defs>
</svg>
