<?xml version="1.0" encoding="utf-8" standalone="no"?>
<!DOCTYPE svg PUBLIC "-//W3C//DTD SVG 1.1//EN"
  "http://www.w3.org/Graphics/SVG/1.1/DTD/svg11.dtd">
<!-- Created with matplotlib (https://matplotlib.org/) -->
<svg height="180pt" version="1.1" viewBox="0 0 864 180" width="864pt" xmlns="http://www.w3.org/2000/svg" xmlns:xlink="http://www.w3.org/1999/xlink">
 <defs>
  <style type="text/css">
*{stroke-linecap:butt;stroke-linejoin:round;}
  </style>
 </defs>
 <g id="figure_1">
  <g id="patch_1">
   <path d="M 0 180 
L 864 180 
L 864 0 
L 0 0 
z
" style="fill:#ffffff;"/>
  </g>
  <g id="axes_1">
   <g id="patch_2">
    <path d="M 61.8 153.2 
L 816.2 153.2 
L 816.2 10.8 
L 61.8 10.8 
z
" style="fill:#e5e5e5;"/>
   </g>
   <g id="matplotlib.axis_1">
    <g id="xtick_1">
     <g id="line2d_1">
      <path clip-path="url(#pac0e06b092)" d="M 136.944464 153.2 
L 136.944464 10.8 
" style="fill:none;stroke:#ffffff;stroke-linecap:square;stroke-width:0.8;"/>
     </g>
     <g id="line2d_2">
      <defs>
       <path d="M 0 0 
L 0 3.5 
" id="md211408743" style="stroke:#555555;stroke-width:0.8;"/>
      </defs>
      <g>
       <use style="fill:#555555;stroke:#555555;stroke-width:0.8;" x="136.944464" xlink:href="#md211408743" y="153.2"/>
      </g>
     </g>
     <g id="text_1">
      <!-- 2020-02 -->
      <defs>
       <path d="M 7.296875 5.59375 
Q 14 12.5 19.390625 17.84375 
Q 24.796875 23.203125 28.59375 27.640625 
Q 32.40625 32.09375 34.40625 36.296875 
Q 36.40625 40.5 36.40625 45.09375 
Q 36.40625 51.59375 33.296875 54.09375 
Q 30.203125 56.59375 25.796875 56.59375 
Q 22.203125 56.59375 19.046875 55.046875 
Q 15.90625 53.5 13.296875 50.296875 
Q 12.40625 48.90625 12.203125 48.15625 
Q 12 47.40625 12.09375 46.59375 
L 11.703125 46.09375 
L 10.90625 46.59375 
L 5.796875 50.59375 
Q 8.796875 56.40625 14.046875 59.546875 
Q 19.296875 62.703125 25.703125 62.703125 
Q 33.59375 62.703125 38.59375 57.953125 
Q 43.59375 53.203125 43.59375 44.90625 
Q 43.59375 39.703125 41.296875 35 
Q 39 30.296875 35.140625 25.6875 
Q 31.296875 21.09375 26.390625 16.296875 
Q 21.5 11.5 16.296875 6.09375 
L 39.5 6.09375 
Q 41.203125 6.09375 41.890625 6.296875 
Q 42.59375 6.5 43.203125 7.09375 
L 43.90625 7.09375 
L 43.90625 0 
L 7.296875 0 
z
" id="Inconsolata-Regular-50"/>
       <path d="M 25 -1.09375 
Q 15.703125 -1.09375 10.703125 7.203125 
Q 5.703125 15.5 5.703125 30.796875 
Q 5.703125 45.59375 10.703125 54.140625 
Q 15.703125 62.703125 25 62.703125 
Q 34.296875 62.703125 39.296875 54.140625 
Q 44.296875 45.59375 44.296875 30.796875 
Q 44.296875 15.5 39.296875 7.203125 
Q 34.296875 -1.09375 25 -1.09375 
z
M 12.90625 30.796875 
Q 12.90625 24.40625 13.796875 19.40625 
L 35 46.703125 
Q 33.5 51.40625 30.953125 54 
Q 28.40625 56.59375 25 56.59375 
Q 19.296875 56.59375 16.09375 49.59375 
Q 12.90625 42.59375 12.90625 30.796875 
z
M 25 5 
Q 30.703125 5 33.890625 11.703125 
Q 37.09375 18.40625 37.09375 30.796875 
Q 37.09375 36.296875 36.40625 40.796875 
L 15.203125 13.90625 
Q 18.296875 5 25 5 
z
" id="Inconsolata-Regular-48"/>
       <path d="M 11.09375 28.09375 
L 11.09375 34.796875 
L 39.09375 34.796875 
L 39.09375 28.09375 
z
" id="Inconsolata-Regular-45"/>
      </defs>
      <g style="fill:#555555;" transform="translate(119.444464 166.85)scale(0.1 -0.1)">
       <use xlink:href="#Inconsolata-Regular-50"/>
       <use x="49.999985" xlink:href="#Inconsolata-Regular-48"/>
       <use x="99.999969" xlink:href="#Inconsolata-Regular-50"/>
       <use x="149.999954" xlink:href="#Inconsolata-Regular-48"/>
       <use x="199.999939" xlink:href="#Inconsolata-Regular-45"/>
       <use x="249.999924" xlink:href="#Inconsolata-Regular-48"/>
       <use x="299.999908" xlink:href="#Inconsolata-Regular-50"/>
      </g>
     </g>
    </g>
    <g id="xtick_2">
     <g id="line2d_3">
      <path clip-path="url(#pac0e06b092)" d="M 262.982026 153.2 
L 262.982026 10.8 
" style="fill:none;stroke:#ffffff;stroke-linecap:square;stroke-width:0.8;"/>
     </g>
     <g id="line2d_4">
      <g>
       <use style="fill:#555555;stroke:#555555;stroke-width:0.8;" x="262.982026" xlink:href="#md211408743" y="153.2"/>
      </g>
     </g>
     <g id="text_2">
      <!-- 2020-03 -->
      <defs>
       <path d="M 24 -1.09375 
Q 19.09375 -1.09375 14.59375 0.703125 
Q 10.09375 2.5 6.90625 6 
L 11.5 11.5 
L 12.203125 12.296875 
L 12.703125 11.796875 
Q 12.796875 11 13.09375 10.25 
Q 13.40625 9.5 14.5 8.296875 
Q 16.203125 6.796875 18.390625 5.84375 
Q 20.59375 4.90625 23.703125 4.90625 
Q 29.703125 4.90625 32.59375 8.40625 
Q 35.5 11.90625 35.5 17.40625 
Q 35.5 24.5 30.75 27.453125 
Q 26 30.40625 18 29.59375 
L 18 35.203125 
Q 24.5 35.203125 27.796875 36.890625 
Q 31.09375 38.59375 32.25 41.4375 
Q 33.40625 44.296875 33.40625 47.5 
Q 33.40625 51.796875 30.953125 54.25 
Q 28.5 56.703125 24.5 56.703125 
Q 21.5 56.703125 18.640625 55.703125 
Q 15.796875 54.703125 13.09375 52.09375 
L 8.90625 56.296875 
Q 12.296875 59.796875 16.34375 61.25 
Q 20.40625 62.703125 24.40625 62.703125 
Q 32 62.703125 36.296875 58.390625 
Q 40.59375 54.09375 40.59375 47.203125 
Q 40.59375 42.296875 38.1875 38.4375 
Q 35.796875 34.59375 30.796875 33 
Q 36.09375 31.296875 39.390625 27.390625 
Q 42.703125 23.5 42.703125 17.09375 
Q 42.703125 12.203125 40.546875 8.046875 
Q 38.40625 3.90625 34.25 1.40625 
Q 30.09375 -1.09375 24 -1.09375 
z
" id="Inconsolata-Regular-51"/>
      </defs>
      <g style="fill:#555555;" transform="translate(245.482026 166.85)scale(0.1 -0.1)">
       <use xlink:href="#Inconsolata-Regular-50"/>
       <use x="49.999985" xlink:href="#Inconsolata-Regular-48"/>
       <use x="99.999969" xlink:href="#Inconsolata-Regular-50"/>
       <use x="149.999954" xlink:href="#Inconsolata-Regular-48"/>
       <use x="199.999939" xlink:href="#Inconsolata-Regular-45"/>
       <use x="249.999924" xlink:href="#Inconsolata-Regular-48"/>
       <use x="299.999908" xlink:href="#Inconsolata-Regular-51"/>
      </g>
     </g>
    </g>
    <g id="xtick_3">
     <g id="line2d_5">
      <path clip-path="url(#pac0e06b092)" d="M 397.711833 153.2 
L 397.711833 10.8 
" style="fill:none;stroke:#ffffff;stroke-linecap:square;stroke-width:0.8;"/>
     </g>
     <g id="line2d_6">
      <g>
       <use style="fill:#555555;stroke:#555555;stroke-width:0.8;" x="397.711833" xlink:href="#md211408743" y="153.2"/>
      </g>
     </g>
     <g id="text_3">
      <!-- 2020-04 -->
      <defs>
       <path d="M 31.796875 0 
L 31.796875 15.296875 
L 4.796875 15.296875 
L 4.796875 20.40625 
L 33.296875 62.40625 
L 39.203125 62.40625 
L 39.203125 21.09375 
L 47.203125 21.09375 
L 47.203125 15.203125 
L 39.203125 15.203125 
L 39.203125 0 
z
M 12.90625 21.203125 
L 31.796875 21.203125 
L 31.796875 49.796875 
z
" id="Inconsolata-Regular-52"/>
      </defs>
      <g style="fill:#555555;" transform="translate(380.211833 166.85)scale(0.1 -0.1)">
       <use xlink:href="#Inconsolata-Regular-50"/>
       <use x="49.999985" xlink:href="#Inconsolata-Regular-48"/>
       <use x="99.999969" xlink:href="#Inconsolata-Regular-50"/>
       <use x="149.999954" xlink:href="#Inconsolata-Regular-48"/>
       <use x="199.999939" xlink:href="#Inconsolata-Regular-45"/>
       <use x="249.999924" xlink:href="#Inconsolata-Regular-48"/>
       <use x="299.999908" xlink:href="#Inconsolata-Regular-52"/>
      </g>
     </g>
    </g>
    <g id="xtick_4">
     <g id="line2d_7">
      <path clip-path="url(#pac0e06b092)" d="M 528.095518 153.2 
L 528.095518 10.8 
" style="fill:none;stroke:#ffffff;stroke-linecap:square;stroke-width:0.8;"/>
     </g>
     <g id="line2d_8">
      <g>
       <use style="fill:#555555;stroke:#555555;stroke-width:0.8;" x="528.095518" xlink:href="#md211408743" y="153.2"/>
      </g>
     </g>
     <g id="text_4">
      <!-- 2020-05 -->
      <defs>
       <path d="M 24.90625 -1.09375 
Q 19.203125 -1.09375 14.34375 1.40625 
Q 9.5 3.90625 6.40625 8.5 
L 12.796875 13.296875 
L 13.203125 12.796875 
Q 13.09375 12 13.4375 11.296875 
Q 13.796875 10.59375 14.796875 9.296875 
Q 16.796875 7.09375 19.25 6.046875 
Q 21.703125 5 25.296875 5 
Q 28.5 5 31.25 6.796875 
Q 34 8.59375 35.703125 11.9375 
Q 37.40625 15.296875 37.40625 19.90625 
Q 37.40625 26.90625 33.65625 30.796875 
Q 29.90625 34.703125 24.59375 34.703125 
Q 21.40625 34.703125 18.296875 33.140625 
Q 15.203125 31.59375 12.90625 28.796875 
L 8.5 30.59375 
L 10.59375 62.296875 
L 42.203125 62.296875 
L 42.203125 56 
L 16.5 56 
L 15.5 38.09375 
Q 20.5 40.5 25.703125 40.5 
Q 31.09375 40.5 35.34375 37.953125 
Q 39.59375 35.40625 42.046875 30.703125 
Q 44.5 26 44.5 19.59375 
Q 44.5 13.203125 41.890625 8.546875 
Q 39.296875 3.90625 34.890625 1.40625 
Q 30.5 -1.09375 24.90625 -1.09375 
z
" id="Inconsolata-Regular-53"/>
      </defs>
      <g style="fill:#555555;" transform="translate(510.595518 166.85)scale(0.1 -0.1)">
       <use xlink:href="#Inconsolata-Regular-50"/>
       <use x="49.999985" xlink:href="#Inconsolata-Regular-48"/>
       <use x="99.999969" xlink:href="#Inconsolata-Regular-50"/>
       <use x="149.999954" xlink:href="#Inconsolata-Regular-48"/>
       <use x="199.999939" xlink:href="#Inconsolata-Regular-45"/>
       <use x="249.999924" xlink:href="#Inconsolata-Regular-48"/>
       <use x="299.999908" xlink:href="#Inconsolata-Regular-53"/>
      </g>
     </g>
    </g>
    <g id="xtick_5">
     <g id="line2d_9">
      <path clip-path="url(#pac0e06b092)" d="M 662.825325 153.2 
L 662.825325 10.8 
" style="fill:none;stroke:#ffffff;stroke-linecap:square;stroke-width:0.8;"/>
     </g>
     <g id="line2d_10">
      <g>
       <use style="fill:#555555;stroke:#555555;stroke-width:0.8;" x="662.825325" xlink:href="#md211408743" y="153.2"/>
      </g>
     </g>
     <g id="text_5">
      <!-- 2020-06 -->
      <defs>
       <path d="M 26.09375 -1 
Q 16.796875 -1 11.75 6.890625 
Q 6.703125 14.796875 6.703125 28.40625 
Q 6.703125 45.203125 12.703125 54.09375 
Q 18.703125 63 28.703125 63 
Q 36.59375 63 42.40625 57.296875 
L 38 52.296875 
L 37.296875 51.5 
L 36.796875 52 
Q 36.703125 52.796875 36.34375 53.5 
Q 36 54.203125 34.703125 55.296875 
Q 32.5 56.796875 28.90625 56.796875 
Q 26.90625 56.796875 24.296875 55.84375 
Q 21.703125 54.90625 19.296875 52.296875 
Q 16.90625 49.703125 15.296875 44.953125 
Q 13.703125 40.203125 13.59375 32.703125 
Q 15.703125 36.203125 19.25 38.203125 
Q 22.796875 40.203125 26.796875 40.203125 
Q 31.5 40.203125 35.34375 37.640625 
Q 39.203125 35.09375 41.546875 30.546875 
Q 43.90625 26 43.90625 19.796875 
Q 43.90625 13.59375 41.5 8.890625 
Q 39.09375 4.203125 35.09375 1.59375 
Q 31.09375 -1 26.09375 -1 
z
M 26.40625 5.203125 
Q 30.703125 5.203125 33.890625 8.890625 
Q 37.09375 12.59375 37.09375 19.703125 
Q 37.09375 24.703125 35.4375 27.890625 
Q 33.796875 31.09375 31.296875 32.59375 
Q 28.796875 34.09375 26.203125 34.09375 
Q 22.59375 34.09375 19.296875 31.640625 
Q 16 29.203125 14 25.703125 
Q 13.59375 22.296875 14.25 18.6875 
Q 14.90625 15.09375 16.546875 12.046875 
Q 18.203125 9 20.703125 7.09375 
Q 23.203125 5.203125 26.40625 5.203125 
z
" id="Inconsolata-Regular-54"/>
      </defs>
      <g style="fill:#555555;" transform="translate(645.325325 166.85)scale(0.1 -0.1)">
       <use xlink:href="#Inconsolata-Regular-50"/>
       <use x="49.999985" xlink:href="#Inconsolata-Regular-48"/>
       <use x="99.999969" xlink:href="#Inconsolata-Regular-50"/>
       <use x="149.999954" xlink:href="#Inconsolata-Regular-48"/>
       <use x="199.999939" xlink:href="#Inconsolata-Regular-45"/>
       <use x="249.999924" xlink:href="#Inconsolata-Regular-48"/>
       <use x="299.999908" xlink:href="#Inconsolata-Regular-54"/>
      </g>
     </g>
    </g>
    <g id="xtick_6">
     <g id="line2d_11">
      <path clip-path="url(#pac0e06b092)" d="M 793.20901 153.2 
L 793.20901 10.8 
" style="fill:none;stroke:#ffffff;stroke-linecap:square;stroke-width:0.8;"/>
     </g>
     <g id="line2d_12">
      <g>
       <use style="fill:#555555;stroke:#555555;stroke-width:0.8;" x="793.20901" xlink:href="#md211408743" y="153.2"/>
      </g>
     </g>
     <g id="text_6">
      <!-- 2020-07 -->
      <defs>
       <path d="M 15.5 0 
Q 19.90625 14.296875 24.59375 28.09375 
Q 29.296875 41.90625 34.5 55.703125 
L 7.90625 55.703125 
L 7.90625 62.296875 
L 43.203125 62.296875 
L 43.203125 58.40625 
Q 37.5 44 32.5 29.5 
Q 27.5 15 23.40625 0 
z
" id="Inconsolata-Regular-55"/>
      </defs>
      <g style="fill:#555555;" transform="translate(775.70901 166.85)scale(0.1 -0.1)">
       <use xlink:href="#Inconsolata-Regular-50"/>
       <use x="49.999985" xlink:href="#Inconsolata-Regular-48"/>
       <use x="99.999969" xlink:href="#Inconsolata-Regular-50"/>
       <use x="149.999954" xlink:href="#Inconsolata-Regular-48"/>
       <use x="199.999939" xlink:href="#Inconsolata-Regular-45"/>
       <use x="249.999924" xlink:href="#Inconsolata-Regular-48"/>
       <use x="299.999908" xlink:href="#Inconsolata-Regular-55"/>
      </g>
     </g>
    </g>
   </g>
   <g id="matplotlib.axis_2">
    <g id="ytick_1">
     <g id="line2d_13">
      <path clip-path="url(#pac0e06b092)" d="M 61.8 146.50344 
L 816.2 146.50344 
" style="fill:none;stroke:#ffffff;stroke-linecap:square;stroke-width:0.8;"/>
     </g>
     <g id="line2d_14">
      <defs>
       <path d="M 0 0 
L -3.5 0 
" id="mfe11c8ff67" style="stroke:#555555;stroke-width:0.8;"/>
      </defs>
      <g>
       <use style="fill:#555555;stroke:#555555;stroke-width:0.8;" x="61.8" xlink:href="#mfe11c8ff67" y="146.50344"/>
      </g>
     </g>
     <g id="line2d_15">
      <defs>
       <path d="M 0 0 
L 3.5 0 
" id="mbcb5d6a364" style="stroke:#555555;stroke-width:0.8;"/>
      </defs>
      <g>
       <use style="fill:#555555;stroke:#555555;stroke-width:0.8;" x="816.2" xlink:href="#mbcb5d6a364" y="146.50344"/>
      </g>
     </g>
     <g id="text_7">
      <!-- −10000 -->
      <defs>
       <path d="M 4.5 29.09375 
L 4.5 35.203125 
L 45.59375 35.203125 
L 45.59375 29.09375 
z
" id="Inconsolata-Regular-8722"/>
       <path d="M 23 0 
L 23 53.703125 
L 10.40625 50 
L 8.796875 53.90625 
L 25.09375 62.40625 
L 30 62.40625 
L 30 0 
z
" id="Inconsolata-Regular-49"/>
      </defs>
      <g style="fill:#555555;" transform="translate(24.8 149.82844)scale(0.1 -0.1)">
       <use xlink:href="#Inconsolata-Regular-8722"/>
       <use x="49.999985" xlink:href="#Inconsolata-Regular-49"/>
       <use x="99.999969" xlink:href="#Inconsolata-Regular-48"/>
       <use x="149.999954" xlink:href="#Inconsolata-Regular-48"/>
       <use x="199.999939" xlink:href="#Inconsolata-Regular-48"/>
       <use x="249.999924" xlink:href="#Inconsolata-Regular-48"/>
      </g>
     </g>
     <g id="text_8">
      <!-- −10000 -->
      <g style="fill:#555555;" transform="translate(823.2 149.82844)scale(0.1 -0.1)">
       <use xlink:href="#Inconsolata-Regular-8722"/>
       <use x="49.999985" xlink:href="#Inconsolata-Regular-49"/>
       <use x="99.999969" xlink:href="#Inconsolata-Regular-48"/>
       <use x="149.999954" xlink:href="#Inconsolata-Regular-48"/>
       <use x="199.999939" xlink:href="#Inconsolata-Regular-48"/>
       <use x="249.999924" xlink:href="#Inconsolata-Regular-48"/>
      </g>
     </g>
    </g>
    <g id="ytick_2">
     <g id="line2d_16">
      <path clip-path="url(#pac0e06b092)" d="M 61.8 113.586804 
L 816.2 113.586804 
" style="fill:none;stroke:#ffffff;stroke-linecap:square;stroke-width:0.8;"/>
     </g>
     <g id="line2d_17">
      <g>
       <use style="fill:#555555;stroke:#555555;stroke-width:0.8;" x="61.8" xlink:href="#mfe11c8ff67" y="113.586804"/>
      </g>
     </g>
     <g id="line2d_18">
      <g>
       <use style="fill:#555555;stroke:#555555;stroke-width:0.8;" x="816.2" xlink:href="#mbcb5d6a364" y="113.586804"/>
      </g>
     </g>
     <g id="text_9">
      <!-- −5000 -->
      <g style="fill:#555555;" transform="translate(29.8 116.911804)scale(0.1 -0.1)">
       <use xlink:href="#Inconsolata-Regular-8722"/>
       <use x="49.999985" xlink:href="#Inconsolata-Regular-53"/>
       <use x="99.999969" xlink:href="#Inconsolata-Regular-48"/>
       <use x="149.999954" xlink:href="#Inconsolata-Regular-48"/>
       <use x="199.999939" xlink:href="#Inconsolata-Regular-48"/>
      </g>
     </g>
     <g id="text_10">
      <!-- −5000 -->
      <g style="fill:#555555;" transform="translate(823.2 116.911804)scale(0.1 -0.1)">
       <use xlink:href="#Inconsolata-Regular-8722"/>
       <use x="49.999985" xlink:href="#Inconsolata-Regular-53"/>
       <use x="99.999969" xlink:href="#Inconsolata-Regular-48"/>
       <use x="149.999954" xlink:href="#Inconsolata-Regular-48"/>
       <use x="199.999939" xlink:href="#Inconsolata-Regular-48"/>
      </g>
     </g>
    </g>
    <g id="ytick_3">
     <g id="line2d_19">
      <path clip-path="url(#pac0e06b092)" d="M 61.8 80.670168 
L 816.2 80.670168 
" style="fill:none;stroke:#ffffff;stroke-linecap:square;stroke-width:0.8;"/>
     </g>
     <g id="line2d_20">
      <g>
       <use style="fill:#555555;stroke:#555555;stroke-width:0.8;" x="61.8" xlink:href="#mfe11c8ff67" y="80.670168"/>
      </g>
     </g>
     <g id="line2d_21">
      <g>
       <use style="fill:#555555;stroke:#555555;stroke-width:0.8;" x="816.2" xlink:href="#mbcb5d6a364" y="80.670168"/>
      </g>
     </g>
     <g id="text_11">
      <!-- 0 -->
      <g style="fill:#555555;" transform="translate(49.8 83.995168)scale(0.1 -0.1)">
       <use xlink:href="#Inconsolata-Regular-48"/>
      </g>
     </g>
     <g id="text_12">
      <!-- 0 -->
      <g style="fill:#555555;" transform="translate(823.2 83.995168)scale(0.1 -0.1)">
       <use xlink:href="#Inconsolata-Regular-48"/>
      </g>
     </g>
    </g>
    <g id="ytick_4">
     <g id="line2d_22">
      <path clip-path="url(#pac0e06b092)" d="M 61.8 47.753532 
L 816.2 47.753532 
" style="fill:none;stroke:#ffffff;stroke-linecap:square;stroke-width:0.8;"/>
     </g>
     <g id="line2d_23">
      <g>
       <use style="fill:#555555;stroke:#555555;stroke-width:0.8;" x="61.8" xlink:href="#mfe11c8ff67" y="47.753532"/>
      </g>
     </g>
     <g id="line2d_24">
      <g>
       <use style="fill:#555555;stroke:#555555;stroke-width:0.8;" x="816.2" xlink:href="#mbcb5d6a364" y="47.753532"/>
      </g>
     </g>
     <g id="text_13">
      <!-- 5000 -->
      <g style="fill:#555555;" transform="translate(34.8 51.078532)scale(0.1 -0.1)">
       <use xlink:href="#Inconsolata-Regular-53"/>
       <use x="49.999985" xlink:href="#Inconsolata-Regular-48"/>
       <use x="99.999969" xlink:href="#Inconsolata-Regular-48"/>
       <use x="149.999954" xlink:href="#Inconsolata-Regular-48"/>
      </g>
     </g>
     <g id="text_14">
      <!-- 5000 -->
      <g style="fill:#555555;" transform="translate(823.2 51.078532)scale(0.1 -0.1)">
       <use xlink:href="#Inconsolata-Regular-53"/>
       <use x="49.999985" xlink:href="#Inconsolata-Regular-48"/>
       <use x="99.999969" xlink:href="#Inconsolata-Regular-48"/>
       <use x="149.999954" xlink:href="#Inconsolata-Regular-48"/>
      </g>
     </g>
    </g>
    <g id="ytick_5">
     <g id="line2d_25">
      <path clip-path="url(#pac0e06b092)" d="M 61.8 14.836896 
L 816.2 14.836896 
" style="fill:none;stroke:#ffffff;stroke-linecap:square;stroke-width:0.8;"/>
     </g>
     <g id="line2d_26">
      <g>
       <use style="fill:#555555;stroke:#555555;stroke-width:0.8;" x="61.8" xlink:href="#mfe11c8ff67" y="14.836896"/>
      </g>
     </g>
     <g id="line2d_27">
      <g>
       <use style="fill:#555555;stroke:#555555;stroke-width:0.8;" x="816.2" xlink:href="#mbcb5d6a364" y="14.836896"/>
      </g>
     </g>
     <g id="text_15">
      <!-- 10000 -->
      <g style="fill:#555555;" transform="translate(29.8 18.161896)scale(0.1 -0.1)">
       <use xlink:href="#Inconsolata-Regular-49"/>
       <use x="49.999985" xlink:href="#Inconsolata-Regular-48"/>
       <use x="99.999969" xlink:href="#Inconsolata-Regular-48"/>
       <use x="149.999954" xlink:href="#Inconsolata-Regular-48"/>
       <use x="199.999939" xlink:href="#Inconsolata-Regular-48"/>
      </g>
     </g>
     <g id="text_16">
      <!-- 10000 -->
      <g style="fill:#555555;" transform="translate(823.2 18.161896)scale(0.1 -0.1)">
       <use xlink:href="#Inconsolata-Regular-49"/>
       <use x="49.999985" xlink:href="#Inconsolata-Regular-48"/>
       <use x="99.999969" xlink:href="#Inconsolata-Regular-48"/>
       <use x="149.999954" xlink:href="#Inconsolata-Regular-48"/>
       <use x="199.999939" xlink:href="#Inconsolata-Regular-48"/>
      </g>
     </g>
    </g>
    <g id="text_17">
     <!-- daily change -->
     <defs>
      <path d="M 23.40625 -1 
Q 18.796875 -1 14.4375 1.640625 
Q 10.09375 4.296875 7.296875 9.6875 
Q 4.5 15.09375 4.5 23.296875 
Q 4.5 31.703125 7.390625 36.890625 
Q 10.296875 42.09375 14.75 44.5 
Q 19.203125 46.90625 23.796875 46.90625 
Q 28.5 46.90625 31.953125 44.75 
Q 35.40625 42.59375 37.09375 39 
L 37.09375 66.5 
L 44.703125 66.5 
L 44.703125 65.796875 
Q 44.09375 65.203125 43.9375 64.5 
Q 43.796875 63.796875 43.796875 62.09375 
L 43.90625 7.09375 
Q 43.90625 5.296875 44.046875 3.546875 
Q 44.203125 1.796875 44.90625 0 
L 37.796875 0 
Q 37.09375 1.796875 36.9375 3.546875 
Q 36.796875 5.296875 36.796875 7.09375 
Q 34.59375 3.40625 31.1875 1.203125 
Q 27.796875 -1 23.40625 -1 
z
M 24.5 5.296875 
Q 28.90625 5.296875 31.546875 7.6875 
Q 34.203125 10.09375 35.34375 14.140625 
Q 36.5 18.203125 36.5 23.09375 
Q 36.5 30.796875 33.5 35.890625 
Q 30.5 41 23.90625 41 
Q 17.796875 41 14.640625 36.5 
Q 11.5 32 11.5 24.40625 
Q 11.5 15.796875 14.796875 10.546875 
Q 18.09375 5.296875 24.5 5.296875 
z
" id="Inconsolata-Regular-100"/>
      <path d="M 21.09375 -1.09375 
Q 13.296875 -1.09375 9.09375 2.453125 
Q 4.90625 6 4.90625 11.5 
Q 4.90625 16.40625 8 19.953125 
Q 11.09375 23.5 16.34375 25.453125 
Q 21.59375 27.40625 27.90625 27.40625 
Q 30.203125 27.40625 32.75 27.296875 
Q 35.296875 27.203125 38.203125 26.796875 
Q 37.59375 34.796875 34.046875 37.796875 
Q 30.5 40.796875 23.90625 40.796875 
Q 20.59375 40.796875 17.390625 39.546875 
Q 14.203125 38.296875 11.59375 35.703125 
L 8.09375 40.296875 
Q 11.296875 43.5 15.5 45.09375 
Q 19.703125 46.703125 24.40625 46.703125 
Q 30.5 46.703125 35 44.703125 
Q 39.5 42.703125 42 37.796875 
Q 44.5 32.90625 44.5 24.296875 
L 44.5 0 
L 36.703125 0 
L 36.703125 7 
Q 35 3.703125 32.34375 1.953125 
Q 29.703125 0.203125 26.75 -0.4375 
Q 23.796875 -1.09375 21.09375 -1.09375 
z
M 12.09375 11.90625 
Q 12.09375 7.59375 14.890625 6 
Q 17.703125 4.40625 21.796875 4.40625 
Q 29.203125 4.40625 33.5 8.75 
Q 37.796875 13.09375 38.203125 21.296875 
Q 33 22 28.5 22 
Q 21.296875 22 16.6875 19.59375 
Q 12.09375 17.203125 12.09375 11.90625 
z
" id="Inconsolata-Regular-97"/>
      <path d="M 10 0 
L 10 5.796875 
L 21.703125 5.796875 
L 21.703125 39.90625 
L 10.59375 39.90625 
L 10.59375 45.703125 
L 28.90625 45.703125 
L 28.90625 5.796875 
L 39.59375 5.796875 
L 39.59375 0 
z
M 24.90625 55.296875 
Q 22.796875 55.296875 21.296875 56.796875 
Q 19.796875 58.296875 19.796875 60.40625 
Q 19.796875 62.59375 21.25 64.09375 
Q 22.703125 65.59375 24.90625 65.59375 
Q 27 65.59375 28.546875 64.046875 
Q 30.09375 62.5 30.09375 60.40625 
Q 30.09375 58.296875 28.546875 56.796875 
Q 27 55.296875 24.90625 55.296875 
z
" id="Inconsolata-Regular-105"/>
      <path d="M 7.90625 0 
L 7.90625 5.796875 
L 21.40625 5.796875 
L 21.40625 60.703125 
L 8.5 60.703125 
L 8.5 66.5 
L 28.703125 66.5 
L 28.703125 5.796875 
L 42.09375 5.796875 
L 42.09375 0 
z
" id="Inconsolata-Regular-108"/>
      <path d="M 12.703125 -17.40625 
Q 6.296875 -17.40625 2.203125 -13.5 
L 5.296875 -8.59375 
L 5.90625 -7.703125 
L 6.5 -8.09375 
Q 6.703125 -8.90625 7.203125 -9.453125 
Q 7.703125 -10 9.09375 -10.90625 
Q 10.90625 -11.5 13.09375 -11.5 
Q 17 -11.5 19.203125 -8.75 
Q 21.40625 -6 23.296875 -0.296875 
L 4.59375 45.703125 
L 12.09375 45.703125 
L 26.296875 9.09375 
L 32.296875 27.5 
Q 33.796875 32.09375 35.1875 36.59375 
Q 36.59375 41.09375 37.09375 45.703125 
L 44.296875 45.703125 
Q 43.59375 41.09375 42.09375 36.390625 
Q 40.59375 31.703125 38.90625 27 
L 27.5 -5.203125 
Q 25.09375 -11.90625 21.34375 -14.65625 
Q 17.59375 -17.40625 12.703125 -17.40625 
z
" id="Inconsolata-Regular-121"/>
      <path id="Inconsolata-Regular-32"/>
      <path d="M 28.5 -1.09375 
Q 21.90625 -1.09375 16.703125 2 
Q 11.5 5.09375 8.546875 10.5 
Q 5.59375 15.90625 5.59375 22.796875 
Q 5.59375 29.703125 8.546875 35.046875 
Q 11.5 40.40625 16.640625 43.5 
Q 21.796875 46.59375 28.40625 46.59375 
Q 34 46.59375 38.453125 44.34375 
Q 42.90625 42.09375 45.703125 38.09375 
L 41.203125 33.703125 
L 40.5 33 
L 40 33.5 
Q 40 34.296875 39.640625 35 
Q 39.296875 35.703125 38.09375 36.90625 
Q 35.90625 38.90625 33.40625 39.703125 
Q 30.90625 40.5 27.59375 40.5 
Q 23.796875 40.5 20.4375 38.390625 
Q 17.09375 36.296875 15.046875 32.4375 
Q 13 28.59375 13 23.296875 
Q 13 18.203125 15.046875 14.140625 
Q 17.09375 10.09375 20.6875 7.75 
Q 24.296875 5.40625 28.90625 5.40625 
Q 35.796875 5.40625 40.796875 11 
L 45 6.09375 
Q 38.296875 -1.09375 28.5 -1.09375 
z
" id="Inconsolata-Regular-99"/>
      <path d="M 7.296875 66.5 
L 15.203125 66.5 
L 15.203125 65.796875 
Q 14.59375 65.203125 14.4375 64.5 
Q 14.296875 63.796875 14.296875 62.09375 
L 14.296875 37.59375 
Q 17 41.796875 21.046875 44.296875 
Q 25.09375 46.796875 29.296875 46.796875 
Q 35.5 46.796875 39.34375 42.4375 
Q 43.203125 38.09375 43.203125 27.703125 
L 43.203125 0 
L 36.203125 0 
L 36.203125 27.5 
Q 36.203125 34.703125 33.75 37.59375 
Q 31.296875 40.5 27.796875 40.5 
Q 24.796875 40.5 21.640625 38.796875 
Q 18.5 37.09375 16.390625 33.9375 
Q 14.296875 30.796875 14.296875 26.296875 
L 14.296875 0 
L 7.296875 0 
z
" id="Inconsolata-Regular-104"/>
      <path d="M 7.203125 0 
L 7.203125 45.703125 
L 14.203125 45.703125 
L 14.203125 37.59375 
Q 16.796875 41.796875 20.9375 44.296875 
Q 25.09375 46.796875 29.703125 46.796875 
Q 35.296875 46.796875 39.1875 42.4375 
Q 43.09375 38.09375 43.09375 27.703125 
L 43.09375 0 
L 36.09375 0 
L 36.09375 27.5 
Q 36.09375 34.703125 33.640625 37.59375 
Q 31.203125 40.5 27.703125 40.5 
Q 24.703125 40.5 21.546875 38.75 
Q 18.40625 37 16.296875 33.84375 
Q 14.203125 30.703125 14.203125 26.296875 
L 14.203125 0 
z
" id="Inconsolata-Regular-110"/>
      <path d="M 22.59375 15.5 
Q 18.703125 15.5 15.5 16.90625 
Q 13.703125 14.703125 13.703125 12.703125 
Q 13.703125 10.296875 16.703125 9.25 
Q 19.703125 8.203125 27.703125 8.203125 
Q 34.703125 8.203125 38.296875 6.703125 
Q 41.90625 5.203125 43.203125 2.59375 
Q 44.5 0 44.5 -3.40625 
Q 44.5 -6.90625 42.59375 -10.09375 
Q 40.703125 -13.296875 36.34375 -15.25 
Q 32 -17.203125 24.703125 -17.203125 
Q 15.09375 -17.203125 9.4375 -14.25 
Q 3.796875 -11.296875 3.796875 -5.40625 
Q 3.796875 -1.703125 5.890625 0.9375 
Q 8 3.59375 10.90625 4.90625 
Q 7.59375 7.09375 7.59375 11 
Q 7.59375 13.203125 8.6875 15.296875 
Q 9.796875 17.40625 11.703125 19.40625 
Q 6.59375 23.90625 6.59375 31.5 
Q 6.59375 35.90625 8.546875 39.5 
Q 10.5 43.09375 14.09375 45.25 
Q 17.703125 47.40625 22.59375 47.40625 
Q 26.296875 47.40625 29.25 46.15625 
Q 32.203125 44.90625 34.296875 42.703125 
Q 36.90625 45.09375 39.796875 46.140625 
Q 42.703125 47.203125 46.59375 46.90625 
L 47.5 41 
Q 44.5 41.296875 41.84375 40.890625 
Q 39.203125 40.5 36.90625 39 
Q 38.59375 35.59375 38.59375 31.5 
Q 38.59375 27.09375 36.640625 23.4375 
Q 34.703125 19.796875 31.140625 17.640625 
Q 27.59375 15.5 22.59375 15.5 
z
M 22.59375 21.5 
Q 27 21.5 29.796875 24.453125 
Q 32.59375 27.40625 32.59375 31.5 
Q 32.59375 35.59375 29.796875 38.546875 
Q 27 41.5 22.59375 41.5 
Q 18.296875 41.5 15.4375 38.546875 
Q 12.59375 35.59375 12.59375 31.5 
Q 12.59375 27.40625 15.4375 24.453125 
Q 18.296875 21.5 22.59375 21.5 
z
M 10.40625 -4.59375 
Q 10.40625 -8 14.25 -9.890625 
Q 18.09375 -11.796875 24.796875 -11.796875 
Q 31.59375 -11.796875 34.75 -9.75 
Q 37.90625 -7.703125 37.90625 -4.5 
Q 37.90625 -2.296875 37.09375 -0.890625 
Q 36.296875 0.5 33.796875 1.203125 
Q 31.296875 1.90625 26.203125 1.90625 
Q 22.703125 1.90625 19.84375 2.203125 
Q 17 2.5 14.703125 3.203125 
Q 12.40625 1.59375 11.40625 -0.046875 
Q 10.40625 -1.703125 10.40625 -4.59375 
z
" id="Inconsolata-Regular-103"/>
      <path d="M 27.203125 -1 
Q 17.203125 -1 11.046875 5.09375 
Q 4.90625 11.203125 4.90625 22.703125 
Q 4.90625 30.5 7.75 35.84375 
Q 10.59375 41.203125 15.34375 44 
Q 20.09375 46.796875 25.90625 46.796875 
Q 31.09375 46.796875 35.296875 44.5 
Q 39.5 42.203125 42 37.390625 
Q 44.5 32.59375 44.5 25.09375 
Q 44.5 24.296875 44.453125 23.4375 
Q 44.40625 22.59375 44.296875 21.796875 
L 11.796875 21.796875 
Q 12.203125 13 16.75 8.890625 
Q 21.296875 4.796875 27.40625 4.796875 
Q 34.59375 4.796875 39.203125 9.90625 
L 43.203125 6 
Q 37.40625 -1 27.203125 -1 
z
M 12.09375 27.40625 
L 37.203125 27.40625 
Q 37.203125 33.796875 33.953125 37.546875 
Q 30.703125 41.296875 25.40625 41.296875 
Q 20.703125 41.296875 16.890625 37.9375 
Q 13.09375 34.59375 12.09375 27.40625 
z
" id="Inconsolata-Regular-101"/>
     </defs>
     <g style="fill:#555555;" transform="translate(18.71125 118)rotate(-90)scale(0.12 -0.12)">
      <use xlink:href="#Inconsolata-Regular-100"/>
      <use x="49.999985" xlink:href="#Inconsolata-Regular-97"/>
      <use x="99.999969" xlink:href="#Inconsolata-Regular-105"/>
      <use x="149.999954" xlink:href="#Inconsolata-Regular-108"/>
      <use x="199.999939" xlink:href="#Inconsolata-Regular-121"/>
      <use x="249.999924" xlink:href="#Inconsolata-Regular-32"/>
      <use x="299.999908" xlink:href="#Inconsolata-Regular-99"/>
      <use x="349.999893" xlink:href="#Inconsolata-Regular-104"/>
      <use x="399.999878" xlink:href="#Inconsolata-Regular-97"/>
      <use x="449.999863" xlink:href="#Inconsolata-Regular-110"/>
      <use x="499.999847" xlink:href="#Inconsolata-Regular-103"/>
      <use x="549.999832" xlink:href="#Inconsolata-Regular-101"/>
     </g>
    </g>
   </g>
   <g id="patch_3">
    <path clip-path="url(#pac0e06b092)" d="M 96.090909 80.670168 
L 99.567807 80.670168 
L 99.567807 80.670168 
L 96.090909 80.670168 
z
" style="fill:#348abd;opacity:0.2;"/>
   </g>
   <g id="patch_4">
    <path clip-path="url(#pac0e06b092)" d="M 100.437032 80.670168 
L 103.91393 80.670168 
L 103.91393 80.670168 
L 100.437032 80.670168 
z
" style="fill:#348abd;opacity:0.2;"/>
   </g>
   <g id="patch_5">
    <path clip-path="url(#pac0e06b092)" d="M 104.783155 80.670168 
L 108.260053 80.670168 
L 108.260053 80.670168 
L 104.783155 80.670168 
z
" style="fill:#348abd;opacity:0.2;"/>
   </g>
   <g id="patch_6">
    <path clip-path="url(#pac0e06b092)" d="M 109.129278 80.670168 
L 112.606176 80.670168 
L 112.606176 80.670168 
L 109.129278 80.670168 
z
" style="fill:#348abd;opacity:0.2;"/>
   </g>
   <g id="patch_7">
    <path clip-path="url(#pac0e06b092)" d="M 113.4754 80.670168 
L 116.952299 80.670168 
L 116.952299 80.670168 
L 113.4754 80.670168 
z
" style="fill:#348abd;opacity:0.2;"/>
   </g>
   <g id="patch_8">
    <path clip-path="url(#pac0e06b092)" d="M 117.821523 80.670168 
L 121.298421 80.670168 
L 121.298421 80.670168 
L 117.821523 80.670168 
z
" style="fill:#348abd;opacity:0.2;"/>
   </g>
   <g id="patch_9">
    <path clip-path="url(#pac0e06b092)" d="M 122.167646 80.670168 
L 125.644544 80.670168 
L 125.644544 80.670168 
L 122.167646 80.670168 
z
" style="fill:#348abd;opacity:0.2;"/>
   </g>
   <g id="patch_10">
    <path clip-path="url(#pac0e06b092)" d="M 126.513769 80.670168 
L 129.990667 80.670168 
L 129.990667 80.670168 
L 126.513769 80.670168 
z
" style="fill:#348abd;opacity:0.2;"/>
   </g>
   <g id="patch_11">
    <path clip-path="url(#pac0e06b092)" d="M 130.859892 80.670168 
L 134.33679 80.670168 
L 134.33679 80.670168 
L 130.859892 80.670168 
z
" style="fill:#348abd;opacity:0.2;"/>
   </g>
   <g id="patch_12">
    <path clip-path="url(#pac0e06b092)" d="M 135.206015 80.670168 
L 138.682913 80.670168 
L 138.682913 80.663585 
L 135.206015 80.663585 
z
" style="fill:#348abd;opacity:0.2;"/>
   </g>
   <g id="patch_13">
    <path clip-path="url(#pac0e06b092)" d="M 139.552137 80.670168 
L 143.029036 80.670168 
L 143.029036 80.670168 
L 139.552137 80.670168 
z
" style="fill:#348abd;opacity:0.2;"/>
   </g>
   <g id="patch_14">
    <path clip-path="url(#pac0e06b092)" d="M 143.89826 80.670168 
L 147.375158 80.670168 
L 147.375158 80.670168 
L 143.89826 80.670168 
z
" style="fill:#348abd;opacity:0.2;"/>
   </g>
   <g id="patch_15">
    <path clip-path="url(#pac0e06b092)" d="M 148.244383 80.670168 
L 151.721281 80.670168 
L 151.721281 80.670168 
L 148.244383 80.670168 
z
" style="fill:#348abd;opacity:0.2;"/>
   </g>
   <g id="patch_16">
    <path clip-path="url(#pac0e06b092)" d="M 152.590506 80.670168 
L 156.067404 80.670168 
L 156.067404 80.670168 
L 152.590506 80.670168 
z
" style="fill:#348abd;opacity:0.2;"/>
   </g>
   <g id="patch_17">
    <path clip-path="url(#pac0e06b092)" d="M 156.936629 80.670168 
L 160.413527 80.670168 
L 160.413527 80.670168 
L 156.936629 80.670168 
z
" style="fill:#348abd;opacity:0.2;"/>
   </g>
   <g id="patch_18">
    <path clip-path="url(#pac0e06b092)" d="M 161.282751 80.670168 
L 164.75965 80.670168 
L 164.75965 80.670168 
L 161.282751 80.670168 
z
" style="fill:#348abd;opacity:0.2;"/>
   </g>
   <g id="patch_19">
    <path clip-path="url(#pac0e06b092)" d="M 165.628874 80.670168 
L 169.105773 80.670168 
L 169.105773 80.670168 
L 165.628874 80.670168 
z
" style="fill:#348abd;opacity:0.2;"/>
   </g>
   <g id="patch_20">
    <path clip-path="url(#pac0e06b092)" d="M 169.974997 80.670168 
L 173.451895 80.670168 
L 173.451895 80.663585 
L 169.974997 80.663585 
z
" style="fill:#348abd;opacity:0.2;"/>
   </g>
   <g id="patch_21">
    <path clip-path="url(#pac0e06b092)" d="M 174.32112 80.670168 
L 177.798018 80.670168 
L 177.798018 80.670168 
L 174.32112 80.670168 
z
" style="fill:#348abd;opacity:0.2;"/>
   </g>
   <g id="patch_22">
    <path clip-path="url(#pac0e06b092)" d="M 178.667243 80.670168 
L 182.144141 80.670168 
L 182.144141 80.670168 
L 178.667243 80.670168 
z
" style="fill:#348abd;opacity:0.2;"/>
   </g>
   <g id="patch_23">
    <path clip-path="url(#pac0e06b092)" d="M 183.013366 80.670168 
L 186.490264 80.670168 
L 186.490264 80.670168 
L 183.013366 80.670168 
z
" style="fill:#348abd;opacity:0.2;"/>
   </g>
   <g id="patch_24">
    <path clip-path="url(#pac0e06b092)" d="M 187.359488 80.670168 
L 190.836387 80.670168 
L 190.836387 80.670168 
L 187.359488 80.670168 
z
" style="fill:#348abd;opacity:0.2;"/>
   </g>
   <g id="patch_25">
    <path clip-path="url(#pac0e06b092)" d="M 191.705611 80.670168 
L 195.18251 80.670168 
L 195.18251 80.670168 
L 191.705611 80.670168 
z
" style="fill:#348abd;opacity:0.2;"/>
   </g>
   <g id="patch_26">
    <path clip-path="url(#pac0e06b092)" d="M 196.051734 80.670168 
L 199.528632 80.670168 
L 199.528632 80.670168 
L 196.051734 80.670168 
z
" style="fill:#348abd;opacity:0.2;"/>
   </g>
   <g id="patch_27">
    <path clip-path="url(#pac0e06b092)" d="M 200.397857 80.670168 
L 203.874755 80.670168 
L 203.874755 80.670168 
L 200.397857 80.670168 
z
" style="fill:#348abd;opacity:0.2;"/>
   </g>
   <g id="patch_28">
    <path clip-path="url(#pac0e06b092)" d="M 204.74398 80.670168 
L 208.220878 80.670168 
L 208.220878 80.670168 
L 204.74398 80.670168 
z
" style="fill:#348abd;opacity:0.2;"/>
   </g>
   <g id="patch_29">
    <path clip-path="url(#pac0e06b092)" d="M 209.090103 80.670168 
L 212.567001 80.670168 
L 212.567001 80.670168 
L 209.090103 80.670168 
z
" style="fill:#348abd;opacity:0.2;"/>
   </g>
   <g id="patch_30">
    <path clip-path="url(#pac0e06b092)" d="M 213.436225 80.670168 
L 216.913124 80.670168 
L 216.913124 80.670168 
L 213.436225 80.670168 
z
" style="fill:#348abd;opacity:0.2;"/>
   </g>
   <g id="patch_31">
    <path clip-path="url(#pac0e06b092)" d="M 217.782348 80.670168 
L 221.259246 80.670168 
L 221.259246 80.670168 
L 217.782348 80.670168 
z
" style="fill:#348abd;opacity:0.2;"/>
   </g>
   <g id="patch_32">
    <path clip-path="url(#pac0e06b092)" d="M 222.128471 80.670168 
L 225.605369 80.670168 
L 225.605369 80.670168 
L 222.128471 80.670168 
z
" style="fill:#348abd;opacity:0.2;"/>
   </g>
   <g id="patch_33">
    <path clip-path="url(#pac0e06b092)" d="M 226.474594 80.670168 
L 229.951492 80.670168 
L 229.951492 80.670168 
L 226.474594 80.670168 
z
" style="fill:#348abd;opacity:0.2;"/>
   </g>
   <g id="patch_34">
    <path clip-path="url(#pac0e06b092)" d="M 230.820717 80.670168 
L 234.297615 80.670168 
L 234.297615 80.670168 
L 230.820717 80.670168 
z
" style="fill:#348abd;opacity:0.2;"/>
   </g>
   <g id="patch_35">
    <path clip-path="url(#pac0e06b092)" d="M 235.166839 80.670168 
L 238.643738 80.670168 
L 238.643738 80.670168 
L 235.166839 80.670168 
z
" style="fill:#348abd;opacity:0.2;"/>
   </g>
   <g id="patch_36">
    <path clip-path="url(#pac0e06b092)" d="M 239.512962 80.670168 
L 242.989861 80.670168 
L 242.989861 80.643835 
L 239.512962 80.643835 
z
" style="fill:#348abd;opacity:0.2;"/>
   </g>
   <g id="patch_37">
    <path clip-path="url(#pac0e06b092)" d="M 243.859085 80.670168 
L 247.335983 80.670168 
L 247.335983 80.624085 
L 243.859085 80.624085 
z
" style="fill:#348abd;opacity:0.2;"/>
   </g>
   <g id="patch_38">
    <path clip-path="url(#pac0e06b092)" d="M 248.205208 80.670168 
L 251.682106 80.670168 
L 251.682106 80.657001 
L 248.205208 80.657001 
z
" style="fill:#348abd;opacity:0.2;"/>
   </g>
   <g id="patch_39">
    <path clip-path="url(#pac0e06b092)" d="M 252.551331 80.670168 
L 256.028229 80.670168 
L 256.028229 80.558251 
L 252.551331 80.558251 
z
" style="fill:#348abd;opacity:0.2;"/>
   </g>
   <g id="patch_40">
    <path clip-path="url(#pac0e06b092)" d="M 256.897454 80.670168 
L 260.374352 80.670168 
L 260.374352 80.584585 
L 256.897454 80.584585 
z
" style="fill:#348abd;opacity:0.2;"/>
   </g>
   <g id="patch_41">
    <path clip-path="url(#pac0e06b092)" d="M 261.243576 80.670168 
L 264.720475 80.670168 
L 264.720475 80.413418 
L 261.243576 80.413418 
z
" style="fill:#348abd;opacity:0.2;"/>
   </g>
   <g id="patch_42">
    <path clip-path="url(#pac0e06b092)" d="M 265.589699 80.670168 
L 269.066598 80.670168 
L 269.066598 80.433168 
L 265.589699 80.433168 
z
" style="fill:#348abd;opacity:0.2;"/>
   </g>
   <g id="patch_43">
    <path clip-path="url(#pac0e06b092)" d="M 269.935822 80.670168 
L 273.41272 80.670168 
L 273.41272 80.373918 
L 269.935822 80.373918 
z
" style="fill:#348abd;opacity:0.2;"/>
   </g>
   <g id="patch_44">
    <path clip-path="url(#pac0e06b092)" d="M 274.281945 80.670168 
L 277.758843 80.670168 
L 277.758843 80.294918 
L 274.281945 80.294918 
z
" style="fill:#348abd;opacity:0.2;"/>
   </g>
   <g id="patch_45">
    <path clip-path="url(#pac0e06b092)" d="M 278.628068 80.670168 
L 282.104966 80.670168 
L 282.104966 80.426585 
L 278.628068 80.426585 
z
" style="fill:#348abd;opacity:0.2;"/>
   </g>
   <g id="patch_46">
    <path clip-path="url(#pac0e06b092)" d="M 282.974191 80.670168 
L 286.451089 80.670168 
L 286.451089 79.741919 
L 282.974191 79.741919 
z
" style="fill:#348abd;opacity:0.2;"/>
   </g>
   <g id="patch_47">
    <path clip-path="url(#pac0e06b092)" d="M 287.320313 80.670168 
L 290.797212 80.670168 
L 290.797212 80.011835 
L 287.320313 80.011835 
z
" style="fill:#348abd;opacity:0.2;"/>
   </g>
   <g id="patch_48">
    <path clip-path="url(#pac0e06b092)" d="M 291.666436 80.670168 
L 295.143334 80.670168 
L 295.143334 79.531252 
L 291.666436 79.531252 
z
" style="fill:#348abd;opacity:0.2;"/>
   </g>
   <g id="patch_49">
    <path clip-path="url(#pac0e06b092)" d="M 296.012559 80.670168 
L 299.489457 80.670168 
L 299.489457 78.036837 
L 296.012559 78.036837 
z
" style="fill:#348abd;opacity:0.2;"/>
   </g>
   <g id="patch_50">
    <path clip-path="url(#pac0e06b092)" d="M 300.358682 80.670168 
L 303.83558 80.670168 
L 303.83558 76.575338 
L 300.358682 76.575338 
z
" style="fill:#348abd;opacity:0.2;"/>
   </g>
   <g id="patch_51">
    <path clip-path="url(#pac0e06b092)" d="M 304.704805 80.670168 
L 308.181703 80.670168 
L 308.181703 76.838671 
L 304.704805 76.838671 
z
" style="fill:#348abd;opacity:0.2;"/>
   </g>
   <g id="patch_52">
    <path clip-path="url(#pac0e06b092)" d="M 309.050928 80.670168 
L 312.527826 80.670168 
L 312.527826 80.670168 
L 309.050928 80.670168 
z
" style="fill:#348abd;opacity:0.2;"/>
   </g>
   <g id="patch_53">
    <path clip-path="url(#pac0e06b092)" d="M 313.39705 80.670168 
L 316.873949 80.670168 
L 316.873949 61.216436 
L 313.39705 61.216436 
z
" style="fill:#348abd;opacity:0.2;"/>
   </g>
   <g id="patch_54">
    <path clip-path="url(#pac0e06b092)" d="M 317.743173 80.670168 
L 321.220071 80.670168 
L 321.220071 73.040092 
L 317.743173 73.040092 
z
" style="fill:#348abd;opacity:0.2;"/>
   </g>
   <g id="patch_55">
    <path clip-path="url(#pac0e06b092)" d="M 322.089296 80.670168 
L 325.566194 80.670168 
L 325.566194 71.407427 
L 322.089296 71.407427 
z
" style="fill:#348abd;opacity:0.2;"/>
   </g>
   <g id="patch_56">
    <path clip-path="url(#pac0e06b092)" d="M 326.435419 80.670168 
L 329.912317 80.670168 
L 329.912317 66.555514 
L 326.435419 66.555514 
z
" style="fill:#348abd;opacity:0.2;"/>
   </g>
   <g id="patch_57">
    <path clip-path="url(#pac0e06b092)" d="M 330.781542 80.670168 
L 334.25844 80.670168 
L 334.25844 68.780679 
L 330.781542 68.780679 
z
" style="fill:#348abd;opacity:0.2;"/>
   </g>
   <g id="patch_58">
    <path clip-path="url(#pac0e06b092)" d="M 335.127664 80.670168 
L 338.604563 80.670168 
L 338.604563 66.437015 
L 335.127664 66.437015 
z
" style="fill:#348abd;opacity:0.2;"/>
   </g>
   <g id="patch_59">
    <path clip-path="url(#pac0e06b092)" d="M 339.473787 80.670168 
L 342.950686 80.670168 
L 342.950686 53.987943 
L 339.473787 53.987943 
z
" style="fill:#348abd;opacity:0.2;"/>
   </g>
   <g id="patch_60">
    <path clip-path="url(#pac0e06b092)" d="M 343.81991 80.670168 
L 347.296808 80.670168 
L 347.296808 64.560766 
L 343.81991 64.560766 
z
" style="fill:#348abd;opacity:0.2;"/>
   </g>
   <g id="patch_61">
    <path clip-path="url(#pac0e06b092)" d="M 348.166033 80.670168 
L 351.642931 80.670168 
L 351.642931 47.990532 
L 348.166033 47.990532 
z
" style="fill:#348abd;opacity:0.2;"/>
   </g>
   <g id="patch_62">
    <path clip-path="url(#pac0e06b092)" d="M 352.512156 80.670168 
L 355.989054 80.670168 
L 355.989054 58.326355 
L 352.512156 58.326355 
z
" style="fill:#348abd;opacity:0.2;"/>
   </g>
   <g id="patch_63">
    <path clip-path="url(#pac0e06b092)" d="M 356.858279 80.670168 
L 360.335177 80.670168 
L 360.335177 38.74754 
L 356.858279 38.74754 
z
" style="fill:#348abd;opacity:0.2;"/>
   </g>
   <g id="patch_64">
    <path clip-path="url(#pac0e06b092)" d="M 361.204401 80.670168 
L 364.6813 80.670168 
L 364.6813 49.405947 
L 361.204401 49.405947 
z
" style="fill:#348abd;opacity:0.2;"/>
   </g>
   <g id="patch_65">
    <path clip-path="url(#pac0e06b092)" d="M 365.550524 80.670168 
L 369.027423 80.670168 
L 369.027423 17.272727 
L 365.550524 17.272727 
z
" style="fill:#348abd;opacity:0.2;"/>
   </g>
   <g id="patch_66">
    <path clip-path="url(#pac0e06b092)" d="M 369.896647 80.670168 
L 373.373545 80.670168 
L 373.373545 26.219469 
L 369.896647 26.219469 
z
" style="fill:#348abd;opacity:0.2;"/>
   </g>
   <g id="patch_67">
    <path clip-path="url(#pac0e06b092)" d="M 374.24277 80.670168 
L 377.719668 80.670168 
L 377.719668 28.444633 
L 374.24277 28.444633 
z
" style="fill:#348abd;opacity:0.2;"/>
   </g>
   <g id="patch_68">
    <path clip-path="url(#pac0e06b092)" d="M 378.588893 80.670168 
L 382.065791 80.670168 
L 382.065791 31.189881 
L 378.588893 31.189881 
z
" style="fill:#348abd;opacity:0.2;"/>
   </g>
   <g id="patch_69">
    <path clip-path="url(#pac0e06b092)" d="M 382.935016 80.670168 
L 386.411914 80.670168 
L 386.411914 35.409794 
L 382.935016 35.409794 
z
" style="fill:#348abd;opacity:0.2;"/>
   </g>
   <g id="patch_70">
    <path clip-path="url(#pac0e06b092)" d="M 387.281138 80.670168 
L 390.758037 80.670168 
L 390.758037 29.017383 
L 387.281138 29.017383 
z
" style="fill:#348abd;opacity:0.2;"/>
   </g>
   <g id="patch_71">
    <path clip-path="url(#pac0e06b092)" d="M 391.627261 80.670168 
L 395.104159 80.670168 
L 395.104159 28.2208 
L 391.627261 28.2208 
z
" style="fill:#348abd;opacity:0.2;"/>
   </g>
   <g id="patch_72">
    <path clip-path="url(#pac0e06b092)" d="M 395.973384 80.670168 
L 399.450282 80.670168 
L 399.450282 26.719802 
L 395.973384 26.719802 
z
" style="fill:#348abd;opacity:0.2;"/>
   </g>
   <g id="patch_73">
    <path clip-path="url(#pac0e06b092)" d="M 400.319507 80.670168 
L 403.796405 80.670168 
L 403.796405 28.352467 
L 400.319507 28.352467 
z
" style="fill:#348abd;opacity:0.2;"/>
   </g>
   <g id="patch_74">
    <path clip-path="url(#pac0e06b092)" d="M 404.66563 80.670168 
L 408.142528 80.670168 
L 408.142528 33.704712 
L 404.66563 33.704712 
z
" style="fill:#348abd;opacity:0.2;"/>
   </g>
   <g id="patch_75">
    <path clip-path="url(#pac0e06b092)" d="M 409.011753 80.670168 
L 412.488651 80.670168 
L 412.488651 34.790961 
L 409.011753 34.790961 
z
" style="fill:#348abd;opacity:0.2;"/>
   </g>
   <g id="patch_76">
    <path clip-path="url(#pac0e06b092)" d="M 413.357875 80.670168 
L 416.834774 80.670168 
L 416.834774 44.606702 
L 413.357875 44.606702 
z
" style="fill:#348abd;opacity:0.2;"/>
   </g>
   <g id="patch_77">
    <path clip-path="url(#pac0e06b092)" d="M 417.703998 80.670168 
L 421.180896 80.670168 
L 421.180896 47.562616 
L 417.703998 47.562616 
z
" style="fill:#348abd;opacity:0.2;"/>
   </g>
   <g id="patch_78">
    <path clip-path="url(#pac0e06b092)" d="M 422.050121 80.670168 
L 425.527019 80.670168 
L 425.527019 45.995784 
L 422.050121 45.995784 
z
" style="fill:#348abd;opacity:0.2;"/>
   </g>
   <g id="patch_79">
    <path clip-path="url(#pac0e06b092)" d="M 426.396244 80.670168 
L 429.873142 80.670168 
L 429.873142 39.34004 
L 426.396244 39.34004 
z
" style="fill:#348abd;opacity:0.2;"/>
   </g>
   <g id="patch_80">
    <path clip-path="url(#pac0e06b092)" d="M 430.742367 80.670168 
L 434.219265 80.670168 
L 434.219265 47.740365 
L 430.742367 47.740365 
z
" style="fill:#348abd;opacity:0.2;"/>
   </g>
   <g id="patch_81">
    <path clip-path="url(#pac0e06b092)" d="M 435.088489 80.670168 
L 438.565388 80.670168 
L 438.565388 47.417782 
L 435.088489 47.417782 
z
" style="fill:#348abd;opacity:0.2;"/>
   </g>
   <g id="patch_82">
    <path clip-path="url(#pac0e06b092)" d="M 439.434612 80.670168 
L 442.911511 80.670168 
L 442.911511 49.373031 
L 439.434612 49.373031 
z
" style="fill:#348abd;opacity:0.2;"/>
   </g>
   <g id="patch_83">
    <path clip-path="url(#pac0e06b092)" d="M 443.780735 80.670168 
L 447.257633 80.670168 
L 447.257633 55.627191 
L 443.780735 55.627191 
z
" style="fill:#348abd;opacity:0.2;"/>
   </g>
   <g id="patch_84">
    <path clip-path="url(#pac0e06b092)" d="M 448.126858 80.670168 
L 451.603756 80.670168 
L 451.603756 59.155855 
L 448.126858 59.155855 
z
" style="fill:#348abd;opacity:0.2;"/>
   </g>
   <g id="patch_85">
    <path clip-path="url(#pac0e06b092)" d="M 452.472981 80.670168 
L 455.949879 80.670168 
L 455.949879 64.593683 
L 452.472981 64.593683 
z
" style="fill:#348abd;opacity:0.2;"/>
   </g>
   <g id="patch_86">
    <path clip-path="url(#pac0e06b092)" d="M 456.819104 80.670168 
L 460.296002 80.670168 
L 460.296002 47.075449 
L 456.819104 47.075449 
z
" style="fill:#348abd;opacity:0.2;"/>
   </g>
   <g id="patch_87">
    <path clip-path="url(#pac0e06b092)" d="M 461.165226 80.670168 
L 464.642125 80.670168 
L 464.642125 32.585546 
L 461.165226 32.585546 
z
" style="fill:#348abd;opacity:0.2;"/>
   </g>
   <g id="patch_88">
    <path clip-path="url(#pac0e06b092)" d="M 465.511349 80.670168 
L 468.988247 80.670168 
L 468.988247 41.887788 
L 465.511349 41.887788 
z
" style="fill:#348abd;opacity:0.2;"/>
   </g>
   <g id="patch_89">
    <path clip-path="url(#pac0e06b092)" d="M 469.857472 80.670168 
L 473.33437 80.670168 
L 473.33437 74.830757 
L 469.857472 74.830757 
z
" style="fill:#348abd;opacity:0.2;"/>
   </g>
   <g id="patch_90">
    <path clip-path="url(#pac0e06b092)" d="M 474.203595 80.670168 
L 477.680493 80.670168 
L 477.680493 34.929211 
L 474.203595 34.929211 
z
" style="fill:#348abd;opacity:0.2;"/>
   </g>
   <g id="patch_91">
    <path clip-path="url(#pac0e06b092)" d="M 478.549718 80.670168 
L 482.026616 80.670168 
L 482.026616 70.558177 
L 478.549718 70.558177 
z
" style="fill:#348abd;opacity:0.2;"/>
   </g>
   <g id="patch_92">
    <path clip-path="url(#pac0e06b092)" d="M 482.895841 80.670168 
L 486.372739 80.670168 
L 486.372739 54.547526 
L 482.895841 54.547526 
z
" style="fill:#348abd;opacity:0.2;"/>
   </g>
   <g id="patch_93">
    <path clip-path="url(#pac0e06b092)" d="M 487.241963 80.670168 
L 490.718862 80.670168 
L 490.718862 52.947777 
L 487.241963 52.947777 
z
" style="fill:#348abd;opacity:0.2;"/>
   </g>
   <g id="patch_94">
    <path clip-path="url(#pac0e06b092)" d="M 491.588086 80.670168 
L 495.064984 80.670168 
L 495.064984 50.156446 
L 491.588086 50.156446 
z
" style="fill:#348abd;opacity:0.2;"/>
   </g>
   <g id="patch_95">
    <path clip-path="url(#pac0e06b092)" d="M 495.934209 80.670168 
L 499.411107 80.670168 
L 499.411107 146.727273 
L 495.934209 146.727273 
z
" style="fill:#348abd;opacity:0.2;"/>
   </g>
   <g id="patch_96">
    <path clip-path="url(#pac0e06b092)" d="M 500.280332 80.670168 
L 503.75723 80.670168 
L 503.75723 61.479769 
L 500.280332 61.479769 
z
" style="fill:#348abd;opacity:0.2;"/>
   </g>
   <g id="patch_97">
    <path clip-path="url(#pac0e06b092)" d="M 504.626455 80.670168 
L 508.103353 80.670168 
L 508.103353 69.287595 
L 504.626455 69.287595 
z
" style="fill:#348abd;opacity:0.2;"/>
   </g>
   <g id="patch_98">
    <path clip-path="url(#pac0e06b092)" d="M 508.972577 80.670168 
L 512.449476 80.670168 
L 512.449476 68.616096 
L 508.972577 68.616096 
z
" style="fill:#348abd;opacity:0.2;"/>
   </g>
   <g id="patch_99">
    <path clip-path="url(#pac0e06b092)" d="M 513.3187 80.670168 
L 516.795599 80.670168 
L 516.795599 72.059176 
L 513.3187 72.059176 
z
" style="fill:#348abd;opacity:0.2;"/>
   </g>
   <g id="patch_100">
    <path clip-path="url(#pac0e06b092)" d="M 517.664823 80.670168 
L 521.141721 80.670168 
L 521.141721 66.555514 
L 517.664823 66.555514 
z
" style="fill:#348abd;opacity:0.2;"/>
   </g>
   <g id="patch_101">
    <path clip-path="url(#pac0e06b092)" d="M 522.010946 80.670168 
L 525.487844 80.670168 
L 525.487844 77.260004 
L 522.010946 77.260004 
z
" style="fill:#348abd;opacity:0.2;"/>
   </g>
   <g id="patch_102">
    <path clip-path="url(#pac0e06b092)" d="M 526.357069 80.670168 
L 529.833967 80.670168 
L 529.833967 68.945262 
L 526.357069 68.945262 
z
" style="fill:#348abd;opacity:0.2;"/>
   </g>
   <g id="patch_103">
    <path clip-path="url(#pac0e06b092)" d="M 530.703192 80.670168 
L 534.18009 80.670168 
L 534.18009 71.677343 
L 530.703192 71.677343 
z
" style="fill:#348abd;opacity:0.2;"/>
   </g>
   <g id="patch_104">
    <path clip-path="url(#pac0e06b092)" d="M 535.049314 80.670168 
L 538.526213 80.670168 
L 538.526213 74.850507 
L 535.049314 74.850507 
z
" style="fill:#348abd;opacity:0.2;"/>
   </g>
   <g id="patch_105">
    <path clip-path="url(#pac0e06b092)" d="M 539.395437 80.670168 
L 542.872336 80.670168 
L 542.872336 77.082255 
L 539.395437 77.082255 
z
" style="fill:#348abd;opacity:0.2;"/>
   </g>
   <g id="patch_106">
    <path clip-path="url(#pac0e06b092)" d="M 543.74156 80.670168 
L 547.218458 80.670168 
L 547.218458 71.993343 
L 543.74156 71.993343 
z
" style="fill:#348abd;opacity:0.2;"/>
   </g>
   <g id="patch_107">
    <path clip-path="url(#pac0e06b092)" d="M 548.087683 80.670168 
L 551.564581 80.670168 
L 551.564581 74.113174 
L 548.087683 74.113174 
z
" style="fill:#348abd;opacity:0.2;"/>
   </g>
   <g id="patch_108">
    <path clip-path="url(#pac0e06b092)" d="M 552.433806 80.670168 
L 555.910704 80.670168 
L 555.910704 73.283675 
L 552.433806 73.283675 
z
" style="fill:#348abd;opacity:0.2;"/>
   </g>
   <g id="patch_109">
    <path clip-path="url(#pac0e06b092)" d="M 556.779929 80.670168 
L 560.256827 80.670168 
L 560.256827 71.387677 
L 556.779929 71.387677 
z
" style="fill:#348abd;opacity:0.2;"/>
   </g>
   <g id="patch_110">
    <path clip-path="url(#pac0e06b092)" d="M 561.126051 80.670168 
L 564.60295 80.670168 
L 564.60295 75.923589 
L 561.126051 75.923589 
z
" style="fill:#348abd;opacity:0.2;"/>
   </g>
   <g id="patch_111">
    <path clip-path="url(#pac0e06b092)" d="M 565.472174 80.670168 
L 568.949072 80.670168 
L 568.949072 75.587839 
L 565.472174 75.587839 
z
" style="fill:#348abd;opacity:0.2;"/>
   </g>
   <g id="patch_112">
    <path clip-path="url(#pac0e06b092)" d="M 569.818297 80.670168 
L 573.295195 80.670168 
L 573.295195 60.35402 
L 569.818297 60.35402 
z
" style="fill:#348abd;opacity:0.2;"/>
   </g>
   <g id="patch_113">
    <path clip-path="url(#pac0e06b092)" d="M 574.16442 80.670168 
L 577.641318 80.670168 
L 577.641318 76.759672 
L 574.16442 76.759672 
z
" style="fill:#348abd;opacity:0.2;"/>
   </g>
   <g id="patch_114">
    <path clip-path="url(#pac0e06b092)" d="M 578.510543 80.670168 
L 581.987441 80.670168 
L 581.987441 76.318589 
L 578.510543 76.318589 
z
" style="fill:#348abd;opacity:0.2;"/>
   </g>
   <g id="patch_115">
    <path clip-path="url(#pac0e06b092)" d="M 582.856666 80.670168 
L 586.333564 80.670168 
L 586.333564 75.080923 
L 582.856666 75.080923 
z
" style="fill:#348abd;opacity:0.2;"/>
   </g>
   <g id="patch_116">
    <path clip-path="url(#pac0e06b092)" d="M 587.202788 80.670168 
L 590.679687 80.670168 
L 590.679687 76.437089 
L 587.202788 76.437089 
z
" style="fill:#348abd;opacity:0.2;"/>
   </g>
   <g id="patch_117">
    <path clip-path="url(#pac0e06b092)" d="M 591.548911 80.670168 
L 595.025809 80.670168 
L 595.025809 77.279754 
L 591.548911 77.279754 
z
" style="fill:#348abd;opacity:0.2;"/>
   </g>
   <g id="patch_118">
    <path clip-path="url(#pac0e06b092)" d="M 595.895034 80.670168 
L 599.371932 80.670168 
L 599.371932 80.670168 
L 595.895034 80.670168 
z
" style="fill:#348abd;opacity:0.2;"/>
   </g>
   <g id="patch_119">
    <path clip-path="url(#pac0e06b092)" d="M 600.241157 80.670168 
L 603.718055 80.670168 
L 603.718055 74.692507 
L 600.241157 74.692507 
z
" style="fill:#348abd;opacity:0.2;"/>
   </g>
   <g id="patch_120">
    <path clip-path="url(#pac0e06b092)" d="M 604.58728 80.670168 
L 608.064178 80.670168 
L 608.064178 77.832754 
L 604.58728 77.832754 
z
" style="fill:#348abd;opacity:0.2;"/>
   </g>
   <g id="patch_121">
    <path clip-path="url(#pac0e06b092)" d="M 608.933402 80.670168 
L 612.410301 80.670168 
L 612.410301 77.260004 
L 608.933402 77.260004 
z
" style="fill:#348abd;opacity:0.2;"/>
   </g>
   <g id="patch_122">
    <path clip-path="url(#pac0e06b092)" d="M 613.279525 80.670168 
L 616.756424 80.670168 
L 616.756424 77.497004 
L 613.279525 77.497004 
z
" style="fill:#348abd;opacity:0.2;"/>
   </g>
   <g id="patch_123">
    <path clip-path="url(#pac0e06b092)" d="M 617.625648 80.670168 
L 621.102546 80.670168 
L 621.102546 68.905762 
L 617.625648 68.905762 
z
" style="fill:#348abd;opacity:0.2;"/>
   </g>
   <g id="patch_124">
    <path clip-path="url(#pac0e06b092)" d="M 621.971771 80.670168 
L 625.448669 80.670168 
L 625.448669 77.602337 
L 621.971771 77.602337 
z
" style="fill:#348abd;opacity:0.2;"/>
   </g>
   <g id="patch_125">
    <path clip-path="url(#pac0e06b092)" d="M 626.317894 80.670168 
L 629.794792 80.670168 
L 629.794792 77.497004 
L 626.317894 77.497004 
z
" style="fill:#348abd;opacity:0.2;"/>
   </g>
   <g id="patch_126">
    <path clip-path="url(#pac0e06b092)" d="M 630.664017 80.670168 
L 634.140915 80.670168 
L 634.140915 83.119166 
L 630.664017 83.119166 
z
" style="fill:#348abd;opacity:0.2;"/>
   </g>
   <g id="patch_127">
    <path clip-path="url(#pac0e06b092)" d="M 635.010139 80.670168 
L 638.487038 80.670168 
L 638.487038 75.01509 
L 635.010139 75.01509 
z
" style="fill:#348abd;opacity:0.2;"/>
   </g>
   <g id="patch_128">
    <path clip-path="url(#pac0e06b092)" d="M 639.356262 80.670168 
L 642.833161 80.670168 
L 642.833161 80.670168 
L 639.356262 80.670168 
z
" style="fill:#348abd;opacity:0.2;"/>
   </g>
   <g id="patch_129">
    <path clip-path="url(#pac0e06b092)" d="M 643.702385 80.670168 
L 647.179283 80.670168 
L 647.179283 69.827428 
L 643.702385 69.827428 
z
" style="fill:#348abd;opacity:0.2;"/>
   </g>
   <g id="patch_130">
    <path clip-path="url(#pac0e06b092)" d="M 648.048508 80.670168 
L 651.525406 80.670168 
L 651.525406 76.338339 
L 648.048508 76.338339 
z
" style="fill:#348abd;opacity:0.2;"/>
   </g>
   <g id="patch_131">
    <path clip-path="url(#pac0e06b092)" d="M 652.394631 80.670168 
L 655.871529 80.670168 
L 655.871529 76.298839 
L 652.394631 76.298839 
z
" style="fill:#348abd;opacity:0.2;"/>
   </g>
   <g id="patch_132">
    <path clip-path="url(#pac0e06b092)" d="M 656.740754 80.670168 
L 660.217652 80.670168 
L 660.217652 79.017753 
L 656.740754 79.017753 
z
" style="fill:#348abd;opacity:0.2;"/>
   </g>
   <g id="patch_133">
    <path clip-path="url(#pac0e06b092)" d="M 661.086876 80.670168 
L 664.563775 80.670168 
L 664.563775 79.623419 
L 661.086876 79.623419 
z
" style="fill:#348abd;opacity:0.2;"/>
   </g>
   <g id="patch_134">
    <path clip-path="url(#pac0e06b092)" d="M 665.432999 80.670168 
L 668.909897 80.670168 
L 668.909897 78.73467 
L 665.432999 78.73467 
z
" style="fill:#348abd;opacity:0.2;"/>
   </g>
   <g id="patch_135">
    <path clip-path="url(#pac0e06b092)" d="M 669.779122 80.670168 
L 673.25602 80.670168 
L 673.25602 78.076337 
L 669.779122 78.076337 
z
" style="fill:#348abd;opacity:0.2;"/>
   </g>
   <g id="patch_136">
    <path clip-path="url(#pac0e06b092)" d="M 674.125245 80.670168 
L 677.602143 80.670168 
L 677.602143 78.471337 
L 674.125245 78.471337 
z
" style="fill:#348abd;opacity:0.2;"/>
   </g>
   <g id="patch_137">
    <path clip-path="url(#pac0e06b092)" d="M 678.471368 80.670168 
L 681.948266 80.670168 
L 681.948266 78.57667 
L 678.471368 78.57667 
z
" style="fill:#348abd;opacity:0.2;"/>
   </g>
   <g id="patch_138">
    <path clip-path="url(#pac0e06b092)" d="M 682.81749 80.670168 
L 686.294389 80.670168 
L 686.294389 78.484503 
L 682.81749 78.484503 
z
" style="fill:#348abd;opacity:0.2;"/>
   </g>
   <g id="patch_139">
    <path clip-path="url(#pac0e06b092)" d="M 687.163613 80.670168 
L 690.640512 80.670168 
L 690.640512 79.090169 
L 687.163613 79.090169 
z
" style="fill:#348abd;opacity:0.2;"/>
   </g>
   <g id="patch_140">
    <path clip-path="url(#pac0e06b092)" d="M 691.509736 80.670168 
L 694.986634 80.670168 
L 694.986634 79.570752 
L 691.509736 79.570752 
z
" style="fill:#348abd;opacity:0.2;"/>
   </g>
   <g id="patch_141">
    <path clip-path="url(#pac0e06b092)" d="M 695.855859 80.670168 
L 699.332757 80.670168 
L 699.332757 79.030919 
L 695.855859 79.030919 
z
" style="fill:#348abd;opacity:0.2;"/>
   </g>
   <g id="patch_142">
    <path clip-path="url(#pac0e06b092)" d="M 700.201982 80.670168 
L 703.67888 80.670168 
L 703.67888 78.603003 
L 700.201982 78.603003 
z
" style="fill:#348abd;opacity:0.2;"/>
   </g>
   <g id="patch_143">
    <path clip-path="url(#pac0e06b092)" d="M 704.548105 80.670168 
L 708.025003 80.670168 
L 708.025003 77.859087 
L 704.548105 77.859087 
z
" style="fill:#348abd;opacity:0.2;"/>
   </g>
   <g id="patch_144">
    <path clip-path="url(#pac0e06b092)" d="M 708.894227 80.670168 
L 712.371126 80.670168 
L 712.371126 77.365338 
L 708.894227 77.365338 
z
" style="fill:#348abd;opacity:0.2;"/>
   </g>
   <g id="patch_145">
    <path clip-path="url(#pac0e06b092)" d="M 713.24035 80.670168 
L 716.717249 80.670168 
L 716.717249 78.06317 
L 713.24035 78.06317 
z
" style="fill:#348abd;opacity:0.2;"/>
   </g>
   <g id="patch_146">
    <path clip-path="url(#pac0e06b092)" d="M 717.586473 80.670168 
L 721.063371 80.670168 
L 721.063371 78.543753 
L 717.586473 78.543753 
z
" style="fill:#348abd;opacity:0.2;"/>
   </g>
   <g id="patch_147">
    <path clip-path="url(#pac0e06b092)" d="M 721.932596 80.670168 
L 725.409494 80.670168 
L 725.409494 79.478586 
L 721.932596 79.478586 
z
" style="fill:#348abd;opacity:0.2;"/>
   </g>
   <g id="patch_148">
    <path clip-path="url(#pac0e06b092)" d="M 726.278719 80.670168 
L 729.755617 80.670168 
L 729.755617 79.228419 
L 726.278719 79.228419 
z
" style="fill:#348abd;opacity:0.2;"/>
   </g>
   <g id="patch_149">
    <path clip-path="url(#pac0e06b092)" d="M 730.624842 80.670168 
L 734.10174 80.670168 
L 734.10174 78.333087 
L 730.624842 78.333087 
z
" style="fill:#348abd;opacity:0.2;"/>
   </g>
   <g id="patch_150">
    <path clip-path="url(#pac0e06b092)" d="M 734.970964 80.670168 
L 738.447863 80.670168 
L 738.447863 76.818922 
L 734.970964 76.818922 
z
" style="fill:#348abd;opacity:0.2;"/>
   </g>
   <g id="patch_151">
    <path clip-path="url(#pac0e06b092)" d="M 739.317087 80.670168 
L 742.793985 80.670168 
L 742.793985 78.649086 
L 739.317087 78.649086 
z
" style="fill:#348abd;opacity:0.2;"/>
   </g>
   <g id="patch_152">
    <path clip-path="url(#pac0e06b092)" d="M 743.66321 80.670168 
L 747.140108 80.670168 
L 747.140108 78.28042 
L 743.66321 78.28042 
z
" style="fill:#348abd;opacity:0.2;"/>
   </g>
   <g id="patch_153">
    <path clip-path="url(#pac0e06b092)" d="M 748.009333 80.670168 
L 751.486231 80.670168 
L 751.486231 78.471337 
L 748.009333 78.471337 
z
" style="fill:#348abd;opacity:0.2;"/>
   </g>
   <g id="patch_154">
    <path clip-path="url(#pac0e06b092)" d="M 752.355456 80.670168 
L 755.832354 80.670168 
L 755.832354 79.142836 
L 752.355456 79.142836 
z
" style="fill:#348abd;opacity:0.2;"/>
   </g>
   <g id="patch_155">
    <path clip-path="url(#pac0e06b092)" d="M 756.701579 80.670168 
L 760.178477 80.670168 
L 760.178477 79.037503 
L 756.701579 79.037503 
z
" style="fill:#348abd;opacity:0.2;"/>
   </g>
   <g id="patch_156">
    <path clip-path="url(#pac0e06b092)" d="M 761.047701 80.670168 
L 764.5246 80.670168 
L 764.5246 78.471337 
L 761.047701 78.471337 
z
" style="fill:#348abd;opacity:0.2;"/>
   </g>
   <g id="patch_157">
    <path clip-path="url(#pac0e06b092)" d="M 765.393824 80.670168 
L 768.870722 80.670168 
L 768.870722 78.036837 
L 765.393824 78.036837 
z
" style="fill:#348abd;opacity:0.2;"/>
   </g>
   <g id="patch_158">
    <path clip-path="url(#pac0e06b092)" d="M 769.739947 80.670168 
L 773.216845 80.670168 
L 773.216845 77.911754 
L 769.739947 77.911754 
z
" style="fill:#348abd;opacity:0.2;"/>
   </g>
   <g id="patch_159">
    <path clip-path="url(#pac0e06b092)" d="M 774.08607 80.670168 
L 777.562968 80.670168 
L 777.562968 76.957171 
L 774.08607 76.957171 
z
" style="fill:#348abd;opacity:0.2;"/>
   </g>
   <g id="patch_160">
    <path clip-path="url(#pac0e06b092)" d="M 778.432193 80.670168 
L 781.909091 80.670168 
L 781.909091 78.688586 
L 778.432193 78.688586 
z
" style="fill:#348abd;opacity:0.2;"/>
   </g>
   <g id="line2d_28">
    <path clip-path="url(#pac0e06b092)" d="M 97.829358 80.670168 
L 254.28978 80.572146 
L 271.674271 80.362386 
L 280.366517 80.069008 
L 289.058763 79.478105 
L 293.404885 78.914391 
L 297.751008 78.133994 
L 302.097131 77.128419 
L 310.789377 74.522803 
L 315.135499 73.120109 
L 323.827745 69.965811 
L 332.519991 66.178654 
L 336.866114 63.977905 
L 341.212236 61.450037 
L 345.558359 58.411338 
L 349.904482 54.563424 
L 354.250605 50.276055 
L 358.596728 45.726388 
L 362.942851 41.395456 
L 367.288973 37.62488 
L 371.635096 34.491136 
L 375.981219 32.145326 
L 380.327342 30.525039 
L 384.673465 29.738037 
L 389.019588 29.647917 
L 393.36571 30.049393 
L 397.711833 31.016353 
L 402.057956 32.277895 
L 406.404079 33.97971 
L 410.750202 36.038887 
L 423.78857 42.733162 
L 432.480816 46.748491 
L 436.826939 48.60087 
L 441.173061 50.04818 
L 445.519184 50.948735 
L 449.865307 51.505648 
L 467.249798 51.661824 
L 471.595921 51.950481 
L 475.942044 53.652953 
L 480.288167 56.733057 
L 484.63429 60.921689 
L 488.980412 65.411251 
L 493.326535 69.055385 
L 497.672658 71.786843 
L 502.018781 73.660592 
L 506.364904 74.756764 
L 510.711027 74.874595 
L 515.057149 73.913964 
L 519.403272 72.817326 
L 523.749395 72.026788 
L 528.095518 71.778938 
L 532.441641 72.463311 
L 536.787764 72.939465 
L 545.480009 73.529739 
L 549.826132 73.545678 
L 558.518378 73.135419 
L 562.864501 72.863984 
L 567.210623 72.830866 
L 571.556746 72.997151 
L 575.902869 73.451928 
L 584.595115 74.754764 
L 588.941237 75.586118 
L 593.28736 76.274571 
L 597.633483 76.715478 
L 601.979606 76.87613 
L 615.017974 76.492352 
L 654.13308 77.091518 
L 658.479203 77.285657 
L 675.863694 78.60615 
L 684.55594 78.748885 
L 697.594308 78.650122 
L 714.978799 78.422301 
L 732.363291 78.41911 
L 758.440028 78.434825 
L 771.478396 78.220823 
L 780.170642 78.056071 
L 780.170642 78.056071 
" style="fill:none;stroke:#348abd;stroke-linecap:square;stroke-width:3;"/>
   </g>
   <g id="line2d_29">
    <defs>
     <path d="M 0 3 
C 0.795609 3 1.55874 2.683901 2.12132 2.12132 
C 2.683901 1.55874 3 0.795609 3 0 
C 3 -0.795609 2.683901 -1.55874 2.12132 -2.12132 
C 1.55874 -2.683901 0.795609 -3 0 -3 
C -0.795609 -3 -1.55874 -2.683901 -2.12132 -2.12132 
C -2.683901 -1.55874 -3 -0.795609 -3 0 
C -3 0.795609 -2.683901 1.55874 -2.12132 2.12132 
C -1.55874 2.683901 -0.795609 3 0 3 
z
" id="mf863de41d0" style="stroke:#e24a33;stroke-opacity:0.001;"/>
    </defs>
    <g clip-path="url(#pac0e06b092)">
     <use style="fill:#e24a33;fill-opacity:0.001;stroke:#e24a33;stroke-opacity:0.001;" x="439" xlink:href="#mf863de41d0" y="82"/>
    </g>
   </g>
   <g id="patch_161">
    <path d="M 61.8 153.2 
L 61.8 10.8 
" style="fill:none;stroke:#ffffff;stroke-linecap:square;stroke-linejoin:miter;"/>
   </g>
   <g id="patch_162">
    <path d="M 816.2 153.2 
L 816.2 10.8 
" style="fill:none;stroke:#ffffff;stroke-linecap:square;stroke-linejoin:miter;"/>
   </g>
   <g id="patch_163">
    <path d="M 61.8 153.2 
L 816.2 153.2 
" style="fill:none;stroke:#ffffff;stroke-linecap:square;stroke-linejoin:miter;"/>
   </g>
   <g id="patch_164">
    <path d="M 61.8 10.8 
L 816.2 10.8 
" style="fill:none;stroke:#ffffff;stroke-linecap:square;stroke-linejoin:miter;"/>
   </g>
   <g id="legend_1">
    <g id="patch_165">
     <path d="M 627.2 60.210938 
L 809.2 60.210938 
Q 811.2 60.210938 811.2 58.210938 
L 811.2 17.8 
Q 811.2 15.8 809.2 15.8 
L 627.2 15.8 
Q 625.2 15.8 625.2 17.8 
L 625.2 58.210938 
Q 625.2 60.210938 627.2 60.210938 
z
" style="fill:#e5e5e5;opacity:0.8;stroke:#cccccc;stroke-linejoin:miter;stroke-width:0.5;"/>
    </g>
    <g id="patch_166">
     <path d="M 629.2 26.8 
L 649.2 26.8 
L 649.2 19.8 
L 629.2 19.8 
z
" style="fill:#348abd;opacity:0.2;"/>
    </g>
    <g id="text_18">
     <!-- Spain new cases -->
     <defs>
      <path d="M 24.703125 -1 
Q 12.59375 -1 5.203125 6.90625 
L 8.796875 13.203125 
L 9.203125 14.09375 
L 9.90625 13.703125 
Q 10.09375 13 10.390625 12.140625 
Q 10.703125 11.296875 11.796875 10.09375 
Q 14.40625 7.90625 17.84375 6.59375 
Q 21.296875 5.296875 25.703125 5.296875 
Q 31.296875 5.296875 34.9375 8.4375 
Q 38.59375 11.59375 38.59375 16 
Q 38.59375 18.90625 37.4375 20.90625 
Q 36.296875 22.90625 33.25 24.796875 
Q 30.203125 26.703125 24.296875 29.203125 
Q 14.59375 33 10.890625 37.703125 
Q 7.203125 42.40625 7.203125 47.703125 
Q 7.203125 54.59375 12.296875 58.84375 
Q 17.40625 63.09375 26.203125 63.09375 
Q 31.296875 63.09375 35.796875 61.046875 
Q 40.296875 59 43.5 55.296875 
L 39 49.296875 
L 38.40625 49.703125 
Q 38.296875 50.5 38 51.296875 
Q 37.703125 52.09375 36.59375 53.296875 
Q 34.203125 55.59375 31.5 56.4375 
Q 28.796875 57.296875 25.09375 57.296875 
Q 20.203125 57.296875 17.296875 54.59375 
Q 14.40625 51.90625 14.40625 48.203125 
Q 14.40625 45.40625 15.65625 43.25 
Q 16.90625 41.09375 20.203125 39 
Q 23.5 36.90625 29.796875 34.40625 
Q 35.90625 31.90625 39.296875 29.34375 
Q 42.703125 26.796875 44.09375 23.84375 
Q 45.5 20.90625 45.5 17 
Q 45.5 12.703125 43.34375 8.546875 
Q 41.203125 4.40625 36.59375 1.703125 
Q 32 -1 24.703125 -1 
z
" id="Inconsolata-Regular-83"/>
      <path d="M 6 -16.703125 
L 6 45.703125 
L 13.296875 45.703125 
L 13.296875 36.703125 
Q 14.90625 41.90625 18.65625 44.296875 
Q 22.40625 46.703125 27.203125 46.703125 
Q 32.296875 46.703125 36.640625 44.140625 
Q 41 41.59375 43.640625 36.390625 
Q 46.296875 31.203125 46.296875 23.203125 
Q 46.296875 15.203125 43.5 9.75 
Q 40.703125 4.296875 36.296875 1.546875 
Q 31.90625 -1.203125 27 -1.203125 
Q 22.90625 -1.203125 19.296875 0.6875 
Q 15.703125 2.59375 13.40625 6 
L 13.40625 -16.703125 
z
M 25.796875 5.203125 
Q 29 5.203125 32 6.75 
Q 35 8.296875 36.890625 12.1875 
Q 38.796875 16.09375 38.796875 22.90625 
Q 38.796875 31.09375 35.6875 35.640625 
Q 32.59375 40.203125 26.90625 40.5 
Q 23.203125 40.703125 20.09375 38.84375 
Q 17 37 15.140625 32.703125 
Q 13.296875 28.40625 13.296875 21.296875 
Q 13.5 13.203125 16.890625 9.203125 
Q 20.296875 5.203125 25.796875 5.203125 
z
" id="Inconsolata-Regular-112"/>
      <path d="M 10.796875 -0.09375 
L 1.59375 45.703125 
L 7.90625 45.703125 
L 15.296875 9 
L 23.09375 41.40625 
L 27.5 41.40625 
L 37.203125 9.09375 
Q 38.5 18 39.34375 23.703125 
Q 40.203125 29.40625 40.640625 33.046875 
Q 41.09375 36.703125 41.25 39.203125 
Q 41.40625 41.703125 41.40625 44.203125 
L 41.40625 45.703125 
L 48.09375 45.703125 
Q 45.09375 22.5 40.5 -0.09375 
L 33.703125 -0.09375 
L 25.296875 29.5 
L 17.296875 -0.09375 
z
" id="Inconsolata-Regular-119"/>
      <path d="M 25.09375 -1 
Q 13.5 -1 5.703125 6.203125 
L 9.703125 13 
L 10.296875 13.90625 
L 10.90625 13.5 
Q 11.09375 12.703125 11.34375 11.84375 
Q 11.59375 11 12.703125 9.796875 
Q 14.796875 7.703125 17.75 6.34375 
Q 20.703125 5 25.296875 5 
Q 30.796875 5 33.84375 6.953125 
Q 36.90625 8.90625 36.90625 12.296875 
Q 36.90625 15.203125 34.34375 17.09375 
Q 31.796875 19 25.40625 21.09375 
Q 17.5 23.40625 12.84375 26.796875 
Q 8.203125 30.203125 8.203125 35.296875 
Q 8.203125 40.5 12.453125 43.640625 
Q 16.703125 46.796875 25 46.796875 
Q 31.40625 46.796875 35.59375 45 
Q 39.796875 43.203125 43.203125 39.59375 
L 39.09375 34.59375 
L 38.40625 33.796875 
L 37.90625 34.296875 
Q 37.796875 35.09375 37.4375 35.84375 
Q 37.09375 36.59375 36 37.703125 
Q 33.703125 39.5 30.796875 40.453125 
Q 27.90625 41.40625 25.203125 41.40625 
Q 21.203125 41.40625 18.296875 40 
Q 15.40625 38.59375 15.40625 35.703125 
Q 15.40625 34.203125 16.453125 32.75 
Q 17.5 31.296875 20.296875 29.84375 
Q 23.09375 28.40625 28.296875 26.90625 
Q 36.90625 24.296875 40.453125 21.25 
Q 44 18.203125 44 13.296875 
Q 44 9.5 41.953125 6.203125 
Q 39.90625 2.90625 35.703125 0.953125 
Q 31.5 -1 25.09375 -1 
z
" id="Inconsolata-Regular-115"/>
     </defs>
     <g transform="translate(657.2 26.8)scale(0.1 -0.1)">
      <use xlink:href="#Inconsolata-Regular-83"/>
      <use x="49.999985" xlink:href="#Inconsolata-Regular-112"/>
      <use x="99.999969" xlink:href="#Inconsolata-Regular-97"/>
      <use x="149.999954" xlink:href="#Inconsolata-Regular-105"/>
      <use x="199.999939" xlink:href="#Inconsolata-Regular-110"/>
      <use x="249.999924" xlink:href="#Inconsolata-Regular-32"/>
      <use x="299.999908" xlink:href="#Inconsolata-Regular-110"/>
      <use x="349.999893" xlink:href="#Inconsolata-Regular-101"/>
      <use x="399.999878" xlink:href="#Inconsolata-Regular-119"/>
      <use x="449.999863" xlink:href="#Inconsolata-Regular-32"/>
      <use x="499.999847" xlink:href="#Inconsolata-Regular-99"/>
      <use x="549.999832" xlink:href="#Inconsolata-Regular-97"/>
      <use x="599.999817" xlink:href="#Inconsolata-Regular-115"/>
      <use x="649.999802" xlink:href="#Inconsolata-Regular-101"/>
      <use x="699.999786" xlink:href="#Inconsolata-Regular-115"/>
     </g>
    </g>
    <g id="line2d_30">
     <path d="M 629.2 37.320312 
L 649.2 37.320312 
" style="fill:none;stroke:#348abd;stroke-linecap:square;stroke-width:3;"/>
    </g>
    <g id="line2d_31"/>
    <g id="text_19">
     <!-- Spain new cases (rolling mean) -->
     <defs>
      <path d="M 39.5 -10.40625 
Q 31.203125 -6.5 25.046875 0.046875 
Q 18.90625 6.59375 15.546875 14.84375 
Q 12.203125 23.09375 12.203125 32 
Q 12.203125 40.90625 15.5 48.953125 
Q 18.796875 57 24.796875 63.34375 
Q 30.796875 69.703125 38.90625 73.5 
L 40.796875 67.296875 
Q 34.40625 63.796875 29.546875 58.296875 
Q 24.703125 52.796875 22 46 
Q 19.296875 39.203125 19.296875 31.703125 
Q 19.296875 24.203125 22 17.296875 
Q 24.703125 10.40625 29.703125 4.796875 
Q 34.703125 -0.796875 41.40625 -4.40625 
z
" id="Inconsolata-Regular-40"/>
      <path d="M 11.90625 45.703125 
L 19.40625 45.703125 
L 19.203125 37.296875 
Q 21.09375 41.90625 25.09375 44.34375 
Q 29.09375 46.796875 33.703125 46.796875 
Q 41 46.796875 45.796875 41.796875 
L 42.59375 36.203125 
L 42.203125 35.296875 
L 41.5 35.703125 
Q 41.296875 36.5 40.890625 37.203125 
Q 40.5 37.90625 39.203125 38.90625 
Q 37.59375 39.90625 36.25 40.25 
Q 34.90625 40.59375 33.203125 40.59375 
Q 29.90625 40.59375 26.65625 38.890625 
Q 23.40625 37.203125 21.296875 33.59375 
Q 19.203125 30 19.203125 24.203125 
L 19.203125 -0.09375 
L 11.90625 -0.09375 
z
" id="Inconsolata-Regular-114"/>
      <path d="M 25 -0.796875 
Q 18.796875 -0.796875 14.046875 2.25 
Q 9.296875 5.296875 6.59375 10.640625 
Q 3.90625 16 3.90625 22.90625 
Q 3.90625 29.90625 6.59375 35.25 
Q 9.296875 40.59375 14.046875 43.640625 
Q 18.796875 46.703125 25 46.703125 
Q 31.203125 46.703125 35.953125 43.640625 
Q 40.703125 40.59375 43.390625 35.25 
Q 46.09375 29.90625 46.09375 22.90625 
Q 46.09375 16 43.390625 10.640625 
Q 40.703125 5.296875 35.953125 2.25 
Q 31.203125 -0.796875 25 -0.796875 
z
M 25 5.203125 
Q 29 5.203125 32 7.5 
Q 35 9.796875 36.75 13.796875 
Q 38.5 17.796875 38.5 23 
Q 38.5 30.796875 34.703125 35.75 
Q 30.90625 40.703125 25 40.703125 
Q 19.09375 40.703125 15.296875 35.75 
Q 11.5 30.796875 11.5 23 
Q 11.5 17.796875 13.25 13.796875 
Q 15 9.796875 18.046875 7.5 
Q 21.09375 5.203125 25 5.203125 
z
" id="Inconsolata-Regular-111"/>
      <path d="M 3.796875 0 
L 3.796875 45.703125 
L 10.40625 45.703125 
L 10.40625 41.203125 
Q 12 43.703125 14.5 45.25 
Q 17 46.796875 19.703125 46.796875 
Q 22.703125 46.796875 24.953125 44.890625 
Q 27.203125 43 27.796875 40.09375 
Q 29.09375 43.09375 31.890625 44.9375 
Q 34.703125 46.796875 38.09375 46.796875 
Q 42.796875 46.796875 44.9375 43.4375 
Q 47.09375 40.09375 46.90625 35.09375 
L 46.90625 0 
L 40.296875 0 
L 40.296875 32.40625 
Q 40.296875 36.59375 39.75 38.5 
Q 39.203125 40.40625 38.203125 40.953125 
Q 37.203125 41.5 36 41.5 
Q 34.09375 41.5 32.4375 39.75 
Q 30.796875 38 29.75 35.390625 
Q 28.703125 32.796875 28.703125 30.203125 
L 28.703125 0 
L 22 0 
L 22 31.796875 
Q 22 37.5 20.953125 39.390625 
Q 19.90625 41.296875 17 41.296875 
Q 14.796875 41.296875 12.59375 38.4375 
Q 10.40625 35.59375 10.40625 30.5 
L 10.40625 0 
z
" id="Inconsolata-Regular-109"/>
      <path d="M 13.25 -10.40625 
Q 21.546875 -6.5 27.6875 0.046875 
Q 33.84375 6.59375 37.1875 14.84375 
Q 40.546875 23.09375 40.546875 32 
Q 40.546875 40.90625 37.25 48.953125 
Q 33.953125 57 27.953125 63.34375 
Q 21.953125 69.703125 13.84375 73.5 
L 11.953125 67.296875 
Q 18.34375 63.796875 23.1875 58.296875 
Q 28.046875 52.796875 30.75 46 
Q 33.453125 39.203125 33.453125 31.703125 
Q 33.453125 24.203125 30.75 17.296875 
Q 28.046875 10.40625 23.046875 4.796875 
Q 18.046875 -0.796875 11.34375 -4.40625 
z
" id="Inconsolata-Regular-41"/>
     </defs>
     <g transform="translate(657.2 40.820312)scale(0.1 -0.1)">
      <use xlink:href="#Inconsolata-Regular-83"/>
      <use x="49.999985" xlink:href="#Inconsolata-Regular-112"/>
      <use x="99.999969" xlink:href="#Inconsolata-Regular-97"/>
      <use x="149.999954" xlink:href="#Inconsolata-Regular-105"/>
      <use x="199.999939" xlink:href="#Inconsolata-Regular-110"/>
      <use x="249.999924" xlink:href="#Inconsolata-Regular-32"/>
      <use x="299.999908" xlink:href="#Inconsolata-Regular-110"/>
      <use x="349.999893" xlink:href="#Inconsolata-Regular-101"/>
      <use x="399.999878" xlink:href="#Inconsolata-Regular-119"/>
      <use x="449.999863" xlink:href="#Inconsolata-Regular-32"/>
      <use x="499.999847" xlink:href="#Inconsolata-Regular-99"/>
      <use x="549.999832" xlink:href="#Inconsolata-Regular-97"/>
      <use x="599.999817" xlink:href="#Inconsolata-Regular-115"/>
      <use x="649.999802" xlink:href="#Inconsolata-Regular-101"/>
      <use x="699.999786" xlink:href="#Inconsolata-Regular-115"/>
      <use x="749.999771" xlink:href="#Inconsolata-Regular-32"/>
      <use x="799.999756" xlink:href="#Inconsolata-Regular-40"/>
      <use x="849.999741" xlink:href="#Inconsolata-Regular-114"/>
      <use x="899.999725" xlink:href="#Inconsolata-Regular-111"/>
      <use x="949.99971" xlink:href="#Inconsolata-Regular-108"/>
      <use x="999.999695" xlink:href="#Inconsolata-Regular-108"/>
      <use x="1049.99968" xlink:href="#Inconsolata-Regular-105"/>
      <use x="1099.999664" xlink:href="#Inconsolata-Regular-110"/>
      <use x="1149.999649" xlink:href="#Inconsolata-Regular-103"/>
      <use x="1199.999634" xlink:href="#Inconsolata-Regular-32"/>
      <use x="1249.999619" xlink:href="#Inconsolata-Regular-109"/>
      <use x="1299.999603" xlink:href="#Inconsolata-Regular-101"/>
      <use x="1349.999588" xlink:href="#Inconsolata-Regular-97"/>
      <use x="1399.999573" xlink:href="#Inconsolata-Regular-110"/>
      <use x="1449.999557" xlink:href="#Inconsolata-Regular-41"/>
     </g>
    </g>
    <g id="line2d_32"/>
    <g id="line2d_33">
     <g>
      <use style="fill:#e24a33;fill-opacity:0.001;stroke:#e24a33;stroke-opacity:0.001;" x="639.2" xlink:href="#mf863de41d0" y="51.040625"/>
     </g>
    </g>
    <g id="text_20">
     <!-- [last updated: 29/06/2020] -->
     <defs>
      <path d="M 13.09375 -8.90625 
L 13.09375 67 
L 41.703125 67 
L 41.703125 61 
L 19.5 61 
L 19.5 -3.203125 
L 41.796875 -3.203125 
L 41.796875 -8.90625 
z
" id="Inconsolata-Regular-91"/>
      <path d="M 29.90625 -0.703125 
Q 24 -0.703125 20.953125 2 
Q 17.90625 4.703125 16.90625 10.34375 
Q 15.90625 16 16.203125 24.796875 
L 16.796875 39.796875 
L 7 39.796875 
L 7 45.703125 
L 17 45.703125 
L 17.40625 57.40625 
L 24.90625 58.296875 
L 25.90625 58.40625 
L 26 57.703125 
Q 25.5 57 25.140625 56.296875 
Q 24.796875 55.59375 24.59375 53.90625 
L 23.90625 45.703125 
L 39.90625 45.703125 
L 39.90625 39.796875 
L 24 39.796875 
L 23.296875 24.296875 
Q 23 16.703125 23.703125 12.546875 
Q 24.40625 8.40625 26.203125 6.84375 
Q 28 5.296875 31 5.296875 
Q 34.296875 5.296875 36.84375 6.59375 
Q 39.40625 7.90625 42.203125 9.90625 
L 44.40625 4.203125 
Q 41 1.703125 37.390625 0.5 
Q 33.796875 -0.703125 29.90625 -0.703125 
z
" id="Inconsolata-Regular-116"/>
      <path d="M 22.09375 -1.09375 
Q 15.296875 -1.09375 10.796875 4 
Q 6.296875 9.09375 6.40625 20.203125 
L 6.5 45.703125 
L 13.5 45.703125 
L 13.5 20.203125 
Q 13.5 11.5 16.546875 8.09375 
Q 19.59375 4.703125 23.90625 4.703125 
Q 27.09375 4.703125 29.890625 6.390625 
Q 32.703125 8.09375 34.453125 11.59375 
Q 36.203125 15.09375 36.203125 20.5 
L 36.203125 45.703125 
L 43.203125 45.703125 
L 43.203125 7.09375 
Q 43.203125 5.296875 43.34375 3.546875 
Q 43.5 1.796875 44.203125 0 
L 37.296875 0 
Q 36.59375 1.703125 36.4375 3.5 
Q 36.296875 5.296875 36.296875 7 
Q 34.09375 3.203125 30.34375 1.046875 
Q 26.59375 -1.09375 22.09375 -1.09375 
z
" id="Inconsolata-Regular-117"/>
      <path d="M 23.796875 30.796875 
Q 21.5 30.796875 19.703125 32.5 
Q 17.90625 34.203125 17.90625 36.5 
Q 17.90625 38.90625 19.703125 40.59375 
Q 21.5 42.296875 23.796875 42.296875 
Q 26.09375 42.296875 27.9375 40.59375 
Q 29.796875 38.90625 29.796875 36.5 
Q 29.796875 34.203125 28 32.5 
Q 26.203125 30.796875 23.796875 30.796875 
z
M 23.796875 -1.09375 
Q 21.296875 -1.09375 19.59375 0.546875 
Q 17.90625 2.203125 17.90625 4.59375 
Q 17.90625 7 19.703125 8.703125 
Q 21.5 10.40625 23.796875 10.40625 
Q 26.09375 10.40625 27.9375 8.703125 
Q 29.796875 7 29.796875 4.59375 
Q 29.796875 2.296875 28.046875 0.59375 
Q 26.296875 -1.09375 23.796875 -1.09375 
z
" id="Inconsolata-Regular-58"/>
      <path d="M 22.796875 -1 
Q 13.796875 -1 7.90625 4.703125 
L 12.203125 9.59375 
L 12.90625 10.40625 
L 13.40625 9.90625 
Q 13.5 9.09375 13.890625 8.4375 
Q 14.296875 7.796875 15.5 6.703125 
Q 18.203125 5 22.203125 5 
Q 27 5 30.140625 8.296875 
Q 33.296875 11.59375 35 16.84375 
Q 36.703125 22.09375 37.09375 28.09375 
Q 34.703125 26 31.796875 24.796875 
Q 28.90625 23.59375 24.90625 23.59375 
Q 19.796875 23.59375 15.6875 26 
Q 11.59375 28.40625 9.1875 32.65625 
Q 6.796875 36.90625 6.796875 42.40625 
Q 6.796875 48.296875 9.1875 52.84375 
Q 11.59375 57.40625 15.6875 60.046875 
Q 19.796875 62.703125 24.703125 62.703125 
Q 30.59375 62.703125 34.890625 59.296875 
Q 39.203125 55.90625 41.546875 49.953125 
Q 43.90625 44 43.90625 36.296875 
Q 43.90625 17.5 38.296875 8.34375 
Q 32.703125 -0.796875 22.796875 -1 
z
M 13.59375 42.5 
Q 13.59375 36.59375 17 33.140625 
Q 20.40625 29.703125 25 29.703125 
Q 29.203125 29.703125 32 30.890625 
Q 34.796875 32.09375 37.203125 34.90625 
Q 36.5 56.59375 25 56.59375 
Q 19.90625 56.59375 16.75 52.84375 
Q 13.59375 49.09375 13.59375 42.5 
z
" id="Inconsolata-Regular-57"/>
      <path d="M 12.296875 -4.203125 
L 6.40625 -1.296875 
L 37.703125 66.5 
L 43.703125 63.40625 
z
" id="Inconsolata-Regular-47"/>
      <path d="M 41.78125 -8.90625 
L 41.78125 67 
L 13.171875 67 
L 13.171875 61 
L 35.375 61 
L 35.375 -3.203125 
L 13.078125 -3.203125 
L 13.078125 -8.90625 
z
" id="Inconsolata-Regular-93"/>
     </defs>
     <g transform="translate(657.2 54.540625)scale(0.1 -0.1)">
      <use xlink:href="#Inconsolata-Regular-91"/>
      <use x="49.999985" xlink:href="#Inconsolata-Regular-108"/>
      <use x="99.999969" xlink:href="#Inconsolata-Regular-97"/>
      <use x="149.999954" xlink:href="#Inconsolata-Regular-115"/>
      <use x="199.999939" xlink:href="#Inconsolata-Regular-116"/>
      <use x="249.999924" xlink:href="#Inconsolata-Regular-32"/>
      <use x="299.999908" xlink:href="#Inconsolata-Regular-117"/>
      <use x="349.999893" xlink:href="#Inconsolata-Regular-112"/>
      <use x="399.999878" xlink:href="#Inconsolata-Regular-100"/>
      <use x="449.999863" xlink:href="#Inconsolata-Regular-97"/>
      <use x="499.999847" xlink:href="#Inconsolata-Regular-116"/>
      <use x="549.999832" xlink:href="#Inconsolata-Regular-101"/>
      <use x="599.999817" xlink:href="#Inconsolata-Regular-100"/>
      <use x="649.999802" xlink:href="#Inconsolata-Regular-58"/>
      <use x="699.999786" xlink:href="#Inconsolata-Regular-32"/>
      <use x="749.999771" xlink:href="#Inconsolata-Regular-50"/>
      <use x="799.999756" xlink:href="#Inconsolata-Regular-57"/>
      <use x="849.999741" xlink:href="#Inconsolata-Regular-47"/>
      <use x="899.999725" xlink:href="#Inconsolata-Regular-48"/>
      <use x="949.99971" xlink:href="#Inconsolata-Regular-54"/>
      <use x="999.999695" xlink:href="#Inconsolata-Regular-47"/>
      <use x="1049.99968" xlink:href="#Inconsolata-Regular-50"/>
      <use x="1099.999664" xlink:href="#Inconsolata-Regular-48"/>
      <use x="1149.999649" xlink:href="#Inconsolata-Regular-50"/>
      <use x="1199.999634" xlink:href="#Inconsolata-Regular-48"/>
      <use x="1249.999619" xlink:href="#Inconsolata-Regular-93"/>
     </g>
    </g>
   </g>
  </g>
 </g>
 <defs>
  <clipPath id="pac0e06b092">
   <rect height="142.4" width="754.4" x="61.8" y="10.8"/>
  </clipPath>
 </defs>
</svg>
