<?xml version="1.0" encoding="utf-8" standalone="no"?>
<!DOCTYPE svg PUBLIC "-//W3C//DTD SVG 1.1//EN"
  "http://www.w3.org/Graphics/SVG/1.1/DTD/svg11.dtd">
<!-- Created with matplotlib (https://matplotlib.org/) -->
<svg height="180pt" version="1.1" viewBox="0 0 864 180" width="864pt" xmlns="http://www.w3.org/2000/svg" xmlns:xlink="http://www.w3.org/1999/xlink">
 <defs>
  <style type="text/css">
*{stroke-linecap:butt;stroke-linejoin:round;}
  </style>
 </defs>
 <g id="figure_1">
  <g id="patch_1">
   <path d="M 0 180 
L 864 180 
L 864 0 
L 0 0 
z
" style="fill:#ffffff;"/>
  </g>
  <g id="axes_1">
   <g id="patch_2">
    <path d="M 56.8 153.2 
L 821.2 153.2 
L 821.2 10.8 
L 56.8 10.8 
z
" style="fill:#e5e5e5;"/>
   </g>
   <g id="matplotlib.axis_1">
    <g id="xtick_1">
     <g id="line2d_1">
      <path clip-path="url(#p910522e912)" d="M 131.669198 153.2 
L 131.669198 10.8 
" style="fill:none;stroke:#ffffff;stroke-linecap:square;stroke-width:0.8;"/>
     </g>
     <g id="line2d_2">
      <defs>
       <path d="M 0 0 
L 0 3.5 
" id="m222365adfb" style="stroke:#555555;stroke-width:0.8;"/>
      </defs>
      <g>
       <use style="fill:#555555;stroke:#555555;stroke-width:0.8;" x="131.669198" xlink:href="#m222365adfb" y="153.2"/>
      </g>
     </g>
     <g id="text_1">
      <!-- 2020-02 -->
      <defs>
       <path d="M 7.296875 5.59375 
Q 14 12.5 19.390625 17.84375 
Q 24.796875 23.203125 28.59375 27.640625 
Q 32.40625 32.09375 34.40625 36.296875 
Q 36.40625 40.5 36.40625 45.09375 
Q 36.40625 51.59375 33.296875 54.09375 
Q 30.203125 56.59375 25.796875 56.59375 
Q 22.203125 56.59375 19.046875 55.046875 
Q 15.90625 53.5 13.296875 50.296875 
Q 12.40625 48.90625 12.203125 48.15625 
Q 12 47.40625 12.09375 46.59375 
L 11.703125 46.09375 
L 10.90625 46.59375 
L 5.796875 50.59375 
Q 8.796875 56.40625 14.046875 59.546875 
Q 19.296875 62.703125 25.703125 62.703125 
Q 33.59375 62.703125 38.59375 57.953125 
Q 43.59375 53.203125 43.59375 44.90625 
Q 43.59375 39.703125 41.296875 35 
Q 39 30.296875 35.140625 25.6875 
Q 31.296875 21.09375 26.390625 16.296875 
Q 21.5 11.5 16.296875 6.09375 
L 39.5 6.09375 
Q 41.203125 6.09375 41.890625 6.296875 
Q 42.59375 6.5 43.203125 7.09375 
L 43.90625 7.09375 
L 43.90625 0 
L 7.296875 0 
z
" id="Inconsolata-Regular-50"/>
       <path d="M 25 -1.09375 
Q 15.703125 -1.09375 10.703125 7.203125 
Q 5.703125 15.5 5.703125 30.796875 
Q 5.703125 45.59375 10.703125 54.140625 
Q 15.703125 62.703125 25 62.703125 
Q 34.296875 62.703125 39.296875 54.140625 
Q 44.296875 45.59375 44.296875 30.796875 
Q 44.296875 15.5 39.296875 7.203125 
Q 34.296875 -1.09375 25 -1.09375 
z
M 12.90625 30.796875 
Q 12.90625 24.40625 13.796875 19.40625 
L 35 46.703125 
Q 33.5 51.40625 30.953125 54 
Q 28.40625 56.59375 25 56.59375 
Q 19.296875 56.59375 16.09375 49.59375 
Q 12.90625 42.59375 12.90625 30.796875 
z
M 25 5 
Q 30.703125 5 33.890625 11.703125 
Q 37.09375 18.40625 37.09375 30.796875 
Q 37.09375 36.296875 36.40625 40.796875 
L 15.203125 13.90625 
Q 18.296875 5 25 5 
z
" id="Inconsolata-Regular-48"/>
       <path d="M 11.09375 28.09375 
L 11.09375 34.796875 
L 39.09375 34.796875 
L 39.09375 28.09375 
z
" id="Inconsolata-Regular-45"/>
      </defs>
      <g style="fill:#555555;" transform="translate(114.169198 166.85)scale(0.1 -0.1)">
       <use xlink:href="#Inconsolata-Regular-50"/>
       <use x="49.999985" xlink:href="#Inconsolata-Regular-48"/>
       <use x="99.999969" xlink:href="#Inconsolata-Regular-50"/>
       <use x="149.999954" xlink:href="#Inconsolata-Regular-48"/>
       <use x="199.999939" xlink:href="#Inconsolata-Regular-45"/>
       <use x="249.999924" xlink:href="#Inconsolata-Regular-48"/>
       <use x="299.999908" xlink:href="#Inconsolata-Regular-50"/>
      </g>
     </g>
    </g>
    <g id="xtick_2">
     <g id="line2d_3">
      <path clip-path="url(#p910522e912)" d="M 255.455216 153.2 
L 255.455216 10.8 
" style="fill:none;stroke:#ffffff;stroke-linecap:square;stroke-width:0.8;"/>
     </g>
     <g id="line2d_4">
      <g>
       <use style="fill:#555555;stroke:#555555;stroke-width:0.8;" x="255.455216" xlink:href="#m222365adfb" y="153.2"/>
      </g>
     </g>
     <g id="text_2">
      <!-- 2020-03 -->
      <defs>
       <path d="M 24 -1.09375 
Q 19.09375 -1.09375 14.59375 0.703125 
Q 10.09375 2.5 6.90625 6 
L 11.5 11.5 
L 12.203125 12.296875 
L 12.703125 11.796875 
Q 12.796875 11 13.09375 10.25 
Q 13.40625 9.5 14.5 8.296875 
Q 16.203125 6.796875 18.390625 5.84375 
Q 20.59375 4.90625 23.703125 4.90625 
Q 29.703125 4.90625 32.59375 8.40625 
Q 35.5 11.90625 35.5 17.40625 
Q 35.5 24.5 30.75 27.453125 
Q 26 30.40625 18 29.59375 
L 18 35.203125 
Q 24.5 35.203125 27.796875 36.890625 
Q 31.09375 38.59375 32.25 41.4375 
Q 33.40625 44.296875 33.40625 47.5 
Q 33.40625 51.796875 30.953125 54.25 
Q 28.5 56.703125 24.5 56.703125 
Q 21.5 56.703125 18.640625 55.703125 
Q 15.796875 54.703125 13.09375 52.09375 
L 8.90625 56.296875 
Q 12.296875 59.796875 16.34375 61.25 
Q 20.40625 62.703125 24.40625 62.703125 
Q 32 62.703125 36.296875 58.390625 
Q 40.59375 54.09375 40.59375 47.203125 
Q 40.59375 42.296875 38.1875 38.4375 
Q 35.796875 34.59375 30.796875 33 
Q 36.09375 31.296875 39.390625 27.390625 
Q 42.703125 23.5 42.703125 17.09375 
Q 42.703125 12.203125 40.546875 8.046875 
Q 38.40625 3.90625 34.25 1.40625 
Q 30.09375 -1.09375 24 -1.09375 
z
" id="Inconsolata-Regular-51"/>
      </defs>
      <g style="fill:#555555;" transform="translate(237.955216 166.85)scale(0.1 -0.1)">
       <use xlink:href="#Inconsolata-Regular-50"/>
       <use x="49.999985" xlink:href="#Inconsolata-Regular-48"/>
       <use x="99.999969" xlink:href="#Inconsolata-Regular-50"/>
       <use x="149.999954" xlink:href="#Inconsolata-Regular-48"/>
       <use x="199.999939" xlink:href="#Inconsolata-Regular-45"/>
       <use x="249.999924" xlink:href="#Inconsolata-Regular-48"/>
       <use x="299.999908" xlink:href="#Inconsolata-Regular-51"/>
      </g>
     </g>
    </g>
    <g id="xtick_3">
     <g id="line2d_5">
      <path clip-path="url(#p910522e912)" d="M 387.7782 153.2 
L 387.7782 10.8 
" style="fill:none;stroke:#ffffff;stroke-linecap:square;stroke-width:0.8;"/>
     </g>
     <g id="line2d_6">
      <g>
       <use style="fill:#555555;stroke:#555555;stroke-width:0.8;" x="387.7782" xlink:href="#m222365adfb" y="153.2"/>
      </g>
     </g>
     <g id="text_3">
      <!-- 2020-04 -->
      <defs>
       <path d="M 31.796875 0 
L 31.796875 15.296875 
L 4.796875 15.296875 
L 4.796875 20.40625 
L 33.296875 62.40625 
L 39.203125 62.40625 
L 39.203125 21.09375 
L 47.203125 21.09375 
L 47.203125 15.203125 
L 39.203125 15.203125 
L 39.203125 0 
z
M 12.90625 21.203125 
L 31.796875 21.203125 
L 31.796875 49.796875 
z
" id="Inconsolata-Regular-52"/>
      </defs>
      <g style="fill:#555555;" transform="translate(370.2782 166.85)scale(0.1 -0.1)">
       <use xlink:href="#Inconsolata-Regular-50"/>
       <use x="49.999985" xlink:href="#Inconsolata-Regular-48"/>
       <use x="99.999969" xlink:href="#Inconsolata-Regular-50"/>
       <use x="149.999954" xlink:href="#Inconsolata-Regular-48"/>
       <use x="199.999939" xlink:href="#Inconsolata-Regular-45"/>
       <use x="249.999924" xlink:href="#Inconsolata-Regular-48"/>
       <use x="299.999908" xlink:href="#Inconsolata-Regular-52"/>
      </g>
     </g>
    </g>
    <g id="xtick_4">
     <g id="line2d_7">
      <path clip-path="url(#p910522e912)" d="M 515.8327 153.2 
L 515.8327 10.8 
" style="fill:none;stroke:#ffffff;stroke-linecap:square;stroke-width:0.8;"/>
     </g>
     <g id="line2d_8">
      <g>
       <use style="fill:#555555;stroke:#555555;stroke-width:0.8;" x="515.8327" xlink:href="#m222365adfb" y="153.2"/>
      </g>
     </g>
     <g id="text_4">
      <!-- 2020-05 -->
      <defs>
       <path d="M 24.90625 -1.09375 
Q 19.203125 -1.09375 14.34375 1.40625 
Q 9.5 3.90625 6.40625 8.5 
L 12.796875 13.296875 
L 13.203125 12.796875 
Q 13.09375 12 13.4375 11.296875 
Q 13.796875 10.59375 14.796875 9.296875 
Q 16.796875 7.09375 19.25 6.046875 
Q 21.703125 5 25.296875 5 
Q 28.5 5 31.25 6.796875 
Q 34 8.59375 35.703125 11.9375 
Q 37.40625 15.296875 37.40625 19.90625 
Q 37.40625 26.90625 33.65625 30.796875 
Q 29.90625 34.703125 24.59375 34.703125 
Q 21.40625 34.703125 18.296875 33.140625 
Q 15.203125 31.59375 12.90625 28.796875 
L 8.5 30.59375 
L 10.59375 62.296875 
L 42.203125 62.296875 
L 42.203125 56 
L 16.5 56 
L 15.5 38.09375 
Q 20.5 40.5 25.703125 40.5 
Q 31.09375 40.5 35.34375 37.953125 
Q 39.59375 35.40625 42.046875 30.703125 
Q 44.5 26 44.5 19.59375 
Q 44.5 13.203125 41.890625 8.546875 
Q 39.296875 3.90625 34.890625 1.40625 
Q 30.5 -1.09375 24.90625 -1.09375 
z
" id="Inconsolata-Regular-53"/>
      </defs>
      <g style="fill:#555555;" transform="translate(498.3327 166.85)scale(0.1 -0.1)">
       <use xlink:href="#Inconsolata-Regular-50"/>
       <use x="49.999985" xlink:href="#Inconsolata-Regular-48"/>
       <use x="99.999969" xlink:href="#Inconsolata-Regular-50"/>
       <use x="149.999954" xlink:href="#Inconsolata-Regular-48"/>
       <use x="199.999939" xlink:href="#Inconsolata-Regular-45"/>
       <use x="249.999924" xlink:href="#Inconsolata-Regular-48"/>
       <use x="299.999908" xlink:href="#Inconsolata-Regular-53"/>
      </g>
     </g>
    </g>
    <g id="xtick_5">
     <g id="line2d_9">
      <path clip-path="url(#p910522e912)" d="M 648.155685 153.2 
L 648.155685 10.8 
" style="fill:none;stroke:#ffffff;stroke-linecap:square;stroke-width:0.8;"/>
     </g>
     <g id="line2d_10">
      <g>
       <use style="fill:#555555;stroke:#555555;stroke-width:0.8;" x="648.155685" xlink:href="#m222365adfb" y="153.2"/>
      </g>
     </g>
     <g id="text_5">
      <!-- 2020-06 -->
      <defs>
       <path d="M 26.09375 -1 
Q 16.796875 -1 11.75 6.890625 
Q 6.703125 14.796875 6.703125 28.40625 
Q 6.703125 45.203125 12.703125 54.09375 
Q 18.703125 63 28.703125 63 
Q 36.59375 63 42.40625 57.296875 
L 38 52.296875 
L 37.296875 51.5 
L 36.796875 52 
Q 36.703125 52.796875 36.34375 53.5 
Q 36 54.203125 34.703125 55.296875 
Q 32.5 56.796875 28.90625 56.796875 
Q 26.90625 56.796875 24.296875 55.84375 
Q 21.703125 54.90625 19.296875 52.296875 
Q 16.90625 49.703125 15.296875 44.953125 
Q 13.703125 40.203125 13.59375 32.703125 
Q 15.703125 36.203125 19.25 38.203125 
Q 22.796875 40.203125 26.796875 40.203125 
Q 31.5 40.203125 35.34375 37.640625 
Q 39.203125 35.09375 41.546875 30.546875 
Q 43.90625 26 43.90625 19.796875 
Q 43.90625 13.59375 41.5 8.890625 
Q 39.09375 4.203125 35.09375 1.59375 
Q 31.09375 -1 26.09375 -1 
z
M 26.40625 5.203125 
Q 30.703125 5.203125 33.890625 8.890625 
Q 37.09375 12.59375 37.09375 19.703125 
Q 37.09375 24.703125 35.4375 27.890625 
Q 33.796875 31.09375 31.296875 32.59375 
Q 28.796875 34.09375 26.203125 34.09375 
Q 22.59375 34.09375 19.296875 31.640625 
Q 16 29.203125 14 25.703125 
Q 13.59375 22.296875 14.25 18.6875 
Q 14.90625 15.09375 16.546875 12.046875 
Q 18.203125 9 20.703125 7.09375 
Q 23.203125 5.203125 26.40625 5.203125 
z
" id="Inconsolata-Regular-54"/>
      </defs>
      <g style="fill:#555555;" transform="translate(630.655685 166.85)scale(0.1 -0.1)">
       <use xlink:href="#Inconsolata-Regular-50"/>
       <use x="49.999985" xlink:href="#Inconsolata-Regular-48"/>
       <use x="99.999969" xlink:href="#Inconsolata-Regular-50"/>
       <use x="149.999954" xlink:href="#Inconsolata-Regular-48"/>
       <use x="199.999939" xlink:href="#Inconsolata-Regular-45"/>
       <use x="249.999924" xlink:href="#Inconsolata-Regular-48"/>
       <use x="299.999908" xlink:href="#Inconsolata-Regular-54"/>
      </g>
     </g>
    </g>
    <g id="xtick_6">
     <g id="line2d_11">
      <path clip-path="url(#p910522e912)" d="M 776.210185 153.2 
L 776.210185 10.8 
" style="fill:none;stroke:#ffffff;stroke-linecap:square;stroke-width:0.8;"/>
     </g>
     <g id="line2d_12">
      <g>
       <use style="fill:#555555;stroke:#555555;stroke-width:0.8;" x="776.210185" xlink:href="#m222365adfb" y="153.2"/>
      </g>
     </g>
     <g id="text_6">
      <!-- 2020-07 -->
      <defs>
       <path d="M 15.5 0 
Q 19.90625 14.296875 24.59375 28.09375 
Q 29.296875 41.90625 34.5 55.703125 
L 7.90625 55.703125 
L 7.90625 62.296875 
L 43.203125 62.296875 
L 43.203125 58.40625 
Q 37.5 44 32.5 29.5 
Q 27.5 15 23.40625 0 
z
" id="Inconsolata-Regular-55"/>
      </defs>
      <g style="fill:#555555;" transform="translate(758.710185 166.85)scale(0.1 -0.1)">
       <use xlink:href="#Inconsolata-Regular-50"/>
       <use x="49.999985" xlink:href="#Inconsolata-Regular-48"/>
       <use x="99.999969" xlink:href="#Inconsolata-Regular-50"/>
       <use x="149.999954" xlink:href="#Inconsolata-Regular-48"/>
       <use x="199.999939" xlink:href="#Inconsolata-Regular-45"/>
       <use x="249.999924" xlink:href="#Inconsolata-Regular-48"/>
       <use x="299.999908" xlink:href="#Inconsolata-Regular-55"/>
      </g>
     </g>
    </g>
   </g>
   <g id="matplotlib.axis_2">
    <g id="ytick_1">
     <g id="line2d_13">
      <path clip-path="url(#p910522e912)" d="M 56.8 153.2 
L 821.2 153.2 
" style="fill:none;stroke:#ffffff;stroke-linecap:square;stroke-width:0.8;"/>
     </g>
     <g id="line2d_14">
      <defs>
       <path d="M 0 0 
L -3.5 0 
" id="mf83926b5e7" style="stroke:#555555;stroke-width:0.8;"/>
      </defs>
      <g>
       <use style="fill:#555555;stroke:#555555;stroke-width:0.8;" x="56.8" xlink:href="#mf83926b5e7" y="153.2"/>
      </g>
     </g>
     <g id="line2d_15">
      <defs>
       <path d="M 0 0 
L 3.5 0 
" id="mcbaaaf7473" style="stroke:#555555;stroke-width:0.8;"/>
      </defs>
      <g>
       <use style="fill:#555555;stroke:#555555;stroke-width:0.8;" x="821.2" xlink:href="#mcbaaaf7473" y="153.2"/>
      </g>
     </g>
     <g id="text_7">
      <!-- 0 -->
      <g style="fill:#555555;" transform="translate(44.8 156.525)scale(0.1 -0.1)">
       <use xlink:href="#Inconsolata-Regular-48"/>
      </g>
     </g>
     <g id="text_8">
      <!-- 0 -->
      <g style="fill:#555555;" transform="translate(828.2 156.525)scale(0.1 -0.1)">
       <use xlink:href="#Inconsolata-Regular-48"/>
      </g>
     </g>
    </g>
    <g id="ytick_2">
     <g id="line2d_16">
      <path clip-path="url(#p910522e912)" d="M 56.8 128.297951 
L 821.2 128.297951 
" style="fill:none;stroke:#ffffff;stroke-linecap:square;stroke-width:0.8;"/>
     </g>
     <g id="line2d_17">
      <g>
       <use style="fill:#555555;stroke:#555555;stroke-width:0.8;" x="56.8" xlink:href="#mf83926b5e7" y="128.297951"/>
      </g>
     </g>
     <g id="line2d_18">
      <g>
       <use style="fill:#555555;stroke:#555555;stroke-width:0.8;" x="821.2" xlink:href="#mcbaaaf7473" y="128.297951"/>
      </g>
     </g>
     <g id="text_9">
      <!-- 10000 -->
      <defs>
       <path d="M 23 0 
L 23 53.703125 
L 10.40625 50 
L 8.796875 53.90625 
L 25.09375 62.40625 
L 30 62.40625 
L 30 0 
z
" id="Inconsolata-Regular-49"/>
      </defs>
      <g style="fill:#555555;" transform="translate(24.8 131.622951)scale(0.1 -0.1)">
       <use xlink:href="#Inconsolata-Regular-49"/>
       <use x="49.999985" xlink:href="#Inconsolata-Regular-48"/>
       <use x="99.999969" xlink:href="#Inconsolata-Regular-48"/>
       <use x="149.999954" xlink:href="#Inconsolata-Regular-48"/>
       <use x="199.999939" xlink:href="#Inconsolata-Regular-48"/>
      </g>
     </g>
     <g id="text_10">
      <!-- 10000 -->
      <g style="fill:#555555;" transform="translate(828.2 131.622951)scale(0.1 -0.1)">
       <use xlink:href="#Inconsolata-Regular-49"/>
       <use x="49.999985" xlink:href="#Inconsolata-Regular-48"/>
       <use x="99.999969" xlink:href="#Inconsolata-Regular-48"/>
       <use x="149.999954" xlink:href="#Inconsolata-Regular-48"/>
       <use x="199.999939" xlink:href="#Inconsolata-Regular-48"/>
      </g>
     </g>
    </g>
    <g id="ytick_3">
     <g id="line2d_19">
      <path clip-path="url(#p910522e912)" d="M 56.8 103.395903 
L 821.2 103.395903 
" style="fill:none;stroke:#ffffff;stroke-linecap:square;stroke-width:0.8;"/>
     </g>
     <g id="line2d_20">
      <g>
       <use style="fill:#555555;stroke:#555555;stroke-width:0.8;" x="56.8" xlink:href="#mf83926b5e7" y="103.395903"/>
      </g>
     </g>
     <g id="line2d_21">
      <g>
       <use style="fill:#555555;stroke:#555555;stroke-width:0.8;" x="821.2" xlink:href="#mcbaaaf7473" y="103.395903"/>
      </g>
     </g>
     <g id="text_11">
      <!-- 20000 -->
      <g style="fill:#555555;" transform="translate(24.8 106.720903)scale(0.1 -0.1)">
       <use xlink:href="#Inconsolata-Regular-50"/>
       <use x="49.999985" xlink:href="#Inconsolata-Regular-48"/>
       <use x="99.999969" xlink:href="#Inconsolata-Regular-48"/>
       <use x="149.999954" xlink:href="#Inconsolata-Regular-48"/>
       <use x="199.999939" xlink:href="#Inconsolata-Regular-48"/>
      </g>
     </g>
     <g id="text_12">
      <!-- 20000 -->
      <g style="fill:#555555;" transform="translate(828.2 106.720903)scale(0.1 -0.1)">
       <use xlink:href="#Inconsolata-Regular-50"/>
       <use x="49.999985" xlink:href="#Inconsolata-Regular-48"/>
       <use x="99.999969" xlink:href="#Inconsolata-Regular-48"/>
       <use x="149.999954" xlink:href="#Inconsolata-Regular-48"/>
       <use x="199.999939" xlink:href="#Inconsolata-Regular-48"/>
      </g>
     </g>
    </g>
    <g id="ytick_4">
     <g id="line2d_22">
      <path clip-path="url(#p910522e912)" d="M 56.8 78.493854 
L 821.2 78.493854 
" style="fill:none;stroke:#ffffff;stroke-linecap:square;stroke-width:0.8;"/>
     </g>
     <g id="line2d_23">
      <g>
       <use style="fill:#555555;stroke:#555555;stroke-width:0.8;" x="56.8" xlink:href="#mf83926b5e7" y="78.493854"/>
      </g>
     </g>
     <g id="line2d_24">
      <g>
       <use style="fill:#555555;stroke:#555555;stroke-width:0.8;" x="821.2" xlink:href="#mcbaaaf7473" y="78.493854"/>
      </g>
     </g>
     <g id="text_13">
      <!-- 30000 -->
      <g style="fill:#555555;" transform="translate(24.8 81.818854)scale(0.1 -0.1)">
       <use xlink:href="#Inconsolata-Regular-51"/>
       <use x="49.999985" xlink:href="#Inconsolata-Regular-48"/>
       <use x="99.999969" xlink:href="#Inconsolata-Regular-48"/>
       <use x="149.999954" xlink:href="#Inconsolata-Regular-48"/>
       <use x="199.999939" xlink:href="#Inconsolata-Regular-48"/>
      </g>
     </g>
     <g id="text_14">
      <!-- 30000 -->
      <g style="fill:#555555;" transform="translate(828.2 81.818854)scale(0.1 -0.1)">
       <use xlink:href="#Inconsolata-Regular-51"/>
       <use x="49.999985" xlink:href="#Inconsolata-Regular-48"/>
       <use x="99.999969" xlink:href="#Inconsolata-Regular-48"/>
       <use x="149.999954" xlink:href="#Inconsolata-Regular-48"/>
       <use x="199.999939" xlink:href="#Inconsolata-Regular-48"/>
      </g>
     </g>
    </g>
    <g id="ytick_5">
     <g id="line2d_25">
      <path clip-path="url(#p910522e912)" d="M 56.8 53.591805 
L 821.2 53.591805 
" style="fill:none;stroke:#ffffff;stroke-linecap:square;stroke-width:0.8;"/>
     </g>
     <g id="line2d_26">
      <g>
       <use style="fill:#555555;stroke:#555555;stroke-width:0.8;" x="56.8" xlink:href="#mf83926b5e7" y="53.591805"/>
      </g>
     </g>
     <g id="line2d_27">
      <g>
       <use style="fill:#555555;stroke:#555555;stroke-width:0.8;" x="821.2" xlink:href="#mcbaaaf7473" y="53.591805"/>
      </g>
     </g>
     <g id="text_15">
      <!-- 40000 -->
      <g style="fill:#555555;" transform="translate(24.8 56.916805)scale(0.1 -0.1)">
       <use xlink:href="#Inconsolata-Regular-52"/>
       <use x="49.999985" xlink:href="#Inconsolata-Regular-48"/>
       <use x="99.999969" xlink:href="#Inconsolata-Regular-48"/>
       <use x="149.999954" xlink:href="#Inconsolata-Regular-48"/>
       <use x="199.999939" xlink:href="#Inconsolata-Regular-48"/>
      </g>
     </g>
     <g id="text_16">
      <!-- 40000 -->
      <g style="fill:#555555;" transform="translate(828.2 56.916805)scale(0.1 -0.1)">
       <use xlink:href="#Inconsolata-Regular-52"/>
       <use x="49.999985" xlink:href="#Inconsolata-Regular-48"/>
       <use x="99.999969" xlink:href="#Inconsolata-Regular-48"/>
       <use x="149.999954" xlink:href="#Inconsolata-Regular-48"/>
       <use x="199.999939" xlink:href="#Inconsolata-Regular-48"/>
      </g>
     </g>
    </g>
    <g id="ytick_6">
     <g id="line2d_28">
      <path clip-path="url(#p910522e912)" d="M 56.8 28.689756 
L 821.2 28.689756 
" style="fill:none;stroke:#ffffff;stroke-linecap:square;stroke-width:0.8;"/>
     </g>
     <g id="line2d_29">
      <g>
       <use style="fill:#555555;stroke:#555555;stroke-width:0.8;" x="56.8" xlink:href="#mf83926b5e7" y="28.689756"/>
      </g>
     </g>
     <g id="line2d_30">
      <g>
       <use style="fill:#555555;stroke:#555555;stroke-width:0.8;" x="821.2" xlink:href="#mcbaaaf7473" y="28.689756"/>
      </g>
     </g>
     <g id="text_17">
      <!-- 50000 -->
      <g style="fill:#555555;" transform="translate(24.8 32.014756)scale(0.1 -0.1)">
       <use xlink:href="#Inconsolata-Regular-53"/>
       <use x="49.999985" xlink:href="#Inconsolata-Regular-48"/>
       <use x="99.999969" xlink:href="#Inconsolata-Regular-48"/>
       <use x="149.999954" xlink:href="#Inconsolata-Regular-48"/>
       <use x="199.999939" xlink:href="#Inconsolata-Regular-48"/>
      </g>
     </g>
     <g id="text_18">
      <!-- 50000 -->
      <g style="fill:#555555;" transform="translate(828.2 32.014756)scale(0.1 -0.1)">
       <use xlink:href="#Inconsolata-Regular-53"/>
       <use x="49.999985" xlink:href="#Inconsolata-Regular-48"/>
       <use x="99.999969" xlink:href="#Inconsolata-Regular-48"/>
       <use x="149.999954" xlink:href="#Inconsolata-Regular-48"/>
       <use x="199.999939" xlink:href="#Inconsolata-Regular-48"/>
      </g>
     </g>
    </g>
    <g id="text_19">
     <!-- daily change -->
     <defs>
      <path d="M 23.40625 -1 
Q 18.796875 -1 14.4375 1.640625 
Q 10.09375 4.296875 7.296875 9.6875 
Q 4.5 15.09375 4.5 23.296875 
Q 4.5 31.703125 7.390625 36.890625 
Q 10.296875 42.09375 14.75 44.5 
Q 19.203125 46.90625 23.796875 46.90625 
Q 28.5 46.90625 31.953125 44.75 
Q 35.40625 42.59375 37.09375 39 
L 37.09375 66.5 
L 44.703125 66.5 
L 44.703125 65.796875 
Q 44.09375 65.203125 43.9375 64.5 
Q 43.796875 63.796875 43.796875 62.09375 
L 43.90625 7.09375 
Q 43.90625 5.296875 44.046875 3.546875 
Q 44.203125 1.796875 44.90625 0 
L 37.796875 0 
Q 37.09375 1.796875 36.9375 3.546875 
Q 36.796875 5.296875 36.796875 7.09375 
Q 34.59375 3.40625 31.1875 1.203125 
Q 27.796875 -1 23.40625 -1 
z
M 24.5 5.296875 
Q 28.90625 5.296875 31.546875 7.6875 
Q 34.203125 10.09375 35.34375 14.140625 
Q 36.5 18.203125 36.5 23.09375 
Q 36.5 30.796875 33.5 35.890625 
Q 30.5 41 23.90625 41 
Q 17.796875 41 14.640625 36.5 
Q 11.5 32 11.5 24.40625 
Q 11.5 15.796875 14.796875 10.546875 
Q 18.09375 5.296875 24.5 5.296875 
z
" id="Inconsolata-Regular-100"/>
      <path d="M 21.09375 -1.09375 
Q 13.296875 -1.09375 9.09375 2.453125 
Q 4.90625 6 4.90625 11.5 
Q 4.90625 16.40625 8 19.953125 
Q 11.09375 23.5 16.34375 25.453125 
Q 21.59375 27.40625 27.90625 27.40625 
Q 30.203125 27.40625 32.75 27.296875 
Q 35.296875 27.203125 38.203125 26.796875 
Q 37.59375 34.796875 34.046875 37.796875 
Q 30.5 40.796875 23.90625 40.796875 
Q 20.59375 40.796875 17.390625 39.546875 
Q 14.203125 38.296875 11.59375 35.703125 
L 8.09375 40.296875 
Q 11.296875 43.5 15.5 45.09375 
Q 19.703125 46.703125 24.40625 46.703125 
Q 30.5 46.703125 35 44.703125 
Q 39.5 42.703125 42 37.796875 
Q 44.5 32.90625 44.5 24.296875 
L 44.5 0 
L 36.703125 0 
L 36.703125 7 
Q 35 3.703125 32.34375 1.953125 
Q 29.703125 0.203125 26.75 -0.4375 
Q 23.796875 -1.09375 21.09375 -1.09375 
z
M 12.09375 11.90625 
Q 12.09375 7.59375 14.890625 6 
Q 17.703125 4.40625 21.796875 4.40625 
Q 29.203125 4.40625 33.5 8.75 
Q 37.796875 13.09375 38.203125 21.296875 
Q 33 22 28.5 22 
Q 21.296875 22 16.6875 19.59375 
Q 12.09375 17.203125 12.09375 11.90625 
z
" id="Inconsolata-Regular-97"/>
      <path d="M 10 0 
L 10 5.796875 
L 21.703125 5.796875 
L 21.703125 39.90625 
L 10.59375 39.90625 
L 10.59375 45.703125 
L 28.90625 45.703125 
L 28.90625 5.796875 
L 39.59375 5.796875 
L 39.59375 0 
z
M 24.90625 55.296875 
Q 22.796875 55.296875 21.296875 56.796875 
Q 19.796875 58.296875 19.796875 60.40625 
Q 19.796875 62.59375 21.25 64.09375 
Q 22.703125 65.59375 24.90625 65.59375 
Q 27 65.59375 28.546875 64.046875 
Q 30.09375 62.5 30.09375 60.40625 
Q 30.09375 58.296875 28.546875 56.796875 
Q 27 55.296875 24.90625 55.296875 
z
" id="Inconsolata-Regular-105"/>
      <path d="M 7.90625 0 
L 7.90625 5.796875 
L 21.40625 5.796875 
L 21.40625 60.703125 
L 8.5 60.703125 
L 8.5 66.5 
L 28.703125 66.5 
L 28.703125 5.796875 
L 42.09375 5.796875 
L 42.09375 0 
z
" id="Inconsolata-Regular-108"/>
      <path d="M 12.703125 -17.40625 
Q 6.296875 -17.40625 2.203125 -13.5 
L 5.296875 -8.59375 
L 5.90625 -7.703125 
L 6.5 -8.09375 
Q 6.703125 -8.90625 7.203125 -9.453125 
Q 7.703125 -10 9.09375 -10.90625 
Q 10.90625 -11.5 13.09375 -11.5 
Q 17 -11.5 19.203125 -8.75 
Q 21.40625 -6 23.296875 -0.296875 
L 4.59375 45.703125 
L 12.09375 45.703125 
L 26.296875 9.09375 
L 32.296875 27.5 
Q 33.796875 32.09375 35.1875 36.59375 
Q 36.59375 41.09375 37.09375 45.703125 
L 44.296875 45.703125 
Q 43.59375 41.09375 42.09375 36.390625 
Q 40.59375 31.703125 38.90625 27 
L 27.5 -5.203125 
Q 25.09375 -11.90625 21.34375 -14.65625 
Q 17.59375 -17.40625 12.703125 -17.40625 
z
" id="Inconsolata-Regular-121"/>
      <path id="Inconsolata-Regular-32"/>
      <path d="M 28.5 -1.09375 
Q 21.90625 -1.09375 16.703125 2 
Q 11.5 5.09375 8.546875 10.5 
Q 5.59375 15.90625 5.59375 22.796875 
Q 5.59375 29.703125 8.546875 35.046875 
Q 11.5 40.40625 16.640625 43.5 
Q 21.796875 46.59375 28.40625 46.59375 
Q 34 46.59375 38.453125 44.34375 
Q 42.90625 42.09375 45.703125 38.09375 
L 41.203125 33.703125 
L 40.5 33 
L 40 33.5 
Q 40 34.296875 39.640625 35 
Q 39.296875 35.703125 38.09375 36.90625 
Q 35.90625 38.90625 33.40625 39.703125 
Q 30.90625 40.5 27.59375 40.5 
Q 23.796875 40.5 20.4375 38.390625 
Q 17.09375 36.296875 15.046875 32.4375 
Q 13 28.59375 13 23.296875 
Q 13 18.203125 15.046875 14.140625 
Q 17.09375 10.09375 20.6875 7.75 
Q 24.296875 5.40625 28.90625 5.40625 
Q 35.796875 5.40625 40.796875 11 
L 45 6.09375 
Q 38.296875 -1.09375 28.5 -1.09375 
z
" id="Inconsolata-Regular-99"/>
      <path d="M 7.296875 66.5 
L 15.203125 66.5 
L 15.203125 65.796875 
Q 14.59375 65.203125 14.4375 64.5 
Q 14.296875 63.796875 14.296875 62.09375 
L 14.296875 37.59375 
Q 17 41.796875 21.046875 44.296875 
Q 25.09375 46.796875 29.296875 46.796875 
Q 35.5 46.796875 39.34375 42.4375 
Q 43.203125 38.09375 43.203125 27.703125 
L 43.203125 0 
L 36.203125 0 
L 36.203125 27.5 
Q 36.203125 34.703125 33.75 37.59375 
Q 31.296875 40.5 27.796875 40.5 
Q 24.796875 40.5 21.640625 38.796875 
Q 18.5 37.09375 16.390625 33.9375 
Q 14.296875 30.796875 14.296875 26.296875 
L 14.296875 0 
L 7.296875 0 
z
" id="Inconsolata-Regular-104"/>
      <path d="M 7.203125 0 
L 7.203125 45.703125 
L 14.203125 45.703125 
L 14.203125 37.59375 
Q 16.796875 41.796875 20.9375 44.296875 
Q 25.09375 46.796875 29.703125 46.796875 
Q 35.296875 46.796875 39.1875 42.4375 
Q 43.09375 38.09375 43.09375 27.703125 
L 43.09375 0 
L 36.09375 0 
L 36.09375 27.5 
Q 36.09375 34.703125 33.640625 37.59375 
Q 31.203125 40.5 27.703125 40.5 
Q 24.703125 40.5 21.546875 38.75 
Q 18.40625 37 16.296875 33.84375 
Q 14.203125 30.703125 14.203125 26.296875 
L 14.203125 0 
z
" id="Inconsolata-Regular-110"/>
      <path d="M 22.59375 15.5 
Q 18.703125 15.5 15.5 16.90625 
Q 13.703125 14.703125 13.703125 12.703125 
Q 13.703125 10.296875 16.703125 9.25 
Q 19.703125 8.203125 27.703125 8.203125 
Q 34.703125 8.203125 38.296875 6.703125 
Q 41.90625 5.203125 43.203125 2.59375 
Q 44.5 0 44.5 -3.40625 
Q 44.5 -6.90625 42.59375 -10.09375 
Q 40.703125 -13.296875 36.34375 -15.25 
Q 32 -17.203125 24.703125 -17.203125 
Q 15.09375 -17.203125 9.4375 -14.25 
Q 3.796875 -11.296875 3.796875 -5.40625 
Q 3.796875 -1.703125 5.890625 0.9375 
Q 8 3.59375 10.90625 4.90625 
Q 7.59375 7.09375 7.59375 11 
Q 7.59375 13.203125 8.6875 15.296875 
Q 9.796875 17.40625 11.703125 19.40625 
Q 6.59375 23.90625 6.59375 31.5 
Q 6.59375 35.90625 8.546875 39.5 
Q 10.5 43.09375 14.09375 45.25 
Q 17.703125 47.40625 22.59375 47.40625 
Q 26.296875 47.40625 29.25 46.15625 
Q 32.203125 44.90625 34.296875 42.703125 
Q 36.90625 45.09375 39.796875 46.140625 
Q 42.703125 47.203125 46.59375 46.90625 
L 47.5 41 
Q 44.5 41.296875 41.84375 40.890625 
Q 39.203125 40.5 36.90625 39 
Q 38.59375 35.59375 38.59375 31.5 
Q 38.59375 27.09375 36.640625 23.4375 
Q 34.703125 19.796875 31.140625 17.640625 
Q 27.59375 15.5 22.59375 15.5 
z
M 22.59375 21.5 
Q 27 21.5 29.796875 24.453125 
Q 32.59375 27.40625 32.59375 31.5 
Q 32.59375 35.59375 29.796875 38.546875 
Q 27 41.5 22.59375 41.5 
Q 18.296875 41.5 15.4375 38.546875 
Q 12.59375 35.59375 12.59375 31.5 
Q 12.59375 27.40625 15.4375 24.453125 
Q 18.296875 21.5 22.59375 21.5 
z
M 10.40625 -4.59375 
Q 10.40625 -8 14.25 -9.890625 
Q 18.09375 -11.796875 24.796875 -11.796875 
Q 31.59375 -11.796875 34.75 -9.75 
Q 37.90625 -7.703125 37.90625 -4.5 
Q 37.90625 -2.296875 37.09375 -0.890625 
Q 36.296875 0.5 33.796875 1.203125 
Q 31.296875 1.90625 26.203125 1.90625 
Q 22.703125 1.90625 19.84375 2.203125 
Q 17 2.5 14.703125 3.203125 
Q 12.40625 1.59375 11.40625 -0.046875 
Q 10.40625 -1.703125 10.40625 -4.59375 
z
" id="Inconsolata-Regular-103"/>
      <path d="M 27.203125 -1 
Q 17.203125 -1 11.046875 5.09375 
Q 4.90625 11.203125 4.90625 22.703125 
Q 4.90625 30.5 7.75 35.84375 
Q 10.59375 41.203125 15.34375 44 
Q 20.09375 46.796875 25.90625 46.796875 
Q 31.09375 46.796875 35.296875 44.5 
Q 39.5 42.203125 42 37.390625 
Q 44.5 32.59375 44.5 25.09375 
Q 44.5 24.296875 44.453125 23.4375 
Q 44.40625 22.59375 44.296875 21.796875 
L 11.796875 21.796875 
Q 12.203125 13 16.75 8.890625 
Q 21.296875 4.796875 27.40625 4.796875 
Q 34.59375 4.796875 39.203125 9.90625 
L 43.203125 6 
Q 37.40625 -1 27.203125 -1 
z
M 12.09375 27.40625 
L 37.203125 27.40625 
Q 37.203125 33.796875 33.953125 37.546875 
Q 30.703125 41.296875 25.40625 41.296875 
Q 20.703125 41.296875 16.890625 37.9375 
Q 13.09375 34.59375 12.09375 27.40625 
z
" id="Inconsolata-Regular-101"/>
     </defs>
     <g style="fill:#555555;" transform="translate(18.71125 118)rotate(-90)scale(0.12 -0.12)">
      <use xlink:href="#Inconsolata-Regular-100"/>
      <use x="49.999985" xlink:href="#Inconsolata-Regular-97"/>
      <use x="99.999969" xlink:href="#Inconsolata-Regular-105"/>
      <use x="149.999954" xlink:href="#Inconsolata-Regular-108"/>
      <use x="199.999939" xlink:href="#Inconsolata-Regular-121"/>
      <use x="249.999924" xlink:href="#Inconsolata-Regular-32"/>
      <use x="299.999908" xlink:href="#Inconsolata-Regular-99"/>
      <use x="349.999893" xlink:href="#Inconsolata-Regular-104"/>
      <use x="399.999878" xlink:href="#Inconsolata-Regular-97"/>
      <use x="449.999863" xlink:href="#Inconsolata-Regular-110"/>
      <use x="499.999847" xlink:href="#Inconsolata-Regular-103"/>
      <use x="549.999832" xlink:href="#Inconsolata-Regular-101"/>
     </g>
    </g>
   </g>
   <g id="patch_3">
    <path clip-path="url(#p910522e912)" d="M 91.545455 153.2 
L 94.960241 153.2 
L 94.960241 153.2 
L 91.545455 153.2 
z
" style="fill:#348abd;opacity:0.2;"/>
   </g>
   <g id="patch_4">
    <path clip-path="url(#p910522e912)" d="M 95.813938 153.2 
L 99.228725 153.2 
L 99.228725 153.19751 
L 95.813938 153.19751 
z
" style="fill:#348abd;opacity:0.2;"/>
   </g>
   <g id="patch_5">
    <path clip-path="url(#p910522e912)" d="M 100.082421 153.2 
L 103.497208 153.2 
L 103.497208 153.2 
L 100.082421 153.2 
z
" style="fill:#348abd;opacity:0.2;"/>
   </g>
   <g id="patch_6">
    <path clip-path="url(#p910522e912)" d="M 104.350905 153.2 
L 107.765691 153.2 
L 107.765691 153.192529 
L 104.350905 153.192529 
z
" style="fill:#348abd;opacity:0.2;"/>
   </g>
   <g id="patch_7">
    <path clip-path="url(#p910522e912)" d="M 108.619388 153.2 
L 112.034175 153.2 
L 112.034175 153.2 
L 108.619388 153.2 
z
" style="fill:#348abd;opacity:0.2;"/>
   </g>
   <g id="patch_8">
    <path clip-path="url(#p910522e912)" d="M 112.887871 153.2 
L 116.302658 153.2 
L 116.302658 153.2 
L 112.887871 153.2 
z
" style="fill:#348abd;opacity:0.2;"/>
   </g>
   <g id="patch_9">
    <path clip-path="url(#p910522e912)" d="M 117.156355 153.2 
L 120.571141 153.2 
L 120.571141 153.2 
L 117.156355 153.2 
z
" style="fill:#348abd;opacity:0.2;"/>
   </g>
   <g id="patch_10">
    <path clip-path="url(#p910522e912)" d="M 121.424838 153.2 
L 124.839625 153.2 
L 124.839625 153.2 
L 121.424838 153.2 
z
" style="fill:#348abd;opacity:0.2;"/>
   </g>
   <g id="patch_11">
    <path clip-path="url(#p910522e912)" d="M 125.693321 153.2 
L 129.108108 153.2 
L 129.108108 153.19502 
L 125.693321 153.19502 
z
" style="fill:#348abd;opacity:0.2;"/>
   </g>
   <g id="patch_12">
    <path clip-path="url(#p910522e912)" d="M 129.961805 153.2 
L 133.376591 153.2 
L 133.376591 153.19751 
L 129.961805 153.19751 
z
" style="fill:#348abd;opacity:0.2;"/>
   </g>
   <g id="patch_13">
    <path clip-path="url(#p910522e912)" d="M 134.230288 153.2 
L 137.645075 153.2 
L 137.645075 153.2 
L 134.230288 153.2 
z
" style="fill:#348abd;opacity:0.2;"/>
   </g>
   <g id="patch_14">
    <path clip-path="url(#p910522e912)" d="M 138.498771 153.2 
L 141.913558 153.2 
L 141.913558 153.192529 
L 138.498771 153.192529 
z
" style="fill:#348abd;opacity:0.2;"/>
   </g>
   <g id="patch_15">
    <path clip-path="url(#p910522e912)" d="M 142.767255 153.2 
L 146.182042 153.2 
L 146.182042 153.2 
L 142.767255 153.2 
z
" style="fill:#348abd;opacity:0.2;"/>
   </g>
   <g id="patch_16">
    <path clip-path="url(#p910522e912)" d="M 147.035738 153.2 
L 150.450525 153.2 
L 150.450525 153.2 
L 147.035738 153.2 
z
" style="fill:#348abd;opacity:0.2;"/>
   </g>
   <g id="patch_17">
    <path clip-path="url(#p910522e912)" d="M 151.304222 153.2 
L 154.719008 153.2 
L 154.719008 153.2 
L 151.304222 153.2 
z
" style="fill:#348abd;opacity:0.2;"/>
   </g>
   <g id="patch_18">
    <path clip-path="url(#p910522e912)" d="M 155.572705 153.2 
L 158.987492 153.2 
L 158.987492 153.2 
L 155.572705 153.2 
z
" style="fill:#348abd;opacity:0.2;"/>
   </g>
   <g id="patch_19">
    <path clip-path="url(#p910522e912)" d="M 159.841188 153.2 
L 163.255975 153.2 
L 163.255975 153.2 
L 159.841188 153.2 
z
" style="fill:#348abd;opacity:0.2;"/>
   </g>
   <g id="patch_20">
    <path clip-path="url(#p910522e912)" d="M 164.109672 153.2 
L 167.524458 153.2 
L 167.524458 153.2 
L 164.109672 153.2 
z
" style="fill:#348abd;opacity:0.2;"/>
   </g>
   <g id="patch_21">
    <path clip-path="url(#p910522e912)" d="M 168.378155 153.2 
L 171.792942 153.2 
L 171.792942 153.2 
L 168.378155 153.2 
z
" style="fill:#348abd;opacity:0.2;"/>
   </g>
   <g id="patch_22">
    <path clip-path="url(#p910522e912)" d="M 172.646638 153.2 
L 176.061425 153.2 
L 176.061425 153.19751 
L 172.646638 153.19751 
z
" style="fill:#348abd;opacity:0.2;"/>
   </g>
   <g id="patch_23">
    <path clip-path="url(#p910522e912)" d="M 176.915122 153.2 
L 180.329908 153.2 
L 180.329908 153.2 
L 176.915122 153.2 
z
" style="fill:#348abd;opacity:0.2;"/>
   </g>
   <g id="patch_24">
    <path clip-path="url(#p910522e912)" d="M 181.183605 153.2 
L 184.598392 153.2 
L 184.598392 153.19751 
L 181.183605 153.19751 
z
" style="fill:#348abd;opacity:0.2;"/>
   </g>
   <g id="patch_25">
    <path clip-path="url(#p910522e912)" d="M 185.452088 153.2 
L 188.866875 153.2 
L 188.866875 153.2 
L 185.452088 153.2 
z
" style="fill:#348abd;opacity:0.2;"/>
   </g>
   <g id="patch_26">
    <path clip-path="url(#p910522e912)" d="M 189.720572 153.2 
L 193.135358 153.2 
L 193.135358 153.2 
L 189.720572 153.2 
z
" style="fill:#348abd;opacity:0.2;"/>
   </g>
   <g id="patch_27">
    <path clip-path="url(#p910522e912)" d="M 193.989055 153.2 
L 197.403842 153.2 
L 197.403842 153.2 
L 193.989055 153.2 
z
" style="fill:#348abd;opacity:0.2;"/>
   </g>
   <g id="patch_28">
    <path clip-path="url(#p910522e912)" d="M 198.257539 153.2 
L 201.672325 153.2 
L 201.672325 153.2 
L 198.257539 153.2 
z
" style="fill:#348abd;opacity:0.2;"/>
   </g>
   <g id="patch_29">
    <path clip-path="url(#p910522e912)" d="M 202.526022 153.2 
L 205.940809 153.2 
L 205.940809 153.2 
L 202.526022 153.2 
z
" style="fill:#348abd;opacity:0.2;"/>
   </g>
   <g id="patch_30">
    <path clip-path="url(#p910522e912)" d="M 206.794505 153.2 
L 210.209292 153.2 
L 210.209292 153.2 
L 206.794505 153.2 
z
" style="fill:#348abd;opacity:0.2;"/>
   </g>
   <g id="patch_31">
    <path clip-path="url(#p910522e912)" d="M 211.062989 153.2 
L 214.477775 153.2 
L 214.477775 153.2 
L 211.062989 153.2 
z
" style="fill:#348abd;opacity:0.2;"/>
   </g>
   <g id="patch_32">
    <path clip-path="url(#p910522e912)" d="M 215.331472 153.2 
L 218.746259 153.2 
L 218.746259 153.19502 
L 215.331472 153.19502 
z
" style="fill:#348abd;opacity:0.2;"/>
   </g>
   <g id="patch_33">
    <path clip-path="url(#p910522e912)" d="M 219.599955 153.2 
L 223.014742 153.2 
L 223.014742 153.2 
L 219.599955 153.2 
z
" style="fill:#348abd;opacity:0.2;"/>
   </g>
   <g id="patch_34">
    <path clip-path="url(#p910522e912)" d="M 223.868439 153.2 
L 227.283225 153.2 
L 227.283225 153.2 
L 223.868439 153.2 
z
" style="fill:#348abd;opacity:0.2;"/>
   </g>
   <g id="patch_35">
    <path clip-path="url(#p910522e912)" d="M 228.136922 153.2 
L 231.551709 153.2 
L 231.551709 153.2 
L 228.136922 153.2 
z
" style="fill:#348abd;opacity:0.2;"/>
   </g>
   <g id="patch_36">
    <path clip-path="url(#p910522e912)" d="M 232.405405 153.2 
L 235.820192 153.2 
L 235.820192 153.2 
L 232.405405 153.2 
z
" style="fill:#348abd;opacity:0.2;"/>
   </g>
   <g id="patch_37">
    <path clip-path="url(#p910522e912)" d="M 236.673889 153.2 
L 240.088675 153.2 
L 240.088675 153.2 
L 236.673889 153.2 
z
" style="fill:#348abd;opacity:0.2;"/>
   </g>
   <g id="patch_38">
    <path clip-path="url(#p910522e912)" d="M 240.942372 153.2 
L 244.357159 153.2 
L 244.357159 153.19751 
L 240.942372 153.19751 
z
" style="fill:#348abd;opacity:0.2;"/>
   </g>
   <g id="patch_39">
    <path clip-path="url(#p910522e912)" d="M 245.210855 153.2 
L 248.625642 153.2 
L 248.625642 153.2 
L 245.210855 153.2 
z
" style="fill:#348abd;opacity:0.2;"/>
   </g>
   <g id="patch_40">
    <path clip-path="url(#p910522e912)" d="M 249.479339 153.2 
L 252.894126 153.2 
L 252.894126 153.180078 
L 249.479339 153.180078 
z
" style="fill:#348abd;opacity:0.2;"/>
   </g>
   <g id="patch_41">
    <path clip-path="url(#p910522e912)" d="M 253.747822 153.2 
L 257.162609 153.2 
L 257.162609 153.185059 
L 253.747822 153.185059 
z
" style="fill:#348abd;opacity:0.2;"/>
   </g>
   <g id="patch_42">
    <path clip-path="url(#p910522e912)" d="M 258.016306 153.2 
L 261.431092 153.2 
L 261.431092 153.142725 
L 258.016306 153.142725 
z
" style="fill:#348abd;opacity:0.2;"/>
   </g>
   <g id="patch_43">
    <path clip-path="url(#p910522e912)" d="M 262.284789 153.2 
L 265.699576 153.2 
L 265.699576 153.150196 
L 262.284789 153.150196 
z
" style="fill:#348abd;opacity:0.2;"/>
   </g>
   <g id="patch_44">
    <path clip-path="url(#p910522e912)" d="M 266.553272 153.2 
L 269.968059 153.2 
L 269.968059 153.122804 
L 266.553272 153.122804 
z
" style="fill:#348abd;opacity:0.2;"/>
   </g>
   <g id="patch_45">
    <path clip-path="url(#p910522e912)" d="M 270.821756 153.2 
L 274.236542 153.2 
L 274.236542 153.025686 
L 270.821756 153.025686 
z
" style="fill:#348abd;opacity:0.2;"/>
   </g>
   <g id="patch_46">
    <path clip-path="url(#p910522e912)" d="M 275.090239 153.2 
L 278.505026 153.2 
L 278.505026 153.08047 
L 275.090239 153.08047 
z
" style="fill:#348abd;opacity:0.2;"/>
   </g>
   <g id="patch_47">
    <path clip-path="url(#p910522e912)" d="M 279.358722 153.2 
L 282.773509 153.2 
L 282.773509 152.913626 
L 279.358722 152.913626 
z
" style="fill:#348abd;opacity:0.2;"/>
   </g>
   <g id="patch_48">
    <path clip-path="url(#p910522e912)" d="M 283.627206 153.2 
L 287.041992 153.2 
L 287.041992 152.916117 
L 283.627206 152.916117 
z
" style="fill:#348abd;opacity:0.2;"/>
   </g>
   <g id="patch_49">
    <path clip-path="url(#p910522e912)" d="M 287.895689 153.2 
L 291.310476 153.2 
L 291.310476 153.030666 
L 287.895689 153.030666 
z
" style="fill:#348abd;opacity:0.2;"/>
   </g>
   <g id="patch_50">
    <path clip-path="url(#p910522e912)" d="M 292.164172 153.2 
L 295.578959 153.2 
L 295.578959 152.721881 
L 292.164172 152.721881 
z
" style="fill:#348abd;opacity:0.2;"/>
   </g>
   <g id="patch_51">
    <path clip-path="url(#p910522e912)" d="M 296.432656 153.2 
L 299.847442 153.2 
L 299.847442 152.208898 
L 296.432656 152.208898 
z
" style="fill:#348abd;opacity:0.2;"/>
   </g>
   <g id="patch_52">
    <path clip-path="url(#p910522e912)" d="M 300.701139 153.2 
L 304.115926 153.2 
L 304.115926 152.074427 
L 300.701139 152.074427 
z
" style="fill:#348abd;opacity:0.2;"/>
   </g>
   <g id="patch_53">
    <path clip-path="url(#p910522e912)" d="M 304.969623 153.2 
L 308.384409 153.2 
L 308.384409 151.715838 
L 304.969623 151.715838 
z
" style="fill:#348abd;opacity:0.2;"/>
   </g>
   <g id="patch_54">
    <path clip-path="url(#p910522e912)" d="M 309.238106 153.2 
L 312.652893 153.2 
L 312.652893 151.424484 
L 309.238106 151.424484 
z
" style="fill:#348abd;opacity:0.2;"/>
   </g>
   <g id="patch_55">
    <path clip-path="url(#p910522e912)" d="M 313.506589 153.2 
L 316.921376 153.2 
L 316.921376 152.95596 
L 313.506589 152.95596 
z
" style="fill:#348abd;opacity:0.2;"/>
   </g>
   <g id="patch_56">
    <path clip-path="url(#p910522e912)" d="M 317.775073 153.2 
L 321.189859 153.2 
L 321.189859 149.733635 
L 317.775073 149.733635 
z
" style="fill:#348abd;opacity:0.2;"/>
   </g>
   <g id="patch_57">
    <path clip-path="url(#p910522e912)" d="M 322.043556 153.2 
L 325.458343 153.2 
L 325.458343 148.764945 
L 322.043556 148.764945 
z
" style="fill:#348abd;opacity:0.2;"/>
   </g>
   <g id="patch_58">
    <path clip-path="url(#p910522e912)" d="M 326.312039 153.2 
L 329.726826 153.2 
L 329.726826 146.287191 
L 326.312039 146.287191 
z
" style="fill:#348abd;opacity:0.2;"/>
   </g>
   <g id="patch_59">
    <path clip-path="url(#p910522e912)" d="M 330.580523 153.2 
L 333.995309 153.2 
L 333.995309 140.151326 
L 330.580523 140.151326 
z
" style="fill:#348abd;opacity:0.2;"/>
   </g>
   <g id="patch_60">
    <path clip-path="url(#p910522e912)" d="M 334.849006 153.2 
L 338.263793 153.2 
L 338.263793 139.94713 
L 334.849006 139.94713 
z
" style="fill:#348abd;opacity:0.2;"/>
   </g>
   <g id="patch_61">
    <path clip-path="url(#p910522e912)" d="M 339.117489 153.2 
L 342.532276 153.2 
L 342.532276 137.39716 
L 339.117489 137.39716 
z
" style="fill:#348abd;opacity:0.2;"/>
   </g>
   <g id="patch_62">
    <path clip-path="url(#p910522e912)" d="M 343.385973 153.2 
L 346.800759 153.2 
L 346.800759 133.437734 
L 343.385973 133.437734 
z
" style="fill:#348abd;opacity:0.2;"/>
   </g>
   <g id="patch_63">
    <path clip-path="url(#p910522e912)" d="M 347.654456 153.2 
L 351.069243 153.2 
L 351.069243 128.076323 
L 347.654456 128.076323 
z
" style="fill:#348abd;opacity:0.2;"/>
   </g>
   <g id="patch_64">
    <path clip-path="url(#p910522e912)" d="M 351.922939 153.2 
L 355.337726 153.2 
L 355.337726 127.645518 
L 351.922939 127.645518 
z
" style="fill:#348abd;opacity:0.2;"/>
   </g>
   <g id="patch_65">
    <path clip-path="url(#p910522e912)" d="M 356.191423 153.2 
L 359.60621 153.2 
L 359.60621 123.459483 
L 356.191423 123.459483 
z
" style="fill:#348abd;opacity:0.2;"/>
   </g>
   <g id="patch_66">
    <path clip-path="url(#p910522e912)" d="M 360.459906 153.2 
L 363.874693 153.2 
L 363.874693 108.286665 
L 360.459906 108.286665 
z
" style="fill:#348abd;opacity:0.2;"/>
   </g>
   <g id="patch_67">
    <path clip-path="url(#p910522e912)" d="M 364.72839 153.2 
L 368.143176 153.2 
L 368.143176 107.915624 
L 364.72839 107.915624 
z
" style="fill:#348abd;opacity:0.2;"/>
   </g>
   <g id="patch_68">
    <path clip-path="url(#p910522e912)" d="M 368.996873 153.2 
L 372.41166 153.2 
L 372.41166 103.911375 
L 368.996873 103.911375 
z
" style="fill:#348abd;opacity:0.2;"/>
   </g>
   <g id="patch_69">
    <path clip-path="url(#p910522e912)" d="M 373.265356 153.2 
L 376.680143 153.2 
L 376.680143 105.54744 
L 373.265356 105.54744 
z
" style="fill:#348abd;opacity:0.2;"/>
   </g>
   <g id="patch_70">
    <path clip-path="url(#p910522e912)" d="M 377.53384 153.2 
L 380.948626 153.2 
L 380.948626 99.655615 
L 377.53384 99.655615 
z
" style="fill:#348abd;opacity:0.2;"/>
   </g>
   <g id="patch_71">
    <path clip-path="url(#p910522e912)" d="M 381.802323 153.2 
L 385.21711 153.2 
L 385.21711 88.41234 
L 381.802323 88.41234 
z
" style="fill:#348abd;opacity:0.2;"/>
   </g>
   <g id="patch_72">
    <path clip-path="url(#p910522e912)" d="M 386.070806 153.2 
L 389.485593 153.2 
L 389.485593 89.74709 
L 386.070806 89.74709 
z
" style="fill:#348abd;opacity:0.2;"/>
   </g>
   <g id="patch_73">
    <path clip-path="url(#p910522e912)" d="M 390.33929 153.2 
L 393.754076 153.2 
L 393.754076 77.485321 
L 390.33929 77.485321 
z
" style="fill:#348abd;opacity:0.2;"/>
   </g>
   <g id="patch_74">
    <path clip-path="url(#p910522e912)" d="M 394.607773 153.2 
L 398.02256 153.2 
L 398.02256 73.670327 
L 394.607773 73.670327 
z
" style="fill:#348abd;opacity:0.2;"/>
   </g>
   <g id="patch_75">
    <path clip-path="url(#p910522e912)" d="M 398.876256 153.2 
L 402.291043 153.2 
L 402.291043 70.644728 
L 398.876256 70.644728 
z
" style="fill:#348abd;opacity:0.2;"/>
   </g>
   <g id="patch_76">
    <path clip-path="url(#p910522e912)" d="M 403.14474 153.2 
L 406.559526 153.2 
L 406.559526 83.788029 
L 403.14474 83.788029 
z
" style="fill:#348abd;opacity:0.2;"/>
   </g>
   <g id="patch_77">
    <path clip-path="url(#p910522e912)" d="M 407.413223 153.2 
L 410.82801 153.2 
L 410.82801 79.385347 
L 407.413223 79.385347 
z
" style="fill:#348abd;opacity:0.2;"/>
   </g>
   <g id="patch_78">
    <path clip-path="url(#p910522e912)" d="M 411.681706 153.2 
L 415.096493 153.2 
L 415.096493 76.558965 
L 411.681706 76.558965 
z
" style="fill:#348abd;opacity:0.2;"/>
   </g>
   <g id="patch_79">
    <path clip-path="url(#p910522e912)" d="M 415.95019 153.2 
L 419.364977 153.2 
L 419.364977 74.275447 
L 415.95019 74.275447 
z
" style="fill:#348abd;opacity:0.2;"/>
   </g>
   <g id="patch_80">
    <path clip-path="url(#p910522e912)" d="M 420.218673 153.2 
L 423.63346 153.2 
L 423.63346 66.650439 
L 420.218673 66.650439 
z
" style="fill:#348abd;opacity:0.2;"/>
   </g>
   <g id="patch_81">
    <path clip-path="url(#p910522e912)" d="M 424.487157 153.2 
L 427.901943 153.2 
L 427.901943 69.775647 
L 424.487157 69.775647 
z
" style="fill:#348abd;opacity:0.2;"/>
   </g>
   <g id="patch_82">
    <path clip-path="url(#p910522e912)" d="M 428.75564 153.2 
L 432.170427 153.2 
L 432.170427 78.429108 
L 428.75564 78.429108 
z
" style="fill:#348abd;opacity:0.2;"/>
   </g>
   <g id="patch_83">
    <path clip-path="url(#p910522e912)" d="M 433.024123 153.2 
L 436.43891 153.2 
L 436.43891 82.09718 
L 433.024123 82.09718 
z
" style="fill:#348abd;opacity:0.2;"/>
   </g>
   <g id="patch_84">
    <path clip-path="url(#p910522e912)" d="M 437.292607 153.2 
L 440.707393 153.2 
L 440.707393 90.220229 
L 437.292607 90.220229 
z
" style="fill:#348abd;opacity:0.2;"/>
   </g>
   <g id="patch_85">
    <path clip-path="url(#p910522e912)" d="M 441.56109 153.2 
L 444.975877 153.2 
L 444.975877 85.802605 
L 441.56109 85.802605 
z
" style="fill:#348abd;opacity:0.2;"/>
   </g>
   <g id="patch_86">
    <path clip-path="url(#p910522e912)" d="M 445.829573 153.2 
L 449.24436 153.2 
L 449.24436 80.744999 
L 445.829573 80.744999 
z
" style="fill:#348abd;opacity:0.2;"/>
   </g>
   <g id="patch_87">
    <path clip-path="url(#p910522e912)" d="M 450.098057 153.2 
L 453.512843 153.2 
L 453.512843 75.261568 
L 450.098057 75.261568 
z
" style="fill:#348abd;opacity:0.2;"/>
   </g>
   <g id="patch_88">
    <path clip-path="url(#p910522e912)" d="M 454.36654 153.2 
L 457.781327 153.2 
L 457.781327 71.710536 
L 454.36654 71.710536 
z
" style="fill:#348abd;opacity:0.2;"/>
   </g>
   <g id="patch_89">
    <path clip-path="url(#p910522e912)" d="M 458.635023 153.2 
L 462.04981 153.2 
L 462.04981 82.625104 
L 458.635023 82.625104 
z
" style="fill:#348abd;opacity:0.2;"/>
   </g>
   <g id="patch_90">
    <path clip-path="url(#p910522e912)" d="M 462.903507 153.2 
L 466.318294 153.2 
L 466.318294 88.360046 
L 462.903507 88.360046 
z
" style="fill:#348abd;opacity:0.2;"/>
   </g>
   <g id="patch_91">
    <path clip-path="url(#p910522e912)" d="M 467.17199 153.2 
L 470.586777 153.2 
L 470.586777 85.115309 
L 467.17199 85.115309 
z
" style="fill:#348abd;opacity:0.2;"/>
   </g>
   <g id="patch_92">
    <path clip-path="url(#p910522e912)" d="M 471.440474 153.2 
L 474.85526 153.2 
L 474.85526 89.669893 
L 471.440474 89.669893 
z
" style="fill:#348abd;opacity:0.2;"/>
   </g>
   <g id="patch_93">
    <path clip-path="url(#p910522e912)" d="M 475.708957 153.2 
L 479.123744 153.2 
L 479.123744 82.991164 
L 475.708957 82.991164 
z
" style="fill:#348abd;opacity:0.2;"/>
   </g>
   <g id="patch_94">
    <path clip-path="url(#p910522e912)" d="M 479.97744 153.2 
L 483.392227 153.2 
L 483.392227 68.047444 
L 479.97744 68.047444 
z
" style="fill:#348abd;opacity:0.2;"/>
   </g>
   <g id="patch_95">
    <path clip-path="url(#p910522e912)" d="M 484.245924 153.2 
L 487.66071 153.2 
L 487.66071 62.827975 
L 484.245924 62.827975 
z
" style="fill:#348abd;opacity:0.2;"/>
   </g>
   <g id="patch_96">
    <path clip-path="url(#p910522e912)" d="M 488.514407 153.2 
L 491.929194 153.2 
L 491.929194 71.219965 
L 488.514407 71.219965 
z
" style="fill:#348abd;opacity:0.2;"/>
   </g>
   <g id="patch_97">
    <path clip-path="url(#p910522e912)" d="M 492.78289 153.2 
L 496.197677 153.2 
L 496.197677 84.248717 
L 492.78289 84.248717 
z
" style="fill:#348abd;opacity:0.2;"/>
   </g>
   <g id="patch_98">
    <path clip-path="url(#p910522e912)" d="M 497.051374 153.2 
L 500.46616 153.2 
L 500.46616 97.217704 
L 497.051374 97.217704 
z
" style="fill:#348abd;opacity:0.2;"/>
   </g>
   <g id="patch_99">
    <path clip-path="url(#p910522e912)" d="M 501.319857 153.2 
L 504.734644 153.2 
L 504.734644 92.142667 
L 501.319857 92.142667 
z
" style="fill:#348abd;opacity:0.2;"/>
   </g>
   <g id="patch_100">
    <path clip-path="url(#p910522e912)" d="M 505.58834 153.2 
L 509.003127 153.2 
L 509.003127 84.948465 
L 505.58834 84.948465 
z
" style="fill:#348abd;opacity:0.2;"/>
   </g>
   <g id="patch_101">
    <path clip-path="url(#p910522e912)" d="M 509.856824 153.2 
L 513.27161 153.2 
L 513.27161 79.138817 
L 509.856824 79.138817 
z
" style="fill:#348abd;opacity:0.2;"/>
   </g>
   <g id="patch_102">
    <path clip-path="url(#p910522e912)" d="M 514.125307 153.2 
L 517.540094 153.2 
L 517.540094 68.129621 
L 514.125307 68.129621 
z
" style="fill:#348abd;opacity:0.2;"/>
   </g>
   <g id="patch_103">
    <path clip-path="url(#p910522e912)" d="M 518.39379 153.2 
L 521.808577 153.2 
L 521.808577 80.498469 
L 518.39379 80.498469 
z
" style="fill:#348abd;opacity:0.2;"/>
   </g>
   <g id="patch_104">
    <path clip-path="url(#p910522e912)" d="M 522.662274 153.2 
L 526.077061 153.2 
L 526.077061 89.483128 
L 522.662274 89.483128 
z
" style="fill:#348abd;opacity:0.2;"/>
   </g>
   <g id="patch_105">
    <path clip-path="url(#p910522e912)" d="M 526.930757 153.2 
L 530.345544 153.2 
L 530.345544 97.232645 
L 526.930757 97.232645 
z
" style="fill:#348abd;opacity:0.2;"/>
   </g>
   <g id="patch_106">
    <path clip-path="url(#p910522e912)" d="M 531.199241 153.2 
L 534.614027 153.2 
L 534.614027 92.974395 
L 531.199241 92.974395 
z
" style="fill:#348abd;opacity:0.2;"/>
   </g>
   <g id="patch_107">
    <path clip-path="url(#p910522e912)" d="M 535.467724 153.2 
L 538.882511 153.2 
L 538.882511 90.307386 
L 535.467724 90.307386 
z
" style="fill:#348abd;opacity:0.2;"/>
   </g>
   <g id="patch_108">
    <path clip-path="url(#p910522e912)" d="M 539.736207 153.2 
L 543.150994 153.2 
L 543.150994 83.768108 
L 539.736207 83.768108 
z
" style="fill:#348abd;opacity:0.2;"/>
   </g>
   <g id="patch_109">
    <path clip-path="url(#p910522e912)" d="M 544.004691 153.2 
L 547.419477 153.2 
L 547.419477 85.521212 
L 544.004691 85.521212 
z
" style="fill:#348abd;opacity:0.2;"/>
   </g>
   <g id="patch_110">
    <path clip-path="url(#p910522e912)" d="M 548.273174 153.2 
L 551.687961 153.2 
L 551.687961 89.119558 
L 548.273174 89.119558 
z
" style="fill:#348abd;opacity:0.2;"/>
   </g>
   <g id="patch_111">
    <path clip-path="url(#p910522e912)" d="M 552.541657 153.2 
L 555.956444 153.2 
L 555.956444 103.983591 
L 552.541657 103.983591 
z
" style="fill:#348abd;opacity:0.2;"/>
   </g>
   <g id="patch_112">
    <path clip-path="url(#p910522e912)" d="M 556.810141 153.2 
L 560.224927 153.2 
L 560.224927 106.189912 
L 556.810141 106.189912 
z
" style="fill:#348abd;opacity:0.2;"/>
   </g>
   <g id="patch_113">
    <path clip-path="url(#p910522e912)" d="M 561.078624 153.2 
L 564.493411 153.2 
L 564.493411 98.530042 
L 561.078624 98.530042 
z
" style="fill:#348abd;opacity:0.2;"/>
   </g>
   <g id="patch_114">
    <path clip-path="url(#p910522e912)" d="M 565.347107 153.2 
L 568.761894 153.2 
L 568.761894 100.425088 
L 565.347107 100.425088 
z
" style="fill:#348abd;opacity:0.2;"/>
   </g>
   <g id="patch_115">
    <path clip-path="url(#p910522e912)" d="M 569.615591 153.2 
L 573.030377 153.2 
L 573.030377 84.428012 
L 569.615591 84.428012 
z
" style="fill:#348abd;opacity:0.2;"/>
   </g>
   <g id="patch_116">
    <path clip-path="url(#p910522e912)" d="M 573.884074 153.2 
L 577.298861 153.2 
L 577.298861 90.197817 
L 573.884074 90.197817 
z
" style="fill:#348abd;opacity:0.2;"/>
   </g>
   <g id="patch_117">
    <path clip-path="url(#p910522e912)" d="M 578.152558 153.2 
L 581.567344 153.2 
L 581.567344 90.693367 
L 578.152558 90.693367 
z
" style="fill:#348abd;opacity:0.2;"/>
   </g>
   <g id="patch_118">
    <path clip-path="url(#p910522e912)" d="M 582.421041 153.2 
L 585.835828 153.2 
L 585.835828 105.876147 
L 582.421041 105.876147 
z
" style="fill:#348abd;opacity:0.2;"/>
   </g>
   <g id="patch_119">
    <path clip-path="url(#p910522e912)" d="M 586.689524 153.2 
L 590.104311 153.2 
L 590.104311 98.99073 
L 586.689524 98.99073 
z
" style="fill:#348abd;opacity:0.2;"/>
   </g>
   <g id="patch_120">
    <path clip-path="url(#p910522e912)" d="M 590.958008 153.2 
L 594.372794 153.2 
L 594.372794 102.277801 
L 590.958008 102.277801 
z
" style="fill:#348abd;opacity:0.2;"/>
   </g>
   <g id="patch_121">
    <path clip-path="url(#p910522e912)" d="M 595.226491 153.2 
L 598.641278 153.2 
L 598.641278 94.378871 
L 595.226491 94.378871 
z
" style="fill:#348abd;opacity:0.2;"/>
   </g>
   <g id="patch_122">
    <path clip-path="url(#p910522e912)" d="M 599.494974 153.2 
L 602.909761 153.2 
L 602.909761 89.597677 
L 599.494974 89.597677 
z
" style="fill:#348abd;opacity:0.2;"/>
   </g>
   <g id="patch_123">
    <path clip-path="url(#p910522e912)" d="M 603.763458 153.2 
L 607.178244 153.2 
L 607.178244 93.083964 
L 603.763458 93.083964 
z
" style="fill:#348abd;opacity:0.2;"/>
   </g>
   <g id="patch_124">
    <path clip-path="url(#p910522e912)" d="M 608.031941 153.2 
L 611.446728 153.2 
L 611.446728 98.856259 
L 608.031941 98.856259 
z
" style="fill:#348abd;opacity:0.2;"/>
   </g>
   <g id="patch_125">
    <path clip-path="url(#p910522e912)" d="M 612.300424 153.2 
L 615.715211 153.2 
L 615.715211 101.371366 
L 612.300424 101.371366 
z
" style="fill:#348abd;opacity:0.2;"/>
   </g>
   <g id="patch_126">
    <path clip-path="url(#p910522e912)" d="M 616.568908 153.2 
L 619.983694 153.2 
L 619.983694 105.908519 
L 616.568908 105.908519 
z
" style="fill:#348abd;opacity:0.2;"/>
   </g>
   <g id="patch_127">
    <path clip-path="url(#p910522e912)" d="M 620.837391 153.2 
L 624.252178 153.2 
L 624.252178 106.177461 
L 620.837391 106.177461 
z
" style="fill:#348abd;opacity:0.2;"/>
   </g>
   <g id="patch_128">
    <path clip-path="url(#p910522e912)" d="M 625.105874 153.2 
L 628.520661 153.2 
L 628.520661 107.674075 
L 625.105874 107.674075 
z
" style="fill:#348abd;opacity:0.2;"/>
   </g>
   <g id="patch_129">
    <path clip-path="url(#p910522e912)" d="M 629.374358 153.2 
L 632.789145 153.2 
L 632.789145 96.385976 
L 629.374358 96.385976 
z
" style="fill:#348abd;opacity:0.2;"/>
   </g>
   <g id="patch_130">
    <path clip-path="url(#p910522e912)" d="M 633.642841 153.2 
L 637.057628 153.2 
L 637.057628 92.18002 
L 633.642841 92.18002 
z
" style="fill:#348abd;opacity:0.2;"/>
   </g>
   <g id="patch_131">
    <path clip-path="url(#p910522e912)" d="M 637.911325 153.2 
L 641.326111 153.2 
L 641.326111 92.862336 
L 637.911325 92.862336 
z
" style="fill:#348abd;opacity:0.2;"/>
   </g>
   <g id="patch_132">
    <path clip-path="url(#p910522e912)" d="M 642.179808 153.2 
L 645.594595 153.2 
L 645.594595 103.074666 
L 642.179808 103.074666 
z
" style="fill:#348abd;opacity:0.2;"/>
   </g>
   <g id="patch_133">
    <path clip-path="url(#p910522e912)" d="M 646.448291 153.2 
L 649.863078 153.2 
L 649.863078 109.984985 
L 646.448291 109.984985 
z
" style="fill:#348abd;opacity:0.2;"/>
   </g>
   <g id="patch_134">
    <path clip-path="url(#p910522e912)" d="M 650.716775 153.2 
L 654.131561 153.2 
L 654.131561 101.167169 
L 650.716775 101.167169 
z
" style="fill:#348abd;opacity:0.2;"/>
   </g>
   <g id="patch_135">
    <path clip-path="url(#p910522e912)" d="M 654.985258 153.2 
L 658.400045 153.2 
L 658.400045 103.500491 
L 654.985258 103.500491 
z
" style="fill:#348abd;opacity:0.2;"/>
   </g>
   <g id="patch_136">
    <path clip-path="url(#p910522e912)" d="M 659.253741 153.2 
L 662.668528 153.2 
L 662.668528 100.031636 
L 659.253741 100.031636 
z
" style="fill:#348abd;opacity:0.2;"/>
   </g>
   <g id="patch_137">
    <path clip-path="url(#p910522e912)" d="M 663.522225 153.2 
L 666.937011 153.2 
L 666.937011 90.387072 
L 663.522225 90.387072 
z
" style="fill:#348abd;opacity:0.2;"/>
   </g>
   <g id="patch_138">
    <path clip-path="url(#p910522e912)" d="M 667.790708 153.2 
L 671.205495 153.2 
L 671.205495 96.592663 
L 667.790708 96.592663 
z
" style="fill:#348abd;opacity:0.2;"/>
   </g>
   <g id="patch_139">
    <path clip-path="url(#p910522e912)" d="M 672.059191 153.2 
L 675.473978 153.2 
L 675.473978 109.046177 
L 672.059191 109.046177 
z
" style="fill:#348abd;opacity:0.2;"/>
   </g>
   <g id="patch_140">
    <path clip-path="url(#p910522e912)" d="M 676.327675 153.2 
L 679.742461 153.2 
L 679.742461 109.835572 
L 676.327675 109.835572 
z
" style="fill:#348abd;opacity:0.2;"/>
   </g>
   <g id="patch_141">
    <path clip-path="url(#p910522e912)" d="M 680.596158 153.2 
L 684.010945 153.2 
L 684.010945 108.060056 
L 680.596158 108.060056 
z
" style="fill:#348abd;opacity:0.2;"/>
   </g>
   <g id="patch_142">
    <path clip-path="url(#p910522e912)" d="M 684.864642 153.2 
L 688.279428 153.2 
L 688.279428 101.41868 
L 684.864642 101.41868 
z
" style="fill:#348abd;opacity:0.2;"/>
   </g>
   <g id="patch_143">
    <path clip-path="url(#p910522e912)" d="M 689.133125 153.2 
L 692.547912 153.2 
L 692.547912 96.049798 
L 689.133125 96.049798 
z
" style="fill:#348abd;opacity:0.2;"/>
   </g>
   <g id="patch_144">
    <path clip-path="url(#p910522e912)" d="M 693.401608 153.2 
L 696.816395 153.2 
L 696.816395 90.11315 
L 693.401608 90.11315 
z
" style="fill:#348abd;opacity:0.2;"/>
   </g>
   <g id="patch_145">
    <path clip-path="url(#p910522e912)" d="M 697.670092 153.2 
L 701.084878 153.2 
L 701.084878 89.560324 
L 697.670092 89.560324 
z
" style="fill:#348abd;opacity:0.2;"/>
   </g>
   <g id="patch_146">
    <path clip-path="url(#p910522e912)" d="M 701.938575 153.2 
L 705.353362 153.2 
L 705.353362 103.834179 
L 701.938575 103.834179 
z
" style="fill:#348abd;opacity:0.2;"/>
   </g>
   <g id="patch_147">
    <path clip-path="url(#p910522e912)" d="M 706.207058 153.2 
L 709.621845 153.2 
L 709.621845 104.242572 
L 706.207058 104.242572 
z
" style="fill:#348abd;opacity:0.2;"/>
   </g>
   <g id="patch_148">
    <path clip-path="url(#p910522e912)" d="M 710.475542 153.2 
L 713.890328 153.2 
L 713.890328 94.169693 
L 710.475542 94.169693 
z
" style="fill:#348abd;opacity:0.2;"/>
   </g>
   <g id="patch_149">
    <path clip-path="url(#p910522e912)" d="M 714.744025 153.2 
L 718.158812 153.2 
L 718.158812 89.552854 
L 714.744025 89.552854 
z
" style="fill:#348abd;opacity:0.2;"/>
   </g>
   <g id="patch_150">
    <path clip-path="url(#p910522e912)" d="M 719.012508 153.2 
L 722.427295 153.2 
L 722.427295 83.949893 
L 719.012508 83.949893 
z
" style="fill:#348abd;opacity:0.2;"/>
   </g>
   <g id="patch_151">
    <path clip-path="url(#p910522e912)" d="M 723.280992 153.2 
L 726.695778 153.2 
L 726.695778 74.808351 
L 723.280992 74.808351 
z
" style="fill:#348abd;opacity:0.2;"/>
   </g>
   <g id="patch_152">
    <path clip-path="url(#p910522e912)" d="M 727.549475 153.2 
L 730.964262 153.2 
L 730.964262 71.650771 
L 727.549475 71.650771 
z
" style="fill:#348abd;opacity:0.2;"/>
   </g>
   <g id="patch_153">
    <path clip-path="url(#p910522e912)" d="M 731.817958 153.2 
L 735.232745 153.2 
L 735.232745 87.361473 
L 731.817958 87.361473 
z
" style="fill:#348abd;opacity:0.2;"/>
   </g>
   <g id="patch_154">
    <path clip-path="url(#p910522e912)" d="M 736.086442 153.2 
L 739.501229 153.2 
L 739.501229 77.159104 
L 736.086442 77.159104 
z
" style="fill:#348abd;opacity:0.2;"/>
   </g>
   <g id="patch_155">
    <path clip-path="url(#p910522e912)" d="M 740.354925 153.2 
L 743.769712 153.2 
L 743.769712 65.572181 
L 740.354925 65.572181 
z
" style="fill:#348abd;opacity:0.2;"/>
   </g>
   <g id="patch_156">
    <path clip-path="url(#p910522e912)" d="M 744.623409 153.2 
L 748.038195 153.2 
L 748.038195 66.204693 
L 744.623409 66.204693 
z
" style="fill:#348abd;opacity:0.2;"/>
   </g>
   <g id="patch_157">
    <path clip-path="url(#p910522e912)" d="M 748.891892 153.2 
L 752.306679 153.2 
L 752.306679 53.908061 
L 748.891892 53.908061 
z
" style="fill:#348abd;opacity:0.2;"/>
   </g>
   <g id="patch_158">
    <path clip-path="url(#p910522e912)" d="M 753.160375 153.2 
L 756.575162 153.2 
L 756.575162 40.505778 
L 753.160375 40.505778 
z
" style="fill:#348abd;opacity:0.2;"/>
   </g>
   <g id="patch_159">
    <path clip-path="url(#p910522e912)" d="M 757.428859 153.2 
L 760.843645 153.2 
L 760.843645 46.855801 
L 757.428859 46.855801 
z
" style="fill:#348abd;opacity:0.2;"/>
   </g>
   <g id="patch_160">
    <path clip-path="url(#p910522e912)" d="M 761.697342 153.2 
L 765.112129 153.2 
L 765.112129 55.994853 
L 761.697342 55.994853 
z
" style="fill:#348abd;opacity:0.2;"/>
   </g>
   <g id="patch_161">
    <path clip-path="url(#p910522e912)" d="M 765.965825 153.2 
L 769.380612 153.2 
L 769.380612 50.170264 
L 765.965825 50.170264 
z
" style="fill:#348abd;opacity:0.2;"/>
   </g>
   <g id="patch_162">
    <path clip-path="url(#p910522e912)" d="M 770.234309 153.2 
L 773.649095 153.2 
L 773.649095 39.283088 
L 770.234309 39.283088 
z
" style="fill:#348abd;opacity:0.2;"/>
   </g>
   <g id="patch_163">
    <path clip-path="url(#p910522e912)" d="M 774.502792 153.2 
L 777.917579 153.2 
L 777.917579 25.766256 
L 774.502792 25.766256 
z
" style="fill:#348abd;opacity:0.2;"/>
   </g>
   <g id="patch_164">
    <path clip-path="url(#p910522e912)" d="M 778.771275 153.2 
L 782.186062 153.2 
L 782.186062 17.580952 
L 778.771275 17.580952 
z
" style="fill:#348abd;opacity:0.2;"/>
   </g>
   <g id="patch_165">
    <path clip-path="url(#p910522e912)" d="M 783.039759 153.2 
L 786.454545 153.2 
L 786.454545 23.450365 
L 783.039759 23.450365 
z
" style="fill:#348abd;opacity:0.2;"/>
   </g>
   <g id="line2d_31">
    <path clip-path="url(#p910522e912)" d="M 93.252848 153.198184 
L 268.260666 153.102953 
L 285.334599 152.870875 
L 298.140049 152.426428 
L 306.677016 151.859149 
L 310.945499 151.285944 
L 315.213983 150.425535 
L 319.482466 149.211522 
L 323.750949 147.607381 
L 328.019433 145.608937 
L 332.287916 143.221536 
L 336.556399 140.520846 
L 340.824883 137.425366 
L 345.093366 133.949312 
L 349.361849 130.08933 
L 357.898816 121.553752 
L 366.435783 112.525657 
L 374.97275 103.125944 
L 383.509716 93.717763 
L 387.7782 89.452236 
L 392.046683 85.687613 
L 396.315166 82.523025 
L 400.58365 79.949823 
L 404.852133 77.905786 
L 409.120616 76.476365 
L 413.3891 75.602009 
L 417.657583 75.383199 
L 421.926067 75.730622 
L 426.19455 76.484919 
L 439 79.471422 
L 443.268483 80.298472 
L 451.80545 81.339469 
L 456.073933 81.633844 
L 460.342417 81.742872 
L 464.6109 81.611489 
L 468.879384 81.097708 
L 477.41635 79.568323 
L 481.684834 79.066101 
L 485.953317 79.045998 
L 490.2218 79.482911 
L 494.490284 80.184016 
L 511.564217 83.730518 
L 524.369667 85.394812 
L 528.638151 86.272885 
L 532.906634 87.571318 
L 545.712084 92.173136 
L 549.980567 93.388543 
L 554.249051 94.382636 
L 558.517534 95.149081 
L 562.786017 95.6947 
L 567.054501 96.031618 
L 571.322984 96.134542 
L 579.859951 95.956664 
L 584.128434 95.877033 
L 588.396918 96.030918 
L 592.665401 96.330086 
L 601.202368 97.224888 
L 605.470851 97.830912 
L 618.276301 100.197721 
L 622.544784 100.639605 
L 626.813268 100.84671 
L 635.350235 100.675321 
L 648.155685 100.341452 
L 652.424168 100.41382 
L 656.692651 100.650898 
L 669.498101 101.806832 
L 673.766585 101.932995 
L 678.035068 101.771361 
L 682.303551 101.444867 
L 686.572035 100.880376 
L 690.840518 100.068816 
L 695.109002 99.053984 
L 699.377485 97.729908 
L 703.645968 96.139965 
L 707.914452 94.295211 
L 712.182935 92.248046 
L 716.451418 89.925938 
L 720.719902 87.167596 
L 724.988385 84.07462 
L 729.256868 80.592541 
L 733.525352 76.747468 
L 742.062319 68.590056 
L 754.867769 56.087722 
L 767.673219 43.144228 
L 771.941702 39.456156 
L 776.210185 36.145037 
L 780.478669 32.995519 
L 784.747152 31.191292 
L 784.747152 31.191292 
" style="fill:none;stroke:#348abd;stroke-linecap:square;stroke-width:3;"/>
   </g>
   <g id="line2d_32">
    <defs>
     <path d="M 0 3 
C 0.795609 3 1.55874 2.683901 2.12132 2.12132 
C 2.683901 1.55874 3 0.795609 3 0 
C 3 -0.795609 2.683901 -1.55874 2.12132 -2.12132 
C 1.55874 -2.683901 0.795609 -3 0 -3 
C -0.795609 -3 -1.55874 -2.683901 -2.12132 -2.12132 
C -2.683901 -1.55874 -3 -0.795609 -3 0 
C -3 0.795609 -2.683901 1.55874 -2.12132 2.12132 
C -1.55874 2.683901 -0.795609 3 0 3 
z
" id="m5e05e47310" style="stroke:#e24a33;stroke-opacity:0.001;"/>
    </defs>
    <g clip-path="url(#p910522e912)">
     <use style="fill:#e24a33;fill-opacity:0.001;stroke:#e24a33;stroke-opacity:0.001;" x="439" xlink:href="#m5e05e47310" y="82"/>
    </g>
   </g>
   <g id="patch_166">
    <path d="M 56.8 153.2 
L 56.8 10.8 
" style="fill:none;stroke:#ffffff;stroke-linecap:square;stroke-linejoin:miter;"/>
   </g>
   <g id="patch_167">
    <path d="M 821.2 153.2 
L 821.2 10.8 
" style="fill:none;stroke:#ffffff;stroke-linecap:square;stroke-linejoin:miter;"/>
   </g>
   <g id="patch_168">
    <path d="M 56.8 153.2 
L 821.2 153.2 
" style="fill:none;stroke:#ffffff;stroke-linecap:square;stroke-linejoin:miter;"/>
   </g>
   <g id="patch_169">
    <path d="M 56.8 10.8 
L 821.2 10.8 
" style="fill:none;stroke:#ffffff;stroke-linecap:square;stroke-linejoin:miter;"/>
   </g>
   <g id="legend_1">
    <g id="patch_170">
     <path d="M 63.8 60.210938 
L 230.8 60.210938 
Q 232.8 60.210938 232.8 58.210938 
L 232.8 17.8 
Q 232.8 15.8 230.8 15.8 
L 63.8 15.8 
Q 61.8 15.8 61.8 17.8 
L 61.8 58.210938 
Q 61.8 60.210938 63.8 60.210938 
z
" style="fill:#e5e5e5;opacity:0.8;stroke:#cccccc;stroke-linejoin:miter;stroke-width:0.5;"/>
    </g>
    <g id="patch_171">
     <path d="M 65.8 26.8 
L 85.8 26.8 
L 85.8 19.8 
L 65.8 19.8 
z
" style="fill:#348abd;opacity:0.2;"/>
    </g>
    <g id="text_20">
     <!-- US new cases -->
     <defs>
      <path d="M 25.09375 -1.09375 
Q 15.09375 -1.09375 10.046875 4.84375 
Q 5 10.796875 5 21.5 
L 5 62.296875 
L 12.796875 62.296875 
L 12.796875 61.59375 
Q 12.203125 61 12.046875 60.296875 
Q 11.90625 59.59375 11.90625 57.90625 
L 11.90625 21.40625 
Q 11.90625 13.796875 14.84375 9.296875 
Q 17.796875 4.796875 25.203125 4.796875 
Q 32.703125 4.796875 35.703125 9.296875 
Q 38.703125 13.796875 38.703125 21.703125 
L 38.703125 62.296875 
L 45.40625 62.296875 
L 45.40625 21.796875 
Q 45.40625 10 39.84375 4.453125 
Q 34.296875 -1.09375 25.09375 -1.09375 
z
" id="Inconsolata-Regular-85"/>
      <path d="M 24.703125 -1 
Q 12.59375 -1 5.203125 6.90625 
L 8.796875 13.203125 
L 9.203125 14.09375 
L 9.90625 13.703125 
Q 10.09375 13 10.390625 12.140625 
Q 10.703125 11.296875 11.796875 10.09375 
Q 14.40625 7.90625 17.84375 6.59375 
Q 21.296875 5.296875 25.703125 5.296875 
Q 31.296875 5.296875 34.9375 8.4375 
Q 38.59375 11.59375 38.59375 16 
Q 38.59375 18.90625 37.4375 20.90625 
Q 36.296875 22.90625 33.25 24.796875 
Q 30.203125 26.703125 24.296875 29.203125 
Q 14.59375 33 10.890625 37.703125 
Q 7.203125 42.40625 7.203125 47.703125 
Q 7.203125 54.59375 12.296875 58.84375 
Q 17.40625 63.09375 26.203125 63.09375 
Q 31.296875 63.09375 35.796875 61.046875 
Q 40.296875 59 43.5 55.296875 
L 39 49.296875 
L 38.40625 49.703125 
Q 38.296875 50.5 38 51.296875 
Q 37.703125 52.09375 36.59375 53.296875 
Q 34.203125 55.59375 31.5 56.4375 
Q 28.796875 57.296875 25.09375 57.296875 
Q 20.203125 57.296875 17.296875 54.59375 
Q 14.40625 51.90625 14.40625 48.203125 
Q 14.40625 45.40625 15.65625 43.25 
Q 16.90625 41.09375 20.203125 39 
Q 23.5 36.90625 29.796875 34.40625 
Q 35.90625 31.90625 39.296875 29.34375 
Q 42.703125 26.796875 44.09375 23.84375 
Q 45.5 20.90625 45.5 17 
Q 45.5 12.703125 43.34375 8.546875 
Q 41.203125 4.40625 36.59375 1.703125 
Q 32 -1 24.703125 -1 
z
" id="Inconsolata-Regular-83"/>
      <path d="M 10.796875 -0.09375 
L 1.59375 45.703125 
L 7.90625 45.703125 
L 15.296875 9 
L 23.09375 41.40625 
L 27.5 41.40625 
L 37.203125 9.09375 
Q 38.5 18 39.34375 23.703125 
Q 40.203125 29.40625 40.640625 33.046875 
Q 41.09375 36.703125 41.25 39.203125 
Q 41.40625 41.703125 41.40625 44.203125 
L 41.40625 45.703125 
L 48.09375 45.703125 
Q 45.09375 22.5 40.5 -0.09375 
L 33.703125 -0.09375 
L 25.296875 29.5 
L 17.296875 -0.09375 
z
" id="Inconsolata-Regular-119"/>
      <path d="M 25.09375 -1 
Q 13.5 -1 5.703125 6.203125 
L 9.703125 13 
L 10.296875 13.90625 
L 10.90625 13.5 
Q 11.09375 12.703125 11.34375 11.84375 
Q 11.59375 11 12.703125 9.796875 
Q 14.796875 7.703125 17.75 6.34375 
Q 20.703125 5 25.296875 5 
Q 30.796875 5 33.84375 6.953125 
Q 36.90625 8.90625 36.90625 12.296875 
Q 36.90625 15.203125 34.34375 17.09375 
Q 31.796875 19 25.40625 21.09375 
Q 17.5 23.40625 12.84375 26.796875 
Q 8.203125 30.203125 8.203125 35.296875 
Q 8.203125 40.5 12.453125 43.640625 
Q 16.703125 46.796875 25 46.796875 
Q 31.40625 46.796875 35.59375 45 
Q 39.796875 43.203125 43.203125 39.59375 
L 39.09375 34.59375 
L 38.40625 33.796875 
L 37.90625 34.296875 
Q 37.796875 35.09375 37.4375 35.84375 
Q 37.09375 36.59375 36 37.703125 
Q 33.703125 39.5 30.796875 40.453125 
Q 27.90625 41.40625 25.203125 41.40625 
Q 21.203125 41.40625 18.296875 40 
Q 15.40625 38.59375 15.40625 35.703125 
Q 15.40625 34.203125 16.453125 32.75 
Q 17.5 31.296875 20.296875 29.84375 
Q 23.09375 28.40625 28.296875 26.90625 
Q 36.90625 24.296875 40.453125 21.25 
Q 44 18.203125 44 13.296875 
Q 44 9.5 41.953125 6.203125 
Q 39.90625 2.90625 35.703125 0.953125 
Q 31.5 -1 25.09375 -1 
z
" id="Inconsolata-Regular-115"/>
     </defs>
     <g transform="translate(93.8 26.8)scale(0.1 -0.1)">
      <use xlink:href="#Inconsolata-Regular-85"/>
      <use x="49.999985" xlink:href="#Inconsolata-Regular-83"/>
      <use x="99.999969" xlink:href="#Inconsolata-Regular-32"/>
      <use x="149.999954" xlink:href="#Inconsolata-Regular-110"/>
      <use x="199.999939" xlink:href="#Inconsolata-Regular-101"/>
      <use x="249.999924" xlink:href="#Inconsolata-Regular-119"/>
      <use x="299.999908" xlink:href="#Inconsolata-Regular-32"/>
      <use x="349.999893" xlink:href="#Inconsolata-Regular-99"/>
      <use x="399.999878" xlink:href="#Inconsolata-Regular-97"/>
      <use x="449.999863" xlink:href="#Inconsolata-Regular-115"/>
      <use x="499.999847" xlink:href="#Inconsolata-Regular-101"/>
      <use x="549.999832" xlink:href="#Inconsolata-Regular-115"/>
     </g>
    </g>
    <g id="line2d_33">
     <path d="M 65.8 37.320313 
L 85.8 37.320313 
" style="fill:none;stroke:#348abd;stroke-linecap:square;stroke-width:3;"/>
    </g>
    <g id="line2d_34"/>
    <g id="text_21">
     <!-- US new cases (rolling mean) -->
     <defs>
      <path d="M 39.5 -10.40625 
Q 31.203125 -6.5 25.046875 0.046875 
Q 18.90625 6.59375 15.546875 14.84375 
Q 12.203125 23.09375 12.203125 32 
Q 12.203125 40.90625 15.5 48.953125 
Q 18.796875 57 24.796875 63.34375 
Q 30.796875 69.703125 38.90625 73.5 
L 40.796875 67.296875 
Q 34.40625 63.796875 29.546875 58.296875 
Q 24.703125 52.796875 22 46 
Q 19.296875 39.203125 19.296875 31.703125 
Q 19.296875 24.203125 22 17.296875 
Q 24.703125 10.40625 29.703125 4.796875 
Q 34.703125 -0.796875 41.40625 -4.40625 
z
" id="Inconsolata-Regular-40"/>
      <path d="M 11.90625 45.703125 
L 19.40625 45.703125 
L 19.203125 37.296875 
Q 21.09375 41.90625 25.09375 44.34375 
Q 29.09375 46.796875 33.703125 46.796875 
Q 41 46.796875 45.796875 41.796875 
L 42.59375 36.203125 
L 42.203125 35.296875 
L 41.5 35.703125 
Q 41.296875 36.5 40.890625 37.203125 
Q 40.5 37.90625 39.203125 38.90625 
Q 37.59375 39.90625 36.25 40.25 
Q 34.90625 40.59375 33.203125 40.59375 
Q 29.90625 40.59375 26.65625 38.890625 
Q 23.40625 37.203125 21.296875 33.59375 
Q 19.203125 30 19.203125 24.203125 
L 19.203125 -0.09375 
L 11.90625 -0.09375 
z
" id="Inconsolata-Regular-114"/>
      <path d="M 25 -0.796875 
Q 18.796875 -0.796875 14.046875 2.25 
Q 9.296875 5.296875 6.59375 10.640625 
Q 3.90625 16 3.90625 22.90625 
Q 3.90625 29.90625 6.59375 35.25 
Q 9.296875 40.59375 14.046875 43.640625 
Q 18.796875 46.703125 25 46.703125 
Q 31.203125 46.703125 35.953125 43.640625 
Q 40.703125 40.59375 43.390625 35.25 
Q 46.09375 29.90625 46.09375 22.90625 
Q 46.09375 16 43.390625 10.640625 
Q 40.703125 5.296875 35.953125 2.25 
Q 31.203125 -0.796875 25 -0.796875 
z
M 25 5.203125 
Q 29 5.203125 32 7.5 
Q 35 9.796875 36.75 13.796875 
Q 38.5 17.796875 38.5 23 
Q 38.5 30.796875 34.703125 35.75 
Q 30.90625 40.703125 25 40.703125 
Q 19.09375 40.703125 15.296875 35.75 
Q 11.5 30.796875 11.5 23 
Q 11.5 17.796875 13.25 13.796875 
Q 15 9.796875 18.046875 7.5 
Q 21.09375 5.203125 25 5.203125 
z
" id="Inconsolata-Regular-111"/>
      <path d="M 3.796875 0 
L 3.796875 45.703125 
L 10.40625 45.703125 
L 10.40625 41.203125 
Q 12 43.703125 14.5 45.25 
Q 17 46.796875 19.703125 46.796875 
Q 22.703125 46.796875 24.953125 44.890625 
Q 27.203125 43 27.796875 40.09375 
Q 29.09375 43.09375 31.890625 44.9375 
Q 34.703125 46.796875 38.09375 46.796875 
Q 42.796875 46.796875 44.9375 43.4375 
Q 47.09375 40.09375 46.90625 35.09375 
L 46.90625 0 
L 40.296875 0 
L 40.296875 32.40625 
Q 40.296875 36.59375 39.75 38.5 
Q 39.203125 40.40625 38.203125 40.953125 
Q 37.203125 41.5 36 41.5 
Q 34.09375 41.5 32.4375 39.75 
Q 30.796875 38 29.75 35.390625 
Q 28.703125 32.796875 28.703125 30.203125 
L 28.703125 0 
L 22 0 
L 22 31.796875 
Q 22 37.5 20.953125 39.390625 
Q 19.90625 41.296875 17 41.296875 
Q 14.796875 41.296875 12.59375 38.4375 
Q 10.40625 35.59375 10.40625 30.5 
L 10.40625 0 
z
" id="Inconsolata-Regular-109"/>
      <path d="M 13.25 -10.40625 
Q 21.546875 -6.5 27.6875 0.046875 
Q 33.84375 6.59375 37.1875 14.84375 
Q 40.546875 23.09375 40.546875 32 
Q 40.546875 40.90625 37.25 48.953125 
Q 33.953125 57 27.953125 63.34375 
Q 21.953125 69.703125 13.84375 73.5 
L 11.953125 67.296875 
Q 18.34375 63.796875 23.1875 58.296875 
Q 28.046875 52.796875 30.75 46 
Q 33.453125 39.203125 33.453125 31.703125 
Q 33.453125 24.203125 30.75 17.296875 
Q 28.046875 10.40625 23.046875 4.796875 
Q 18.046875 -0.796875 11.34375 -4.40625 
z
" id="Inconsolata-Regular-41"/>
     </defs>
     <g transform="translate(93.8 40.820313)scale(0.1 -0.1)">
      <use xlink:href="#Inconsolata-Regular-85"/>
      <use x="49.999985" xlink:href="#Inconsolata-Regular-83"/>
      <use x="99.999969" xlink:href="#Inconsolata-Regular-32"/>
      <use x="149.999954" xlink:href="#Inconsolata-Regular-110"/>
      <use x="199.999939" xlink:href="#Inconsolata-Regular-101"/>
      <use x="249.999924" xlink:href="#Inconsolata-Regular-119"/>
      <use x="299.999908" xlink:href="#Inconsolata-Regular-32"/>
      <use x="349.999893" xlink:href="#Inconsolata-Regular-99"/>
      <use x="399.999878" xlink:href="#Inconsolata-Regular-97"/>
      <use x="449.999863" xlink:href="#Inconsolata-Regular-115"/>
      <use x="499.999847" xlink:href="#Inconsolata-Regular-101"/>
      <use x="549.999832" xlink:href="#Inconsolata-Regular-115"/>
      <use x="599.999817" xlink:href="#Inconsolata-Regular-32"/>
      <use x="649.999802" xlink:href="#Inconsolata-Regular-40"/>
      <use x="699.999786" xlink:href="#Inconsolata-Regular-114"/>
      <use x="749.999771" xlink:href="#Inconsolata-Regular-111"/>
      <use x="799.999756" xlink:href="#Inconsolata-Regular-108"/>
      <use x="849.999741" xlink:href="#Inconsolata-Regular-108"/>
      <use x="899.999725" xlink:href="#Inconsolata-Regular-105"/>
      <use x="949.99971" xlink:href="#Inconsolata-Regular-110"/>
      <use x="999.999695" xlink:href="#Inconsolata-Regular-103"/>
      <use x="1049.99968" xlink:href="#Inconsolata-Regular-32"/>
      <use x="1099.999664" xlink:href="#Inconsolata-Regular-109"/>
      <use x="1149.999649" xlink:href="#Inconsolata-Regular-101"/>
      <use x="1199.999634" xlink:href="#Inconsolata-Regular-97"/>
      <use x="1249.999619" xlink:href="#Inconsolata-Regular-110"/>
      <use x="1299.999603" xlink:href="#Inconsolata-Regular-41"/>
     </g>
    </g>
    <g id="line2d_35"/>
    <g id="line2d_36">
     <g>
      <use style="fill:#e24a33;fill-opacity:0.001;stroke:#e24a33;stroke-opacity:0.001;" x="75.8" xlink:href="#m5e05e47310" y="51.040625"/>
     </g>
    </g>
    <g id="text_22">
     <!-- [last updated: 04/07/2020] -->
     <defs>
      <path d="M 13.09375 -8.90625 
L 13.09375 67 
L 41.703125 67 
L 41.703125 61 
L 19.5 61 
L 19.5 -3.203125 
L 41.796875 -3.203125 
L 41.796875 -8.90625 
z
" id="Inconsolata-Regular-91"/>
      <path d="M 29.90625 -0.703125 
Q 24 -0.703125 20.953125 2 
Q 17.90625 4.703125 16.90625 10.34375 
Q 15.90625 16 16.203125 24.796875 
L 16.796875 39.796875 
L 7 39.796875 
L 7 45.703125 
L 17 45.703125 
L 17.40625 57.40625 
L 24.90625 58.296875 
L 25.90625 58.40625 
L 26 57.703125 
Q 25.5 57 25.140625 56.296875 
Q 24.796875 55.59375 24.59375 53.90625 
L 23.90625 45.703125 
L 39.90625 45.703125 
L 39.90625 39.796875 
L 24 39.796875 
L 23.296875 24.296875 
Q 23 16.703125 23.703125 12.546875 
Q 24.40625 8.40625 26.203125 6.84375 
Q 28 5.296875 31 5.296875 
Q 34.296875 5.296875 36.84375 6.59375 
Q 39.40625 7.90625 42.203125 9.90625 
L 44.40625 4.203125 
Q 41 1.703125 37.390625 0.5 
Q 33.796875 -0.703125 29.90625 -0.703125 
z
" id="Inconsolata-Regular-116"/>
      <path d="M 22.09375 -1.09375 
Q 15.296875 -1.09375 10.796875 4 
Q 6.296875 9.09375 6.40625 20.203125 
L 6.5 45.703125 
L 13.5 45.703125 
L 13.5 20.203125 
Q 13.5 11.5 16.546875 8.09375 
Q 19.59375 4.703125 23.90625 4.703125 
Q 27.09375 4.703125 29.890625 6.390625 
Q 32.703125 8.09375 34.453125 11.59375 
Q 36.203125 15.09375 36.203125 20.5 
L 36.203125 45.703125 
L 43.203125 45.703125 
L 43.203125 7.09375 
Q 43.203125 5.296875 43.34375 3.546875 
Q 43.5 1.796875 44.203125 0 
L 37.296875 0 
Q 36.59375 1.703125 36.4375 3.5 
Q 36.296875 5.296875 36.296875 7 
Q 34.09375 3.203125 30.34375 1.046875 
Q 26.59375 -1.09375 22.09375 -1.09375 
z
" id="Inconsolata-Regular-117"/>
      <path d="M 6 -16.703125 
L 6 45.703125 
L 13.296875 45.703125 
L 13.296875 36.703125 
Q 14.90625 41.90625 18.65625 44.296875 
Q 22.40625 46.703125 27.203125 46.703125 
Q 32.296875 46.703125 36.640625 44.140625 
Q 41 41.59375 43.640625 36.390625 
Q 46.296875 31.203125 46.296875 23.203125 
Q 46.296875 15.203125 43.5 9.75 
Q 40.703125 4.296875 36.296875 1.546875 
Q 31.90625 -1.203125 27 -1.203125 
Q 22.90625 -1.203125 19.296875 0.6875 
Q 15.703125 2.59375 13.40625 6 
L 13.40625 -16.703125 
z
M 25.796875 5.203125 
Q 29 5.203125 32 6.75 
Q 35 8.296875 36.890625 12.1875 
Q 38.796875 16.09375 38.796875 22.90625 
Q 38.796875 31.09375 35.6875 35.640625 
Q 32.59375 40.203125 26.90625 40.5 
Q 23.203125 40.703125 20.09375 38.84375 
Q 17 37 15.140625 32.703125 
Q 13.296875 28.40625 13.296875 21.296875 
Q 13.5 13.203125 16.890625 9.203125 
Q 20.296875 5.203125 25.796875 5.203125 
z
" id="Inconsolata-Regular-112"/>
      <path d="M 23.796875 30.796875 
Q 21.5 30.796875 19.703125 32.5 
Q 17.90625 34.203125 17.90625 36.5 
Q 17.90625 38.90625 19.703125 40.59375 
Q 21.5 42.296875 23.796875 42.296875 
Q 26.09375 42.296875 27.9375 40.59375 
Q 29.796875 38.90625 29.796875 36.5 
Q 29.796875 34.203125 28 32.5 
Q 26.203125 30.796875 23.796875 30.796875 
z
M 23.796875 -1.09375 
Q 21.296875 -1.09375 19.59375 0.546875 
Q 17.90625 2.203125 17.90625 4.59375 
Q 17.90625 7 19.703125 8.703125 
Q 21.5 10.40625 23.796875 10.40625 
Q 26.09375 10.40625 27.9375 8.703125 
Q 29.796875 7 29.796875 4.59375 
Q 29.796875 2.296875 28.046875 0.59375 
Q 26.296875 -1.09375 23.796875 -1.09375 
z
" id="Inconsolata-Regular-58"/>
      <path d="M 12.296875 -4.203125 
L 6.40625 -1.296875 
L 37.703125 66.5 
L 43.703125 63.40625 
z
" id="Inconsolata-Regular-47"/>
      <path d="M 41.78125 -8.90625 
L 41.78125 67 
L 13.171875 67 
L 13.171875 61 
L 35.375 61 
L 35.375 -3.203125 
L 13.078125 -3.203125 
L 13.078125 -8.90625 
z
" id="Inconsolata-Regular-93"/>
     </defs>
     <g transform="translate(93.8 54.540625)scale(0.1 -0.1)">
      <use xlink:href="#Inconsolata-Regular-91"/>
      <use x="49.999985" xlink:href="#Inconsolata-Regular-108"/>
      <use x="99.999969" xlink:href="#Inconsolata-Regular-97"/>
      <use x="149.999954" xlink:href="#Inconsolata-Regular-115"/>
      <use x="199.999939" xlink:href="#Inconsolata-Regular-116"/>
      <use x="249.999924" xlink:href="#Inconsolata-Regular-32"/>
      <use x="299.999908" xlink:href="#Inconsolata-Regular-117"/>
      <use x="349.999893" xlink:href="#Inconsolata-Regular-112"/>
      <use x="399.999878" xlink:href="#Inconsolata-Regular-100"/>
      <use x="449.999863" xlink:href="#Inconsolata-Regular-97"/>
      <use x="499.999847" xlink:href="#Inconsolata-Regular-116"/>
      <use x="549.999832" xlink:href="#Inconsolata-Regular-101"/>
      <use x="599.999817" xlink:href="#Inconsolata-Regular-100"/>
      <use x="649.999802" xlink:href="#Inconsolata-Regular-58"/>
      <use x="699.999786" xlink:href="#Inconsolata-Regular-32"/>
      <use x="749.999771" xlink:href="#Inconsolata-Regular-48"/>
      <use x="799.999756" xlink:href="#Inconsolata-Regular-52"/>
      <use x="849.999741" xlink:href="#Inconsolata-Regular-47"/>
      <use x="899.999725" xlink:href="#Inconsolata-Regular-48"/>
      <use x="949.99971" xlink:href="#Inconsolata-Regular-55"/>
      <use x="999.999695" xlink:href="#Inconsolata-Regular-47"/>
      <use x="1049.99968" xlink:href="#Inconsolata-Regular-50"/>
      <use x="1099.999664" xlink:href="#Inconsolata-Regular-48"/>
      <use x="1149.999649" xlink:href="#Inconsolata-Regular-50"/>
      <use x="1199.999634" xlink:href="#Inconsolata-Regular-48"/>
      <use x="1249.999619" xlink:href="#Inconsolata-Regular-93"/>
     </g>
    </g>
   </g>
  </g>
 </g>
 <defs>
  <clipPath id="p910522e912">
   <rect height="142.4" width="764.4" x="56.8" y="10.8"/>
  </clipPath>
 </defs>
</svg>
