<?xml version="1.0" encoding="utf-8" standalone="no"?>
<!DOCTYPE svg PUBLIC "-//W3C//DTD SVG 1.1//EN"
  "http://www.w3.org/Graphics/SVG/1.1/DTD/svg11.dtd">
<!-- Created with matplotlib (https://matplotlib.org/) -->
<svg height="432pt" version="1.1" viewBox="0 0 720 432" width="720pt" xmlns="http://www.w3.org/2000/svg" xmlns:xlink="http://www.w3.org/1999/xlink">
 <defs>
  <style type="text/css">
*{stroke-linecap:butt;stroke-linejoin:round;}
  </style>
 </defs>
 <g id="figure_1">
  <g id="patch_1">
   <path d="M 0 432 
L 720 432 
L 720 0 
L 0 0 
z
" style="fill:#ffffff;"/>
  </g>
  <g id="axes_1">
   <g id="patch_2">
    <path d="M 69.325 181 
L 678 181 
L 678 10 
L 69.325 10 
z
" style="fill:#e5e5e5;"/>
   </g>
   <g id="matplotlib.axis_1">
    <g id="xtick_1">
     <g id="line2d_1">
      <path clip-path="url(#p32a0a7d94d)" d="M 73.44045 181 
L 73.44045 10 
" style="fill:none;stroke:#ffffff;stroke-linecap:square;stroke-width:0.8;"/>
     </g>
     <g id="line2d_2">
      <defs>
       <path d="M 0 0 
L 0 3.5 
" id="m6f48aa0294" style="stroke:#555555;stroke-width:0.8;"/>
      </defs>
      <g>
       <use style="fill:#555555;stroke:#555555;stroke-width:0.8;" x="73.44045" xlink:href="#m6f48aa0294" y="181"/>
      </g>
     </g>
     <g id="text_1">
      <!-- 0 -->
      <defs>
       <path d="M 25 -1.09375 
Q 15.703125 -1.09375 10.703125 7.203125 
Q 5.703125 15.5 5.703125 30.796875 
Q 5.703125 45.59375 10.703125 54.140625 
Q 15.703125 62.703125 25 62.703125 
Q 34.296875 62.703125 39.296875 54.140625 
Q 44.296875 45.59375 44.296875 30.796875 
Q 44.296875 15.5 39.296875 7.203125 
Q 34.296875 -1.09375 25 -1.09375 
z
M 12.90625 30.796875 
Q 12.90625 24.40625 13.796875 19.40625 
L 35 46.703125 
Q 33.5 51.40625 30.953125 54 
Q 28.40625 56.59375 25 56.59375 
Q 19.296875 56.59375 16.09375 49.59375 
Q 12.90625 42.59375 12.90625 30.796875 
z
M 25 5 
Q 30.703125 5 33.890625 11.703125 
Q 37.09375 18.40625 37.09375 30.796875 
Q 37.09375 36.296875 36.40625 40.796875 
L 15.203125 13.90625 
Q 18.296875 5 25 5 
z
" id="Inconsolata-Regular-48"/>
      </defs>
      <g style="fill:#555555;" transform="translate(70.94045 194.65)scale(0.1 -0.1)">
       <use xlink:href="#Inconsolata-Regular-48"/>
      </g>
     </g>
    </g>
    <g id="xtick_2">
     <g id="line2d_3">
      <path clip-path="url(#p32a0a7d94d)" d="M 155.749442 181 
L 155.749442 10 
" style="fill:none;stroke:#ffffff;stroke-linecap:square;stroke-width:0.8;"/>
     </g>
     <g id="line2d_4">
      <g>
       <use style="fill:#555555;stroke:#555555;stroke-width:0.8;" x="155.749442" xlink:href="#m6f48aa0294" y="181"/>
      </g>
     </g>
     <g id="text_2">
      <!-- 20 -->
      <defs>
       <path d="M 7.296875 5.59375 
Q 14 12.5 19.390625 17.84375 
Q 24.796875 23.203125 28.59375 27.640625 
Q 32.40625 32.09375 34.40625 36.296875 
Q 36.40625 40.5 36.40625 45.09375 
Q 36.40625 51.59375 33.296875 54.09375 
Q 30.203125 56.59375 25.796875 56.59375 
Q 22.203125 56.59375 19.046875 55.046875 
Q 15.90625 53.5 13.296875 50.296875 
Q 12.40625 48.90625 12.203125 48.15625 
Q 12 47.40625 12.09375 46.59375 
L 11.703125 46.09375 
L 10.90625 46.59375 
L 5.796875 50.59375 
Q 8.796875 56.40625 14.046875 59.546875 
Q 19.296875 62.703125 25.703125 62.703125 
Q 33.59375 62.703125 38.59375 57.953125 
Q 43.59375 53.203125 43.59375 44.90625 
Q 43.59375 39.703125 41.296875 35 
Q 39 30.296875 35.140625 25.6875 
Q 31.296875 21.09375 26.390625 16.296875 
Q 21.5 11.5 16.296875 6.09375 
L 39.5 6.09375 
Q 41.203125 6.09375 41.890625 6.296875 
Q 42.59375 6.5 43.203125 7.09375 
L 43.90625 7.09375 
L 43.90625 0 
L 7.296875 0 
z
" id="Inconsolata-Regular-50"/>
      </defs>
      <g style="fill:#555555;" transform="translate(150.749442 194.65)scale(0.1 -0.1)">
       <use xlink:href="#Inconsolata-Regular-50"/>
       <use x="49.999985" xlink:href="#Inconsolata-Regular-48"/>
      </g>
     </g>
    </g>
    <g id="xtick_3">
     <g id="line2d_5">
      <path clip-path="url(#p32a0a7d94d)" d="M 238.058435 181 
L 238.058435 10 
" style="fill:none;stroke:#ffffff;stroke-linecap:square;stroke-width:0.8;"/>
     </g>
     <g id="line2d_6">
      <g>
       <use style="fill:#555555;stroke:#555555;stroke-width:0.8;" x="238.058435" xlink:href="#m6f48aa0294" y="181"/>
      </g>
     </g>
     <g id="text_3">
      <!-- 40 -->
      <defs>
       <path d="M 31.796875 0 
L 31.796875 15.296875 
L 4.796875 15.296875 
L 4.796875 20.40625 
L 33.296875 62.40625 
L 39.203125 62.40625 
L 39.203125 21.09375 
L 47.203125 21.09375 
L 47.203125 15.203125 
L 39.203125 15.203125 
L 39.203125 0 
z
M 12.90625 21.203125 
L 31.796875 21.203125 
L 31.796875 49.796875 
z
" id="Inconsolata-Regular-52"/>
      </defs>
      <g style="fill:#555555;" transform="translate(233.058435 194.65)scale(0.1 -0.1)">
       <use xlink:href="#Inconsolata-Regular-52"/>
       <use x="49.999985" xlink:href="#Inconsolata-Regular-48"/>
      </g>
     </g>
    </g>
    <g id="xtick_4">
     <g id="line2d_7">
      <path clip-path="url(#p32a0a7d94d)" d="M 320.367427 181 
L 320.367427 10 
" style="fill:none;stroke:#ffffff;stroke-linecap:square;stroke-width:0.8;"/>
     </g>
     <g id="line2d_8">
      <g>
       <use style="fill:#555555;stroke:#555555;stroke-width:0.8;" x="320.367427" xlink:href="#m6f48aa0294" y="181"/>
      </g>
     </g>
     <g id="text_4">
      <!-- 60 -->
      <defs>
       <path d="M 26.09375 -1 
Q 16.796875 -1 11.75 6.890625 
Q 6.703125 14.796875 6.703125 28.40625 
Q 6.703125 45.203125 12.703125 54.09375 
Q 18.703125 63 28.703125 63 
Q 36.59375 63 42.40625 57.296875 
L 38 52.296875 
L 37.296875 51.5 
L 36.796875 52 
Q 36.703125 52.796875 36.34375 53.5 
Q 36 54.203125 34.703125 55.296875 
Q 32.5 56.796875 28.90625 56.796875 
Q 26.90625 56.796875 24.296875 55.84375 
Q 21.703125 54.90625 19.296875 52.296875 
Q 16.90625 49.703125 15.296875 44.953125 
Q 13.703125 40.203125 13.59375 32.703125 
Q 15.703125 36.203125 19.25 38.203125 
Q 22.796875 40.203125 26.796875 40.203125 
Q 31.5 40.203125 35.34375 37.640625 
Q 39.203125 35.09375 41.546875 30.546875 
Q 43.90625 26 43.90625 19.796875 
Q 43.90625 13.59375 41.5 8.890625 
Q 39.09375 4.203125 35.09375 1.59375 
Q 31.09375 -1 26.09375 -1 
z
M 26.40625 5.203125 
Q 30.703125 5.203125 33.890625 8.890625 
Q 37.09375 12.59375 37.09375 19.703125 
Q 37.09375 24.703125 35.4375 27.890625 
Q 33.796875 31.09375 31.296875 32.59375 
Q 28.796875 34.09375 26.203125 34.09375 
Q 22.59375 34.09375 19.296875 31.640625 
Q 16 29.203125 14 25.703125 
Q 13.59375 22.296875 14.25 18.6875 
Q 14.90625 15.09375 16.546875 12.046875 
Q 18.203125 9 20.703125 7.09375 
Q 23.203125 5.203125 26.40625 5.203125 
z
" id="Inconsolata-Regular-54"/>
      </defs>
      <g style="fill:#555555;" transform="translate(315.367427 194.65)scale(0.1 -0.1)">
       <use xlink:href="#Inconsolata-Regular-54"/>
       <use x="49.999985" xlink:href="#Inconsolata-Regular-48"/>
      </g>
     </g>
    </g>
    <g id="xtick_5">
     <g id="line2d_9">
      <path clip-path="url(#p32a0a7d94d)" d="M 402.67642 181 
L 402.67642 10 
" style="fill:none;stroke:#ffffff;stroke-linecap:square;stroke-width:0.8;"/>
     </g>
     <g id="line2d_10">
      <g>
       <use style="fill:#555555;stroke:#555555;stroke-width:0.8;" x="402.67642" xlink:href="#m6f48aa0294" y="181"/>
      </g>
     </g>
     <g id="text_5">
      <!-- 80 -->
      <defs>
       <path d="M 25 -1 
Q 19.09375 -1 14.84375 1.25 
Q 10.59375 3.5 8.296875 7.296875 
Q 6 11.09375 6 15.703125 
Q 6 21.09375 9.390625 25.796875 
Q 12.796875 30.5 18.5 33.09375 
Q 14.203125 35.296875 11.59375 39.25 
Q 9 43.203125 9 47.703125 
Q 9 54.09375 13.140625 58.59375 
Q 17.296875 63.09375 25.5 63.09375 
Q 31.296875 63.09375 34.890625 61.09375 
Q 38.5 59.09375 40.25 55.75 
Q 42 52.40625 42 48.296875 
Q 42 43.796875 39.296875 39.75 
Q 36.59375 35.703125 32.09375 33.296875 
Q 37.5 30.796875 40.796875 26.140625 
Q 44.09375 21.5 44.09375 16.09375 
Q 44.09375 11.203125 41.75 7.34375 
Q 39.40625 3.5 35.15625 1.25 
Q 30.90625 -1 25 -1 
z
M 26.703125 35.796875 
Q 30.40625 37.796875 32.796875 41.1875 
Q 35.203125 44.59375 35.203125 48.09375 
Q 35.203125 51.59375 32.75 54.390625 
Q 30.296875 57.203125 25.296875 57.203125 
Q 20.40625 57.203125 18.046875 54.5 
Q 15.703125 51.796875 15.703125 48.40625 
Q 15.703125 43.796875 18.890625 41.046875 
Q 22.09375 38.296875 26.703125 35.796875 
z
M 25.203125 5.296875 
Q 31 5.296875 34 8.4375 
Q 37 11.59375 37 16.09375 
Q 37 20.703125 33.390625 24.546875 
Q 29.796875 28.40625 23.703125 30.296875 
Q 19.203125 28.40625 16.203125 24.65625 
Q 13.203125 20.90625 13.203125 16.40625 
Q 13.203125 11.90625 16.34375 8.59375 
Q 19.5 5.296875 25.203125 5.296875 
z
" id="Inconsolata-Regular-56"/>
      </defs>
      <g style="fill:#555555;" transform="translate(397.67642 194.65)scale(0.1 -0.1)">
       <use xlink:href="#Inconsolata-Regular-56"/>
       <use x="49.999985" xlink:href="#Inconsolata-Regular-48"/>
      </g>
     </g>
    </g>
    <g id="xtick_6">
     <g id="line2d_11">
      <path clip-path="url(#p32a0a7d94d)" d="M 484.985412 181 
L 484.985412 10 
" style="fill:none;stroke:#ffffff;stroke-linecap:square;stroke-width:0.8;"/>
     </g>
     <g id="line2d_12">
      <g>
       <use style="fill:#555555;stroke:#555555;stroke-width:0.8;" x="484.985412" xlink:href="#m6f48aa0294" y="181"/>
      </g>
     </g>
     <g id="text_6">
      <!-- 100 -->
      <defs>
       <path d="M 23 0 
L 23 53.703125 
L 10.40625 50 
L 8.796875 53.90625 
L 25.09375 62.40625 
L 30 62.40625 
L 30 0 
z
" id="Inconsolata-Regular-49"/>
      </defs>
      <g style="fill:#555555;" transform="translate(477.485412 194.65)scale(0.1 -0.1)">
       <use xlink:href="#Inconsolata-Regular-49"/>
       <use x="49.999985" xlink:href="#Inconsolata-Regular-48"/>
       <use x="99.999969" xlink:href="#Inconsolata-Regular-48"/>
      </g>
     </g>
    </g>
    <g id="xtick_7">
     <g id="line2d_13">
      <path clip-path="url(#p32a0a7d94d)" d="M 567.294405 181 
L 567.294405 10 
" style="fill:none;stroke:#ffffff;stroke-linecap:square;stroke-width:0.8;"/>
     </g>
     <g id="line2d_14">
      <g>
       <use style="fill:#555555;stroke:#555555;stroke-width:0.8;" x="567.294405" xlink:href="#m6f48aa0294" y="181"/>
      </g>
     </g>
     <g id="text_7">
      <!-- 120 -->
      <g style="fill:#555555;" transform="translate(559.794405 194.65)scale(0.1 -0.1)">
       <use xlink:href="#Inconsolata-Regular-49"/>
       <use x="49.999985" xlink:href="#Inconsolata-Regular-50"/>
       <use x="99.999969" xlink:href="#Inconsolata-Regular-48"/>
      </g>
     </g>
    </g>
    <g id="xtick_8">
     <g id="line2d_15">
      <path clip-path="url(#p32a0a7d94d)" d="M 649.603398 181 
L 649.603398 10 
" style="fill:none;stroke:#ffffff;stroke-linecap:square;stroke-width:0.8;"/>
     </g>
     <g id="line2d_16">
      <g>
       <use style="fill:#555555;stroke:#555555;stroke-width:0.8;" x="649.603398" xlink:href="#m6f48aa0294" y="181"/>
      </g>
     </g>
     <g id="text_8">
      <!-- 140 -->
      <g style="fill:#555555;" transform="translate(642.103398 194.65)scale(0.1 -0.1)">
       <use xlink:href="#Inconsolata-Regular-49"/>
       <use x="49.999985" xlink:href="#Inconsolata-Regular-52"/>
       <use x="99.999969" xlink:href="#Inconsolata-Regular-48"/>
      </g>
     </g>
    </g>
    <g id="text_9">
     <!-- days since 10 cases -->
     <defs>
      <path d="M 23.40625 -1 
Q 18.796875 -1 14.4375 1.640625 
Q 10.09375 4.296875 7.296875 9.6875 
Q 4.5 15.09375 4.5 23.296875 
Q 4.5 31.703125 7.390625 36.890625 
Q 10.296875 42.09375 14.75 44.5 
Q 19.203125 46.90625 23.796875 46.90625 
Q 28.5 46.90625 31.953125 44.75 
Q 35.40625 42.59375 37.09375 39 
L 37.09375 66.5 
L 44.703125 66.5 
L 44.703125 65.796875 
Q 44.09375 65.203125 43.9375 64.5 
Q 43.796875 63.796875 43.796875 62.09375 
L 43.90625 7.09375 
Q 43.90625 5.296875 44.046875 3.546875 
Q 44.203125 1.796875 44.90625 0 
L 37.796875 0 
Q 37.09375 1.796875 36.9375 3.546875 
Q 36.796875 5.296875 36.796875 7.09375 
Q 34.59375 3.40625 31.1875 1.203125 
Q 27.796875 -1 23.40625 -1 
z
M 24.5 5.296875 
Q 28.90625 5.296875 31.546875 7.6875 
Q 34.203125 10.09375 35.34375 14.140625 
Q 36.5 18.203125 36.5 23.09375 
Q 36.5 30.796875 33.5 35.890625 
Q 30.5 41 23.90625 41 
Q 17.796875 41 14.640625 36.5 
Q 11.5 32 11.5 24.40625 
Q 11.5 15.796875 14.796875 10.546875 
Q 18.09375 5.296875 24.5 5.296875 
z
" id="Inconsolata-Regular-100"/>
      <path d="M 21.09375 -1.09375 
Q 13.296875 -1.09375 9.09375 2.453125 
Q 4.90625 6 4.90625 11.5 
Q 4.90625 16.40625 8 19.953125 
Q 11.09375 23.5 16.34375 25.453125 
Q 21.59375 27.40625 27.90625 27.40625 
Q 30.203125 27.40625 32.75 27.296875 
Q 35.296875 27.203125 38.203125 26.796875 
Q 37.59375 34.796875 34.046875 37.796875 
Q 30.5 40.796875 23.90625 40.796875 
Q 20.59375 40.796875 17.390625 39.546875 
Q 14.203125 38.296875 11.59375 35.703125 
L 8.09375 40.296875 
Q 11.296875 43.5 15.5 45.09375 
Q 19.703125 46.703125 24.40625 46.703125 
Q 30.5 46.703125 35 44.703125 
Q 39.5 42.703125 42 37.796875 
Q 44.5 32.90625 44.5 24.296875 
L 44.5 0 
L 36.703125 0 
L 36.703125 7 
Q 35 3.703125 32.34375 1.953125 
Q 29.703125 0.203125 26.75 -0.4375 
Q 23.796875 -1.09375 21.09375 -1.09375 
z
M 12.09375 11.90625 
Q 12.09375 7.59375 14.890625 6 
Q 17.703125 4.40625 21.796875 4.40625 
Q 29.203125 4.40625 33.5 8.75 
Q 37.796875 13.09375 38.203125 21.296875 
Q 33 22 28.5 22 
Q 21.296875 22 16.6875 19.59375 
Q 12.09375 17.203125 12.09375 11.90625 
z
" id="Inconsolata-Regular-97"/>
      <path d="M 12.703125 -17.40625 
Q 6.296875 -17.40625 2.203125 -13.5 
L 5.296875 -8.59375 
L 5.90625 -7.703125 
L 6.5 -8.09375 
Q 6.703125 -8.90625 7.203125 -9.453125 
Q 7.703125 -10 9.09375 -10.90625 
Q 10.90625 -11.5 13.09375 -11.5 
Q 17 -11.5 19.203125 -8.75 
Q 21.40625 -6 23.296875 -0.296875 
L 4.59375 45.703125 
L 12.09375 45.703125 
L 26.296875 9.09375 
L 32.296875 27.5 
Q 33.796875 32.09375 35.1875 36.59375 
Q 36.59375 41.09375 37.09375 45.703125 
L 44.296875 45.703125 
Q 43.59375 41.09375 42.09375 36.390625 
Q 40.59375 31.703125 38.90625 27 
L 27.5 -5.203125 
Q 25.09375 -11.90625 21.34375 -14.65625 
Q 17.59375 -17.40625 12.703125 -17.40625 
z
" id="Inconsolata-Regular-121"/>
      <path d="M 25.09375 -1 
Q 13.5 -1 5.703125 6.203125 
L 9.703125 13 
L 10.296875 13.90625 
L 10.90625 13.5 
Q 11.09375 12.703125 11.34375 11.84375 
Q 11.59375 11 12.703125 9.796875 
Q 14.796875 7.703125 17.75 6.34375 
Q 20.703125 5 25.296875 5 
Q 30.796875 5 33.84375 6.953125 
Q 36.90625 8.90625 36.90625 12.296875 
Q 36.90625 15.203125 34.34375 17.09375 
Q 31.796875 19 25.40625 21.09375 
Q 17.5 23.40625 12.84375 26.796875 
Q 8.203125 30.203125 8.203125 35.296875 
Q 8.203125 40.5 12.453125 43.640625 
Q 16.703125 46.796875 25 46.796875 
Q 31.40625 46.796875 35.59375 45 
Q 39.796875 43.203125 43.203125 39.59375 
L 39.09375 34.59375 
L 38.40625 33.796875 
L 37.90625 34.296875 
Q 37.796875 35.09375 37.4375 35.84375 
Q 37.09375 36.59375 36 37.703125 
Q 33.703125 39.5 30.796875 40.453125 
Q 27.90625 41.40625 25.203125 41.40625 
Q 21.203125 41.40625 18.296875 40 
Q 15.40625 38.59375 15.40625 35.703125 
Q 15.40625 34.203125 16.453125 32.75 
Q 17.5 31.296875 20.296875 29.84375 
Q 23.09375 28.40625 28.296875 26.90625 
Q 36.90625 24.296875 40.453125 21.25 
Q 44 18.203125 44 13.296875 
Q 44 9.5 41.953125 6.203125 
Q 39.90625 2.90625 35.703125 0.953125 
Q 31.5 -1 25.09375 -1 
z
" id="Inconsolata-Regular-115"/>
      <path id="Inconsolata-Regular-32"/>
      <path d="M 10 0 
L 10 5.796875 
L 21.703125 5.796875 
L 21.703125 39.90625 
L 10.59375 39.90625 
L 10.59375 45.703125 
L 28.90625 45.703125 
L 28.90625 5.796875 
L 39.59375 5.796875 
L 39.59375 0 
z
M 24.90625 55.296875 
Q 22.796875 55.296875 21.296875 56.796875 
Q 19.796875 58.296875 19.796875 60.40625 
Q 19.796875 62.59375 21.25 64.09375 
Q 22.703125 65.59375 24.90625 65.59375 
Q 27 65.59375 28.546875 64.046875 
Q 30.09375 62.5 30.09375 60.40625 
Q 30.09375 58.296875 28.546875 56.796875 
Q 27 55.296875 24.90625 55.296875 
z
" id="Inconsolata-Regular-105"/>
      <path d="M 7.203125 0 
L 7.203125 45.703125 
L 14.203125 45.703125 
L 14.203125 37.59375 
Q 16.796875 41.796875 20.9375 44.296875 
Q 25.09375 46.796875 29.703125 46.796875 
Q 35.296875 46.796875 39.1875 42.4375 
Q 43.09375 38.09375 43.09375 27.703125 
L 43.09375 0 
L 36.09375 0 
L 36.09375 27.5 
Q 36.09375 34.703125 33.640625 37.59375 
Q 31.203125 40.5 27.703125 40.5 
Q 24.703125 40.5 21.546875 38.75 
Q 18.40625 37 16.296875 33.84375 
Q 14.203125 30.703125 14.203125 26.296875 
L 14.203125 0 
z
" id="Inconsolata-Regular-110"/>
      <path d="M 28.5 -1.09375 
Q 21.90625 -1.09375 16.703125 2 
Q 11.5 5.09375 8.546875 10.5 
Q 5.59375 15.90625 5.59375 22.796875 
Q 5.59375 29.703125 8.546875 35.046875 
Q 11.5 40.40625 16.640625 43.5 
Q 21.796875 46.59375 28.40625 46.59375 
Q 34 46.59375 38.453125 44.34375 
Q 42.90625 42.09375 45.703125 38.09375 
L 41.203125 33.703125 
L 40.5 33 
L 40 33.5 
Q 40 34.296875 39.640625 35 
Q 39.296875 35.703125 38.09375 36.90625 
Q 35.90625 38.90625 33.40625 39.703125 
Q 30.90625 40.5 27.59375 40.5 
Q 23.796875 40.5 20.4375 38.390625 
Q 17.09375 36.296875 15.046875 32.4375 
Q 13 28.59375 13 23.296875 
Q 13 18.203125 15.046875 14.140625 
Q 17.09375 10.09375 20.6875 7.75 
Q 24.296875 5.40625 28.90625 5.40625 
Q 35.796875 5.40625 40.796875 11 
L 45 6.09375 
Q 38.296875 -1.09375 28.5 -1.09375 
z
" id="Inconsolata-Regular-99"/>
      <path d="M 27.203125 -1 
Q 17.203125 -1 11.046875 5.09375 
Q 4.90625 11.203125 4.90625 22.703125 
Q 4.90625 30.5 7.75 35.84375 
Q 10.59375 41.203125 15.34375 44 
Q 20.09375 46.796875 25.90625 46.796875 
Q 31.09375 46.796875 35.296875 44.5 
Q 39.5 42.203125 42 37.390625 
Q 44.5 32.59375 44.5 25.09375 
Q 44.5 24.296875 44.453125 23.4375 
Q 44.40625 22.59375 44.296875 21.796875 
L 11.796875 21.796875 
Q 12.203125 13 16.75 8.890625 
Q 21.296875 4.796875 27.40625 4.796875 
Q 34.59375 4.796875 39.203125 9.90625 
L 43.203125 6 
Q 37.40625 -1 27.203125 -1 
z
M 12.09375 27.40625 
L 37.203125 27.40625 
Q 37.203125 33.796875 33.953125 37.546875 
Q 30.703125 41.296875 25.40625 41.296875 
Q 20.703125 41.296875 16.890625 37.9375 
Q 13.09375 34.59375 12.09375 27.40625 
z
" id="Inconsolata-Regular-101"/>
     </defs>
     <g style="fill:#555555;" transform="translate(316.6625 208.300312)scale(0.12 -0.12)">
      <use xlink:href="#Inconsolata-Regular-100"/>
      <use x="49.999985" xlink:href="#Inconsolata-Regular-97"/>
      <use x="99.999969" xlink:href="#Inconsolata-Regular-121"/>
      <use x="149.999954" xlink:href="#Inconsolata-Regular-115"/>
      <use x="199.999939" xlink:href="#Inconsolata-Regular-32"/>
      <use x="249.999924" xlink:href="#Inconsolata-Regular-115"/>
      <use x="299.999908" xlink:href="#Inconsolata-Regular-105"/>
      <use x="349.999893" xlink:href="#Inconsolata-Regular-110"/>
      <use x="399.999878" xlink:href="#Inconsolata-Regular-99"/>
      <use x="449.999863" xlink:href="#Inconsolata-Regular-101"/>
      <use x="499.999847" xlink:href="#Inconsolata-Regular-32"/>
      <use x="549.999832" xlink:href="#Inconsolata-Regular-49"/>
      <use x="599.999817" xlink:href="#Inconsolata-Regular-48"/>
      <use x="649.999802" xlink:href="#Inconsolata-Regular-32"/>
      <use x="699.999786" xlink:href="#Inconsolata-Regular-99"/>
      <use x="749.999771" xlink:href="#Inconsolata-Regular-97"/>
      <use x="799.999756" xlink:href="#Inconsolata-Regular-115"/>
      <use x="849.999741" xlink:href="#Inconsolata-Regular-101"/>
      <use x="899.999725" xlink:href="#Inconsolata-Regular-115"/>
     </g>
    </g>
   </g>
   <g id="matplotlib.axis_2">
    <g id="ytick_1">
     <g id="line2d_17">
      <path clip-path="url(#p32a0a7d94d)" d="M 69.325 181 
L 678 181 
" style="fill:none;stroke:#ffffff;stroke-linecap:square;stroke-width:0.8;"/>
     </g>
     <g id="line2d_18">
      <defs>
       <path d="M 0 0 
L -3.5 0 
" id="m05576a0482" style="stroke:#555555;stroke-width:0.8;"/>
      </defs>
      <g>
       <use style="fill:#555555;stroke:#555555;stroke-width:0.8;" x="69.325" xlink:href="#m05576a0482" y="181"/>
      </g>
     </g>
     <g id="line2d_19">
      <defs>
       <path d="M 0 0 
L 3.5 0 
" id="m4caf154d67" style="stroke:#555555;stroke-width:0.8;"/>
      </defs>
      <g>
       <use style="fill:#555555;stroke:#555555;stroke-width:0.8;" x="678" xlink:href="#m4caf154d67" y="181"/>
      </g>
     </g>
     <g id="text_10">
      <!-- 1 -->
      <g style="fill:#555555;" transform="translate(57.325 184.325)scale(0.1 -0.1)">
       <use xlink:href="#Inconsolata-Regular-49"/>
      </g>
     </g>
     <g id="text_11">
      <!-- 1 -->
      <g style="fill:#555555;" transform="translate(685 184.325)scale(0.1 -0.1)">
       <use xlink:href="#Inconsolata-Regular-49"/>
      </g>
     </g>
    </g>
    <g id="ytick_2">
     <g id="line2d_20">
      <path clip-path="url(#p32a0a7d94d)" d="M 69.325 146.416941 
L 678 146.416941 
" style="fill:none;stroke:#ffffff;stroke-linecap:square;stroke-width:0.8;"/>
     </g>
     <g id="line2d_21">
      <g>
       <use style="fill:#555555;stroke:#555555;stroke-width:0.8;" x="69.325" xlink:href="#m05576a0482" y="146.416941"/>
      </g>
     </g>
     <g id="line2d_22">
      <g>
       <use style="fill:#555555;stroke:#555555;stroke-width:0.8;" x="678" xlink:href="#m4caf154d67" y="146.416941"/>
      </g>
     </g>
     <g id="text_12">
      <!-- 10 -->
      <g style="fill:#555555;" transform="translate(52.325 149.741941)scale(0.1 -0.1)">
       <use xlink:href="#Inconsolata-Regular-49"/>
       <use x="49.999985" xlink:href="#Inconsolata-Regular-48"/>
      </g>
     </g>
     <g id="text_13">
      <!-- 10 -->
      <g style="fill:#555555;" transform="translate(685 149.741941)scale(0.1 -0.1)">
       <use xlink:href="#Inconsolata-Regular-49"/>
       <use x="49.999985" xlink:href="#Inconsolata-Regular-48"/>
      </g>
     </g>
    </g>
    <g id="ytick_3">
     <g id="line2d_23">
      <path clip-path="url(#p32a0a7d94d)" d="M 69.325 111.833882 
L 678 111.833882 
" style="fill:none;stroke:#ffffff;stroke-linecap:square;stroke-width:0.8;"/>
     </g>
     <g id="line2d_24">
      <g>
       <use style="fill:#555555;stroke:#555555;stroke-width:0.8;" x="69.325" xlink:href="#m05576a0482" y="111.833882"/>
      </g>
     </g>
     <g id="line2d_25">
      <g>
       <use style="fill:#555555;stroke:#555555;stroke-width:0.8;" x="678" xlink:href="#m4caf154d67" y="111.833882"/>
      </g>
     </g>
     <g id="text_14">
      <!-- 100 -->
      <g style="fill:#555555;" transform="translate(47.325 115.158882)scale(0.1 -0.1)">
       <use xlink:href="#Inconsolata-Regular-49"/>
       <use x="49.999985" xlink:href="#Inconsolata-Regular-48"/>
       <use x="99.999969" xlink:href="#Inconsolata-Regular-48"/>
      </g>
     </g>
     <g id="text_15">
      <!-- 100 -->
      <g style="fill:#555555;" transform="translate(685 115.158882)scale(0.1 -0.1)">
       <use xlink:href="#Inconsolata-Regular-49"/>
       <use x="49.999985" xlink:href="#Inconsolata-Regular-48"/>
       <use x="99.999969" xlink:href="#Inconsolata-Regular-48"/>
      </g>
     </g>
    </g>
    <g id="ytick_4">
     <g id="line2d_26">
      <path clip-path="url(#p32a0a7d94d)" d="M 69.325 77.250823 
L 678 77.250823 
" style="fill:none;stroke:#ffffff;stroke-linecap:square;stroke-width:0.8;"/>
     </g>
     <g id="line2d_27">
      <g>
       <use style="fill:#555555;stroke:#555555;stroke-width:0.8;" x="69.325" xlink:href="#m05576a0482" y="77.250823"/>
      </g>
     </g>
     <g id="line2d_28">
      <g>
       <use style="fill:#555555;stroke:#555555;stroke-width:0.8;" x="678" xlink:href="#m4caf154d67" y="77.250823"/>
      </g>
     </g>
     <g id="text_16">
      <!-- 1000 -->
      <g style="fill:#555555;" transform="translate(42.325 80.575823)scale(0.1 -0.1)">
       <use xlink:href="#Inconsolata-Regular-49"/>
       <use x="49.999985" xlink:href="#Inconsolata-Regular-48"/>
       <use x="99.999969" xlink:href="#Inconsolata-Regular-48"/>
       <use x="149.999954" xlink:href="#Inconsolata-Regular-48"/>
      </g>
     </g>
     <g id="text_17">
      <!-- 1000 -->
      <g style="fill:#555555;" transform="translate(685 80.575823)scale(0.1 -0.1)">
       <use xlink:href="#Inconsolata-Regular-49"/>
       <use x="49.999985" xlink:href="#Inconsolata-Regular-48"/>
       <use x="99.999969" xlink:href="#Inconsolata-Regular-48"/>
       <use x="149.999954" xlink:href="#Inconsolata-Regular-48"/>
      </g>
     </g>
    </g>
    <g id="ytick_5">
     <g id="line2d_29">
      <path clip-path="url(#p32a0a7d94d)" d="M 69.325 42.667764 
L 678 42.667764 
" style="fill:none;stroke:#ffffff;stroke-linecap:square;stroke-width:0.8;"/>
     </g>
     <g id="line2d_30">
      <g>
       <use style="fill:#555555;stroke:#555555;stroke-width:0.8;" x="69.325" xlink:href="#m05576a0482" y="42.667764"/>
      </g>
     </g>
     <g id="line2d_31">
      <g>
       <use style="fill:#555555;stroke:#555555;stroke-width:0.8;" x="678" xlink:href="#m4caf154d67" y="42.667764"/>
      </g>
     </g>
     <g id="text_18">
      <!-- 10000 -->
      <g style="fill:#555555;" transform="translate(37.325 45.992764)scale(0.1 -0.1)">
       <use xlink:href="#Inconsolata-Regular-49"/>
       <use x="49.999985" xlink:href="#Inconsolata-Regular-48"/>
       <use x="99.999969" xlink:href="#Inconsolata-Regular-48"/>
       <use x="149.999954" xlink:href="#Inconsolata-Regular-48"/>
       <use x="199.999939" xlink:href="#Inconsolata-Regular-48"/>
      </g>
     </g>
     <g id="text_19">
      <!-- 10000 -->
      <g style="fill:#555555;" transform="translate(685 45.992764)scale(0.1 -0.1)">
       <use xlink:href="#Inconsolata-Regular-49"/>
       <use x="49.999985" xlink:href="#Inconsolata-Regular-48"/>
       <use x="99.999969" xlink:href="#Inconsolata-Regular-48"/>
       <use x="149.999954" xlink:href="#Inconsolata-Regular-48"/>
       <use x="199.999939" xlink:href="#Inconsolata-Regular-48"/>
      </g>
     </g>
    </g>
    <g id="ytick_6">
     <g id="line2d_32">
      <defs>
       <path d="M 0 0 
L -2 0 
" id="m92d97796ed" style="stroke:#555555;stroke-width:0.6;"/>
      </defs>
      <g>
       <use style="fill:#555555;stroke:#555555;stroke-width:0.6;" x="69.325" xlink:href="#m92d97796ed" y="170.589462"/>
      </g>
     </g>
     <g id="line2d_33">
      <defs>
       <path d="M 0 0 
L 2 0 
" id="m61ced0745f" style="stroke:#555555;stroke-width:0.6;"/>
      </defs>
      <g>
       <use style="fill:#555555;stroke:#555555;stroke-width:0.6;" x="678" xlink:href="#m61ced0745f" y="170.589462"/>
      </g>
     </g>
    </g>
    <g id="ytick_7">
     <g id="line2d_34">
      <g>
       <use style="fill:#555555;stroke:#555555;stroke-width:0.6;" x="69.325" xlink:href="#m92d97796ed" y="164.499688"/>
      </g>
     </g>
     <g id="line2d_35">
      <g>
       <use style="fill:#555555;stroke:#555555;stroke-width:0.6;" x="678" xlink:href="#m61ced0745f" y="164.499688"/>
      </g>
     </g>
    </g>
    <g id="ytick_8">
     <g id="line2d_36">
      <g>
       <use style="fill:#555555;stroke:#555555;stroke-width:0.6;" x="69.325" xlink:href="#m92d97796ed" y="160.178924"/>
      </g>
     </g>
     <g id="line2d_37">
      <g>
       <use style="fill:#555555;stroke:#555555;stroke-width:0.6;" x="678" xlink:href="#m61ced0745f" y="160.178924"/>
      </g>
     </g>
    </g>
    <g id="ytick_9">
     <g id="line2d_38">
      <g>
       <use style="fill:#555555;stroke:#555555;stroke-width:0.6;" x="69.325" xlink:href="#m92d97796ed" y="156.827479"/>
      </g>
     </g>
     <g id="line2d_39">
      <g>
       <use style="fill:#555555;stroke:#555555;stroke-width:0.6;" x="678" xlink:href="#m61ced0745f" y="156.827479"/>
      </g>
     </g>
    </g>
    <g id="ytick_10">
     <g id="line2d_40">
      <g>
       <use style="fill:#555555;stroke:#555555;stroke-width:0.6;" x="69.325" xlink:href="#m92d97796ed" y="154.089149"/>
      </g>
     </g>
     <g id="line2d_41">
      <g>
       <use style="fill:#555555;stroke:#555555;stroke-width:0.6;" x="678" xlink:href="#m61ced0745f" y="154.089149"/>
      </g>
     </g>
    </g>
    <g id="ytick_11">
     <g id="line2d_42">
      <g>
       <use style="fill:#555555;stroke:#555555;stroke-width:0.6;" x="69.325" xlink:href="#m92d97796ed" y="151.773925"/>
      </g>
     </g>
     <g id="line2d_43">
      <g>
       <use style="fill:#555555;stroke:#555555;stroke-width:0.6;" x="678" xlink:href="#m61ced0745f" y="151.773925"/>
      </g>
     </g>
    </g>
    <g id="ytick_12">
     <g id="line2d_44">
      <g>
       <use style="fill:#555555;stroke:#555555;stroke-width:0.6;" x="69.325" xlink:href="#m92d97796ed" y="149.768386"/>
      </g>
     </g>
     <g id="line2d_45">
      <g>
       <use style="fill:#555555;stroke:#555555;stroke-width:0.6;" x="678" xlink:href="#m61ced0745f" y="149.768386"/>
      </g>
     </g>
    </g>
    <g id="ytick_13">
     <g id="line2d_46">
      <g>
       <use style="fill:#555555;stroke:#555555;stroke-width:0.6;" x="69.325" xlink:href="#m92d97796ed" y="147.999375"/>
      </g>
     </g>
     <g id="line2d_47">
      <g>
       <use style="fill:#555555;stroke:#555555;stroke-width:0.6;" x="678" xlink:href="#m61ced0745f" y="147.999375"/>
      </g>
     </g>
    </g>
    <g id="ytick_14">
     <g id="line2d_48">
      <g>
       <use style="fill:#555555;stroke:#555555;stroke-width:0.6;" x="69.325" xlink:href="#m92d97796ed" y="136.006403"/>
      </g>
     </g>
     <g id="line2d_49">
      <g>
       <use style="fill:#555555;stroke:#555555;stroke-width:0.6;" x="678" xlink:href="#m61ced0745f" y="136.006403"/>
      </g>
     </g>
    </g>
    <g id="ytick_15">
     <g id="line2d_50">
      <g>
       <use style="fill:#555555;stroke:#555555;stroke-width:0.6;" x="69.325" xlink:href="#m92d97796ed" y="129.916629"/>
      </g>
     </g>
     <g id="line2d_51">
      <g>
       <use style="fill:#555555;stroke:#555555;stroke-width:0.6;" x="678" xlink:href="#m61ced0745f" y="129.916629"/>
      </g>
     </g>
    </g>
    <g id="ytick_16">
     <g id="line2d_52">
      <g>
       <use style="fill:#555555;stroke:#555555;stroke-width:0.6;" x="69.325" xlink:href="#m92d97796ed" y="125.595865"/>
      </g>
     </g>
     <g id="line2d_53">
      <g>
       <use style="fill:#555555;stroke:#555555;stroke-width:0.6;" x="678" xlink:href="#m61ced0745f" y="125.595865"/>
      </g>
     </g>
    </g>
    <g id="ytick_17">
     <g id="line2d_54">
      <g>
       <use style="fill:#555555;stroke:#555555;stroke-width:0.6;" x="69.325" xlink:href="#m92d97796ed" y="122.24442"/>
      </g>
     </g>
     <g id="line2d_55">
      <g>
       <use style="fill:#555555;stroke:#555555;stroke-width:0.6;" x="678" xlink:href="#m61ced0745f" y="122.24442"/>
      </g>
     </g>
    </g>
    <g id="ytick_18">
     <g id="line2d_56">
      <g>
       <use style="fill:#555555;stroke:#555555;stroke-width:0.6;" x="69.325" xlink:href="#m92d97796ed" y="119.506091"/>
      </g>
     </g>
     <g id="line2d_57">
      <g>
       <use style="fill:#555555;stroke:#555555;stroke-width:0.6;" x="678" xlink:href="#m61ced0745f" y="119.506091"/>
      </g>
     </g>
    </g>
    <g id="ytick_19">
     <g id="line2d_58">
      <g>
       <use style="fill:#555555;stroke:#555555;stroke-width:0.6;" x="69.325" xlink:href="#m92d97796ed" y="117.190866"/>
      </g>
     </g>
     <g id="line2d_59">
      <g>
       <use style="fill:#555555;stroke:#555555;stroke-width:0.6;" x="678" xlink:href="#m61ced0745f" y="117.190866"/>
      </g>
     </g>
    </g>
    <g id="ytick_20">
     <g id="line2d_60">
      <g>
       <use style="fill:#555555;stroke:#555555;stroke-width:0.6;" x="69.325" xlink:href="#m92d97796ed" y="115.185327"/>
      </g>
     </g>
     <g id="line2d_61">
      <g>
       <use style="fill:#555555;stroke:#555555;stroke-width:0.6;" x="678" xlink:href="#m61ced0745f" y="115.185327"/>
      </g>
     </g>
    </g>
    <g id="ytick_21">
     <g id="line2d_62">
      <g>
       <use style="fill:#555555;stroke:#555555;stroke-width:0.6;" x="69.325" xlink:href="#m92d97796ed" y="113.416316"/>
      </g>
     </g>
     <g id="line2d_63">
      <g>
       <use style="fill:#555555;stroke:#555555;stroke-width:0.6;" x="678" xlink:href="#m61ced0745f" y="113.416316"/>
      </g>
     </g>
    </g>
    <g id="ytick_22">
     <g id="line2d_64">
      <g>
       <use style="fill:#555555;stroke:#555555;stroke-width:0.6;" x="69.325" xlink:href="#m92d97796ed" y="101.423344"/>
      </g>
     </g>
     <g id="line2d_65">
      <g>
       <use style="fill:#555555;stroke:#555555;stroke-width:0.6;" x="678" xlink:href="#m61ced0745f" y="101.423344"/>
      </g>
     </g>
    </g>
    <g id="ytick_23">
     <g id="line2d_66">
      <g>
       <use style="fill:#555555;stroke:#555555;stroke-width:0.6;" x="69.325" xlink:href="#m92d97796ed" y="95.33357"/>
      </g>
     </g>
     <g id="line2d_67">
      <g>
       <use style="fill:#555555;stroke:#555555;stroke-width:0.6;" x="678" xlink:href="#m61ced0745f" y="95.33357"/>
      </g>
     </g>
    </g>
    <g id="ytick_24">
     <g id="line2d_68">
      <g>
       <use style="fill:#555555;stroke:#555555;stroke-width:0.6;" x="69.325" xlink:href="#m92d97796ed" y="91.012806"/>
      </g>
     </g>
     <g id="line2d_69">
      <g>
       <use style="fill:#555555;stroke:#555555;stroke-width:0.6;" x="678" xlink:href="#m61ced0745f" y="91.012806"/>
      </g>
     </g>
    </g>
    <g id="ytick_25">
     <g id="line2d_70">
      <g>
       <use style="fill:#555555;stroke:#555555;stroke-width:0.6;" x="69.325" xlink:href="#m92d97796ed" y="87.661361"/>
      </g>
     </g>
     <g id="line2d_71">
      <g>
       <use style="fill:#555555;stroke:#555555;stroke-width:0.6;" x="678" xlink:href="#m61ced0745f" y="87.661361"/>
      </g>
     </g>
    </g>
    <g id="ytick_26">
     <g id="line2d_72">
      <g>
       <use style="fill:#555555;stroke:#555555;stroke-width:0.6;" x="69.325" xlink:href="#m92d97796ed" y="84.923032"/>
      </g>
     </g>
     <g id="line2d_73">
      <g>
       <use style="fill:#555555;stroke:#555555;stroke-width:0.6;" x="678" xlink:href="#m61ced0745f" y="84.923032"/>
      </g>
     </g>
    </g>
    <g id="ytick_27">
     <g id="line2d_74">
      <g>
       <use style="fill:#555555;stroke:#555555;stroke-width:0.6;" x="69.325" xlink:href="#m92d97796ed" y="82.607807"/>
      </g>
     </g>
     <g id="line2d_75">
      <g>
       <use style="fill:#555555;stroke:#555555;stroke-width:0.6;" x="678" xlink:href="#m61ced0745f" y="82.607807"/>
      </g>
     </g>
    </g>
    <g id="ytick_28">
     <g id="line2d_76">
      <g>
       <use style="fill:#555555;stroke:#555555;stroke-width:0.6;" x="69.325" xlink:href="#m92d97796ed" y="80.602268"/>
      </g>
     </g>
     <g id="line2d_77">
      <g>
       <use style="fill:#555555;stroke:#555555;stroke-width:0.6;" x="678" xlink:href="#m61ced0745f" y="80.602268"/>
      </g>
     </g>
    </g>
    <g id="ytick_29">
     <g id="line2d_78">
      <g>
       <use style="fill:#555555;stroke:#555555;stroke-width:0.6;" x="69.325" xlink:href="#m92d97796ed" y="78.833257"/>
      </g>
     </g>
     <g id="line2d_79">
      <g>
       <use style="fill:#555555;stroke:#555555;stroke-width:0.6;" x="678" xlink:href="#m61ced0745f" y="78.833257"/>
      </g>
     </g>
    </g>
    <g id="ytick_30">
     <g id="line2d_80">
      <g>
       <use style="fill:#555555;stroke:#555555;stroke-width:0.6;" x="69.325" xlink:href="#m92d97796ed" y="66.840285"/>
      </g>
     </g>
     <g id="line2d_81">
      <g>
       <use style="fill:#555555;stroke:#555555;stroke-width:0.6;" x="678" xlink:href="#m61ced0745f" y="66.840285"/>
      </g>
     </g>
    </g>
    <g id="ytick_31">
     <g id="line2d_82">
      <g>
       <use style="fill:#555555;stroke:#555555;stroke-width:0.6;" x="69.325" xlink:href="#m92d97796ed" y="60.750511"/>
      </g>
     </g>
     <g id="line2d_83">
      <g>
       <use style="fill:#555555;stroke:#555555;stroke-width:0.6;" x="678" xlink:href="#m61ced0745f" y="60.750511"/>
      </g>
     </g>
    </g>
    <g id="ytick_32">
     <g id="line2d_84">
      <g>
       <use style="fill:#555555;stroke:#555555;stroke-width:0.6;" x="69.325" xlink:href="#m92d97796ed" y="56.429747"/>
      </g>
     </g>
     <g id="line2d_85">
      <g>
       <use style="fill:#555555;stroke:#555555;stroke-width:0.6;" x="678" xlink:href="#m61ced0745f" y="56.429747"/>
      </g>
     </g>
    </g>
    <g id="ytick_33">
     <g id="line2d_86">
      <g>
       <use style="fill:#555555;stroke:#555555;stroke-width:0.6;" x="69.325" xlink:href="#m92d97796ed" y="53.078303"/>
      </g>
     </g>
     <g id="line2d_87">
      <g>
       <use style="fill:#555555;stroke:#555555;stroke-width:0.6;" x="678" xlink:href="#m61ced0745f" y="53.078303"/>
      </g>
     </g>
    </g>
    <g id="ytick_34">
     <g id="line2d_88">
      <g>
       <use style="fill:#555555;stroke:#555555;stroke-width:0.6;" x="69.325" xlink:href="#m92d97796ed" y="50.339973"/>
      </g>
     </g>
     <g id="line2d_89">
      <g>
       <use style="fill:#555555;stroke:#555555;stroke-width:0.6;" x="678" xlink:href="#m61ced0745f" y="50.339973"/>
      </g>
     </g>
    </g>
    <g id="ytick_35">
     <g id="line2d_90">
      <g>
       <use style="fill:#555555;stroke:#555555;stroke-width:0.6;" x="69.325" xlink:href="#m92d97796ed" y="48.024748"/>
      </g>
     </g>
     <g id="line2d_91">
      <g>
       <use style="fill:#555555;stroke:#555555;stroke-width:0.6;" x="678" xlink:href="#m61ced0745f" y="48.024748"/>
      </g>
     </g>
    </g>
    <g id="ytick_36">
     <g id="line2d_92">
      <g>
       <use style="fill:#555555;stroke:#555555;stroke-width:0.6;" x="69.325" xlink:href="#m92d97796ed" y="46.019209"/>
      </g>
     </g>
     <g id="line2d_93">
      <g>
       <use style="fill:#555555;stroke:#555555;stroke-width:0.6;" x="678" xlink:href="#m61ced0745f" y="46.019209"/>
      </g>
     </g>
    </g>
    <g id="ytick_37">
     <g id="line2d_94">
      <g>
       <use style="fill:#555555;stroke:#555555;stroke-width:0.6;" x="69.325" xlink:href="#m92d97796ed" y="44.250198"/>
      </g>
     </g>
     <g id="line2d_95">
      <g>
       <use style="fill:#555555;stroke:#555555;stroke-width:0.6;" x="678" xlink:href="#m61ced0745f" y="44.250198"/>
      </g>
     </g>
    </g>
    <g id="ytick_38">
     <g id="line2d_96">
      <g>
       <use style="fill:#555555;stroke:#555555;stroke-width:0.6;" x="69.325" xlink:href="#m92d97796ed" y="32.257226"/>
      </g>
     </g>
     <g id="line2d_97">
      <g>
       <use style="fill:#555555;stroke:#555555;stroke-width:0.6;" x="678" xlink:href="#m61ced0745f" y="32.257226"/>
      </g>
     </g>
    </g>
    <g id="ytick_39">
     <g id="line2d_98">
      <g>
       <use style="fill:#555555;stroke:#555555;stroke-width:0.6;" x="69.325" xlink:href="#m92d97796ed" y="26.167452"/>
      </g>
     </g>
     <g id="line2d_99">
      <g>
       <use style="fill:#555555;stroke:#555555;stroke-width:0.6;" x="678" xlink:href="#m61ced0745f" y="26.167452"/>
      </g>
     </g>
    </g>
    <g id="ytick_40">
     <g id="line2d_100">
      <g>
       <use style="fill:#555555;stroke:#555555;stroke-width:0.6;" x="69.325" xlink:href="#m92d97796ed" y="21.846688"/>
      </g>
     </g>
     <g id="line2d_101">
      <g>
       <use style="fill:#555555;stroke:#555555;stroke-width:0.6;" x="678" xlink:href="#m61ced0745f" y="21.846688"/>
      </g>
     </g>
    </g>
    <g id="ytick_41">
     <g id="line2d_102">
      <g>
       <use style="fill:#555555;stroke:#555555;stroke-width:0.6;" x="69.325" xlink:href="#m92d97796ed" y="18.495244"/>
      </g>
     </g>
     <g id="line2d_103">
      <g>
       <use style="fill:#555555;stroke:#555555;stroke-width:0.6;" x="678" xlink:href="#m61ced0745f" y="18.495244"/>
      </g>
     </g>
    </g>
    <g id="ytick_42">
     <g id="line2d_104">
      <g>
       <use style="fill:#555555;stroke:#555555;stroke-width:0.6;" x="69.325" xlink:href="#m92d97796ed" y="15.756914"/>
      </g>
     </g>
     <g id="line2d_105">
      <g>
       <use style="fill:#555555;stroke:#555555;stroke-width:0.6;" x="678" xlink:href="#m61ced0745f" y="15.756914"/>
      </g>
     </g>
    </g>
    <g id="ytick_43">
     <g id="line2d_106">
      <g>
       <use style="fill:#555555;stroke:#555555;stroke-width:0.6;" x="69.325" xlink:href="#m92d97796ed" y="13.441689"/>
      </g>
     </g>
     <g id="line2d_107">
      <g>
       <use style="fill:#555555;stroke:#555555;stroke-width:0.6;" x="678" xlink:href="#m61ced0745f" y="13.441689"/>
      </g>
     </g>
    </g>
    <g id="ytick_44">
     <g id="line2d_108">
      <g>
       <use style="fill:#555555;stroke:#555555;stroke-width:0.6;" x="69.325" xlink:href="#m92d97796ed" y="11.43615"/>
      </g>
     </g>
     <g id="line2d_109">
      <g>
       <use style="fill:#555555;stroke:#555555;stroke-width:0.6;" x="678" xlink:href="#m61ced0745f" y="11.43615"/>
      </g>
     </g>
    </g>
    <g id="text_20">
     <!-- daily new cases -->
     <defs>
      <path d="M 7.90625 0 
L 7.90625 5.796875 
L 21.40625 5.796875 
L 21.40625 60.703125 
L 8.5 60.703125 
L 8.5 66.5 
L 28.703125 66.5 
L 28.703125 5.796875 
L 42.09375 5.796875 
L 42.09375 0 
z
" id="Inconsolata-Regular-108"/>
      <path d="M 10.796875 -0.09375 
L 1.59375 45.703125 
L 7.90625 45.703125 
L 15.296875 9 
L 23.09375 41.40625 
L 27.5 41.40625 
L 37.203125 9.09375 
Q 38.5 18 39.34375 23.703125 
Q 40.203125 29.40625 40.640625 33.046875 
Q 41.09375 36.703125 41.25 39.203125 
Q 41.40625 41.703125 41.40625 44.203125 
L 41.40625 45.703125 
L 48.09375 45.703125 
Q 45.09375 22.5 40.5 -0.09375 
L 33.703125 -0.09375 
L 25.296875 29.5 
L 17.296875 -0.09375 
z
" id="Inconsolata-Regular-119"/>
     </defs>
     <g style="fill:#555555;" transform="translate(18.5635 140.5)rotate(-90)scale(0.12 -0.12)">
      <use xlink:href="#Inconsolata-Regular-100"/>
      <use x="49.999985" xlink:href="#Inconsolata-Regular-97"/>
      <use x="99.999969" xlink:href="#Inconsolata-Regular-105"/>
      <use x="149.999954" xlink:href="#Inconsolata-Regular-108"/>
      <use x="199.999939" xlink:href="#Inconsolata-Regular-121"/>
      <use x="249.999924" xlink:href="#Inconsolata-Regular-32"/>
      <use x="299.999908" xlink:href="#Inconsolata-Regular-110"/>
      <use x="349.999893" xlink:href="#Inconsolata-Regular-101"/>
      <use x="399.999878" xlink:href="#Inconsolata-Regular-119"/>
      <use x="449.999863" xlink:href="#Inconsolata-Regular-32"/>
      <use x="499.999847" xlink:href="#Inconsolata-Regular-99"/>
      <use x="549.999832" xlink:href="#Inconsolata-Regular-97"/>
      <use x="599.999817" xlink:href="#Inconsolata-Regular-115"/>
      <use x="649.999802" xlink:href="#Inconsolata-Regular-101"/>
      <use x="699.999786" xlink:href="#Inconsolata-Regular-115"/>
     </g>
     <!-- (rolling 7-day mean) -->
     <defs>
      <path d="M 39.5 -10.40625 
Q 31.203125 -6.5 25.046875 0.046875 
Q 18.90625 6.59375 15.546875 14.84375 
Q 12.203125 23.09375 12.203125 32 
Q 12.203125 40.90625 15.5 48.953125 
Q 18.796875 57 24.796875 63.34375 
Q 30.796875 69.703125 38.90625 73.5 
L 40.796875 67.296875 
Q 34.40625 63.796875 29.546875 58.296875 
Q 24.703125 52.796875 22 46 
Q 19.296875 39.203125 19.296875 31.703125 
Q 19.296875 24.203125 22 17.296875 
Q 24.703125 10.40625 29.703125 4.796875 
Q 34.703125 -0.796875 41.40625 -4.40625 
z
" id="Inconsolata-Regular-40"/>
      <path d="M 11.90625 45.703125 
L 19.40625 45.703125 
L 19.203125 37.296875 
Q 21.09375 41.90625 25.09375 44.34375 
Q 29.09375 46.796875 33.703125 46.796875 
Q 41 46.796875 45.796875 41.796875 
L 42.59375 36.203125 
L 42.203125 35.296875 
L 41.5 35.703125 
Q 41.296875 36.5 40.890625 37.203125 
Q 40.5 37.90625 39.203125 38.90625 
Q 37.59375 39.90625 36.25 40.25 
Q 34.90625 40.59375 33.203125 40.59375 
Q 29.90625 40.59375 26.65625 38.890625 
Q 23.40625 37.203125 21.296875 33.59375 
Q 19.203125 30 19.203125 24.203125 
L 19.203125 -0.09375 
L 11.90625 -0.09375 
z
" id="Inconsolata-Regular-114"/>
      <path d="M 25 -0.796875 
Q 18.796875 -0.796875 14.046875 2.25 
Q 9.296875 5.296875 6.59375 10.640625 
Q 3.90625 16 3.90625 22.90625 
Q 3.90625 29.90625 6.59375 35.25 
Q 9.296875 40.59375 14.046875 43.640625 
Q 18.796875 46.703125 25 46.703125 
Q 31.203125 46.703125 35.953125 43.640625 
Q 40.703125 40.59375 43.390625 35.25 
Q 46.09375 29.90625 46.09375 22.90625 
Q 46.09375 16 43.390625 10.640625 
Q 40.703125 5.296875 35.953125 2.25 
Q 31.203125 -0.796875 25 -0.796875 
z
M 25 5.203125 
Q 29 5.203125 32 7.5 
Q 35 9.796875 36.75 13.796875 
Q 38.5 17.796875 38.5 23 
Q 38.5 30.796875 34.703125 35.75 
Q 30.90625 40.703125 25 40.703125 
Q 19.09375 40.703125 15.296875 35.75 
Q 11.5 30.796875 11.5 23 
Q 11.5 17.796875 13.25 13.796875 
Q 15 9.796875 18.046875 7.5 
Q 21.09375 5.203125 25 5.203125 
z
" id="Inconsolata-Regular-111"/>
      <path d="M 22.59375 15.5 
Q 18.703125 15.5 15.5 16.90625 
Q 13.703125 14.703125 13.703125 12.703125 
Q 13.703125 10.296875 16.703125 9.25 
Q 19.703125 8.203125 27.703125 8.203125 
Q 34.703125 8.203125 38.296875 6.703125 
Q 41.90625 5.203125 43.203125 2.59375 
Q 44.5 0 44.5 -3.40625 
Q 44.5 -6.90625 42.59375 -10.09375 
Q 40.703125 -13.296875 36.34375 -15.25 
Q 32 -17.203125 24.703125 -17.203125 
Q 15.09375 -17.203125 9.4375 -14.25 
Q 3.796875 -11.296875 3.796875 -5.40625 
Q 3.796875 -1.703125 5.890625 0.9375 
Q 8 3.59375 10.90625 4.90625 
Q 7.59375 7.09375 7.59375 11 
Q 7.59375 13.203125 8.6875 15.296875 
Q 9.796875 17.40625 11.703125 19.40625 
Q 6.59375 23.90625 6.59375 31.5 
Q 6.59375 35.90625 8.546875 39.5 
Q 10.5 43.09375 14.09375 45.25 
Q 17.703125 47.40625 22.59375 47.40625 
Q 26.296875 47.40625 29.25 46.15625 
Q 32.203125 44.90625 34.296875 42.703125 
Q 36.90625 45.09375 39.796875 46.140625 
Q 42.703125 47.203125 46.59375 46.90625 
L 47.5 41 
Q 44.5 41.296875 41.84375 40.890625 
Q 39.203125 40.5 36.90625 39 
Q 38.59375 35.59375 38.59375 31.5 
Q 38.59375 27.09375 36.640625 23.4375 
Q 34.703125 19.796875 31.140625 17.640625 
Q 27.59375 15.5 22.59375 15.5 
z
M 22.59375 21.5 
Q 27 21.5 29.796875 24.453125 
Q 32.59375 27.40625 32.59375 31.5 
Q 32.59375 35.59375 29.796875 38.546875 
Q 27 41.5 22.59375 41.5 
Q 18.296875 41.5 15.4375 38.546875 
Q 12.59375 35.59375 12.59375 31.5 
Q 12.59375 27.40625 15.4375 24.453125 
Q 18.296875 21.5 22.59375 21.5 
z
M 10.40625 -4.59375 
Q 10.40625 -8 14.25 -9.890625 
Q 18.09375 -11.796875 24.796875 -11.796875 
Q 31.59375 -11.796875 34.75 -9.75 
Q 37.90625 -7.703125 37.90625 -4.5 
Q 37.90625 -2.296875 37.09375 -0.890625 
Q 36.296875 0.5 33.796875 1.203125 
Q 31.296875 1.90625 26.203125 1.90625 
Q 22.703125 1.90625 19.84375 2.203125 
Q 17 2.5 14.703125 3.203125 
Q 12.40625 1.59375 11.40625 -0.046875 
Q 10.40625 -1.703125 10.40625 -4.59375 
z
" id="Inconsolata-Regular-103"/>
      <path d="M 15.5 0 
Q 19.90625 14.296875 24.59375 28.09375 
Q 29.296875 41.90625 34.5 55.703125 
L 7.90625 55.703125 
L 7.90625 62.296875 
L 43.203125 62.296875 
L 43.203125 58.40625 
Q 37.5 44 32.5 29.5 
Q 27.5 15 23.40625 0 
z
" id="Inconsolata-Regular-55"/>
      <path d="M 11.09375 28.09375 
L 11.09375 34.796875 
L 39.09375 34.796875 
L 39.09375 28.09375 
z
" id="Inconsolata-Regular-45"/>
      <path d="M 3.796875 0 
L 3.796875 45.703125 
L 10.40625 45.703125 
L 10.40625 41.203125 
Q 12 43.703125 14.5 45.25 
Q 17 46.796875 19.703125 46.796875 
Q 22.703125 46.796875 24.953125 44.890625 
Q 27.203125 43 27.796875 40.09375 
Q 29.09375 43.09375 31.890625 44.9375 
Q 34.703125 46.796875 38.09375 46.796875 
Q 42.796875 46.796875 44.9375 43.4375 
Q 47.09375 40.09375 46.90625 35.09375 
L 46.90625 0 
L 40.296875 0 
L 40.296875 32.40625 
Q 40.296875 36.59375 39.75 38.5 
Q 39.203125 40.40625 38.203125 40.953125 
Q 37.203125 41.5 36 41.5 
Q 34.09375 41.5 32.4375 39.75 
Q 30.796875 38 29.75 35.390625 
Q 28.703125 32.796875 28.703125 30.203125 
L 28.703125 0 
L 22 0 
L 22 31.796875 
Q 22 37.5 20.953125 39.390625 
Q 19.90625 41.296875 17 41.296875 
Q 14.796875 41.296875 12.59375 38.4375 
Q 10.40625 35.59375 10.40625 30.5 
L 10.40625 0 
z
" id="Inconsolata-Regular-109"/>
      <path d="M 13.25 -10.40625 
Q 21.546875 -6.5 27.6875 0.046875 
Q 33.84375 6.59375 37.1875 14.84375 
Q 40.546875 23.09375 40.546875 32 
Q 40.546875 40.90625 37.25 48.953125 
Q 33.953125 57 27.953125 63.34375 
Q 21.953125 69.703125 13.84375 73.5 
L 11.953125 67.296875 
Q 18.34375 63.796875 23.1875 58.296875 
Q 28.046875 52.796875 30.75 46 
Q 33.453125 39.203125 33.453125 31.703125 
Q 33.453125 24.203125 30.75 17.296875 
Q 28.046875 10.40625 23.046875 4.796875 
Q 18.046875 -0.796875 11.34375 -4.40625 
z
" id="Inconsolata-Regular-41"/>
     </defs>
     <g style="fill:#555555;" transform="translate(31.23625 155.5)rotate(-90)scale(0.12 -0.12)">
      <use xlink:href="#Inconsolata-Regular-40"/>
      <use x="49.999985" xlink:href="#Inconsolata-Regular-114"/>
      <use x="99.999969" xlink:href="#Inconsolata-Regular-111"/>
      <use x="149.999954" xlink:href="#Inconsolata-Regular-108"/>
      <use x="199.999939" xlink:href="#Inconsolata-Regular-108"/>
      <use x="249.999924" xlink:href="#Inconsolata-Regular-105"/>
      <use x="299.999908" xlink:href="#Inconsolata-Regular-110"/>
      <use x="349.999893" xlink:href="#Inconsolata-Regular-103"/>
      <use x="399.999878" xlink:href="#Inconsolata-Regular-32"/>
      <use x="449.999863" xlink:href="#Inconsolata-Regular-55"/>
      <use x="499.999847" xlink:href="#Inconsolata-Regular-45"/>
      <use x="549.999832" xlink:href="#Inconsolata-Regular-100"/>
      <use x="599.999817" xlink:href="#Inconsolata-Regular-97"/>
      <use x="649.999802" xlink:href="#Inconsolata-Regular-121"/>
      <use x="699.999786" xlink:href="#Inconsolata-Regular-32"/>
      <use x="749.999771" xlink:href="#Inconsolata-Regular-109"/>
      <use x="799.999756" xlink:href="#Inconsolata-Regular-101"/>
      <use x="849.999741" xlink:href="#Inconsolata-Regular-97"/>
      <use x="899.999725" xlink:href="#Inconsolata-Regular-110"/>
      <use x="949.99971" xlink:href="#Inconsolata-Regular-41"/>
     </g>
    </g>
   </g>
   <g id="line2d_110">
    <path clip-path="url(#p32a0a7d94d)" d="M -1 173.145791 
L -0.637644 172.904687 
L 3.477806 174.211531 
L 7.593256 172.904687 
L 11.708705 169.553242 
L 15.824155 166.002864 
L 19.939604 171.702507 
L 24.055054 172.904687 
L 28.170504 175.643016 
L 32.285953 172.904687 
L 36.401403 172.904687 
L 40.516853 177.22545 
L 44.632302 186.053554 
L 48.747752 189.404999 
L 56.978651 189.404999 
L 61.094101 193.725763 
L 69.325 193.725763 
L 73.44045 145.181788 
L 81.671349 120.052305 
L 89.902248 109.772127 
L 94.017698 107.310657 
L 98.133147 103.367705 
L 102.248597 98.846803 
L 110.479496 91.464751 
L 114.594946 89.320278 
L 118.710396 87.652781 
L 122.825845 84.890882 
L 126.941295 84.3615 
L 135.172194 84.724099 
L 143.403093 87.330322 
L 147.518543 89.277209 
L 151.633993 93.791958 
L 155.749442 95.092349 
L 159.864892 97.808174 
L 163.980341 101.574292 
L 168.095791 105.815799 
L 172.211241 108.953189 
L 176.32669 110.638306 
L 180.44214 109.697497 
L 184.55759 112.763203 
L 188.673039 111.919953 
L 192.788489 112.424664 
L 196.903938 111.557512 
L 201.019388 109.847129 
L 205.134838 111.306838 
L 209.250287 111.473488 
L 213.365737 111.327568 
L 217.481187 112.357862 
L 225.712086 112.291356 
L 229.827535 113.608258 
L 233.942985 111.833882 
L 238.058435 110.817701 
L 242.173884 110.797662 
L 246.289334 111.101091 
L 250.404784 111.203612 
L 254.520233 112.313492 
L 258.635683 112.854784 
L 262.751133 113.584131 
L 266.866582 115.593114 
L 270.982032 116.977824 
L 275.097481 118.570334 
L 279.212931 120.696355 
L 283.328381 123.403749 
L 287.44383 125.866489 
L 295.67473 128.355666 
L 299.790179 130.132736 
L 303.905629 131.419805 
L 308.021078 131.820342 
L 312.136528 132.827595 
L 316.251978 135.070647 
L 320.367427 136.331742 
L 328.598327 140.616007 
L 332.713776 141.830343 
L 336.829226 143.858485 
L 340.944675 145.380721 
L 345.060125 144.985455 
L 349.175575 144.791656 
L 353.291024 144.791656 
L 357.406474 146.203899 
L 361.521924 147.30068 
L 365.637373 148.239688 
L 369.752823 147.529986 
L 373.868272 147.999375 
L 377.983722 150.881431 
L 382.099172 153.05293 
L 386.214621 153.05293 
L 390.330071 152.083611 
L 394.445521 148.732166 
L 398.56097 144.224825 
L 402.67642 139.904062 
L 406.79187 136.890142 
L 410.907319 134.381118 
L 415.022769 132.148644 
L 419.138218 130.952849 
L 423.253668 130.876415 
L 431.484567 134.381118 
L 435.600017 135.793361 
L 439.715467 135.171787 
L 443.830916 137.004357 
L 447.946366 137.82915 
L 452.061815 137.352309 
L 456.177265 136.006403 
L 460.292715 135.899504 
L 464.408164 135.273612 
L 468.523614 134.477705 
L 472.639064 129.082012 
L 476.754513 126.70891 
L 480.869963 125.811973 
L 484.985412 125.70353 
L 493.216312 123.77925 
L 497.331761 123.357465 
L 501.447211 125.330031 
L 505.562661 126.366251 
L 509.67811 125.70353 
L 513.79356 124.164379 
L 517.909009 124.018796 
L 526.139909 123.97058 
L 530.255358 123.684491 
L 534.370808 122.902302 
L 538.486258 123.037408 
L 542.601707 124.115695 
L 550.832606 124.410199 
L 554.948056 124.761249 
L 559.063506 124.067167 
L 563.178955 124.410199 
L 567.294405 123.496748 
L 571.409855 122.857535 
L 575.525304 123.731796 
L 579.640754 123.173741 
L 583.756204 122.812902 
L 587.871653 124.262225 
L 591.987103 124.761249 
L 596.102552 125.595865 
L 600.218002 124.863074 
L 604.333452 123.637335 
L 612.564351 123.826854 
L 616.679801 122.635681 
L 620.79525 121.61415 
L 624.9107 121.128311 
L 637.257049 121.128311 
L 637.257049 121.128311 
" style="fill:none;stroke:#348abd;stroke-linecap:square;stroke-width:4;"/>
   </g>
   <g id="line2d_111">
    <defs>
     <path d="M 0 3 
C 0.795609 3 1.55874 2.683901 2.12132 2.12132 
C 2.683901 1.55874 3 0.795609 3 0 
C 3 -0.795609 2.683901 -1.55874 2.12132 -2.12132 
C 1.55874 -2.683901 0.795609 -3 0 -3 
C -0.795609 -3 -1.55874 -2.683901 -2.12132 -2.12132 
C -2.683901 -1.55874 -3 -0.795609 -3 0 
C -3 0.795609 -2.683901 1.55874 -2.12132 2.12132 
C -1.55874 2.683901 -0.795609 3 0 3 
z
" id="mfff692fceb" style="stroke:#348abd;"/>
    </defs>
    <g clip-path="url(#p32a0a7d94d)">
     <use style="fill:#348abd;stroke:#348abd;" x="637.257049" xlink:href="#mfff692fceb" y="121.128311"/>
    </g>
   </g>
   <g id="line2d_112">
    <path clip-path="url(#p32a0a7d94d)" d="M -1 189.404999 
L 3.477806 189.404999 
L 7.593256 193.725763 
L 11.708705 193.725763 
L 15.824155 199.815537 
L 19.939604 199.815537 
L 19.967369 433 
M 52.836669 433 
L 52.863201 210.226075 
L 56.978651 174.211531 
L 61.094101 159.142704 
L 65.20955 158.173385 
L 69.325 147.999375 
L 73.44045 139.092014 
L 81.671349 132.315526 
L 85.786799 128.227296 
L 89.902248 118.944559 
L 94.017698 113.608258 
L 98.133147 111.410777 
L 102.248597 107.893373 
L 106.364047 106.223718 
L 110.479496 102.993863 
L 114.594946 98.992093 
L 118.710396 99.4554 
L 122.825845 89.951575 
L 131.056744 83.058962 
L 139.287644 75.625538 
L 143.403093 71.277361 
L 147.518543 67.676312 
L 151.633993 64.673223 
L 159.864892 62.192156 
L 163.980341 60.200006 
L 168.095791 58.915529 
L 172.211241 58.13426 
L 176.32669 56.101857 
L 180.44214 54.88991 
L 184.55759 52.872878 
L 188.673039 52.15384 
L 192.788489 51.910889 
L 196.903938 51.521724 
L 201.019388 50.868026 
L 205.134838 50.754743 
L 209.250287 50.965013 
L 213.365737 51.687052 
L 217.481187 51.832087 
L 221.596636 52.45256 
L 229.827535 52.897449 
L 233.942985 53.786932 
L 242.173884 55.998301 
L 250.404784 57.144901 
L 254.520233 58.936431 
L 262.751133 61.850468 
L 266.866582 62.076092 
L 270.982032 62.707902 
L 275.097481 63.635455 
L 279.212931 63.930397 
L 283.328381 63.984409 
L 287.44383 64.933635 
L 291.55928 65.378596 
L 295.67473 67.273447 
L 299.790179 67.757057 
L 303.905629 68.439417 
L 308.021078 69.544753 
L 312.136528 69.63752 
L 316.251978 70.611923 
L 320.367427 72.075161 
L 324.482877 73.346668 
L 332.713776 75.445619 
L 336.829226 76.42839 
L 340.944675 77.048362 
L 345.060125 78.082314 
L 349.175575 78.547528 
L 353.291024 78.338472 
L 361.521924 79.037277 
L 365.637373 78.540512 
L 373.868272 79.727114 
L 377.983722 82.160881 
L 382.099172 83.410492 
L 386.214621 84.129063 
L 390.330071 83.920225 
L 394.445521 85.749987 
L 398.56097 83.533868 
L 402.67642 84.309917 
L 406.79187 83.743976 
L 410.907319 83.963774 
L 415.022769 84.801937 
L 419.138218 85.810564 
L 423.253668 85.472955 
L 427.369118 87.999862 
L 431.484567 89.723405 
L 435.600017 89.125066 
L 439.715467 88.95105 
L 443.830916 88.993193 
L 447.946366 89.571571 
L 452.061815 90.006655 
L 456.177265 91.676293 
L 460.292715 92.143191 
L 468.523614 96.051349 
L 472.639064 94.224101 
L 476.754513 93.708285 
L 480.869963 92.62507 
L 484.985412 91.970686 
L 489.100862 93.321774 
L 493.216312 94.50572 
L 497.331761 93.954189 
L 501.447211 97.507612 
L 505.562661 97.918205 
L 509.67811 99.673418 
L 513.79356 98.106268 
L 517.909009 95.462861 
L 522.024459 89.358666 
L 526.139909 89.615494 
L 534.370808 86.60913 
L 538.486258 85.336331 
L 542.601707 84.823236 
L 546.717157 84.68533 
L 550.832606 87.431406 
L 554.948056 86.677299 
L 559.063506 86.473713 
L 563.178955 88.004251 
L 567.294405 88.663902 
L 571.409855 90.290236 
L 575.525304 89.866847 
L 579.640754 89.981593 
L 583.756204 91.316235 
L 596.102552 91.316235 
L 596.102552 91.316235 
" style="fill:none;stroke:#348abd;stroke-linecap:square;stroke-opacity:0.4;stroke-width:2;"/>
   </g>
   <g id="line2d_113">
    <defs>
     <path d="M 0 3 
C 0.795609 3 1.55874 2.683901 2.12132 2.12132 
C 2.683901 1.55874 3 0.795609 3 0 
C 3 -0.795609 2.683901 -1.55874 2.12132 -2.12132 
C 1.55874 -2.683901 0.795609 -3 0 -3 
C -0.795609 -3 -1.55874 -2.683901 -2.12132 -2.12132 
C -2.683901 -1.55874 -3 -0.795609 -3 0 
C -3 0.795609 -2.683901 1.55874 -2.12132 2.12132 
C -1.55874 2.683901 -0.795609 3 0 3 
z
" id="m823dbc7e76" style="stroke:#348abd;stroke-opacity:0.4;"/>
    </defs>
    <g clip-path="url(#p32a0a7d94d)">
     <use style="fill:#348abd;fill-opacity:0.4;stroke:#348abd;stroke-opacity:0.4;" x="596.102552" xlink:href="#m823dbc7e76" y="91.316235"/>
    </g>
   </g>
   <g id="line2d_114">
    <path clip-path="url(#p32a0a7d94d)" d="M 28.139882 433 
L 28.170504 175.643016 
L 32.285953 172.904687 
L 36.401403 169.553242 
L 40.516853 162.494149 
L 44.632302 155.992863 
L 48.747752 154.82194 
L 52.863201 153.05293 
L 56.978651 155.592326 
L 61.094101 151.773925 
L 65.20955 148.483908 
L 73.44045 145.181788 
L 77.555899 145.786671 
L 81.671349 136.006403 
L 85.786799 131.658843 
L 89.902248 129.149819 
L 94.017698 125.277424 
L 98.133147 122.460528 
L 102.248597 118.807396 
L 106.364047 115.374251 
L 110.479496 114.376102 
L 114.594946 109.439174 
L 118.710396 103.101442 
L 122.825845 102.478733 
L 126.941295 99.49309 
L 131.056744 97.682208 
L 135.172194 95.12758 
L 139.287644 93.63146 
L 143.403093 92.306002 
L 147.518543 93.110582 
L 151.633993 91.676293 
L 155.749442 92.62507 
L 159.864892 92.726936 
L 163.980341 93.928114 
L 168.095791 94.723888 
L 172.211241 96.757905 
L 176.32669 98.480789 
L 180.44214 101.042017 
L 184.55759 102.126126 
L 192.788489 106.597536 
L 196.903938 108.311763 
L 201.019388 110.737705 
L 205.134838 113.464072 
L 209.250287 115.347116 
L 213.365737 116.298372 
L 221.596636 122.073745 
L 229.827535 126.422821 
L 233.942985 124.812075 
L 238.058435 126.031236 
L 242.173884 128.550302 
L 246.289334 129.774265 
L 250.404784 130.649419 
L 254.520233 134.477705 
L 258.635683 137.588837 
L 262.751133 140.470893 
L 266.866582 141.363387 
L 275.097481 141.059958 
L 279.212931 140.470893 
L 283.328381 140.910511 
L 287.44383 140.327167 
L 291.55928 139.904062 
L 295.67473 137.588837 
L 299.790179 137.004357 
L 303.905629 135.793361 
L 308.021078 135.273612 
L 312.136528 136.006403 
L 316.251978 136.006403 
L 320.367427 137.588837 
L 324.482877 137.950764 
L 328.598327 140.327167 
L 332.713776 141.830343 
L 336.829226 140.184803 
L 340.944675 138.701882 
L 345.060125 140.327167 
L 349.175575 140.184803 
L 353.291024 141.363387 
L 357.406474 142.312285 
L 361.521924 142.312285 
L 365.637373 145.181788 
L 369.752823 147.762847 
L 373.868272 146.416941 
L 377.983722 148.732166 
L 382.099172 149.241341 
L 386.214621 147.074823 
L 390.330071 146.633049 
L 394.445521 146.416941 
L 398.56097 143.500867 
L 402.67642 144.791656 
L 406.79187 142.979917 
L 410.907319 141.830343 
L 415.022769 142.642392 
L 419.138218 142.642392 
L 423.253668 144.040538 
L 427.369118 146.852312 
L 431.484567 147.074823 
L 435.600017 147.999375 
L 439.715467 152.722823 
L 443.830916 153.05293 
L 447.946366 153.05293 
L 452.061815 154.089149 
L 456.177265 154.089149 
L 460.292715 148.483908 
L 468.523614 144.411402 
L 472.639064 141.673073 
L 476.754513 140.184803 
L 480.869963 138.321628 
L 484.985412 138.701882 
L 489.100862 135.899504 
L 493.216312 136.114068 
L 501.447211 134.870387 
L 509.67811 131.739375 
L 513.79356 131.419805 
L 517.909009 128.880409 
L 522.024459 125.06882 
L 526.139909 122.591701 
L 530.255358 120.276476 
L 534.370808 118.705339 
L 538.486258 117.784836 
L 542.601707 112.740395 
L 554.948056 112.740395 
L 554.948056 112.740395 
" style="fill:none;stroke:#988ed5;stroke-linecap:square;stroke-opacity:0.4;stroke-width:2;"/>
   </g>
   <g id="line2d_115">
    <defs>
     <path d="M 0 3 
C 0.795609 3 1.55874 2.683901 2.12132 2.12132 
C 2.683901 1.55874 3 0.795609 3 0 
C 3 -0.795609 2.683901 -1.55874 2.12132 -2.12132 
C 1.55874 -2.683901 0.795609 -3 0 -3 
C -0.795609 -3 -1.55874 -2.683901 -2.12132 -2.12132 
C -2.683901 -1.55874 -3 -0.795609 -3 0 
C -3 0.795609 -2.683901 1.55874 -2.12132 2.12132 
C -1.55874 2.683901 -0.795609 3 0 3 
z
" id="m08cc96d7ac" style="stroke:#988ed5;stroke-opacity:0.4;"/>
    </defs>
    <g clip-path="url(#p32a0a7d94d)">
     <use style="fill:#988ed5;fill-opacity:0.4;stroke:#988ed5;stroke-opacity:0.4;" x="554.948056" xlink:href="#m08cc96d7ac" y="112.740395"/>
    </g>
   </g>
   <g id="line2d_116">
    <path clip-path="url(#p32a0a7d94d)" d="M 32.25942 433 
L 32.285953 210.226075 
L 36.401403 210.226075 
L 40.516853 186.053554 
L 44.632302 186.053554 
L 48.747752 174.211531 
L 52.863201 168.583923 
L 61.094101 159.142704 
L 65.20955 152.083611 
L 69.325 147.999375 
L 73.44045 141.363387 
L 77.555899 139.904062 
L 81.671349 133.907286 
L 85.786799 129.493524 
L 89.902248 129.217934 
L 94.017698 124.262225 
L 98.133147 121.947 
L 102.248597 119.048259 
L 106.364047 116.443486 
L 110.479496 114.866886 
L 114.594946 112.649507 
L 118.710396 109.828343 
L 122.825845 108.637721 
L 126.941295 107.027564 
L 131.056744 105.01813 
L 135.172194 103.392146 
L 139.287644 102.467229 
L 143.403093 101.316445 
L 147.518543 100.357116 
L 155.749442 96.111486 
L 159.864892 96.149194 
L 163.980341 94.364251 
L 168.095791 93.593194 
L 172.211241 92.49426 
L 176.32669 91.834095 
L 180.44214 91.959256 
L 184.55759 92.288474 
L 188.673039 91.398563 
L 192.788489 92.288474 
L 196.903938 92.589281 
L 201.019388 93.618694 
L 205.134838 93.472659 
L 209.250287 93.689042 
L 213.365737 93.178585 
L 217.481187 93.4159 
L 221.596636 92.050942 
L 225.712086 91.788839 
L 229.827535 91.817108 
L 233.942985 92.201135 
L 238.058435 92.166342 
L 242.173884 92.637018 
L 246.289334 92.529823 
L 250.404784 93.772607 
L 254.520233 93.908587 
L 258.635683 93.567738 
L 262.751133 92.890157 
L 266.866582 93.542325 
L 270.982032 94.546386 
L 275.097481 95.319273 
L 279.212931 95.506207 
L 283.328381 95.304989 
L 287.44383 94.546386 
L 291.55928 95.33357 
L 295.67473 94.841092 
L 299.790179 94.224101 
L 312.136528 93.837206 
L 316.251978 92.775113 
L 320.367427 92.932765 
L 324.482877 92.31185 
L 328.598327 91.839762 
L 332.713776 92.091231 
L 336.829226 92.517959 
L 340.944675 92.36458 
L 345.060125 93.663423 
L 349.175575 92.506105 
L 353.291024 92.547636 
L 361.521924 91.704351 
L 365.637373 91.028907 
L 369.752823 91.305292 
L 373.868272 90.980656 
L 382.099172 91.659484 
L 386.214621 92.500181 
L 390.330071 91.896545 
L 394.445521 92.957167 
L 398.56097 92.512031 
L 402.67642 93.830734 
L 406.79187 94.539601 
L 410.907319 94.478671 
L 415.022769 94.264011 
L 419.138218 93.234453 
L 423.253668 91.147509 
L 427.369118 90.001639 
L 431.484567 89.172445 
L 439.715467 89.229498 
L 443.830916 89.162957 
L 447.946366 89.822184 
L 456.177265 91.96497 
L 460.292715 91.925018 
L 464.408164 90.699618 
L 468.523614 90.937897 
L 472.639064 91.343628 
L 476.754513 92.108531 
L 480.869963 92.482425 
L 489.100862 93.759721 
L 493.216312 95.191206 
L 501.447211 95.484518 
L 505.562661 95.376543 
L 509.67811 96.247681 
L 517.909009 97.107945 
L 522.024459 96.415837 
L 526.139909 95.864957 
L 530.255358 95.991452 
L 542.601707 95.991452 
L 542.601707 95.991452 
" style="fill:none;stroke:#777777;stroke-linecap:square;stroke-opacity:0.4;stroke-width:2;"/>
   </g>
   <g id="line2d_117">
    <defs>
     <path d="M 0 3 
C 0.795609 3 1.55874 2.683901 2.12132 2.12132 
C 2.683901 1.55874 3 0.795609 3 0 
C 3 -0.795609 2.683901 -1.55874 2.12132 -2.12132 
C 1.55874 -2.683901 0.795609 -3 0 -3 
C -0.795609 -3 -1.55874 -2.683901 -2.12132 -2.12132 
C -2.683901 -1.55874 -3 -0.795609 -3 0 
C -3 0.795609 -2.683901 1.55874 -2.12132 2.12132 
C -1.55874 2.683901 -0.795609 3 0 3 
z
" id="m92e79b93b6" style="stroke:#777777;stroke-opacity:0.4;"/>
    </defs>
    <g clip-path="url(#p32a0a7d94d)">
     <use style="fill:#777777;fill-opacity:0.4;stroke:#777777;stroke-opacity:0.4;" x="542.601707" xlink:href="#m92e79b93b6" y="95.991452"/>
    </g>
   </g>
   <g id="line2d_118">
    <path clip-path="url(#p32a0a7d94d)" d="M -1 184.23185 
L -0.637644 183.315225 
L 3.477806 164.499688 
L 11.708705 164.499688 
L 15.824155 159.142704 
L 19.939604 160.725138 
L 24.055054 154.089149 
L 28.170504 155.202194 
L 32.285953 154.089149 
L 36.401403 151.773925 
L 40.516853 151.773925 
L 44.632302 153.05293 
L 48.747752 153.05293 
L 52.863201 156.827479 
L 56.978651 156.827479 
L 65.20955 166.814912 
L 69.325 166.814912 
L 73.44045 146.203899 
L 77.555899 146.203899 
L 81.671349 144.985455 
L 85.786799 129.355097 
L 89.902248 126.883216 
L 98.133147 117.880806 
L 102.248597 115.510666 
L 106.364047 111.642009 
L 110.479496 108.009352 
L 114.594946 103.965564 
L 118.710396 99.138802 
L 122.825845 97.766067 
L 126.941295 95.946685 
L 131.056744 94.50572 
L 135.172194 93.203389 
L 139.287644 91.771904 
L 143.403093 91.459224 
L 147.518543 91.023538 
L 151.633993 89.625272 
L 155.749442 88.871768 
L 163.980341 87.912337 
L 168.095791 87.435632 
L 172.211241 86.355233 
L 176.32669 85.678368 
L 180.44214 84.594092 
L 196.903938 79.818478 
L 209.250287 78.981798 
L 217.481187 79.07357 
L 225.712086 79.381944 
L 233.942985 79.11238 
L 242.173884 78.90974 
L 250.404784 78.310817 
L 262.751133 78.068713 
L 287.44383 78.136838 
L 299.790179 78.253364 
L 308.021078 78.246485 
L 320.367427 78.454255 
L 328.598327 78.695618 
L 336.829226 79.083263 
L 353.291024 79.335036 
L 365.637373 79.541037 
L 369.752823 79.691733 
L 373.868272 79.984862 
L 382.099172 80.900225 
L 390.330071 81.63753 
L 402.67642 82.789748 
L 406.79187 82.876871 
L 410.907319 83.249685 
L 419.138218 84.420175 
L 431.484567 86.725605 
L 435.600017 88.185341 
L 447.946366 91.19087 
L 452.061815 91.947835 
L 456.177265 92.84161 
L 460.292715 93.863124 
L 464.408164 94.07209 
L 476.754513 94.07209 
L 476.754513 94.07209 
" style="fill:none;stroke:#fbc15e;stroke-linecap:square;stroke-opacity:0.4;stroke-width:2;"/>
   </g>
   <g id="line2d_119">
    <defs>
     <path d="M 0 3 
C 0.795609 3 1.55874 2.683901 2.12132 2.12132 
C 2.683901 1.55874 3 0.795609 3 0 
C 3 -0.795609 2.683901 -1.55874 2.12132 -2.12132 
C 1.55874 -2.683901 0.795609 -3 0 -3 
C -0.795609 -3 -1.55874 -2.683901 -2.12132 -2.12132 
C -2.683901 -1.55874 -3 -0.795609 -3 0 
C -3 0.795609 -2.683901 1.55874 -2.12132 2.12132 
C -1.55874 2.683901 -0.795609 3 0 3 
z
" id="m66b4da7f16" style="stroke:#fbc15e;stroke-opacity:0.4;"/>
    </defs>
    <g clip-path="url(#p32a0a7d94d)">
     <use style="fill:#fbc15e;fill-opacity:0.4;stroke:#fbc15e;stroke-opacity:0.4;" x="476.754513" xlink:href="#m66b4da7f16" y="94.07209"/>
    </g>
   </g>
   <g id="line2d_120">
    <path clip-path="url(#p32a0a7d94d)" d="M 40.49032 433 
L 40.516853 210.226075 
L 44.632302 210.226075 
L 48.747752 178.994461 
L 52.863201 178.994461 
L 56.978651 166.814912 
L 61.094101 160.725138 
L 65.20955 154.089149 
L 69.325 150.03901 
L 73.44045 142.810206 
L 77.555899 140.184803 
L 81.671349 130.205469 
L 85.786799 127.297975 
L 89.902248 124.067167 
L 94.017698 123.037408 
L 98.133147 118.979046 
L 102.248597 115.131782 
L 106.364047 115.787271 
L 110.479496 107.647821 
L 114.594946 105.168803 
L 118.710396 97.132112 
L 122.825845 97.433402 
L 126.941295 94.573558 
L 131.056744 93.478979 
L 135.172194 87.995473 
L 139.287644 85.08482 
L 143.403093 81.669171 
L 147.518543 81.503084 
L 151.633993 78.145945 
L 159.864892 75.49326 
L 176.32669 76.507819 
L 180.44214 76.980774 
L 184.55759 77.846069 
L 192.788489 77.216533 
L 196.903938 77.958103 
L 201.019388 78.528827 
L 205.134838 78.902553 
L 209.250287 80.244493 
L 213.365737 80.47408 
L 217.481187 80.840159 
L 225.712086 82.470505 
L 233.942985 84.51732 
L 238.058435 85.539872 
L 242.173884 86.895911 
L 246.289334 89.698812 
L 250.404784 91.665085 
L 254.520233 92.553578 
L 258.635683 93.986847 
L 262.751133 93.804872 
L 266.866582 94.257352 
L 270.982032 95.141696 
L 283.328381 99.427195 
L 287.44383 100.487588 
L 291.55928 102.295709 
L 295.67473 103.490312 
L 299.790179 103.726058 
L 303.905629 104.522135 
L 308.021078 105.182576 
L 312.136528 106.06214 
L 316.251978 107.68033 
L 320.367427 109.024202 
L 324.482877 109.512528 
L 328.598327 110.898126 
L 332.713776 112.877767 
L 336.829226 115.731541 
L 340.944675 116.82748 
L 345.060125 119.013613 
L 349.175575 120.238881 
L 353.291024 121.696674 
L 357.406474 121.369266 
L 365.637373 122.812902 
L 369.752823 124.213222 
L 373.868272 123.543464 
L 377.983722 125.488966 
L 382.099172 127.118817 
L 386.214621 128.036774 
L 390.330071 127.601404 
L 394.445521 128.485143 
L 398.56097 131.184512 
L 402.67642 134.672763 
L 406.79187 135.070647 
L 410.907319 135.070647 
L 415.022769 135.687962 
L 419.138218 138.574058 
L 423.253668 140.762537 
L 427.369118 138.196986 
L 431.484567 138.321628 
L 435.600017 137.588837 
L 439.715467 137.708513 
L 443.830916 139.224343 
L 447.946366 138.701882 
L 452.061815 138.701882 
L 456.177265 139.904062 
L 460.292715 139.49255 
L 464.408164 140.616007 
L 468.523614 140.910511 
L 472.639064 139.092014 
L 476.754513 138.574058 
L 480.869963 137.004357 
L 484.985412 137.470107 
L 489.100862 136.222511 
L 493.216312 134.77125 
L 501.447211 133.447947 
L 505.562661 132.569378 
L 509.67811 134.381118 
L 513.79356 132.914663 
L 517.909009 135.070647 
L 522.024459 132.654958 
L 526.139909 132.315526 
L 530.255358 132.399668 
L 534.370808 131.499063 
L 538.486258 128.681476 
L 542.601707 127.238018 
L 546.717157 123.97058 
L 550.832606 123.357465 
L 554.948056 122.591701 
L 559.063506 120.930426 
L 563.178955 117.657823 
L 571.409855 113.778243 
L 583.756204 113.778243 
L 583.756204 113.778243 
" style="fill:none;stroke:#8eba42;stroke-linecap:square;stroke-opacity:0.4;stroke-width:2;"/>
   </g>
   <g id="line2d_121">
    <defs>
     <path d="M 0 3 
C 0.795609 3 1.55874 2.683901 2.12132 2.12132 
C 2.683901 1.55874 3 0.795609 3 0 
C 3 -0.795609 2.683901 -1.55874 2.12132 -2.12132 
C 1.55874 -2.683901 0.795609 -3 0 -3 
C -0.795609 -3 -1.55874 -2.683901 -2.12132 -2.12132 
C -2.683901 -1.55874 -3 -0.795609 -3 0 
C -3 0.795609 -2.683901 1.55874 -2.12132 2.12132 
C -1.55874 2.683901 -0.795609 3 0 3 
z
" id="mef1fd5a3f5" style="stroke:#8eba42;stroke-opacity:0.4;"/>
    </defs>
    <g clip-path="url(#p32a0a7d94d)">
     <use style="fill:#8eba42;fill-opacity:0.4;stroke:#8eba42;stroke-opacity:0.4;" x="583.756204" xlink:href="#mef1fd5a3f5" y="113.778243"/>
    </g>
   </g>
   <g id="line2d_122">
    <path clip-path="url(#p32a0a7d94d)" d="M -1 199.815537 
L 7.593256 199.815537 
L 11.708705 210.226075 
L 15.824155 210.226075 
L 15.850688 433 
M 24.02729 433 
L 24.055054 199.815537 
L 44.632302 199.815537 
L 48.747752 193.725763 
L 52.863201 210.226075 
L 56.978651 177.22545 
L 61.094101 169.553242 
L 65.20955 155.592326 
L 73.44045 142.810206 
L 77.555899 134.189788 
L 81.671349 130.205469 
L 85.786799 123.922519 
L 89.902248 119.470373 
L 94.017698 117.945128 
L 98.133147 113.226797 
L 102.248597 106.40199 
L 110.479496 96.562594 
L 114.594946 92.517959 
L 118.710396 92.613131 
L 122.825845 86.265027 
L 126.941295 81.065273 
L 131.056744 75.610142 
L 135.172194 68.427488 
L 139.287644 63.64239 
L 143.403093 59.413599 
L 147.518543 55.001675 
L 151.633993 51.26549 
L 155.749442 48.343511 
L 159.864892 45.717057 
L 163.980341 42.681932 
L 168.095791 40.146087 
L 172.211241 37.88577 
L 176.32669 36.232406 
L 180.44214 34.716195 
L 184.55759 32.846669 
L 188.673039 31.407395 
L 201.019388 27.859152 
L 209.250287 26.565468 
L 221.596636 25.480231 
L 225.712086 25.373754 
L 229.827535 25.58733 
L 233.942985 25.54068 
L 242.173884 26.104218 
L 254.520233 26.598921 
L 262.751133 26.911286 
L 266.866582 26.75801 
L 275.097481 26.941753 
L 283.328381 26.46271 
L 287.44383 26.132305 
L 291.55928 26.014961 
L 295.67473 26.36304 
L 303.905629 26.492499 
L 308.021078 26.821598 
L 312.136528 26.981491 
L 316.251978 27.265485 
L 320.367427 27.4281 
L 328.598327 27.454569 
L 336.829226 27.770402 
L 340.944675 28.336701 
L 345.060125 28.625536 
L 349.175575 29.124241 
L 353.291024 29.440786 
L 357.406474 29.640525 
L 361.521924 30.011249 
L 365.637373 30.03575 
L 369.752823 30.210535 
L 377.983722 30.341413 
L 382.099172 30.07086 
L 386.214621 30.211097 
L 390.330071 29.985498 
L 402.67642 30.598474 
L 406.79187 30.425694 
L 410.907319 30.691849 
L 415.022769 30.843989 
L 419.138218 31.374585 
L 423.253668 31.652902 
L 427.369118 31.615542 
L 431.484567 31.370134 
L 439.715467 31.606704 
L 447.946366 31.232526 
L 452.061815 31.379947 
L 456.177265 31.307264 
L 472.639064 31.987493 
L 484.985412 31.721691 
L 493.216312 31.221107 
L 497.331761 30.997884 
L 505.562661 30.010695 
L 513.79356 29.027024 
L 522.024459 27.877574 
L 530.255358 26.184627 
L 534.370808 25.527858 
L 542.601707 23.85376 
L 546.717157 23.255384 
L 550.832606 22.531045 
L 559.063506 21.375526 
L 563.178955 20.554236 
L 567.294405 19.852888 
L 571.409855 19.534575 
L 583.756204 19.534575 
L 583.756204 19.534575 
" style="fill:none;stroke:#ffb5b8;stroke-linecap:square;stroke-opacity:0.4;stroke-width:2;"/>
   </g>
   <g id="line2d_123">
    <defs>
     <path d="M 0 3 
C 0.795609 3 1.55874 2.683901 2.12132 2.12132 
C 2.683901 1.55874 3 0.795609 3 0 
C 3 -0.795609 2.683901 -1.55874 2.12132 -2.12132 
C 1.55874 -2.683901 0.795609 -3 0 -3 
C -0.795609 -3 -1.55874 -2.683901 -2.12132 -2.12132 
C -2.683901 -1.55874 -3 -0.795609 -3 0 
C -3 0.795609 -2.683901 1.55874 -2.12132 2.12132 
C -1.55874 2.683901 -0.795609 3 0 3 
z
" id="m5f6ee24f4f" style="stroke:#ffb5b8;stroke-opacity:0.4;"/>
    </defs>
    <g clip-path="url(#p32a0a7d94d)">
     <use style="fill:#ffb5b8;fill-opacity:0.4;stroke:#ffb5b8;stroke-opacity:0.4;" x="583.756204" xlink:href="#m5f6ee24f4f" y="19.534575"/>
    </g>
   </g>
   <g id="patch_3">
    <path d="M 69.325 181 
L 69.325 10 
" style="fill:none;stroke:#ffffff;stroke-linecap:square;stroke-linejoin:miter;"/>
   </g>
   <g id="patch_4">
    <path d="M 678 181 
L 678 10 
" style="fill:none;stroke:#ffffff;stroke-linecap:square;stroke-linejoin:miter;"/>
   </g>
   <g id="patch_5">
    <path d="M 69.325 181 
L 678 181 
" style="fill:none;stroke:#ffffff;stroke-linecap:square;stroke-linejoin:miter;"/>
   </g>
   <g id="patch_6">
    <path d="M 69.325 10 
L 678 10 
" style="fill:none;stroke:#ffffff;stroke-linecap:square;stroke-linejoin:miter;"/>
   </g>
   <g id="text_21">
    <!-- Korea, South -->
    <defs>
     <path d="M 16.59375 31.203125 
L 11.703125 25.796875 
L 11.703125 0 
L 4.203125 0 
L 4.203125 62.296875 
L 12.59375 62.296875 
L 12.59375 61.59375 
Q 12 61 11.84375 60.296875 
Q 11.703125 59.59375 11.703125 57.90625 
L 11.703125 33.59375 
L 37.703125 62.796875 
Q 38.796875 62.59375 40.09375 62.4375 
Q 41.40625 62.296875 42.90625 62.296875 
L 45.5 62.296875 
L 21.90625 35.40625 
L 47.09375 0 
L 38.09375 -0.40625 
z
" id="Inconsolata-Regular-75"/>
     <path d="M 19.90625 -16.796875 
L 16.5 -13.796875 
Q 19.296875 -11.203125 21.140625 -8.203125 
Q 23 -5.203125 23 -3.296875 
Q 23 -1.90625 21.75 -0.84375 
Q 20.5 0.203125 19.203125 1.390625 
Q 17.90625 2.59375 17.90625 4.40625 
Q 17.90625 6.90625 19.546875 8.59375 
Q 21.203125 10.296875 23.796875 10.296875 
Q 26.40625 10.296875 28.5 8 
Q 30.59375 5.703125 30.59375 2 
Q 30.59375 -5.796875 19.90625 -16.796875 
z
" id="Inconsolata-Regular-44"/>
     <path d="M 24.703125 -1 
Q 12.59375 -1 5.203125 6.90625 
L 8.796875 13.203125 
L 9.203125 14.09375 
L 9.90625 13.703125 
Q 10.09375 13 10.390625 12.140625 
Q 10.703125 11.296875 11.796875 10.09375 
Q 14.40625 7.90625 17.84375 6.59375 
Q 21.296875 5.296875 25.703125 5.296875 
Q 31.296875 5.296875 34.9375 8.4375 
Q 38.59375 11.59375 38.59375 16 
Q 38.59375 18.90625 37.4375 20.90625 
Q 36.296875 22.90625 33.25 24.796875 
Q 30.203125 26.703125 24.296875 29.203125 
Q 14.59375 33 10.890625 37.703125 
Q 7.203125 42.40625 7.203125 47.703125 
Q 7.203125 54.59375 12.296875 58.84375 
Q 17.40625 63.09375 26.203125 63.09375 
Q 31.296875 63.09375 35.796875 61.046875 
Q 40.296875 59 43.5 55.296875 
L 39 49.296875 
L 38.40625 49.703125 
Q 38.296875 50.5 38 51.296875 
Q 37.703125 52.09375 36.59375 53.296875 
Q 34.203125 55.59375 31.5 56.4375 
Q 28.796875 57.296875 25.09375 57.296875 
Q 20.203125 57.296875 17.296875 54.59375 
Q 14.40625 51.90625 14.40625 48.203125 
Q 14.40625 45.40625 15.65625 43.25 
Q 16.90625 41.09375 20.203125 39 
Q 23.5 36.90625 29.796875 34.40625 
Q 35.90625 31.90625 39.296875 29.34375 
Q 42.703125 26.796875 44.09375 23.84375 
Q 45.5 20.90625 45.5 17 
Q 45.5 12.703125 43.34375 8.546875 
Q 41.203125 4.40625 36.59375 1.703125 
Q 32 -1 24.703125 -1 
z
" id="Inconsolata-Regular-83"/>
     <path d="M 22.09375 -1.09375 
Q 15.296875 -1.09375 10.796875 4 
Q 6.296875 9.09375 6.40625 20.203125 
L 6.5 45.703125 
L 13.5 45.703125 
L 13.5 20.203125 
Q 13.5 11.5 16.546875 8.09375 
Q 19.59375 4.703125 23.90625 4.703125 
Q 27.09375 4.703125 29.890625 6.390625 
Q 32.703125 8.09375 34.453125 11.59375 
Q 36.203125 15.09375 36.203125 20.5 
L 36.203125 45.703125 
L 43.203125 45.703125 
L 43.203125 7.09375 
Q 43.203125 5.296875 43.34375 3.546875 
Q 43.5 1.796875 44.203125 0 
L 37.296875 0 
Q 36.59375 1.703125 36.4375 3.5 
Q 36.296875 5.296875 36.296875 7 
Q 34.09375 3.203125 30.34375 1.046875 
Q 26.59375 -1.09375 22.09375 -1.09375 
z
" id="Inconsolata-Regular-117"/>
     <path d="M 29.90625 -0.703125 
Q 24 -0.703125 20.953125 2 
Q 17.90625 4.703125 16.90625 10.34375 
Q 15.90625 16 16.203125 24.796875 
L 16.796875 39.796875 
L 7 39.796875 
L 7 45.703125 
L 17 45.703125 
L 17.40625 57.40625 
L 24.90625 58.296875 
L 25.90625 58.40625 
L 26 57.703125 
Q 25.5 57 25.140625 56.296875 
Q 24.796875 55.59375 24.59375 53.90625 
L 23.90625 45.703125 
L 39.90625 45.703125 
L 39.90625 39.796875 
L 24 39.796875 
L 23.296875 24.296875 
Q 23 16.703125 23.703125 12.546875 
Q 24.40625 8.40625 26.203125 6.84375 
Q 28 5.296875 31 5.296875 
Q 34.296875 5.296875 36.84375 6.59375 
Q 39.40625 7.90625 42.203125 9.90625 
L 44.40625 4.203125 
Q 41 1.703125 37.390625 0.5 
Q 33.796875 -0.703125 29.90625 -0.703125 
z
" id="Inconsolata-Regular-116"/>
     <path d="M 7.296875 66.5 
L 15.203125 66.5 
L 15.203125 65.796875 
Q 14.59375 65.203125 14.4375 64.5 
Q 14.296875 63.796875 14.296875 62.09375 
L 14.296875 37.59375 
Q 17 41.796875 21.046875 44.296875 
Q 25.09375 46.796875 29.296875 46.796875 
Q 35.5 46.796875 39.34375 42.4375 
Q 43.203125 38.09375 43.203125 27.703125 
L 43.203125 0 
L 36.203125 0 
L 36.203125 27.5 
Q 36.203125 34.703125 33.75 37.59375 
Q 31.296875 40.5 27.796875 40.5 
Q 24.796875 40.5 21.640625 38.796875 
Q 18.5 37.09375 16.390625 33.9375 
Q 14.296875 30.796875 14.296875 26.296875 
L 14.296875 0 
L 7.296875 0 
z
" id="Inconsolata-Regular-104"/>
    </defs>
    <g transform="translate(645.487948 121.128311)scale(0.1 -0.1)">
     <use xlink:href="#Inconsolata-Regular-75"/>
     <use x="49.999985" xlink:href="#Inconsolata-Regular-111"/>
     <use x="99.999969" xlink:href="#Inconsolata-Regular-114"/>
     <use x="149.999954" xlink:href="#Inconsolata-Regular-101"/>
     <use x="199.999939" xlink:href="#Inconsolata-Regular-97"/>
     <use x="249.999924" xlink:href="#Inconsolata-Regular-44"/>
     <use x="299.999908" xlink:href="#Inconsolata-Regular-32"/>
     <use x="349.999893" xlink:href="#Inconsolata-Regular-83"/>
     <use x="399.999878" xlink:href="#Inconsolata-Regular-111"/>
     <use x="449.999863" xlink:href="#Inconsolata-Regular-117"/>
     <use x="499.999847" xlink:href="#Inconsolata-Regular-116"/>
     <use x="549.999832" xlink:href="#Inconsolata-Regular-104"/>
    </g>
   </g>
   <g id="text_22">
    <!-- Germany -->
    <defs>
     <path d="M 27.703125 -1 
Q 20.296875 -1 14.84375 2.890625 
Q 9.40625 6.796875 6.5 13.890625 
Q 3.59375 21 3.59375 30.40625 
Q 3.5 40.5 5.84375 46.890625 
Q 8.203125 53.296875 11.953125 56.796875 
Q 15.703125 60.296875 19.84375 61.640625 
Q 24 63 27.40625 63 
Q 33 62.90625 38.09375 60.046875 
Q 43.203125 57.203125 45.796875 52.5 
L 40.90625 48.59375 
L 40.09375 47.90625 
L 39.703125 48.5 
Q 39.796875 49.296875 39.4375 49.9375 
Q 39.09375 50.59375 38 51.90625 
Q 35.703125 54.5 33.25 55.640625 
Q 30.796875 56.796875 27.296875 56.796875 
Q 22.796875 56.796875 18.9375 54.546875 
Q 15.09375 52.296875 12.796875 46.890625 
Q 10.5 41.5 10.5 31.90625 
Q 10.5 18.90625 15.140625 12.046875 
Q 19.796875 5.203125 27.703125 5.203125 
Q 30.40625 5.203125 33.75 6.09375 
Q 37.09375 7 39.5 9 
L 39.5 23.796875 
L 28.203125 23.796875 
L 28.203125 29.90625 
L 46 29.90625 
L 46 5.5 
Q 37.09375 -1 27.703125 -1 
z
" id="Inconsolata-Regular-71"/>
    </defs>
    <g transform="translate(604.333452 91.316235)scale(0.1 -0.1)">
     <use xlink:href="#Inconsolata-Regular-71"/>
     <use x="49.999985" xlink:href="#Inconsolata-Regular-101"/>
     <use x="99.999969" xlink:href="#Inconsolata-Regular-114"/>
     <use x="149.999954" xlink:href="#Inconsolata-Regular-109"/>
     <use x="199.999939" xlink:href="#Inconsolata-Regular-97"/>
     <use x="249.999924" xlink:href="#Inconsolata-Regular-110"/>
     <use x="299.999908" xlink:href="#Inconsolata-Regular-121"/>
    </g>
   </g>
   <g id="text_23">
    <!-- Australia -->
    <defs>
     <path d="M 41.203125 0 
L 34.90625 18.203125 
L 14.796875 18.203125 
L 8.5 0 
L 1.59375 0 
L 24.59375 63.40625 
L 25.40625 63.40625 
L 48.40625 0 
z
M 24.90625 47.40625 
L 16.703125 23.59375 
L 33.09375 23.59375 
z
" id="Inconsolata-Regular-65"/>
    </defs>
    <g transform="translate(563.178955 112.740395)scale(0.1 -0.1)">
     <use xlink:href="#Inconsolata-Regular-65"/>
     <use x="49.999985" xlink:href="#Inconsolata-Regular-117"/>
     <use x="99.999969" xlink:href="#Inconsolata-Regular-115"/>
     <use x="149.999954" xlink:href="#Inconsolata-Regular-116"/>
     <use x="199.999939" xlink:href="#Inconsolata-Regular-114"/>
     <use x="249.999924" xlink:href="#Inconsolata-Regular-97"/>
     <use x="299.999908" xlink:href="#Inconsolata-Regular-108"/>
     <use x="349.999893" xlink:href="#Inconsolata-Regular-105"/>
     <use x="399.999878" xlink:href="#Inconsolata-Regular-97"/>
    </g>
   </g>
   <g id="text_24">
    <!-- Poland -->
    <defs>
     <path d="M 5.90625 0 
L 5.90625 62.296875 
L 25.90625 62.296875 
Q 32.90625 62.296875 37.203125 59.890625 
Q 41.5 57.5 43.546875 53.546875 
Q 45.59375 49.59375 45.59375 44.703125 
Q 45.59375 39.90625 43.59375 36 
Q 41.59375 32.09375 37.390625 29.796875 
Q 33.203125 27.5 26.40625 27.5 
L 13.09375 27.5 
L 13.09375 0 
z
M 13.09375 33.703125 
L 25.59375 33.703125 
Q 32.40625 33.703125 35.40625 36.640625 
Q 38.40625 39.59375 38.40625 44.5 
Q 38.40625 49.09375 35.40625 52.390625 
Q 32.40625 55.703125 25.703125 55.703125 
L 13.09375 55.703125 
z
" id="Inconsolata-Regular-80"/>
    </defs>
    <g transform="translate(550.832606 95.991452)scale(0.1 -0.1)">
     <use xlink:href="#Inconsolata-Regular-80"/>
     <use x="49.999985" xlink:href="#Inconsolata-Regular-111"/>
     <use x="99.999969" xlink:href="#Inconsolata-Regular-108"/>
     <use x="149.999954" xlink:href="#Inconsolata-Regular-97"/>
     <use x="199.999939" xlink:href="#Inconsolata-Regular-110"/>
     <use x="249.999924" xlink:href="#Inconsolata-Regular-100"/>
    </g>
   </g>
   <g id="text_25">
    <!-- Belarus -->
    <defs>
     <path d="M 4.796875 0 
L 4.796875 62.296875 
L 22.5 62.296875 
Q 33.296875 62.296875 38.25 58.09375 
Q 43.203125 53.90625 43.203125 47.203125 
Q 43.203125 42.796875 40.796875 38.890625 
Q 38.40625 35 34 33.40625 
Q 39.296875 31.59375 42.5 27.140625 
Q 45.703125 22.703125 45.703125 17.5 
Q 45.703125 9.59375 40.09375 4.796875 
Q 34.5 0 22.40625 0 
z
M 11.703125 36.5 
L 21.5 36.5 
Q 29.796875 36.5 33 39.296875 
Q 36.203125 42.09375 36.203125 46.40625 
Q 36.203125 50.5 33.09375 53.453125 
Q 30 56.40625 22.59375 56.40625 
L 11.703125 56.40625 
z
M 11.703125 6.09375 
L 23.59375 6.09375 
Q 30.09375 6.09375 34.1875 8.75 
Q 38.296875 11.40625 38.296875 17.90625 
Q 38.296875 23.5 34.640625 27.046875 
Q 31 30.59375 21.90625 30.59375 
L 11.703125 30.59375 
z
" id="Inconsolata-Regular-66"/>
    </defs>
    <g transform="translate(484.985412 94.07209)scale(0.1 -0.1)">
     <use xlink:href="#Inconsolata-Regular-66"/>
     <use x="49.999985" xlink:href="#Inconsolata-Regular-101"/>
     <use x="99.999969" xlink:href="#Inconsolata-Regular-108"/>
     <use x="149.999954" xlink:href="#Inconsolata-Regular-97"/>
     <use x="199.999939" xlink:href="#Inconsolata-Regular-114"/>
     <use x="249.999924" xlink:href="#Inconsolata-Regular-117"/>
     <use x="299.999908" xlink:href="#Inconsolata-Regular-115"/>
    </g>
   </g>
   <g id="text_26">
    <!-- Switzerland -->
    <defs>
     <path d="M 5 4.90625 
L 33.296875 39.40625 
L 7.09375 39.40625 
L 7.09375 45.703125 
L 42.59375 45.703125 
L 42.59375 40.796875 
L 14.796875 6.203125 
L 40.59375 6.203125 
Q 42.296875 6.203125 43 6.390625 
Q 43.703125 6.59375 44.296875 7.203125 
L 45 7.203125 
L 45 0 
L 5 0 
z
" id="Inconsolata-Regular-122"/>
    </defs>
    <g transform="translate(591.987103 113.778243)scale(0.1 -0.1)">
     <use xlink:href="#Inconsolata-Regular-83"/>
     <use x="49.999985" xlink:href="#Inconsolata-Regular-119"/>
     <use x="99.999969" xlink:href="#Inconsolata-Regular-105"/>
     <use x="149.999954" xlink:href="#Inconsolata-Regular-116"/>
     <use x="199.999939" xlink:href="#Inconsolata-Regular-122"/>
     <use x="249.999924" xlink:href="#Inconsolata-Regular-101"/>
     <use x="299.999908" xlink:href="#Inconsolata-Regular-114"/>
     <use x="349.999893" xlink:href="#Inconsolata-Regular-108"/>
     <use x="399.999878" xlink:href="#Inconsolata-Regular-97"/>
     <use x="449.999863" xlink:href="#Inconsolata-Regular-110"/>
     <use x="499.999847" xlink:href="#Inconsolata-Regular-100"/>
    </g>
   </g>
   <g id="text_27">
    <!-- US -->
    <defs>
     <path d="M 25.09375 -1.09375 
Q 15.09375 -1.09375 10.046875 4.84375 
Q 5 10.796875 5 21.5 
L 5 62.296875 
L 12.796875 62.296875 
L 12.796875 61.59375 
Q 12.203125 61 12.046875 60.296875 
Q 11.90625 59.59375 11.90625 57.90625 
L 11.90625 21.40625 
Q 11.90625 13.796875 14.84375 9.296875 
Q 17.796875 4.796875 25.203125 4.796875 
Q 32.703125 4.796875 35.703125 9.296875 
Q 38.703125 13.796875 38.703125 21.703125 
L 38.703125 62.296875 
L 45.40625 62.296875 
L 45.40625 21.796875 
Q 45.40625 10 39.84375 4.453125 
Q 34.296875 -1.09375 25.09375 -1.09375 
z
" id="Inconsolata-Regular-85"/>
    </defs>
    <g transform="translate(591.987103 19.534575)scale(0.1 -0.1)">
     <use xlink:href="#Inconsolata-Regular-85"/>
     <use x="49.999985" xlink:href="#Inconsolata-Regular-83"/>
    </g>
   </g>
  </g>
 </g>
 <defs>
  <clipPath id="p32a0a7d94d">
   <rect height="171" width="608.675" x="69.325" y="10"/>
  </clipPath>
 </defs>
</svg>
