<?xml version="1.0" encoding="utf-8" standalone="no"?>
<!DOCTYPE svg PUBLIC "-//W3C//DTD SVG 1.1//EN"
  "http://www.w3.org/Graphics/SVG/1.1/DTD/svg11.dtd">
<!-- Created with matplotlib (https://matplotlib.org/) -->
<svg height="432pt" version="1.1" viewBox="0 0 720 432" width="720pt" xmlns="http://www.w3.org/2000/svg" xmlns:xlink="http://www.w3.org/1999/xlink">
 <defs>
  <style type="text/css">
*{stroke-linecap:butt;stroke-linejoin:round;}
  </style>
 </defs>
 <g id="figure_1">
  <g id="patch_1">
   <path d="M 0 432 
L 720 432 
L 720 0 
L 0 0 
z
" style="fill:#ffffff;"/>
  </g>
  <g id="axes_1">
   <g id="patch_2">
    <path d="M 69.325 392 
L 678 392 
L 678 221 
L 69.325 221 
z
" style="fill:#e5e5e5;"/>
   </g>
   <g id="matplotlib.axis_1">
    <g id="xtick_1">
     <g id="line2d_1">
      <path clip-path="url(#p0d74fc9d0c)" d="M 73.93967 392 
L 73.93967 221 
" style="fill:none;stroke:#ffffff;stroke-linecap:square;stroke-width:0.8;"/>
     </g>
     <g id="line2d_2">
      <defs>
       <path d="M 0 0 
L 0 3.5 
" id="m77536ac4af" style="stroke:#555555;stroke-width:0.8;"/>
      </defs>
      <g>
       <use style="fill:#555555;stroke:#555555;stroke-width:0.8;" x="73.93967" xlink:href="#m77536ac4af" y="392"/>
      </g>
     </g>
     <g id="text_1">
      <!-- 0 -->
      <defs>
       <path d="M 25 -1.09375 
Q 15.703125 -1.09375 10.703125 7.203125 
Q 5.703125 15.5 5.703125 30.796875 
Q 5.703125 45.59375 10.703125 54.140625 
Q 15.703125 62.703125 25 62.703125 
Q 34.296875 62.703125 39.296875 54.140625 
Q 44.296875 45.59375 44.296875 30.796875 
Q 44.296875 15.5 39.296875 7.203125 
Q 34.296875 -1.09375 25 -1.09375 
z
M 12.90625 30.796875 
Q 12.90625 24.40625 13.796875 19.40625 
L 35 46.703125 
Q 33.5 51.40625 30.953125 54 
Q 28.40625 56.59375 25 56.59375 
Q 19.296875 56.59375 16.09375 49.59375 
Q 12.90625 42.59375 12.90625 30.796875 
z
M 25 5 
Q 30.703125 5 33.890625 11.703125 
Q 37.09375 18.40625 37.09375 30.796875 
Q 37.09375 36.296875 36.40625 40.796875 
L 15.203125 13.90625 
Q 18.296875 5 25 5 
z
" id="Inconsolata-Regular-48"/>
      </defs>
      <g style="fill:#555555;" transform="translate(71.43967 405.65)scale(0.1 -0.1)">
       <use xlink:href="#Inconsolata-Regular-48"/>
      </g>
     </g>
    </g>
    <g id="xtick_2">
     <g id="line2d_3">
      <path clip-path="url(#p0d74fc9d0c)" d="M 166.233074 392 
L 166.233074 221 
" style="fill:none;stroke:#ffffff;stroke-linecap:square;stroke-width:0.8;"/>
     </g>
     <g id="line2d_4">
      <g>
       <use style="fill:#555555;stroke:#555555;stroke-width:0.8;" x="166.233074" xlink:href="#m77536ac4af" y="392"/>
      </g>
     </g>
     <g id="text_2">
      <!-- 20 -->
      <defs>
       <path d="M 7.296875 5.59375 
Q 14 12.5 19.390625 17.84375 
Q 24.796875 23.203125 28.59375 27.640625 
Q 32.40625 32.09375 34.40625 36.296875 
Q 36.40625 40.5 36.40625 45.09375 
Q 36.40625 51.59375 33.296875 54.09375 
Q 30.203125 56.59375 25.796875 56.59375 
Q 22.203125 56.59375 19.046875 55.046875 
Q 15.90625 53.5 13.296875 50.296875 
Q 12.40625 48.90625 12.203125 48.15625 
Q 12 47.40625 12.09375 46.59375 
L 11.703125 46.09375 
L 10.90625 46.59375 
L 5.796875 50.59375 
Q 8.796875 56.40625 14.046875 59.546875 
Q 19.296875 62.703125 25.703125 62.703125 
Q 33.59375 62.703125 38.59375 57.953125 
Q 43.59375 53.203125 43.59375 44.90625 
Q 43.59375 39.703125 41.296875 35 
Q 39 30.296875 35.140625 25.6875 
Q 31.296875 21.09375 26.390625 16.296875 
Q 21.5 11.5 16.296875 6.09375 
L 39.5 6.09375 
Q 41.203125 6.09375 41.890625 6.296875 
Q 42.59375 6.5 43.203125 7.09375 
L 43.90625 7.09375 
L 43.90625 0 
L 7.296875 0 
z
" id="Inconsolata-Regular-50"/>
      </defs>
      <g style="fill:#555555;" transform="translate(161.233074 405.65)scale(0.1 -0.1)">
       <use xlink:href="#Inconsolata-Regular-50"/>
       <use x="49.999985" xlink:href="#Inconsolata-Regular-48"/>
      </g>
     </g>
    </g>
    <g id="xtick_3">
     <g id="line2d_5">
      <path clip-path="url(#p0d74fc9d0c)" d="M 258.526478 392 
L 258.526478 221 
" style="fill:none;stroke:#ffffff;stroke-linecap:square;stroke-width:0.8;"/>
     </g>
     <g id="line2d_6">
      <g>
       <use style="fill:#555555;stroke:#555555;stroke-width:0.8;" x="258.526478" xlink:href="#m77536ac4af" y="392"/>
      </g>
     </g>
     <g id="text_3">
      <!-- 40 -->
      <defs>
       <path d="M 31.796875 0 
L 31.796875 15.296875 
L 4.796875 15.296875 
L 4.796875 20.40625 
L 33.296875 62.40625 
L 39.203125 62.40625 
L 39.203125 21.09375 
L 47.203125 21.09375 
L 47.203125 15.203125 
L 39.203125 15.203125 
L 39.203125 0 
z
M 12.90625 21.203125 
L 31.796875 21.203125 
L 31.796875 49.796875 
z
" id="Inconsolata-Regular-52"/>
      </defs>
      <g style="fill:#555555;" transform="translate(253.526478 405.65)scale(0.1 -0.1)">
       <use xlink:href="#Inconsolata-Regular-52"/>
       <use x="49.999985" xlink:href="#Inconsolata-Regular-48"/>
      </g>
     </g>
    </g>
    <g id="xtick_4">
     <g id="line2d_7">
      <path clip-path="url(#p0d74fc9d0c)" d="M 350.819882 392 
L 350.819882 221 
" style="fill:none;stroke:#ffffff;stroke-linecap:square;stroke-width:0.8;"/>
     </g>
     <g id="line2d_8">
      <g>
       <use style="fill:#555555;stroke:#555555;stroke-width:0.8;" x="350.819882" xlink:href="#m77536ac4af" y="392"/>
      </g>
     </g>
     <g id="text_4">
      <!-- 60 -->
      <defs>
       <path d="M 26.09375 -1 
Q 16.796875 -1 11.75 6.890625 
Q 6.703125 14.796875 6.703125 28.40625 
Q 6.703125 45.203125 12.703125 54.09375 
Q 18.703125 63 28.703125 63 
Q 36.59375 63 42.40625 57.296875 
L 38 52.296875 
L 37.296875 51.5 
L 36.796875 52 
Q 36.703125 52.796875 36.34375 53.5 
Q 36 54.203125 34.703125 55.296875 
Q 32.5 56.796875 28.90625 56.796875 
Q 26.90625 56.796875 24.296875 55.84375 
Q 21.703125 54.90625 19.296875 52.296875 
Q 16.90625 49.703125 15.296875 44.953125 
Q 13.703125 40.203125 13.59375 32.703125 
Q 15.703125 36.203125 19.25 38.203125 
Q 22.796875 40.203125 26.796875 40.203125 
Q 31.5 40.203125 35.34375 37.640625 
Q 39.203125 35.09375 41.546875 30.546875 
Q 43.90625 26 43.90625 19.796875 
Q 43.90625 13.59375 41.5 8.890625 
Q 39.09375 4.203125 35.09375 1.59375 
Q 31.09375 -1 26.09375 -1 
z
M 26.40625 5.203125 
Q 30.703125 5.203125 33.890625 8.890625 
Q 37.09375 12.59375 37.09375 19.703125 
Q 37.09375 24.703125 35.4375 27.890625 
Q 33.796875 31.09375 31.296875 32.59375 
Q 28.796875 34.09375 26.203125 34.09375 
Q 22.59375 34.09375 19.296875 31.640625 
Q 16 29.203125 14 25.703125 
Q 13.59375 22.296875 14.25 18.6875 
Q 14.90625 15.09375 16.546875 12.046875 
Q 18.203125 9 20.703125 7.09375 
Q 23.203125 5.203125 26.40625 5.203125 
z
" id="Inconsolata-Regular-54"/>
      </defs>
      <g style="fill:#555555;" transform="translate(345.819882 405.65)scale(0.1 -0.1)">
       <use xlink:href="#Inconsolata-Regular-54"/>
       <use x="49.999985" xlink:href="#Inconsolata-Regular-48"/>
      </g>
     </g>
    </g>
    <g id="xtick_5">
     <g id="line2d_9">
      <path clip-path="url(#p0d74fc9d0c)" d="M 443.113287 392 
L 443.113287 221 
" style="fill:none;stroke:#ffffff;stroke-linecap:square;stroke-width:0.8;"/>
     </g>
     <g id="line2d_10">
      <g>
       <use style="fill:#555555;stroke:#555555;stroke-width:0.8;" x="443.113287" xlink:href="#m77536ac4af" y="392"/>
      </g>
     </g>
     <g id="text_5">
      <!-- 80 -->
      <defs>
       <path d="M 25 -1 
Q 19.09375 -1 14.84375 1.25 
Q 10.59375 3.5 8.296875 7.296875 
Q 6 11.09375 6 15.703125 
Q 6 21.09375 9.390625 25.796875 
Q 12.796875 30.5 18.5 33.09375 
Q 14.203125 35.296875 11.59375 39.25 
Q 9 43.203125 9 47.703125 
Q 9 54.09375 13.140625 58.59375 
Q 17.296875 63.09375 25.5 63.09375 
Q 31.296875 63.09375 34.890625 61.09375 
Q 38.5 59.09375 40.25 55.75 
Q 42 52.40625 42 48.296875 
Q 42 43.796875 39.296875 39.75 
Q 36.59375 35.703125 32.09375 33.296875 
Q 37.5 30.796875 40.796875 26.140625 
Q 44.09375 21.5 44.09375 16.09375 
Q 44.09375 11.203125 41.75 7.34375 
Q 39.40625 3.5 35.15625 1.25 
Q 30.90625 -1 25 -1 
z
M 26.703125 35.796875 
Q 30.40625 37.796875 32.796875 41.1875 
Q 35.203125 44.59375 35.203125 48.09375 
Q 35.203125 51.59375 32.75 54.390625 
Q 30.296875 57.203125 25.296875 57.203125 
Q 20.40625 57.203125 18.046875 54.5 
Q 15.703125 51.796875 15.703125 48.40625 
Q 15.703125 43.796875 18.890625 41.046875 
Q 22.09375 38.296875 26.703125 35.796875 
z
M 25.203125 5.296875 
Q 31 5.296875 34 8.4375 
Q 37 11.59375 37 16.09375 
Q 37 20.703125 33.390625 24.546875 
Q 29.796875 28.40625 23.703125 30.296875 
Q 19.203125 28.40625 16.203125 24.65625 
Q 13.203125 20.90625 13.203125 16.40625 
Q 13.203125 11.90625 16.34375 8.59375 
Q 19.5 5.296875 25.203125 5.296875 
z
" id="Inconsolata-Regular-56"/>
      </defs>
      <g style="fill:#555555;" transform="translate(438.113287 405.65)scale(0.1 -0.1)">
       <use xlink:href="#Inconsolata-Regular-56"/>
       <use x="49.999985" xlink:href="#Inconsolata-Regular-48"/>
      </g>
     </g>
    </g>
    <g id="xtick_6">
     <g id="line2d_11">
      <path clip-path="url(#p0d74fc9d0c)" d="M 535.406691 392 
L 535.406691 221 
" style="fill:none;stroke:#ffffff;stroke-linecap:square;stroke-width:0.8;"/>
     </g>
     <g id="line2d_12">
      <g>
       <use style="fill:#555555;stroke:#555555;stroke-width:0.8;" x="535.406691" xlink:href="#m77536ac4af" y="392"/>
      </g>
     </g>
     <g id="text_6">
      <!-- 100 -->
      <defs>
       <path d="M 23 0 
L 23 53.703125 
L 10.40625 50 
L 8.796875 53.90625 
L 25.09375 62.40625 
L 30 62.40625 
L 30 0 
z
" id="Inconsolata-Regular-49"/>
      </defs>
      <g style="fill:#555555;" transform="translate(527.906691 405.65)scale(0.1 -0.1)">
       <use xlink:href="#Inconsolata-Regular-49"/>
       <use x="49.999985" xlink:href="#Inconsolata-Regular-48"/>
       <use x="99.999969" xlink:href="#Inconsolata-Regular-48"/>
      </g>
     </g>
    </g>
    <g id="xtick_7">
     <g id="line2d_13">
      <path clip-path="url(#p0d74fc9d0c)" d="M 627.700095 392 
L 627.700095 221 
" style="fill:none;stroke:#ffffff;stroke-linecap:square;stroke-width:0.8;"/>
     </g>
     <g id="line2d_14">
      <g>
       <use style="fill:#555555;stroke:#555555;stroke-width:0.8;" x="627.700095" xlink:href="#m77536ac4af" y="392"/>
      </g>
     </g>
     <g id="text_7">
      <!-- 120 -->
      <g style="fill:#555555;" transform="translate(620.200095 405.65)scale(0.1 -0.1)">
       <use xlink:href="#Inconsolata-Regular-49"/>
       <use x="49.999985" xlink:href="#Inconsolata-Regular-50"/>
       <use x="99.999969" xlink:href="#Inconsolata-Regular-48"/>
      </g>
     </g>
    </g>
    <g id="text_8">
     <!-- days since 3 deaths -->
     <defs>
      <path d="M 23.40625 -1 
Q 18.796875 -1 14.4375 1.640625 
Q 10.09375 4.296875 7.296875 9.6875 
Q 4.5 15.09375 4.5 23.296875 
Q 4.5 31.703125 7.390625 36.890625 
Q 10.296875 42.09375 14.75 44.5 
Q 19.203125 46.90625 23.796875 46.90625 
Q 28.5 46.90625 31.953125 44.75 
Q 35.40625 42.59375 37.09375 39 
L 37.09375 66.5 
L 44.703125 66.5 
L 44.703125 65.796875 
Q 44.09375 65.203125 43.9375 64.5 
Q 43.796875 63.796875 43.796875 62.09375 
L 43.90625 7.09375 
Q 43.90625 5.296875 44.046875 3.546875 
Q 44.203125 1.796875 44.90625 0 
L 37.796875 0 
Q 37.09375 1.796875 36.9375 3.546875 
Q 36.796875 5.296875 36.796875 7.09375 
Q 34.59375 3.40625 31.1875 1.203125 
Q 27.796875 -1 23.40625 -1 
z
M 24.5 5.296875 
Q 28.90625 5.296875 31.546875 7.6875 
Q 34.203125 10.09375 35.34375 14.140625 
Q 36.5 18.203125 36.5 23.09375 
Q 36.5 30.796875 33.5 35.890625 
Q 30.5 41 23.90625 41 
Q 17.796875 41 14.640625 36.5 
Q 11.5 32 11.5 24.40625 
Q 11.5 15.796875 14.796875 10.546875 
Q 18.09375 5.296875 24.5 5.296875 
z
" id="Inconsolata-Regular-100"/>
      <path d="M 21.09375 -1.09375 
Q 13.296875 -1.09375 9.09375 2.453125 
Q 4.90625 6 4.90625 11.5 
Q 4.90625 16.40625 8 19.953125 
Q 11.09375 23.5 16.34375 25.453125 
Q 21.59375 27.40625 27.90625 27.40625 
Q 30.203125 27.40625 32.75 27.296875 
Q 35.296875 27.203125 38.203125 26.796875 
Q 37.59375 34.796875 34.046875 37.796875 
Q 30.5 40.796875 23.90625 40.796875 
Q 20.59375 40.796875 17.390625 39.546875 
Q 14.203125 38.296875 11.59375 35.703125 
L 8.09375 40.296875 
Q 11.296875 43.5 15.5 45.09375 
Q 19.703125 46.703125 24.40625 46.703125 
Q 30.5 46.703125 35 44.703125 
Q 39.5 42.703125 42 37.796875 
Q 44.5 32.90625 44.5 24.296875 
L 44.5 0 
L 36.703125 0 
L 36.703125 7 
Q 35 3.703125 32.34375 1.953125 
Q 29.703125 0.203125 26.75 -0.4375 
Q 23.796875 -1.09375 21.09375 -1.09375 
z
M 12.09375 11.90625 
Q 12.09375 7.59375 14.890625 6 
Q 17.703125 4.40625 21.796875 4.40625 
Q 29.203125 4.40625 33.5 8.75 
Q 37.796875 13.09375 38.203125 21.296875 
Q 33 22 28.5 22 
Q 21.296875 22 16.6875 19.59375 
Q 12.09375 17.203125 12.09375 11.90625 
z
" id="Inconsolata-Regular-97"/>
      <path d="M 12.703125 -17.40625 
Q 6.296875 -17.40625 2.203125 -13.5 
L 5.296875 -8.59375 
L 5.90625 -7.703125 
L 6.5 -8.09375 
Q 6.703125 -8.90625 7.203125 -9.453125 
Q 7.703125 -10 9.09375 -10.90625 
Q 10.90625 -11.5 13.09375 -11.5 
Q 17 -11.5 19.203125 -8.75 
Q 21.40625 -6 23.296875 -0.296875 
L 4.59375 45.703125 
L 12.09375 45.703125 
L 26.296875 9.09375 
L 32.296875 27.5 
Q 33.796875 32.09375 35.1875 36.59375 
Q 36.59375 41.09375 37.09375 45.703125 
L 44.296875 45.703125 
Q 43.59375 41.09375 42.09375 36.390625 
Q 40.59375 31.703125 38.90625 27 
L 27.5 -5.203125 
Q 25.09375 -11.90625 21.34375 -14.65625 
Q 17.59375 -17.40625 12.703125 -17.40625 
z
" id="Inconsolata-Regular-121"/>
      <path d="M 25.09375 -1 
Q 13.5 -1 5.703125 6.203125 
L 9.703125 13 
L 10.296875 13.90625 
L 10.90625 13.5 
Q 11.09375 12.703125 11.34375 11.84375 
Q 11.59375 11 12.703125 9.796875 
Q 14.796875 7.703125 17.75 6.34375 
Q 20.703125 5 25.296875 5 
Q 30.796875 5 33.84375 6.953125 
Q 36.90625 8.90625 36.90625 12.296875 
Q 36.90625 15.203125 34.34375 17.09375 
Q 31.796875 19 25.40625 21.09375 
Q 17.5 23.40625 12.84375 26.796875 
Q 8.203125 30.203125 8.203125 35.296875 
Q 8.203125 40.5 12.453125 43.640625 
Q 16.703125 46.796875 25 46.796875 
Q 31.40625 46.796875 35.59375 45 
Q 39.796875 43.203125 43.203125 39.59375 
L 39.09375 34.59375 
L 38.40625 33.796875 
L 37.90625 34.296875 
Q 37.796875 35.09375 37.4375 35.84375 
Q 37.09375 36.59375 36 37.703125 
Q 33.703125 39.5 30.796875 40.453125 
Q 27.90625 41.40625 25.203125 41.40625 
Q 21.203125 41.40625 18.296875 40 
Q 15.40625 38.59375 15.40625 35.703125 
Q 15.40625 34.203125 16.453125 32.75 
Q 17.5 31.296875 20.296875 29.84375 
Q 23.09375 28.40625 28.296875 26.90625 
Q 36.90625 24.296875 40.453125 21.25 
Q 44 18.203125 44 13.296875 
Q 44 9.5 41.953125 6.203125 
Q 39.90625 2.90625 35.703125 0.953125 
Q 31.5 -1 25.09375 -1 
z
" id="Inconsolata-Regular-115"/>
      <path id="Inconsolata-Regular-32"/>
      <path d="M 10 0 
L 10 5.796875 
L 21.703125 5.796875 
L 21.703125 39.90625 
L 10.59375 39.90625 
L 10.59375 45.703125 
L 28.90625 45.703125 
L 28.90625 5.796875 
L 39.59375 5.796875 
L 39.59375 0 
z
M 24.90625 55.296875 
Q 22.796875 55.296875 21.296875 56.796875 
Q 19.796875 58.296875 19.796875 60.40625 
Q 19.796875 62.59375 21.25 64.09375 
Q 22.703125 65.59375 24.90625 65.59375 
Q 27 65.59375 28.546875 64.046875 
Q 30.09375 62.5 30.09375 60.40625 
Q 30.09375 58.296875 28.546875 56.796875 
Q 27 55.296875 24.90625 55.296875 
z
" id="Inconsolata-Regular-105"/>
      <path d="M 7.203125 0 
L 7.203125 45.703125 
L 14.203125 45.703125 
L 14.203125 37.59375 
Q 16.796875 41.796875 20.9375 44.296875 
Q 25.09375 46.796875 29.703125 46.796875 
Q 35.296875 46.796875 39.1875 42.4375 
Q 43.09375 38.09375 43.09375 27.703125 
L 43.09375 0 
L 36.09375 0 
L 36.09375 27.5 
Q 36.09375 34.703125 33.640625 37.59375 
Q 31.203125 40.5 27.703125 40.5 
Q 24.703125 40.5 21.546875 38.75 
Q 18.40625 37 16.296875 33.84375 
Q 14.203125 30.703125 14.203125 26.296875 
L 14.203125 0 
z
" id="Inconsolata-Regular-110"/>
      <path d="M 28.5 -1.09375 
Q 21.90625 -1.09375 16.703125 2 
Q 11.5 5.09375 8.546875 10.5 
Q 5.59375 15.90625 5.59375 22.796875 
Q 5.59375 29.703125 8.546875 35.046875 
Q 11.5 40.40625 16.640625 43.5 
Q 21.796875 46.59375 28.40625 46.59375 
Q 34 46.59375 38.453125 44.34375 
Q 42.90625 42.09375 45.703125 38.09375 
L 41.203125 33.703125 
L 40.5 33 
L 40 33.5 
Q 40 34.296875 39.640625 35 
Q 39.296875 35.703125 38.09375 36.90625 
Q 35.90625 38.90625 33.40625 39.703125 
Q 30.90625 40.5 27.59375 40.5 
Q 23.796875 40.5 20.4375 38.390625 
Q 17.09375 36.296875 15.046875 32.4375 
Q 13 28.59375 13 23.296875 
Q 13 18.203125 15.046875 14.140625 
Q 17.09375 10.09375 20.6875 7.75 
Q 24.296875 5.40625 28.90625 5.40625 
Q 35.796875 5.40625 40.796875 11 
L 45 6.09375 
Q 38.296875 -1.09375 28.5 -1.09375 
z
" id="Inconsolata-Regular-99"/>
      <path d="M 27.203125 -1 
Q 17.203125 -1 11.046875 5.09375 
Q 4.90625 11.203125 4.90625 22.703125 
Q 4.90625 30.5 7.75 35.84375 
Q 10.59375 41.203125 15.34375 44 
Q 20.09375 46.796875 25.90625 46.796875 
Q 31.09375 46.796875 35.296875 44.5 
Q 39.5 42.203125 42 37.390625 
Q 44.5 32.59375 44.5 25.09375 
Q 44.5 24.296875 44.453125 23.4375 
Q 44.40625 22.59375 44.296875 21.796875 
L 11.796875 21.796875 
Q 12.203125 13 16.75 8.890625 
Q 21.296875 4.796875 27.40625 4.796875 
Q 34.59375 4.796875 39.203125 9.90625 
L 43.203125 6 
Q 37.40625 -1 27.203125 -1 
z
M 12.09375 27.40625 
L 37.203125 27.40625 
Q 37.203125 33.796875 33.953125 37.546875 
Q 30.703125 41.296875 25.40625 41.296875 
Q 20.703125 41.296875 16.890625 37.9375 
Q 13.09375 34.59375 12.09375 27.40625 
z
" id="Inconsolata-Regular-101"/>
      <path d="M 24 -1.09375 
Q 19.09375 -1.09375 14.59375 0.703125 
Q 10.09375 2.5 6.90625 6 
L 11.5 11.5 
L 12.203125 12.296875 
L 12.703125 11.796875 
Q 12.796875 11 13.09375 10.25 
Q 13.40625 9.5 14.5 8.296875 
Q 16.203125 6.796875 18.390625 5.84375 
Q 20.59375 4.90625 23.703125 4.90625 
Q 29.703125 4.90625 32.59375 8.40625 
Q 35.5 11.90625 35.5 17.40625 
Q 35.5 24.5 30.75 27.453125 
Q 26 30.40625 18 29.59375 
L 18 35.203125 
Q 24.5 35.203125 27.796875 36.890625 
Q 31.09375 38.59375 32.25 41.4375 
Q 33.40625 44.296875 33.40625 47.5 
Q 33.40625 51.796875 30.953125 54.25 
Q 28.5 56.703125 24.5 56.703125 
Q 21.5 56.703125 18.640625 55.703125 
Q 15.796875 54.703125 13.09375 52.09375 
L 8.90625 56.296875 
Q 12.296875 59.796875 16.34375 61.25 
Q 20.40625 62.703125 24.40625 62.703125 
Q 32 62.703125 36.296875 58.390625 
Q 40.59375 54.09375 40.59375 47.203125 
Q 40.59375 42.296875 38.1875 38.4375 
Q 35.796875 34.59375 30.796875 33 
Q 36.09375 31.296875 39.390625 27.390625 
Q 42.703125 23.5 42.703125 17.09375 
Q 42.703125 12.203125 40.546875 8.046875 
Q 38.40625 3.90625 34.25 1.40625 
Q 30.09375 -1.09375 24 -1.09375 
z
" id="Inconsolata-Regular-51"/>
      <path d="M 29.90625 -0.703125 
Q 24 -0.703125 20.953125 2 
Q 17.90625 4.703125 16.90625 10.34375 
Q 15.90625 16 16.203125 24.796875 
L 16.796875 39.796875 
L 7 39.796875 
L 7 45.703125 
L 17 45.703125 
L 17.40625 57.40625 
L 24.90625 58.296875 
L 25.90625 58.40625 
L 26 57.703125 
Q 25.5 57 25.140625 56.296875 
Q 24.796875 55.59375 24.59375 53.90625 
L 23.90625 45.703125 
L 39.90625 45.703125 
L 39.90625 39.796875 
L 24 39.796875 
L 23.296875 24.296875 
Q 23 16.703125 23.703125 12.546875 
Q 24.40625 8.40625 26.203125 6.84375 
Q 28 5.296875 31 5.296875 
Q 34.296875 5.296875 36.84375 6.59375 
Q 39.40625 7.90625 42.203125 9.90625 
L 44.40625 4.203125 
Q 41 1.703125 37.390625 0.5 
Q 33.796875 -0.703125 29.90625 -0.703125 
z
" id="Inconsolata-Regular-116"/>
      <path d="M 7.296875 66.5 
L 15.203125 66.5 
L 15.203125 65.796875 
Q 14.59375 65.203125 14.4375 64.5 
Q 14.296875 63.796875 14.296875 62.09375 
L 14.296875 37.59375 
Q 17 41.796875 21.046875 44.296875 
Q 25.09375 46.796875 29.296875 46.796875 
Q 35.5 46.796875 39.34375 42.4375 
Q 43.203125 38.09375 43.203125 27.703125 
L 43.203125 0 
L 36.203125 0 
L 36.203125 27.5 
Q 36.203125 34.703125 33.75 37.59375 
Q 31.296875 40.5 27.796875 40.5 
Q 24.796875 40.5 21.640625 38.796875 
Q 18.5 37.09375 16.390625 33.9375 
Q 14.296875 30.796875 14.296875 26.296875 
L 14.296875 0 
L 7.296875 0 
z
" id="Inconsolata-Regular-104"/>
     </defs>
     <g style="fill:#555555;" transform="translate(316.6625 419.300313)scale(0.12 -0.12)">
      <use xlink:href="#Inconsolata-Regular-100"/>
      <use x="49.999985" xlink:href="#Inconsolata-Regular-97"/>
      <use x="99.999969" xlink:href="#Inconsolata-Regular-121"/>
      <use x="149.999954" xlink:href="#Inconsolata-Regular-115"/>
      <use x="199.999939" xlink:href="#Inconsolata-Regular-32"/>
      <use x="249.999924" xlink:href="#Inconsolata-Regular-115"/>
      <use x="299.999908" xlink:href="#Inconsolata-Regular-105"/>
      <use x="349.999893" xlink:href="#Inconsolata-Regular-110"/>
      <use x="399.999878" xlink:href="#Inconsolata-Regular-99"/>
      <use x="449.999863" xlink:href="#Inconsolata-Regular-101"/>
      <use x="499.999847" xlink:href="#Inconsolata-Regular-32"/>
      <use x="549.999832" xlink:href="#Inconsolata-Regular-51"/>
      <use x="599.999817" xlink:href="#Inconsolata-Regular-32"/>
      <use x="649.999802" xlink:href="#Inconsolata-Regular-100"/>
      <use x="699.999786" xlink:href="#Inconsolata-Regular-101"/>
      <use x="749.999771" xlink:href="#Inconsolata-Regular-97"/>
      <use x="799.999756" xlink:href="#Inconsolata-Regular-116"/>
      <use x="849.999741" xlink:href="#Inconsolata-Regular-104"/>
      <use x="899.999725" xlink:href="#Inconsolata-Regular-115"/>
     </g>
    </g>
   </g>
   <g id="matplotlib.axis_2">
    <g id="ytick_1">
     <g id="line2d_15">
      <path clip-path="url(#p0d74fc9d0c)" d="M 69.325 392 
L 678 392 
" style="fill:none;stroke:#ffffff;stroke-linecap:square;stroke-width:0.8;"/>
     </g>
     <g id="line2d_16">
      <defs>
       <path d="M 0 0 
L -3.5 0 
" id="m210b4a33d8" style="stroke:#555555;stroke-width:0.8;"/>
      </defs>
      <g>
       <use style="fill:#555555;stroke:#555555;stroke-width:0.8;" x="69.325" xlink:href="#m210b4a33d8" y="392"/>
      </g>
     </g>
     <g id="line2d_17">
      <defs>
       <path d="M 0 0 
L 3.5 0 
" id="m0e5d60ca18" style="stroke:#555555;stroke-width:0.8;"/>
      </defs>
      <g>
       <use style="fill:#555555;stroke:#555555;stroke-width:0.8;" x="678" xlink:href="#m0e5d60ca18" y="392"/>
      </g>
     </g>
     <g id="text_9">
      <!-- 0.1 -->
      <defs>
       <path d="M 23.796875 -1.09375 
Q 21.40625 -1.09375 19.703125 0.59375 
Q 18 2.296875 18 4.59375 
Q 18 6.90625 19.703125 8.59375 
Q 21.40625 10.296875 23.796875 10.296875 
Q 26.09375 10.296875 27.796875 8.59375 
Q 29.5 6.90625 29.5 4.59375 
Q 29.5 2.296875 27.796875 0.59375 
Q 26.09375 -1.09375 23.796875 -1.09375 
z
" id="Inconsolata-Regular-46"/>
      </defs>
      <g style="fill:#555555;" transform="translate(47.325 395.325)scale(0.1 -0.1)">
       <use xlink:href="#Inconsolata-Regular-48"/>
       <use x="49.999985" xlink:href="#Inconsolata-Regular-46"/>
       <use x="99.999969" xlink:href="#Inconsolata-Regular-49"/>
      </g>
     </g>
     <g id="text_10">
      <!-- 0.1 -->
      <g style="fill:#555555;" transform="translate(685 395.325)scale(0.1 -0.1)">
       <use xlink:href="#Inconsolata-Regular-48"/>
       <use x="49.999985" xlink:href="#Inconsolata-Regular-46"/>
       <use x="99.999969" xlink:href="#Inconsolata-Regular-49"/>
      </g>
     </g>
    </g>
    <g id="ytick_2">
     <g id="line2d_18">
      <path clip-path="url(#p0d74fc9d0c)" d="M 69.325 354.449008 
L 678 354.449008 
" style="fill:none;stroke:#ffffff;stroke-linecap:square;stroke-width:0.8;"/>
     </g>
     <g id="line2d_19">
      <g>
       <use style="fill:#555555;stroke:#555555;stroke-width:0.8;" x="69.325" xlink:href="#m210b4a33d8" y="354.449008"/>
      </g>
     </g>
     <g id="line2d_20">
      <g>
       <use style="fill:#555555;stroke:#555555;stroke-width:0.8;" x="678" xlink:href="#m0e5d60ca18" y="354.449008"/>
      </g>
     </g>
     <g id="text_11">
      <!-- 1 -->
      <g style="fill:#555555;" transform="translate(57.325 357.774008)scale(0.1 -0.1)">
       <use xlink:href="#Inconsolata-Regular-49"/>
      </g>
     </g>
     <g id="text_12">
      <!-- 1 -->
      <g style="fill:#555555;" transform="translate(685 357.774008)scale(0.1 -0.1)">
       <use xlink:href="#Inconsolata-Regular-49"/>
      </g>
     </g>
    </g>
    <g id="ytick_3">
     <g id="line2d_21">
      <path clip-path="url(#p0d74fc9d0c)" d="M 69.325 316.898017 
L 678 316.898017 
" style="fill:none;stroke:#ffffff;stroke-linecap:square;stroke-width:0.8;"/>
     </g>
     <g id="line2d_22">
      <g>
       <use style="fill:#555555;stroke:#555555;stroke-width:0.8;" x="69.325" xlink:href="#m210b4a33d8" y="316.898017"/>
      </g>
     </g>
     <g id="line2d_23">
      <g>
       <use style="fill:#555555;stroke:#555555;stroke-width:0.8;" x="678" xlink:href="#m0e5d60ca18" y="316.898017"/>
      </g>
     </g>
     <g id="text_13">
      <!-- 10 -->
      <g style="fill:#555555;" transform="translate(52.325 320.223017)scale(0.1 -0.1)">
       <use xlink:href="#Inconsolata-Regular-49"/>
       <use x="49.999985" xlink:href="#Inconsolata-Regular-48"/>
      </g>
     </g>
     <g id="text_14">
      <!-- 10 -->
      <g style="fill:#555555;" transform="translate(685 320.223017)scale(0.1 -0.1)">
       <use xlink:href="#Inconsolata-Regular-49"/>
       <use x="49.999985" xlink:href="#Inconsolata-Regular-48"/>
      </g>
     </g>
    </g>
    <g id="ytick_4">
     <g id="line2d_24">
      <path clip-path="url(#p0d74fc9d0c)" d="M 69.325 279.347025 
L 678 279.347025 
" style="fill:none;stroke:#ffffff;stroke-linecap:square;stroke-width:0.8;"/>
     </g>
     <g id="line2d_25">
      <g>
       <use style="fill:#555555;stroke:#555555;stroke-width:0.8;" x="69.325" xlink:href="#m210b4a33d8" y="279.347025"/>
      </g>
     </g>
     <g id="line2d_26">
      <g>
       <use style="fill:#555555;stroke:#555555;stroke-width:0.8;" x="678" xlink:href="#m0e5d60ca18" y="279.347025"/>
      </g>
     </g>
     <g id="text_15">
      <!-- 100 -->
      <g style="fill:#555555;" transform="translate(47.325 282.672025)scale(0.1 -0.1)">
       <use xlink:href="#Inconsolata-Regular-49"/>
       <use x="49.999985" xlink:href="#Inconsolata-Regular-48"/>
       <use x="99.999969" xlink:href="#Inconsolata-Regular-48"/>
      </g>
     </g>
     <g id="text_16">
      <!-- 100 -->
      <g style="fill:#555555;" transform="translate(685 282.672025)scale(0.1 -0.1)">
       <use xlink:href="#Inconsolata-Regular-49"/>
       <use x="49.999985" xlink:href="#Inconsolata-Regular-48"/>
       <use x="99.999969" xlink:href="#Inconsolata-Regular-48"/>
      </g>
     </g>
    </g>
    <g id="ytick_5">
     <g id="line2d_27">
      <path clip-path="url(#p0d74fc9d0c)" d="M 69.325 241.796033 
L 678 241.796033 
" style="fill:none;stroke:#ffffff;stroke-linecap:square;stroke-width:0.8;"/>
     </g>
     <g id="line2d_28">
      <g>
       <use style="fill:#555555;stroke:#555555;stroke-width:0.8;" x="69.325" xlink:href="#m210b4a33d8" y="241.796033"/>
      </g>
     </g>
     <g id="line2d_29">
      <g>
       <use style="fill:#555555;stroke:#555555;stroke-width:0.8;" x="678" xlink:href="#m0e5d60ca18" y="241.796033"/>
      </g>
     </g>
     <g id="text_17">
      <!-- 1000 -->
      <g style="fill:#555555;" transform="translate(42.325 245.121033)scale(0.1 -0.1)">
       <use xlink:href="#Inconsolata-Regular-49"/>
       <use x="49.999985" xlink:href="#Inconsolata-Regular-48"/>
       <use x="99.999969" xlink:href="#Inconsolata-Regular-48"/>
       <use x="149.999954" xlink:href="#Inconsolata-Regular-48"/>
      </g>
     </g>
     <g id="text_18">
      <!-- 1000 -->
      <g style="fill:#555555;" transform="translate(685 245.121033)scale(0.1 -0.1)">
       <use xlink:href="#Inconsolata-Regular-49"/>
       <use x="49.999985" xlink:href="#Inconsolata-Regular-48"/>
       <use x="99.999969" xlink:href="#Inconsolata-Regular-48"/>
       <use x="149.999954" xlink:href="#Inconsolata-Regular-48"/>
      </g>
     </g>
    </g>
    <g id="ytick_6">
     <g id="line2d_30">
      <defs>
       <path d="M 0 0 
L -2 0 
" id="m15aef149fd" style="stroke:#555555;stroke-width:0.6;"/>
      </defs>
      <g>
       <use style="fill:#555555;stroke:#555555;stroke-width:0.6;" x="69.325" xlink:href="#m15aef149fd" y="380.696025"/>
      </g>
     </g>
     <g id="line2d_31">
      <defs>
       <path d="M 0 0 
L 2 0 
" id="m6c14af8be6" style="stroke:#555555;stroke-width:0.6;"/>
      </defs>
      <g>
       <use style="fill:#555555;stroke:#555555;stroke-width:0.6;" x="678" xlink:href="#m6c14af8be6" y="380.696025"/>
      </g>
     </g>
    </g>
    <g id="ytick_7">
     <g id="line2d_32">
      <g>
       <use style="fill:#555555;stroke:#555555;stroke-width:0.6;" x="69.325" xlink:href="#m15aef149fd" y="374.083624"/>
      </g>
     </g>
     <g id="line2d_33">
      <g>
       <use style="fill:#555555;stroke:#555555;stroke-width:0.6;" x="678" xlink:href="#m6c14af8be6" y="374.083624"/>
      </g>
     </g>
    </g>
    <g id="ytick_8">
     <g id="line2d_34">
      <g>
       <use style="fill:#555555;stroke:#555555;stroke-width:0.6;" x="69.325" xlink:href="#m15aef149fd" y="369.39205"/>
      </g>
     </g>
     <g id="line2d_35">
      <g>
       <use style="fill:#555555;stroke:#555555;stroke-width:0.6;" x="678" xlink:href="#m6c14af8be6" y="369.39205"/>
      </g>
     </g>
    </g>
    <g id="ytick_9">
     <g id="line2d_36">
      <g>
       <use style="fill:#555555;stroke:#555555;stroke-width:0.6;" x="69.325" xlink:href="#m15aef149fd" y="365.752983"/>
      </g>
     </g>
     <g id="line2d_37">
      <g>
       <use style="fill:#555555;stroke:#555555;stroke-width:0.6;" x="678" xlink:href="#m6c14af8be6" y="365.752983"/>
      </g>
     </g>
    </g>
    <g id="ytick_10">
     <g id="line2d_38">
      <g>
       <use style="fill:#555555;stroke:#555555;stroke-width:0.6;" x="69.325" xlink:href="#m15aef149fd" y="362.779649"/>
      </g>
     </g>
     <g id="line2d_39">
      <g>
       <use style="fill:#555555;stroke:#555555;stroke-width:0.6;" x="678" xlink:href="#m6c14af8be6" y="362.779649"/>
      </g>
     </g>
    </g>
    <g id="ytick_11">
     <g id="line2d_40">
      <g>
       <use style="fill:#555555;stroke:#555555;stroke-width:0.6;" x="69.325" xlink:href="#m15aef149fd" y="360.265731"/>
      </g>
     </g>
     <g id="line2d_41">
      <g>
       <use style="fill:#555555;stroke:#555555;stroke-width:0.6;" x="678" xlink:href="#m6c14af8be6" y="360.265731"/>
      </g>
     </g>
    </g>
    <g id="ytick_12">
     <g id="line2d_42">
      <g>
       <use style="fill:#555555;stroke:#555555;stroke-width:0.6;" x="69.325" xlink:href="#m15aef149fd" y="358.088075"/>
      </g>
     </g>
     <g id="line2d_43">
      <g>
       <use style="fill:#555555;stroke:#555555;stroke-width:0.6;" x="678" xlink:href="#m6c14af8be6" y="358.088075"/>
      </g>
     </g>
    </g>
    <g id="ytick_13">
     <g id="line2d_44">
      <g>
       <use style="fill:#555555;stroke:#555555;stroke-width:0.6;" x="69.325" xlink:href="#m15aef149fd" y="356.167247"/>
      </g>
     </g>
     <g id="line2d_45">
      <g>
       <use style="fill:#555555;stroke:#555555;stroke-width:0.6;" x="678" xlink:href="#m6c14af8be6" y="356.167247"/>
      </g>
     </g>
    </g>
    <g id="ytick_14">
     <g id="line2d_46">
      <g>
       <use style="fill:#555555;stroke:#555555;stroke-width:0.6;" x="69.325" xlink:href="#m15aef149fd" y="343.145033"/>
      </g>
     </g>
     <g id="line2d_47">
      <g>
       <use style="fill:#555555;stroke:#555555;stroke-width:0.6;" x="678" xlink:href="#m6c14af8be6" y="343.145033"/>
      </g>
     </g>
    </g>
    <g id="ytick_15">
     <g id="line2d_48">
      <g>
       <use style="fill:#555555;stroke:#555555;stroke-width:0.6;" x="69.325" xlink:href="#m15aef149fd" y="336.532632"/>
      </g>
     </g>
     <g id="line2d_49">
      <g>
       <use style="fill:#555555;stroke:#555555;stroke-width:0.6;" x="678" xlink:href="#m6c14af8be6" y="336.532632"/>
      </g>
     </g>
    </g>
    <g id="ytick_16">
     <g id="line2d_50">
      <g>
       <use style="fill:#555555;stroke:#555555;stroke-width:0.6;" x="69.325" xlink:href="#m15aef149fd" y="331.841059"/>
      </g>
     </g>
     <g id="line2d_51">
      <g>
       <use style="fill:#555555;stroke:#555555;stroke-width:0.6;" x="678" xlink:href="#m6c14af8be6" y="331.841059"/>
      </g>
     </g>
    </g>
    <g id="ytick_17">
     <g id="line2d_52">
      <g>
       <use style="fill:#555555;stroke:#555555;stroke-width:0.6;" x="69.325" xlink:href="#m15aef149fd" y="328.201992"/>
      </g>
     </g>
     <g id="line2d_53">
      <g>
       <use style="fill:#555555;stroke:#555555;stroke-width:0.6;" x="678" xlink:href="#m6c14af8be6" y="328.201992"/>
      </g>
     </g>
    </g>
    <g id="ytick_18">
     <g id="line2d_54">
      <g>
       <use style="fill:#555555;stroke:#555555;stroke-width:0.6;" x="69.325" xlink:href="#m15aef149fd" y="325.228657"/>
      </g>
     </g>
     <g id="line2d_55">
      <g>
       <use style="fill:#555555;stroke:#555555;stroke-width:0.6;" x="678" xlink:href="#m6c14af8be6" y="325.228657"/>
      </g>
     </g>
    </g>
    <g id="ytick_19">
     <g id="line2d_56">
      <g>
       <use style="fill:#555555;stroke:#555555;stroke-width:0.6;" x="69.325" xlink:href="#m15aef149fd" y="322.714739"/>
      </g>
     </g>
     <g id="line2d_57">
      <g>
       <use style="fill:#555555;stroke:#555555;stroke-width:0.6;" x="678" xlink:href="#m6c14af8be6" y="322.714739"/>
      </g>
     </g>
    </g>
    <g id="ytick_20">
     <g id="line2d_58">
      <g>
       <use style="fill:#555555;stroke:#555555;stroke-width:0.6;" x="69.325" xlink:href="#m15aef149fd" y="320.537084"/>
      </g>
     </g>
     <g id="line2d_59">
      <g>
       <use style="fill:#555555;stroke:#555555;stroke-width:0.6;" x="678" xlink:href="#m6c14af8be6" y="320.537084"/>
      </g>
     </g>
    </g>
    <g id="ytick_21">
     <g id="line2d_60">
      <g>
       <use style="fill:#555555;stroke:#555555;stroke-width:0.6;" x="69.325" xlink:href="#m15aef149fd" y="318.616256"/>
      </g>
     </g>
     <g id="line2d_61">
      <g>
       <use style="fill:#555555;stroke:#555555;stroke-width:0.6;" x="678" xlink:href="#m6c14af8be6" y="318.616256"/>
      </g>
     </g>
    </g>
    <g id="ytick_22">
     <g id="line2d_62">
      <g>
       <use style="fill:#555555;stroke:#555555;stroke-width:0.6;" x="69.325" xlink:href="#m15aef149fd" y="305.594042"/>
      </g>
     </g>
     <g id="line2d_63">
      <g>
       <use style="fill:#555555;stroke:#555555;stroke-width:0.6;" x="678" xlink:href="#m6c14af8be6" y="305.594042"/>
      </g>
     </g>
    </g>
    <g id="ytick_23">
     <g id="line2d_64">
      <g>
       <use style="fill:#555555;stroke:#555555;stroke-width:0.6;" x="69.325" xlink:href="#m15aef149fd" y="298.98164"/>
      </g>
     </g>
     <g id="line2d_65">
      <g>
       <use style="fill:#555555;stroke:#555555;stroke-width:0.6;" x="678" xlink:href="#m6c14af8be6" y="298.98164"/>
      </g>
     </g>
    </g>
    <g id="ytick_24">
     <g id="line2d_66">
      <g>
       <use style="fill:#555555;stroke:#555555;stroke-width:0.6;" x="69.325" xlink:href="#m15aef149fd" y="294.290067"/>
      </g>
     </g>
     <g id="line2d_67">
      <g>
       <use style="fill:#555555;stroke:#555555;stroke-width:0.6;" x="678" xlink:href="#m6c14af8be6" y="294.290067"/>
      </g>
     </g>
    </g>
    <g id="ytick_25">
     <g id="line2d_68">
      <g>
       <use style="fill:#555555;stroke:#555555;stroke-width:0.6;" x="69.325" xlink:href="#m15aef149fd" y="290.651"/>
      </g>
     </g>
     <g id="line2d_69">
      <g>
       <use style="fill:#555555;stroke:#555555;stroke-width:0.6;" x="678" xlink:href="#m6c14af8be6" y="290.651"/>
      </g>
     </g>
    </g>
    <g id="ytick_26">
     <g id="line2d_70">
      <g>
       <use style="fill:#555555;stroke:#555555;stroke-width:0.6;" x="69.325" xlink:href="#m15aef149fd" y="287.677666"/>
      </g>
     </g>
     <g id="line2d_71">
      <g>
       <use style="fill:#555555;stroke:#555555;stroke-width:0.6;" x="678" xlink:href="#m6c14af8be6" y="287.677666"/>
      </g>
     </g>
    </g>
    <g id="ytick_27">
     <g id="line2d_72">
      <g>
       <use style="fill:#555555;stroke:#555555;stroke-width:0.6;" x="69.325" xlink:href="#m15aef149fd" y="285.163747"/>
      </g>
     </g>
     <g id="line2d_73">
      <g>
       <use style="fill:#555555;stroke:#555555;stroke-width:0.6;" x="678" xlink:href="#m6c14af8be6" y="285.163747"/>
      </g>
     </g>
    </g>
    <g id="ytick_28">
     <g id="line2d_74">
      <g>
       <use style="fill:#555555;stroke:#555555;stroke-width:0.6;" x="69.325" xlink:href="#m15aef149fd" y="282.986092"/>
      </g>
     </g>
     <g id="line2d_75">
      <g>
       <use style="fill:#555555;stroke:#555555;stroke-width:0.6;" x="678" xlink:href="#m6c14af8be6" y="282.986092"/>
      </g>
     </g>
    </g>
    <g id="ytick_29">
     <g id="line2d_76">
      <g>
       <use style="fill:#555555;stroke:#555555;stroke-width:0.6;" x="69.325" xlink:href="#m15aef149fd" y="281.065264"/>
      </g>
     </g>
     <g id="line2d_77">
      <g>
       <use style="fill:#555555;stroke:#555555;stroke-width:0.6;" x="678" xlink:href="#m6c14af8be6" y="281.065264"/>
      </g>
     </g>
    </g>
    <g id="ytick_30">
     <g id="line2d_78">
      <g>
       <use style="fill:#555555;stroke:#555555;stroke-width:0.6;" x="69.325" xlink:href="#m15aef149fd" y="268.04305"/>
      </g>
     </g>
     <g id="line2d_79">
      <g>
       <use style="fill:#555555;stroke:#555555;stroke-width:0.6;" x="678" xlink:href="#m6c14af8be6" y="268.04305"/>
      </g>
     </g>
    </g>
    <g id="ytick_31">
     <g id="line2d_80">
      <g>
       <use style="fill:#555555;stroke:#555555;stroke-width:0.6;" x="69.325" xlink:href="#m15aef149fd" y="261.430649"/>
      </g>
     </g>
     <g id="line2d_81">
      <g>
       <use style="fill:#555555;stroke:#555555;stroke-width:0.6;" x="678" xlink:href="#m6c14af8be6" y="261.430649"/>
      </g>
     </g>
    </g>
    <g id="ytick_32">
     <g id="line2d_82">
      <g>
       <use style="fill:#555555;stroke:#555555;stroke-width:0.6;" x="69.325" xlink:href="#m15aef149fd" y="256.739075"/>
      </g>
     </g>
     <g id="line2d_83">
      <g>
       <use style="fill:#555555;stroke:#555555;stroke-width:0.6;" x="678" xlink:href="#m6c14af8be6" y="256.739075"/>
      </g>
     </g>
    </g>
    <g id="ytick_33">
     <g id="line2d_84">
      <g>
       <use style="fill:#555555;stroke:#555555;stroke-width:0.6;" x="69.325" xlink:href="#m15aef149fd" y="253.100008"/>
      </g>
     </g>
     <g id="line2d_85">
      <g>
       <use style="fill:#555555;stroke:#555555;stroke-width:0.6;" x="678" xlink:href="#m6c14af8be6" y="253.100008"/>
      </g>
     </g>
    </g>
    <g id="ytick_34">
     <g id="line2d_86">
      <g>
       <use style="fill:#555555;stroke:#555555;stroke-width:0.6;" x="69.325" xlink:href="#m15aef149fd" y="250.126674"/>
      </g>
     </g>
     <g id="line2d_87">
      <g>
       <use style="fill:#555555;stroke:#555555;stroke-width:0.6;" x="678" xlink:href="#m6c14af8be6" y="250.126674"/>
      </g>
     </g>
    </g>
    <g id="ytick_35">
     <g id="line2d_88">
      <g>
       <use style="fill:#555555;stroke:#555555;stroke-width:0.6;" x="69.325" xlink:href="#m15aef149fd" y="247.612755"/>
      </g>
     </g>
     <g id="line2d_89">
      <g>
       <use style="fill:#555555;stroke:#555555;stroke-width:0.6;" x="678" xlink:href="#m6c14af8be6" y="247.612755"/>
      </g>
     </g>
    </g>
    <g id="ytick_36">
     <g id="line2d_90">
      <g>
       <use style="fill:#555555;stroke:#555555;stroke-width:0.6;" x="69.325" xlink:href="#m15aef149fd" y="245.4351"/>
      </g>
     </g>
     <g id="line2d_91">
      <g>
       <use style="fill:#555555;stroke:#555555;stroke-width:0.6;" x="678" xlink:href="#m6c14af8be6" y="245.4351"/>
      </g>
     </g>
    </g>
    <g id="ytick_37">
     <g id="line2d_92">
      <g>
       <use style="fill:#555555;stroke:#555555;stroke-width:0.6;" x="69.325" xlink:href="#m15aef149fd" y="243.514272"/>
      </g>
     </g>
     <g id="line2d_93">
      <g>
       <use style="fill:#555555;stroke:#555555;stroke-width:0.6;" x="678" xlink:href="#m6c14af8be6" y="243.514272"/>
      </g>
     </g>
    </g>
    <g id="ytick_38">
     <g id="line2d_94">
      <g>
       <use style="fill:#555555;stroke:#555555;stroke-width:0.6;" x="69.325" xlink:href="#m15aef149fd" y="230.492058"/>
      </g>
     </g>
     <g id="line2d_95">
      <g>
       <use style="fill:#555555;stroke:#555555;stroke-width:0.6;" x="678" xlink:href="#m6c14af8be6" y="230.492058"/>
      </g>
     </g>
    </g>
    <g id="ytick_39">
     <g id="line2d_96">
      <g>
       <use style="fill:#555555;stroke:#555555;stroke-width:0.6;" x="69.325" xlink:href="#m15aef149fd" y="223.879657"/>
      </g>
     </g>
     <g id="line2d_97">
      <g>
       <use style="fill:#555555;stroke:#555555;stroke-width:0.6;" x="678" xlink:href="#m6c14af8be6" y="223.879657"/>
      </g>
     </g>
    </g>
    <g id="text_19">
     <!-- daily new deaths -->
     <defs>
      <path d="M 7.90625 0 
L 7.90625 5.796875 
L 21.40625 5.796875 
L 21.40625 60.703125 
L 8.5 60.703125 
L 8.5 66.5 
L 28.703125 66.5 
L 28.703125 5.796875 
L 42.09375 5.796875 
L 42.09375 0 
z
" id="Inconsolata-Regular-108"/>
      <path d="M 10.796875 -0.09375 
L 1.59375 45.703125 
L 7.90625 45.703125 
L 15.296875 9 
L 23.09375 41.40625 
L 27.5 41.40625 
L 37.203125 9.09375 
Q 38.5 18 39.34375 23.703125 
Q 40.203125 29.40625 40.640625 33.046875 
Q 41.09375 36.703125 41.25 39.203125 
Q 41.40625 41.703125 41.40625 44.203125 
L 41.40625 45.703125 
L 48.09375 45.703125 
Q 45.09375 22.5 40.5 -0.09375 
L 33.703125 -0.09375 
L 25.296875 29.5 
L 17.296875 -0.09375 
z
" id="Inconsolata-Regular-119"/>
     </defs>
     <g style="fill:#555555;" transform="translate(23.5635 354.5)rotate(-90)scale(0.12 -0.12)">
      <use xlink:href="#Inconsolata-Regular-100"/>
      <use x="49.999985" xlink:href="#Inconsolata-Regular-97"/>
      <use x="99.999969" xlink:href="#Inconsolata-Regular-105"/>
      <use x="149.999954" xlink:href="#Inconsolata-Regular-108"/>
      <use x="199.999939" xlink:href="#Inconsolata-Regular-121"/>
      <use x="249.999924" xlink:href="#Inconsolata-Regular-32"/>
      <use x="299.999908" xlink:href="#Inconsolata-Regular-110"/>
      <use x="349.999893" xlink:href="#Inconsolata-Regular-101"/>
      <use x="399.999878" xlink:href="#Inconsolata-Regular-119"/>
      <use x="449.999863" xlink:href="#Inconsolata-Regular-32"/>
      <use x="499.999847" xlink:href="#Inconsolata-Regular-100"/>
      <use x="549.999832" xlink:href="#Inconsolata-Regular-101"/>
      <use x="599.999817" xlink:href="#Inconsolata-Regular-97"/>
      <use x="649.999802" xlink:href="#Inconsolata-Regular-116"/>
      <use x="699.999786" xlink:href="#Inconsolata-Regular-104"/>
      <use x="749.999771" xlink:href="#Inconsolata-Regular-115"/>
     </g>
     <!-- (rolling 7-day mean) -->
     <defs>
      <path d="M 39.5 -10.40625 
Q 31.203125 -6.5 25.046875 0.046875 
Q 18.90625 6.59375 15.546875 14.84375 
Q 12.203125 23.09375 12.203125 32 
Q 12.203125 40.90625 15.5 48.953125 
Q 18.796875 57 24.796875 63.34375 
Q 30.796875 69.703125 38.90625 73.5 
L 40.796875 67.296875 
Q 34.40625 63.796875 29.546875 58.296875 
Q 24.703125 52.796875 22 46 
Q 19.296875 39.203125 19.296875 31.703125 
Q 19.296875 24.203125 22 17.296875 
Q 24.703125 10.40625 29.703125 4.796875 
Q 34.703125 -0.796875 41.40625 -4.40625 
z
" id="Inconsolata-Regular-40"/>
      <path d="M 11.90625 45.703125 
L 19.40625 45.703125 
L 19.203125 37.296875 
Q 21.09375 41.90625 25.09375 44.34375 
Q 29.09375 46.796875 33.703125 46.796875 
Q 41 46.796875 45.796875 41.796875 
L 42.59375 36.203125 
L 42.203125 35.296875 
L 41.5 35.703125 
Q 41.296875 36.5 40.890625 37.203125 
Q 40.5 37.90625 39.203125 38.90625 
Q 37.59375 39.90625 36.25 40.25 
Q 34.90625 40.59375 33.203125 40.59375 
Q 29.90625 40.59375 26.65625 38.890625 
Q 23.40625 37.203125 21.296875 33.59375 
Q 19.203125 30 19.203125 24.203125 
L 19.203125 -0.09375 
L 11.90625 -0.09375 
z
" id="Inconsolata-Regular-114"/>
      <path d="M 25 -0.796875 
Q 18.796875 -0.796875 14.046875 2.25 
Q 9.296875 5.296875 6.59375 10.640625 
Q 3.90625 16 3.90625 22.90625 
Q 3.90625 29.90625 6.59375 35.25 
Q 9.296875 40.59375 14.046875 43.640625 
Q 18.796875 46.703125 25 46.703125 
Q 31.203125 46.703125 35.953125 43.640625 
Q 40.703125 40.59375 43.390625 35.25 
Q 46.09375 29.90625 46.09375 22.90625 
Q 46.09375 16 43.390625 10.640625 
Q 40.703125 5.296875 35.953125 2.25 
Q 31.203125 -0.796875 25 -0.796875 
z
M 25 5.203125 
Q 29 5.203125 32 7.5 
Q 35 9.796875 36.75 13.796875 
Q 38.5 17.796875 38.5 23 
Q 38.5 30.796875 34.703125 35.75 
Q 30.90625 40.703125 25 40.703125 
Q 19.09375 40.703125 15.296875 35.75 
Q 11.5 30.796875 11.5 23 
Q 11.5 17.796875 13.25 13.796875 
Q 15 9.796875 18.046875 7.5 
Q 21.09375 5.203125 25 5.203125 
z
" id="Inconsolata-Regular-111"/>
      <path d="M 22.59375 15.5 
Q 18.703125 15.5 15.5 16.90625 
Q 13.703125 14.703125 13.703125 12.703125 
Q 13.703125 10.296875 16.703125 9.25 
Q 19.703125 8.203125 27.703125 8.203125 
Q 34.703125 8.203125 38.296875 6.703125 
Q 41.90625 5.203125 43.203125 2.59375 
Q 44.5 0 44.5 -3.40625 
Q 44.5 -6.90625 42.59375 -10.09375 
Q 40.703125 -13.296875 36.34375 -15.25 
Q 32 -17.203125 24.703125 -17.203125 
Q 15.09375 -17.203125 9.4375 -14.25 
Q 3.796875 -11.296875 3.796875 -5.40625 
Q 3.796875 -1.703125 5.890625 0.9375 
Q 8 3.59375 10.90625 4.90625 
Q 7.59375 7.09375 7.59375 11 
Q 7.59375 13.203125 8.6875 15.296875 
Q 9.796875 17.40625 11.703125 19.40625 
Q 6.59375 23.90625 6.59375 31.5 
Q 6.59375 35.90625 8.546875 39.5 
Q 10.5 43.09375 14.09375 45.25 
Q 17.703125 47.40625 22.59375 47.40625 
Q 26.296875 47.40625 29.25 46.15625 
Q 32.203125 44.90625 34.296875 42.703125 
Q 36.90625 45.09375 39.796875 46.140625 
Q 42.703125 47.203125 46.59375 46.90625 
L 47.5 41 
Q 44.5 41.296875 41.84375 40.890625 
Q 39.203125 40.5 36.90625 39 
Q 38.59375 35.59375 38.59375 31.5 
Q 38.59375 27.09375 36.640625 23.4375 
Q 34.703125 19.796875 31.140625 17.640625 
Q 27.59375 15.5 22.59375 15.5 
z
M 22.59375 21.5 
Q 27 21.5 29.796875 24.453125 
Q 32.59375 27.40625 32.59375 31.5 
Q 32.59375 35.59375 29.796875 38.546875 
Q 27 41.5 22.59375 41.5 
Q 18.296875 41.5 15.4375 38.546875 
Q 12.59375 35.59375 12.59375 31.5 
Q 12.59375 27.40625 15.4375 24.453125 
Q 18.296875 21.5 22.59375 21.5 
z
M 10.40625 -4.59375 
Q 10.40625 -8 14.25 -9.890625 
Q 18.09375 -11.796875 24.796875 -11.796875 
Q 31.59375 -11.796875 34.75 -9.75 
Q 37.90625 -7.703125 37.90625 -4.5 
Q 37.90625 -2.296875 37.09375 -0.890625 
Q 36.296875 0.5 33.796875 1.203125 
Q 31.296875 1.90625 26.203125 1.90625 
Q 22.703125 1.90625 19.84375 2.203125 
Q 17 2.5 14.703125 3.203125 
Q 12.40625 1.59375 11.40625 -0.046875 
Q 10.40625 -1.703125 10.40625 -4.59375 
z
" id="Inconsolata-Regular-103"/>
      <path d="M 15.5 0 
Q 19.90625 14.296875 24.59375 28.09375 
Q 29.296875 41.90625 34.5 55.703125 
L 7.90625 55.703125 
L 7.90625 62.296875 
L 43.203125 62.296875 
L 43.203125 58.40625 
Q 37.5 44 32.5 29.5 
Q 27.5 15 23.40625 0 
z
" id="Inconsolata-Regular-55"/>
      <path d="M 11.09375 28.09375 
L 11.09375 34.796875 
L 39.09375 34.796875 
L 39.09375 28.09375 
z
" id="Inconsolata-Regular-45"/>
      <path d="M 3.796875 0 
L 3.796875 45.703125 
L 10.40625 45.703125 
L 10.40625 41.203125 
Q 12 43.703125 14.5 45.25 
Q 17 46.796875 19.703125 46.796875 
Q 22.703125 46.796875 24.953125 44.890625 
Q 27.203125 43 27.796875 40.09375 
Q 29.09375 43.09375 31.890625 44.9375 
Q 34.703125 46.796875 38.09375 46.796875 
Q 42.796875 46.796875 44.9375 43.4375 
Q 47.09375 40.09375 46.90625 35.09375 
L 46.90625 0 
L 40.296875 0 
L 40.296875 32.40625 
Q 40.296875 36.59375 39.75 38.5 
Q 39.203125 40.40625 38.203125 40.953125 
Q 37.203125 41.5 36 41.5 
Q 34.09375 41.5 32.4375 39.75 
Q 30.796875 38 29.75 35.390625 
Q 28.703125 32.796875 28.703125 30.203125 
L 28.703125 0 
L 22 0 
L 22 31.796875 
Q 22 37.5 20.953125 39.390625 
Q 19.90625 41.296875 17 41.296875 
Q 14.796875 41.296875 12.59375 38.4375 
Q 10.40625 35.59375 10.40625 30.5 
L 10.40625 0 
z
" id="Inconsolata-Regular-109"/>
      <path d="M 13.25 -10.40625 
Q 21.546875 -6.5 27.6875 0.046875 
Q 33.84375 6.59375 37.1875 14.84375 
Q 40.546875 23.09375 40.546875 32 
Q 40.546875 40.90625 37.25 48.953125 
Q 33.953125 57 27.953125 63.34375 
Q 21.953125 69.703125 13.84375 73.5 
L 11.953125 67.296875 
Q 18.34375 63.796875 23.1875 58.296875 
Q 28.046875 52.796875 30.75 46 
Q 33.453125 39.203125 33.453125 31.703125 
Q 33.453125 24.203125 30.75 17.296875 
Q 28.046875 10.40625 23.046875 4.796875 
Q 18.046875 -0.796875 11.34375 -4.40625 
z
" id="Inconsolata-Regular-41"/>
     </defs>
     <g style="fill:#555555;" transform="translate(36.23625 366.5)rotate(-90)scale(0.12 -0.12)">
      <use xlink:href="#Inconsolata-Regular-40"/>
      <use x="49.999985" xlink:href="#Inconsolata-Regular-114"/>
      <use x="99.999969" xlink:href="#Inconsolata-Regular-111"/>
      <use x="149.999954" xlink:href="#Inconsolata-Regular-108"/>
      <use x="199.999939" xlink:href="#Inconsolata-Regular-108"/>
      <use x="249.999924" xlink:href="#Inconsolata-Regular-105"/>
      <use x="299.999908" xlink:href="#Inconsolata-Regular-110"/>
      <use x="349.999893" xlink:href="#Inconsolata-Regular-103"/>
      <use x="399.999878" xlink:href="#Inconsolata-Regular-32"/>
      <use x="449.999863" xlink:href="#Inconsolata-Regular-55"/>
      <use x="499.999847" xlink:href="#Inconsolata-Regular-45"/>
      <use x="549.999832" xlink:href="#Inconsolata-Regular-100"/>
      <use x="599.999817" xlink:href="#Inconsolata-Regular-97"/>
      <use x="649.999802" xlink:href="#Inconsolata-Regular-121"/>
      <use x="699.999786" xlink:href="#Inconsolata-Regular-32"/>
      <use x="749.999771" xlink:href="#Inconsolata-Regular-109"/>
      <use x="799.999756" xlink:href="#Inconsolata-Regular-101"/>
      <use x="849.999741" xlink:href="#Inconsolata-Regular-97"/>
      <use x="899.999725" xlink:href="#Inconsolata-Regular-110"/>
      <use x="949.99971" xlink:href="#Inconsolata-Regular-41"/>
     </g>
    </g>
   </g>
   <g id="line2d_98">
    <path clip-path="url(#p0d74fc9d0c)" d="M 13.943199 433 
L 13.948958 386.183278 
L 18.563628 374.879303 
L 23.178298 374.879303 
L 27.792968 356.962927 
L 32.407638 352.271353 
L 37.022309 348.632286 
L 41.636979 345.658952 
L 46.251649 345.658952 
L 50.866319 347.07795 
L 55.480989 343.145033 
L 60.09566 347.07795 
L 64.71033 337.328311 
L 69.325 339.04655 
L 73.93967 335.049047 
L 78.55434 335.773975 
L 83.169011 331.268783 
L 87.783681 331.841059 
L 92.398351 329.161573 
L 97.013021 333.689244 
L 101.627691 333.049625 
L 106.242362 333.689244 
L 110.857032 330.181167 
L 115.471702 334.354977 
L 120.086372 331.841059 
L 124.701042 333.689244 
L 129.315713 335.773975 
L 133.930383 332.434149 
L 138.545053 334.354977 
L 143.159723 333.689244 
L 147.774393 331.841059 
L 152.389064 330.71591 
L 157.003734 327.742576 
L 161.618404 327.742576 
L 170.847745 325.228657 
L 175.462415 326.024336 
L 180.077085 324.103508 
L 184.691755 325.228657 
L 189.306425 325.621645 
L 193.921096 323.394345 
L 198.535766 325.228657 
L 203.150436 326.437224 
L 207.765106 326.860837 
L 212.379776 328.201992 
L 221.609117 330.181167 
L 226.223787 331.841059 
L 230.838457 330.71591 
L 235.453127 328.201992 
L 240.067798 328.201992 
L 244.682468 328.674726 
L 249.297138 328.674726 
L 253.911808 330.181167 
L 258.526478 330.181167 
L 263.141149 330.71591 
L 267.755819 333.689244 
L 272.370489 333.689244 
L 276.985159 335.773975 
L 286.2145 337.328311 
L 290.82917 338.164812 
L 295.44384 342.019885 
L 300.05851 344.3536 
L 304.67318 347.07795 
L 309.287851 348.632286 
L 313.902521 348.632286 
L 318.517191 350.350525 
L 323.131861 352.271353 
L 327.746531 350.350525 
L 332.361202 350.350525 
L 336.975872 352.271353 
L 341.590542 348.632286 
L 346.205212 352.271353 
L 350.819882 350.350525 
L 355.434553 348.632286 
L 360.049223 350.350525 
L 364.663893 350.350525 
L 369.278563 352.271353 
L 373.893234 356.962927 
L 378.507904 356.962927 
L 383.122574 363.575328 
L 401.581255 363.575328 
L 406.195925 356.962927 
L 410.810595 356.962927 
L 415.425265 354.449008 
L 420.039936 359.936261 
L 424.654606 363.575328 
L 447.727957 363.575328 
L 452.342627 356.962927 
L 456.957297 356.962927 
L 461.571967 359.936261 
L 466.186638 359.936261 
L 470.801308 368.266902 
L 475.415978 363.575328 
L 480.030648 363.575328 
L 484.645318 368.266902 
L 489.259989 363.575328 
L 503.103999 363.575328 
L 507.718669 368.266902 
L 512.33334 374.879303 
L 516.94801 374.879303 
L 521.56268 368.266902 
L 526.17735 368.266902 
L 530.79202 363.575328 
L 549.250701 363.575328 
L 553.865371 368.266902 
L 558.480042 363.575328 
L 563.094712 368.266902 
L 581.553393 368.266902 
L 586.168063 374.879303 
L 609.241414 374.879303 
L 613.856084 386.183278 
L 632.314765 386.183278 
L 632.314765 386.183278 
" style="fill:none;stroke:#e24a33;stroke-linecap:square;stroke-width:4;"/>
   </g>
   <g id="line2d_99">
    <defs>
     <path d="M 0 3 
C 0.795609 3 1.55874 2.683901 2.12132 2.12132 
C 2.683901 1.55874 3 0.795609 3 0 
C 3 -0.795609 2.683901 -1.55874 2.12132 -2.12132 
C 1.55874 -2.683901 0.795609 -3 0 -3 
C -0.795609 -3 -1.55874 -2.683901 -2.12132 -2.12132 
C -2.683901 -1.55874 -3 -0.795609 -3 0 
C -3 0.795609 -2.683901 1.55874 -2.12132 2.12132 
C -1.55874 2.683901 -0.795609 3 0 3 
z
" id="m9453175d72" style="stroke:#e24a33;"/>
    </defs>
    <g clip-path="url(#p0d74fc9d0c)">
     <use style="fill:#e24a33;stroke:#e24a33;" x="632.314765" xlink:href="#m9453175d72" y="386.183278"/>
    </g>
   </g>
   <g id="line2d_100">
    <path clip-path="url(#p0d74fc9d0c)" d="M 37.015162 433 
L 37.022309 374.879303 
L 41.636979 374.879303 
L 46.251649 368.266902 
L 50.866319 368.266902 
L 55.480989 354.449008 
L 60.09566 350.350525 
L 64.71033 347.07795 
L 69.325 342.019885 
L 73.93967 335.773975 
L 78.55434 333.689244 
L 83.169011 325.621645 
L 87.783681 319.411935 
L 92.398351 315.772868 
L 97.013021 314.119992 
L 101.627691 310.131034 
L 106.242362 306.430542 
L 110.857032 301.677775 
L 115.471702 298.002101 
L 120.086372 294.583916 
L 129.315713 286.956115 
L 138.545053 281.378893 
L 143.159723 279.02408 
L 147.774393 276.373691 
L 152.389064 274.661277 
L 157.003734 273.351892 
L 161.618404 272.719099 
L 166.233074 271.039698 
L 170.847745 270.009079 
L 175.462415 267.708689 
L 180.077085 266.917901 
L 184.691755 267.005111 
L 189.306425 269.352285 
L 193.921096 267.6063 
L 198.535766 268.230503 
L 203.150436 269.529964 
L 207.765106 267.414636 
L 212.379776 267.527107 
L 216.994447 266.019005 
L 221.609117 264.657556 
L 226.223787 266.23652 
L 230.838457 265.186621 
L 235.453127 264.506815 
L 240.067798 267.191995 
L 244.682468 266.66974 
L 249.297138 267.950126 
L 253.911808 267.83471 
L 258.526478 268.159955 
L 263.141149 269.709599 
L 267.755819 269.491726 
L 272.370489 270.720871 
L 276.985159 272.765716 
L 281.599829 273.926473 
L 290.82917 275.430758 
L 295.44384 275.857747 
L 300.05851 279.843759 
L 304.67318 277.007098 
L 309.287851 277.813882 
L 313.902521 277.70819 
L 327.746531 280.11012 
L 332.361202 278.330961 
L 336.975872 282.245977 
L 341.590542 285.097319 
L 346.205212 289.012165 
L 355.434553 288.761265 
L 360.049223 291.028085 
L 364.663893 290.980469 
L 369.278563 294.116266 
L 373.893234 292.163455 
L 378.507904 291.561238 
L 383.122574 291.960235 
L 387.737244 292.061528 
L 396.966585 293.661653 
L 401.581255 294.058741 
L 406.195925 295.065374 
L 410.810595 294.524721 
L 415.425265 294.94367 
L 424.654606 296.401293 
L 429.269276 300.528213 
L 433.883946 302.048432 
L 438.498616 302.914557 
L 447.727957 305.248272 
L 452.342627 305.021766 
L 456.957297 305.594042 
L 461.571967 302.142427 
L 466.186638 304.468893 
L 475.415978 307.442227 
L 480.030648 308.10796 
L 489.259989 309.233109 
L 493.874659 313.924682 
L 498.489329 311.245197 
L 503.103999 310.599244 
L 507.718669 310.441676 
L 512.33334 310.758349 
L 516.94801 312.09037 
L 521.56268 312.441097 
L 526.17735 312.09037 
L 530.79202 315.34368 
L 535.406691 318.106583 
L 540.021361 315.133249 
L 544.636031 316.213657 
L 549.250701 316.213657 
L 553.865371 315.34368 
L 558.480042 315.556862 
L 572.324052 315.556862 
L 572.324052 315.556862 
" style="fill:none;stroke:#348abd;stroke-linecap:square;stroke-opacity:0.4;stroke-width:2;"/>
   </g>
   <g id="line2d_101">
    <defs>
     <path d="M 0 3 
C 0.795609 3 1.55874 2.683901 2.12132 2.12132 
C 2.683901 1.55874 3 0.795609 3 0 
C 3 -0.795609 2.683901 -1.55874 2.12132 -2.12132 
C 1.55874 -2.683901 0.795609 -3 0 -3 
C -0.795609 -3 -1.55874 -2.683901 -2.12132 -2.12132 
C -2.683901 -1.55874 -3 -0.795609 -3 0 
C -3 0.795609 -2.683901 1.55874 -2.12132 2.12132 
C -1.55874 2.683901 -0.795609 3 0 3 
z
" id="m9f960b070e" style="stroke:#348abd;stroke-opacity:0.4;"/>
    </defs>
    <g clip-path="url(#p0d74fc9d0c)">
     <use style="fill:#348abd;fill-opacity:0.4;stroke:#348abd;stroke-opacity:0.4;" x="572.324052" xlink:href="#m9f960b070e" y="315.556862"/>
    </g>
   </g>
   <g id="line2d_102">
    <path clip-path="url(#p0d74fc9d0c)" d="M -1 363.575328 
L 9.334287 363.575328 
L 13.948958 368.266902 
L 18.563628 374.879303 
L 23.178298 354.449008 
L 27.792968 356.962927 
L 32.407638 354.449008 
L 37.022309 350.350525 
L 41.636979 348.632286 
L 46.251649 348.632286 
L 50.866319 345.658952 
L 55.480989 347.07795 
L 60.09566 342.019885 
L 64.71033 340.967378 
L 69.325 338.164812 
L 73.93967 335.049047 
L 78.55434 332.434149 
L 83.169011 330.71591 
L 87.783681 332.434149 
L 92.398351 333.049625 
L 97.013021 332.434149 
L 101.627691 333.689244 
L 106.242362 336.532632 
L 110.857032 339.978701 
L 115.471702 344.3536 
L 120.086372 345.658952 
L 124.701042 345.658952 
L 129.315713 348.632286 
L 133.930383 354.449008 
L 138.545053 356.962927 
L 143.159723 359.936261 
L 147.774393 363.575328 
L 152.389064 345.658952 
L 157.003734 344.3536 
L 161.618404 344.3536 
L 166.233074 340.967378 
L 170.847745 340.967378 
L 175.462415 335.773975 
L 180.077085 334.354977 
L 184.691755 339.04655 
L 189.306425 343.145033 
L 193.921096 343.145033 
L 198.535766 345.658952 
L 203.150436 344.3536 
L 207.765106 352.271353 
L 212.379776 356.962927 
L 216.994447 363.575328 
L 221.609117 363.575328 
L 226.223787 368.266902 
L 230.838457 374.879303 
L 235.453127 386.183278 
L 258.526478 386.183278 
L 263.141149 374.879303 
L 276.985159 374.879303 
L 281.599829 368.266902 
L 286.2145 368.266902 
L 290.82917 363.575328 
L 295.44384 368.266902 
L 309.287851 368.266902 
L 313.902521 374.879303 
L 318.517191 374.879303 
L 323.131861 386.183278 
L 327.746531 386.183278 
L 327.75229 433 
M 433.878188 433 
L 433.883946 386.183278 
L 438.498616 374.879303 
L 461.571967 374.879303 
L 466.186638 386.183278 
L 480.030648 386.183278 
L 480.030648 386.183278 
" style="fill:none;stroke:#988ed5;stroke-linecap:square;stroke-opacity:0.4;stroke-width:2;"/>
   </g>
   <g id="line2d_103">
    <defs>
     <path d="M 0 3 
C 0.795609 3 1.55874 2.683901 2.12132 2.12132 
C 2.683901 1.55874 3 0.795609 3 0 
C 3 -0.795609 2.683901 -1.55874 2.12132 -2.12132 
C 1.55874 -2.683901 0.795609 -3 0 -3 
C -0.795609 -3 -1.55874 -2.683901 -2.12132 -2.12132 
C -2.683901 -1.55874 -3 -0.795609 -3 0 
C -3 0.795609 -2.683901 1.55874 -2.12132 2.12132 
C -1.55874 2.683901 -0.795609 3 0 3 
z
" id="mcace5c02b8" style="stroke:#988ed5;stroke-opacity:0.4;"/>
    </defs>
    <g clip-path="url(#p0d74fc9d0c)">
     <use style="fill:#988ed5;fill-opacity:0.4;stroke:#988ed5;stroke-opacity:0.4;" x="480.030648" xlink:href="#mcace5c02b8" y="386.183278"/>
    </g>
   </g>
   <g id="line2d_104">
    <path clip-path="url(#p0d74fc9d0c)" d="M -1 369.85019 
L 0.104947 368.266902 
L 4.719617 368.266902 
L 9.334287 363.575328 
L 13.948958 359.936261 
L 18.563628 359.936261 
L 23.178298 363.575328 
L 27.792968 368.266902 
L 32.407638 374.879303 
L 37.022309 363.575328 
L 41.636979 363.575328 
L 46.251649 359.936261 
L 50.866319 350.350525 
L 55.480989 347.07795 
L 60.09566 347.07795 
L 64.71033 344.3536 
L 69.325 342.019885 
L 73.93967 335.049047 
L 78.55434 335.049047 
L 83.169011 331.268783 
L 87.783681 325.621645 
L 92.398351 320.830933 
L 97.013021 319.142372 
L 101.627691 316.438601 
L 106.242362 315.556862 
L 110.857032 311.747027 
L 115.471702 308.660833 
L 120.086372 308.520848 
L 124.701042 309.526958 
L 129.315713 306.928541 
L 133.930383 305.828696 
L 138.545053 305.828696 
L 143.159723 306.308383 
L 147.774393 307.183362 
L 152.389064 305.594042 
L 157.003734 304.360533 
L 166.233074 307.055454 
L 170.847745 306.187132 
L 175.462415 305.828696 
L 180.077085 305.594042 
L 184.691755 305.594042 
L 189.306425 303.213798 
L 193.921096 301.769652 
L 198.535766 301.954975 
L 203.150436 301.315356 
L 207.765106 300.190207 
L 212.379776 299.941222 
L 216.994447 300.61382 
L 221.609117 303.725068 
L 226.223787 305.594042 
L 230.838457 305.248272 
L 235.453127 306.066776 
L 240.067798 308.10796 
L 244.682468 309.675892 
L 249.297138 309.379372 
L 253.911808 307.442227 
L 258.526478 307.972622 
L 263.141149 307.838397 
L 267.755819 309.088146 
L 272.370489 307.705268 
L 276.985159 307.055454 
L 281.599829 307.055454 
L 286.2145 306.677641 
L 290.82917 306.802609 
L 295.44384 307.442227 
L 300.05851 307.442227 
L 304.67318 309.675892 
L 309.287851 310.919023 
L 313.902521 312.98175 
L 318.517191 315.772868 
L 323.131861 315.133249 
L 327.746531 316.666691 
L 332.361202 316.666691 
L 336.975872 315.556862 
L 341.590542 317.857599 
L 346.205212 317.857599 
L 350.819882 317.132671 
L 355.434553 317.370751 
L 360.049223 317.370751 
L 364.663893 317.612358 
L 369.278563 317.370751 
L 373.893234 313.352406 
L 378.507904 314.925499 
L 383.122574 313.540943 
L 387.737244 312.441097 
L 392.351914 312.264791 
L 401.581255 312.619331 
L 406.195925 312.619331 
L 410.810595 311.410764 
L 415.425265 313.731684 
L 420.039936 313.924682 
L 424.654606 312.799534 
L 429.269276 312.799534 
L 433.883946 312.98175 
L 438.498616 314.720362 
L 443.113287 310.919023 
L 447.727957 309.233109 
L 452.342627 309.675892 
L 456.957297 309.675892 
L 461.571967 310.599244 
L 466.186638 310.599244 
L 470.801308 309.526958 
L 475.415978 311.747027 
L 480.030648 311.917795 
L 484.645318 312.98175 
L 489.259989 314.31767 
L 498.489329 313.166025 
L 512.33334 313.166025 
L 512.33334 313.166025 
" style="fill:none;stroke:#777777;stroke-linecap:square;stroke-opacity:0.4;stroke-width:2;"/>
   </g>
   <g id="line2d_105">
    <defs>
     <path d="M 0 3 
C 0.795609 3 1.55874 2.683901 2.12132 2.12132 
C 2.683901 1.55874 3 0.795609 3 0 
C 3 -0.795609 2.683901 -1.55874 2.12132 -2.12132 
C 1.55874 -2.683901 0.795609 -3 0 -3 
C -0.795609 -3 -1.55874 -2.683901 -2.12132 -2.12132 
C -2.683901 -1.55874 -3 -0.795609 -3 0 
C -3 0.795609 -2.683901 1.55874 -2.12132 2.12132 
C -1.55874 2.683901 -0.795609 3 0 3 
z
" id="mce59c684de" style="stroke:#777777;stroke-opacity:0.4;"/>
    </defs>
    <g clip-path="url(#p0d74fc9d0c)">
     <use style="fill:#777777;fill-opacity:0.4;stroke:#777777;stroke-opacity:0.4;" x="512.33334" xlink:href="#mce59c684de" y="313.166025"/>
    </g>
   </g>
   <g id="line2d_106">
    <path clip-path="url(#p0d74fc9d0c)" d="M 4.713859 433 
L 4.719617 386.183278 
L 13.948958 363.575328 
L 18.563628 363.575328 
L 23.178298 359.936261 
L 27.792968 352.271353 
L 32.407638 344.3536 
L 41.636979 347.07795 
L 46.251649 345.658952 
L 50.866319 342.019885 
L 55.480989 339.04655 
L 60.09566 339.04655 
L 64.71033 340.967378 
L 69.325 337.328311 
L 73.93967 335.049047 
L 78.55434 334.354977 
L 92.398351 336.532632 
L 97.013021 335.773975 
L 106.242362 335.773975 
L 110.857032 337.328311 
L 120.086372 335.773975 
L 124.701042 333.689244 
L 129.315713 334.354977 
L 133.930383 334.354977 
L 138.545053 333.049625 
L 143.159723 331.268783 
L 147.774393 330.71591 
L 152.389064 330.71591 
L 157.003734 332.434149 
L 161.618404 331.841059 
L 170.847745 331.841059 
L 175.462415 332.434149 
L 184.691755 331.268783 
L 189.306425 329.663403 
L 193.921096 329.663403 
L 198.535766 328.201992 
L 203.150436 328.674726 
L 207.765106 328.201992 
L 212.379776 328.201992 
L 216.994447 328.674726 
L 221.609117 328.674726 
L 226.223787 327.742576 
L 230.838457 329.161573 
L 235.453127 329.161573 
L 240.067798 328.674726 
L 253.911808 328.674726 
L 258.526478 329.161573 
L 263.141149 329.161573 
L 267.755819 328.201992 
L 272.370489 328.674726 
L 276.985159 328.674726 
L 286.2145 327.742576 
L 290.82917 327.742576 
L 300.05851 328.674726 
L 304.67318 328.674726 
L 309.287851 328.201992 
L 313.902521 328.674726 
L 318.517191 328.674726 
L 323.131861 327.742576 
L 327.746531 326.437224 
L 332.361202 326.024336 
L 336.975872 326.024336 
L 341.590542 326.437224 
L 346.205212 326.024336 
L 350.819882 326.437224 
L 355.434553 327.742576 
L 364.663893 327.742576 
L 369.278563 326.860837 
L 378.507904 326.024336 
L 383.122574 326.860837 
L 387.737244 326.437224 
L 392.351914 326.437224 
L 396.966585 326.860837 
L 401.581255 327.742576 
L 406.195925 327.742576 
L 410.810595 328.674726 
L 415.425265 327.295748 
L 424.654606 328.201992 
L 438.498616 328.201992 
L 438.498616 328.201992 
" style="fill:none;stroke:#fbc15e;stroke-linecap:square;stroke-opacity:0.4;stroke-width:2;"/>
   </g>
   <g id="line2d_107">
    <defs>
     <path d="M 0 3 
C 0.795609 3 1.55874 2.683901 2.12132 2.12132 
C 2.683901 1.55874 3 0.795609 3 0 
C 3 -0.795609 2.683901 -1.55874 2.12132 -2.12132 
C 1.55874 -2.683901 0.795609 -3 0 -3 
C -0.795609 -3 -1.55874 -2.683901 -2.12132 -2.12132 
C -2.683901 -1.55874 -3 -0.795609 -3 0 
C -3 0.795609 -2.683901 1.55874 -2.12132 2.12132 
C -1.55874 2.683901 -0.795609 3 0 3 
z
" id="m369f723bb3" style="stroke:#fbc15e;stroke-opacity:0.4;"/>
    </defs>
    <g clip-path="url(#p0d74fc9d0c)">
     <use style="fill:#fbc15e;fill-opacity:0.4;stroke:#fbc15e;stroke-opacity:0.4;" x="438.498616" xlink:href="#m369f723bb3" y="328.201992"/>
    </g>
   </g>
   <g id="line2d_108">
    <path clip-path="url(#p0d74fc9d0c)" d="M 18.55787 433 
L 18.563628 386.183278 
L 27.792968 386.183278 
L 32.407638 374.879303 
L 37.022309 374.879303 
L 41.636979 368.266902 
L 46.251649 363.575328 
L 50.866319 368.266902 
L 55.480989 348.632286 
L 60.09566 345.658952 
L 69.325 345.658952 
L 73.93967 334.354977 
L 78.55434 334.354977 
L 83.169011 327.295748 
L 87.783681 324.844917 
L 92.398351 318.877192 
L 97.013021 313.924682 
L 101.627691 310.131034 
L 106.242362 311.917795 
L 110.857032 307.442227 
L 115.471702 304.468893 
L 120.086372 301.769652 
L 129.315713 299.615048 
L 133.930383 296.872078 
L 138.545053 292.577653 
L 143.159723 291.365341 
L 147.774393 290.885654 
L 152.389064 290.191584 
L 157.003734 288.392007 
L 161.618404 287.872975 
L 166.233074 288.230538 
L 170.847745 288.970079 
L 175.462415 288.19042 
L 180.077085 287.991294 
L 184.691755 288.030925 
L 189.306425 289.744756 
L 193.921096 288.84447 
L 198.535766 289.613061 
L 203.150436 290.511811 
L 216.994447 291.859567 
L 221.609117 291.512043 
L 226.223787 293.887375 
L 230.838457 293.661653 
L 235.453127 292.948913 
L 240.067798 294.883157 
L 244.682468 295.004408 
L 249.297138 295.373666 
L 253.911808 297.427304 
L 258.526478 298.446898 
L 263.141149 297.078079 
L 272.370489 299.216295 
L 276.985159 300.786395 
L 281.599829 302.914557 
L 286.2145 303.113439 
L 290.82917 304.252887 
L 295.44384 308.244431 
L 300.05851 311.747027 
L 304.67318 312.98175 
L 309.287851 316.213657 
L 313.902521 317.132671 
L 318.517191 317.370751 
L 323.131861 316.666691 
L 327.746531 319.142372 
L 332.361202 316.438601 
L 336.975872 318.106583 
L 341.590542 318.877192 
L 350.819882 322.714739 
L 355.434553 323.051002 
L 360.049223 325.621645 
L 364.663893 334.354977 
L 369.278563 335.773975 
L 373.893234 333.049625 
L 378.507904 333.689244 
L 383.122574 333.049625 
L 387.737244 333.689244 
L 392.351914 332.434149 
L 396.966585 334.354977 
L 401.581255 333.689244 
L 406.195925 336.532632 
L 410.810595 340.967378 
L 415.425265 343.145033 
L 420.039936 343.145033 
L 424.654606 354.449008 
L 429.269276 359.936261 
L 433.883946 363.575328 
L 438.498616 374.879303 
L 447.727957 374.879303 
L 452.342627 386.183278 
L 456.957297 368.266902 
L 461.571967 343.145033 
L 470.801308 340.967378 
L 475.415978 339.978701 
L 484.645318 339.978701 
L 489.259989 340.967378 
L 493.874659 337.328311 
L 498.489329 337.328311 
L 507.718669 339.04655 
L 516.94801 339.04655 
L 521.56268 339.978701 
L 526.17735 374.879303 
L 535.406691 374.879303 
L 540.021361 356.962927 
L 553.865371 356.962927 
L 558.480042 354.449008 
L 572.324052 354.449008 
L 572.324052 354.449008 
" style="fill:none;stroke:#8eba42;stroke-linecap:square;stroke-opacity:0.4;stroke-width:2;"/>
   </g>
   <g id="line2d_109">
    <defs>
     <path d="M 0 3 
C 0.795609 3 1.55874 2.683901 2.12132 2.12132 
C 2.683901 1.55874 3 0.795609 3 0 
C 3 -0.795609 2.683901 -1.55874 2.12132 -2.12132 
C 1.55874 -2.683901 0.795609 -3 0 -3 
C -0.795609 -3 -1.55874 -2.683901 -2.12132 -2.12132 
C -2.683901 -1.55874 -3 -0.795609 -3 0 
C -3 0.795609 -2.683901 1.55874 -2.12132 2.12132 
C -1.55874 2.683901 -0.795609 3 0 3 
z
" id="m578d253b14" style="stroke:#8eba42;stroke-opacity:0.4;"/>
    </defs>
    <g clip-path="url(#p0d74fc9d0c)">
     <use style="fill:#8eba42;fill-opacity:0.4;stroke:#8eba42;stroke-opacity:0.4;" x="572.324052" xlink:href="#m578d253b14" y="354.449008"/>
    </g>
   </g>
   <g id="line2d_110">
    <path clip-path="url(#p0d74fc9d0c)" d="M 18.55787 433 
L 18.563628 386.183278 
L 23.178298 386.183278 
L 27.792968 356.962927 
L 32.407638 354.449008 
L 37.022309 347.07795 
L 41.636979 345.658952 
L 46.251649 343.145033 
L 50.866319 340.967378 
L 55.480989 337.328311 
L 60.09566 340.967378 
L 64.71033 336.532632 
L 69.325 336.532632 
L 73.93967 330.181167 
L 78.55434 326.860837 
L 83.169011 325.228657 
L 87.783681 322.062324 
L 92.398351 315.133249 
L 97.013021 310.131034 
L 101.627691 303.518633 
L 106.242362 297.784171 
L 110.857032 292.421093 
L 115.471702 288.596117 
L 120.086372 283.945674 
L 133.930383 271.422105 
L 138.545053 267.280687 
L 143.159723 262.909057 
L 147.774393 258.817189 
L 152.389064 255.910148 
L 157.003734 252.786202 
L 161.618404 248.824907 
L 166.233074 245.853963 
L 170.847745 242.723525 
L 175.462415 240.97375 
L 180.077085 239.636735 
L 189.306425 236.589081 
L 193.921096 234.842425 
L 198.535766 233.584175 
L 203.150436 232.916527 
L 212.379776 230.981589 
L 216.994447 230.591374 
L 226.223787 230.33094 
L 230.838457 229.835647 
L 235.453127 229.789836 
L 240.067798 229.220793 
L 244.682468 228.86587 
L 249.297138 229.465054 
L 258.526478 229.492421 
L 263.141149 229.690833 
L 267.755819 229.434457 
L 272.370489 230.347096 
L 281.599829 230.475758 
L 286.2145 230.98399 
L 290.82917 231.306503 
L 295.44384 230.961196 
L 300.05851 231.301605 
L 304.67318 231.088773 
L 309.287851 232.141843 
L 313.902521 231.917835 
L 318.517191 232.036496 
L 323.131861 232.010905 
L 327.746531 232.310264 
L 332.361202 232.0878 
L 336.975872 232.667051 
L 341.590542 232.400369 
L 346.205212 233.189109 
L 350.819882 233.306351 
L 355.434553 233.954443 
L 360.049223 234.911014 
L 364.663893 235.58776 
L 369.278563 235.391522 
L 373.893234 236.0414 
L 378.507904 235.919082 
L 383.122574 236.534996 
L 387.737244 236.742162 
L 392.351914 237.122525 
L 396.966585 238.080729 
L 401.581255 238.756823 
L 406.195925 238.97484 
L 410.810595 239.323437 
L 415.425265 239.910448 
L 420.039936 241.826348 
L 429.269276 241.990557 
L 433.883946 242.228048 
L 438.498616 242.637439 
L 443.113287 242.706271 
L 447.727957 242.056707 
L 452.342627 241.286863 
L 456.957297 242.510375 
L 461.571967 242.899563 
L 466.186638 243.421348 
L 470.801308 244.120791 
L 475.415978 244.53988 
L 480.030648 245.324811 
L 489.259989 245.755658 
L 498.489329 246.581064 
L 503.103999 246.296143 
L 507.718669 246.779084 
L 516.94801 247.450484 
L 530.79202 249.165428 
L 535.406691 249.803729 
L 540.021361 249.945191 
L 544.636031 249.838026 
L 553.865371 249.864751 
L 558.480042 244.369858 
L 576.938723 245.038092 
L 581.553393 243.812076 
L 595.397403 243.812076 
L 595.397403 243.812076 
" style="fill:none;stroke:#ffb5b8;stroke-linecap:square;stroke-opacity:0.4;stroke-width:2;"/>
   </g>
   <g id="line2d_111">
    <defs>
     <path d="M 0 3 
C 0.795609 3 1.55874 2.683901 2.12132 2.12132 
C 2.683901 1.55874 3 0.795609 3 0 
C 3 -0.795609 2.683901 -1.55874 2.12132 -2.12132 
C 1.55874 -2.683901 0.795609 -3 0 -3 
C -0.795609 -3 -1.55874 -2.683901 -2.12132 -2.12132 
C -2.683901 -1.55874 -3 -0.795609 -3 0 
C -3 0.795609 -2.683901 1.55874 -2.12132 2.12132 
C -1.55874 2.683901 -0.795609 3 0 3 
z
" id="m10e0e319c4" style="stroke:#ffb5b8;stroke-opacity:0.4;"/>
    </defs>
    <g clip-path="url(#p0d74fc9d0c)">
     <use style="fill:#ffb5b8;fill-opacity:0.4;stroke:#ffb5b8;stroke-opacity:0.4;" x="595.397403" xlink:href="#m10e0e319c4" y="243.812076"/>
    </g>
   </g>
   <g id="patch_3">
    <path d="M 69.325 392 
L 69.325 221 
" style="fill:none;stroke:#ffffff;stroke-linecap:square;stroke-linejoin:miter;"/>
   </g>
   <g id="patch_4">
    <path d="M 678 392 
L 678 221 
" style="fill:none;stroke:#ffffff;stroke-linecap:square;stroke-linejoin:miter;"/>
   </g>
   <g id="patch_5">
    <path d="M 69.325 392 
L 678 392 
" style="fill:none;stroke:#ffffff;stroke-linecap:square;stroke-linejoin:miter;"/>
   </g>
   <g id="patch_6">
    <path d="M 69.325 221 
L 678 221 
" style="fill:none;stroke:#ffffff;stroke-linecap:square;stroke-linejoin:miter;"/>
   </g>
   <g id="text_20">
    <!-- Korea, South -->
    <defs>
     <path d="M 16.59375 31.203125 
L 11.703125 25.796875 
L 11.703125 0 
L 4.203125 0 
L 4.203125 62.296875 
L 12.59375 62.296875 
L 12.59375 61.59375 
Q 12 61 11.84375 60.296875 
Q 11.703125 59.59375 11.703125 57.90625 
L 11.703125 33.59375 
L 37.703125 62.796875 
Q 38.796875 62.59375 40.09375 62.4375 
Q 41.40625 62.296875 42.90625 62.296875 
L 45.5 62.296875 
L 21.90625 35.40625 
L 47.09375 0 
L 38.09375 -0.40625 
z
" id="Inconsolata-Regular-75"/>
     <path d="M 19.90625 -16.796875 
L 16.5 -13.796875 
Q 19.296875 -11.203125 21.140625 -8.203125 
Q 23 -5.203125 23 -3.296875 
Q 23 -1.90625 21.75 -0.84375 
Q 20.5 0.203125 19.203125 1.390625 
Q 17.90625 2.59375 17.90625 4.40625 
Q 17.90625 6.90625 19.546875 8.59375 
Q 21.203125 10.296875 23.796875 10.296875 
Q 26.40625 10.296875 28.5 8 
Q 30.59375 5.703125 30.59375 2 
Q 30.59375 -5.796875 19.90625 -16.796875 
z
" id="Inconsolata-Regular-44"/>
     <path d="M 24.703125 -1 
Q 12.59375 -1 5.203125 6.90625 
L 8.796875 13.203125 
L 9.203125 14.09375 
L 9.90625 13.703125 
Q 10.09375 13 10.390625 12.140625 
Q 10.703125 11.296875 11.796875 10.09375 
Q 14.40625 7.90625 17.84375 6.59375 
Q 21.296875 5.296875 25.703125 5.296875 
Q 31.296875 5.296875 34.9375 8.4375 
Q 38.59375 11.59375 38.59375 16 
Q 38.59375 18.90625 37.4375 20.90625 
Q 36.296875 22.90625 33.25 24.796875 
Q 30.203125 26.703125 24.296875 29.203125 
Q 14.59375 33 10.890625 37.703125 
Q 7.203125 42.40625 7.203125 47.703125 
Q 7.203125 54.59375 12.296875 58.84375 
Q 17.40625 63.09375 26.203125 63.09375 
Q 31.296875 63.09375 35.796875 61.046875 
Q 40.296875 59 43.5 55.296875 
L 39 49.296875 
L 38.40625 49.703125 
Q 38.296875 50.5 38 51.296875 
Q 37.703125 52.09375 36.59375 53.296875 
Q 34.203125 55.59375 31.5 56.4375 
Q 28.796875 57.296875 25.09375 57.296875 
Q 20.203125 57.296875 17.296875 54.59375 
Q 14.40625 51.90625 14.40625 48.203125 
Q 14.40625 45.40625 15.65625 43.25 
Q 16.90625 41.09375 20.203125 39 
Q 23.5 36.90625 29.796875 34.40625 
Q 35.90625 31.90625 39.296875 29.34375 
Q 42.703125 26.796875 44.09375 23.84375 
Q 45.5 20.90625 45.5 17 
Q 45.5 12.703125 43.34375 8.546875 
Q 41.203125 4.40625 36.59375 1.703125 
Q 32 -1 24.703125 -1 
z
" id="Inconsolata-Regular-83"/>
     <path d="M 22.09375 -1.09375 
Q 15.296875 -1.09375 10.796875 4 
Q 6.296875 9.09375 6.40625 20.203125 
L 6.5 45.703125 
L 13.5 45.703125 
L 13.5 20.203125 
Q 13.5 11.5 16.546875 8.09375 
Q 19.59375 4.703125 23.90625 4.703125 
Q 27.09375 4.703125 29.890625 6.390625 
Q 32.703125 8.09375 34.453125 11.59375 
Q 36.203125 15.09375 36.203125 20.5 
L 36.203125 45.703125 
L 43.203125 45.703125 
L 43.203125 7.09375 
Q 43.203125 5.296875 43.34375 3.546875 
Q 43.5 1.796875 44.203125 0 
L 37.296875 0 
Q 36.59375 1.703125 36.4375 3.5 
Q 36.296875 5.296875 36.296875 7 
Q 34.09375 3.203125 30.34375 1.046875 
Q 26.59375 -1.09375 22.09375 -1.09375 
z
" id="Inconsolata-Regular-117"/>
    </defs>
    <g transform="translate(641.544105 386.183278)scale(0.1 -0.1)">
     <use xlink:href="#Inconsolata-Regular-75"/>
     <use x="49.999985" xlink:href="#Inconsolata-Regular-111"/>
     <use x="99.999969" xlink:href="#Inconsolata-Regular-114"/>
     <use x="149.999954" xlink:href="#Inconsolata-Regular-101"/>
     <use x="199.999939" xlink:href="#Inconsolata-Regular-97"/>
     <use x="249.999924" xlink:href="#Inconsolata-Regular-44"/>
     <use x="299.999908" xlink:href="#Inconsolata-Regular-32"/>
     <use x="349.999893" xlink:href="#Inconsolata-Regular-83"/>
     <use x="399.999878" xlink:href="#Inconsolata-Regular-111"/>
     <use x="449.999863" xlink:href="#Inconsolata-Regular-117"/>
     <use x="499.999847" xlink:href="#Inconsolata-Regular-116"/>
     <use x="549.999832" xlink:href="#Inconsolata-Regular-104"/>
    </g>
   </g>
   <g id="text_21">
    <!-- Germany -->
    <defs>
     <path d="M 27.703125 -1 
Q 20.296875 -1 14.84375 2.890625 
Q 9.40625 6.796875 6.5 13.890625 
Q 3.59375 21 3.59375 30.40625 
Q 3.5 40.5 5.84375 46.890625 
Q 8.203125 53.296875 11.953125 56.796875 
Q 15.703125 60.296875 19.84375 61.640625 
Q 24 63 27.40625 63 
Q 33 62.90625 38.09375 60.046875 
Q 43.203125 57.203125 45.796875 52.5 
L 40.90625 48.59375 
L 40.09375 47.90625 
L 39.703125 48.5 
Q 39.796875 49.296875 39.4375 49.9375 
Q 39.09375 50.59375 38 51.90625 
Q 35.703125 54.5 33.25 55.640625 
Q 30.796875 56.796875 27.296875 56.796875 
Q 22.796875 56.796875 18.9375 54.546875 
Q 15.09375 52.296875 12.796875 46.890625 
Q 10.5 41.5 10.5 31.90625 
Q 10.5 18.90625 15.140625 12.046875 
Q 19.796875 5.203125 27.703125 5.203125 
Q 30.40625 5.203125 33.75 6.09375 
Q 37.09375 7 39.5 9 
L 39.5 23.796875 
L 28.203125 23.796875 
L 28.203125 29.90625 
L 46 29.90625 
L 46 5.5 
Q 37.09375 -1 27.703125 -1 
z
" id="Inconsolata-Regular-71"/>
    </defs>
    <g transform="translate(581.553393 315.556862)scale(0.1 -0.1)">
     <use xlink:href="#Inconsolata-Regular-71"/>
     <use x="49.999985" xlink:href="#Inconsolata-Regular-101"/>
     <use x="99.999969" xlink:href="#Inconsolata-Regular-114"/>
     <use x="149.999954" xlink:href="#Inconsolata-Regular-109"/>
     <use x="199.999939" xlink:href="#Inconsolata-Regular-97"/>
     <use x="249.999924" xlink:href="#Inconsolata-Regular-110"/>
     <use x="299.999908" xlink:href="#Inconsolata-Regular-121"/>
    </g>
   </g>
   <g id="text_22">
    <!-- Australia -->
    <defs>
     <path d="M 41.203125 0 
L 34.90625 18.203125 
L 14.796875 18.203125 
L 8.5 0 
L 1.59375 0 
L 24.59375 63.40625 
L 25.40625 63.40625 
L 48.40625 0 
z
M 24.90625 47.40625 
L 16.703125 23.59375 
L 33.09375 23.59375 
z
" id="Inconsolata-Regular-65"/>
    </defs>
    <g transform="translate(489.259989 386.183278)scale(0.1 -0.1)">
     <use xlink:href="#Inconsolata-Regular-65"/>
     <use x="49.999985" xlink:href="#Inconsolata-Regular-117"/>
     <use x="99.999969" xlink:href="#Inconsolata-Regular-115"/>
     <use x="149.999954" xlink:href="#Inconsolata-Regular-116"/>
     <use x="199.999939" xlink:href="#Inconsolata-Regular-114"/>
     <use x="249.999924" xlink:href="#Inconsolata-Regular-97"/>
     <use x="299.999908" xlink:href="#Inconsolata-Regular-108"/>
     <use x="349.999893" xlink:href="#Inconsolata-Regular-105"/>
     <use x="399.999878" xlink:href="#Inconsolata-Regular-97"/>
    </g>
   </g>
   <g id="text_23">
    <!-- Poland -->
    <defs>
     <path d="M 5.90625 0 
L 5.90625 62.296875 
L 25.90625 62.296875 
Q 32.90625 62.296875 37.203125 59.890625 
Q 41.5 57.5 43.546875 53.546875 
Q 45.59375 49.59375 45.59375 44.703125 
Q 45.59375 39.90625 43.59375 36 
Q 41.59375 32.09375 37.390625 29.796875 
Q 33.203125 27.5 26.40625 27.5 
L 13.09375 27.5 
L 13.09375 0 
z
M 13.09375 33.703125 
L 25.59375 33.703125 
Q 32.40625 33.703125 35.40625 36.640625 
Q 38.40625 39.59375 38.40625 44.5 
Q 38.40625 49.09375 35.40625 52.390625 
Q 32.40625 55.703125 25.703125 55.703125 
L 13.09375 55.703125 
z
" id="Inconsolata-Regular-80"/>
    </defs>
    <g transform="translate(521.56268 313.166025)scale(0.1 -0.1)">
     <use xlink:href="#Inconsolata-Regular-80"/>
     <use x="49.999985" xlink:href="#Inconsolata-Regular-111"/>
     <use x="99.999969" xlink:href="#Inconsolata-Regular-108"/>
     <use x="149.999954" xlink:href="#Inconsolata-Regular-97"/>
     <use x="199.999939" xlink:href="#Inconsolata-Regular-110"/>
     <use x="249.999924" xlink:href="#Inconsolata-Regular-100"/>
    </g>
   </g>
   <g id="text_24">
    <!-- Belarus -->
    <defs>
     <path d="M 4.796875 0 
L 4.796875 62.296875 
L 22.5 62.296875 
Q 33.296875 62.296875 38.25 58.09375 
Q 43.203125 53.90625 43.203125 47.203125 
Q 43.203125 42.796875 40.796875 38.890625 
Q 38.40625 35 34 33.40625 
Q 39.296875 31.59375 42.5 27.140625 
Q 45.703125 22.703125 45.703125 17.5 
Q 45.703125 9.59375 40.09375 4.796875 
Q 34.5 0 22.40625 0 
z
M 11.703125 36.5 
L 21.5 36.5 
Q 29.796875 36.5 33 39.296875 
Q 36.203125 42.09375 36.203125 46.40625 
Q 36.203125 50.5 33.09375 53.453125 
Q 30 56.40625 22.59375 56.40625 
L 11.703125 56.40625 
z
M 11.703125 6.09375 
L 23.59375 6.09375 
Q 30.09375 6.09375 34.1875 8.75 
Q 38.296875 11.40625 38.296875 17.90625 
Q 38.296875 23.5 34.640625 27.046875 
Q 31 30.59375 21.90625 30.59375 
L 11.703125 30.59375 
z
" id="Inconsolata-Regular-66"/>
    </defs>
    <g transform="translate(447.727957 328.201992)scale(0.1 -0.1)">
     <use xlink:href="#Inconsolata-Regular-66"/>
     <use x="49.999985" xlink:href="#Inconsolata-Regular-101"/>
     <use x="99.999969" xlink:href="#Inconsolata-Regular-108"/>
     <use x="149.999954" xlink:href="#Inconsolata-Regular-97"/>
     <use x="199.999939" xlink:href="#Inconsolata-Regular-114"/>
     <use x="249.999924" xlink:href="#Inconsolata-Regular-117"/>
     <use x="299.999908" xlink:href="#Inconsolata-Regular-115"/>
    </g>
   </g>
   <g id="text_25">
    <!-- Switzerland -->
    <defs>
     <path d="M 5 4.90625 
L 33.296875 39.40625 
L 7.09375 39.40625 
L 7.09375 45.703125 
L 42.59375 45.703125 
L 42.59375 40.796875 
L 14.796875 6.203125 
L 40.59375 6.203125 
Q 42.296875 6.203125 43 6.390625 
Q 43.703125 6.59375 44.296875 7.203125 
L 45 7.203125 
L 45 0 
L 5 0 
z
" id="Inconsolata-Regular-122"/>
    </defs>
    <g transform="translate(581.553393 354.449008)scale(0.1 -0.1)">
     <use xlink:href="#Inconsolata-Regular-83"/>
     <use x="49.999985" xlink:href="#Inconsolata-Regular-119"/>
     <use x="99.999969" xlink:href="#Inconsolata-Regular-105"/>
     <use x="149.999954" xlink:href="#Inconsolata-Regular-116"/>
     <use x="199.999939" xlink:href="#Inconsolata-Regular-122"/>
     <use x="249.999924" xlink:href="#Inconsolata-Regular-101"/>
     <use x="299.999908" xlink:href="#Inconsolata-Regular-114"/>
     <use x="349.999893" xlink:href="#Inconsolata-Regular-108"/>
     <use x="399.999878" xlink:href="#Inconsolata-Regular-97"/>
     <use x="449.999863" xlink:href="#Inconsolata-Regular-110"/>
     <use x="499.999847" xlink:href="#Inconsolata-Regular-100"/>
    </g>
   </g>
   <g id="text_26">
    <!-- US -->
    <defs>
     <path d="M 25.09375 -1.09375 
Q 15.09375 -1.09375 10.046875 4.84375 
Q 5 10.796875 5 21.5 
L 5 62.296875 
L 12.796875 62.296875 
L 12.796875 61.59375 
Q 12.203125 61 12.046875 60.296875 
Q 11.90625 59.59375 11.90625 57.90625 
L 11.90625 21.40625 
Q 11.90625 13.796875 14.84375 9.296875 
Q 17.796875 4.796875 25.203125 4.796875 
Q 32.703125 4.796875 35.703125 9.296875 
Q 38.703125 13.796875 38.703125 21.703125 
L 38.703125 62.296875 
L 45.40625 62.296875 
L 45.40625 21.796875 
Q 45.40625 10 39.84375 4.453125 
Q 34.296875 -1.09375 25.09375 -1.09375 
z
" id="Inconsolata-Regular-85"/>
    </defs>
    <g transform="translate(604.626744 243.812076)scale(0.1 -0.1)">
     <use xlink:href="#Inconsolata-Regular-85"/>
     <use x="49.999985" xlink:href="#Inconsolata-Regular-83"/>
    </g>
   </g>
  </g>
 </g>
 <defs>
  <clipPath id="p0d74fc9d0c">
   <rect height="171" width="608.675" x="69.325" y="221"/>
  </clipPath>
 </defs>
</svg>
