<?xml version="1.0" encoding="utf-8" standalone="no"?>
<!DOCTYPE svg PUBLIC "-//W3C//DTD SVG 1.1//EN"
  "http://www.w3.org/Graphics/SVG/1.1/DTD/svg11.dtd">
<!-- Created with matplotlib (https://matplotlib.org/) -->
<svg height="180pt" version="1.1" viewBox="0 0 720 180" width="720pt" xmlns="http://www.w3.org/2000/svg" xmlns:xlink="http://www.w3.org/1999/xlink">
 <defs>
  <style type="text/css">
*{stroke-linecap:butt;stroke-linejoin:round;}
  </style>
 </defs>
 <g id="figure_1">
  <g id="patch_1">
   <path d="M 0 180 
L 720 180 
L 720 0 
L 0 0 
z
" style="fill:#ffffff;"/>
  </g>
  <g id="axes_1">
   <g id="patch_2">
    <path d="M 90 157.5 
L 648 157.5 
L 648 21.6 
L 90 21.6 
z
" style="fill:#e5e5e5;"/>
   </g>
   <g id="matplotlib.axis_1">
    <g id="xtick_1">
     <g id="line2d_1">
      <path clip-path="url(#p900818927f)" d="M 146.871259 157.5 
L 146.871259 21.6 
" style="fill:none;stroke:#ffffff;stroke-linecap:square;stroke-width:0.8;"/>
     </g>
     <g id="line2d_2">
      <defs>
       <path d="M 0 0 
L 0 3.5 
" id="m58faaff7d6" style="stroke:#555555;stroke-width:0.8;"/>
      </defs>
      <g>
       <use style="fill:#555555;stroke:#555555;stroke-width:0.8;" x="146.871259" xlink:href="#m58faaff7d6" y="157.5"/>
      </g>
     </g>
     <g id="text_1">
      <!-- 2020-02 -->
      <defs>
       <path d="M 7.296875 5.59375 
Q 14 12.5 19.390625 17.84375 
Q 24.796875 23.203125 28.59375 27.640625 
Q 32.40625 32.09375 34.40625 36.296875 
Q 36.40625 40.5 36.40625 45.09375 
Q 36.40625 51.59375 33.296875 54.09375 
Q 30.203125 56.59375 25.796875 56.59375 
Q 22.203125 56.59375 19.046875 55.046875 
Q 15.90625 53.5 13.296875 50.296875 
Q 12.40625 48.90625 12.203125 48.15625 
Q 12 47.40625 12.09375 46.59375 
L 11.703125 46.09375 
L 10.90625 46.59375 
L 5.796875 50.59375 
Q 8.796875 56.40625 14.046875 59.546875 
Q 19.296875 62.703125 25.703125 62.703125 
Q 33.59375 62.703125 38.59375 57.953125 
Q 43.59375 53.203125 43.59375 44.90625 
Q 43.59375 39.703125 41.296875 35 
Q 39 30.296875 35.140625 25.6875 
Q 31.296875 21.09375 26.390625 16.296875 
Q 21.5 11.5 16.296875 6.09375 
L 39.5 6.09375 
Q 41.203125 6.09375 41.890625 6.296875 
Q 42.59375 6.5 43.203125 7.09375 
L 43.90625 7.09375 
L 43.90625 0 
L 7.296875 0 
z
" id="Inconsolata-Regular-50"/>
       <path d="M 25 -1.09375 
Q 15.703125 -1.09375 10.703125 7.203125 
Q 5.703125 15.5 5.703125 30.796875 
Q 5.703125 45.59375 10.703125 54.140625 
Q 15.703125 62.703125 25 62.703125 
Q 34.296875 62.703125 39.296875 54.140625 
Q 44.296875 45.59375 44.296875 30.796875 
Q 44.296875 15.5 39.296875 7.203125 
Q 34.296875 -1.09375 25 -1.09375 
z
M 12.90625 30.796875 
Q 12.90625 24.40625 13.796875 19.40625 
L 35 46.703125 
Q 33.5 51.40625 30.953125 54 
Q 28.40625 56.59375 25 56.59375 
Q 19.296875 56.59375 16.09375 49.59375 
Q 12.90625 42.59375 12.90625 30.796875 
z
M 25 5 
Q 30.703125 5 33.890625 11.703125 
Q 37.09375 18.40625 37.09375 30.796875 
Q 37.09375 36.296875 36.40625 40.796875 
L 15.203125 13.90625 
Q 18.296875 5 25 5 
z
" id="Inconsolata-Regular-48"/>
       <path d="M 11.09375 28.09375 
L 11.09375 34.796875 
L 39.09375 34.796875 
L 39.09375 28.09375 
z
" id="Inconsolata-Regular-45"/>
      </defs>
      <g style="fill:#555555;" transform="translate(129.371259 171.15)scale(0.1 -0.1)">
       <use xlink:href="#Inconsolata-Regular-50"/>
       <use x="49.999985" xlink:href="#Inconsolata-Regular-48"/>
       <use x="99.999969" xlink:href="#Inconsolata-Regular-50"/>
       <use x="149.999954" xlink:href="#Inconsolata-Regular-48"/>
       <use x="199.999939" xlink:href="#Inconsolata-Regular-45"/>
       <use x="249.999924" xlink:href="#Inconsolata-Regular-48"/>
       <use x="299.999908" xlink:href="#Inconsolata-Regular-50"/>
      </g>
     </g>
    </g>
    <g id="xtick_2">
     <g id="line2d_3">
      <path clip-path="url(#p900818927f)" d="M 238.243365 157.5 
L 238.243365 21.6 
" style="fill:none;stroke:#ffffff;stroke-linecap:square;stroke-width:0.8;"/>
     </g>
     <g id="line2d_4">
      <g>
       <use style="fill:#555555;stroke:#555555;stroke-width:0.8;" x="238.243365" xlink:href="#m58faaff7d6" y="157.5"/>
      </g>
     </g>
     <g id="text_2">
      <!-- 2020-03 -->
      <defs>
       <path d="M 24 -1.09375 
Q 19.09375 -1.09375 14.59375 0.703125 
Q 10.09375 2.5 6.90625 6 
L 11.5 11.5 
L 12.203125 12.296875 
L 12.703125 11.796875 
Q 12.796875 11 13.09375 10.25 
Q 13.40625 9.5 14.5 8.296875 
Q 16.203125 6.796875 18.390625 5.84375 
Q 20.59375 4.90625 23.703125 4.90625 
Q 29.703125 4.90625 32.59375 8.40625 
Q 35.5 11.90625 35.5 17.40625 
Q 35.5 24.5 30.75 27.453125 
Q 26 30.40625 18 29.59375 
L 18 35.203125 
Q 24.5 35.203125 27.796875 36.890625 
Q 31.09375 38.59375 32.25 41.4375 
Q 33.40625 44.296875 33.40625 47.5 
Q 33.40625 51.796875 30.953125 54.25 
Q 28.5 56.703125 24.5 56.703125 
Q 21.5 56.703125 18.640625 55.703125 
Q 15.796875 54.703125 13.09375 52.09375 
L 8.90625 56.296875 
Q 12.296875 59.796875 16.34375 61.25 
Q 20.40625 62.703125 24.40625 62.703125 
Q 32 62.703125 36.296875 58.390625 
Q 40.59375 54.09375 40.59375 47.203125 
Q 40.59375 42.296875 38.1875 38.4375 
Q 35.796875 34.59375 30.796875 33 
Q 36.09375 31.296875 39.390625 27.390625 
Q 42.703125 23.5 42.703125 17.09375 
Q 42.703125 12.203125 40.546875 8.046875 
Q 38.40625 3.90625 34.25 1.40625 
Q 30.09375 -1.09375 24 -1.09375 
z
" id="Inconsolata-Regular-51"/>
      </defs>
      <g style="fill:#555555;" transform="translate(220.743365 171.15)scale(0.1 -0.1)">
       <use xlink:href="#Inconsolata-Regular-50"/>
       <use x="49.999985" xlink:href="#Inconsolata-Regular-48"/>
       <use x="99.999969" xlink:href="#Inconsolata-Regular-50"/>
       <use x="149.999954" xlink:href="#Inconsolata-Regular-48"/>
       <use x="199.999939" xlink:href="#Inconsolata-Regular-45"/>
       <use x="249.999924" xlink:href="#Inconsolata-Regular-48"/>
       <use x="299.999908" xlink:href="#Inconsolata-Regular-51"/>
      </g>
     </g>
    </g>
    <g id="xtick_3">
     <g id="line2d_5">
      <path clip-path="url(#p900818927f)" d="M 335.916996 157.5 
L 335.916996 21.6 
" style="fill:none;stroke:#ffffff;stroke-linecap:square;stroke-width:0.8;"/>
     </g>
     <g id="line2d_6">
      <g>
       <use style="fill:#555555;stroke:#555555;stroke-width:0.8;" x="335.916996" xlink:href="#m58faaff7d6" y="157.5"/>
      </g>
     </g>
     <g id="text_3">
      <!-- 2020-04 -->
      <defs>
       <path d="M 31.796875 0 
L 31.796875 15.296875 
L 4.796875 15.296875 
L 4.796875 20.40625 
L 33.296875 62.40625 
L 39.203125 62.40625 
L 39.203125 21.09375 
L 47.203125 21.09375 
L 47.203125 15.203125 
L 39.203125 15.203125 
L 39.203125 0 
z
M 12.90625 21.203125 
L 31.796875 21.203125 
L 31.796875 49.796875 
z
" id="Inconsolata-Regular-52"/>
      </defs>
      <g style="fill:#555555;" transform="translate(318.416996 171.15)scale(0.1 -0.1)">
       <use xlink:href="#Inconsolata-Regular-50"/>
       <use x="49.999985" xlink:href="#Inconsolata-Regular-48"/>
       <use x="99.999969" xlink:href="#Inconsolata-Regular-50"/>
       <use x="149.999954" xlink:href="#Inconsolata-Regular-48"/>
       <use x="199.999939" xlink:href="#Inconsolata-Regular-45"/>
       <use x="249.999924" xlink:href="#Inconsolata-Regular-48"/>
       <use x="299.999908" xlink:href="#Inconsolata-Regular-52"/>
      </g>
     </g>
    </g>
    <g id="xtick_4">
     <g id="line2d_7">
      <path clip-path="url(#p900818927f)" d="M 430.439864 157.5 
L 430.439864 21.6 
" style="fill:none;stroke:#ffffff;stroke-linecap:square;stroke-width:0.8;"/>
     </g>
     <g id="line2d_8">
      <g>
       <use style="fill:#555555;stroke:#555555;stroke-width:0.8;" x="430.439864" xlink:href="#m58faaff7d6" y="157.5"/>
      </g>
     </g>
     <g id="text_4">
      <!-- 2020-05 -->
      <defs>
       <path d="M 24.90625 -1.09375 
Q 19.203125 -1.09375 14.34375 1.40625 
Q 9.5 3.90625 6.40625 8.5 
L 12.796875 13.296875 
L 13.203125 12.796875 
Q 13.09375 12 13.4375 11.296875 
Q 13.796875 10.59375 14.796875 9.296875 
Q 16.796875 7.09375 19.25 6.046875 
Q 21.703125 5 25.296875 5 
Q 28.5 5 31.25 6.796875 
Q 34 8.59375 35.703125 11.9375 
Q 37.40625 15.296875 37.40625 19.90625 
Q 37.40625 26.90625 33.65625 30.796875 
Q 29.90625 34.703125 24.59375 34.703125 
Q 21.40625 34.703125 18.296875 33.140625 
Q 15.203125 31.59375 12.90625 28.796875 
L 8.5 30.59375 
L 10.59375 62.296875 
L 42.203125 62.296875 
L 42.203125 56 
L 16.5 56 
L 15.5 38.09375 
Q 20.5 40.5 25.703125 40.5 
Q 31.09375 40.5 35.34375 37.953125 
Q 39.59375 35.40625 42.046875 30.703125 
Q 44.5 26 44.5 19.59375 
Q 44.5 13.203125 41.890625 8.546875 
Q 39.296875 3.90625 34.890625 1.40625 
Q 30.5 -1.09375 24.90625 -1.09375 
z
" id="Inconsolata-Regular-53"/>
      </defs>
      <g style="fill:#555555;" transform="translate(412.939864 171.15)scale(0.1 -0.1)">
       <use xlink:href="#Inconsolata-Regular-50"/>
       <use x="49.999985" xlink:href="#Inconsolata-Regular-48"/>
       <use x="99.999969" xlink:href="#Inconsolata-Regular-50"/>
       <use x="149.999954" xlink:href="#Inconsolata-Regular-48"/>
       <use x="199.999939" xlink:href="#Inconsolata-Regular-45"/>
       <use x="249.999924" xlink:href="#Inconsolata-Regular-48"/>
       <use x="299.999908" xlink:href="#Inconsolata-Regular-53"/>
      </g>
     </g>
    </g>
    <g id="xtick_5">
     <g id="line2d_9">
      <path clip-path="url(#p900818927f)" d="M 528.113495 157.5 
L 528.113495 21.6 
" style="fill:none;stroke:#ffffff;stroke-linecap:square;stroke-width:0.8;"/>
     </g>
     <g id="line2d_10">
      <g>
       <use style="fill:#555555;stroke:#555555;stroke-width:0.8;" x="528.113495" xlink:href="#m58faaff7d6" y="157.5"/>
      </g>
     </g>
     <g id="text_5">
      <!-- 2020-06 -->
      <defs>
       <path d="M 26.09375 -1 
Q 16.796875 -1 11.75 6.890625 
Q 6.703125 14.796875 6.703125 28.40625 
Q 6.703125 45.203125 12.703125 54.09375 
Q 18.703125 63 28.703125 63 
Q 36.59375 63 42.40625 57.296875 
L 38 52.296875 
L 37.296875 51.5 
L 36.796875 52 
Q 36.703125 52.796875 36.34375 53.5 
Q 36 54.203125 34.703125 55.296875 
Q 32.5 56.796875 28.90625 56.796875 
Q 26.90625 56.796875 24.296875 55.84375 
Q 21.703125 54.90625 19.296875 52.296875 
Q 16.90625 49.703125 15.296875 44.953125 
Q 13.703125 40.203125 13.59375 32.703125 
Q 15.703125 36.203125 19.25 38.203125 
Q 22.796875 40.203125 26.796875 40.203125 
Q 31.5 40.203125 35.34375 37.640625 
Q 39.203125 35.09375 41.546875 30.546875 
Q 43.90625 26 43.90625 19.796875 
Q 43.90625 13.59375 41.5 8.890625 
Q 39.09375 4.203125 35.09375 1.59375 
Q 31.09375 -1 26.09375 -1 
z
M 26.40625 5.203125 
Q 30.703125 5.203125 33.890625 8.890625 
Q 37.09375 12.59375 37.09375 19.703125 
Q 37.09375 24.703125 35.4375 27.890625 
Q 33.796875 31.09375 31.296875 32.59375 
Q 28.796875 34.09375 26.203125 34.09375 
Q 22.59375 34.09375 19.296875 31.640625 
Q 16 29.203125 14 25.703125 
Q 13.59375 22.296875 14.25 18.6875 
Q 14.90625 15.09375 16.546875 12.046875 
Q 18.203125 9 20.703125 7.09375 
Q 23.203125 5.203125 26.40625 5.203125 
z
" id="Inconsolata-Regular-54"/>
      </defs>
      <g style="fill:#555555;" transform="translate(510.613495 171.15)scale(0.1 -0.1)">
       <use xlink:href="#Inconsolata-Regular-50"/>
       <use x="49.999985" xlink:href="#Inconsolata-Regular-48"/>
       <use x="99.999969" xlink:href="#Inconsolata-Regular-50"/>
       <use x="149.999954" xlink:href="#Inconsolata-Regular-48"/>
       <use x="199.999939" xlink:href="#Inconsolata-Regular-45"/>
       <use x="249.999924" xlink:href="#Inconsolata-Regular-48"/>
       <use x="299.999908" xlink:href="#Inconsolata-Regular-54"/>
      </g>
     </g>
    </g>
    <g id="xtick_6">
     <g id="line2d_11">
      <path clip-path="url(#p900818927f)" d="M 622.636364 157.5 
L 622.636364 21.6 
" style="fill:none;stroke:#ffffff;stroke-linecap:square;stroke-width:0.8;"/>
     </g>
     <g id="line2d_12">
      <g>
       <use style="fill:#555555;stroke:#555555;stroke-width:0.8;" x="622.636364" xlink:href="#m58faaff7d6" y="157.5"/>
      </g>
     </g>
     <g id="text_6">
      <!-- 2020-07 -->
      <defs>
       <path d="M 15.5 0 
Q 19.90625 14.296875 24.59375 28.09375 
Q 29.296875 41.90625 34.5 55.703125 
L 7.90625 55.703125 
L 7.90625 62.296875 
L 43.203125 62.296875 
L 43.203125 58.40625 
Q 37.5 44 32.5 29.5 
Q 27.5 15 23.40625 0 
z
" id="Inconsolata-Regular-55"/>
      </defs>
      <g style="fill:#555555;" transform="translate(605.136364 171.15)scale(0.1 -0.1)">
       <use xlink:href="#Inconsolata-Regular-50"/>
       <use x="49.999985" xlink:href="#Inconsolata-Regular-48"/>
       <use x="99.999969" xlink:href="#Inconsolata-Regular-50"/>
       <use x="149.999954" xlink:href="#Inconsolata-Regular-48"/>
       <use x="199.999939" xlink:href="#Inconsolata-Regular-45"/>
       <use x="249.999924" xlink:href="#Inconsolata-Regular-48"/>
       <use x="299.999908" xlink:href="#Inconsolata-Regular-55"/>
      </g>
     </g>
    </g>
   </g>
   <g id="matplotlib.axis_2">
    <g id="ytick_1">
     <g id="line2d_13">
      <path clip-path="url(#p900818927f)" d="M 90 157.5 
L 648 157.5 
" style="fill:none;stroke:#ffffff;stroke-linecap:square;stroke-width:0.8;"/>
     </g>
     <g id="line2d_14">
      <defs>
       <path d="M 0 0 
L -3.5 0 
" id="m238367bfce" style="stroke:#555555;stroke-width:0.8;"/>
      </defs>
      <g>
       <use style="fill:#555555;stroke:#555555;stroke-width:0.8;" x="90" xlink:href="#m238367bfce" y="157.5"/>
      </g>
     </g>
     <g id="line2d_15">
      <defs>
       <path d="M 0 0 
L 3.5 0 
" id="m74e7a544cf" style="stroke:#555555;stroke-width:0.8;"/>
      </defs>
      <g>
       <use style="fill:#555555;stroke:#555555;stroke-width:0.8;" x="648" xlink:href="#m74e7a544cf" y="157.5"/>
      </g>
     </g>
     <g id="text_7">
      <!-- 0 -->
      <g style="fill:#555555;" transform="translate(78 160.825)scale(0.1 -0.1)">
       <use xlink:href="#Inconsolata-Regular-48"/>
      </g>
     </g>
     <g id="text_8">
      <!-- 0 -->
      <g style="fill:#555555;" transform="translate(655 160.825)scale(0.1 -0.1)">
       <use xlink:href="#Inconsolata-Regular-48"/>
      </g>
     </g>
    </g>
    <g id="ytick_2">
     <g id="line2d_16">
      <path clip-path="url(#p900818927f)" d="M 90 133.967532 
L 648 133.967532 
" style="fill:none;stroke:#ffffff;stroke-linecap:square;stroke-width:0.8;"/>
     </g>
     <g id="line2d_17">
      <g>
       <use style="fill:#555555;stroke:#555555;stroke-width:0.8;" x="90" xlink:href="#m238367bfce" y="133.967532"/>
      </g>
     </g>
     <g id="line2d_18">
      <g>
       <use style="fill:#555555;stroke:#555555;stroke-width:0.8;" x="648" xlink:href="#m74e7a544cf" y="133.967532"/>
      </g>
     </g>
     <g id="text_9">
      <!-- 2 -->
      <g style="fill:#555555;" transform="translate(78 137.292532)scale(0.1 -0.1)">
       <use xlink:href="#Inconsolata-Regular-50"/>
      </g>
     </g>
     <g id="text_10">
      <!-- 2 -->
      <g style="fill:#555555;" transform="translate(655 137.292532)scale(0.1 -0.1)">
       <use xlink:href="#Inconsolata-Regular-50"/>
      </g>
     </g>
    </g>
    <g id="ytick_3">
     <g id="line2d_19">
      <path clip-path="url(#p900818927f)" d="M 90 110.435065 
L 648 110.435065 
" style="fill:none;stroke:#ffffff;stroke-linecap:square;stroke-width:0.8;"/>
     </g>
     <g id="line2d_20">
      <g>
       <use style="fill:#555555;stroke:#555555;stroke-width:0.8;" x="90" xlink:href="#m238367bfce" y="110.435065"/>
      </g>
     </g>
     <g id="line2d_21">
      <g>
       <use style="fill:#555555;stroke:#555555;stroke-width:0.8;" x="648" xlink:href="#m74e7a544cf" y="110.435065"/>
      </g>
     </g>
     <g id="text_11">
      <!-- 4 -->
      <g style="fill:#555555;" transform="translate(78 113.760065)scale(0.1 -0.1)">
       <use xlink:href="#Inconsolata-Regular-52"/>
      </g>
     </g>
     <g id="text_12">
      <!-- 4 -->
      <g style="fill:#555555;" transform="translate(655 113.760065)scale(0.1 -0.1)">
       <use xlink:href="#Inconsolata-Regular-52"/>
      </g>
     </g>
    </g>
    <g id="ytick_4">
     <g id="line2d_22">
      <path clip-path="url(#p900818927f)" d="M 90 86.902597 
L 648 86.902597 
" style="fill:none;stroke:#ffffff;stroke-linecap:square;stroke-width:0.8;"/>
     </g>
     <g id="line2d_23">
      <g>
       <use style="fill:#555555;stroke:#555555;stroke-width:0.8;" x="90" xlink:href="#m238367bfce" y="86.902597"/>
      </g>
     </g>
     <g id="line2d_24">
      <g>
       <use style="fill:#555555;stroke:#555555;stroke-width:0.8;" x="648" xlink:href="#m74e7a544cf" y="86.902597"/>
      </g>
     </g>
     <g id="text_13">
      <!-- 6 -->
      <g style="fill:#555555;" transform="translate(78 90.227597)scale(0.1 -0.1)">
       <use xlink:href="#Inconsolata-Regular-54"/>
      </g>
     </g>
     <g id="text_14">
      <!-- 6 -->
      <g style="fill:#555555;" transform="translate(655 90.227597)scale(0.1 -0.1)">
       <use xlink:href="#Inconsolata-Regular-54"/>
      </g>
     </g>
    </g>
    <g id="ytick_5">
     <g id="line2d_25">
      <path clip-path="url(#p900818927f)" d="M 90 63.37013 
L 648 63.37013 
" style="fill:none;stroke:#ffffff;stroke-linecap:square;stroke-width:0.8;"/>
     </g>
     <g id="line2d_26">
      <g>
       <use style="fill:#555555;stroke:#555555;stroke-width:0.8;" x="90" xlink:href="#m238367bfce" y="63.37013"/>
      </g>
     </g>
     <g id="line2d_27">
      <g>
       <use style="fill:#555555;stroke:#555555;stroke-width:0.8;" x="648" xlink:href="#m74e7a544cf" y="63.37013"/>
      </g>
     </g>
     <g id="text_15">
      <!-- 8 -->
      <defs>
       <path d="M 25 -1 
Q 19.09375 -1 14.84375 1.25 
Q 10.59375 3.5 8.296875 7.296875 
Q 6 11.09375 6 15.703125 
Q 6 21.09375 9.390625 25.796875 
Q 12.796875 30.5 18.5 33.09375 
Q 14.203125 35.296875 11.59375 39.25 
Q 9 43.203125 9 47.703125 
Q 9 54.09375 13.140625 58.59375 
Q 17.296875 63.09375 25.5 63.09375 
Q 31.296875 63.09375 34.890625 61.09375 
Q 38.5 59.09375 40.25 55.75 
Q 42 52.40625 42 48.296875 
Q 42 43.796875 39.296875 39.75 
Q 36.59375 35.703125 32.09375 33.296875 
Q 37.5 30.796875 40.796875 26.140625 
Q 44.09375 21.5 44.09375 16.09375 
Q 44.09375 11.203125 41.75 7.34375 
Q 39.40625 3.5 35.15625 1.25 
Q 30.90625 -1 25 -1 
z
M 26.703125 35.796875 
Q 30.40625 37.796875 32.796875 41.1875 
Q 35.203125 44.59375 35.203125 48.09375 
Q 35.203125 51.59375 32.75 54.390625 
Q 30.296875 57.203125 25.296875 57.203125 
Q 20.40625 57.203125 18.046875 54.5 
Q 15.703125 51.796875 15.703125 48.40625 
Q 15.703125 43.796875 18.890625 41.046875 
Q 22.09375 38.296875 26.703125 35.796875 
z
M 25.203125 5.296875 
Q 31 5.296875 34 8.4375 
Q 37 11.59375 37 16.09375 
Q 37 20.703125 33.390625 24.546875 
Q 29.796875 28.40625 23.703125 30.296875 
Q 19.203125 28.40625 16.203125 24.65625 
Q 13.203125 20.90625 13.203125 16.40625 
Q 13.203125 11.90625 16.34375 8.59375 
Q 19.5 5.296875 25.203125 5.296875 
z
" id="Inconsolata-Regular-56"/>
      </defs>
      <g style="fill:#555555;" transform="translate(78 66.69513)scale(0.1 -0.1)">
       <use xlink:href="#Inconsolata-Regular-56"/>
      </g>
     </g>
     <g id="text_16">
      <!-- 8 -->
      <g style="fill:#555555;" transform="translate(655 66.69513)scale(0.1 -0.1)">
       <use xlink:href="#Inconsolata-Regular-56"/>
      </g>
     </g>
    </g>
    <g id="ytick_6">
     <g id="line2d_28">
      <path clip-path="url(#p900818927f)" d="M 90 39.837662 
L 648 39.837662 
" style="fill:none;stroke:#ffffff;stroke-linecap:square;stroke-width:0.8;"/>
     </g>
     <g id="line2d_29">
      <g>
       <use style="fill:#555555;stroke:#555555;stroke-width:0.8;" x="90" xlink:href="#m238367bfce" y="39.837662"/>
      </g>
     </g>
     <g id="line2d_30">
      <g>
       <use style="fill:#555555;stroke:#555555;stroke-width:0.8;" x="648" xlink:href="#m74e7a544cf" y="39.837662"/>
      </g>
     </g>
     <g id="text_17">
      <!-- 10 -->
      <defs>
       <path d="M 23 0 
L 23 53.703125 
L 10.40625 50 
L 8.796875 53.90625 
L 25.09375 62.40625 
L 30 62.40625 
L 30 0 
z
" id="Inconsolata-Regular-49"/>
      </defs>
      <g style="fill:#555555;" transform="translate(73 43.162662)scale(0.1 -0.1)">
       <use xlink:href="#Inconsolata-Regular-49"/>
       <use x="49.999985" xlink:href="#Inconsolata-Regular-48"/>
      </g>
     </g>
     <g id="text_18">
      <!-- 10 -->
      <g style="fill:#555555;" transform="translate(655 43.162662)scale(0.1 -0.1)">
       <use xlink:href="#Inconsolata-Regular-49"/>
       <use x="49.999985" xlink:href="#Inconsolata-Regular-48"/>
      </g>
     </g>
    </g>
    <g id="text_19">
     <!-- daily change -->
     <defs>
      <path d="M 23.40625 -1 
Q 18.796875 -1 14.4375 1.640625 
Q 10.09375 4.296875 7.296875 9.6875 
Q 4.5 15.09375 4.5 23.296875 
Q 4.5 31.703125 7.390625 36.890625 
Q 10.296875 42.09375 14.75 44.5 
Q 19.203125 46.90625 23.796875 46.90625 
Q 28.5 46.90625 31.953125 44.75 
Q 35.40625 42.59375 37.09375 39 
L 37.09375 66.5 
L 44.703125 66.5 
L 44.703125 65.796875 
Q 44.09375 65.203125 43.9375 64.5 
Q 43.796875 63.796875 43.796875 62.09375 
L 43.90625 7.09375 
Q 43.90625 5.296875 44.046875 3.546875 
Q 44.203125 1.796875 44.90625 0 
L 37.796875 0 
Q 37.09375 1.796875 36.9375 3.546875 
Q 36.796875 5.296875 36.796875 7.09375 
Q 34.59375 3.40625 31.1875 1.203125 
Q 27.796875 -1 23.40625 -1 
z
M 24.5 5.296875 
Q 28.90625 5.296875 31.546875 7.6875 
Q 34.203125 10.09375 35.34375 14.140625 
Q 36.5 18.203125 36.5 23.09375 
Q 36.5 30.796875 33.5 35.890625 
Q 30.5 41 23.90625 41 
Q 17.796875 41 14.640625 36.5 
Q 11.5 32 11.5 24.40625 
Q 11.5 15.796875 14.796875 10.546875 
Q 18.09375 5.296875 24.5 5.296875 
z
" id="Inconsolata-Regular-100"/>
      <path d="M 21.09375 -1.09375 
Q 13.296875 -1.09375 9.09375 2.453125 
Q 4.90625 6 4.90625 11.5 
Q 4.90625 16.40625 8 19.953125 
Q 11.09375 23.5 16.34375 25.453125 
Q 21.59375 27.40625 27.90625 27.40625 
Q 30.203125 27.40625 32.75 27.296875 
Q 35.296875 27.203125 38.203125 26.796875 
Q 37.59375 34.796875 34.046875 37.796875 
Q 30.5 40.796875 23.90625 40.796875 
Q 20.59375 40.796875 17.390625 39.546875 
Q 14.203125 38.296875 11.59375 35.703125 
L 8.09375 40.296875 
Q 11.296875 43.5 15.5 45.09375 
Q 19.703125 46.703125 24.40625 46.703125 
Q 30.5 46.703125 35 44.703125 
Q 39.5 42.703125 42 37.796875 
Q 44.5 32.90625 44.5 24.296875 
L 44.5 0 
L 36.703125 0 
L 36.703125 7 
Q 35 3.703125 32.34375 1.953125 
Q 29.703125 0.203125 26.75 -0.4375 
Q 23.796875 -1.09375 21.09375 -1.09375 
z
M 12.09375 11.90625 
Q 12.09375 7.59375 14.890625 6 
Q 17.703125 4.40625 21.796875 4.40625 
Q 29.203125 4.40625 33.5 8.75 
Q 37.796875 13.09375 38.203125 21.296875 
Q 33 22 28.5 22 
Q 21.296875 22 16.6875 19.59375 
Q 12.09375 17.203125 12.09375 11.90625 
z
" id="Inconsolata-Regular-97"/>
      <path d="M 10 0 
L 10 5.796875 
L 21.703125 5.796875 
L 21.703125 39.90625 
L 10.59375 39.90625 
L 10.59375 45.703125 
L 28.90625 45.703125 
L 28.90625 5.796875 
L 39.59375 5.796875 
L 39.59375 0 
z
M 24.90625 55.296875 
Q 22.796875 55.296875 21.296875 56.796875 
Q 19.796875 58.296875 19.796875 60.40625 
Q 19.796875 62.59375 21.25 64.09375 
Q 22.703125 65.59375 24.90625 65.59375 
Q 27 65.59375 28.546875 64.046875 
Q 30.09375 62.5 30.09375 60.40625 
Q 30.09375 58.296875 28.546875 56.796875 
Q 27 55.296875 24.90625 55.296875 
z
" id="Inconsolata-Regular-105"/>
      <path d="M 7.90625 0 
L 7.90625 5.796875 
L 21.40625 5.796875 
L 21.40625 60.703125 
L 8.5 60.703125 
L 8.5 66.5 
L 28.703125 66.5 
L 28.703125 5.796875 
L 42.09375 5.796875 
L 42.09375 0 
z
" id="Inconsolata-Regular-108"/>
      <path d="M 12.703125 -17.40625 
Q 6.296875 -17.40625 2.203125 -13.5 
L 5.296875 -8.59375 
L 5.90625 -7.703125 
L 6.5 -8.09375 
Q 6.703125 -8.90625 7.203125 -9.453125 
Q 7.703125 -10 9.09375 -10.90625 
Q 10.90625 -11.5 13.09375 -11.5 
Q 17 -11.5 19.203125 -8.75 
Q 21.40625 -6 23.296875 -0.296875 
L 4.59375 45.703125 
L 12.09375 45.703125 
L 26.296875 9.09375 
L 32.296875 27.5 
Q 33.796875 32.09375 35.1875 36.59375 
Q 36.59375 41.09375 37.09375 45.703125 
L 44.296875 45.703125 
Q 43.59375 41.09375 42.09375 36.390625 
Q 40.59375 31.703125 38.90625 27 
L 27.5 -5.203125 
Q 25.09375 -11.90625 21.34375 -14.65625 
Q 17.59375 -17.40625 12.703125 -17.40625 
z
" id="Inconsolata-Regular-121"/>
      <path id="Inconsolata-Regular-32"/>
      <path d="M 28.5 -1.09375 
Q 21.90625 -1.09375 16.703125 2 
Q 11.5 5.09375 8.546875 10.5 
Q 5.59375 15.90625 5.59375 22.796875 
Q 5.59375 29.703125 8.546875 35.046875 
Q 11.5 40.40625 16.640625 43.5 
Q 21.796875 46.59375 28.40625 46.59375 
Q 34 46.59375 38.453125 44.34375 
Q 42.90625 42.09375 45.703125 38.09375 
L 41.203125 33.703125 
L 40.5 33 
L 40 33.5 
Q 40 34.296875 39.640625 35 
Q 39.296875 35.703125 38.09375 36.90625 
Q 35.90625 38.90625 33.40625 39.703125 
Q 30.90625 40.5 27.59375 40.5 
Q 23.796875 40.5 20.4375 38.390625 
Q 17.09375 36.296875 15.046875 32.4375 
Q 13 28.59375 13 23.296875 
Q 13 18.203125 15.046875 14.140625 
Q 17.09375 10.09375 20.6875 7.75 
Q 24.296875 5.40625 28.90625 5.40625 
Q 35.796875 5.40625 40.796875 11 
L 45 6.09375 
Q 38.296875 -1.09375 28.5 -1.09375 
z
" id="Inconsolata-Regular-99"/>
      <path d="M 7.296875 66.5 
L 15.203125 66.5 
L 15.203125 65.796875 
Q 14.59375 65.203125 14.4375 64.5 
Q 14.296875 63.796875 14.296875 62.09375 
L 14.296875 37.59375 
Q 17 41.796875 21.046875 44.296875 
Q 25.09375 46.796875 29.296875 46.796875 
Q 35.5 46.796875 39.34375 42.4375 
Q 43.203125 38.09375 43.203125 27.703125 
L 43.203125 0 
L 36.203125 0 
L 36.203125 27.5 
Q 36.203125 34.703125 33.75 37.59375 
Q 31.296875 40.5 27.796875 40.5 
Q 24.796875 40.5 21.640625 38.796875 
Q 18.5 37.09375 16.390625 33.9375 
Q 14.296875 30.796875 14.296875 26.296875 
L 14.296875 0 
L 7.296875 0 
z
" id="Inconsolata-Regular-104"/>
      <path d="M 7.203125 0 
L 7.203125 45.703125 
L 14.203125 45.703125 
L 14.203125 37.59375 
Q 16.796875 41.796875 20.9375 44.296875 
Q 25.09375 46.796875 29.703125 46.796875 
Q 35.296875 46.796875 39.1875 42.4375 
Q 43.09375 38.09375 43.09375 27.703125 
L 43.09375 0 
L 36.09375 0 
L 36.09375 27.5 
Q 36.09375 34.703125 33.640625 37.59375 
Q 31.203125 40.5 27.703125 40.5 
Q 24.703125 40.5 21.546875 38.75 
Q 18.40625 37 16.296875 33.84375 
Q 14.203125 30.703125 14.203125 26.296875 
L 14.203125 0 
z
" id="Inconsolata-Regular-110"/>
      <path d="M 22.59375 15.5 
Q 18.703125 15.5 15.5 16.90625 
Q 13.703125 14.703125 13.703125 12.703125 
Q 13.703125 10.296875 16.703125 9.25 
Q 19.703125 8.203125 27.703125 8.203125 
Q 34.703125 8.203125 38.296875 6.703125 
Q 41.90625 5.203125 43.203125 2.59375 
Q 44.5 0 44.5 -3.40625 
Q 44.5 -6.90625 42.59375 -10.09375 
Q 40.703125 -13.296875 36.34375 -15.25 
Q 32 -17.203125 24.703125 -17.203125 
Q 15.09375 -17.203125 9.4375 -14.25 
Q 3.796875 -11.296875 3.796875 -5.40625 
Q 3.796875 -1.703125 5.890625 0.9375 
Q 8 3.59375 10.90625 4.90625 
Q 7.59375 7.09375 7.59375 11 
Q 7.59375 13.203125 8.6875 15.296875 
Q 9.796875 17.40625 11.703125 19.40625 
Q 6.59375 23.90625 6.59375 31.5 
Q 6.59375 35.90625 8.546875 39.5 
Q 10.5 43.09375 14.09375 45.25 
Q 17.703125 47.40625 22.59375 47.40625 
Q 26.296875 47.40625 29.25 46.15625 
Q 32.203125 44.90625 34.296875 42.703125 
Q 36.90625 45.09375 39.796875 46.140625 
Q 42.703125 47.203125 46.59375 46.90625 
L 47.5 41 
Q 44.5 41.296875 41.84375 40.890625 
Q 39.203125 40.5 36.90625 39 
Q 38.59375 35.59375 38.59375 31.5 
Q 38.59375 27.09375 36.640625 23.4375 
Q 34.703125 19.796875 31.140625 17.640625 
Q 27.59375 15.5 22.59375 15.5 
z
M 22.59375 21.5 
Q 27 21.5 29.796875 24.453125 
Q 32.59375 27.40625 32.59375 31.5 
Q 32.59375 35.59375 29.796875 38.546875 
Q 27 41.5 22.59375 41.5 
Q 18.296875 41.5 15.4375 38.546875 
Q 12.59375 35.59375 12.59375 31.5 
Q 12.59375 27.40625 15.4375 24.453125 
Q 18.296875 21.5 22.59375 21.5 
z
M 10.40625 -4.59375 
Q 10.40625 -8 14.25 -9.890625 
Q 18.09375 -11.796875 24.796875 -11.796875 
Q 31.59375 -11.796875 34.75 -9.75 
Q 37.90625 -7.703125 37.90625 -4.5 
Q 37.90625 -2.296875 37.09375 -0.890625 
Q 36.296875 0.5 33.796875 1.203125 
Q 31.296875 1.90625 26.203125 1.90625 
Q 22.703125 1.90625 19.84375 2.203125 
Q 17 2.5 14.703125 3.203125 
Q 12.40625 1.59375 11.40625 -0.046875 
Q 10.40625 -1.703125 10.40625 -4.59375 
z
" id="Inconsolata-Regular-103"/>
      <path d="M 27.203125 -1 
Q 17.203125 -1 11.046875 5.09375 
Q 4.90625 11.203125 4.90625 22.703125 
Q 4.90625 30.5 7.75 35.84375 
Q 10.59375 41.203125 15.34375 44 
Q 20.09375 46.796875 25.90625 46.796875 
Q 31.09375 46.796875 35.296875 44.5 
Q 39.5 42.203125 42 37.390625 
Q 44.5 32.59375 44.5 25.09375 
Q 44.5 24.296875 44.453125 23.4375 
Q 44.40625 22.59375 44.296875 21.796875 
L 11.796875 21.796875 
Q 12.203125 13 16.75 8.890625 
Q 21.296875 4.796875 27.40625 4.796875 
Q 34.59375 4.796875 39.203125 9.90625 
L 43.203125 6 
Q 37.40625 -1 27.203125 -1 
z
M 12.09375 27.40625 
L 37.203125 27.40625 
Q 37.203125 33.796875 33.953125 37.546875 
Q 30.703125 41.296875 25.40625 41.296875 
Q 20.703125 41.296875 16.890625 37.9375 
Q 13.09375 34.59375 12.09375 27.40625 
z
" id="Inconsolata-Regular-101"/>
     </defs>
     <g style="fill:#555555;" transform="translate(66.91125 125.55)rotate(-90)scale(0.12 -0.12)">
      <use xlink:href="#Inconsolata-Regular-100"/>
      <use x="49.999985" xlink:href="#Inconsolata-Regular-97"/>
      <use x="99.999969" xlink:href="#Inconsolata-Regular-105"/>
      <use x="149.999954" xlink:href="#Inconsolata-Regular-108"/>
      <use x="199.999939" xlink:href="#Inconsolata-Regular-121"/>
      <use x="249.999924" xlink:href="#Inconsolata-Regular-32"/>
      <use x="299.999908" xlink:href="#Inconsolata-Regular-99"/>
      <use x="349.999893" xlink:href="#Inconsolata-Regular-104"/>
      <use x="399.999878" xlink:href="#Inconsolata-Regular-97"/>
      <use x="449.999863" xlink:href="#Inconsolata-Regular-110"/>
      <use x="499.999847" xlink:href="#Inconsolata-Regular-103"/>
      <use x="549.999832" xlink:href="#Inconsolata-Regular-101"/>
     </g>
    </g>
   </g>
   <g id="patch_3">
    <path clip-path="url(#p900818927f)" d="M 117.254094 157.5 
L 119.774704 157.5 
L 119.774704 157.5 
L 117.254094 157.5 
z
" style="fill:#e24a33;opacity:0.2;"/>
   </g>
   <g id="patch_4">
    <path clip-path="url(#p900818927f)" d="M 120.404856 157.5 
L 122.925466 157.5 
L 122.925466 157.5 
L 120.404856 157.5 
z
" style="fill:#e24a33;opacity:0.2;"/>
   </g>
   <g id="patch_5">
    <path clip-path="url(#p900818927f)" d="M 123.555618 157.5 
L 126.076228 157.5 
L 126.076228 157.5 
L 123.555618 157.5 
z
" style="fill:#e24a33;opacity:0.2;"/>
   </g>
   <g id="patch_6">
    <path clip-path="url(#p900818927f)" d="M 126.706381 157.5 
L 129.22699 157.5 
L 129.22699 157.5 
L 126.706381 157.5 
z
" style="fill:#e24a33;opacity:0.2;"/>
   </g>
   <g id="patch_7">
    <path clip-path="url(#p900818927f)" d="M 129.857143 157.5 
L 132.377753 157.5 
L 132.377753 157.5 
L 129.857143 157.5 
z
" style="fill:#e24a33;opacity:0.2;"/>
   </g>
   <g id="patch_8">
    <path clip-path="url(#p900818927f)" d="M 133.007905 157.5 
L 135.528515 157.5 
L 135.528515 157.5 
L 133.007905 157.5 
z
" style="fill:#e24a33;opacity:0.2;"/>
   </g>
   <g id="patch_9">
    <path clip-path="url(#p900818927f)" d="M 136.158667 157.5 
L 138.679277 157.5 
L 138.679277 157.5 
L 136.158667 157.5 
z
" style="fill:#e24a33;opacity:0.2;"/>
   </g>
   <g id="patch_10">
    <path clip-path="url(#p900818927f)" d="M 139.30943 157.5 
L 141.83004 157.5 
L 141.83004 157.5 
L 139.30943 157.5 
z
" style="fill:#e24a33;opacity:0.2;"/>
   </g>
   <g id="patch_11">
    <path clip-path="url(#p900818927f)" d="M 142.460192 157.5 
L 144.980802 157.5 
L 144.980802 157.5 
L 142.460192 157.5 
z
" style="fill:#e24a33;opacity:0.2;"/>
   </g>
   <g id="patch_12">
    <path clip-path="url(#p900818927f)" d="M 145.610954 157.5 
L 148.131564 157.5 
L 148.131564 157.5 
L 145.610954 157.5 
z
" style="fill:#e24a33;opacity:0.2;"/>
   </g>
   <g id="patch_13">
    <path clip-path="url(#p900818927f)" d="M 148.761717 157.5 
L 151.282326 157.5 
L 151.282326 157.5 
L 148.761717 157.5 
z
" style="fill:#e24a33;opacity:0.2;"/>
   </g>
   <g id="patch_14">
    <path clip-path="url(#p900818927f)" d="M 151.912479 157.5 
L 154.433089 157.5 
L 154.433089 157.5 
L 151.912479 157.5 
z
" style="fill:#e24a33;opacity:0.2;"/>
   </g>
   <g id="patch_15">
    <path clip-path="url(#p900818927f)" d="M 155.063241 157.5 
L 157.583851 157.5 
L 157.583851 157.5 
L 155.063241 157.5 
z
" style="fill:#e24a33;opacity:0.2;"/>
   </g>
   <g id="patch_16">
    <path clip-path="url(#p900818927f)" d="M 158.214003 157.5 
L 160.734613 157.5 
L 160.734613 157.5 
L 158.214003 157.5 
z
" style="fill:#e24a33;opacity:0.2;"/>
   </g>
   <g id="patch_17">
    <path clip-path="url(#p900818927f)" d="M 161.364766 157.5 
L 163.885375 157.5 
L 163.885375 157.5 
L 161.364766 157.5 
z
" style="fill:#e24a33;opacity:0.2;"/>
   </g>
   <g id="patch_18">
    <path clip-path="url(#p900818927f)" d="M 164.515528 157.5 
L 167.036138 157.5 
L 167.036138 157.5 
L 164.515528 157.5 
z
" style="fill:#e24a33;opacity:0.2;"/>
   </g>
   <g id="patch_19">
    <path clip-path="url(#p900818927f)" d="M 167.66629 157.5 
L 170.1869 157.5 
L 170.1869 157.5 
L 167.66629 157.5 
z
" style="fill:#e24a33;opacity:0.2;"/>
   </g>
   <g id="patch_20">
    <path clip-path="url(#p900818927f)" d="M 170.817053 157.5 
L 173.337662 157.5 
L 173.337662 157.5 
L 170.817053 157.5 
z
" style="fill:#e24a33;opacity:0.2;"/>
   </g>
   <g id="patch_21">
    <path clip-path="url(#p900818927f)" d="M 173.967815 157.5 
L 176.488425 157.5 
L 176.488425 157.5 
L 173.967815 157.5 
z
" style="fill:#e24a33;opacity:0.2;"/>
   </g>
   <g id="patch_22">
    <path clip-path="url(#p900818927f)" d="M 177.118577 157.5 
L 179.639187 157.5 
L 179.639187 157.5 
L 177.118577 157.5 
z
" style="fill:#e24a33;opacity:0.2;"/>
   </g>
   <g id="patch_23">
    <path clip-path="url(#p900818927f)" d="M 180.269339 157.5 
L 182.789949 157.5 
L 182.789949 157.5 
L 180.269339 157.5 
z
" style="fill:#e24a33;opacity:0.2;"/>
   </g>
   <g id="patch_24">
    <path clip-path="url(#p900818927f)" d="M 183.420102 157.5 
L 185.940711 157.5 
L 185.940711 157.5 
L 183.420102 157.5 
z
" style="fill:#e24a33;opacity:0.2;"/>
   </g>
   <g id="patch_25">
    <path clip-path="url(#p900818927f)" d="M 186.570864 157.5 
L 189.091474 157.5 
L 189.091474 157.5 
L 186.570864 157.5 
z
" style="fill:#e24a33;opacity:0.2;"/>
   </g>
   <g id="patch_26">
    <path clip-path="url(#p900818927f)" d="M 189.721626 157.5 
L 192.242236 157.5 
L 192.242236 157.5 
L 189.721626 157.5 
z
" style="fill:#e24a33;opacity:0.2;"/>
   </g>
   <g id="patch_27">
    <path clip-path="url(#p900818927f)" d="M 192.872388 157.5 
L 195.392998 157.5 
L 195.392998 157.5 
L 192.872388 157.5 
z
" style="fill:#e24a33;opacity:0.2;"/>
   </g>
   <g id="patch_28">
    <path clip-path="url(#p900818927f)" d="M 196.023151 157.5 
L 198.543761 157.5 
L 198.543761 157.5 
L 196.023151 157.5 
z
" style="fill:#e24a33;opacity:0.2;"/>
   </g>
   <g id="patch_29">
    <path clip-path="url(#p900818927f)" d="M 199.173913 157.5 
L 201.694523 157.5 
L 201.694523 157.5 
L 199.173913 157.5 
z
" style="fill:#e24a33;opacity:0.2;"/>
   </g>
   <g id="patch_30">
    <path clip-path="url(#p900818927f)" d="M 202.324675 157.5 
L 204.845285 157.5 
L 204.845285 157.5 
L 202.324675 157.5 
z
" style="fill:#e24a33;opacity:0.2;"/>
   </g>
   <g id="patch_31">
    <path clip-path="url(#p900818927f)" d="M 205.475438 157.5 
L 207.996047 157.5 
L 207.996047 145.733766 
L 205.475438 145.733766 
z
" style="fill:#e24a33;opacity:0.2;"/>
   </g>
   <g id="patch_32">
    <path clip-path="url(#p900818927f)" d="M 208.6262 157.5 
L 211.14681 157.5 
L 211.14681 145.733766 
L 208.6262 145.733766 
z
" style="fill:#e24a33;opacity:0.2;"/>
   </g>
   <g id="patch_33">
    <path clip-path="url(#p900818927f)" d="M 211.776962 157.5 
L 214.297572 157.5 
L 214.297572 157.5 
L 211.776962 157.5 
z
" style="fill:#e24a33;opacity:0.2;"/>
   </g>
   <g id="patch_34">
    <path clip-path="url(#p900818927f)" d="M 214.927724 157.5 
L 217.448334 157.5 
L 217.448334 110.435065 
L 214.927724 110.435065 
z
" style="fill:#e24a33;opacity:0.2;"/>
   </g>
   <g id="patch_35">
    <path clip-path="url(#p900818927f)" d="M 218.078487 157.5 
L 220.599097 157.5 
L 220.599097 133.967532 
L 218.078487 133.967532 
z
" style="fill:#e24a33;opacity:0.2;"/>
   </g>
   <g id="patch_36">
    <path clip-path="url(#p900818927f)" d="M 221.229249 157.5 
L 223.749859 157.5 
L 223.749859 133.967532 
L 221.229249 133.967532 
z
" style="fill:#e24a33;opacity:0.2;"/>
   </g>
   <g id="patch_37">
    <path clip-path="url(#p900818927f)" d="M 224.380011 157.5 
L 226.900621 157.5 
L 226.900621 133.967532 
L 224.380011 133.967532 
z
" style="fill:#e24a33;opacity:0.2;"/>
   </g>
   <g id="patch_38">
    <path clip-path="url(#p900818927f)" d="M 227.530774 157.5 
L 230.051383 157.5 
L 230.051383 145.733766 
L 227.530774 145.733766 
z
" style="fill:#e24a33;opacity:0.2;"/>
   </g>
   <g id="patch_39">
    <path clip-path="url(#p900818927f)" d="M 230.681536 157.5 
L 233.202146 157.5 
L 233.202146 157.5 
L 230.681536 157.5 
z
" style="fill:#e24a33;opacity:0.2;"/>
   </g>
   <g id="patch_40">
    <path clip-path="url(#p900818927f)" d="M 233.832298 157.5 
L 236.352908 157.5 
L 236.352908 122.201299 
L 233.832298 122.201299 
z
" style="fill:#e24a33;opacity:0.2;"/>
   </g>
   <g id="patch_41">
    <path clip-path="url(#p900818927f)" d="M 236.98306 157.5 
L 239.50367 157.5 
L 239.50367 145.733766 
L 236.98306 145.733766 
z
" style="fill:#e24a33;opacity:0.2;"/>
   </g>
   <g id="patch_42">
    <path clip-path="url(#p900818927f)" d="M 240.133823 157.5 
L 242.654433 157.5 
L 242.654433 28.071429 
L 240.133823 28.071429 
z
" style="fill:#e24a33;opacity:0.2;"/>
   </g>
   <g id="patch_43">
    <path clip-path="url(#p900818927f)" d="M 243.284585 157.5 
L 245.805195 157.5 
L 245.805195 157.5 
L 243.284585 157.5 
z
" style="fill:#e24a33;opacity:0.2;"/>
   </g>
   <g id="patch_44">
    <path clip-path="url(#p900818927f)" d="M 246.435347 157.5 
L 248.955957 157.5 
L 248.955957 75.136364 
L 246.435347 75.136364 
z
" style="fill:#e24a33;opacity:0.2;"/>
   </g>
   <g id="patch_45">
    <path clip-path="url(#p900818927f)" d="M 249.58611 157.5 
L 252.106719 157.5 
L 252.106719 157.5 
L 249.58611 157.5 
z
" style="fill:#e24a33;opacity:0.2;"/>
   </g>
   <g id="patch_46">
    <path clip-path="url(#p900818927f)" d="M 252.736872 157.5 
L 255.257482 157.5 
L 255.257482 75.136364 
L 252.736872 75.136364 
z
" style="fill:#e24a33;opacity:0.2;"/>
   </g>
   <g id="patch_47">
    <path clip-path="url(#p900818927f)" d="M 255.887634 157.5 
L 258.408244 157.5 
L 258.408244 133.967532 
L 255.887634 133.967532 
z
" style="fill:#e24a33;opacity:0.2;"/>
   </g>
   <g id="patch_48">
    <path clip-path="url(#p900818927f)" d="M 259.038396 157.5 
L 261.559006 157.5 
L 261.559006 86.902597 
L 259.038396 86.902597 
z
" style="fill:#e24a33;opacity:0.2;"/>
   </g>
   <g id="patch_49">
    <path clip-path="url(#p900818927f)" d="M 262.189159 157.5 
L 264.709768 157.5 
L 264.709768 122.201299 
L 262.189159 122.201299 
z
" style="fill:#e24a33;opacity:0.2;"/>
   </g>
   <g id="patch_50">
    <path clip-path="url(#p900818927f)" d="M 265.339921 157.5 
L 267.860531 157.5 
L 267.860531 145.733766 
L 265.339921 145.733766 
z
" style="fill:#e24a33;opacity:0.2;"/>
   </g>
   <g id="patch_51">
    <path clip-path="url(#p900818927f)" d="M 268.490683 157.5 
L 271.011293 157.5 
L 271.011293 86.902597 
L 268.490683 86.902597 
z
" style="fill:#e24a33;opacity:0.2;"/>
   </g>
   <g id="patch_52">
    <path clip-path="url(#p900818927f)" d="M 271.641446 157.5 
L 274.162055 157.5 
L 274.162055 86.902597 
L 271.641446 86.902597 
z
" style="fill:#e24a33;opacity:0.2;"/>
   </g>
   <g id="patch_53">
    <path clip-path="url(#p900818927f)" d="M 274.792208 157.5 
L 277.312818 157.5 
L 277.312818 157.5 
L 274.792208 157.5 
z
" style="fill:#e24a33;opacity:0.2;"/>
   </g>
   <g id="patch_54">
    <path clip-path="url(#p900818927f)" d="M 277.94297 157.5 
L 280.46358 157.5 
L 280.46358 86.902597 
L 277.94297 86.902597 
z
" style="fill:#e24a33;opacity:0.2;"/>
   </g>
   <g id="patch_55">
    <path clip-path="url(#p900818927f)" d="M 281.093732 157.5 
L 283.614342 157.5 
L 283.614342 122.201299 
L 281.093732 122.201299 
z
" style="fill:#e24a33;opacity:0.2;"/>
   </g>
   <g id="patch_56">
    <path clip-path="url(#p900818927f)" d="M 284.244495 157.5 
L 286.765104 157.5 
L 286.765104 157.5 
L 284.244495 157.5 
z
" style="fill:#e24a33;opacity:0.2;"/>
   </g>
   <g id="patch_57">
    <path clip-path="url(#p900818927f)" d="M 287.395257 157.5 
L 289.915867 157.5 
L 289.915867 86.902597 
L 287.395257 86.902597 
z
" style="fill:#e24a33;opacity:0.2;"/>
   </g>
   <g id="patch_58">
    <path clip-path="url(#p900818927f)" d="M 290.546019 157.5 
L 293.066629 157.5 
L 293.066629 122.201299 
L 290.546019 122.201299 
z
" style="fill:#e24a33;opacity:0.2;"/>
   </g>
   <g id="patch_59">
    <path clip-path="url(#p900818927f)" d="M 293.696781 157.5 
L 296.217391 157.5 
L 296.217391 75.136364 
L 293.696781 75.136364 
z
" style="fill:#e24a33;opacity:0.2;"/>
   </g>
   <g id="patch_60">
    <path clip-path="url(#p900818927f)" d="M 296.847544 157.5 
L 299.368154 157.5 
L 299.368154 122.201299 
L 296.847544 122.201299 
z
" style="fill:#e24a33;opacity:0.2;"/>
   </g>
   <g id="patch_61">
    <path clip-path="url(#p900818927f)" d="M 299.998306 157.5 
L 302.518916 157.5 
L 302.518916 63.37013 
L 299.998306 63.37013 
z
" style="fill:#e24a33;opacity:0.2;"/>
   </g>
   <g id="patch_62">
    <path clip-path="url(#p900818927f)" d="M 303.149068 157.5 
L 305.669678 157.5 
L 305.669678 51.603896 
L 303.149068 51.603896 
z
" style="fill:#e24a33;opacity:0.2;"/>
   </g>
   <g id="patch_63">
    <path clip-path="url(#p900818927f)" d="M 306.299831 157.5 
L 308.82044 157.5 
L 308.82044 157.5 
L 306.299831 157.5 
z
" style="fill:#e24a33;opacity:0.2;"/>
   </g>
   <g id="patch_64">
    <path clip-path="url(#p900818927f)" d="M 309.450593 157.5 
L 311.971203 157.5 
L 311.971203 51.603896 
L 309.450593 51.603896 
z
" style="fill:#e24a33;opacity:0.2;"/>
   </g>
   <g id="patch_65">
    <path clip-path="url(#p900818927f)" d="M 312.601355 157.5 
L 315.121965 157.5 
L 315.121965 86.902597 
L 312.601355 86.902597 
z
" style="fill:#e24a33;opacity:0.2;"/>
   </g>
   <g id="patch_66">
    <path clip-path="url(#p900818927f)" d="M 315.752117 157.5 
L 318.272727 157.5 
L 318.272727 98.668831 
L 315.752117 98.668831 
z
" style="fill:#e24a33;opacity:0.2;"/>
   </g>
   <g id="patch_67">
    <path clip-path="url(#p900818927f)" d="M 318.90288 157.5 
L 321.42349 157.5 
L 321.42349 63.37013 
L 318.90288 63.37013 
z
" style="fill:#e24a33;opacity:0.2;"/>
   </g>
   <g id="patch_68">
    <path clip-path="url(#p900818927f)" d="M 322.053642 157.5 
L 324.574252 157.5 
L 324.574252 98.668831 
L 322.053642 98.668831 
z
" style="fill:#e24a33;opacity:0.2;"/>
   </g>
   <g id="patch_69">
    <path clip-path="url(#p900818927f)" d="M 325.204404 157.5 
L 327.725014 157.5 
L 327.725014 63.37013 
L 325.204404 63.37013 
z
" style="fill:#e24a33;opacity:0.2;"/>
   </g>
   <g id="patch_70">
    <path clip-path="url(#p900818927f)" d="M 328.355167 157.5 
L 330.875776 157.5 
L 330.875776 86.902597 
L 328.355167 86.902597 
z
" style="fill:#e24a33;opacity:0.2;"/>
   </g>
   <g id="patch_71">
    <path clip-path="url(#p900818927f)" d="M 331.505929 157.5 
L 334.026539 157.5 
L 334.026539 110.435065 
L 331.505929 110.435065 
z
" style="fill:#e24a33;opacity:0.2;"/>
   </g>
   <g id="patch_72">
    <path clip-path="url(#p900818927f)" d="M 334.656691 157.5 
L 337.177301 157.5 
L 337.177301 122.201299 
L 334.656691 122.201299 
z
" style="fill:#e24a33;opacity:0.2;"/>
   </g>
   <g id="patch_73">
    <path clip-path="url(#p900818927f)" d="M 337.807453 157.5 
L 340.328063 157.5 
L 340.328063 110.435065 
L 337.807453 110.435065 
z
" style="fill:#e24a33;opacity:0.2;"/>
   </g>
   <g id="patch_74">
    <path clip-path="url(#p900818927f)" d="M 340.958216 157.5 
L 343.478826 157.5 
L 343.478826 98.668831 
L 340.958216 98.668831 
z
" style="fill:#e24a33;opacity:0.2;"/>
   </g>
   <g id="patch_75">
    <path clip-path="url(#p900818927f)" d="M 344.108978 157.5 
L 346.629588 157.5 
L 346.629588 122.201299 
L 344.108978 122.201299 
z
" style="fill:#e24a33;opacity:0.2;"/>
   </g>
   <g id="patch_76">
    <path clip-path="url(#p900818927f)" d="M 347.25974 157.5 
L 349.78035 157.5 
L 349.78035 86.902597 
L 347.25974 86.902597 
z
" style="fill:#e24a33;opacity:0.2;"/>
   </g>
   <g id="patch_77">
    <path clip-path="url(#p900818927f)" d="M 350.410503 157.5 
L 352.931112 157.5 
L 352.931112 122.201299 
L 350.410503 122.201299 
z
" style="fill:#e24a33;opacity:0.2;"/>
   </g>
   <g id="patch_78">
    <path clip-path="url(#p900818927f)" d="M 353.561265 157.5 
L 356.081875 157.5 
L 356.081875 86.902597 
L 353.561265 86.902597 
z
" style="fill:#e24a33;opacity:0.2;"/>
   </g>
   <g id="patch_79">
    <path clip-path="url(#p900818927f)" d="M 356.712027 157.5 
L 359.232637 157.5 
L 359.232637 63.37013 
L 356.712027 63.37013 
z
" style="fill:#e24a33;opacity:0.2;"/>
   </g>
   <g id="patch_80">
    <path clip-path="url(#p900818927f)" d="M 359.862789 157.5 
L 362.383399 157.5 
L 362.383399 110.435065 
L 359.862789 110.435065 
z
" style="fill:#e24a33;opacity:0.2;"/>
   </g>
   <g id="patch_81">
    <path clip-path="url(#p900818927f)" d="M 363.013552 157.5 
L 365.534161 157.5 
L 365.534161 110.435065 
L 363.013552 110.435065 
z
" style="fill:#e24a33;opacity:0.2;"/>
   </g>
   <g id="patch_82">
    <path clip-path="url(#p900818927f)" d="M 366.164314 157.5 
L 368.684924 157.5 
L 368.684924 122.201299 
L 366.164314 122.201299 
z
" style="fill:#e24a33;opacity:0.2;"/>
   </g>
   <g id="patch_83">
    <path clip-path="url(#p900818927f)" d="M 369.315076 157.5 
L 371.835686 157.5 
L 371.835686 122.201299 
L 369.315076 122.201299 
z
" style="fill:#e24a33;opacity:0.2;"/>
   </g>
   <g id="patch_84">
    <path clip-path="url(#p900818927f)" d="M 372.465839 157.5 
L 374.986448 157.5 
L 374.986448 122.201299 
L 372.465839 122.201299 
z
" style="fill:#e24a33;opacity:0.2;"/>
   </g>
   <g id="patch_85">
    <path clip-path="url(#p900818927f)" d="M 375.616601 157.5 
L 378.137211 157.5 
L 378.137211 98.668831 
L 375.616601 98.668831 
z
" style="fill:#e24a33;opacity:0.2;"/>
   </g>
   <g id="patch_86">
    <path clip-path="url(#p900818927f)" d="M 378.767363 157.5 
L 381.287973 157.5 
L 381.287973 122.201299 
L 378.767363 122.201299 
z
" style="fill:#e24a33;opacity:0.2;"/>
   </g>
   <g id="patch_87">
    <path clip-path="url(#p900818927f)" d="M 381.918125 157.5 
L 384.438735 157.5 
L 384.438735 110.435065 
L 381.918125 110.435065 
z
" style="fill:#e24a33;opacity:0.2;"/>
   </g>
   <g id="patch_88">
    <path clip-path="url(#p900818927f)" d="M 385.068888 157.5 
L 387.589497 157.5 
L 387.589497 145.733766 
L 385.068888 145.733766 
z
" style="fill:#e24a33;opacity:0.2;"/>
   </g>
   <g id="patch_89">
    <path clip-path="url(#p900818927f)" d="M 388.21965 157.5 
L 390.74026 157.5 
L 390.74026 133.967532 
L 388.21965 133.967532 
z
" style="fill:#e24a33;opacity:0.2;"/>
   </g>
   <g id="patch_90">
    <path clip-path="url(#p900818927f)" d="M 391.370412 157.5 
L 393.891022 157.5 
L 393.891022 133.967532 
L 391.370412 133.967532 
z
" style="fill:#e24a33;opacity:0.2;"/>
   </g>
   <g id="patch_91">
    <path clip-path="url(#p900818927f)" d="M 394.521174 157.5 
L 397.041784 157.5 
L 397.041784 133.967532 
L 394.521174 133.967532 
z
" style="fill:#e24a33;opacity:0.2;"/>
   </g>
   <g id="patch_92">
    <path clip-path="url(#p900818927f)" d="M 397.671937 157.5 
L 400.192547 157.5 
L 400.192547 145.733766 
L 397.671937 145.733766 
z
" style="fill:#e24a33;opacity:0.2;"/>
   </g>
   <g id="patch_93">
    <path clip-path="url(#p900818927f)" d="M 400.822699 157.5 
L 403.343309 157.5 
L 403.343309 145.733766 
L 400.822699 145.733766 
z
" style="fill:#e24a33;opacity:0.2;"/>
   </g>
   <g id="patch_94">
    <path clip-path="url(#p900818927f)" d="M 403.973461 157.5 
L 406.494071 157.5 
L 406.494071 133.967532 
L 403.973461 133.967532 
z
" style="fill:#e24a33;opacity:0.2;"/>
   </g>
   <g id="patch_95">
    <path clip-path="url(#p900818927f)" d="M 407.124224 157.5 
L 409.644833 157.5 
L 409.644833 157.5 
L 407.124224 157.5 
z
" style="fill:#e24a33;opacity:0.2;"/>
   </g>
   <g id="patch_96">
    <path clip-path="url(#p900818927f)" d="M 410.274986 157.5 
L 412.795596 157.5 
L 412.795596 133.967532 
L 410.274986 133.967532 
z
" style="fill:#e24a33;opacity:0.2;"/>
   </g>
   <g id="patch_97">
    <path clip-path="url(#p900818927f)" d="M 413.425748 157.5 
L 415.946358 157.5 
L 415.946358 145.733766 
L 413.425748 145.733766 
z
" style="fill:#e24a33;opacity:0.2;"/>
   </g>
   <g id="patch_98">
    <path clip-path="url(#p900818927f)" d="M 416.57651 157.5 
L 419.09712 157.5 
L 419.09712 145.733766 
L 416.57651 145.733766 
z
" style="fill:#e24a33;opacity:0.2;"/>
   </g>
   <g id="patch_99">
    <path clip-path="url(#p900818927f)" d="M 419.727273 157.5 
L 422.247883 157.5 
L 422.247883 133.967532 
L 419.727273 133.967532 
z
" style="fill:#e24a33;opacity:0.2;"/>
   </g>
   <g id="patch_100">
    <path clip-path="url(#p900818927f)" d="M 422.878035 157.5 
L 425.398645 157.5 
L 425.398645 145.733766 
L 422.878035 145.733766 
z
" style="fill:#e24a33;opacity:0.2;"/>
   </g>
   <g id="patch_101">
    <path clip-path="url(#p900818927f)" d="M 426.028797 157.5 
L 428.549407 157.5 
L 428.549407 145.733766 
L 426.028797 145.733766 
z
" style="fill:#e24a33;opacity:0.2;"/>
   </g>
   <g id="patch_102">
    <path clip-path="url(#p900818927f)" d="M 429.17956 157.5 
L 431.700169 157.5 
L 431.700169 133.967532 
L 429.17956 133.967532 
z
" style="fill:#e24a33;opacity:0.2;"/>
   </g>
   <g id="patch_103">
    <path clip-path="url(#p900818927f)" d="M 432.330322 157.5 
L 434.850932 157.5 
L 434.850932 157.5 
L 432.330322 157.5 
z
" style="fill:#e24a33;opacity:0.2;"/>
   </g>
   <g id="patch_104">
    <path clip-path="url(#p900818927f)" d="M 435.481084 157.5 
L 438.001694 157.5 
L 438.001694 133.967532 
L 435.481084 133.967532 
z
" style="fill:#e24a33;opacity:0.2;"/>
   </g>
   <g id="patch_105">
    <path clip-path="url(#p900818927f)" d="M 438.631846 157.5 
L 441.152456 157.5 
L 441.152456 133.967532 
L 438.631846 133.967532 
z
" style="fill:#e24a33;opacity:0.2;"/>
   </g>
   <g id="patch_106">
    <path clip-path="url(#p900818927f)" d="M 441.782609 157.5 
L 444.303219 157.5 
L 444.303219 145.733766 
L 441.782609 145.733766 
z
" style="fill:#e24a33;opacity:0.2;"/>
   </g>
   <g id="patch_107">
    <path clip-path="url(#p900818927f)" d="M 444.933371 157.5 
L 447.453981 157.5 
L 447.453981 145.733766 
L 444.933371 145.733766 
z
" style="fill:#e24a33;opacity:0.2;"/>
   </g>
   <g id="patch_108">
    <path clip-path="url(#p900818927f)" d="M 448.084133 157.5 
L 450.604743 157.5 
L 450.604743 157.5 
L 448.084133 157.5 
z
" style="fill:#e24a33;opacity:0.2;"/>
   </g>
   <g id="patch_109">
    <path clip-path="url(#p900818927f)" d="M 451.234896 157.5 
L 453.755505 157.5 
L 453.755505 157.5 
L 451.234896 157.5 
z
" style="fill:#e24a33;opacity:0.2;"/>
   </g>
   <g id="patch_110">
    <path clip-path="url(#p900818927f)" d="M 454.385658 157.5 
L 456.906268 157.5 
L 456.906268 157.5 
L 454.385658 157.5 
z
" style="fill:#e24a33;opacity:0.2;"/>
   </g>
   <g id="patch_111">
    <path clip-path="url(#p900818927f)" d="M 457.53642 157.5 
L 460.05703 157.5 
L 460.05703 157.5 
L 457.53642 157.5 
z
" style="fill:#e24a33;opacity:0.2;"/>
   </g>
   <g id="patch_112">
    <path clip-path="url(#p900818927f)" d="M 460.687182 157.5 
L 463.207792 157.5 
L 463.207792 133.967532 
L 460.687182 133.967532 
z
" style="fill:#e24a33;opacity:0.2;"/>
   </g>
   <g id="patch_113">
    <path clip-path="url(#p900818927f)" d="M 463.837945 157.5 
L 466.358554 157.5 
L 466.358554 145.733766 
L 463.837945 145.733766 
z
" style="fill:#e24a33;opacity:0.2;"/>
   </g>
   <g id="patch_114">
    <path clip-path="url(#p900818927f)" d="M 466.988707 157.5 
L 469.509317 157.5 
L 469.509317 145.733766 
L 466.988707 145.733766 
z
" style="fill:#e24a33;opacity:0.2;"/>
   </g>
   <g id="patch_115">
    <path clip-path="url(#p900818927f)" d="M 470.139469 157.5 
L 472.660079 157.5 
L 472.660079 157.5 
L 470.139469 157.5 
z
" style="fill:#e24a33;opacity:0.2;"/>
   </g>
   <g id="patch_116">
    <path clip-path="url(#p900818927f)" d="M 473.290232 157.5 
L 475.810841 157.5 
L 475.810841 133.967532 
L 473.290232 133.967532 
z
" style="fill:#e24a33;opacity:0.2;"/>
   </g>
   <g id="patch_117">
    <path clip-path="url(#p900818927f)" d="M 476.440994 157.5 
L 478.961604 157.5 
L 478.961604 157.5 
L 476.440994 157.5 
z
" style="fill:#e24a33;opacity:0.2;"/>
   </g>
   <g id="patch_118">
    <path clip-path="url(#p900818927f)" d="M 479.591756 157.5 
L 482.112366 157.5 
L 482.112366 145.733766 
L 479.591756 145.733766 
z
" style="fill:#e24a33;opacity:0.2;"/>
   </g>
   <g id="patch_119">
    <path clip-path="url(#p900818927f)" d="M 482.742518 157.5 
L 485.263128 157.5 
L 485.263128 157.5 
L 482.742518 157.5 
z
" style="fill:#e24a33;opacity:0.2;"/>
   </g>
   <g id="patch_120">
    <path clip-path="url(#p900818927f)" d="M 485.893281 157.5 
L 488.41389 157.5 
L 488.41389 157.5 
L 485.893281 157.5 
z
" style="fill:#e24a33;opacity:0.2;"/>
   </g>
   <g id="patch_121">
    <path clip-path="url(#p900818927f)" d="M 489.044043 157.5 
L 491.564653 157.5 
L 491.564653 145.733766 
L 489.044043 145.733766 
z
" style="fill:#e24a33;opacity:0.2;"/>
   </g>
   <g id="patch_122">
    <path clip-path="url(#p900818927f)" d="M 492.194805 157.5 
L 494.715415 157.5 
L 494.715415 157.5 
L 492.194805 157.5 
z
" style="fill:#e24a33;opacity:0.2;"/>
   </g>
   <g id="patch_123">
    <path clip-path="url(#p900818927f)" d="M 495.345567 157.5 
L 497.866177 157.5 
L 497.866177 133.967532 
L 495.345567 133.967532 
z
" style="fill:#e24a33;opacity:0.2;"/>
   </g>
   <g id="patch_124">
    <path clip-path="url(#p900818927f)" d="M 498.49633 157.5 
L 501.01694 157.5 
L 501.01694 157.5 
L 498.49633 157.5 
z
" style="fill:#e24a33;opacity:0.2;"/>
   </g>
   <g id="patch_125">
    <path clip-path="url(#p900818927f)" d="M 501.647092 157.5 
L 504.167702 157.5 
L 504.167702 145.733766 
L 501.647092 145.733766 
z
" style="fill:#e24a33;opacity:0.2;"/>
   </g>
   <g id="patch_126">
    <path clip-path="url(#p900818927f)" d="M 504.797854 157.5 
L 507.318464 157.5 
L 507.318464 133.967532 
L 504.797854 133.967532 
z
" style="fill:#e24a33;opacity:0.2;"/>
   </g>
   <g id="patch_127">
    <path clip-path="url(#p900818927f)" d="M 507.948617 157.5 
L 510.469226 157.5 
L 510.469226 157.5 
L 507.948617 157.5 
z
" style="fill:#e24a33;opacity:0.2;"/>
   </g>
   <g id="patch_128">
    <path clip-path="url(#p900818927f)" d="M 511.099379 157.5 
L 513.619989 157.5 
L 513.619989 157.5 
L 511.099379 157.5 
z
" style="fill:#e24a33;opacity:0.2;"/>
   </g>
   <g id="patch_129">
    <path clip-path="url(#p900818927f)" d="M 514.250141 157.5 
L 516.770751 157.5 
L 516.770751 157.5 
L 514.250141 157.5 
z
" style="fill:#e24a33;opacity:0.2;"/>
   </g>
   <g id="patch_130">
    <path clip-path="url(#p900818927f)" d="M 517.400903 157.5 
L 519.921513 157.5 
L 519.921513 157.5 
L 517.400903 157.5 
z
" style="fill:#e24a33;opacity:0.2;"/>
   </g>
   <g id="patch_131">
    <path clip-path="url(#p900818927f)" d="M 520.551666 157.5 
L 523.072276 157.5 
L 523.072276 145.733766 
L 520.551666 145.733766 
z
" style="fill:#e24a33;opacity:0.2;"/>
   </g>
   <g id="patch_132">
    <path clip-path="url(#p900818927f)" d="M 523.702428 157.5 
L 526.223038 157.5 
L 526.223038 145.733766 
L 523.702428 145.733766 
z
" style="fill:#e24a33;opacity:0.2;"/>
   </g>
   <g id="patch_133">
    <path clip-path="url(#p900818927f)" d="M 526.85319 157.5 
L 529.3738 157.5 
L 529.3738 145.733766 
L 526.85319 145.733766 
z
" style="fill:#e24a33;opacity:0.2;"/>
   </g>
   <g id="patch_134">
    <path clip-path="url(#p900818927f)" d="M 530.003953 157.5 
L 532.524562 157.5 
L 532.524562 145.733766 
L 530.003953 145.733766 
z
" style="fill:#e24a33;opacity:0.2;"/>
   </g>
   <g id="patch_135">
    <path clip-path="url(#p900818927f)" d="M 533.154715 157.5 
L 535.675325 157.5 
L 535.675325 157.5 
L 533.154715 157.5 
z
" style="fill:#e24a33;opacity:0.2;"/>
   </g>
   <g id="patch_136">
    <path clip-path="url(#p900818927f)" d="M 536.305477 157.5 
L 538.826087 157.5 
L 538.826087 157.5 
L 536.305477 157.5 
z
" style="fill:#e24a33;opacity:0.2;"/>
   </g>
   <g id="patch_137">
    <path clip-path="url(#p900818927f)" d="M 539.456239 157.5 
L 541.976849 157.5 
L 541.976849 157.5 
L 539.456239 157.5 
z
" style="fill:#e24a33;opacity:0.2;"/>
   </g>
   <g id="patch_138">
    <path clip-path="url(#p900818927f)" d="M 542.607002 157.5 
L 545.127612 157.5 
L 545.127612 157.5 
L 542.607002 157.5 
z
" style="fill:#e24a33;opacity:0.2;"/>
   </g>
   <g id="patch_139">
    <path clip-path="url(#p900818927f)" d="M 545.757764 157.5 
L 548.278374 157.5 
L 548.278374 157.5 
L 545.757764 157.5 
z
" style="fill:#e24a33;opacity:0.2;"/>
   </g>
   <g id="patch_140">
    <path clip-path="url(#p900818927f)" d="M 548.908526 157.5 
L 551.429136 157.5 
L 551.429136 145.733766 
L 548.908526 145.733766 
z
" style="fill:#e24a33;opacity:0.2;"/>
   </g>
   <g id="patch_141">
    <path clip-path="url(#p900818927f)" d="M 552.059289 157.5 
L 554.579898 157.5 
L 554.579898 133.967532 
L 552.059289 133.967532 
z
" style="fill:#e24a33;opacity:0.2;"/>
   </g>
   <g id="patch_142">
    <path clip-path="url(#p900818927f)" d="M 555.210051 157.5 
L 557.730661 157.5 
L 557.730661 157.5 
L 555.210051 157.5 
z
" style="fill:#e24a33;opacity:0.2;"/>
   </g>
   <g id="patch_143">
    <path clip-path="url(#p900818927f)" d="M 558.360813 157.5 
L 560.881423 157.5 
L 560.881423 145.733766 
L 558.360813 145.733766 
z
" style="fill:#e24a33;opacity:0.2;"/>
   </g>
   <g id="patch_144">
    <path clip-path="url(#p900818927f)" d="M 561.511575 157.5 
L 564.032185 157.5 
L 564.032185 157.5 
L 561.511575 157.5 
z
" style="fill:#e24a33;opacity:0.2;"/>
   </g>
   <g id="patch_145">
    <path clip-path="url(#p900818927f)" d="M 564.662338 157.5 
L 567.182947 157.5 
L 567.182947 157.5 
L 564.662338 157.5 
z
" style="fill:#e24a33;opacity:0.2;"/>
   </g>
   <g id="patch_146">
    <path clip-path="url(#p900818927f)" d="M 567.8131 157.5 
L 570.33371 157.5 
L 570.33371 157.5 
L 567.8131 157.5 
z
" style="fill:#e24a33;opacity:0.2;"/>
   </g>
   <g id="patch_147">
    <path clip-path="url(#p900818927f)" d="M 570.963862 157.5 
L 573.484472 157.5 
L 573.484472 145.733766 
L 570.963862 145.733766 
z
" style="fill:#e24a33;opacity:0.2;"/>
   </g>
   <g id="patch_148">
    <path clip-path="url(#p900818927f)" d="M 574.114625 157.5 
L 576.635234 157.5 
L 576.635234 145.733766 
L 574.114625 145.733766 
z
" style="fill:#e24a33;opacity:0.2;"/>
   </g>
   <g id="patch_149">
    <path clip-path="url(#p900818927f)" d="M 577.265387 157.5 
L 579.785997 157.5 
L 579.785997 145.733766 
L 577.265387 145.733766 
z
" style="fill:#e24a33;opacity:0.2;"/>
   </g>
   <g id="patch_150">
    <path clip-path="url(#p900818927f)" d="M 580.416149 157.5 
L 582.936759 157.5 
L 582.936759 157.5 
L 580.416149 157.5 
z
" style="fill:#e24a33;opacity:0.2;"/>
   </g>
   <g id="patch_151">
    <path clip-path="url(#p900818927f)" d="M 583.566911 157.5 
L 586.087521 157.5 
L 586.087521 157.5 
L 583.566911 157.5 
z
" style="fill:#e24a33;opacity:0.2;"/>
   </g>
   <g id="patch_152">
    <path clip-path="url(#p900818927f)" d="M 586.717674 157.5 
L 589.238283 157.5 
L 589.238283 157.5 
L 586.717674 157.5 
z
" style="fill:#e24a33;opacity:0.2;"/>
   </g>
   <g id="patch_153">
    <path clip-path="url(#p900818927f)" d="M 589.868436 157.5 
L 592.389046 157.5 
L 592.389046 157.5 
L 589.868436 157.5 
z
" style="fill:#e24a33;opacity:0.2;"/>
   </g>
   <g id="patch_154">
    <path clip-path="url(#p900818927f)" d="M 593.019198 157.5 
L 595.539808 157.5 
L 595.539808 145.733766 
L 593.019198 145.733766 
z
" style="fill:#e24a33;opacity:0.2;"/>
   </g>
   <g id="patch_155">
    <path clip-path="url(#p900818927f)" d="M 596.16996 157.5 
L 598.69057 157.5 
L 598.69057 157.5 
L 596.16996 157.5 
z
" style="fill:#e24a33;opacity:0.2;"/>
   </g>
   <g id="patch_156">
    <path clip-path="url(#p900818927f)" d="M 599.320723 157.5 
L 601.841333 157.5 
L 601.841333 145.733766 
L 599.320723 145.733766 
z
" style="fill:#e24a33;opacity:0.2;"/>
   </g>
   <g id="patch_157">
    <path clip-path="url(#p900818927f)" d="M 602.471485 157.5 
L 604.992095 157.5 
L 604.992095 157.5 
L 602.471485 157.5 
z
" style="fill:#e24a33;opacity:0.2;"/>
   </g>
   <g id="patch_158">
    <path clip-path="url(#p900818927f)" d="M 605.622247 157.5 
L 608.142857 157.5 
L 608.142857 157.5 
L 605.622247 157.5 
z
" style="fill:#e24a33;opacity:0.2;"/>
   </g>
   <g id="patch_159">
    <path clip-path="url(#p900818927f)" d="M 608.77301 157.5 
L 611.293619 157.5 
L 611.293619 157.5 
L 608.77301 157.5 
z
" style="fill:#e24a33;opacity:0.2;"/>
   </g>
   <g id="patch_160">
    <path clip-path="url(#p900818927f)" d="M 611.923772 157.5 
L 614.444382 157.5 
L 614.444382 157.5 
L 611.923772 157.5 
z
" style="fill:#e24a33;opacity:0.2;"/>
   </g>
   <g id="patch_161">
    <path clip-path="url(#p900818927f)" d="M 615.074534 157.5 
L 617.595144 157.5 
L 617.595144 157.5 
L 615.074534 157.5 
z
" style="fill:#e24a33;opacity:0.2;"/>
   </g>
   <g id="patch_162">
    <path clip-path="url(#p900818927f)" d="M 618.225296 157.5 
L 620.745906 157.5 
L 620.745906 157.5 
L 618.225296 157.5 
z
" style="fill:#e24a33;opacity:0.2;"/>
   </g>
   <g id="patch_163">
    <path clip-path="url(#p900818927f)" d="M 621.376059 157.5 
L 623.896669 157.5 
L 623.896669 157.5 
L 621.376059 157.5 
z
" style="fill:#e24a33;opacity:0.2;"/>
   </g>
   <g id="line2d_31">
    <path clip-path="url(#p900818927f)" d="M 118.514399 157.5 
L 187.831169 157.5 
L 190.981931 157.337803 
L 194.132693 156.890244 
L 197.283456 156.220999 
L 200.434218 154.77146 
L 203.58498 152.618375 
L 206.735743 149.761115 
L 209.886505 146.274506 
L 213.037267 143.014843 
L 216.188029 140.388874 
L 219.338792 138.518675 
L 222.489554 137.656019 
L 225.640316 135.915202 
L 228.791078 133.95374 
L 231.941841 130.752378 
L 238.243365 123.008626 
L 241.394128 118.598399 
L 244.54489 114.721087 
L 247.695652 111.592175 
L 250.846414 110.249049 
L 253.997177 110.622446 
L 257.147939 111.255128 
L 260.298701 112.387208 
L 263.449464 112.546824 
L 266.600226 112.462208 
L 269.750988 113.490386 
L 272.90175 114.160756 
L 276.052513 115.556995 
L 279.203275 115.678436 
L 282.354037 115.409297 
L 285.5048 114.209563 
L 291.806324 107.66363 
L 294.957086 102.973689 
L 298.107849 98.003491 
L 301.258611 94.577424 
L 304.409373 90.793527 
L 307.560136 88.688658 
L 310.710898 87.116655 
L 313.86166 85.720955 
L 320.163185 85.208079 
L 323.313947 86.743389 
L 326.464709 89.117384 
L 329.615471 92.298987 
L 332.766234 96.474864 
L 335.916996 100.14571 
L 339.067758 103.381169 
L 342.218521 104.973097 
L 345.369283 104.897298 
L 348.520045 103.444798 
L 351.670807 101.609654 
L 354.82157 100.836872 
L 357.972332 101.232648 
L 361.123094 102.933908 
L 364.273857 105.275305 
L 367.424619 107.960139 
L 373.726143 114.585668 
L 376.876906 117.785791 
L 380.027668 120.660831 
L 383.17843 123.215883 
L 386.329193 126.197548 
L 389.479955 129.531704 
L 392.630717 133.05742 
L 395.781479 136.280925 
L 398.932242 138.760345 
L 402.083004 140.54693 
L 405.233766 141.639701 
L 408.384529 142.326327 
L 411.535291 142.773887 
L 420.987578 142.648332 
L 430.439864 142.087261 
L 433.590627 142.297528 
L 436.741389 142.858599 
L 439.892151 143.933286 
L 446.193676 147.234452 
L 449.344438 148.765177 
L 452.4952 149.902365 
L 455.645963 150.425109 
L 458.796725 150.455096 
L 461.947487 149.878279 
L 468.249012 148.168602 
L 471.399774 147.940964 
L 474.550536 148.309764 
L 480.852061 150.028482 
L 484.002823 150.575263 
L 487.153586 150.812478 
L 493.45511 149.905316 
L 499.756635 148.724335 
L 502.907397 148.918906 
L 506.058159 149.368843 
L 509.208922 150.196631 
L 512.359684 150.878008 
L 518.661208 151.343563 
L 524.962733 151.058762 
L 528.113495 151.112785 
L 531.264257 151.383155 
L 537.565782 152.682053 
L 540.716544 153.08393 
L 543.867307 152.985411 
L 553.319593 151.226911 
L 556.470356 150.950589 
L 559.621118 150.929643 
L 562.77188 151.055812 
L 575.374929 152.183907 
L 578.525692 152.307074 
L 587.977979 153.276815 
L 591.128741 153.708679 
L 597.430265 154.144196 
L 603.73179 154.576762 
L 610.033315 155.793228 
L 613.184077 156.492366 
L 616.334839 157.038445 
L 619.485601 157.326904 
L 622.636364 157.5 
L 622.636364 157.5 
" style="fill:none;stroke:#e24a33;stroke-linecap:square;stroke-width:3;"/>
   </g>
   <g id="patch_164">
    <path d="M 90 157.5 
L 90 21.6 
" style="fill:none;stroke:#ffffff;stroke-linecap:square;stroke-linejoin:miter;"/>
   </g>
   <g id="patch_165">
    <path d="M 648 157.5 
L 648 21.6 
" style="fill:none;stroke:#ffffff;stroke-linecap:square;stroke-linejoin:miter;"/>
   </g>
   <g id="patch_166">
    <path d="M 90 157.5 
L 648 157.5 
" style="fill:none;stroke:#ffffff;stroke-linecap:square;stroke-linejoin:miter;"/>
   </g>
   <g id="patch_167">
    <path d="M 90 21.6 
L 648 21.6 
" style="fill:none;stroke:#ffffff;stroke-linecap:square;stroke-linejoin:miter;"/>
   </g>
   <g id="legend_1">
    <g id="patch_168">
     <path d="M 419 57.35 
L 641 57.35 
Q 643 57.35 643 55.35 
L 643 28.6 
Q 643 26.6 641 26.6 
L 419 26.6 
Q 417 26.6 417 28.6 
L 417 55.35 
Q 417 57.35 419 57.35 
z
" style="fill:#e5e5e5;opacity:0.8;stroke:#cccccc;stroke-linejoin:miter;stroke-width:0.5;"/>
    </g>
    <g id="line2d_32">
     <path d="M 421 34.45 
L 441 34.45 
" style="fill:none;stroke:#e24a33;stroke-linecap:square;stroke-width:3;"/>
    </g>
    <g id="line2d_33"/>
    <g id="text_20">
     <!-- Korea, South new deaths (rolling mean) -->
     <defs>
      <path d="M 16.59375 31.203125 
L 11.703125 25.796875 
L 11.703125 0 
L 4.203125 0 
L 4.203125 62.296875 
L 12.59375 62.296875 
L 12.59375 61.59375 
Q 12 61 11.84375 60.296875 
Q 11.703125 59.59375 11.703125 57.90625 
L 11.703125 33.59375 
L 37.703125 62.796875 
Q 38.796875 62.59375 40.09375 62.4375 
Q 41.40625 62.296875 42.90625 62.296875 
L 45.5 62.296875 
L 21.90625 35.40625 
L 47.09375 0 
L 38.09375 -0.40625 
z
" id="Inconsolata-Regular-75"/>
      <path d="M 25 -0.796875 
Q 18.796875 -0.796875 14.046875 2.25 
Q 9.296875 5.296875 6.59375 10.640625 
Q 3.90625 16 3.90625 22.90625 
Q 3.90625 29.90625 6.59375 35.25 
Q 9.296875 40.59375 14.046875 43.640625 
Q 18.796875 46.703125 25 46.703125 
Q 31.203125 46.703125 35.953125 43.640625 
Q 40.703125 40.59375 43.390625 35.25 
Q 46.09375 29.90625 46.09375 22.90625 
Q 46.09375 16 43.390625 10.640625 
Q 40.703125 5.296875 35.953125 2.25 
Q 31.203125 -0.796875 25 -0.796875 
z
M 25 5.203125 
Q 29 5.203125 32 7.5 
Q 35 9.796875 36.75 13.796875 
Q 38.5 17.796875 38.5 23 
Q 38.5 30.796875 34.703125 35.75 
Q 30.90625 40.703125 25 40.703125 
Q 19.09375 40.703125 15.296875 35.75 
Q 11.5 30.796875 11.5 23 
Q 11.5 17.796875 13.25 13.796875 
Q 15 9.796875 18.046875 7.5 
Q 21.09375 5.203125 25 5.203125 
z
" id="Inconsolata-Regular-111"/>
      <path d="M 11.90625 45.703125 
L 19.40625 45.703125 
L 19.203125 37.296875 
Q 21.09375 41.90625 25.09375 44.34375 
Q 29.09375 46.796875 33.703125 46.796875 
Q 41 46.796875 45.796875 41.796875 
L 42.59375 36.203125 
L 42.203125 35.296875 
L 41.5 35.703125 
Q 41.296875 36.5 40.890625 37.203125 
Q 40.5 37.90625 39.203125 38.90625 
Q 37.59375 39.90625 36.25 40.25 
Q 34.90625 40.59375 33.203125 40.59375 
Q 29.90625 40.59375 26.65625 38.890625 
Q 23.40625 37.203125 21.296875 33.59375 
Q 19.203125 30 19.203125 24.203125 
L 19.203125 -0.09375 
L 11.90625 -0.09375 
z
" id="Inconsolata-Regular-114"/>
      <path d="M 19.90625 -16.796875 
L 16.5 -13.796875 
Q 19.296875 -11.203125 21.140625 -8.203125 
Q 23 -5.203125 23 -3.296875 
Q 23 -1.90625 21.75 -0.84375 
Q 20.5 0.203125 19.203125 1.390625 
Q 17.90625 2.59375 17.90625 4.40625 
Q 17.90625 6.90625 19.546875 8.59375 
Q 21.203125 10.296875 23.796875 10.296875 
Q 26.40625 10.296875 28.5 8 
Q 30.59375 5.703125 30.59375 2 
Q 30.59375 -5.796875 19.90625 -16.796875 
z
" id="Inconsolata-Regular-44"/>
      <path d="M 24.703125 -1 
Q 12.59375 -1 5.203125 6.90625 
L 8.796875 13.203125 
L 9.203125 14.09375 
L 9.90625 13.703125 
Q 10.09375 13 10.390625 12.140625 
Q 10.703125 11.296875 11.796875 10.09375 
Q 14.40625 7.90625 17.84375 6.59375 
Q 21.296875 5.296875 25.703125 5.296875 
Q 31.296875 5.296875 34.9375 8.4375 
Q 38.59375 11.59375 38.59375 16 
Q 38.59375 18.90625 37.4375 20.90625 
Q 36.296875 22.90625 33.25 24.796875 
Q 30.203125 26.703125 24.296875 29.203125 
Q 14.59375 33 10.890625 37.703125 
Q 7.203125 42.40625 7.203125 47.703125 
Q 7.203125 54.59375 12.296875 58.84375 
Q 17.40625 63.09375 26.203125 63.09375 
Q 31.296875 63.09375 35.796875 61.046875 
Q 40.296875 59 43.5 55.296875 
L 39 49.296875 
L 38.40625 49.703125 
Q 38.296875 50.5 38 51.296875 
Q 37.703125 52.09375 36.59375 53.296875 
Q 34.203125 55.59375 31.5 56.4375 
Q 28.796875 57.296875 25.09375 57.296875 
Q 20.203125 57.296875 17.296875 54.59375 
Q 14.40625 51.90625 14.40625 48.203125 
Q 14.40625 45.40625 15.65625 43.25 
Q 16.90625 41.09375 20.203125 39 
Q 23.5 36.90625 29.796875 34.40625 
Q 35.90625 31.90625 39.296875 29.34375 
Q 42.703125 26.796875 44.09375 23.84375 
Q 45.5 20.90625 45.5 17 
Q 45.5 12.703125 43.34375 8.546875 
Q 41.203125 4.40625 36.59375 1.703125 
Q 32 -1 24.703125 -1 
z
" id="Inconsolata-Regular-83"/>
      <path d="M 22.09375 -1.09375 
Q 15.296875 -1.09375 10.796875 4 
Q 6.296875 9.09375 6.40625 20.203125 
L 6.5 45.703125 
L 13.5 45.703125 
L 13.5 20.203125 
Q 13.5 11.5 16.546875 8.09375 
Q 19.59375 4.703125 23.90625 4.703125 
Q 27.09375 4.703125 29.890625 6.390625 
Q 32.703125 8.09375 34.453125 11.59375 
Q 36.203125 15.09375 36.203125 20.5 
L 36.203125 45.703125 
L 43.203125 45.703125 
L 43.203125 7.09375 
Q 43.203125 5.296875 43.34375 3.546875 
Q 43.5 1.796875 44.203125 0 
L 37.296875 0 
Q 36.59375 1.703125 36.4375 3.5 
Q 36.296875 5.296875 36.296875 7 
Q 34.09375 3.203125 30.34375 1.046875 
Q 26.59375 -1.09375 22.09375 -1.09375 
z
" id="Inconsolata-Regular-117"/>
      <path d="M 29.90625 -0.703125 
Q 24 -0.703125 20.953125 2 
Q 17.90625 4.703125 16.90625 10.34375 
Q 15.90625 16 16.203125 24.796875 
L 16.796875 39.796875 
L 7 39.796875 
L 7 45.703125 
L 17 45.703125 
L 17.40625 57.40625 
L 24.90625 58.296875 
L 25.90625 58.40625 
L 26 57.703125 
Q 25.5 57 25.140625 56.296875 
Q 24.796875 55.59375 24.59375 53.90625 
L 23.90625 45.703125 
L 39.90625 45.703125 
L 39.90625 39.796875 
L 24 39.796875 
L 23.296875 24.296875 
Q 23 16.703125 23.703125 12.546875 
Q 24.40625 8.40625 26.203125 6.84375 
Q 28 5.296875 31 5.296875 
Q 34.296875 5.296875 36.84375 6.59375 
Q 39.40625 7.90625 42.203125 9.90625 
L 44.40625 4.203125 
Q 41 1.703125 37.390625 0.5 
Q 33.796875 -0.703125 29.90625 -0.703125 
z
" id="Inconsolata-Regular-116"/>
      <path d="M 10.796875 -0.09375 
L 1.59375 45.703125 
L 7.90625 45.703125 
L 15.296875 9 
L 23.09375 41.40625 
L 27.5 41.40625 
L 37.203125 9.09375 
Q 38.5 18 39.34375 23.703125 
Q 40.203125 29.40625 40.640625 33.046875 
Q 41.09375 36.703125 41.25 39.203125 
Q 41.40625 41.703125 41.40625 44.203125 
L 41.40625 45.703125 
L 48.09375 45.703125 
Q 45.09375 22.5 40.5 -0.09375 
L 33.703125 -0.09375 
L 25.296875 29.5 
L 17.296875 -0.09375 
z
" id="Inconsolata-Regular-119"/>
      <path d="M 25.09375 -1 
Q 13.5 -1 5.703125 6.203125 
L 9.703125 13 
L 10.296875 13.90625 
L 10.90625 13.5 
Q 11.09375 12.703125 11.34375 11.84375 
Q 11.59375 11 12.703125 9.796875 
Q 14.796875 7.703125 17.75 6.34375 
Q 20.703125 5 25.296875 5 
Q 30.796875 5 33.84375 6.953125 
Q 36.90625 8.90625 36.90625 12.296875 
Q 36.90625 15.203125 34.34375 17.09375 
Q 31.796875 19 25.40625 21.09375 
Q 17.5 23.40625 12.84375 26.796875 
Q 8.203125 30.203125 8.203125 35.296875 
Q 8.203125 40.5 12.453125 43.640625 
Q 16.703125 46.796875 25 46.796875 
Q 31.40625 46.796875 35.59375 45 
Q 39.796875 43.203125 43.203125 39.59375 
L 39.09375 34.59375 
L 38.40625 33.796875 
L 37.90625 34.296875 
Q 37.796875 35.09375 37.4375 35.84375 
Q 37.09375 36.59375 36 37.703125 
Q 33.703125 39.5 30.796875 40.453125 
Q 27.90625 41.40625 25.203125 41.40625 
Q 21.203125 41.40625 18.296875 40 
Q 15.40625 38.59375 15.40625 35.703125 
Q 15.40625 34.203125 16.453125 32.75 
Q 17.5 31.296875 20.296875 29.84375 
Q 23.09375 28.40625 28.296875 26.90625 
Q 36.90625 24.296875 40.453125 21.25 
Q 44 18.203125 44 13.296875 
Q 44 9.5 41.953125 6.203125 
Q 39.90625 2.90625 35.703125 0.953125 
Q 31.5 -1 25.09375 -1 
z
" id="Inconsolata-Regular-115"/>
      <path d="M 39.5 -10.40625 
Q 31.203125 -6.5 25.046875 0.046875 
Q 18.90625 6.59375 15.546875 14.84375 
Q 12.203125 23.09375 12.203125 32 
Q 12.203125 40.90625 15.5 48.953125 
Q 18.796875 57 24.796875 63.34375 
Q 30.796875 69.703125 38.90625 73.5 
L 40.796875 67.296875 
Q 34.40625 63.796875 29.546875 58.296875 
Q 24.703125 52.796875 22 46 
Q 19.296875 39.203125 19.296875 31.703125 
Q 19.296875 24.203125 22 17.296875 
Q 24.703125 10.40625 29.703125 4.796875 
Q 34.703125 -0.796875 41.40625 -4.40625 
z
" id="Inconsolata-Regular-40"/>
      <path d="M 3.796875 0 
L 3.796875 45.703125 
L 10.40625 45.703125 
L 10.40625 41.203125 
Q 12 43.703125 14.5 45.25 
Q 17 46.796875 19.703125 46.796875 
Q 22.703125 46.796875 24.953125 44.890625 
Q 27.203125 43 27.796875 40.09375 
Q 29.09375 43.09375 31.890625 44.9375 
Q 34.703125 46.796875 38.09375 46.796875 
Q 42.796875 46.796875 44.9375 43.4375 
Q 47.09375 40.09375 46.90625 35.09375 
L 46.90625 0 
L 40.296875 0 
L 40.296875 32.40625 
Q 40.296875 36.59375 39.75 38.5 
Q 39.203125 40.40625 38.203125 40.953125 
Q 37.203125 41.5 36 41.5 
Q 34.09375 41.5 32.4375 39.75 
Q 30.796875 38 29.75 35.390625 
Q 28.703125 32.796875 28.703125 30.203125 
L 28.703125 0 
L 22 0 
L 22 31.796875 
Q 22 37.5 20.953125 39.390625 
Q 19.90625 41.296875 17 41.296875 
Q 14.796875 41.296875 12.59375 38.4375 
Q 10.40625 35.59375 10.40625 30.5 
L 10.40625 0 
z
" id="Inconsolata-Regular-109"/>
      <path d="M 13.25 -10.40625 
Q 21.546875 -6.5 27.6875 0.046875 
Q 33.84375 6.59375 37.1875 14.84375 
Q 40.546875 23.09375 40.546875 32 
Q 40.546875 40.90625 37.25 48.953125 
Q 33.953125 57 27.953125 63.34375 
Q 21.953125 69.703125 13.84375 73.5 
L 11.953125 67.296875 
Q 18.34375 63.796875 23.1875 58.296875 
Q 28.046875 52.796875 30.75 46 
Q 33.453125 39.203125 33.453125 31.703125 
Q 33.453125 24.203125 30.75 17.296875 
Q 28.046875 10.40625 23.046875 4.796875 
Q 18.046875 -0.796875 11.34375 -4.40625 
z
" id="Inconsolata-Regular-41"/>
     </defs>
     <g transform="translate(449 37.95)scale(0.1 -0.1)">
      <use xlink:href="#Inconsolata-Regular-75"/>
      <use x="49.999985" xlink:href="#Inconsolata-Regular-111"/>
      <use x="99.999969" xlink:href="#Inconsolata-Regular-114"/>
      <use x="149.999954" xlink:href="#Inconsolata-Regular-101"/>
      <use x="199.999939" xlink:href="#Inconsolata-Regular-97"/>
      <use x="249.999924" xlink:href="#Inconsolata-Regular-44"/>
      <use x="299.999908" xlink:href="#Inconsolata-Regular-32"/>
      <use x="349.999893" xlink:href="#Inconsolata-Regular-83"/>
      <use x="399.999878" xlink:href="#Inconsolata-Regular-111"/>
      <use x="449.999863" xlink:href="#Inconsolata-Regular-117"/>
      <use x="499.999847" xlink:href="#Inconsolata-Regular-116"/>
      <use x="549.999832" xlink:href="#Inconsolata-Regular-104"/>
      <use x="599.999817" xlink:href="#Inconsolata-Regular-32"/>
      <use x="649.999802" xlink:href="#Inconsolata-Regular-110"/>
      <use x="699.999786" xlink:href="#Inconsolata-Regular-101"/>
      <use x="749.999771" xlink:href="#Inconsolata-Regular-119"/>
      <use x="799.999756" xlink:href="#Inconsolata-Regular-32"/>
      <use x="849.999741" xlink:href="#Inconsolata-Regular-100"/>
      <use x="899.999725" xlink:href="#Inconsolata-Regular-101"/>
      <use x="949.99971" xlink:href="#Inconsolata-Regular-97"/>
      <use x="999.999695" xlink:href="#Inconsolata-Regular-116"/>
      <use x="1049.99968" xlink:href="#Inconsolata-Regular-104"/>
      <use x="1099.999664" xlink:href="#Inconsolata-Regular-115"/>
      <use x="1149.999649" xlink:href="#Inconsolata-Regular-32"/>
      <use x="1199.999634" xlink:href="#Inconsolata-Regular-40"/>
      <use x="1249.999619" xlink:href="#Inconsolata-Regular-114"/>
      <use x="1299.999603" xlink:href="#Inconsolata-Regular-111"/>
      <use x="1349.999588" xlink:href="#Inconsolata-Regular-108"/>
      <use x="1399.999573" xlink:href="#Inconsolata-Regular-108"/>
      <use x="1449.999557" xlink:href="#Inconsolata-Regular-105"/>
      <use x="1499.999542" xlink:href="#Inconsolata-Regular-110"/>
      <use x="1549.999527" xlink:href="#Inconsolata-Regular-103"/>
      <use x="1599.999512" xlink:href="#Inconsolata-Regular-32"/>
      <use x="1649.999496" xlink:href="#Inconsolata-Regular-109"/>
      <use x="1699.999481" xlink:href="#Inconsolata-Regular-101"/>
      <use x="1749.999466" xlink:href="#Inconsolata-Regular-97"/>
      <use x="1799.999451" xlink:href="#Inconsolata-Regular-110"/>
      <use x="1849.999435" xlink:href="#Inconsolata-Regular-41"/>
     </g>
    </g>
    <g id="patch_169">
     <path d="M 421 51.670312 
L 441 51.670312 
L 441 44.670312 
L 421 44.670312 
z
" style="fill:#e24a33;opacity:0.2;"/>
    </g>
    <g id="text_21">
     <!-- Korea, South new deaths -->
     <g transform="translate(449 51.670312)scale(0.1 -0.1)">
      <use xlink:href="#Inconsolata-Regular-75"/>
      <use x="49.999985" xlink:href="#Inconsolata-Regular-111"/>
      <use x="99.999969" xlink:href="#Inconsolata-Regular-114"/>
      <use x="149.999954" xlink:href="#Inconsolata-Regular-101"/>
      <use x="199.999939" xlink:href="#Inconsolata-Regular-97"/>
      <use x="249.999924" xlink:href="#Inconsolata-Regular-44"/>
      <use x="299.999908" xlink:href="#Inconsolata-Regular-32"/>
      <use x="349.999893" xlink:href="#Inconsolata-Regular-83"/>
      <use x="399.999878" xlink:href="#Inconsolata-Regular-111"/>
      <use x="449.999863" xlink:href="#Inconsolata-Regular-117"/>
      <use x="499.999847" xlink:href="#Inconsolata-Regular-116"/>
      <use x="549.999832" xlink:href="#Inconsolata-Regular-104"/>
      <use x="599.999817" xlink:href="#Inconsolata-Regular-32"/>
      <use x="649.999802" xlink:href="#Inconsolata-Regular-110"/>
      <use x="699.999786" xlink:href="#Inconsolata-Regular-101"/>
      <use x="749.999771" xlink:href="#Inconsolata-Regular-119"/>
      <use x="799.999756" xlink:href="#Inconsolata-Regular-32"/>
      <use x="849.999741" xlink:href="#Inconsolata-Regular-100"/>
      <use x="899.999725" xlink:href="#Inconsolata-Regular-101"/>
      <use x="949.99971" xlink:href="#Inconsolata-Regular-97"/>
      <use x="999.999695" xlink:href="#Inconsolata-Regular-116"/>
      <use x="1049.99968" xlink:href="#Inconsolata-Regular-104"/>
      <use x="1099.999664" xlink:href="#Inconsolata-Regular-115"/>
     </g>
    </g>
   </g>
  </g>
 </g>
 <defs>
  <clipPath id="p900818927f">
   <rect height="135.9" width="558" x="90" y="21.6"/>
  </clipPath>
 </defs>
</svg>
