<?xml version="1.0" encoding="utf-8" standalone="no"?>
<!DOCTYPE svg PUBLIC "-//W3C//DTD SVG 1.1//EN"
  "http://www.w3.org/Graphics/SVG/1.1/DTD/svg11.dtd">
<!-- Created with matplotlib (https://matplotlib.org/) -->
<svg height="180pt" version="1.1" viewBox="0 0 720 180" width="720pt" xmlns="http://www.w3.org/2000/svg" xmlns:xlink="http://www.w3.org/1999/xlink">
 <defs>
  <style type="text/css">
*{stroke-linecap:butt;stroke-linejoin:round;}
  </style>
 </defs>
 <g id="figure_1">
  <g id="patch_1">
   <path d="M 0 180 
L 720 180 
L 720 0 
L 0 0 
z
" style="fill:#ffffff;"/>
  </g>
  <g id="axes_1">
   <g id="patch_2">
    <path d="M 90 157.5 
L 648 157.5 
L 648 21.6 
L 90 21.6 
z
" style="fill:#e5e5e5;"/>
   </g>
   <g id="matplotlib.axis_1">
    <g id="xtick_1">
     <g id="line2d_1">
      <path clip-path="url(#p566a482be0)" d="M 145.379774 157.5 
L 145.379774 21.6 
" style="fill:none;stroke:#ffffff;stroke-linecap:square;stroke-width:0.8;"/>
     </g>
     <g id="line2d_2">
      <defs>
       <path d="M 0 0 
L 0 3.5 
" id="mf76d720774" style="stroke:#555555;stroke-width:0.8;"/>
      </defs>
      <g>
       <use style="fill:#555555;stroke:#555555;stroke-width:0.8;" x="145.379774" xlink:href="#mf76d720774" y="157.5"/>
      </g>
     </g>
     <g id="text_1">
      <!-- 2020-02 -->
      <defs>
       <path d="M 7.296875 5.59375 
Q 14 12.5 19.390625 17.84375 
Q 24.796875 23.203125 28.59375 27.640625 
Q 32.40625 32.09375 34.40625 36.296875 
Q 36.40625 40.5 36.40625 45.09375 
Q 36.40625 51.59375 33.296875 54.09375 
Q 30.203125 56.59375 25.796875 56.59375 
Q 22.203125 56.59375 19.046875 55.046875 
Q 15.90625 53.5 13.296875 50.296875 
Q 12.40625 48.90625 12.203125 48.15625 
Q 12 47.40625 12.09375 46.59375 
L 11.703125 46.09375 
L 10.90625 46.59375 
L 5.796875 50.59375 
Q 8.796875 56.40625 14.046875 59.546875 
Q 19.296875 62.703125 25.703125 62.703125 
Q 33.59375 62.703125 38.59375 57.953125 
Q 43.59375 53.203125 43.59375 44.90625 
Q 43.59375 39.703125 41.296875 35 
Q 39 30.296875 35.140625 25.6875 
Q 31.296875 21.09375 26.390625 16.296875 
Q 21.5 11.5 16.296875 6.09375 
L 39.5 6.09375 
Q 41.203125 6.09375 41.890625 6.296875 
Q 42.59375 6.5 43.203125 7.09375 
L 43.90625 7.09375 
L 43.90625 0 
L 7.296875 0 
z
" id="Inconsolata-Regular-50"/>
       <path d="M 25 -1.09375 
Q 15.703125 -1.09375 10.703125 7.203125 
Q 5.703125 15.5 5.703125 30.796875 
Q 5.703125 45.59375 10.703125 54.140625 
Q 15.703125 62.703125 25 62.703125 
Q 34.296875 62.703125 39.296875 54.140625 
Q 44.296875 45.59375 44.296875 30.796875 
Q 44.296875 15.5 39.296875 7.203125 
Q 34.296875 -1.09375 25 -1.09375 
z
M 12.90625 30.796875 
Q 12.90625 24.40625 13.796875 19.40625 
L 35 46.703125 
Q 33.5 51.40625 30.953125 54 
Q 28.40625 56.59375 25 56.59375 
Q 19.296875 56.59375 16.09375 49.59375 
Q 12.90625 42.59375 12.90625 30.796875 
z
M 25 5 
Q 30.703125 5 33.890625 11.703125 
Q 37.09375 18.40625 37.09375 30.796875 
Q 37.09375 36.296875 36.40625 40.796875 
L 15.203125 13.90625 
Q 18.296875 5 25 5 
z
" id="Inconsolata-Regular-48"/>
       <path d="M 11.09375 28.09375 
L 11.09375 34.796875 
L 39.09375 34.796875 
L 39.09375 28.09375 
z
" id="Inconsolata-Regular-45"/>
      </defs>
      <g style="fill:#555555;" transform="translate(127.879774 171.15)scale(0.1 -0.1)">
       <use xlink:href="#Inconsolata-Regular-50"/>
       <use x="49.999985" xlink:href="#Inconsolata-Regular-48"/>
       <use x="99.999969" xlink:href="#Inconsolata-Regular-50"/>
       <use x="149.999954" xlink:href="#Inconsolata-Regular-48"/>
       <use x="199.999939" xlink:href="#Inconsolata-Regular-45"/>
       <use x="249.999924" xlink:href="#Inconsolata-Regular-48"/>
       <use x="299.999908" xlink:href="#Inconsolata-Regular-50"/>
      </g>
     </g>
    </g>
    <g id="xtick_2">
     <g id="line2d_3">
      <path clip-path="url(#p566a482be0)" d="M 232.426573 157.5 
L 232.426573 21.6 
" style="fill:none;stroke:#ffffff;stroke-linecap:square;stroke-width:0.8;"/>
     </g>
     <g id="line2d_4">
      <g>
       <use style="fill:#555555;stroke:#555555;stroke-width:0.8;" x="232.426573" xlink:href="#mf76d720774" y="157.5"/>
      </g>
     </g>
     <g id="text_2">
      <!-- 2020-03 -->
      <defs>
       <path d="M 24 -1.09375 
Q 19.09375 -1.09375 14.59375 0.703125 
Q 10.09375 2.5 6.90625 6 
L 11.5 11.5 
L 12.203125 12.296875 
L 12.703125 11.796875 
Q 12.796875 11 13.09375 10.25 
Q 13.40625 9.5 14.5 8.296875 
Q 16.203125 6.796875 18.390625 5.84375 
Q 20.59375 4.90625 23.703125 4.90625 
Q 29.703125 4.90625 32.59375 8.40625 
Q 35.5 11.90625 35.5 17.40625 
Q 35.5 24.5 30.75 27.453125 
Q 26 30.40625 18 29.59375 
L 18 35.203125 
Q 24.5 35.203125 27.796875 36.890625 
Q 31.09375 38.59375 32.25 41.4375 
Q 33.40625 44.296875 33.40625 47.5 
Q 33.40625 51.796875 30.953125 54.25 
Q 28.5 56.703125 24.5 56.703125 
Q 21.5 56.703125 18.640625 55.703125 
Q 15.796875 54.703125 13.09375 52.09375 
L 8.90625 56.296875 
Q 12.296875 59.796875 16.34375 61.25 
Q 20.40625 62.703125 24.40625 62.703125 
Q 32 62.703125 36.296875 58.390625 
Q 40.59375 54.09375 40.59375 47.203125 
Q 40.59375 42.296875 38.1875 38.4375 
Q 35.796875 34.59375 30.796875 33 
Q 36.09375 31.296875 39.390625 27.390625 
Q 42.703125 23.5 42.703125 17.09375 
Q 42.703125 12.203125 40.546875 8.046875 
Q 38.40625 3.90625 34.25 1.40625 
Q 30.09375 -1.09375 24 -1.09375 
z
" id="Inconsolata-Regular-51"/>
      </defs>
      <g style="fill:#555555;" transform="translate(214.926573 171.15)scale(0.1 -0.1)">
       <use xlink:href="#Inconsolata-Regular-50"/>
       <use x="49.999985" xlink:href="#Inconsolata-Regular-48"/>
       <use x="99.999969" xlink:href="#Inconsolata-Regular-50"/>
       <use x="149.999954" xlink:href="#Inconsolata-Regular-48"/>
       <use x="199.999939" xlink:href="#Inconsolata-Regular-45"/>
       <use x="249.999924" xlink:href="#Inconsolata-Regular-48"/>
       <use x="299.999908" xlink:href="#Inconsolata-Regular-51"/>
      </g>
     </g>
    </g>
    <g id="xtick_3">
     <g id="line2d_5">
      <path clip-path="url(#p566a482be0)" d="M 325.4766 157.5 
L 325.4766 21.6 
" style="fill:none;stroke:#ffffff;stroke-linecap:square;stroke-width:0.8;"/>
     </g>
     <g id="line2d_6">
      <g>
       <use style="fill:#555555;stroke:#555555;stroke-width:0.8;" x="325.4766" xlink:href="#mf76d720774" y="157.5"/>
      </g>
     </g>
     <g id="text_3">
      <!-- 2020-04 -->
      <defs>
       <path d="M 31.796875 0 
L 31.796875 15.296875 
L 4.796875 15.296875 
L 4.796875 20.40625 
L 33.296875 62.40625 
L 39.203125 62.40625 
L 39.203125 21.09375 
L 47.203125 21.09375 
L 47.203125 15.203125 
L 39.203125 15.203125 
L 39.203125 0 
z
M 12.90625 21.203125 
L 31.796875 21.203125 
L 31.796875 49.796875 
z
" id="Inconsolata-Regular-52"/>
      </defs>
      <g style="fill:#555555;" transform="translate(307.9766 171.15)scale(0.1 -0.1)">
       <use xlink:href="#Inconsolata-Regular-50"/>
       <use x="49.999985" xlink:href="#Inconsolata-Regular-48"/>
       <use x="99.999969" xlink:href="#Inconsolata-Regular-50"/>
       <use x="149.999954" xlink:href="#Inconsolata-Regular-48"/>
       <use x="199.999939" xlink:href="#Inconsolata-Regular-45"/>
       <use x="249.999924" xlink:href="#Inconsolata-Regular-48"/>
       <use x="299.999908" xlink:href="#Inconsolata-Regular-52"/>
      </g>
     </g>
    </g>
    <g id="xtick_4">
     <g id="line2d_7">
      <path clip-path="url(#p566a482be0)" d="M 415.525013 157.5 
L 415.525013 21.6 
" style="fill:none;stroke:#ffffff;stroke-linecap:square;stroke-width:0.8;"/>
     </g>
     <g id="line2d_8">
      <g>
       <use style="fill:#555555;stroke:#555555;stroke-width:0.8;" x="415.525013" xlink:href="#mf76d720774" y="157.5"/>
      </g>
     </g>
     <g id="text_4">
      <!-- 2020-05 -->
      <defs>
       <path d="M 24.90625 -1.09375 
Q 19.203125 -1.09375 14.34375 1.40625 
Q 9.5 3.90625 6.40625 8.5 
L 12.796875 13.296875 
L 13.203125 12.796875 
Q 13.09375 12 13.4375 11.296875 
Q 13.796875 10.59375 14.796875 9.296875 
Q 16.796875 7.09375 19.25 6.046875 
Q 21.703125 5 25.296875 5 
Q 28.5 5 31.25 6.796875 
Q 34 8.59375 35.703125 11.9375 
Q 37.40625 15.296875 37.40625 19.90625 
Q 37.40625 26.90625 33.65625 30.796875 
Q 29.90625 34.703125 24.59375 34.703125 
Q 21.40625 34.703125 18.296875 33.140625 
Q 15.203125 31.59375 12.90625 28.796875 
L 8.5 30.59375 
L 10.59375 62.296875 
L 42.203125 62.296875 
L 42.203125 56 
L 16.5 56 
L 15.5 38.09375 
Q 20.5 40.5 25.703125 40.5 
Q 31.09375 40.5 35.34375 37.953125 
Q 39.59375 35.40625 42.046875 30.703125 
Q 44.5 26 44.5 19.59375 
Q 44.5 13.203125 41.890625 8.546875 
Q 39.296875 3.90625 34.890625 1.40625 
Q 30.5 -1.09375 24.90625 -1.09375 
z
" id="Inconsolata-Regular-53"/>
      </defs>
      <g style="fill:#555555;" transform="translate(398.025013 171.15)scale(0.1 -0.1)">
       <use xlink:href="#Inconsolata-Regular-50"/>
       <use x="49.999985" xlink:href="#Inconsolata-Regular-48"/>
       <use x="99.999969" xlink:href="#Inconsolata-Regular-50"/>
       <use x="149.999954" xlink:href="#Inconsolata-Regular-48"/>
       <use x="199.999939" xlink:href="#Inconsolata-Regular-45"/>
       <use x="249.999924" xlink:href="#Inconsolata-Regular-48"/>
       <use x="299.999908" xlink:href="#Inconsolata-Regular-53"/>
      </g>
     </g>
    </g>
    <g id="xtick_5">
     <g id="line2d_9">
      <path clip-path="url(#p566a482be0)" d="M 508.57504 157.5 
L 508.57504 21.6 
" style="fill:none;stroke:#ffffff;stroke-linecap:square;stroke-width:0.8;"/>
     </g>
     <g id="line2d_10">
      <g>
       <use style="fill:#555555;stroke:#555555;stroke-width:0.8;" x="508.57504" xlink:href="#mf76d720774" y="157.5"/>
      </g>
     </g>
     <g id="text_5">
      <!-- 2020-06 -->
      <defs>
       <path d="M 26.09375 -1 
Q 16.796875 -1 11.75 6.890625 
Q 6.703125 14.796875 6.703125 28.40625 
Q 6.703125 45.203125 12.703125 54.09375 
Q 18.703125 63 28.703125 63 
Q 36.59375 63 42.40625 57.296875 
L 38 52.296875 
L 37.296875 51.5 
L 36.796875 52 
Q 36.703125 52.796875 36.34375 53.5 
Q 36 54.203125 34.703125 55.296875 
Q 32.5 56.796875 28.90625 56.796875 
Q 26.90625 56.796875 24.296875 55.84375 
Q 21.703125 54.90625 19.296875 52.296875 
Q 16.90625 49.703125 15.296875 44.953125 
Q 13.703125 40.203125 13.59375 32.703125 
Q 15.703125 36.203125 19.25 38.203125 
Q 22.796875 40.203125 26.796875 40.203125 
Q 31.5 40.203125 35.34375 37.640625 
Q 39.203125 35.09375 41.546875 30.546875 
Q 43.90625 26 43.90625 19.796875 
Q 43.90625 13.59375 41.5 8.890625 
Q 39.09375 4.203125 35.09375 1.59375 
Q 31.09375 -1 26.09375 -1 
z
M 26.40625 5.203125 
Q 30.703125 5.203125 33.890625 8.890625 
Q 37.09375 12.59375 37.09375 19.703125 
Q 37.09375 24.703125 35.4375 27.890625 
Q 33.796875 31.09375 31.296875 32.59375 
Q 28.796875 34.09375 26.203125 34.09375 
Q 22.59375 34.09375 19.296875 31.640625 
Q 16 29.203125 14 25.703125 
Q 13.59375 22.296875 14.25 18.6875 
Q 14.90625 15.09375 16.546875 12.046875 
Q 18.203125 9 20.703125 7.09375 
Q 23.203125 5.203125 26.40625 5.203125 
z
" id="Inconsolata-Regular-54"/>
      </defs>
      <g style="fill:#555555;" transform="translate(491.07504 171.15)scale(0.1 -0.1)">
       <use xlink:href="#Inconsolata-Regular-50"/>
       <use x="49.999985" xlink:href="#Inconsolata-Regular-48"/>
       <use x="99.999969" xlink:href="#Inconsolata-Regular-50"/>
       <use x="149.999954" xlink:href="#Inconsolata-Regular-48"/>
       <use x="199.999939" xlink:href="#Inconsolata-Regular-45"/>
       <use x="249.999924" xlink:href="#Inconsolata-Regular-48"/>
       <use x="299.999908" xlink:href="#Inconsolata-Regular-54"/>
      </g>
     </g>
    </g>
    <g id="xtick_6">
     <g id="line2d_11">
      <path clip-path="url(#p566a482be0)" d="M 598.623453 157.5 
L 598.623453 21.6 
" style="fill:none;stroke:#ffffff;stroke-linecap:square;stroke-width:0.8;"/>
     </g>
     <g id="line2d_12">
      <g>
       <use style="fill:#555555;stroke:#555555;stroke-width:0.8;" x="598.623453" xlink:href="#mf76d720774" y="157.5"/>
      </g>
     </g>
     <g id="text_6">
      <!-- 2020-07 -->
      <defs>
       <path d="M 15.5 0 
Q 19.90625 14.296875 24.59375 28.09375 
Q 29.296875 41.90625 34.5 55.703125 
L 7.90625 55.703125 
L 7.90625 62.296875 
L 43.203125 62.296875 
L 43.203125 58.40625 
Q 37.5 44 32.5 29.5 
Q 27.5 15 23.40625 0 
z
" id="Inconsolata-Regular-55"/>
      </defs>
      <g style="fill:#555555;" transform="translate(581.123453 171.15)scale(0.1 -0.1)">
       <use xlink:href="#Inconsolata-Regular-50"/>
       <use x="49.999985" xlink:href="#Inconsolata-Regular-48"/>
       <use x="99.999969" xlink:href="#Inconsolata-Regular-50"/>
       <use x="149.999954" xlink:href="#Inconsolata-Regular-48"/>
       <use x="199.999939" xlink:href="#Inconsolata-Regular-45"/>
       <use x="249.999924" xlink:href="#Inconsolata-Regular-48"/>
       <use x="299.999908" xlink:href="#Inconsolata-Regular-55"/>
      </g>
     </g>
    </g>
   </g>
   <g id="matplotlib.axis_2">
    <g id="ytick_1">
     <g id="line2d_13">
      <path clip-path="url(#p566a482be0)" d="M 90 157.5 
L 648 157.5 
" style="fill:none;stroke:#ffffff;stroke-linecap:square;stroke-width:0.8;"/>
     </g>
     <g id="line2d_14">
      <defs>
       <path d="M 0 0 
L -3.5 0 
" id="m8fd97632db" style="stroke:#555555;stroke-width:0.8;"/>
      </defs>
      <g>
       <use style="fill:#555555;stroke:#555555;stroke-width:0.8;" x="90" xlink:href="#m8fd97632db" y="157.5"/>
      </g>
     </g>
     <g id="line2d_15">
      <defs>
       <path d="M 0 0 
L 3.5 0 
" id="m0313410959" style="stroke:#555555;stroke-width:0.8;"/>
      </defs>
      <g>
       <use style="fill:#555555;stroke:#555555;stroke-width:0.8;" x="648" xlink:href="#m0313410959" y="157.5"/>
      </g>
     </g>
     <g id="text_7">
      <!-- 0 -->
      <g style="fill:#555555;" transform="translate(78 160.825)scale(0.1 -0.1)">
       <use xlink:href="#Inconsolata-Regular-48"/>
      </g>
     </g>
     <g id="text_8">
      <!-- 0 -->
      <g style="fill:#555555;" transform="translate(655 160.825)scale(0.1 -0.1)">
       <use xlink:href="#Inconsolata-Regular-48"/>
      </g>
     </g>
    </g>
    <g id="ytick_2">
     <g id="line2d_16">
      <path clip-path="url(#p566a482be0)" d="M 90 133.967532 
L 648 133.967532 
" style="fill:none;stroke:#ffffff;stroke-linecap:square;stroke-width:0.8;"/>
     </g>
     <g id="line2d_17">
      <g>
       <use style="fill:#555555;stroke:#555555;stroke-width:0.8;" x="90" xlink:href="#m8fd97632db" y="133.967532"/>
      </g>
     </g>
     <g id="line2d_18">
      <g>
       <use style="fill:#555555;stroke:#555555;stroke-width:0.8;" x="648" xlink:href="#m0313410959" y="133.967532"/>
      </g>
     </g>
     <g id="text_9">
      <!-- 2 -->
      <g style="fill:#555555;" transform="translate(78 137.292532)scale(0.1 -0.1)">
       <use xlink:href="#Inconsolata-Regular-50"/>
      </g>
     </g>
     <g id="text_10">
      <!-- 2 -->
      <g style="fill:#555555;" transform="translate(655 137.292532)scale(0.1 -0.1)">
       <use xlink:href="#Inconsolata-Regular-50"/>
      </g>
     </g>
    </g>
    <g id="ytick_3">
     <g id="line2d_19">
      <path clip-path="url(#p566a482be0)" d="M 90 110.435065 
L 648 110.435065 
" style="fill:none;stroke:#ffffff;stroke-linecap:square;stroke-width:0.8;"/>
     </g>
     <g id="line2d_20">
      <g>
       <use style="fill:#555555;stroke:#555555;stroke-width:0.8;" x="90" xlink:href="#m8fd97632db" y="110.435065"/>
      </g>
     </g>
     <g id="line2d_21">
      <g>
       <use style="fill:#555555;stroke:#555555;stroke-width:0.8;" x="648" xlink:href="#m0313410959" y="110.435065"/>
      </g>
     </g>
     <g id="text_11">
      <!-- 4 -->
      <g style="fill:#555555;" transform="translate(78 113.760065)scale(0.1 -0.1)">
       <use xlink:href="#Inconsolata-Regular-52"/>
      </g>
     </g>
     <g id="text_12">
      <!-- 4 -->
      <g style="fill:#555555;" transform="translate(655 113.760065)scale(0.1 -0.1)">
       <use xlink:href="#Inconsolata-Regular-52"/>
      </g>
     </g>
    </g>
    <g id="ytick_4">
     <g id="line2d_22">
      <path clip-path="url(#p566a482be0)" d="M 90 86.902597 
L 648 86.902597 
" style="fill:none;stroke:#ffffff;stroke-linecap:square;stroke-width:0.8;"/>
     </g>
     <g id="line2d_23">
      <g>
       <use style="fill:#555555;stroke:#555555;stroke-width:0.8;" x="90" xlink:href="#m8fd97632db" y="86.902597"/>
      </g>
     </g>
     <g id="line2d_24">
      <g>
       <use style="fill:#555555;stroke:#555555;stroke-width:0.8;" x="648" xlink:href="#m0313410959" y="86.902597"/>
      </g>
     </g>
     <g id="text_13">
      <!-- 6 -->
      <g style="fill:#555555;" transform="translate(78 90.227597)scale(0.1 -0.1)">
       <use xlink:href="#Inconsolata-Regular-54"/>
      </g>
     </g>
     <g id="text_14">
      <!-- 6 -->
      <g style="fill:#555555;" transform="translate(655 90.227597)scale(0.1 -0.1)">
       <use xlink:href="#Inconsolata-Regular-54"/>
      </g>
     </g>
    </g>
    <g id="ytick_5">
     <g id="line2d_25">
      <path clip-path="url(#p566a482be0)" d="M 90 63.37013 
L 648 63.37013 
" style="fill:none;stroke:#ffffff;stroke-linecap:square;stroke-width:0.8;"/>
     </g>
     <g id="line2d_26">
      <g>
       <use style="fill:#555555;stroke:#555555;stroke-width:0.8;" x="90" xlink:href="#m8fd97632db" y="63.37013"/>
      </g>
     </g>
     <g id="line2d_27">
      <g>
       <use style="fill:#555555;stroke:#555555;stroke-width:0.8;" x="648" xlink:href="#m0313410959" y="63.37013"/>
      </g>
     </g>
     <g id="text_15">
      <!-- 8 -->
      <defs>
       <path d="M 25 -1 
Q 19.09375 -1 14.84375 1.25 
Q 10.59375 3.5 8.296875 7.296875 
Q 6 11.09375 6 15.703125 
Q 6 21.09375 9.390625 25.796875 
Q 12.796875 30.5 18.5 33.09375 
Q 14.203125 35.296875 11.59375 39.25 
Q 9 43.203125 9 47.703125 
Q 9 54.09375 13.140625 58.59375 
Q 17.296875 63.09375 25.5 63.09375 
Q 31.296875 63.09375 34.890625 61.09375 
Q 38.5 59.09375 40.25 55.75 
Q 42 52.40625 42 48.296875 
Q 42 43.796875 39.296875 39.75 
Q 36.59375 35.703125 32.09375 33.296875 
Q 37.5 30.796875 40.796875 26.140625 
Q 44.09375 21.5 44.09375 16.09375 
Q 44.09375 11.203125 41.75 7.34375 
Q 39.40625 3.5 35.15625 1.25 
Q 30.90625 -1 25 -1 
z
M 26.703125 35.796875 
Q 30.40625 37.796875 32.796875 41.1875 
Q 35.203125 44.59375 35.203125 48.09375 
Q 35.203125 51.59375 32.75 54.390625 
Q 30.296875 57.203125 25.296875 57.203125 
Q 20.40625 57.203125 18.046875 54.5 
Q 15.703125 51.796875 15.703125 48.40625 
Q 15.703125 43.796875 18.890625 41.046875 
Q 22.09375 38.296875 26.703125 35.796875 
z
M 25.203125 5.296875 
Q 31 5.296875 34 8.4375 
Q 37 11.59375 37 16.09375 
Q 37 20.703125 33.390625 24.546875 
Q 29.796875 28.40625 23.703125 30.296875 
Q 19.203125 28.40625 16.203125 24.65625 
Q 13.203125 20.90625 13.203125 16.40625 
Q 13.203125 11.90625 16.34375 8.59375 
Q 19.5 5.296875 25.203125 5.296875 
z
" id="Inconsolata-Regular-56"/>
      </defs>
      <g style="fill:#555555;" transform="translate(78 66.69513)scale(0.1 -0.1)">
       <use xlink:href="#Inconsolata-Regular-56"/>
      </g>
     </g>
     <g id="text_16">
      <!-- 8 -->
      <g style="fill:#555555;" transform="translate(655 66.69513)scale(0.1 -0.1)">
       <use xlink:href="#Inconsolata-Regular-56"/>
      </g>
     </g>
    </g>
    <g id="ytick_6">
     <g id="line2d_28">
      <path clip-path="url(#p566a482be0)" d="M 90 39.837662 
L 648 39.837662 
" style="fill:none;stroke:#ffffff;stroke-linecap:square;stroke-width:0.8;"/>
     </g>
     <g id="line2d_29">
      <g>
       <use style="fill:#555555;stroke:#555555;stroke-width:0.8;" x="90" xlink:href="#m8fd97632db" y="39.837662"/>
      </g>
     </g>
     <g id="line2d_30">
      <g>
       <use style="fill:#555555;stroke:#555555;stroke-width:0.8;" x="648" xlink:href="#m0313410959" y="39.837662"/>
      </g>
     </g>
     <g id="text_17">
      <!-- 10 -->
      <defs>
       <path d="M 23 0 
L 23 53.703125 
L 10.40625 50 
L 8.796875 53.90625 
L 25.09375 62.40625 
L 30 62.40625 
L 30 0 
z
" id="Inconsolata-Regular-49"/>
      </defs>
      <g style="fill:#555555;" transform="translate(73 43.162662)scale(0.1 -0.1)">
       <use xlink:href="#Inconsolata-Regular-49"/>
       <use x="49.999985" xlink:href="#Inconsolata-Regular-48"/>
      </g>
     </g>
     <g id="text_18">
      <!-- 10 -->
      <g style="fill:#555555;" transform="translate(655 43.162662)scale(0.1 -0.1)">
       <use xlink:href="#Inconsolata-Regular-49"/>
       <use x="49.999985" xlink:href="#Inconsolata-Regular-48"/>
      </g>
     </g>
    </g>
    <g id="text_19">
     <!-- daily change -->
     <defs>
      <path d="M 23.40625 -1 
Q 18.796875 -1 14.4375 1.640625 
Q 10.09375 4.296875 7.296875 9.6875 
Q 4.5 15.09375 4.5 23.296875 
Q 4.5 31.703125 7.390625 36.890625 
Q 10.296875 42.09375 14.75 44.5 
Q 19.203125 46.90625 23.796875 46.90625 
Q 28.5 46.90625 31.953125 44.75 
Q 35.40625 42.59375 37.09375 39 
L 37.09375 66.5 
L 44.703125 66.5 
L 44.703125 65.796875 
Q 44.09375 65.203125 43.9375 64.5 
Q 43.796875 63.796875 43.796875 62.09375 
L 43.90625 7.09375 
Q 43.90625 5.296875 44.046875 3.546875 
Q 44.203125 1.796875 44.90625 0 
L 37.796875 0 
Q 37.09375 1.796875 36.9375 3.546875 
Q 36.796875 5.296875 36.796875 7.09375 
Q 34.59375 3.40625 31.1875 1.203125 
Q 27.796875 -1 23.40625 -1 
z
M 24.5 5.296875 
Q 28.90625 5.296875 31.546875 7.6875 
Q 34.203125 10.09375 35.34375 14.140625 
Q 36.5 18.203125 36.5 23.09375 
Q 36.5 30.796875 33.5 35.890625 
Q 30.5 41 23.90625 41 
Q 17.796875 41 14.640625 36.5 
Q 11.5 32 11.5 24.40625 
Q 11.5 15.796875 14.796875 10.546875 
Q 18.09375 5.296875 24.5 5.296875 
z
" id="Inconsolata-Regular-100"/>
      <path d="M 21.09375 -1.09375 
Q 13.296875 -1.09375 9.09375 2.453125 
Q 4.90625 6 4.90625 11.5 
Q 4.90625 16.40625 8 19.953125 
Q 11.09375 23.5 16.34375 25.453125 
Q 21.59375 27.40625 27.90625 27.40625 
Q 30.203125 27.40625 32.75 27.296875 
Q 35.296875 27.203125 38.203125 26.796875 
Q 37.59375 34.796875 34.046875 37.796875 
Q 30.5 40.796875 23.90625 40.796875 
Q 20.59375 40.796875 17.390625 39.546875 
Q 14.203125 38.296875 11.59375 35.703125 
L 8.09375 40.296875 
Q 11.296875 43.5 15.5 45.09375 
Q 19.703125 46.703125 24.40625 46.703125 
Q 30.5 46.703125 35 44.703125 
Q 39.5 42.703125 42 37.796875 
Q 44.5 32.90625 44.5 24.296875 
L 44.5 0 
L 36.703125 0 
L 36.703125 7 
Q 35 3.703125 32.34375 1.953125 
Q 29.703125 0.203125 26.75 -0.4375 
Q 23.796875 -1.09375 21.09375 -1.09375 
z
M 12.09375 11.90625 
Q 12.09375 7.59375 14.890625 6 
Q 17.703125 4.40625 21.796875 4.40625 
Q 29.203125 4.40625 33.5 8.75 
Q 37.796875 13.09375 38.203125 21.296875 
Q 33 22 28.5 22 
Q 21.296875 22 16.6875 19.59375 
Q 12.09375 17.203125 12.09375 11.90625 
z
" id="Inconsolata-Regular-97"/>
      <path d="M 10 0 
L 10 5.796875 
L 21.703125 5.796875 
L 21.703125 39.90625 
L 10.59375 39.90625 
L 10.59375 45.703125 
L 28.90625 45.703125 
L 28.90625 5.796875 
L 39.59375 5.796875 
L 39.59375 0 
z
M 24.90625 55.296875 
Q 22.796875 55.296875 21.296875 56.796875 
Q 19.796875 58.296875 19.796875 60.40625 
Q 19.796875 62.59375 21.25 64.09375 
Q 22.703125 65.59375 24.90625 65.59375 
Q 27 65.59375 28.546875 64.046875 
Q 30.09375 62.5 30.09375 60.40625 
Q 30.09375 58.296875 28.546875 56.796875 
Q 27 55.296875 24.90625 55.296875 
z
" id="Inconsolata-Regular-105"/>
      <path d="M 7.90625 0 
L 7.90625 5.796875 
L 21.40625 5.796875 
L 21.40625 60.703125 
L 8.5 60.703125 
L 8.5 66.5 
L 28.703125 66.5 
L 28.703125 5.796875 
L 42.09375 5.796875 
L 42.09375 0 
z
" id="Inconsolata-Regular-108"/>
      <path d="M 12.703125 -17.40625 
Q 6.296875 -17.40625 2.203125 -13.5 
L 5.296875 -8.59375 
L 5.90625 -7.703125 
L 6.5 -8.09375 
Q 6.703125 -8.90625 7.203125 -9.453125 
Q 7.703125 -10 9.09375 -10.90625 
Q 10.90625 -11.5 13.09375 -11.5 
Q 17 -11.5 19.203125 -8.75 
Q 21.40625 -6 23.296875 -0.296875 
L 4.59375 45.703125 
L 12.09375 45.703125 
L 26.296875 9.09375 
L 32.296875 27.5 
Q 33.796875 32.09375 35.1875 36.59375 
Q 36.59375 41.09375 37.09375 45.703125 
L 44.296875 45.703125 
Q 43.59375 41.09375 42.09375 36.390625 
Q 40.59375 31.703125 38.90625 27 
L 27.5 -5.203125 
Q 25.09375 -11.90625 21.34375 -14.65625 
Q 17.59375 -17.40625 12.703125 -17.40625 
z
" id="Inconsolata-Regular-121"/>
      <path id="Inconsolata-Regular-32"/>
      <path d="M 28.5 -1.09375 
Q 21.90625 -1.09375 16.703125 2 
Q 11.5 5.09375 8.546875 10.5 
Q 5.59375 15.90625 5.59375 22.796875 
Q 5.59375 29.703125 8.546875 35.046875 
Q 11.5 40.40625 16.640625 43.5 
Q 21.796875 46.59375 28.40625 46.59375 
Q 34 46.59375 38.453125 44.34375 
Q 42.90625 42.09375 45.703125 38.09375 
L 41.203125 33.703125 
L 40.5 33 
L 40 33.5 
Q 40 34.296875 39.640625 35 
Q 39.296875 35.703125 38.09375 36.90625 
Q 35.90625 38.90625 33.40625 39.703125 
Q 30.90625 40.5 27.59375 40.5 
Q 23.796875 40.5 20.4375 38.390625 
Q 17.09375 36.296875 15.046875 32.4375 
Q 13 28.59375 13 23.296875 
Q 13 18.203125 15.046875 14.140625 
Q 17.09375 10.09375 20.6875 7.75 
Q 24.296875 5.40625 28.90625 5.40625 
Q 35.796875 5.40625 40.796875 11 
L 45 6.09375 
Q 38.296875 -1.09375 28.5 -1.09375 
z
" id="Inconsolata-Regular-99"/>
      <path d="M 7.296875 66.5 
L 15.203125 66.5 
L 15.203125 65.796875 
Q 14.59375 65.203125 14.4375 64.5 
Q 14.296875 63.796875 14.296875 62.09375 
L 14.296875 37.59375 
Q 17 41.796875 21.046875 44.296875 
Q 25.09375 46.796875 29.296875 46.796875 
Q 35.5 46.796875 39.34375 42.4375 
Q 43.203125 38.09375 43.203125 27.703125 
L 43.203125 0 
L 36.203125 0 
L 36.203125 27.5 
Q 36.203125 34.703125 33.75 37.59375 
Q 31.296875 40.5 27.796875 40.5 
Q 24.796875 40.5 21.640625 38.796875 
Q 18.5 37.09375 16.390625 33.9375 
Q 14.296875 30.796875 14.296875 26.296875 
L 14.296875 0 
L 7.296875 0 
z
" id="Inconsolata-Regular-104"/>
      <path d="M 7.203125 0 
L 7.203125 45.703125 
L 14.203125 45.703125 
L 14.203125 37.59375 
Q 16.796875 41.796875 20.9375 44.296875 
Q 25.09375 46.796875 29.703125 46.796875 
Q 35.296875 46.796875 39.1875 42.4375 
Q 43.09375 38.09375 43.09375 27.703125 
L 43.09375 0 
L 36.09375 0 
L 36.09375 27.5 
Q 36.09375 34.703125 33.640625 37.59375 
Q 31.203125 40.5 27.703125 40.5 
Q 24.703125 40.5 21.546875 38.75 
Q 18.40625 37 16.296875 33.84375 
Q 14.203125 30.703125 14.203125 26.296875 
L 14.203125 0 
z
" id="Inconsolata-Regular-110"/>
      <path d="M 22.59375 15.5 
Q 18.703125 15.5 15.5 16.90625 
Q 13.703125 14.703125 13.703125 12.703125 
Q 13.703125 10.296875 16.703125 9.25 
Q 19.703125 8.203125 27.703125 8.203125 
Q 34.703125 8.203125 38.296875 6.703125 
Q 41.90625 5.203125 43.203125 2.59375 
Q 44.5 0 44.5 -3.40625 
Q 44.5 -6.90625 42.59375 -10.09375 
Q 40.703125 -13.296875 36.34375 -15.25 
Q 32 -17.203125 24.703125 -17.203125 
Q 15.09375 -17.203125 9.4375 -14.25 
Q 3.796875 -11.296875 3.796875 -5.40625 
Q 3.796875 -1.703125 5.890625 0.9375 
Q 8 3.59375 10.90625 4.90625 
Q 7.59375 7.09375 7.59375 11 
Q 7.59375 13.203125 8.6875 15.296875 
Q 9.796875 17.40625 11.703125 19.40625 
Q 6.59375 23.90625 6.59375 31.5 
Q 6.59375 35.90625 8.546875 39.5 
Q 10.5 43.09375 14.09375 45.25 
Q 17.703125 47.40625 22.59375 47.40625 
Q 26.296875 47.40625 29.25 46.15625 
Q 32.203125 44.90625 34.296875 42.703125 
Q 36.90625 45.09375 39.796875 46.140625 
Q 42.703125 47.203125 46.59375 46.90625 
L 47.5 41 
Q 44.5 41.296875 41.84375 40.890625 
Q 39.203125 40.5 36.90625 39 
Q 38.59375 35.59375 38.59375 31.5 
Q 38.59375 27.09375 36.640625 23.4375 
Q 34.703125 19.796875 31.140625 17.640625 
Q 27.59375 15.5 22.59375 15.5 
z
M 22.59375 21.5 
Q 27 21.5 29.796875 24.453125 
Q 32.59375 27.40625 32.59375 31.5 
Q 32.59375 35.59375 29.796875 38.546875 
Q 27 41.5 22.59375 41.5 
Q 18.296875 41.5 15.4375 38.546875 
Q 12.59375 35.59375 12.59375 31.5 
Q 12.59375 27.40625 15.4375 24.453125 
Q 18.296875 21.5 22.59375 21.5 
z
M 10.40625 -4.59375 
Q 10.40625 -8 14.25 -9.890625 
Q 18.09375 -11.796875 24.796875 -11.796875 
Q 31.59375 -11.796875 34.75 -9.75 
Q 37.90625 -7.703125 37.90625 -4.5 
Q 37.90625 -2.296875 37.09375 -0.890625 
Q 36.296875 0.5 33.796875 1.203125 
Q 31.296875 1.90625 26.203125 1.90625 
Q 22.703125 1.90625 19.84375 2.203125 
Q 17 2.5 14.703125 3.203125 
Q 12.40625 1.59375 11.40625 -0.046875 
Q 10.40625 -1.703125 10.40625 -4.59375 
z
" id="Inconsolata-Regular-103"/>
      <path d="M 27.203125 -1 
Q 17.203125 -1 11.046875 5.09375 
Q 4.90625 11.203125 4.90625 22.703125 
Q 4.90625 30.5 7.75 35.84375 
Q 10.59375 41.203125 15.34375 44 
Q 20.09375 46.796875 25.90625 46.796875 
Q 31.09375 46.796875 35.296875 44.5 
Q 39.5 42.203125 42 37.390625 
Q 44.5 32.59375 44.5 25.09375 
Q 44.5 24.296875 44.453125 23.4375 
Q 44.40625 22.59375 44.296875 21.796875 
L 11.796875 21.796875 
Q 12.203125 13 16.75 8.890625 
Q 21.296875 4.796875 27.40625 4.796875 
Q 34.59375 4.796875 39.203125 9.90625 
L 43.203125 6 
Q 37.40625 -1 27.203125 -1 
z
M 12.09375 27.40625 
L 37.203125 27.40625 
Q 37.203125 33.796875 33.953125 37.546875 
Q 30.703125 41.296875 25.40625 41.296875 
Q 20.703125 41.296875 16.890625 37.9375 
Q 13.09375 34.59375 12.09375 27.40625 
z
" id="Inconsolata-Regular-101"/>
     </defs>
     <g style="fill:#555555;" transform="translate(66.91125 125.55)rotate(-90)scale(0.12 -0.12)">
      <use xlink:href="#Inconsolata-Regular-100"/>
      <use x="49.999985" xlink:href="#Inconsolata-Regular-97"/>
      <use x="99.999969" xlink:href="#Inconsolata-Regular-105"/>
      <use x="149.999954" xlink:href="#Inconsolata-Regular-108"/>
      <use x="199.999939" xlink:href="#Inconsolata-Regular-121"/>
      <use x="249.999924" xlink:href="#Inconsolata-Regular-32"/>
      <use x="299.999908" xlink:href="#Inconsolata-Regular-99"/>
      <use x="349.999893" xlink:href="#Inconsolata-Regular-104"/>
      <use x="399.999878" xlink:href="#Inconsolata-Regular-97"/>
      <use x="449.999863" xlink:href="#Inconsolata-Regular-110"/>
      <use x="499.999847" xlink:href="#Inconsolata-Regular-103"/>
      <use x="549.999832" xlink:href="#Inconsolata-Regular-101"/>
     </g>
    </g>
   </g>
   <g id="patch_3">
    <path clip-path="url(#p566a482be0)" d="M 117.164605 157.5 
L 119.565896 157.5 
L 119.565896 157.5 
L 117.164605 157.5 
z
" style="fill:#e24a33;opacity:0.2;"/>
   </g>
   <g id="patch_4">
    <path clip-path="url(#p566a482be0)" d="M 120.166218 157.5 
L 122.567509 157.5 
L 122.567509 157.5 
L 120.166218 157.5 
z
" style="fill:#e24a33;opacity:0.2;"/>
   </g>
   <g id="patch_5">
    <path clip-path="url(#p566a482be0)" d="M 123.167832 157.5 
L 125.569123 157.5 
L 125.569123 157.5 
L 123.167832 157.5 
z
" style="fill:#e24a33;opacity:0.2;"/>
   </g>
   <g id="patch_6">
    <path clip-path="url(#p566a482be0)" d="M 126.169446 157.5 
L 128.570737 157.5 
L 128.570737 157.5 
L 126.169446 157.5 
z
" style="fill:#e24a33;opacity:0.2;"/>
   </g>
   <g id="patch_7">
    <path clip-path="url(#p566a482be0)" d="M 129.17106 157.5 
L 131.572351 157.5 
L 131.572351 157.5 
L 129.17106 157.5 
z
" style="fill:#e24a33;opacity:0.2;"/>
   </g>
   <g id="patch_8">
    <path clip-path="url(#p566a482be0)" d="M 132.172673 157.5 
L 134.573964 157.5 
L 134.573964 157.5 
L 132.172673 157.5 
z
" style="fill:#e24a33;opacity:0.2;"/>
   </g>
   <g id="patch_9">
    <path clip-path="url(#p566a482be0)" d="M 135.174287 157.5 
L 137.575578 157.5 
L 137.575578 157.5 
L 135.174287 157.5 
z
" style="fill:#e24a33;opacity:0.2;"/>
   </g>
   <g id="patch_10">
    <path clip-path="url(#p566a482be0)" d="M 138.175901 157.5 
L 140.577192 157.5 
L 140.577192 157.5 
L 138.175901 157.5 
z
" style="fill:#e24a33;opacity:0.2;"/>
   </g>
   <g id="patch_11">
    <path clip-path="url(#p566a482be0)" d="M 141.177515 157.5 
L 143.578806 157.5 
L 143.578806 157.5 
L 141.177515 157.5 
z
" style="fill:#e24a33;opacity:0.2;"/>
   </g>
   <g id="patch_12">
    <path clip-path="url(#p566a482be0)" d="M 144.179129 157.5 
L 146.58042 157.5 
L 146.58042 157.5 
L 144.179129 157.5 
z
" style="fill:#e24a33;opacity:0.2;"/>
   </g>
   <g id="patch_13">
    <path clip-path="url(#p566a482be0)" d="M 147.180742 157.5 
L 149.582033 157.5 
L 149.582033 157.5 
L 147.180742 157.5 
z
" style="fill:#e24a33;opacity:0.2;"/>
   </g>
   <g id="patch_14">
    <path clip-path="url(#p566a482be0)" d="M 150.182356 157.5 
L 152.583647 157.5 
L 152.583647 157.5 
L 150.182356 157.5 
z
" style="fill:#e24a33;opacity:0.2;"/>
   </g>
   <g id="patch_15">
    <path clip-path="url(#p566a482be0)" d="M 153.18397 157.5 
L 155.585261 157.5 
L 155.585261 157.5 
L 153.18397 157.5 
z
" style="fill:#e24a33;opacity:0.2;"/>
   </g>
   <g id="patch_16">
    <path clip-path="url(#p566a482be0)" d="M 156.185584 157.5 
L 158.586875 157.5 
L 158.586875 157.5 
L 156.185584 157.5 
z
" style="fill:#e24a33;opacity:0.2;"/>
   </g>
   <g id="patch_17">
    <path clip-path="url(#p566a482be0)" d="M 159.187197 157.5 
L 161.588488 157.5 
L 161.588488 157.5 
L 159.187197 157.5 
z
" style="fill:#e24a33;opacity:0.2;"/>
   </g>
   <g id="patch_18">
    <path clip-path="url(#p566a482be0)" d="M 162.188811 157.5 
L 164.590102 157.5 
L 164.590102 157.5 
L 162.188811 157.5 
z
" style="fill:#e24a33;opacity:0.2;"/>
   </g>
   <g id="patch_19">
    <path clip-path="url(#p566a482be0)" d="M 165.190425 157.5 
L 167.591716 157.5 
L 167.591716 157.5 
L 165.190425 157.5 
z
" style="fill:#e24a33;opacity:0.2;"/>
   </g>
   <g id="patch_20">
    <path clip-path="url(#p566a482be0)" d="M 168.192039 157.5 
L 170.59333 157.5 
L 170.59333 157.5 
L 168.192039 157.5 
z
" style="fill:#e24a33;opacity:0.2;"/>
   </g>
   <g id="patch_21">
    <path clip-path="url(#p566a482be0)" d="M 171.193653 157.5 
L 173.594944 157.5 
L 173.594944 157.5 
L 171.193653 157.5 
z
" style="fill:#e24a33;opacity:0.2;"/>
   </g>
   <g id="patch_22">
    <path clip-path="url(#p566a482be0)" d="M 174.195266 157.5 
L 176.596557 157.5 
L 176.596557 157.5 
L 174.195266 157.5 
z
" style="fill:#e24a33;opacity:0.2;"/>
   </g>
   <g id="patch_23">
    <path clip-path="url(#p566a482be0)" d="M 177.19688 157.5 
L 179.598171 157.5 
L 179.598171 157.5 
L 177.19688 157.5 
z
" style="fill:#e24a33;opacity:0.2;"/>
   </g>
   <g id="patch_24">
    <path clip-path="url(#p566a482be0)" d="M 180.198494 157.5 
L 182.599785 157.5 
L 182.599785 157.5 
L 180.198494 157.5 
z
" style="fill:#e24a33;opacity:0.2;"/>
   </g>
   <g id="patch_25">
    <path clip-path="url(#p566a482be0)" d="M 183.200108 157.5 
L 185.601399 157.5 
L 185.601399 157.5 
L 183.200108 157.5 
z
" style="fill:#e24a33;opacity:0.2;"/>
   </g>
   <g id="patch_26">
    <path clip-path="url(#p566a482be0)" d="M 186.201721 157.5 
L 188.603012 157.5 
L 188.603012 157.5 
L 186.201721 157.5 
z
" style="fill:#e24a33;opacity:0.2;"/>
   </g>
   <g id="patch_27">
    <path clip-path="url(#p566a482be0)" d="M 189.203335 157.5 
L 191.604626 157.5 
L 191.604626 157.5 
L 189.203335 157.5 
z
" style="fill:#e24a33;opacity:0.2;"/>
   </g>
   <g id="patch_28">
    <path clip-path="url(#p566a482be0)" d="M 192.204949 157.5 
L 194.60624 157.5 
L 194.60624 157.5 
L 192.204949 157.5 
z
" style="fill:#e24a33;opacity:0.2;"/>
   </g>
   <g id="patch_29">
    <path clip-path="url(#p566a482be0)" d="M 195.206563 157.5 
L 197.607854 157.5 
L 197.607854 157.5 
L 195.206563 157.5 
z
" style="fill:#e24a33;opacity:0.2;"/>
   </g>
   <g id="patch_30">
    <path clip-path="url(#p566a482be0)" d="M 198.208176 157.5 
L 200.609467 157.5 
L 200.609467 157.5 
L 198.208176 157.5 
z
" style="fill:#e24a33;opacity:0.2;"/>
   </g>
   <g id="patch_31">
    <path clip-path="url(#p566a482be0)" d="M 201.20979 157.5 
L 203.611081 157.5 
L 203.611081 145.733766 
L 201.20979 145.733766 
z
" style="fill:#e24a33;opacity:0.2;"/>
   </g>
   <g id="patch_32">
    <path clip-path="url(#p566a482be0)" d="M 204.211404 157.5 
L 206.612695 157.5 
L 206.612695 145.733766 
L 204.211404 145.733766 
z
" style="fill:#e24a33;opacity:0.2;"/>
   </g>
   <g id="patch_33">
    <path clip-path="url(#p566a482be0)" d="M 207.213018 157.5 
L 209.614309 157.5 
L 209.614309 157.5 
L 207.213018 157.5 
z
" style="fill:#e24a33;opacity:0.2;"/>
   </g>
   <g id="patch_34">
    <path clip-path="url(#p566a482be0)" d="M 210.214632 157.5 
L 212.615923 157.5 
L 212.615923 110.435065 
L 210.214632 110.435065 
z
" style="fill:#e24a33;opacity:0.2;"/>
   </g>
   <g id="patch_35">
    <path clip-path="url(#p566a482be0)" d="M 213.216245 157.5 
L 215.617536 157.5 
L 215.617536 133.967532 
L 213.216245 133.967532 
z
" style="fill:#e24a33;opacity:0.2;"/>
   </g>
   <g id="patch_36">
    <path clip-path="url(#p566a482be0)" d="M 216.217859 157.5 
L 218.61915 157.5 
L 218.61915 133.967532 
L 216.217859 133.967532 
z
" style="fill:#e24a33;opacity:0.2;"/>
   </g>
   <g id="patch_37">
    <path clip-path="url(#p566a482be0)" d="M 219.219473 157.5 
L 221.620764 157.5 
L 221.620764 133.967532 
L 219.219473 133.967532 
z
" style="fill:#e24a33;opacity:0.2;"/>
   </g>
   <g id="patch_38">
    <path clip-path="url(#p566a482be0)" d="M 222.221087 157.5 
L 224.622378 157.5 
L 224.622378 145.733766 
L 222.221087 145.733766 
z
" style="fill:#e24a33;opacity:0.2;"/>
   </g>
   <g id="patch_39">
    <path clip-path="url(#p566a482be0)" d="M 225.2227 157.5 
L 227.623991 157.5 
L 227.623991 157.5 
L 225.2227 157.5 
z
" style="fill:#e24a33;opacity:0.2;"/>
   </g>
   <g id="patch_40">
    <path clip-path="url(#p566a482be0)" d="M 228.224314 157.5 
L 230.625605 157.5 
L 230.625605 122.201299 
L 228.224314 122.201299 
z
" style="fill:#e24a33;opacity:0.2;"/>
   </g>
   <g id="patch_41">
    <path clip-path="url(#p566a482be0)" d="M 231.225928 157.5 
L 233.627219 157.5 
L 233.627219 145.733766 
L 231.225928 145.733766 
z
" style="fill:#e24a33;opacity:0.2;"/>
   </g>
   <g id="patch_42">
    <path clip-path="url(#p566a482be0)" d="M 234.227542 157.5 
L 236.628833 157.5 
L 236.628833 28.071429 
L 234.227542 28.071429 
z
" style="fill:#e24a33;opacity:0.2;"/>
   </g>
   <g id="patch_43">
    <path clip-path="url(#p566a482be0)" d="M 237.229155 157.5 
L 239.630446 157.5 
L 239.630446 157.5 
L 237.229155 157.5 
z
" style="fill:#e24a33;opacity:0.2;"/>
   </g>
   <g id="patch_44">
    <path clip-path="url(#p566a482be0)" d="M 240.230769 157.5 
L 242.63206 157.5 
L 242.63206 75.136364 
L 240.230769 75.136364 
z
" style="fill:#e24a33;opacity:0.2;"/>
   </g>
   <g id="patch_45">
    <path clip-path="url(#p566a482be0)" d="M 243.232383 157.5 
L 245.633674 157.5 
L 245.633674 157.5 
L 243.232383 157.5 
z
" style="fill:#e24a33;opacity:0.2;"/>
   </g>
   <g id="patch_46">
    <path clip-path="url(#p566a482be0)" d="M 246.233997 157.5 
L 248.635288 157.5 
L 248.635288 75.136364 
L 246.233997 75.136364 
z
" style="fill:#e24a33;opacity:0.2;"/>
   </g>
   <g id="patch_47">
    <path clip-path="url(#p566a482be0)" d="M 249.235611 157.5 
L 251.636902 157.5 
L 251.636902 133.967532 
L 249.235611 133.967532 
z
" style="fill:#e24a33;opacity:0.2;"/>
   </g>
   <g id="patch_48">
    <path clip-path="url(#p566a482be0)" d="M 252.237224 157.5 
L 254.638515 157.5 
L 254.638515 86.902597 
L 252.237224 86.902597 
z
" style="fill:#e24a33;opacity:0.2;"/>
   </g>
   <g id="patch_49">
    <path clip-path="url(#p566a482be0)" d="M 255.238838 157.5 
L 257.640129 157.5 
L 257.640129 122.201299 
L 255.238838 122.201299 
z
" style="fill:#e24a33;opacity:0.2;"/>
   </g>
   <g id="patch_50">
    <path clip-path="url(#p566a482be0)" d="M 258.240452 157.5 
L 260.641743 157.5 
L 260.641743 145.733766 
L 258.240452 145.733766 
z
" style="fill:#e24a33;opacity:0.2;"/>
   </g>
   <g id="patch_51">
    <path clip-path="url(#p566a482be0)" d="M 261.242066 157.5 
L 263.643357 157.5 
L 263.643357 86.902597 
L 261.242066 86.902597 
z
" style="fill:#e24a33;opacity:0.2;"/>
   </g>
   <g id="patch_52">
    <path clip-path="url(#p566a482be0)" d="M 264.243679 157.5 
L 266.64497 157.5 
L 266.64497 86.902597 
L 264.243679 86.902597 
z
" style="fill:#e24a33;opacity:0.2;"/>
   </g>
   <g id="patch_53">
    <path clip-path="url(#p566a482be0)" d="M 267.245293 157.5 
L 269.646584 157.5 
L 269.646584 157.5 
L 267.245293 157.5 
z
" style="fill:#e24a33;opacity:0.2;"/>
   </g>
   <g id="patch_54">
    <path clip-path="url(#p566a482be0)" d="M 270.246907 157.5 
L 272.648198 157.5 
L 272.648198 86.902597 
L 270.246907 86.902597 
z
" style="fill:#e24a33;opacity:0.2;"/>
   </g>
   <g id="patch_55">
    <path clip-path="url(#p566a482be0)" d="M 273.248521 157.5 
L 275.649812 157.5 
L 275.649812 122.201299 
L 273.248521 122.201299 
z
" style="fill:#e24a33;opacity:0.2;"/>
   </g>
   <g id="patch_56">
    <path clip-path="url(#p566a482be0)" d="M 276.250134 157.5 
L 278.651425 157.5 
L 278.651425 157.5 
L 276.250134 157.5 
z
" style="fill:#e24a33;opacity:0.2;"/>
   </g>
   <g id="patch_57">
    <path clip-path="url(#p566a482be0)" d="M 279.251748 157.5 
L 281.653039 157.5 
L 281.653039 86.902597 
L 279.251748 86.902597 
z
" style="fill:#e24a33;opacity:0.2;"/>
   </g>
   <g id="patch_58">
    <path clip-path="url(#p566a482be0)" d="M 282.253362 157.5 
L 284.654653 157.5 
L 284.654653 122.201299 
L 282.253362 122.201299 
z
" style="fill:#e24a33;opacity:0.2;"/>
   </g>
   <g id="patch_59">
    <path clip-path="url(#p566a482be0)" d="M 285.254976 157.5 
L 287.656267 157.5 
L 287.656267 75.136364 
L 285.254976 75.136364 
z
" style="fill:#e24a33;opacity:0.2;"/>
   </g>
   <g id="patch_60">
    <path clip-path="url(#p566a482be0)" d="M 288.25659 157.5 
L 290.657881 157.5 
L 290.657881 122.201299 
L 288.25659 122.201299 
z
" style="fill:#e24a33;opacity:0.2;"/>
   </g>
   <g id="patch_61">
    <path clip-path="url(#p566a482be0)" d="M 291.258203 157.5 
L 293.659494 157.5 
L 293.659494 63.37013 
L 291.258203 63.37013 
z
" style="fill:#e24a33;opacity:0.2;"/>
   </g>
   <g id="patch_62">
    <path clip-path="url(#p566a482be0)" d="M 294.259817 157.5 
L 296.661108 157.5 
L 296.661108 51.603896 
L 294.259817 51.603896 
z
" style="fill:#e24a33;opacity:0.2;"/>
   </g>
   <g id="patch_63">
    <path clip-path="url(#p566a482be0)" d="M 297.261431 157.5 
L 299.662722 157.5 
L 299.662722 157.5 
L 297.261431 157.5 
z
" style="fill:#e24a33;opacity:0.2;"/>
   </g>
   <g id="patch_64">
    <path clip-path="url(#p566a482be0)" d="M 300.263045 157.5 
L 302.664336 157.5 
L 302.664336 51.603896 
L 300.263045 51.603896 
z
" style="fill:#e24a33;opacity:0.2;"/>
   </g>
   <g id="patch_65">
    <path clip-path="url(#p566a482be0)" d="M 303.264658 157.5 
L 305.665949 157.5 
L 305.665949 86.902597 
L 303.264658 86.902597 
z
" style="fill:#e24a33;opacity:0.2;"/>
   </g>
   <g id="patch_66">
    <path clip-path="url(#p566a482be0)" d="M 306.266272 157.5 
L 308.667563 157.5 
L 308.667563 98.668831 
L 306.266272 98.668831 
z
" style="fill:#e24a33;opacity:0.2;"/>
   </g>
   <g id="patch_67">
    <path clip-path="url(#p566a482be0)" d="M 309.267886 157.5 
L 311.669177 157.5 
L 311.669177 63.37013 
L 309.267886 63.37013 
z
" style="fill:#e24a33;opacity:0.2;"/>
   </g>
   <g id="patch_68">
    <path clip-path="url(#p566a482be0)" d="M 312.2695 157.5 
L 314.670791 157.5 
L 314.670791 98.668831 
L 312.2695 98.668831 
z
" style="fill:#e24a33;opacity:0.2;"/>
   </g>
   <g id="patch_69">
    <path clip-path="url(#p566a482be0)" d="M 315.271114 157.5 
L 317.672405 157.5 
L 317.672405 63.37013 
L 315.271114 63.37013 
z
" style="fill:#e24a33;opacity:0.2;"/>
   </g>
   <g id="patch_70">
    <path clip-path="url(#p566a482be0)" d="M 318.272727 157.5 
L 320.674018 157.5 
L 320.674018 86.902597 
L 318.272727 86.902597 
z
" style="fill:#e24a33;opacity:0.2;"/>
   </g>
   <g id="patch_71">
    <path clip-path="url(#p566a482be0)" d="M 321.274341 157.5 
L 323.675632 157.5 
L 323.675632 110.435065 
L 321.274341 110.435065 
z
" style="fill:#e24a33;opacity:0.2;"/>
   </g>
   <g id="patch_72">
    <path clip-path="url(#p566a482be0)" d="M 324.275955 157.5 
L 326.677246 157.5 
L 326.677246 122.201299 
L 324.275955 122.201299 
z
" style="fill:#e24a33;opacity:0.2;"/>
   </g>
   <g id="patch_73">
    <path clip-path="url(#p566a482be0)" d="M 327.277569 157.5 
L 329.67886 157.5 
L 329.67886 110.435065 
L 327.277569 110.435065 
z
" style="fill:#e24a33;opacity:0.2;"/>
   </g>
   <g id="patch_74">
    <path clip-path="url(#p566a482be0)" d="M 330.279182 157.5 
L 332.680473 157.5 
L 332.680473 98.668831 
L 330.279182 98.668831 
z
" style="fill:#e24a33;opacity:0.2;"/>
   </g>
   <g id="patch_75">
    <path clip-path="url(#p566a482be0)" d="M 333.280796 157.5 
L 335.682087 157.5 
L 335.682087 122.201299 
L 333.280796 122.201299 
z
" style="fill:#e24a33;opacity:0.2;"/>
   </g>
   <g id="patch_76">
    <path clip-path="url(#p566a482be0)" d="M 336.28241 157.5 
L 338.683701 157.5 
L 338.683701 86.902597 
L 336.28241 86.902597 
z
" style="fill:#e24a33;opacity:0.2;"/>
   </g>
   <g id="patch_77">
    <path clip-path="url(#p566a482be0)" d="M 339.284024 157.5 
L 341.685315 157.5 
L 341.685315 122.201299 
L 339.284024 122.201299 
z
" style="fill:#e24a33;opacity:0.2;"/>
   </g>
   <g id="patch_78">
    <path clip-path="url(#p566a482be0)" d="M 342.285637 157.5 
L 344.686928 157.5 
L 344.686928 86.902597 
L 342.285637 86.902597 
z
" style="fill:#e24a33;opacity:0.2;"/>
   </g>
   <g id="patch_79">
    <path clip-path="url(#p566a482be0)" d="M 345.287251 157.5 
L 347.688542 157.5 
L 347.688542 63.37013 
L 345.287251 63.37013 
z
" style="fill:#e24a33;opacity:0.2;"/>
   </g>
   <g id="patch_80">
    <path clip-path="url(#p566a482be0)" d="M 348.288865 157.5 
L 350.690156 157.5 
L 350.690156 110.435065 
L 348.288865 110.435065 
z
" style="fill:#e24a33;opacity:0.2;"/>
   </g>
   <g id="patch_81">
    <path clip-path="url(#p566a482be0)" d="M 351.290479 157.5 
L 353.69177 157.5 
L 353.69177 110.435065 
L 351.290479 110.435065 
z
" style="fill:#e24a33;opacity:0.2;"/>
   </g>
   <g id="patch_82">
    <path clip-path="url(#p566a482be0)" d="M 354.292093 157.5 
L 356.693384 157.5 
L 356.693384 122.201299 
L 354.292093 122.201299 
z
" style="fill:#e24a33;opacity:0.2;"/>
   </g>
   <g id="patch_83">
    <path clip-path="url(#p566a482be0)" d="M 357.293706 157.5 
L 359.694997 157.5 
L 359.694997 122.201299 
L 357.293706 122.201299 
z
" style="fill:#e24a33;opacity:0.2;"/>
   </g>
   <g id="patch_84">
    <path clip-path="url(#p566a482be0)" d="M 360.29532 157.5 
L 362.696611 157.5 
L 362.696611 122.201299 
L 360.29532 122.201299 
z
" style="fill:#e24a33;opacity:0.2;"/>
   </g>
   <g id="patch_85">
    <path clip-path="url(#p566a482be0)" d="M 363.296934 157.5 
L 365.698225 157.5 
L 365.698225 98.668831 
L 363.296934 98.668831 
z
" style="fill:#e24a33;opacity:0.2;"/>
   </g>
   <g id="patch_86">
    <path clip-path="url(#p566a482be0)" d="M 366.298548 157.5 
L 368.699839 157.5 
L 368.699839 122.201299 
L 366.298548 122.201299 
z
" style="fill:#e24a33;opacity:0.2;"/>
   </g>
   <g id="patch_87">
    <path clip-path="url(#p566a482be0)" d="M 369.300161 157.5 
L 371.701452 157.5 
L 371.701452 110.435065 
L 369.300161 110.435065 
z
" style="fill:#e24a33;opacity:0.2;"/>
   </g>
   <g id="patch_88">
    <path clip-path="url(#p566a482be0)" d="M 372.301775 157.5 
L 374.703066 157.5 
L 374.703066 145.733766 
L 372.301775 145.733766 
z
" style="fill:#e24a33;opacity:0.2;"/>
   </g>
   <g id="patch_89">
    <path clip-path="url(#p566a482be0)" d="M 375.303389 157.5 
L 377.70468 157.5 
L 377.70468 133.967532 
L 375.303389 133.967532 
z
" style="fill:#e24a33;opacity:0.2;"/>
   </g>
   <g id="patch_90">
    <path clip-path="url(#p566a482be0)" d="M 378.305003 157.5 
L 380.706294 157.5 
L 380.706294 133.967532 
L 378.305003 133.967532 
z
" style="fill:#e24a33;opacity:0.2;"/>
   </g>
   <g id="patch_91">
    <path clip-path="url(#p566a482be0)" d="M 381.306616 157.5 
L 383.707907 157.5 
L 383.707907 133.967532 
L 381.306616 133.967532 
z
" style="fill:#e24a33;opacity:0.2;"/>
   </g>
   <g id="patch_92">
    <path clip-path="url(#p566a482be0)" d="M 384.30823 157.5 
L 386.709521 157.5 
L 386.709521 145.733766 
L 384.30823 145.733766 
z
" style="fill:#e24a33;opacity:0.2;"/>
   </g>
   <g id="patch_93">
    <path clip-path="url(#p566a482be0)" d="M 387.309844 157.5 
L 389.711135 157.5 
L 389.711135 145.733766 
L 387.309844 145.733766 
z
" style="fill:#e24a33;opacity:0.2;"/>
   </g>
   <g id="patch_94">
    <path clip-path="url(#p566a482be0)" d="M 390.311458 157.5 
L 392.712749 157.5 
L 392.712749 133.967532 
L 390.311458 133.967532 
z
" style="fill:#e24a33;opacity:0.2;"/>
   </g>
   <g id="patch_95">
    <path clip-path="url(#p566a482be0)" d="M 393.313072 157.5 
L 395.714363 157.5 
L 395.714363 157.5 
L 393.313072 157.5 
z
" style="fill:#e24a33;opacity:0.2;"/>
   </g>
   <g id="patch_96">
    <path clip-path="url(#p566a482be0)" d="M 396.314685 157.5 
L 398.715976 157.5 
L 398.715976 133.967532 
L 396.314685 133.967532 
z
" style="fill:#e24a33;opacity:0.2;"/>
   </g>
   <g id="patch_97">
    <path clip-path="url(#p566a482be0)" d="M 399.316299 157.5 
L 401.71759 157.5 
L 401.71759 145.733766 
L 399.316299 145.733766 
z
" style="fill:#e24a33;opacity:0.2;"/>
   </g>
   <g id="patch_98">
    <path clip-path="url(#p566a482be0)" d="M 402.317913 157.5 
L 404.719204 157.5 
L 404.719204 145.733766 
L 402.317913 145.733766 
z
" style="fill:#e24a33;opacity:0.2;"/>
   </g>
   <g id="patch_99">
    <path clip-path="url(#p566a482be0)" d="M 405.319527 157.5 
L 407.720818 157.5 
L 407.720818 133.967532 
L 405.319527 133.967532 
z
" style="fill:#e24a33;opacity:0.2;"/>
   </g>
   <g id="patch_100">
    <path clip-path="url(#p566a482be0)" d="M 408.32114 157.5 
L 410.722431 157.5 
L 410.722431 145.733766 
L 408.32114 145.733766 
z
" style="fill:#e24a33;opacity:0.2;"/>
   </g>
   <g id="patch_101">
    <path clip-path="url(#p566a482be0)" d="M 411.322754 157.5 
L 413.724045 157.5 
L 413.724045 145.733766 
L 411.322754 145.733766 
z
" style="fill:#e24a33;opacity:0.2;"/>
   </g>
   <g id="patch_102">
    <path clip-path="url(#p566a482be0)" d="M 414.324368 157.5 
L 416.725659 157.5 
L 416.725659 133.967532 
L 414.324368 133.967532 
z
" style="fill:#e24a33;opacity:0.2;"/>
   </g>
   <g id="patch_103">
    <path clip-path="url(#p566a482be0)" d="M 417.325982 157.5 
L 419.727273 157.5 
L 419.727273 157.5 
L 417.325982 157.5 
z
" style="fill:#e24a33;opacity:0.2;"/>
   </g>
   <g id="patch_104">
    <path clip-path="url(#p566a482be0)" d="M 420.327595 157.5 
L 422.728886 157.5 
L 422.728886 133.967532 
L 420.327595 133.967532 
z
" style="fill:#e24a33;opacity:0.2;"/>
   </g>
   <g id="patch_105">
    <path clip-path="url(#p566a482be0)" d="M 423.329209 157.5 
L 425.7305 157.5 
L 425.7305 133.967532 
L 423.329209 133.967532 
z
" style="fill:#e24a33;opacity:0.2;"/>
   </g>
   <g id="patch_106">
    <path clip-path="url(#p566a482be0)" d="M 426.330823 157.5 
L 428.732114 157.5 
L 428.732114 145.733766 
L 426.330823 145.733766 
z
" style="fill:#e24a33;opacity:0.2;"/>
   </g>
   <g id="patch_107">
    <path clip-path="url(#p566a482be0)" d="M 429.332437 157.5 
L 431.733728 157.5 
L 431.733728 145.733766 
L 429.332437 145.733766 
z
" style="fill:#e24a33;opacity:0.2;"/>
   </g>
   <g id="patch_108">
    <path clip-path="url(#p566a482be0)" d="M 432.334051 157.5 
L 434.735342 157.5 
L 434.735342 157.5 
L 432.334051 157.5 
z
" style="fill:#e24a33;opacity:0.2;"/>
   </g>
   <g id="patch_109">
    <path clip-path="url(#p566a482be0)" d="M 435.335664 157.5 
L 437.736955 157.5 
L 437.736955 157.5 
L 435.335664 157.5 
z
" style="fill:#e24a33;opacity:0.2;"/>
   </g>
   <g id="patch_110">
    <path clip-path="url(#p566a482be0)" d="M 438.337278 157.5 
L 440.738569 157.5 
L 440.738569 157.5 
L 438.337278 157.5 
z
" style="fill:#e24a33;opacity:0.2;"/>
   </g>
   <g id="patch_111">
    <path clip-path="url(#p566a482be0)" d="M 441.338892 157.5 
L 443.740183 157.5 
L 443.740183 157.5 
L 441.338892 157.5 
z
" style="fill:#e24a33;opacity:0.2;"/>
   </g>
   <g id="patch_112">
    <path clip-path="url(#p566a482be0)" d="M 444.340506 157.5 
L 446.741797 157.5 
L 446.741797 133.967532 
L 444.340506 133.967532 
z
" style="fill:#e24a33;opacity:0.2;"/>
   </g>
   <g id="patch_113">
    <path clip-path="url(#p566a482be0)" d="M 447.342119 157.5 
L 449.74341 157.5 
L 449.74341 145.733766 
L 447.342119 145.733766 
z
" style="fill:#e24a33;opacity:0.2;"/>
   </g>
   <g id="patch_114">
    <path clip-path="url(#p566a482be0)" d="M 450.343733 157.5 
L 452.745024 157.5 
L 452.745024 145.733766 
L 450.343733 145.733766 
z
" style="fill:#e24a33;opacity:0.2;"/>
   </g>
   <g id="patch_115">
    <path clip-path="url(#p566a482be0)" d="M 453.345347 157.5 
L 455.746638 157.5 
L 455.746638 157.5 
L 453.345347 157.5 
z
" style="fill:#e24a33;opacity:0.2;"/>
   </g>
   <g id="patch_116">
    <path clip-path="url(#p566a482be0)" d="M 456.346961 157.5 
L 458.748252 157.5 
L 458.748252 133.967532 
L 456.346961 133.967532 
z
" style="fill:#e24a33;opacity:0.2;"/>
   </g>
   <g id="patch_117">
    <path clip-path="url(#p566a482be0)" d="M 459.348575 157.5 
L 461.749866 157.5 
L 461.749866 157.5 
L 459.348575 157.5 
z
" style="fill:#e24a33;opacity:0.2;"/>
   </g>
   <g id="patch_118">
    <path clip-path="url(#p566a482be0)" d="M 462.350188 157.5 
L 464.751479 157.5 
L 464.751479 145.733766 
L 462.350188 145.733766 
z
" style="fill:#e24a33;opacity:0.2;"/>
   </g>
   <g id="patch_119">
    <path clip-path="url(#p566a482be0)" d="M 465.351802 157.5 
L 467.753093 157.5 
L 467.753093 157.5 
L 465.351802 157.5 
z
" style="fill:#e24a33;opacity:0.2;"/>
   </g>
   <g id="patch_120">
    <path clip-path="url(#p566a482be0)" d="M 468.353416 157.5 
L 470.754707 157.5 
L 470.754707 157.5 
L 468.353416 157.5 
z
" style="fill:#e24a33;opacity:0.2;"/>
   </g>
   <g id="patch_121">
    <path clip-path="url(#p566a482be0)" d="M 471.35503 157.5 
L 473.756321 157.5 
L 473.756321 145.733766 
L 471.35503 145.733766 
z
" style="fill:#e24a33;opacity:0.2;"/>
   </g>
   <g id="patch_122">
    <path clip-path="url(#p566a482be0)" d="M 474.356643 157.5 
L 476.757934 157.5 
L 476.757934 157.5 
L 474.356643 157.5 
z
" style="fill:#e24a33;opacity:0.2;"/>
   </g>
   <g id="patch_123">
    <path clip-path="url(#p566a482be0)" d="M 477.358257 157.5 
L 479.759548 157.5 
L 479.759548 133.967532 
L 477.358257 133.967532 
z
" style="fill:#e24a33;opacity:0.2;"/>
   </g>
   <g id="patch_124">
    <path clip-path="url(#p566a482be0)" d="M 480.359871 157.5 
L 482.761162 157.5 
L 482.761162 157.5 
L 480.359871 157.5 
z
" style="fill:#e24a33;opacity:0.2;"/>
   </g>
   <g id="patch_125">
    <path clip-path="url(#p566a482be0)" d="M 483.361485 157.5 
L 485.762776 157.5 
L 485.762776 145.733766 
L 483.361485 145.733766 
z
" style="fill:#e24a33;opacity:0.2;"/>
   </g>
   <g id="patch_126">
    <path clip-path="url(#p566a482be0)" d="M 486.363098 157.5 
L 488.764389 157.5 
L 488.764389 133.967532 
L 486.363098 133.967532 
z
" style="fill:#e24a33;opacity:0.2;"/>
   </g>
   <g id="patch_127">
    <path clip-path="url(#p566a482be0)" d="M 489.364712 157.5 
L 491.766003 157.5 
L 491.766003 157.5 
L 489.364712 157.5 
z
" style="fill:#e24a33;opacity:0.2;"/>
   </g>
   <g id="patch_128">
    <path clip-path="url(#p566a482be0)" d="M 492.366326 157.5 
L 494.767617 157.5 
L 494.767617 157.5 
L 492.366326 157.5 
z
" style="fill:#e24a33;opacity:0.2;"/>
   </g>
   <g id="patch_129">
    <path clip-path="url(#p566a482be0)" d="M 495.36794 157.5 
L 497.769231 157.5 
L 497.769231 157.5 
L 495.36794 157.5 
z
" style="fill:#e24a33;opacity:0.2;"/>
   </g>
   <g id="patch_130">
    <path clip-path="url(#p566a482be0)" d="M 498.369554 157.5 
L 500.770845 157.5 
L 500.770845 157.5 
L 498.369554 157.5 
z
" style="fill:#e24a33;opacity:0.2;"/>
   </g>
   <g id="patch_131">
    <path clip-path="url(#p566a482be0)" d="M 501.371167 157.5 
L 503.772458 157.5 
L 503.772458 145.733766 
L 501.371167 145.733766 
z
" style="fill:#e24a33;opacity:0.2;"/>
   </g>
   <g id="patch_132">
    <path clip-path="url(#p566a482be0)" d="M 504.372781 157.5 
L 506.774072 157.5 
L 506.774072 145.733766 
L 504.372781 145.733766 
z
" style="fill:#e24a33;opacity:0.2;"/>
   </g>
   <g id="patch_133">
    <path clip-path="url(#p566a482be0)" d="M 507.374395 157.5 
L 509.775686 157.5 
L 509.775686 145.733766 
L 507.374395 145.733766 
z
" style="fill:#e24a33;opacity:0.2;"/>
   </g>
   <g id="patch_134">
    <path clip-path="url(#p566a482be0)" d="M 510.376009 157.5 
L 512.7773 157.5 
L 512.7773 145.733766 
L 510.376009 145.733766 
z
" style="fill:#e24a33;opacity:0.2;"/>
   </g>
   <g id="patch_135">
    <path clip-path="url(#p566a482be0)" d="M 513.377622 157.5 
L 515.778913 157.5 
L 515.778913 157.5 
L 513.377622 157.5 
z
" style="fill:#e24a33;opacity:0.2;"/>
   </g>
   <g id="patch_136">
    <path clip-path="url(#p566a482be0)" d="M 516.379236 157.5 
L 518.780527 157.5 
L 518.780527 157.5 
L 516.379236 157.5 
z
" style="fill:#e24a33;opacity:0.2;"/>
   </g>
   <g id="patch_137">
    <path clip-path="url(#p566a482be0)" d="M 519.38085 157.5 
L 521.782141 157.5 
L 521.782141 157.5 
L 519.38085 157.5 
z
" style="fill:#e24a33;opacity:0.2;"/>
   </g>
   <g id="patch_138">
    <path clip-path="url(#p566a482be0)" d="M 522.382464 157.5 
L 524.783755 157.5 
L 524.783755 157.5 
L 522.382464 157.5 
z
" style="fill:#e24a33;opacity:0.2;"/>
   </g>
   <g id="patch_139">
    <path clip-path="url(#p566a482be0)" d="M 525.384077 157.5 
L 527.785368 157.5 
L 527.785368 157.5 
L 525.384077 157.5 
z
" style="fill:#e24a33;opacity:0.2;"/>
   </g>
   <g id="patch_140">
    <path clip-path="url(#p566a482be0)" d="M 528.385691 157.5 
L 530.786982 157.5 
L 530.786982 145.733766 
L 528.385691 145.733766 
z
" style="fill:#e24a33;opacity:0.2;"/>
   </g>
   <g id="patch_141">
    <path clip-path="url(#p566a482be0)" d="M 531.387305 157.5 
L 533.788596 157.5 
L 533.788596 133.967532 
L 531.387305 133.967532 
z
" style="fill:#e24a33;opacity:0.2;"/>
   </g>
   <g id="patch_142">
    <path clip-path="url(#p566a482be0)" d="M 534.388919 157.5 
L 536.79021 157.5 
L 536.79021 157.5 
L 534.388919 157.5 
z
" style="fill:#e24a33;opacity:0.2;"/>
   </g>
   <g id="patch_143">
    <path clip-path="url(#p566a482be0)" d="M 537.390533 157.5 
L 539.791824 157.5 
L 539.791824 145.733766 
L 537.390533 145.733766 
z
" style="fill:#e24a33;opacity:0.2;"/>
   </g>
   <g id="patch_144">
    <path clip-path="url(#p566a482be0)" d="M 540.392146 157.5 
L 542.793437 157.5 
L 542.793437 157.5 
L 540.392146 157.5 
z
" style="fill:#e24a33;opacity:0.2;"/>
   </g>
   <g id="patch_145">
    <path clip-path="url(#p566a482be0)" d="M 543.39376 157.5 
L 545.795051 157.5 
L 545.795051 157.5 
L 543.39376 157.5 
z
" style="fill:#e24a33;opacity:0.2;"/>
   </g>
   <g id="patch_146">
    <path clip-path="url(#p566a482be0)" d="M 546.395374 157.5 
L 548.796665 157.5 
L 548.796665 157.5 
L 546.395374 157.5 
z
" style="fill:#e24a33;opacity:0.2;"/>
   </g>
   <g id="patch_147">
    <path clip-path="url(#p566a482be0)" d="M 549.396988 157.5 
L 551.798279 157.5 
L 551.798279 145.733766 
L 549.396988 145.733766 
z
" style="fill:#e24a33;opacity:0.2;"/>
   </g>
   <g id="patch_148">
    <path clip-path="url(#p566a482be0)" d="M 552.398601 157.5 
L 554.799892 157.5 
L 554.799892 145.733766 
L 552.398601 145.733766 
z
" style="fill:#e24a33;opacity:0.2;"/>
   </g>
   <g id="patch_149">
    <path clip-path="url(#p566a482be0)" d="M 555.400215 157.5 
L 557.801506 157.5 
L 557.801506 145.733766 
L 555.400215 145.733766 
z
" style="fill:#e24a33;opacity:0.2;"/>
   </g>
   <g id="patch_150">
    <path clip-path="url(#p566a482be0)" d="M 558.401829 157.5 
L 560.80312 157.5 
L 560.80312 157.5 
L 558.401829 157.5 
z
" style="fill:#e24a33;opacity:0.2;"/>
   </g>
   <g id="patch_151">
    <path clip-path="url(#p566a482be0)" d="M 561.403443 157.5 
L 563.804734 157.5 
L 563.804734 157.5 
L 561.403443 157.5 
z
" style="fill:#e24a33;opacity:0.2;"/>
   </g>
   <g id="patch_152">
    <path clip-path="url(#p566a482be0)" d="M 564.405056 157.5 
L 566.806347 157.5 
L 566.806347 157.5 
L 564.405056 157.5 
z
" style="fill:#e24a33;opacity:0.2;"/>
   </g>
   <g id="patch_153">
    <path clip-path="url(#p566a482be0)" d="M 567.40667 157.5 
L 569.807961 157.5 
L 569.807961 157.5 
L 567.40667 157.5 
z
" style="fill:#e24a33;opacity:0.2;"/>
   </g>
   <g id="patch_154">
    <path clip-path="url(#p566a482be0)" d="M 570.408284 157.5 
L 572.809575 157.5 
L 572.809575 145.733766 
L 570.408284 145.733766 
z
" style="fill:#e24a33;opacity:0.2;"/>
   </g>
   <g id="patch_155">
    <path clip-path="url(#p566a482be0)" d="M 573.409898 157.5 
L 575.811189 157.5 
L 575.811189 157.5 
L 573.409898 157.5 
z
" style="fill:#e24a33;opacity:0.2;"/>
   </g>
   <g id="patch_156">
    <path clip-path="url(#p566a482be0)" d="M 576.411512 157.5 
L 578.812803 157.5 
L 578.812803 145.733766 
L 576.411512 145.733766 
z
" style="fill:#e24a33;opacity:0.2;"/>
   </g>
   <g id="patch_157">
    <path clip-path="url(#p566a482be0)" d="M 579.413125 157.5 
L 581.814416 157.5 
L 581.814416 157.5 
L 579.413125 157.5 
z
" style="fill:#e24a33;opacity:0.2;"/>
   </g>
   <g id="patch_158">
    <path clip-path="url(#p566a482be0)" d="M 582.414739 157.5 
L 584.81603 157.5 
L 584.81603 157.5 
L 582.414739 157.5 
z
" style="fill:#e24a33;opacity:0.2;"/>
   </g>
   <g id="patch_159">
    <path clip-path="url(#p566a482be0)" d="M 585.416353 157.5 
L 587.817644 157.5 
L 587.817644 157.5 
L 585.416353 157.5 
z
" style="fill:#e24a33;opacity:0.2;"/>
   </g>
   <g id="patch_160">
    <path clip-path="url(#p566a482be0)" d="M 588.417967 157.5 
L 590.819258 157.5 
L 590.819258 157.5 
L 588.417967 157.5 
z
" style="fill:#e24a33;opacity:0.2;"/>
   </g>
   <g id="patch_161">
    <path clip-path="url(#p566a482be0)" d="M 591.41958 157.5 
L 593.820871 157.5 
L 593.820871 157.5 
L 591.41958 157.5 
z
" style="fill:#e24a33;opacity:0.2;"/>
   </g>
   <g id="patch_162">
    <path clip-path="url(#p566a482be0)" d="M 594.421194 157.5 
L 596.822485 157.5 
L 596.822485 157.5 
L 594.421194 157.5 
z
" style="fill:#e24a33;opacity:0.2;"/>
   </g>
   <g id="patch_163">
    <path clip-path="url(#p566a482be0)" d="M 597.422808 157.5 
L 599.824099 157.5 
L 599.824099 157.5 
L 597.422808 157.5 
z
" style="fill:#e24a33;opacity:0.2;"/>
   </g>
   <g id="patch_164">
    <path clip-path="url(#p566a482be0)" d="M 600.424422 157.5 
L 602.825713 157.5 
L 602.825713 157.5 
L 600.424422 157.5 
z
" style="fill:#e24a33;opacity:0.2;"/>
   </g>
   <g id="patch_165">
    <path clip-path="url(#p566a482be0)" d="M 603.426036 157.5 
L 605.827327 157.5 
L 605.827327 145.733766 
L 603.426036 145.733766 
z
" style="fill:#e24a33;opacity:0.2;"/>
   </g>
   <g id="patch_166">
    <path clip-path="url(#p566a482be0)" d="M 606.427649 157.5 
L 608.82894 157.5 
L 608.82894 157.5 
L 606.427649 157.5 
z
" style="fill:#e24a33;opacity:0.2;"/>
   </g>
   <g id="patch_167">
    <path clip-path="url(#p566a482be0)" d="M 609.429263 157.5 
L 611.830554 157.5 
L 611.830554 145.733766 
L 609.429263 145.733766 
z
" style="fill:#e24a33;opacity:0.2;"/>
   </g>
   <g id="patch_168">
    <path clip-path="url(#p566a482be0)" d="M 612.430877 157.5 
L 614.832168 157.5 
L 614.832168 145.733766 
L 612.430877 145.733766 
z
" style="fill:#e24a33;opacity:0.2;"/>
   </g>
   <g id="patch_169">
    <path clip-path="url(#p566a482be0)" d="M 615.432491 157.5 
L 617.833782 157.5 
L 617.833782 157.5 
L 615.432491 157.5 
z
" style="fill:#e24a33;opacity:0.2;"/>
   </g>
   <g id="patch_170">
    <path clip-path="url(#p566a482be0)" d="M 618.434104 157.5 
L 620.835395 157.5 
L 620.835395 133.967532 
L 618.434104 133.967532 
z
" style="fill:#e24a33;opacity:0.2;"/>
   </g>
   <g id="patch_171">
    <path clip-path="url(#p566a482be0)" d="M 621.435718 157.5 
L 623.837009 157.5 
L 623.837009 145.733766 
L 621.435718 145.733766 
z
" style="fill:#e24a33;opacity:0.2;"/>
   </g>
   <g id="line2d_31">
    <path clip-path="url(#p566a482be0)" d="M 118.36525 157.5 
L 184.400753 157.5 
L 187.402367 157.337803 
L 190.403981 156.890244 
L 193.405594 156.220999 
L 196.407208 154.77146 
L 199.408822 152.618375 
L 202.410436 149.761115 
L 205.412049 146.274506 
L 208.413663 143.014843 
L 211.415277 140.388874 
L 214.416891 138.518675 
L 217.418505 137.656019 
L 220.420118 135.915202 
L 223.421732 133.95374 
L 226.423346 130.752378 
L 232.426573 123.008626 
L 235.428187 118.598399 
L 238.429801 114.721087 
L 241.431415 111.592175 
L 244.433029 110.249049 
L 247.434642 110.622446 
L 250.436256 111.255128 
L 253.43787 112.387208 
L 256.439484 112.546824 
L 259.441097 112.462208 
L 262.442711 113.490386 
L 265.444325 114.160756 
L 268.445939 115.556995 
L 271.447552 115.678436 
L 274.449166 115.409297 
L 277.45078 114.209563 
L 283.454008 107.66363 
L 286.455621 102.973689 
L 289.457235 98.003491 
L 292.458849 94.577424 
L 295.460463 90.793527 
L 298.462076 88.688658 
L 301.46369 87.116655 
L 304.465304 85.720955 
L 310.468531 85.208079 
L 313.470145 86.743389 
L 316.471759 89.117384 
L 319.473373 92.298987 
L 322.474987 96.474864 
L 325.4766 100.14571 
L 328.478214 103.381169 
L 331.479828 104.973097 
L 334.481442 104.897298 
L 337.483055 103.444798 
L 340.484669 101.609654 
L 343.486283 100.836872 
L 346.487897 101.232648 
L 349.48951 102.933908 
L 352.491124 105.275305 
L 355.492738 107.960139 
L 361.495966 114.585668 
L 364.497579 117.785791 
L 367.499193 120.660831 
L 370.500807 123.215883 
L 373.502421 126.197548 
L 376.504034 129.531704 
L 379.505648 133.05742 
L 382.507262 136.280925 
L 385.508876 138.760345 
L 388.51049 140.54693 
L 391.512103 141.639701 
L 394.513717 142.326327 
L 397.515331 142.773887 
L 406.520172 142.648332 
L 415.525013 142.087261 
L 418.526627 142.297528 
L 421.528241 142.858599 
L 424.529855 143.933286 
L 430.533082 147.234452 
L 433.534696 148.765177 
L 436.53631 149.902365 
L 439.537924 150.425109 
L 442.539537 150.455096 
L 445.541151 149.878279 
L 451.544379 148.168602 
L 454.545992 147.940964 
L 457.547606 148.309764 
L 463.550834 150.028482 
L 466.552448 150.575263 
L 469.554061 150.812478 
L 475.557289 149.905316 
L 481.560516 148.724335 
L 484.56213 148.918906 
L 487.563744 149.368843 
L 490.565358 150.196631 
L 493.566971 150.878008 
L 499.570199 151.343563 
L 505.573427 151.058762 
L 508.57504 151.112785 
L 511.576654 151.383155 
L 517.579882 152.682053 
L 520.581495 153.08393 
L 523.583109 152.985411 
L 532.587951 151.226911 
L 535.589564 150.950589 
L 538.591178 150.929643 
L 541.592792 151.055812 
L 553.599247 152.183907 
L 556.600861 152.307074 
L 565.605702 153.276815 
L 568.607316 153.708679 
L 574.610543 154.144196 
L 580.613771 154.576762 
L 589.618612 156.344166 
L 592.620226 156.604881 
L 595.62184 156.344166 
L 598.623453 155.641932 
L 601.625067 154.702317 
L 604.626681 153.420928 
L 613.631522 149.058339 
L 619.63475 146.852934 
L 622.636364 146.28667 
L 622.636364 146.28667 
" style="fill:none;stroke:#e24a33;stroke-linecap:square;stroke-width:3;"/>
   </g>
   <g id="patch_172">
    <path d="M 90 157.5 
L 90 21.6 
" style="fill:none;stroke:#ffffff;stroke-linecap:square;stroke-linejoin:miter;"/>
   </g>
   <g id="patch_173">
    <path d="M 648 157.5 
L 648 21.6 
" style="fill:none;stroke:#ffffff;stroke-linecap:square;stroke-linejoin:miter;"/>
   </g>
   <g id="patch_174">
    <path d="M 90 157.5 
L 648 157.5 
" style="fill:none;stroke:#ffffff;stroke-linecap:square;stroke-linejoin:miter;"/>
   </g>
   <g id="patch_175">
    <path d="M 90 21.6 
L 648 21.6 
" style="fill:none;stroke:#ffffff;stroke-linecap:square;stroke-linejoin:miter;"/>
   </g>
   <g id="legend_1">
    <g id="patch_176">
     <path d="M 419 57.35 
L 641 57.35 
Q 643 57.35 643 55.35 
L 643 28.6 
Q 643 26.6 641 26.6 
L 419 26.6 
Q 417 26.6 417 28.6 
L 417 55.35 
Q 417 57.35 419 57.35 
z
" style="fill:#e5e5e5;opacity:0.8;stroke:#cccccc;stroke-linejoin:miter;stroke-width:0.5;"/>
    </g>
    <g id="line2d_32">
     <path d="M 421 34.45 
L 441 34.45 
" style="fill:none;stroke:#e24a33;stroke-linecap:square;stroke-width:3;"/>
    </g>
    <g id="line2d_33"/>
    <g id="text_20">
     <!-- Korea, South new deaths (rolling mean) -->
     <defs>
      <path d="M 16.59375 31.203125 
L 11.703125 25.796875 
L 11.703125 0 
L 4.203125 0 
L 4.203125 62.296875 
L 12.59375 62.296875 
L 12.59375 61.59375 
Q 12 61 11.84375 60.296875 
Q 11.703125 59.59375 11.703125 57.90625 
L 11.703125 33.59375 
L 37.703125 62.796875 
Q 38.796875 62.59375 40.09375 62.4375 
Q 41.40625 62.296875 42.90625 62.296875 
L 45.5 62.296875 
L 21.90625 35.40625 
L 47.09375 0 
L 38.09375 -0.40625 
z
" id="Inconsolata-Regular-75"/>
      <path d="M 25 -0.796875 
Q 18.796875 -0.796875 14.046875 2.25 
Q 9.296875 5.296875 6.59375 10.640625 
Q 3.90625 16 3.90625 22.90625 
Q 3.90625 29.90625 6.59375 35.25 
Q 9.296875 40.59375 14.046875 43.640625 
Q 18.796875 46.703125 25 46.703125 
Q 31.203125 46.703125 35.953125 43.640625 
Q 40.703125 40.59375 43.390625 35.25 
Q 46.09375 29.90625 46.09375 22.90625 
Q 46.09375 16 43.390625 10.640625 
Q 40.703125 5.296875 35.953125 2.25 
Q 31.203125 -0.796875 25 -0.796875 
z
M 25 5.203125 
Q 29 5.203125 32 7.5 
Q 35 9.796875 36.75 13.796875 
Q 38.5 17.796875 38.5 23 
Q 38.5 30.796875 34.703125 35.75 
Q 30.90625 40.703125 25 40.703125 
Q 19.09375 40.703125 15.296875 35.75 
Q 11.5 30.796875 11.5 23 
Q 11.5 17.796875 13.25 13.796875 
Q 15 9.796875 18.046875 7.5 
Q 21.09375 5.203125 25 5.203125 
z
" id="Inconsolata-Regular-111"/>
      <path d="M 11.90625 45.703125 
L 19.40625 45.703125 
L 19.203125 37.296875 
Q 21.09375 41.90625 25.09375 44.34375 
Q 29.09375 46.796875 33.703125 46.796875 
Q 41 46.796875 45.796875 41.796875 
L 42.59375 36.203125 
L 42.203125 35.296875 
L 41.5 35.703125 
Q 41.296875 36.5 40.890625 37.203125 
Q 40.5 37.90625 39.203125 38.90625 
Q 37.59375 39.90625 36.25 40.25 
Q 34.90625 40.59375 33.203125 40.59375 
Q 29.90625 40.59375 26.65625 38.890625 
Q 23.40625 37.203125 21.296875 33.59375 
Q 19.203125 30 19.203125 24.203125 
L 19.203125 -0.09375 
L 11.90625 -0.09375 
z
" id="Inconsolata-Regular-114"/>
      <path d="M 19.90625 -16.796875 
L 16.5 -13.796875 
Q 19.296875 -11.203125 21.140625 -8.203125 
Q 23 -5.203125 23 -3.296875 
Q 23 -1.90625 21.75 -0.84375 
Q 20.5 0.203125 19.203125 1.390625 
Q 17.90625 2.59375 17.90625 4.40625 
Q 17.90625 6.90625 19.546875 8.59375 
Q 21.203125 10.296875 23.796875 10.296875 
Q 26.40625 10.296875 28.5 8 
Q 30.59375 5.703125 30.59375 2 
Q 30.59375 -5.796875 19.90625 -16.796875 
z
" id="Inconsolata-Regular-44"/>
      <path d="M 24.703125 -1 
Q 12.59375 -1 5.203125 6.90625 
L 8.796875 13.203125 
L 9.203125 14.09375 
L 9.90625 13.703125 
Q 10.09375 13 10.390625 12.140625 
Q 10.703125 11.296875 11.796875 10.09375 
Q 14.40625 7.90625 17.84375 6.59375 
Q 21.296875 5.296875 25.703125 5.296875 
Q 31.296875 5.296875 34.9375 8.4375 
Q 38.59375 11.59375 38.59375 16 
Q 38.59375 18.90625 37.4375 20.90625 
Q 36.296875 22.90625 33.25 24.796875 
Q 30.203125 26.703125 24.296875 29.203125 
Q 14.59375 33 10.890625 37.703125 
Q 7.203125 42.40625 7.203125 47.703125 
Q 7.203125 54.59375 12.296875 58.84375 
Q 17.40625 63.09375 26.203125 63.09375 
Q 31.296875 63.09375 35.796875 61.046875 
Q 40.296875 59 43.5 55.296875 
L 39 49.296875 
L 38.40625 49.703125 
Q 38.296875 50.5 38 51.296875 
Q 37.703125 52.09375 36.59375 53.296875 
Q 34.203125 55.59375 31.5 56.4375 
Q 28.796875 57.296875 25.09375 57.296875 
Q 20.203125 57.296875 17.296875 54.59375 
Q 14.40625 51.90625 14.40625 48.203125 
Q 14.40625 45.40625 15.65625 43.25 
Q 16.90625 41.09375 20.203125 39 
Q 23.5 36.90625 29.796875 34.40625 
Q 35.90625 31.90625 39.296875 29.34375 
Q 42.703125 26.796875 44.09375 23.84375 
Q 45.5 20.90625 45.5 17 
Q 45.5 12.703125 43.34375 8.546875 
Q 41.203125 4.40625 36.59375 1.703125 
Q 32 -1 24.703125 -1 
z
" id="Inconsolata-Regular-83"/>
      <path d="M 22.09375 -1.09375 
Q 15.296875 -1.09375 10.796875 4 
Q 6.296875 9.09375 6.40625 20.203125 
L 6.5 45.703125 
L 13.5 45.703125 
L 13.5 20.203125 
Q 13.5 11.5 16.546875 8.09375 
Q 19.59375 4.703125 23.90625 4.703125 
Q 27.09375 4.703125 29.890625 6.390625 
Q 32.703125 8.09375 34.453125 11.59375 
Q 36.203125 15.09375 36.203125 20.5 
L 36.203125 45.703125 
L 43.203125 45.703125 
L 43.203125 7.09375 
Q 43.203125 5.296875 43.34375 3.546875 
Q 43.5 1.796875 44.203125 0 
L 37.296875 0 
Q 36.59375 1.703125 36.4375 3.5 
Q 36.296875 5.296875 36.296875 7 
Q 34.09375 3.203125 30.34375 1.046875 
Q 26.59375 -1.09375 22.09375 -1.09375 
z
" id="Inconsolata-Regular-117"/>
      <path d="M 29.90625 -0.703125 
Q 24 -0.703125 20.953125 2 
Q 17.90625 4.703125 16.90625 10.34375 
Q 15.90625 16 16.203125 24.796875 
L 16.796875 39.796875 
L 7 39.796875 
L 7 45.703125 
L 17 45.703125 
L 17.40625 57.40625 
L 24.90625 58.296875 
L 25.90625 58.40625 
L 26 57.703125 
Q 25.5 57 25.140625 56.296875 
Q 24.796875 55.59375 24.59375 53.90625 
L 23.90625 45.703125 
L 39.90625 45.703125 
L 39.90625 39.796875 
L 24 39.796875 
L 23.296875 24.296875 
Q 23 16.703125 23.703125 12.546875 
Q 24.40625 8.40625 26.203125 6.84375 
Q 28 5.296875 31 5.296875 
Q 34.296875 5.296875 36.84375 6.59375 
Q 39.40625 7.90625 42.203125 9.90625 
L 44.40625 4.203125 
Q 41 1.703125 37.390625 0.5 
Q 33.796875 -0.703125 29.90625 -0.703125 
z
" id="Inconsolata-Regular-116"/>
      <path d="M 10.796875 -0.09375 
L 1.59375 45.703125 
L 7.90625 45.703125 
L 15.296875 9 
L 23.09375 41.40625 
L 27.5 41.40625 
L 37.203125 9.09375 
Q 38.5 18 39.34375 23.703125 
Q 40.203125 29.40625 40.640625 33.046875 
Q 41.09375 36.703125 41.25 39.203125 
Q 41.40625 41.703125 41.40625 44.203125 
L 41.40625 45.703125 
L 48.09375 45.703125 
Q 45.09375 22.5 40.5 -0.09375 
L 33.703125 -0.09375 
L 25.296875 29.5 
L 17.296875 -0.09375 
z
" id="Inconsolata-Regular-119"/>
      <path d="M 25.09375 -1 
Q 13.5 -1 5.703125 6.203125 
L 9.703125 13 
L 10.296875 13.90625 
L 10.90625 13.5 
Q 11.09375 12.703125 11.34375 11.84375 
Q 11.59375 11 12.703125 9.796875 
Q 14.796875 7.703125 17.75 6.34375 
Q 20.703125 5 25.296875 5 
Q 30.796875 5 33.84375 6.953125 
Q 36.90625 8.90625 36.90625 12.296875 
Q 36.90625 15.203125 34.34375 17.09375 
Q 31.796875 19 25.40625 21.09375 
Q 17.5 23.40625 12.84375 26.796875 
Q 8.203125 30.203125 8.203125 35.296875 
Q 8.203125 40.5 12.453125 43.640625 
Q 16.703125 46.796875 25 46.796875 
Q 31.40625 46.796875 35.59375 45 
Q 39.796875 43.203125 43.203125 39.59375 
L 39.09375 34.59375 
L 38.40625 33.796875 
L 37.90625 34.296875 
Q 37.796875 35.09375 37.4375 35.84375 
Q 37.09375 36.59375 36 37.703125 
Q 33.703125 39.5 30.796875 40.453125 
Q 27.90625 41.40625 25.203125 41.40625 
Q 21.203125 41.40625 18.296875 40 
Q 15.40625 38.59375 15.40625 35.703125 
Q 15.40625 34.203125 16.453125 32.75 
Q 17.5 31.296875 20.296875 29.84375 
Q 23.09375 28.40625 28.296875 26.90625 
Q 36.90625 24.296875 40.453125 21.25 
Q 44 18.203125 44 13.296875 
Q 44 9.5 41.953125 6.203125 
Q 39.90625 2.90625 35.703125 0.953125 
Q 31.5 -1 25.09375 -1 
z
" id="Inconsolata-Regular-115"/>
      <path d="M 39.5 -10.40625 
Q 31.203125 -6.5 25.046875 0.046875 
Q 18.90625 6.59375 15.546875 14.84375 
Q 12.203125 23.09375 12.203125 32 
Q 12.203125 40.90625 15.5 48.953125 
Q 18.796875 57 24.796875 63.34375 
Q 30.796875 69.703125 38.90625 73.5 
L 40.796875 67.296875 
Q 34.40625 63.796875 29.546875 58.296875 
Q 24.703125 52.796875 22 46 
Q 19.296875 39.203125 19.296875 31.703125 
Q 19.296875 24.203125 22 17.296875 
Q 24.703125 10.40625 29.703125 4.796875 
Q 34.703125 -0.796875 41.40625 -4.40625 
z
" id="Inconsolata-Regular-40"/>
      <path d="M 3.796875 0 
L 3.796875 45.703125 
L 10.40625 45.703125 
L 10.40625 41.203125 
Q 12 43.703125 14.5 45.25 
Q 17 46.796875 19.703125 46.796875 
Q 22.703125 46.796875 24.953125 44.890625 
Q 27.203125 43 27.796875 40.09375 
Q 29.09375 43.09375 31.890625 44.9375 
Q 34.703125 46.796875 38.09375 46.796875 
Q 42.796875 46.796875 44.9375 43.4375 
Q 47.09375 40.09375 46.90625 35.09375 
L 46.90625 0 
L 40.296875 0 
L 40.296875 32.40625 
Q 40.296875 36.59375 39.75 38.5 
Q 39.203125 40.40625 38.203125 40.953125 
Q 37.203125 41.5 36 41.5 
Q 34.09375 41.5 32.4375 39.75 
Q 30.796875 38 29.75 35.390625 
Q 28.703125 32.796875 28.703125 30.203125 
L 28.703125 0 
L 22 0 
L 22 31.796875 
Q 22 37.5 20.953125 39.390625 
Q 19.90625 41.296875 17 41.296875 
Q 14.796875 41.296875 12.59375 38.4375 
Q 10.40625 35.59375 10.40625 30.5 
L 10.40625 0 
z
" id="Inconsolata-Regular-109"/>
      <path d="M 13.25 -10.40625 
Q 21.546875 -6.5 27.6875 0.046875 
Q 33.84375 6.59375 37.1875 14.84375 
Q 40.546875 23.09375 40.546875 32 
Q 40.546875 40.90625 37.25 48.953125 
Q 33.953125 57 27.953125 63.34375 
Q 21.953125 69.703125 13.84375 73.5 
L 11.953125 67.296875 
Q 18.34375 63.796875 23.1875 58.296875 
Q 28.046875 52.796875 30.75 46 
Q 33.453125 39.203125 33.453125 31.703125 
Q 33.453125 24.203125 30.75 17.296875 
Q 28.046875 10.40625 23.046875 4.796875 
Q 18.046875 -0.796875 11.34375 -4.40625 
z
" id="Inconsolata-Regular-41"/>
     </defs>
     <g transform="translate(449 37.95)scale(0.1 -0.1)">
      <use xlink:href="#Inconsolata-Regular-75"/>
      <use x="49.999985" xlink:href="#Inconsolata-Regular-111"/>
      <use x="99.999969" xlink:href="#Inconsolata-Regular-114"/>
      <use x="149.999954" xlink:href="#Inconsolata-Regular-101"/>
      <use x="199.999939" xlink:href="#Inconsolata-Regular-97"/>
      <use x="249.999924" xlink:href="#Inconsolata-Regular-44"/>
      <use x="299.999908" xlink:href="#Inconsolata-Regular-32"/>
      <use x="349.999893" xlink:href="#Inconsolata-Regular-83"/>
      <use x="399.999878" xlink:href="#Inconsolata-Regular-111"/>
      <use x="449.999863" xlink:href="#Inconsolata-Regular-117"/>
      <use x="499.999847" xlink:href="#Inconsolata-Regular-116"/>
      <use x="549.999832" xlink:href="#Inconsolata-Regular-104"/>
      <use x="599.999817" xlink:href="#Inconsolata-Regular-32"/>
      <use x="649.999802" xlink:href="#Inconsolata-Regular-110"/>
      <use x="699.999786" xlink:href="#Inconsolata-Regular-101"/>
      <use x="749.999771" xlink:href="#Inconsolata-Regular-119"/>
      <use x="799.999756" xlink:href="#Inconsolata-Regular-32"/>
      <use x="849.999741" xlink:href="#Inconsolata-Regular-100"/>
      <use x="899.999725" xlink:href="#Inconsolata-Regular-101"/>
      <use x="949.99971" xlink:href="#Inconsolata-Regular-97"/>
      <use x="999.999695" xlink:href="#Inconsolata-Regular-116"/>
      <use x="1049.99968" xlink:href="#Inconsolata-Regular-104"/>
      <use x="1099.999664" xlink:href="#Inconsolata-Regular-115"/>
      <use x="1149.999649" xlink:href="#Inconsolata-Regular-32"/>
      <use x="1199.999634" xlink:href="#Inconsolata-Regular-40"/>
      <use x="1249.999619" xlink:href="#Inconsolata-Regular-114"/>
      <use x="1299.999603" xlink:href="#Inconsolata-Regular-111"/>
      <use x="1349.999588" xlink:href="#Inconsolata-Regular-108"/>
      <use x="1399.999573" xlink:href="#Inconsolata-Regular-108"/>
      <use x="1449.999557" xlink:href="#Inconsolata-Regular-105"/>
      <use x="1499.999542" xlink:href="#Inconsolata-Regular-110"/>
      <use x="1549.999527" xlink:href="#Inconsolata-Regular-103"/>
      <use x="1599.999512" xlink:href="#Inconsolata-Regular-32"/>
      <use x="1649.999496" xlink:href="#Inconsolata-Regular-109"/>
      <use x="1699.999481" xlink:href="#Inconsolata-Regular-101"/>
      <use x="1749.999466" xlink:href="#Inconsolata-Regular-97"/>
      <use x="1799.999451" xlink:href="#Inconsolata-Regular-110"/>
      <use x="1849.999435" xlink:href="#Inconsolata-Regular-41"/>
     </g>
    </g>
    <g id="patch_177">
     <path d="M 421 51.670312 
L 441 51.670312 
L 441 44.670312 
L 421 44.670312 
z
" style="fill:#e24a33;opacity:0.2;"/>
    </g>
    <g id="text_21">
     <!-- Korea, South new deaths -->
     <g transform="translate(449 51.670312)scale(0.1 -0.1)">
      <use xlink:href="#Inconsolata-Regular-75"/>
      <use x="49.999985" xlink:href="#Inconsolata-Regular-111"/>
      <use x="99.999969" xlink:href="#Inconsolata-Regular-114"/>
      <use x="149.999954" xlink:href="#Inconsolata-Regular-101"/>
      <use x="199.999939" xlink:href="#Inconsolata-Regular-97"/>
      <use x="249.999924" xlink:href="#Inconsolata-Regular-44"/>
      <use x="299.999908" xlink:href="#Inconsolata-Regular-32"/>
      <use x="349.999893" xlink:href="#Inconsolata-Regular-83"/>
      <use x="399.999878" xlink:href="#Inconsolata-Regular-111"/>
      <use x="449.999863" xlink:href="#Inconsolata-Regular-117"/>
      <use x="499.999847" xlink:href="#Inconsolata-Regular-116"/>
      <use x="549.999832" xlink:href="#Inconsolata-Regular-104"/>
      <use x="599.999817" xlink:href="#Inconsolata-Regular-32"/>
      <use x="649.999802" xlink:href="#Inconsolata-Regular-110"/>
      <use x="699.999786" xlink:href="#Inconsolata-Regular-101"/>
      <use x="749.999771" xlink:href="#Inconsolata-Regular-119"/>
      <use x="799.999756" xlink:href="#Inconsolata-Regular-32"/>
      <use x="849.999741" xlink:href="#Inconsolata-Regular-100"/>
      <use x="899.999725" xlink:href="#Inconsolata-Regular-101"/>
      <use x="949.99971" xlink:href="#Inconsolata-Regular-97"/>
      <use x="999.999695" xlink:href="#Inconsolata-Regular-116"/>
      <use x="1049.99968" xlink:href="#Inconsolata-Regular-104"/>
      <use x="1099.999664" xlink:href="#Inconsolata-Regular-115"/>
     </g>
    </g>
   </g>
  </g>
 </g>
 <defs>
  <clipPath id="p566a482be0">
   <rect height="135.9" width="558" x="90" y="21.6"/>
  </clipPath>
 </defs>
</svg>
