<?xml version="1.0" encoding="utf-8" standalone="no"?>
<!DOCTYPE svg PUBLIC "-//W3C//DTD SVG 1.1//EN"
  "http://www.w3.org/Graphics/SVG/1.1/DTD/svg11.dtd">
<!-- Created with matplotlib (https://matplotlib.org/) -->
<svg height="180pt" version="1.1" viewBox="0 0 720 180" width="720pt" xmlns="http://www.w3.org/2000/svg" xmlns:xlink="http://www.w3.org/1999/xlink">
 <defs>
  <style type="text/css">
*{stroke-linecap:butt;stroke-linejoin:round;}
  </style>
 </defs>
 <g id="figure_1">
  <g id="patch_1">
   <path d="M 0 180 
L 720 180 
L 720 0 
L 0 0 
z
" style="fill:#ffffff;"/>
  </g>
  <g id="axes_1">
   <g id="patch_2">
    <path d="M 90 157.5 
L 648 157.5 
L 648 21.6 
L 90 21.6 
z
" style="fill:#e5e5e5;"/>
   </g>
   <g id="matplotlib.axis_1">
    <g id="xtick_1">
     <g id="line2d_1">
      <path clip-path="url(#p031f8e23ac)" d="M 147.469505 157.5 
L 147.469505 21.6 
" style="fill:none;stroke:#ffffff;stroke-linecap:square;stroke-width:0.8;"/>
     </g>
     <g id="line2d_2">
      <defs>
       <path d="M 0 0 
L 0 3.5 
" id="me15edae3f5" style="stroke:#555555;stroke-width:0.8;"/>
      </defs>
      <g>
       <use style="fill:#555555;stroke:#555555;stroke-width:0.8;" x="147.469505" xlink:href="#me15edae3f5" y="157.5"/>
      </g>
     </g>
     <g id="text_1">
      <!-- 2020-02 -->
      <defs>
       <path d="M 7.296875 5.59375 
Q 14 12.5 19.390625 17.84375 
Q 24.796875 23.203125 28.59375 27.640625 
Q 32.40625 32.09375 34.40625 36.296875 
Q 36.40625 40.5 36.40625 45.09375 
Q 36.40625 51.59375 33.296875 54.09375 
Q 30.203125 56.59375 25.796875 56.59375 
Q 22.203125 56.59375 19.046875 55.046875 
Q 15.90625 53.5 13.296875 50.296875 
Q 12.40625 48.90625 12.203125 48.15625 
Q 12 47.40625 12.09375 46.59375 
L 11.703125 46.09375 
L 10.90625 46.59375 
L 5.796875 50.59375 
Q 8.796875 56.40625 14.046875 59.546875 
Q 19.296875 62.703125 25.703125 62.703125 
Q 33.59375 62.703125 38.59375 57.953125 
Q 43.59375 53.203125 43.59375 44.90625 
Q 43.59375 39.703125 41.296875 35 
Q 39 30.296875 35.140625 25.6875 
Q 31.296875 21.09375 26.390625 16.296875 
Q 21.5 11.5 16.296875 6.09375 
L 39.5 6.09375 
Q 41.203125 6.09375 41.890625 6.296875 
Q 42.59375 6.5 43.203125 7.09375 
L 43.90625 7.09375 
L 43.90625 0 
L 7.296875 0 
z
" id="Inconsolata-Regular-50"/>
       <path d="M 25 -1.09375 
Q 15.703125 -1.09375 10.703125 7.203125 
Q 5.703125 15.5 5.703125 30.796875 
Q 5.703125 45.59375 10.703125 54.140625 
Q 15.703125 62.703125 25 62.703125 
Q 34.296875 62.703125 39.296875 54.140625 
Q 44.296875 45.59375 44.296875 30.796875 
Q 44.296875 15.5 39.296875 7.203125 
Q 34.296875 -1.09375 25 -1.09375 
z
M 12.90625 30.796875 
Q 12.90625 24.40625 13.796875 19.40625 
L 35 46.703125 
Q 33.5 51.40625 30.953125 54 
Q 28.40625 56.59375 25 56.59375 
Q 19.296875 56.59375 16.09375 49.59375 
Q 12.90625 42.59375 12.90625 30.796875 
z
M 25 5 
Q 30.703125 5 33.890625 11.703125 
Q 37.09375 18.40625 37.09375 30.796875 
Q 37.09375 36.296875 36.40625 40.796875 
L 15.203125 13.90625 
Q 18.296875 5 25 5 
z
" id="Inconsolata-Regular-48"/>
       <path d="M 11.09375 28.09375 
L 11.09375 34.796875 
L 39.09375 34.796875 
L 39.09375 28.09375 
z
" id="Inconsolata-Regular-45"/>
      </defs>
      <g style="fill:#555555;" transform="translate(129.969505 171.15)scale(0.1 -0.1)">
       <use xlink:href="#Inconsolata-Regular-50"/>
       <use x="49.999985" xlink:href="#Inconsolata-Regular-48"/>
       <use x="99.999969" xlink:href="#Inconsolata-Regular-50"/>
       <use x="149.999954" xlink:href="#Inconsolata-Regular-48"/>
       <use x="199.999939" xlink:href="#Inconsolata-Regular-45"/>
       <use x="249.999924" xlink:href="#Inconsolata-Regular-48"/>
       <use x="299.999908" xlink:href="#Inconsolata-Regular-50"/>
      </g>
     </g>
    </g>
    <g id="xtick_2">
     <g id="line2d_3">
      <path clip-path="url(#p031f8e23ac)" d="M 240.576525 157.5 
L 240.576525 21.6 
" style="fill:none;stroke:#ffffff;stroke-linecap:square;stroke-width:0.8;"/>
     </g>
     <g id="line2d_4">
      <g>
       <use style="fill:#555555;stroke:#555555;stroke-width:0.8;" x="240.576525" xlink:href="#me15edae3f5" y="157.5"/>
      </g>
     </g>
     <g id="text_2">
      <!-- 2020-03 -->
      <defs>
       <path d="M 24 -1.09375 
Q 19.09375 -1.09375 14.59375 0.703125 
Q 10.09375 2.5 6.90625 6 
L 11.5 11.5 
L 12.203125 12.296875 
L 12.703125 11.796875 
Q 12.796875 11 13.09375 10.25 
Q 13.40625 9.5 14.5 8.296875 
Q 16.203125 6.796875 18.390625 5.84375 
Q 20.59375 4.90625 23.703125 4.90625 
Q 29.703125 4.90625 32.59375 8.40625 
Q 35.5 11.90625 35.5 17.40625 
Q 35.5 24.5 30.75 27.453125 
Q 26 30.40625 18 29.59375 
L 18 35.203125 
Q 24.5 35.203125 27.796875 36.890625 
Q 31.09375 38.59375 32.25 41.4375 
Q 33.40625 44.296875 33.40625 47.5 
Q 33.40625 51.796875 30.953125 54.25 
Q 28.5 56.703125 24.5 56.703125 
Q 21.5 56.703125 18.640625 55.703125 
Q 15.796875 54.703125 13.09375 52.09375 
L 8.90625 56.296875 
Q 12.296875 59.796875 16.34375 61.25 
Q 20.40625 62.703125 24.40625 62.703125 
Q 32 62.703125 36.296875 58.390625 
Q 40.59375 54.09375 40.59375 47.203125 
Q 40.59375 42.296875 38.1875 38.4375 
Q 35.796875 34.59375 30.796875 33 
Q 36.09375 31.296875 39.390625 27.390625 
Q 42.703125 23.5 42.703125 17.09375 
Q 42.703125 12.203125 40.546875 8.046875 
Q 38.40625 3.90625 34.25 1.40625 
Q 30.09375 -1.09375 24 -1.09375 
z
" id="Inconsolata-Regular-51"/>
      </defs>
      <g style="fill:#555555;" transform="translate(223.076525 171.15)scale(0.1 -0.1)">
       <use xlink:href="#Inconsolata-Regular-50"/>
       <use x="49.999985" xlink:href="#Inconsolata-Regular-48"/>
       <use x="99.999969" xlink:href="#Inconsolata-Regular-50"/>
       <use x="149.999954" xlink:href="#Inconsolata-Regular-48"/>
       <use x="199.999939" xlink:href="#Inconsolata-Regular-45"/>
       <use x="249.999924" xlink:href="#Inconsolata-Regular-48"/>
       <use x="299.999908" xlink:href="#Inconsolata-Regular-51"/>
      </g>
     </g>
    </g>
    <g id="xtick_3">
     <g id="line2d_5">
      <path clip-path="url(#p031f8e23ac)" d="M 340.104718 157.5 
L 340.104718 21.6 
" style="fill:none;stroke:#ffffff;stroke-linecap:square;stroke-width:0.8;"/>
     </g>
     <g id="line2d_6">
      <g>
       <use style="fill:#555555;stroke:#555555;stroke-width:0.8;" x="340.104718" xlink:href="#me15edae3f5" y="157.5"/>
      </g>
     </g>
     <g id="text_3">
      <!-- 2020-04 -->
      <defs>
       <path d="M 31.796875 0 
L 31.796875 15.296875 
L 4.796875 15.296875 
L 4.796875 20.40625 
L 33.296875 62.40625 
L 39.203125 62.40625 
L 39.203125 21.09375 
L 47.203125 21.09375 
L 47.203125 15.203125 
L 39.203125 15.203125 
L 39.203125 0 
z
M 12.90625 21.203125 
L 31.796875 21.203125 
L 31.796875 49.796875 
z
" id="Inconsolata-Regular-52"/>
      </defs>
      <g style="fill:#555555;" transform="translate(322.604718 171.15)scale(0.1 -0.1)">
       <use xlink:href="#Inconsolata-Regular-50"/>
       <use x="49.999985" xlink:href="#Inconsolata-Regular-48"/>
       <use x="99.999969" xlink:href="#Inconsolata-Regular-50"/>
       <use x="149.999954" xlink:href="#Inconsolata-Regular-48"/>
       <use x="199.999939" xlink:href="#Inconsolata-Regular-45"/>
       <use x="249.999924" xlink:href="#Inconsolata-Regular-48"/>
       <use x="299.999908" xlink:href="#Inconsolata-Regular-52"/>
      </g>
     </g>
    </g>
    <g id="xtick_4">
     <g id="line2d_7">
      <path clip-path="url(#p031f8e23ac)" d="M 436.422325 157.5 
L 436.422325 21.6 
" style="fill:none;stroke:#ffffff;stroke-linecap:square;stroke-width:0.8;"/>
     </g>
     <g id="line2d_8">
      <g>
       <use style="fill:#555555;stroke:#555555;stroke-width:0.8;" x="436.422325" xlink:href="#me15edae3f5" y="157.5"/>
      </g>
     </g>
     <g id="text_4">
      <!-- 2020-05 -->
      <defs>
       <path d="M 24.90625 -1.09375 
Q 19.203125 -1.09375 14.34375 1.40625 
Q 9.5 3.90625 6.40625 8.5 
L 12.796875 13.296875 
L 13.203125 12.796875 
Q 13.09375 12 13.4375 11.296875 
Q 13.796875 10.59375 14.796875 9.296875 
Q 16.796875 7.09375 19.25 6.046875 
Q 21.703125 5 25.296875 5 
Q 28.5 5 31.25 6.796875 
Q 34 8.59375 35.703125 11.9375 
Q 37.40625 15.296875 37.40625 19.90625 
Q 37.40625 26.90625 33.65625 30.796875 
Q 29.90625 34.703125 24.59375 34.703125 
Q 21.40625 34.703125 18.296875 33.140625 
Q 15.203125 31.59375 12.90625 28.796875 
L 8.5 30.59375 
L 10.59375 62.296875 
L 42.203125 62.296875 
L 42.203125 56 
L 16.5 56 
L 15.5 38.09375 
Q 20.5 40.5 25.703125 40.5 
Q 31.09375 40.5 35.34375 37.953125 
Q 39.59375 35.40625 42.046875 30.703125 
Q 44.5 26 44.5 19.59375 
Q 44.5 13.203125 41.890625 8.546875 
Q 39.296875 3.90625 34.890625 1.40625 
Q 30.5 -1.09375 24.90625 -1.09375 
z
" id="Inconsolata-Regular-53"/>
      </defs>
      <g style="fill:#555555;" transform="translate(418.922325 171.15)scale(0.1 -0.1)">
       <use xlink:href="#Inconsolata-Regular-50"/>
       <use x="49.999985" xlink:href="#Inconsolata-Regular-48"/>
       <use x="99.999969" xlink:href="#Inconsolata-Regular-50"/>
       <use x="149.999954" xlink:href="#Inconsolata-Regular-48"/>
       <use x="199.999939" xlink:href="#Inconsolata-Regular-45"/>
       <use x="249.999924" xlink:href="#Inconsolata-Regular-48"/>
       <use x="299.999908" xlink:href="#Inconsolata-Regular-53"/>
      </g>
     </g>
    </g>
    <g id="xtick_5">
     <g id="line2d_9">
      <path clip-path="url(#p031f8e23ac)" d="M 535.950518 157.5 
L 535.950518 21.6 
" style="fill:none;stroke:#ffffff;stroke-linecap:square;stroke-width:0.8;"/>
     </g>
     <g id="line2d_10">
      <g>
       <use style="fill:#555555;stroke:#555555;stroke-width:0.8;" x="535.950518" xlink:href="#me15edae3f5" y="157.5"/>
      </g>
     </g>
     <g id="text_5">
      <!-- 2020-06 -->
      <defs>
       <path d="M 26.09375 -1 
Q 16.796875 -1 11.75 6.890625 
Q 6.703125 14.796875 6.703125 28.40625 
Q 6.703125 45.203125 12.703125 54.09375 
Q 18.703125 63 28.703125 63 
Q 36.59375 63 42.40625 57.296875 
L 38 52.296875 
L 37.296875 51.5 
L 36.796875 52 
Q 36.703125 52.796875 36.34375 53.5 
Q 36 54.203125 34.703125 55.296875 
Q 32.5 56.796875 28.90625 56.796875 
Q 26.90625 56.796875 24.296875 55.84375 
Q 21.703125 54.90625 19.296875 52.296875 
Q 16.90625 49.703125 15.296875 44.953125 
Q 13.703125 40.203125 13.59375 32.703125 
Q 15.703125 36.203125 19.25 38.203125 
Q 22.796875 40.203125 26.796875 40.203125 
Q 31.5 40.203125 35.34375 37.640625 
Q 39.203125 35.09375 41.546875 30.546875 
Q 43.90625 26 43.90625 19.796875 
Q 43.90625 13.59375 41.5 8.890625 
Q 39.09375 4.203125 35.09375 1.59375 
Q 31.09375 -1 26.09375 -1 
z
M 26.40625 5.203125 
Q 30.703125 5.203125 33.890625 8.890625 
Q 37.09375 12.59375 37.09375 19.703125 
Q 37.09375 24.703125 35.4375 27.890625 
Q 33.796875 31.09375 31.296875 32.59375 
Q 28.796875 34.09375 26.203125 34.09375 
Q 22.59375 34.09375 19.296875 31.640625 
Q 16 29.203125 14 25.703125 
Q 13.59375 22.296875 14.25 18.6875 
Q 14.90625 15.09375 16.546875 12.046875 
Q 18.203125 9 20.703125 7.09375 
Q 23.203125 5.203125 26.40625 5.203125 
z
" id="Inconsolata-Regular-54"/>
      </defs>
      <g style="fill:#555555;" transform="translate(518.450518 171.15)scale(0.1 -0.1)">
       <use xlink:href="#Inconsolata-Regular-50"/>
       <use x="49.999985" xlink:href="#Inconsolata-Regular-48"/>
       <use x="99.999969" xlink:href="#Inconsolata-Regular-50"/>
       <use x="149.999954" xlink:href="#Inconsolata-Regular-48"/>
       <use x="199.999939" xlink:href="#Inconsolata-Regular-45"/>
       <use x="249.999924" xlink:href="#Inconsolata-Regular-48"/>
       <use x="299.999908" xlink:href="#Inconsolata-Regular-54"/>
      </g>
     </g>
    </g>
    <g id="xtick_6">
     <g id="line2d_11">
      <path clip-path="url(#p031f8e23ac)" d="M 632.268124 157.5 
L 632.268124 21.6 
" style="fill:none;stroke:#ffffff;stroke-linecap:square;stroke-width:0.8;"/>
     </g>
     <g id="line2d_12">
      <g>
       <use style="fill:#555555;stroke:#555555;stroke-width:0.8;" x="632.268124" xlink:href="#me15edae3f5" y="157.5"/>
      </g>
     </g>
     <g id="text_6">
      <!-- 2020-07 -->
      <defs>
       <path d="M 15.5 0 
Q 19.90625 14.296875 24.59375 28.09375 
Q 29.296875 41.90625 34.5 55.703125 
L 7.90625 55.703125 
L 7.90625 62.296875 
L 43.203125 62.296875 
L 43.203125 58.40625 
Q 37.5 44 32.5 29.5 
Q 27.5 15 23.40625 0 
z
" id="Inconsolata-Regular-55"/>
      </defs>
      <g style="fill:#555555;" transform="translate(614.768124 171.15)scale(0.1 -0.1)">
       <use xlink:href="#Inconsolata-Regular-50"/>
       <use x="49.999985" xlink:href="#Inconsolata-Regular-48"/>
       <use x="99.999969" xlink:href="#Inconsolata-Regular-50"/>
       <use x="149.999954" xlink:href="#Inconsolata-Regular-48"/>
       <use x="199.999939" xlink:href="#Inconsolata-Regular-45"/>
       <use x="249.999924" xlink:href="#Inconsolata-Regular-48"/>
       <use x="299.999908" xlink:href="#Inconsolata-Regular-55"/>
      </g>
     </g>
    </g>
   </g>
   <g id="matplotlib.axis_2">
    <g id="ytick_1">
     <g id="line2d_13">
      <path clip-path="url(#p031f8e23ac)" d="M 90 151.322727 
L 648 151.322727 
" style="fill:none;stroke:#ffffff;stroke-linecap:square;stroke-width:0.8;"/>
     </g>
     <g id="line2d_14">
      <defs>
       <path d="M 0 0 
L -3.5 0 
" id="m61d7669c41" style="stroke:#555555;stroke-width:0.8;"/>
      </defs>
      <g>
       <use style="fill:#555555;stroke:#555555;stroke-width:0.8;" x="90" xlink:href="#m61d7669c41" y="151.322727"/>
      </g>
     </g>
     <g id="line2d_15">
      <defs>
       <path d="M 0 0 
L 3.5 0 
" id="m5be6aeb5c4" style="stroke:#555555;stroke-width:0.8;"/>
      </defs>
      <g>
       <use style="fill:#555555;stroke:#555555;stroke-width:0.8;" x="648" xlink:href="#m5be6aeb5c4" y="151.322727"/>
      </g>
     </g>
     <g id="text_7">
      <!-- 1 -->
      <defs>
       <path d="M 23 0 
L 23 53.703125 
L 10.40625 50 
L 8.796875 53.90625 
L 25.09375 62.40625 
L 30 62.40625 
L 30 0 
z
" id="Inconsolata-Regular-49"/>
      </defs>
      <g style="fill:#555555;" transform="translate(78 154.647727)scale(0.1 -0.1)">
       <use xlink:href="#Inconsolata-Regular-49"/>
      </g>
     </g>
     <g id="text_8">
      <!-- 1 -->
      <g style="fill:#555555;" transform="translate(655 154.647727)scale(0.1 -0.1)">
       <use xlink:href="#Inconsolata-Regular-49"/>
      </g>
     </g>
    </g>
    <g id="ytick_2">
     <g id="line2d_16">
      <path clip-path="url(#p031f8e23ac)" d="M 90 121.23188 
L 648 121.23188 
" style="fill:none;stroke:#ffffff;stroke-linecap:square;stroke-width:0.8;"/>
     </g>
     <g id="line2d_17">
      <g>
       <use style="fill:#555555;stroke:#555555;stroke-width:0.8;" x="90" xlink:href="#m61d7669c41" y="121.23188"/>
      </g>
     </g>
     <g id="line2d_18">
      <g>
       <use style="fill:#555555;stroke:#555555;stroke-width:0.8;" x="648" xlink:href="#m5be6aeb5c4" y="121.23188"/>
      </g>
     </g>
     <g id="text_9">
      <!-- 10 -->
      <g style="fill:#555555;" transform="translate(73 124.55688)scale(0.1 -0.1)">
       <use xlink:href="#Inconsolata-Regular-49"/>
       <use x="49.999985" xlink:href="#Inconsolata-Regular-48"/>
      </g>
     </g>
     <g id="text_10">
      <!-- 10 -->
      <g style="fill:#555555;" transform="translate(655 124.55688)scale(0.1 -0.1)">
       <use xlink:href="#Inconsolata-Regular-49"/>
       <use x="49.999985" xlink:href="#Inconsolata-Regular-48"/>
      </g>
     </g>
    </g>
    <g id="ytick_3">
     <g id="line2d_19">
      <path clip-path="url(#p031f8e23ac)" d="M 90 91.141032 
L 648 91.141032 
" style="fill:none;stroke:#ffffff;stroke-linecap:square;stroke-width:0.8;"/>
     </g>
     <g id="line2d_20">
      <g>
       <use style="fill:#555555;stroke:#555555;stroke-width:0.8;" x="90" xlink:href="#m61d7669c41" y="91.141032"/>
      </g>
     </g>
     <g id="line2d_21">
      <g>
       <use style="fill:#555555;stroke:#555555;stroke-width:0.8;" x="648" xlink:href="#m5be6aeb5c4" y="91.141032"/>
      </g>
     </g>
     <g id="text_11">
      <!-- 100 -->
      <g style="fill:#555555;" transform="translate(68 94.466032)scale(0.1 -0.1)">
       <use xlink:href="#Inconsolata-Regular-49"/>
       <use x="49.999985" xlink:href="#Inconsolata-Regular-48"/>
       <use x="99.999969" xlink:href="#Inconsolata-Regular-48"/>
      </g>
     </g>
     <g id="text_12">
      <!-- 100 -->
      <g style="fill:#555555;" transform="translate(655 94.466032)scale(0.1 -0.1)">
       <use xlink:href="#Inconsolata-Regular-49"/>
       <use x="49.999985" xlink:href="#Inconsolata-Regular-48"/>
       <use x="99.999969" xlink:href="#Inconsolata-Regular-48"/>
      </g>
     </g>
    </g>
    <g id="ytick_4">
     <g id="line2d_22">
      <path clip-path="url(#p031f8e23ac)" d="M 90 61.050184 
L 648 61.050184 
" style="fill:none;stroke:#ffffff;stroke-linecap:square;stroke-width:0.8;"/>
     </g>
     <g id="line2d_23">
      <g>
       <use style="fill:#555555;stroke:#555555;stroke-width:0.8;" x="90" xlink:href="#m61d7669c41" y="61.050184"/>
      </g>
     </g>
     <g id="line2d_24">
      <g>
       <use style="fill:#555555;stroke:#555555;stroke-width:0.8;" x="648" xlink:href="#m5be6aeb5c4" y="61.050184"/>
      </g>
     </g>
     <g id="text_13">
      <!-- 1000 -->
      <g style="fill:#555555;" transform="translate(63 64.375184)scale(0.1 -0.1)">
       <use xlink:href="#Inconsolata-Regular-49"/>
       <use x="49.999985" xlink:href="#Inconsolata-Regular-48"/>
       <use x="99.999969" xlink:href="#Inconsolata-Regular-48"/>
       <use x="149.999954" xlink:href="#Inconsolata-Regular-48"/>
      </g>
     </g>
     <g id="text_14">
      <!-- 1000 -->
      <g style="fill:#555555;" transform="translate(655 64.375184)scale(0.1 -0.1)">
       <use xlink:href="#Inconsolata-Regular-49"/>
       <use x="49.999985" xlink:href="#Inconsolata-Regular-48"/>
       <use x="99.999969" xlink:href="#Inconsolata-Regular-48"/>
       <use x="149.999954" xlink:href="#Inconsolata-Regular-48"/>
      </g>
     </g>
    </g>
    <g id="ytick_5">
     <g id="line2d_25">
      <path clip-path="url(#p031f8e23ac)" d="M 90 30.959336 
L 648 30.959336 
" style="fill:none;stroke:#ffffff;stroke-linecap:square;stroke-width:0.8;"/>
     </g>
     <g id="line2d_26">
      <g>
       <use style="fill:#555555;stroke:#555555;stroke-width:0.8;" x="90" xlink:href="#m61d7669c41" y="30.959336"/>
      </g>
     </g>
     <g id="line2d_27">
      <g>
       <use style="fill:#555555;stroke:#555555;stroke-width:0.8;" x="648" xlink:href="#m5be6aeb5c4" y="30.959336"/>
      </g>
     </g>
     <g id="text_15">
      <!-- 10000 -->
      <g style="fill:#555555;" transform="translate(58 34.284336)scale(0.1 -0.1)">
       <use xlink:href="#Inconsolata-Regular-49"/>
       <use x="49.999985" xlink:href="#Inconsolata-Regular-48"/>
       <use x="99.999969" xlink:href="#Inconsolata-Regular-48"/>
       <use x="149.999954" xlink:href="#Inconsolata-Regular-48"/>
       <use x="199.999939" xlink:href="#Inconsolata-Regular-48"/>
      </g>
     </g>
     <g id="text_16">
      <!-- 10000 -->
      <g style="fill:#555555;" transform="translate(655 34.284336)scale(0.1 -0.1)">
       <use xlink:href="#Inconsolata-Regular-49"/>
       <use x="49.999985" xlink:href="#Inconsolata-Regular-48"/>
       <use x="99.999969" xlink:href="#Inconsolata-Regular-48"/>
       <use x="149.999954" xlink:href="#Inconsolata-Regular-48"/>
       <use x="199.999939" xlink:href="#Inconsolata-Regular-48"/>
      </g>
     </g>
    </g>
    <g id="ytick_6">
     <g id="line2d_28">
      <defs>
       <path d="M 0 0 
L -2 0 
" id="md14d8ca7fc" style="stroke:#555555;stroke-width:0.6;"/>
      </defs>
      <g>
       <use style="fill:#555555;stroke:#555555;stroke-width:0.6;" x="90" xlink:href="#md14d8ca7fc" y="155.983859"/>
      </g>
     </g>
     <g id="line2d_29">
      <defs>
       <path d="M 0 0 
L 2 0 
" id="m4f44863b8e" style="stroke:#555555;stroke-width:0.6;"/>
      </defs>
      <g>
       <use style="fill:#555555;stroke:#555555;stroke-width:0.6;" x="648" xlink:href="#m4f44863b8e" y="155.983859"/>
      </g>
     </g>
    </g>
    <g id="ytick_7">
     <g id="line2d_30">
      <g>
       <use style="fill:#555555;stroke:#555555;stroke-width:0.6;" x="90" xlink:href="#md14d8ca7fc" y="154.238832"/>
      </g>
     </g>
     <g id="line2d_31">
      <g>
       <use style="fill:#555555;stroke:#555555;stroke-width:0.6;" x="648" xlink:href="#m4f44863b8e" y="154.238832"/>
      </g>
     </g>
    </g>
    <g id="ytick_8">
     <g id="line2d_32">
      <g>
       <use style="fill:#555555;stroke:#555555;stroke-width:0.6;" x="90" xlink:href="#md14d8ca7fc" y="152.699609"/>
      </g>
     </g>
     <g id="line2d_33">
      <g>
       <use style="fill:#555555;stroke:#555555;stroke-width:0.6;" x="648" xlink:href="#m4f44863b8e" y="152.699609"/>
      </g>
     </g>
    </g>
    <g id="ytick_9">
     <g id="line2d_34">
      <g>
       <use style="fill:#555555;stroke:#555555;stroke-width:0.6;" x="90" xlink:href="#md14d8ca7fc" y="142.26448"/>
      </g>
     </g>
     <g id="line2d_35">
      <g>
       <use style="fill:#555555;stroke:#555555;stroke-width:0.6;" x="648" xlink:href="#m4f44863b8e" y="142.26448"/>
      </g>
     </g>
    </g>
    <g id="ytick_10">
     <g id="line2d_36">
      <g>
       <use style="fill:#555555;stroke:#555555;stroke-width:0.6;" x="90" xlink:href="#md14d8ca7fc" y="136.965744"/>
      </g>
     </g>
     <g id="line2d_37">
      <g>
       <use style="fill:#555555;stroke:#555555;stroke-width:0.6;" x="648" xlink:href="#m4f44863b8e" y="136.965744"/>
      </g>
     </g>
    </g>
    <g id="ytick_11">
     <g id="line2d_38">
      <g>
       <use style="fill:#555555;stroke:#555555;stroke-width:0.6;" x="90" xlink:href="#md14d8ca7fc" y="133.206232"/>
      </g>
     </g>
     <g id="line2d_39">
      <g>
       <use style="fill:#555555;stroke:#555555;stroke-width:0.6;" x="648" xlink:href="#m4f44863b8e" y="133.206232"/>
      </g>
     </g>
    </g>
    <g id="ytick_12">
     <g id="line2d_40">
      <g>
       <use style="fill:#555555;stroke:#555555;stroke-width:0.6;" x="90" xlink:href="#md14d8ca7fc" y="130.290127"/>
      </g>
     </g>
     <g id="line2d_41">
      <g>
       <use style="fill:#555555;stroke:#555555;stroke-width:0.6;" x="648" xlink:href="#m4f44863b8e" y="130.290127"/>
      </g>
     </g>
    </g>
    <g id="ytick_13">
     <g id="line2d_42">
      <g>
       <use style="fill:#555555;stroke:#555555;stroke-width:0.6;" x="90" xlink:href="#md14d8ca7fc" y="127.907496"/>
      </g>
     </g>
     <g id="line2d_43">
      <g>
       <use style="fill:#555555;stroke:#555555;stroke-width:0.6;" x="648" xlink:href="#m4f44863b8e" y="127.907496"/>
      </g>
     </g>
    </g>
    <g id="ytick_14">
     <g id="line2d_44">
      <g>
       <use style="fill:#555555;stroke:#555555;stroke-width:0.6;" x="90" xlink:href="#md14d8ca7fc" y="125.893011"/>
      </g>
     </g>
     <g id="line2d_45">
      <g>
       <use style="fill:#555555;stroke:#555555;stroke-width:0.6;" x="648" xlink:href="#m4f44863b8e" y="125.893011"/>
      </g>
     </g>
    </g>
    <g id="ytick_15">
     <g id="line2d_46">
      <g>
       <use style="fill:#555555;stroke:#555555;stroke-width:0.6;" x="90" xlink:href="#md14d8ca7fc" y="124.147984"/>
      </g>
     </g>
     <g id="line2d_47">
      <g>
       <use style="fill:#555555;stroke:#555555;stroke-width:0.6;" x="648" xlink:href="#m4f44863b8e" y="124.147984"/>
      </g>
     </g>
    </g>
    <g id="ytick_16">
     <g id="line2d_48">
      <g>
       <use style="fill:#555555;stroke:#555555;stroke-width:0.6;" x="90" xlink:href="#md14d8ca7fc" y="122.608761"/>
      </g>
     </g>
     <g id="line2d_49">
      <g>
       <use style="fill:#555555;stroke:#555555;stroke-width:0.6;" x="648" xlink:href="#m4f44863b8e" y="122.608761"/>
      </g>
     </g>
    </g>
    <g id="ytick_17">
     <g id="line2d_50">
      <g>
       <use style="fill:#555555;stroke:#555555;stroke-width:0.6;" x="90" xlink:href="#md14d8ca7fc" y="112.173632"/>
      </g>
     </g>
     <g id="line2d_51">
      <g>
       <use style="fill:#555555;stroke:#555555;stroke-width:0.6;" x="648" xlink:href="#m4f44863b8e" y="112.173632"/>
      </g>
     </g>
    </g>
    <g id="ytick_18">
     <g id="line2d_52">
      <g>
       <use style="fill:#555555;stroke:#555555;stroke-width:0.6;" x="90" xlink:href="#md14d8ca7fc" y="106.874897"/>
      </g>
     </g>
     <g id="line2d_53">
      <g>
       <use style="fill:#555555;stroke:#555555;stroke-width:0.6;" x="648" xlink:href="#m4f44863b8e" y="106.874897"/>
      </g>
     </g>
    </g>
    <g id="ytick_19">
     <g id="line2d_54">
      <g>
       <use style="fill:#555555;stroke:#555555;stroke-width:0.6;" x="90" xlink:href="#md14d8ca7fc" y="103.115384"/>
      </g>
     </g>
     <g id="line2d_55">
      <g>
       <use style="fill:#555555;stroke:#555555;stroke-width:0.6;" x="648" xlink:href="#m4f44863b8e" y="103.115384"/>
      </g>
     </g>
    </g>
    <g id="ytick_20">
     <g id="line2d_56">
      <g>
       <use style="fill:#555555;stroke:#555555;stroke-width:0.6;" x="90" xlink:href="#md14d8ca7fc" y="100.19928"/>
      </g>
     </g>
     <g id="line2d_57">
      <g>
       <use style="fill:#555555;stroke:#555555;stroke-width:0.6;" x="648" xlink:href="#m4f44863b8e" y="100.19928"/>
      </g>
     </g>
    </g>
    <g id="ytick_21">
     <g id="line2d_58">
      <g>
       <use style="fill:#555555;stroke:#555555;stroke-width:0.6;" x="90" xlink:href="#md14d8ca7fc" y="97.816649"/>
      </g>
     </g>
     <g id="line2d_59">
      <g>
       <use style="fill:#555555;stroke:#555555;stroke-width:0.6;" x="648" xlink:href="#m4f44863b8e" y="97.816649"/>
      </g>
     </g>
    </g>
    <g id="ytick_22">
     <g id="line2d_60">
      <g>
       <use style="fill:#555555;stroke:#555555;stroke-width:0.6;" x="90" xlink:href="#md14d8ca7fc" y="95.802163"/>
      </g>
     </g>
     <g id="line2d_61">
      <g>
       <use style="fill:#555555;stroke:#555555;stroke-width:0.6;" x="648" xlink:href="#m4f44863b8e" y="95.802163"/>
      </g>
     </g>
    </g>
    <g id="ytick_23">
     <g id="line2d_62">
      <g>
       <use style="fill:#555555;stroke:#555555;stroke-width:0.6;" x="90" xlink:href="#md14d8ca7fc" y="94.057136"/>
      </g>
     </g>
     <g id="line2d_63">
      <g>
       <use style="fill:#555555;stroke:#555555;stroke-width:0.6;" x="648" xlink:href="#m4f44863b8e" y="94.057136"/>
      </g>
     </g>
    </g>
    <g id="ytick_24">
     <g id="line2d_64">
      <g>
       <use style="fill:#555555;stroke:#555555;stroke-width:0.6;" x="90" xlink:href="#md14d8ca7fc" y="92.517914"/>
      </g>
     </g>
     <g id="line2d_65">
      <g>
       <use style="fill:#555555;stroke:#555555;stroke-width:0.6;" x="648" xlink:href="#m4f44863b8e" y="92.517914"/>
      </g>
     </g>
    </g>
    <g id="ytick_25">
     <g id="line2d_66">
      <g>
       <use style="fill:#555555;stroke:#555555;stroke-width:0.6;" x="90" xlink:href="#md14d8ca7fc" y="82.082784"/>
      </g>
     </g>
     <g id="line2d_67">
      <g>
       <use style="fill:#555555;stroke:#555555;stroke-width:0.6;" x="648" xlink:href="#m4f44863b8e" y="82.082784"/>
      </g>
     </g>
    </g>
    <g id="ytick_26">
     <g id="line2d_68">
      <g>
       <use style="fill:#555555;stroke:#555555;stroke-width:0.6;" x="90" xlink:href="#md14d8ca7fc" y="76.784049"/>
      </g>
     </g>
     <g id="line2d_69">
      <g>
       <use style="fill:#555555;stroke:#555555;stroke-width:0.6;" x="648" xlink:href="#m4f44863b8e" y="76.784049"/>
      </g>
     </g>
    </g>
    <g id="ytick_27">
     <g id="line2d_70">
      <g>
       <use style="fill:#555555;stroke:#555555;stroke-width:0.6;" x="90" xlink:href="#md14d8ca7fc" y="73.024536"/>
      </g>
     </g>
     <g id="line2d_71">
      <g>
       <use style="fill:#555555;stroke:#555555;stroke-width:0.6;" x="648" xlink:href="#m4f44863b8e" y="73.024536"/>
      </g>
     </g>
    </g>
    <g id="ytick_28">
     <g id="line2d_72">
      <g>
       <use style="fill:#555555;stroke:#555555;stroke-width:0.6;" x="90" xlink:href="#md14d8ca7fc" y="70.108432"/>
      </g>
     </g>
     <g id="line2d_73">
      <g>
       <use style="fill:#555555;stroke:#555555;stroke-width:0.6;" x="648" xlink:href="#m4f44863b8e" y="70.108432"/>
      </g>
     </g>
    </g>
    <g id="ytick_29">
     <g id="line2d_74">
      <g>
       <use style="fill:#555555;stroke:#555555;stroke-width:0.6;" x="90" xlink:href="#md14d8ca7fc" y="67.725801"/>
      </g>
     </g>
     <g id="line2d_75">
      <g>
       <use style="fill:#555555;stroke:#555555;stroke-width:0.6;" x="648" xlink:href="#m4f44863b8e" y="67.725801"/>
      </g>
     </g>
    </g>
    <g id="ytick_30">
     <g id="line2d_76">
      <g>
       <use style="fill:#555555;stroke:#555555;stroke-width:0.6;" x="90" xlink:href="#md14d8ca7fc" y="65.711315"/>
      </g>
     </g>
     <g id="line2d_77">
      <g>
       <use style="fill:#555555;stroke:#555555;stroke-width:0.6;" x="648" xlink:href="#m4f44863b8e" y="65.711315"/>
      </g>
     </g>
    </g>
    <g id="ytick_31">
     <g id="line2d_78">
      <g>
       <use style="fill:#555555;stroke:#555555;stroke-width:0.6;" x="90" xlink:href="#md14d8ca7fc" y="63.966289"/>
      </g>
     </g>
     <g id="line2d_79">
      <g>
       <use style="fill:#555555;stroke:#555555;stroke-width:0.6;" x="648" xlink:href="#m4f44863b8e" y="63.966289"/>
      </g>
     </g>
    </g>
    <g id="ytick_32">
     <g id="line2d_80">
      <g>
       <use style="fill:#555555;stroke:#555555;stroke-width:0.6;" x="90" xlink:href="#md14d8ca7fc" y="62.427066"/>
      </g>
     </g>
     <g id="line2d_81">
      <g>
       <use style="fill:#555555;stroke:#555555;stroke-width:0.6;" x="648" xlink:href="#m4f44863b8e" y="62.427066"/>
      </g>
     </g>
    </g>
    <g id="ytick_33">
     <g id="line2d_82">
      <g>
       <use style="fill:#555555;stroke:#555555;stroke-width:0.6;" x="90" xlink:href="#md14d8ca7fc" y="51.991936"/>
      </g>
     </g>
     <g id="line2d_83">
      <g>
       <use style="fill:#555555;stroke:#555555;stroke-width:0.6;" x="648" xlink:href="#m4f44863b8e" y="51.991936"/>
      </g>
     </g>
    </g>
    <g id="ytick_34">
     <g id="line2d_84">
      <g>
       <use style="fill:#555555;stroke:#555555;stroke-width:0.6;" x="90" xlink:href="#md14d8ca7fc" y="46.693201"/>
      </g>
     </g>
     <g id="line2d_85">
      <g>
       <use style="fill:#555555;stroke:#555555;stroke-width:0.6;" x="648" xlink:href="#m4f44863b8e" y="46.693201"/>
      </g>
     </g>
    </g>
    <g id="ytick_35">
     <g id="line2d_86">
      <g>
       <use style="fill:#555555;stroke:#555555;stroke-width:0.6;" x="90" xlink:href="#md14d8ca7fc" y="42.933689"/>
      </g>
     </g>
     <g id="line2d_87">
      <g>
       <use style="fill:#555555;stroke:#555555;stroke-width:0.6;" x="648" xlink:href="#m4f44863b8e" y="42.933689"/>
      </g>
     </g>
    </g>
    <g id="ytick_36">
     <g id="line2d_88">
      <g>
       <use style="fill:#555555;stroke:#555555;stroke-width:0.6;" x="90" xlink:href="#md14d8ca7fc" y="40.017584"/>
      </g>
     </g>
     <g id="line2d_89">
      <g>
       <use style="fill:#555555;stroke:#555555;stroke-width:0.6;" x="648" xlink:href="#m4f44863b8e" y="40.017584"/>
      </g>
     </g>
    </g>
    <g id="ytick_37">
     <g id="line2d_90">
      <g>
       <use style="fill:#555555;stroke:#555555;stroke-width:0.6;" x="90" xlink:href="#md14d8ca7fc" y="37.634953"/>
      </g>
     </g>
     <g id="line2d_91">
      <g>
       <use style="fill:#555555;stroke:#555555;stroke-width:0.6;" x="648" xlink:href="#m4f44863b8e" y="37.634953"/>
      </g>
     </g>
    </g>
    <g id="ytick_38">
     <g id="line2d_92">
      <g>
       <use style="fill:#555555;stroke:#555555;stroke-width:0.6;" x="90" xlink:href="#md14d8ca7fc" y="35.620468"/>
      </g>
     </g>
     <g id="line2d_93">
      <g>
       <use style="fill:#555555;stroke:#555555;stroke-width:0.6;" x="648" xlink:href="#m4f44863b8e" y="35.620468"/>
      </g>
     </g>
    </g>
    <g id="ytick_39">
     <g id="line2d_94">
      <g>
       <use style="fill:#555555;stroke:#555555;stroke-width:0.6;" x="90" xlink:href="#md14d8ca7fc" y="33.875441"/>
      </g>
     </g>
     <g id="line2d_95">
      <g>
       <use style="fill:#555555;stroke:#555555;stroke-width:0.6;" x="648" xlink:href="#m4f44863b8e" y="33.875441"/>
      </g>
     </g>
    </g>
    <g id="ytick_40">
     <g id="line2d_96">
      <g>
       <use style="fill:#555555;stroke:#555555;stroke-width:0.6;" x="90" xlink:href="#md14d8ca7fc" y="32.336218"/>
      </g>
     </g>
     <g id="line2d_97">
      <g>
       <use style="fill:#555555;stroke:#555555;stroke-width:0.6;" x="648" xlink:href="#m4f44863b8e" y="32.336218"/>
      </g>
     </g>
    </g>
    <g id="ytick_41">
     <g id="line2d_98">
      <g>
       <use style="fill:#555555;stroke:#555555;stroke-width:0.6;" x="90" xlink:href="#md14d8ca7fc" y="21.901089"/>
      </g>
     </g>
     <g id="line2d_99">
      <g>
       <use style="fill:#555555;stroke:#555555;stroke-width:0.6;" x="648" xlink:href="#m4f44863b8e" y="21.901089"/>
      </g>
     </g>
    </g>
    <g id="text_17">
     <!-- total numbers -->
     <defs>
      <path d="M 29.90625 -0.703125 
Q 24 -0.703125 20.953125 2 
Q 17.90625 4.703125 16.90625 10.34375 
Q 15.90625 16 16.203125 24.796875 
L 16.796875 39.796875 
L 7 39.796875 
L 7 45.703125 
L 17 45.703125 
L 17.40625 57.40625 
L 24.90625 58.296875 
L 25.90625 58.40625 
L 26 57.703125 
Q 25.5 57 25.140625 56.296875 
Q 24.796875 55.59375 24.59375 53.90625 
L 23.90625 45.703125 
L 39.90625 45.703125 
L 39.90625 39.796875 
L 24 39.796875 
L 23.296875 24.296875 
Q 23 16.703125 23.703125 12.546875 
Q 24.40625 8.40625 26.203125 6.84375 
Q 28 5.296875 31 5.296875 
Q 34.296875 5.296875 36.84375 6.59375 
Q 39.40625 7.90625 42.203125 9.90625 
L 44.40625 4.203125 
Q 41 1.703125 37.390625 0.5 
Q 33.796875 -0.703125 29.90625 -0.703125 
z
" id="Inconsolata-Regular-116"/>
      <path d="M 25 -0.796875 
Q 18.796875 -0.796875 14.046875 2.25 
Q 9.296875 5.296875 6.59375 10.640625 
Q 3.90625 16 3.90625 22.90625 
Q 3.90625 29.90625 6.59375 35.25 
Q 9.296875 40.59375 14.046875 43.640625 
Q 18.796875 46.703125 25 46.703125 
Q 31.203125 46.703125 35.953125 43.640625 
Q 40.703125 40.59375 43.390625 35.25 
Q 46.09375 29.90625 46.09375 22.90625 
Q 46.09375 16 43.390625 10.640625 
Q 40.703125 5.296875 35.953125 2.25 
Q 31.203125 -0.796875 25 -0.796875 
z
M 25 5.203125 
Q 29 5.203125 32 7.5 
Q 35 9.796875 36.75 13.796875 
Q 38.5 17.796875 38.5 23 
Q 38.5 30.796875 34.703125 35.75 
Q 30.90625 40.703125 25 40.703125 
Q 19.09375 40.703125 15.296875 35.75 
Q 11.5 30.796875 11.5 23 
Q 11.5 17.796875 13.25 13.796875 
Q 15 9.796875 18.046875 7.5 
Q 21.09375 5.203125 25 5.203125 
z
" id="Inconsolata-Regular-111"/>
      <path d="M 21.09375 -1.09375 
Q 13.296875 -1.09375 9.09375 2.453125 
Q 4.90625 6 4.90625 11.5 
Q 4.90625 16.40625 8 19.953125 
Q 11.09375 23.5 16.34375 25.453125 
Q 21.59375 27.40625 27.90625 27.40625 
Q 30.203125 27.40625 32.75 27.296875 
Q 35.296875 27.203125 38.203125 26.796875 
Q 37.59375 34.796875 34.046875 37.796875 
Q 30.5 40.796875 23.90625 40.796875 
Q 20.59375 40.796875 17.390625 39.546875 
Q 14.203125 38.296875 11.59375 35.703125 
L 8.09375 40.296875 
Q 11.296875 43.5 15.5 45.09375 
Q 19.703125 46.703125 24.40625 46.703125 
Q 30.5 46.703125 35 44.703125 
Q 39.5 42.703125 42 37.796875 
Q 44.5 32.90625 44.5 24.296875 
L 44.5 0 
L 36.703125 0 
L 36.703125 7 
Q 35 3.703125 32.34375 1.953125 
Q 29.703125 0.203125 26.75 -0.4375 
Q 23.796875 -1.09375 21.09375 -1.09375 
z
M 12.09375 11.90625 
Q 12.09375 7.59375 14.890625 6 
Q 17.703125 4.40625 21.796875 4.40625 
Q 29.203125 4.40625 33.5 8.75 
Q 37.796875 13.09375 38.203125 21.296875 
Q 33 22 28.5 22 
Q 21.296875 22 16.6875 19.59375 
Q 12.09375 17.203125 12.09375 11.90625 
z
" id="Inconsolata-Regular-97"/>
      <path d="M 7.90625 0 
L 7.90625 5.796875 
L 21.40625 5.796875 
L 21.40625 60.703125 
L 8.5 60.703125 
L 8.5 66.5 
L 28.703125 66.5 
L 28.703125 5.796875 
L 42.09375 5.796875 
L 42.09375 0 
z
" id="Inconsolata-Regular-108"/>
      <path id="Inconsolata-Regular-32"/>
      <path d="M 7.203125 0 
L 7.203125 45.703125 
L 14.203125 45.703125 
L 14.203125 37.59375 
Q 16.796875 41.796875 20.9375 44.296875 
Q 25.09375 46.796875 29.703125 46.796875 
Q 35.296875 46.796875 39.1875 42.4375 
Q 43.09375 38.09375 43.09375 27.703125 
L 43.09375 0 
L 36.09375 0 
L 36.09375 27.5 
Q 36.09375 34.703125 33.640625 37.59375 
Q 31.203125 40.5 27.703125 40.5 
Q 24.703125 40.5 21.546875 38.75 
Q 18.40625 37 16.296875 33.84375 
Q 14.203125 30.703125 14.203125 26.296875 
L 14.203125 0 
z
" id="Inconsolata-Regular-110"/>
      <path d="M 22.09375 -1.09375 
Q 15.296875 -1.09375 10.796875 4 
Q 6.296875 9.09375 6.40625 20.203125 
L 6.5 45.703125 
L 13.5 45.703125 
L 13.5 20.203125 
Q 13.5 11.5 16.546875 8.09375 
Q 19.59375 4.703125 23.90625 4.703125 
Q 27.09375 4.703125 29.890625 6.390625 
Q 32.703125 8.09375 34.453125 11.59375 
Q 36.203125 15.09375 36.203125 20.5 
L 36.203125 45.703125 
L 43.203125 45.703125 
L 43.203125 7.09375 
Q 43.203125 5.296875 43.34375 3.546875 
Q 43.5 1.796875 44.203125 0 
L 37.296875 0 
Q 36.59375 1.703125 36.4375 3.5 
Q 36.296875 5.296875 36.296875 7 
Q 34.09375 3.203125 30.34375 1.046875 
Q 26.59375 -1.09375 22.09375 -1.09375 
z
" id="Inconsolata-Regular-117"/>
      <path d="M 3.796875 0 
L 3.796875 45.703125 
L 10.40625 45.703125 
L 10.40625 41.203125 
Q 12 43.703125 14.5 45.25 
Q 17 46.796875 19.703125 46.796875 
Q 22.703125 46.796875 24.953125 44.890625 
Q 27.203125 43 27.796875 40.09375 
Q 29.09375 43.09375 31.890625 44.9375 
Q 34.703125 46.796875 38.09375 46.796875 
Q 42.796875 46.796875 44.9375 43.4375 
Q 47.09375 40.09375 46.90625 35.09375 
L 46.90625 0 
L 40.296875 0 
L 40.296875 32.40625 
Q 40.296875 36.59375 39.75 38.5 
Q 39.203125 40.40625 38.203125 40.953125 
Q 37.203125 41.5 36 41.5 
Q 34.09375 41.5 32.4375 39.75 
Q 30.796875 38 29.75 35.390625 
Q 28.703125 32.796875 28.703125 30.203125 
L 28.703125 0 
L 22 0 
L 22 31.796875 
Q 22 37.5 20.953125 39.390625 
Q 19.90625 41.296875 17 41.296875 
Q 14.796875 41.296875 12.59375 38.4375 
Q 10.40625 35.59375 10.40625 30.5 
L 10.40625 0 
z
" id="Inconsolata-Regular-109"/>
      <path d="M 26.59375 -1.09375 
Q 22.40625 -1.09375 18.90625 0.796875 
Q 15.40625 2.703125 13.09375 6 
L 10.59375 0 
L 6 0 
L 6 66.5 
L 14.203125 66.5 
L 14.203125 65.796875 
Q 13.59375 65.203125 13.4375 64.5 
Q 13.296875 63.796875 13.296875 62.09375 
L 13.296875 38.703125 
Q 15.5 42.40625 19.25 44.59375 
Q 23 46.796875 26.90625 46.796875 
Q 35.203125 46.796875 40.453125 40.9375 
Q 45.703125 35.09375 45.703125 23.296875 
Q 45.703125 15.09375 42.890625 9.6875 
Q 40.09375 4.296875 35.75 1.59375 
Q 31.40625 -1.09375 26.59375 -1.09375 
z
M 25.703125 5.296875 
Q 28.90625 5.296875 31.796875 6.9375 
Q 34.703125 8.59375 36.5 12.5 
Q 38.296875 16.40625 38.296875 22.90625 
Q 38.296875 32 34.84375 36.296875 
Q 31.40625 40.59375 25.90625 40.59375 
Q 20.40625 40.59375 16.84375 35.640625 
Q 13.296875 30.703125 13.296875 22.703125 
Q 13.296875 14.796875 16.140625 10.046875 
Q 19 5.296875 25.703125 5.296875 
z
" id="Inconsolata-Regular-98"/>
      <path d="M 27.203125 -1 
Q 17.203125 -1 11.046875 5.09375 
Q 4.90625 11.203125 4.90625 22.703125 
Q 4.90625 30.5 7.75 35.84375 
Q 10.59375 41.203125 15.34375 44 
Q 20.09375 46.796875 25.90625 46.796875 
Q 31.09375 46.796875 35.296875 44.5 
Q 39.5 42.203125 42 37.390625 
Q 44.5 32.59375 44.5 25.09375 
Q 44.5 24.296875 44.453125 23.4375 
Q 44.40625 22.59375 44.296875 21.796875 
L 11.796875 21.796875 
Q 12.203125 13 16.75 8.890625 
Q 21.296875 4.796875 27.40625 4.796875 
Q 34.59375 4.796875 39.203125 9.90625 
L 43.203125 6 
Q 37.40625 -1 27.203125 -1 
z
M 12.09375 27.40625 
L 37.203125 27.40625 
Q 37.203125 33.796875 33.953125 37.546875 
Q 30.703125 41.296875 25.40625 41.296875 
Q 20.703125 41.296875 16.890625 37.9375 
Q 13.09375 34.59375 12.09375 27.40625 
z
" id="Inconsolata-Regular-101"/>
      <path d="M 11.90625 45.703125 
L 19.40625 45.703125 
L 19.203125 37.296875 
Q 21.09375 41.90625 25.09375 44.34375 
Q 29.09375 46.796875 33.703125 46.796875 
Q 41 46.796875 45.796875 41.796875 
L 42.59375 36.203125 
L 42.203125 35.296875 
L 41.5 35.703125 
Q 41.296875 36.5 40.890625 37.203125 
Q 40.5 37.90625 39.203125 38.90625 
Q 37.59375 39.90625 36.25 40.25 
Q 34.90625 40.59375 33.203125 40.59375 
Q 29.90625 40.59375 26.65625 38.890625 
Q 23.40625 37.203125 21.296875 33.59375 
Q 19.203125 30 19.203125 24.203125 
L 19.203125 -0.09375 
L 11.90625 -0.09375 
z
" id="Inconsolata-Regular-114"/>
      <path d="M 25.09375 -1 
Q 13.5 -1 5.703125 6.203125 
L 9.703125 13 
L 10.296875 13.90625 
L 10.90625 13.5 
Q 11.09375 12.703125 11.34375 11.84375 
Q 11.59375 11 12.703125 9.796875 
Q 14.796875 7.703125 17.75 6.34375 
Q 20.703125 5 25.296875 5 
Q 30.796875 5 33.84375 6.953125 
Q 36.90625 8.90625 36.90625 12.296875 
Q 36.90625 15.203125 34.34375 17.09375 
Q 31.796875 19 25.40625 21.09375 
Q 17.5 23.40625 12.84375 26.796875 
Q 8.203125 30.203125 8.203125 35.296875 
Q 8.203125 40.5 12.453125 43.640625 
Q 16.703125 46.796875 25 46.796875 
Q 31.40625 46.796875 35.59375 45 
Q 39.796875 43.203125 43.203125 39.59375 
L 39.09375 34.59375 
L 38.40625 33.796875 
L 37.90625 34.296875 
Q 37.796875 35.09375 37.4375 35.84375 
Q 37.09375 36.59375 36 37.703125 
Q 33.703125 39.5 30.796875 40.453125 
Q 27.90625 41.40625 25.203125 41.40625 
Q 21.203125 41.40625 18.296875 40 
Q 15.40625 38.59375 15.40625 35.703125 
Q 15.40625 34.203125 16.453125 32.75 
Q 17.5 31.296875 20.296875 29.84375 
Q 23.09375 28.40625 28.296875 26.90625 
Q 36.90625 24.296875 40.453125 21.25 
Q 44 18.203125 44 13.296875 
Q 44 9.5 41.953125 6.203125 
Q 39.90625 2.90625 35.703125 0.953125 
Q 31.5 -1 25.09375 -1 
z
" id="Inconsolata-Regular-115"/>
     </defs>
     <g style="fill:#555555;" transform="translate(51.995625 128.55)rotate(-90)scale(0.12 -0.12)">
      <use xlink:href="#Inconsolata-Regular-116"/>
      <use x="49.999985" xlink:href="#Inconsolata-Regular-111"/>
      <use x="99.999969" xlink:href="#Inconsolata-Regular-116"/>
      <use x="149.999954" xlink:href="#Inconsolata-Regular-97"/>
      <use x="199.999939" xlink:href="#Inconsolata-Regular-108"/>
      <use x="249.999924" xlink:href="#Inconsolata-Regular-32"/>
      <use x="299.999908" xlink:href="#Inconsolata-Regular-110"/>
      <use x="349.999893" xlink:href="#Inconsolata-Regular-117"/>
      <use x="399.999878" xlink:href="#Inconsolata-Regular-109"/>
      <use x="449.999863" xlink:href="#Inconsolata-Regular-98"/>
      <use x="499.999847" xlink:href="#Inconsolata-Regular-101"/>
      <use x="549.999832" xlink:href="#Inconsolata-Regular-114"/>
      <use x="599.999817" xlink:href="#Inconsolata-Regular-115"/>
     </g>
    </g>
   </g>
   <g id="line2d_100">
    <path clip-path="url(#p031f8e23ac)" d="M 115.363636 151.322727 
L 118.574223 151.322727 
L 118.574223 142.26448 
L 124.995397 142.26448 
L 124.995397 136.965744 
L 128.205984 136.965744 
L 128.205984 133.206232 
L 141.048331 133.206232 
L 141.048331 119.986339 
L 144.258918 119.986339 
L 144.258918 118.849249 
L 147.469505 118.849249 
L 147.469505 115.933144 
L 153.890679 115.933144 
L 153.890679 115.089736 
L 157.101266 115.089736 
L 157.101266 112.843947 
L 160.311853 112.843947 
L 160.311853 110.347182 
L 163.52244 110.347182 
L 163.52244 109.791001 
L 169.943613 109.791001 
L 169.943613 109.257527 
L 173.1542 109.257527 
L 173.1542 108.251778 
L 176.364787 108.251778 
L 176.364787 107.776515 
L 192.417722 107.776515 
L 192.417722 107.317932 
L 195.628308 107.317932 
L 195.628308 106.874897 
L 198.838895 106.874897 
L 198.838895 106.44639 
L 205.260069 106.44639 
L 205.260069 90.628484 
L 208.470656 90.628484 
L 208.470656 81.823998 
L 211.681243 81.823998 
L 211.681243 71.988571 
L 214.89183 71.988571 
L 214.89183 67.682313 
L 218.102417 67.682313 
L 218.102417 63.438043 
L 221.313003 63.438043 
L 221.313003 61.354265 
L 224.52359 61.354265 
L 224.52359 58.019582 
L 227.734177 58.019582 
L 227.734177 53.618025 
L 230.944764 53.618025 
L 230.944764 49.956931 
L 234.155351 49.956931 
L 234.155351 46.055597 
L 237.365938 46.055597 
L 237.365938 43.825976 
L 240.576525 43.825976 
L 240.576525 41.882642 
L 243.787112 41.882642 
L 243.787112 39.540268 
L 246.997699 39.540268 
L 246.997699 38.487658 
L 250.208285 38.487658 
L 250.208285 37.444677 
L 253.418872 37.444677 
L 253.418872 36.40328 
L 256.629459 36.40328 
L 256.629459 35.544148 
L 259.840046 35.544148 
L 259.840046 35.047029 
L 263.050633 35.047029 
L 263.050633 34.757239 
L 269.471807 34.696217 
L 269.471807 34.281914 
L 272.682394 34.281914 
L 272.682394 34.091206 
L 275.89298 34.091206 
L 275.89298 33.90979 
L 279.103567 33.90979 
L 279.103567 33.735706 
L 282.314154 33.735706 
L 282.314154 33.613452 
L 285.524741 33.613452 
L 285.524741 33.495503 
L 288.735328 33.495503 
L 288.735328 33.362893 
L 291.945915 33.362893 
L 291.945915 33.217628 
L 295.156502 33.217628 
L 295.156502 32.983627 
L 298.367089 32.983627 
L 298.367089 32.851554 
L 301.577675 32.851554 
L 301.577675 32.631385 
L 304.788262 32.631385 
L 304.788262 32.39297 
L 314.420023 32.282603 
L 314.420023 32.138789 
L 317.63061 32.138789 
L 317.63061 31.990882 
L 320.841197 31.990882 
L 320.841197 31.862822 
L 324.051784 31.862822 
L 324.051784 31.659951 
L 327.262371 31.659951 
L 327.262371 31.515972 
L 333.683544 31.410035 
L 333.683544 31.242034 
L 336.894131 31.242034 
L 336.894131 31.107849 
L 340.104718 31.107849 
L 340.104718 30.990738 
L 343.315305 30.990738 
L 343.315305 30.878563 
L 346.525892 30.878563 
L 346.525892 30.757045 
L 352.947066 30.653231 
L 352.947066 30.593369 
L 359.368239 30.533781 
L 359.368239 30.466909 
L 369 30.384111 
L 369 30.346648 
L 381.842348 30.24232 
L 381.842348 30.208962 
L 401.105869 30.106947 
L 401.105869 30.095933 
L 433.211738 29.985086 
L 433.211738 29.97781 
L 458.896433 29.905276 
L 458.896433 29.864351 
L 471.73878 29.759019 
L 471.73878 29.724492 
L 491.002301 29.621456 
L 491.002301 29.583762 
L 507.055236 29.489998 
L 507.055236 29.471325 
L 516.686997 29.402701 
L 516.686997 29.311374 
L 523.10817 29.244729 
L 523.10817 29.200106 
L 532.739931 29.129478 
L 532.739931 29.086379 
L 542.371692 28.987111 
L 542.371692 28.943357 
L 548.792865 28.886361 
L 548.792865 28.822953 
L 558.424626 28.738883 
L 558.424626 28.683868 
L 568.056387 28.573439 
L 568.056387 28.521283 
L 577.688147 28.445594 
L 577.688147 28.408988 
L 587.319908 28.299781 
L 587.319908 28.247642 
L 593.741082 28.176685 
L 593.741082 28.126086 
L 603.372842 28.05997 
L 603.372842 28.006692 
L 613.004603 27.937027 
L 613.004603 27.884247 
L 622.636364 27.777273 
L 622.636364 27.777273 
" style="fill:none;stroke:#348abd;stroke-linecap:square;stroke-width:3;"/>
   </g>
   <g id="line2d_101">
    <path clip-path="url(#p031f8e23ac)" d="M 205.260069 181 
L 205.260069 151.322727 
L 208.470656 151.322727 
L 208.470656 142.26448 
L 214.89183 142.26448 
L 214.89183 127.907496 
L 218.102417 127.907496 
L 218.102417 124.147984 
L 221.313003 124.147984 
L 221.313003 121.23188 
L 224.52359 121.23188 
L 224.52359 118.849249 
L 227.734177 118.849249 
L 227.734177 117.803227 
L 234.155351 117.803227 
L 234.155351 115.089736 
L 237.365938 115.089736 
L 237.365938 114.297476 
L 240.576525 114.297476 
L 240.576525 107.776515 
L 246.997699 107.776515 
L 246.997699 104.860411 
L 253.418872 104.860411 
L 253.418872 102.47778 
L 256.629459 102.47778 
L 256.629459 101.869843 
L 259.840046 101.869843 
L 259.840046 100.19928 
L 263.050633 100.19928 
L 263.050633 99.437805 
L 266.26122 99.437805 
L 266.26122 99.19353 
L 269.471807 99.19353 
L 269.471807 97.816649 
L 272.682394 97.816649 
L 272.682394 96.571108 
L 279.103567 96.571108 
L 279.103567 95.434018 
L 282.314154 95.434018 
L 282.314154 94.900544 
L 288.735328 94.900544 
L 288.735328 93.894795 
L 291.945915 93.894795 
L 291.945915 93.419532 
L 295.156502 93.419532 
L 295.156502 92.373511 
L 298.367089 92.373511 
L 298.367089 91.949638 
L 301.577675 91.949638 
L 301.577675 90.882245 
L 304.788262 90.882245 
L 304.788262 89.777225 
L 311.209436 89.777225 
L 311.209436 88.758401 
L 314.420023 88.758401 
L 314.420023 88.120797 
L 317.63061 88.120797 
L 317.63061 87.612239 
L 320.841197 87.612239 
L 320.841197 86.837595 
L 324.051784 86.837595 
L 324.051784 86.37577 
L 327.262371 86.37577 
L 327.262371 85.669204 
L 330.472957 85.669204 
L 330.472957 85.163272 
L 333.683544 85.163272 
L 333.683544 84.836547 
L 336.894131 84.836547 
L 336.894131 84.596756 
L 340.104718 84.596756 
L 340.104718 84.283728 
L 343.315305 84.283728 
L 343.315305 83.902701 
L 346.525892 83.902701 
L 346.525892 83.679306 
L 349.736479 83.679306 
L 349.736479 83.243656 
L 352.947066 83.243656 
L 352.947066 83.031159 
L 356.157652 83.031159 
L 356.157652 82.616258 
L 359.368239 82.616258 
L 359.368239 82.082784 
L 362.578826 82.082784 
L 362.578826 81.823998 
L 365.789413 81.823998 
L 365.789413 81.570236 
L 369 81.570236 
L 369 81.383098 
L 372.210587 81.383098 
L 372.210587 81.198601 
L 375.421174 81.198601 
L 375.421174 81.016673 
L 378.631761 81.016673 
L 378.631761 80.718977 
L 381.842348 80.718977 
L 381.842348 80.543561 
L 385.052934 80.543561 
L 385.052934 80.313277 
L 391.474108 80.256335 
L 391.474108 80.143189 
L 394.684695 80.143189 
L 394.684695 80.031014 
L 397.895282 80.031014 
L 397.895282 79.919794 
L 407.527043 79.809512 
L 407.527043 79.700153 
L 417.158803 79.591702 
L 417.158803 79.537812 
L 423.579977 79.484144 
L 423.579977 79.377463 
L 433.211738 79.271646 
L 433.211738 79.16668 
L 442.843498 79.062549 
L 442.843498 78.959242 
L 465.317606 78.856745 
L 465.317606 78.755046 
L 478.159954 78.654132 
L 478.159954 78.553991 
L 500.634062 78.454612 
L 500.634062 78.355983 
L 510.265823 78.306946 
L 510.265823 78.209421 
L 532.739931 78.112619 
L 532.739931 78.064485 
L 558.424626 77.968746 
L 558.424626 77.873704 
L 580.898734 77.779348 
L 580.898734 77.732424 
L 606.583429 77.639078 
L 606.583429 77.592654 
L 622.636364 77.592654 
L 622.636364 77.592654 
" style="fill:none;stroke:#e24a33;stroke-linecap:square;stroke-width:3;"/>
   </g>
   <g id="patch_3">
    <path d="M 90 157.5 
L 90 21.6 
" style="fill:none;stroke:#ffffff;stroke-linecap:square;stroke-linejoin:miter;"/>
   </g>
   <g id="patch_4">
    <path d="M 648 157.5 
L 648 21.6 
" style="fill:none;stroke:#ffffff;stroke-linecap:square;stroke-linejoin:miter;"/>
   </g>
   <g id="patch_5">
    <path d="M 90 157.5 
L 648 157.5 
" style="fill:none;stroke:#ffffff;stroke-linecap:square;stroke-linejoin:miter;"/>
   </g>
   <g id="patch_6">
    <path d="M 90 21.6 
L 648 21.6 
" style="fill:none;stroke:#ffffff;stroke-linecap:square;stroke-linejoin:miter;"/>
   </g>
   <g id="legend_1">
    <g id="patch_7">
     <path d="M 97 56.959375 
L 224 56.959375 
Q 226 56.959375 226 54.959375 
L 226 28.6 
Q 226 26.6 224 26.6 
L 97 26.6 
Q 95 26.6 95 28.6 
L 95 54.959375 
Q 95 56.959375 97 56.959375 
z
" style="fill:#e5e5e5;opacity:0.8;stroke:#cccccc;stroke-linejoin:miter;stroke-width:0.5;"/>
    </g>
    <g id="line2d_102">
     <path d="M 99 34.1 
L 119 34.1 
" style="fill:none;stroke:#348abd;stroke-linecap:square;stroke-width:3;"/>
    </g>
    <g id="line2d_103"/>
    <g id="text_18">
     <!-- Korea, South cases -->
     <defs>
      <path d="M 16.59375 31.203125 
L 11.703125 25.796875 
L 11.703125 0 
L 4.203125 0 
L 4.203125 62.296875 
L 12.59375 62.296875 
L 12.59375 61.59375 
Q 12 61 11.84375 60.296875 
Q 11.703125 59.59375 11.703125 57.90625 
L 11.703125 33.59375 
L 37.703125 62.796875 
Q 38.796875 62.59375 40.09375 62.4375 
Q 41.40625 62.296875 42.90625 62.296875 
L 45.5 62.296875 
L 21.90625 35.40625 
L 47.09375 0 
L 38.09375 -0.40625 
z
" id="Inconsolata-Regular-75"/>
      <path d="M 19.90625 -16.796875 
L 16.5 -13.796875 
Q 19.296875 -11.203125 21.140625 -8.203125 
Q 23 -5.203125 23 -3.296875 
Q 23 -1.90625 21.75 -0.84375 
Q 20.5 0.203125 19.203125 1.390625 
Q 17.90625 2.59375 17.90625 4.40625 
Q 17.90625 6.90625 19.546875 8.59375 
Q 21.203125 10.296875 23.796875 10.296875 
Q 26.40625 10.296875 28.5 8 
Q 30.59375 5.703125 30.59375 2 
Q 30.59375 -5.796875 19.90625 -16.796875 
z
" id="Inconsolata-Regular-44"/>
      <path d="M 24.703125 -1 
Q 12.59375 -1 5.203125 6.90625 
L 8.796875 13.203125 
L 9.203125 14.09375 
L 9.90625 13.703125 
Q 10.09375 13 10.390625 12.140625 
Q 10.703125 11.296875 11.796875 10.09375 
Q 14.40625 7.90625 17.84375 6.59375 
Q 21.296875 5.296875 25.703125 5.296875 
Q 31.296875 5.296875 34.9375 8.4375 
Q 38.59375 11.59375 38.59375 16 
Q 38.59375 18.90625 37.4375 20.90625 
Q 36.296875 22.90625 33.25 24.796875 
Q 30.203125 26.703125 24.296875 29.203125 
Q 14.59375 33 10.890625 37.703125 
Q 7.203125 42.40625 7.203125 47.703125 
Q 7.203125 54.59375 12.296875 58.84375 
Q 17.40625 63.09375 26.203125 63.09375 
Q 31.296875 63.09375 35.796875 61.046875 
Q 40.296875 59 43.5 55.296875 
L 39 49.296875 
L 38.40625 49.703125 
Q 38.296875 50.5 38 51.296875 
Q 37.703125 52.09375 36.59375 53.296875 
Q 34.203125 55.59375 31.5 56.4375 
Q 28.796875 57.296875 25.09375 57.296875 
Q 20.203125 57.296875 17.296875 54.59375 
Q 14.40625 51.90625 14.40625 48.203125 
Q 14.40625 45.40625 15.65625 43.25 
Q 16.90625 41.09375 20.203125 39 
Q 23.5 36.90625 29.796875 34.40625 
Q 35.90625 31.90625 39.296875 29.34375 
Q 42.703125 26.796875 44.09375 23.84375 
Q 45.5 20.90625 45.5 17 
Q 45.5 12.703125 43.34375 8.546875 
Q 41.203125 4.40625 36.59375 1.703125 
Q 32 -1 24.703125 -1 
z
" id="Inconsolata-Regular-83"/>
      <path d="M 7.296875 66.5 
L 15.203125 66.5 
L 15.203125 65.796875 
Q 14.59375 65.203125 14.4375 64.5 
Q 14.296875 63.796875 14.296875 62.09375 
L 14.296875 37.59375 
Q 17 41.796875 21.046875 44.296875 
Q 25.09375 46.796875 29.296875 46.796875 
Q 35.5 46.796875 39.34375 42.4375 
Q 43.203125 38.09375 43.203125 27.703125 
L 43.203125 0 
L 36.203125 0 
L 36.203125 27.5 
Q 36.203125 34.703125 33.75 37.59375 
Q 31.296875 40.5 27.796875 40.5 
Q 24.796875 40.5 21.640625 38.796875 
Q 18.5 37.09375 16.390625 33.9375 
Q 14.296875 30.796875 14.296875 26.296875 
L 14.296875 0 
L 7.296875 0 
z
" id="Inconsolata-Regular-104"/>
      <path d="M 28.5 -1.09375 
Q 21.90625 -1.09375 16.703125 2 
Q 11.5 5.09375 8.546875 10.5 
Q 5.59375 15.90625 5.59375 22.796875 
Q 5.59375 29.703125 8.546875 35.046875 
Q 11.5 40.40625 16.640625 43.5 
Q 21.796875 46.59375 28.40625 46.59375 
Q 34 46.59375 38.453125 44.34375 
Q 42.90625 42.09375 45.703125 38.09375 
L 41.203125 33.703125 
L 40.5 33 
L 40 33.5 
Q 40 34.296875 39.640625 35 
Q 39.296875 35.703125 38.09375 36.90625 
Q 35.90625 38.90625 33.40625 39.703125 
Q 30.90625 40.5 27.59375 40.5 
Q 23.796875 40.5 20.4375 38.390625 
Q 17.09375 36.296875 15.046875 32.4375 
Q 13 28.59375 13 23.296875 
Q 13 18.203125 15.046875 14.140625 
Q 17.09375 10.09375 20.6875 7.75 
Q 24.296875 5.40625 28.90625 5.40625 
Q 35.796875 5.40625 40.796875 11 
L 45 6.09375 
Q 38.296875 -1.09375 28.5 -1.09375 
z
" id="Inconsolata-Regular-99"/>
     </defs>
     <g transform="translate(127 37.6)scale(0.1 -0.1)">
      <use xlink:href="#Inconsolata-Regular-75"/>
      <use x="49.999985" xlink:href="#Inconsolata-Regular-111"/>
      <use x="99.999969" xlink:href="#Inconsolata-Regular-114"/>
      <use x="149.999954" xlink:href="#Inconsolata-Regular-101"/>
      <use x="199.999939" xlink:href="#Inconsolata-Regular-97"/>
      <use x="249.999924" xlink:href="#Inconsolata-Regular-44"/>
      <use x="299.999908" xlink:href="#Inconsolata-Regular-32"/>
      <use x="349.999893" xlink:href="#Inconsolata-Regular-83"/>
      <use x="399.999878" xlink:href="#Inconsolata-Regular-111"/>
      <use x="449.999863" xlink:href="#Inconsolata-Regular-117"/>
      <use x="499.999847" xlink:href="#Inconsolata-Regular-116"/>
      <use x="549.999832" xlink:href="#Inconsolata-Regular-104"/>
      <use x="599.999817" xlink:href="#Inconsolata-Regular-32"/>
      <use x="649.999802" xlink:href="#Inconsolata-Regular-99"/>
      <use x="699.999786" xlink:href="#Inconsolata-Regular-97"/>
      <use x="749.999771" xlink:href="#Inconsolata-Regular-115"/>
      <use x="799.999756" xlink:href="#Inconsolata-Regular-101"/>
      <use x="849.999741" xlink:href="#Inconsolata-Regular-115"/>
     </g>
    </g>
    <g id="line2d_104">
     <path d="M 99 47.779687 
L 119 47.779687 
" style="fill:none;stroke:#e24a33;stroke-linecap:square;stroke-width:3;"/>
    </g>
    <g id="line2d_105"/>
    <g id="text_19">
     <!-- Korea, South deaths -->
     <defs>
      <path d="M 23.40625 -1 
Q 18.796875 -1 14.4375 1.640625 
Q 10.09375 4.296875 7.296875 9.6875 
Q 4.5 15.09375 4.5 23.296875 
Q 4.5 31.703125 7.390625 36.890625 
Q 10.296875 42.09375 14.75 44.5 
Q 19.203125 46.90625 23.796875 46.90625 
Q 28.5 46.90625 31.953125 44.75 
Q 35.40625 42.59375 37.09375 39 
L 37.09375 66.5 
L 44.703125 66.5 
L 44.703125 65.796875 
Q 44.09375 65.203125 43.9375 64.5 
Q 43.796875 63.796875 43.796875 62.09375 
L 43.90625 7.09375 
Q 43.90625 5.296875 44.046875 3.546875 
Q 44.203125 1.796875 44.90625 0 
L 37.796875 0 
Q 37.09375 1.796875 36.9375 3.546875 
Q 36.796875 5.296875 36.796875 7.09375 
Q 34.59375 3.40625 31.1875 1.203125 
Q 27.796875 -1 23.40625 -1 
z
M 24.5 5.296875 
Q 28.90625 5.296875 31.546875 7.6875 
Q 34.203125 10.09375 35.34375 14.140625 
Q 36.5 18.203125 36.5 23.09375 
Q 36.5 30.796875 33.5 35.890625 
Q 30.5 41 23.90625 41 
Q 17.796875 41 14.640625 36.5 
Q 11.5 32 11.5 24.40625 
Q 11.5 15.796875 14.796875 10.546875 
Q 18.09375 5.296875 24.5 5.296875 
z
" id="Inconsolata-Regular-100"/>
     </defs>
     <g transform="translate(127 51.279687)scale(0.1 -0.1)">
      <use xlink:href="#Inconsolata-Regular-75"/>
      <use x="49.999985" xlink:href="#Inconsolata-Regular-111"/>
      <use x="99.999969" xlink:href="#Inconsolata-Regular-114"/>
      <use x="149.999954" xlink:href="#Inconsolata-Regular-101"/>
      <use x="199.999939" xlink:href="#Inconsolata-Regular-97"/>
      <use x="249.999924" xlink:href="#Inconsolata-Regular-44"/>
      <use x="299.999908" xlink:href="#Inconsolata-Regular-32"/>
      <use x="349.999893" xlink:href="#Inconsolata-Regular-83"/>
      <use x="399.999878" xlink:href="#Inconsolata-Regular-111"/>
      <use x="449.999863" xlink:href="#Inconsolata-Regular-117"/>
      <use x="499.999847" xlink:href="#Inconsolata-Regular-116"/>
      <use x="549.999832" xlink:href="#Inconsolata-Regular-104"/>
      <use x="599.999817" xlink:href="#Inconsolata-Regular-32"/>
      <use x="649.999802" xlink:href="#Inconsolata-Regular-100"/>
      <use x="699.999786" xlink:href="#Inconsolata-Regular-101"/>
      <use x="749.999771" xlink:href="#Inconsolata-Regular-97"/>
      <use x="799.999756" xlink:href="#Inconsolata-Regular-116"/>
      <use x="849.999741" xlink:href="#Inconsolata-Regular-104"/>
      <use x="899.999725" xlink:href="#Inconsolata-Regular-115"/>
     </g>
    </g>
   </g>
  </g>
 </g>
 <defs>
  <clipPath id="p031f8e23ac">
   <rect height="135.9" width="558" x="90" y="21.6"/>
  </clipPath>
 </defs>
</svg>
