<?xml version="1.0" encoding="utf-8" standalone="no"?>
<!DOCTYPE svg PUBLIC "-//W3C//DTD SVG 1.1//EN"
  "http://www.w3.org/Graphics/SVG/1.1/DTD/svg11.dtd">
<!-- Created with matplotlib (https://matplotlib.org/) -->
<svg height="180pt" version="1.1" viewBox="0 0 720 180" width="720pt" xmlns="http://www.w3.org/2000/svg" xmlns:xlink="http://www.w3.org/1999/xlink">
 <defs>
  <style type="text/css">
*{stroke-linecap:butt;stroke-linejoin:round;}
  </style>
 </defs>
 <g id="figure_1">
  <g id="patch_1">
   <path d="M 0 180 
L 720 180 
L 720 0 
L 0 0 
z
" style="fill:#ffffff;"/>
  </g>
  <g id="axes_1">
   <g id="patch_2">
    <path d="M 90 157.5 
L 648 157.5 
L 648 21.6 
L 90 21.6 
z
" style="fill:#e5e5e5;"/>
   </g>
   <g id="matplotlib.axis_1">
    <g id="xtick_1">
     <g id="line2d_1">
      <path clip-path="url(#p87c7ad4d28)" d="M 145.922234 157.5 
L 145.922234 21.6 
" style="fill:none;stroke:#ffffff;stroke-linecap:square;stroke-width:0.8;"/>
     </g>
     <g id="line2d_2">
      <defs>
       <path d="M 0 0 
L 0 3.5 
" id="m31ca47908a" style="stroke:#555555;stroke-width:0.8;"/>
      </defs>
      <g>
       <use style="fill:#555555;stroke:#555555;stroke-width:0.8;" x="145.922234" xlink:href="#m31ca47908a" y="157.5"/>
      </g>
     </g>
     <g id="text_1">
      <!-- 2020-02 -->
      <defs>
       <path d="M 7.296875 5.59375 
Q 14 12.5 19.390625 17.84375 
Q 24.796875 23.203125 28.59375 27.640625 
Q 32.40625 32.09375 34.40625 36.296875 
Q 36.40625 40.5 36.40625 45.09375 
Q 36.40625 51.59375 33.296875 54.09375 
Q 30.203125 56.59375 25.796875 56.59375 
Q 22.203125 56.59375 19.046875 55.046875 
Q 15.90625 53.5 13.296875 50.296875 
Q 12.40625 48.90625 12.203125 48.15625 
Q 12 47.40625 12.09375 46.59375 
L 11.703125 46.09375 
L 10.90625 46.59375 
L 5.796875 50.59375 
Q 8.796875 56.40625 14.046875 59.546875 
Q 19.296875 62.703125 25.703125 62.703125 
Q 33.59375 62.703125 38.59375 57.953125 
Q 43.59375 53.203125 43.59375 44.90625 
Q 43.59375 39.703125 41.296875 35 
Q 39 30.296875 35.140625 25.6875 
Q 31.296875 21.09375 26.390625 16.296875 
Q 21.5 11.5 16.296875 6.09375 
L 39.5 6.09375 
Q 41.203125 6.09375 41.890625 6.296875 
Q 42.59375 6.5 43.203125 7.09375 
L 43.90625 7.09375 
L 43.90625 0 
L 7.296875 0 
z
" id="Inconsolata-Regular-50"/>
       <path d="M 25 -1.09375 
Q 15.703125 -1.09375 10.703125 7.203125 
Q 5.703125 15.5 5.703125 30.796875 
Q 5.703125 45.59375 10.703125 54.140625 
Q 15.703125 62.703125 25 62.703125 
Q 34.296875 62.703125 39.296875 54.140625 
Q 44.296875 45.59375 44.296875 30.796875 
Q 44.296875 15.5 39.296875 7.203125 
Q 34.296875 -1.09375 25 -1.09375 
z
M 12.90625 30.796875 
Q 12.90625 24.40625 13.796875 19.40625 
L 35 46.703125 
Q 33.5 51.40625 30.953125 54 
Q 28.40625 56.59375 25 56.59375 
Q 19.296875 56.59375 16.09375 49.59375 
Q 12.90625 42.59375 12.90625 30.796875 
z
M 25 5 
Q 30.703125 5 33.890625 11.703125 
Q 37.09375 18.40625 37.09375 30.796875 
Q 37.09375 36.296875 36.40625 40.796875 
L 15.203125 13.90625 
Q 18.296875 5 25 5 
z
" id="Inconsolata-Regular-48"/>
       <path d="M 11.09375 28.09375 
L 11.09375 34.796875 
L 39.09375 34.796875 
L 39.09375 28.09375 
z
" id="Inconsolata-Regular-45"/>
      </defs>
      <g style="fill:#555555;" transform="translate(128.422234 171.15)scale(0.1 -0.1)">
       <use xlink:href="#Inconsolata-Regular-50"/>
       <use x="49.999985" xlink:href="#Inconsolata-Regular-48"/>
       <use x="99.999969" xlink:href="#Inconsolata-Regular-50"/>
       <use x="149.999954" xlink:href="#Inconsolata-Regular-48"/>
       <use x="199.999939" xlink:href="#Inconsolata-Regular-45"/>
       <use x="249.999924" xlink:href="#Inconsolata-Regular-48"/>
       <use x="299.999908" xlink:href="#Inconsolata-Regular-50"/>
      </g>
     </g>
    </g>
    <g id="xtick_2">
     <g id="line2d_3">
      <path clip-path="url(#p87c7ad4d28)" d="M 234.542169 157.5 
L 234.542169 21.6 
" style="fill:none;stroke:#ffffff;stroke-linecap:square;stroke-width:0.8;"/>
     </g>
     <g id="line2d_4">
      <g>
       <use style="fill:#555555;stroke:#555555;stroke-width:0.8;" x="234.542169" xlink:href="#m31ca47908a" y="157.5"/>
      </g>
     </g>
     <g id="text_2">
      <!-- 2020-03 -->
      <defs>
       <path d="M 24 -1.09375 
Q 19.09375 -1.09375 14.59375 0.703125 
Q 10.09375 2.5 6.90625 6 
L 11.5 11.5 
L 12.203125 12.296875 
L 12.703125 11.796875 
Q 12.796875 11 13.09375 10.25 
Q 13.40625 9.5 14.5 8.296875 
Q 16.203125 6.796875 18.390625 5.84375 
Q 20.59375 4.90625 23.703125 4.90625 
Q 29.703125 4.90625 32.59375 8.40625 
Q 35.5 11.90625 35.5 17.40625 
Q 35.5 24.5 30.75 27.453125 
Q 26 30.40625 18 29.59375 
L 18 35.203125 
Q 24.5 35.203125 27.796875 36.890625 
Q 31.09375 38.59375 32.25 41.4375 
Q 33.40625 44.296875 33.40625 47.5 
Q 33.40625 51.796875 30.953125 54.25 
Q 28.5 56.703125 24.5 56.703125 
Q 21.5 56.703125 18.640625 55.703125 
Q 15.796875 54.703125 13.09375 52.09375 
L 8.90625 56.296875 
Q 12.296875 59.796875 16.34375 61.25 
Q 20.40625 62.703125 24.40625 62.703125 
Q 32 62.703125 36.296875 58.390625 
Q 40.59375 54.09375 40.59375 47.203125 
Q 40.59375 42.296875 38.1875 38.4375 
Q 35.796875 34.59375 30.796875 33 
Q 36.09375 31.296875 39.390625 27.390625 
Q 42.703125 23.5 42.703125 17.09375 
Q 42.703125 12.203125 40.546875 8.046875 
Q 38.40625 3.90625 34.25 1.40625 
Q 30.09375 -1.09375 24 -1.09375 
z
" id="Inconsolata-Regular-51"/>
      </defs>
      <g style="fill:#555555;" transform="translate(217.042169 171.15)scale(0.1 -0.1)">
       <use xlink:href="#Inconsolata-Regular-50"/>
       <use x="49.999985" xlink:href="#Inconsolata-Regular-48"/>
       <use x="99.999969" xlink:href="#Inconsolata-Regular-50"/>
       <use x="149.999954" xlink:href="#Inconsolata-Regular-48"/>
       <use x="199.999939" xlink:href="#Inconsolata-Regular-45"/>
       <use x="249.999924" xlink:href="#Inconsolata-Regular-48"/>
       <use x="299.999908" xlink:href="#Inconsolata-Regular-51"/>
      </g>
     </g>
    </g>
    <g id="xtick_3">
     <g id="line2d_5">
      <path clip-path="url(#p87c7ad4d28)" d="M 329.273823 157.5 
L 329.273823 21.6 
" style="fill:none;stroke:#ffffff;stroke-linecap:square;stroke-width:0.8;"/>
     </g>
     <g id="line2d_6">
      <g>
       <use style="fill:#555555;stroke:#555555;stroke-width:0.8;" x="329.273823" xlink:href="#m31ca47908a" y="157.5"/>
      </g>
     </g>
     <g id="text_3">
      <!-- 2020-04 -->
      <defs>
       <path d="M 31.796875 0 
L 31.796875 15.296875 
L 4.796875 15.296875 
L 4.796875 20.40625 
L 33.296875 62.40625 
L 39.203125 62.40625 
L 39.203125 21.09375 
L 47.203125 21.09375 
L 47.203125 15.203125 
L 39.203125 15.203125 
L 39.203125 0 
z
M 12.90625 21.203125 
L 31.796875 21.203125 
L 31.796875 49.796875 
z
" id="Inconsolata-Regular-52"/>
      </defs>
      <g style="fill:#555555;" transform="translate(311.773823 171.15)scale(0.1 -0.1)">
       <use xlink:href="#Inconsolata-Regular-50"/>
       <use x="49.999985" xlink:href="#Inconsolata-Regular-48"/>
       <use x="99.999969" xlink:href="#Inconsolata-Regular-50"/>
       <use x="149.999954" xlink:href="#Inconsolata-Regular-48"/>
       <use x="199.999939" xlink:href="#Inconsolata-Regular-45"/>
       <use x="249.999924" xlink:href="#Inconsolata-Regular-48"/>
       <use x="299.999908" xlink:href="#Inconsolata-Regular-52"/>
      </g>
     </g>
    </g>
    <g id="xtick_4">
     <g id="line2d_7">
      <path clip-path="url(#p87c7ad4d28)" d="M 420.949617 157.5 
L 420.949617 21.6 
" style="fill:none;stroke:#ffffff;stroke-linecap:square;stroke-width:0.8;"/>
     </g>
     <g id="line2d_8">
      <g>
       <use style="fill:#555555;stroke:#555555;stroke-width:0.8;" x="420.949617" xlink:href="#m31ca47908a" y="157.5"/>
      </g>
     </g>
     <g id="text_4">
      <!-- 2020-05 -->
      <defs>
       <path d="M 24.90625 -1.09375 
Q 19.203125 -1.09375 14.34375 1.40625 
Q 9.5 3.90625 6.40625 8.5 
L 12.796875 13.296875 
L 13.203125 12.796875 
Q 13.09375 12 13.4375 11.296875 
Q 13.796875 10.59375 14.796875 9.296875 
Q 16.796875 7.09375 19.25 6.046875 
Q 21.703125 5 25.296875 5 
Q 28.5 5 31.25 6.796875 
Q 34 8.59375 35.703125 11.9375 
Q 37.40625 15.296875 37.40625 19.90625 
Q 37.40625 26.90625 33.65625 30.796875 
Q 29.90625 34.703125 24.59375 34.703125 
Q 21.40625 34.703125 18.296875 33.140625 
Q 15.203125 31.59375 12.90625 28.796875 
L 8.5 30.59375 
L 10.59375 62.296875 
L 42.203125 62.296875 
L 42.203125 56 
L 16.5 56 
L 15.5 38.09375 
Q 20.5 40.5 25.703125 40.5 
Q 31.09375 40.5 35.34375 37.953125 
Q 39.59375 35.40625 42.046875 30.703125 
Q 44.5 26 44.5 19.59375 
Q 44.5 13.203125 41.890625 8.546875 
Q 39.296875 3.90625 34.890625 1.40625 
Q 30.5 -1.09375 24.90625 -1.09375 
z
" id="Inconsolata-Regular-53"/>
      </defs>
      <g style="fill:#555555;" transform="translate(403.449617 171.15)scale(0.1 -0.1)">
       <use xlink:href="#Inconsolata-Regular-50"/>
       <use x="49.999985" xlink:href="#Inconsolata-Regular-48"/>
       <use x="99.999969" xlink:href="#Inconsolata-Regular-50"/>
       <use x="149.999954" xlink:href="#Inconsolata-Regular-48"/>
       <use x="199.999939" xlink:href="#Inconsolata-Regular-45"/>
       <use x="249.999924" xlink:href="#Inconsolata-Regular-48"/>
       <use x="299.999908" xlink:href="#Inconsolata-Regular-53"/>
      </g>
     </g>
    </g>
    <g id="xtick_5">
     <g id="line2d_9">
      <path clip-path="url(#p87c7ad4d28)" d="M 515.681271 157.5 
L 515.681271 21.6 
" style="fill:none;stroke:#ffffff;stroke-linecap:square;stroke-width:0.8;"/>
     </g>
     <g id="line2d_10">
      <g>
       <use style="fill:#555555;stroke:#555555;stroke-width:0.8;" x="515.681271" xlink:href="#m31ca47908a" y="157.5"/>
      </g>
     </g>
     <g id="text_5">
      <!-- 2020-06 -->
      <defs>
       <path d="M 26.09375 -1 
Q 16.796875 -1 11.75 6.890625 
Q 6.703125 14.796875 6.703125 28.40625 
Q 6.703125 45.203125 12.703125 54.09375 
Q 18.703125 63 28.703125 63 
Q 36.59375 63 42.40625 57.296875 
L 38 52.296875 
L 37.296875 51.5 
L 36.796875 52 
Q 36.703125 52.796875 36.34375 53.5 
Q 36 54.203125 34.703125 55.296875 
Q 32.5 56.796875 28.90625 56.796875 
Q 26.90625 56.796875 24.296875 55.84375 
Q 21.703125 54.90625 19.296875 52.296875 
Q 16.90625 49.703125 15.296875 44.953125 
Q 13.703125 40.203125 13.59375 32.703125 
Q 15.703125 36.203125 19.25 38.203125 
Q 22.796875 40.203125 26.796875 40.203125 
Q 31.5 40.203125 35.34375 37.640625 
Q 39.203125 35.09375 41.546875 30.546875 
Q 43.90625 26 43.90625 19.796875 
Q 43.90625 13.59375 41.5 8.890625 
Q 39.09375 4.203125 35.09375 1.59375 
Q 31.09375 -1 26.09375 -1 
z
M 26.40625 5.203125 
Q 30.703125 5.203125 33.890625 8.890625 
Q 37.09375 12.59375 37.09375 19.703125 
Q 37.09375 24.703125 35.4375 27.890625 
Q 33.796875 31.09375 31.296875 32.59375 
Q 28.796875 34.09375 26.203125 34.09375 
Q 22.59375 34.09375 19.296875 31.640625 
Q 16 29.203125 14 25.703125 
Q 13.59375 22.296875 14.25 18.6875 
Q 14.90625 15.09375 16.546875 12.046875 
Q 18.203125 9 20.703125 7.09375 
Q 23.203125 5.203125 26.40625 5.203125 
z
" id="Inconsolata-Regular-54"/>
      </defs>
      <g style="fill:#555555;" transform="translate(498.181271 171.15)scale(0.1 -0.1)">
       <use xlink:href="#Inconsolata-Regular-50"/>
       <use x="49.999985" xlink:href="#Inconsolata-Regular-48"/>
       <use x="99.999969" xlink:href="#Inconsolata-Regular-50"/>
       <use x="149.999954" xlink:href="#Inconsolata-Regular-48"/>
       <use x="199.999939" xlink:href="#Inconsolata-Regular-45"/>
       <use x="249.999924" xlink:href="#Inconsolata-Regular-48"/>
       <use x="299.999908" xlink:href="#Inconsolata-Regular-54"/>
      </g>
     </g>
    </g>
    <g id="xtick_6">
     <g id="line2d_11">
      <path clip-path="url(#p87c7ad4d28)" d="M 607.357065 157.5 
L 607.357065 21.6 
" style="fill:none;stroke:#ffffff;stroke-linecap:square;stroke-width:0.8;"/>
     </g>
     <g id="line2d_12">
      <g>
       <use style="fill:#555555;stroke:#555555;stroke-width:0.8;" x="607.357065" xlink:href="#m31ca47908a" y="157.5"/>
      </g>
     </g>
     <g id="text_6">
      <!-- 2020-07 -->
      <defs>
       <path d="M 15.5 0 
Q 19.90625 14.296875 24.59375 28.09375 
Q 29.296875 41.90625 34.5 55.703125 
L 7.90625 55.703125 
L 7.90625 62.296875 
L 43.203125 62.296875 
L 43.203125 58.40625 
Q 37.5 44 32.5 29.5 
Q 27.5 15 23.40625 0 
z
" id="Inconsolata-Regular-55"/>
      </defs>
      <g style="fill:#555555;" transform="translate(589.857065 171.15)scale(0.1 -0.1)">
       <use xlink:href="#Inconsolata-Regular-50"/>
       <use x="49.999985" xlink:href="#Inconsolata-Regular-48"/>
       <use x="99.999969" xlink:href="#Inconsolata-Regular-50"/>
       <use x="149.999954" xlink:href="#Inconsolata-Regular-48"/>
       <use x="199.999939" xlink:href="#Inconsolata-Regular-45"/>
       <use x="249.999924" xlink:href="#Inconsolata-Regular-48"/>
       <use x="299.999908" xlink:href="#Inconsolata-Regular-55"/>
      </g>
     </g>
    </g>
   </g>
   <g id="matplotlib.axis_2">
    <g id="ytick_1">
     <g id="line2d_13">
      <path clip-path="url(#p87c7ad4d28)" d="M 90 151.322727 
L 648 151.322727 
" style="fill:none;stroke:#ffffff;stroke-linecap:square;stroke-width:0.8;"/>
     </g>
     <g id="line2d_14">
      <defs>
       <path d="M 0 0 
L -3.5 0 
" id="m4965490714" style="stroke:#555555;stroke-width:0.8;"/>
      </defs>
      <g>
       <use style="fill:#555555;stroke:#555555;stroke-width:0.8;" x="90" xlink:href="#m4965490714" y="151.322727"/>
      </g>
     </g>
     <g id="line2d_15">
      <defs>
       <path d="M 0 0 
L 3.5 0 
" id="m9e6e7c55c3" style="stroke:#555555;stroke-width:0.8;"/>
      </defs>
      <g>
       <use style="fill:#555555;stroke:#555555;stroke-width:0.8;" x="648" xlink:href="#m9e6e7c55c3" y="151.322727"/>
      </g>
     </g>
     <g id="text_7">
      <!-- 1 -->
      <defs>
       <path d="M 23 0 
L 23 53.703125 
L 10.40625 50 
L 8.796875 53.90625 
L 25.09375 62.40625 
L 30 62.40625 
L 30 0 
z
" id="Inconsolata-Regular-49"/>
      </defs>
      <g style="fill:#555555;" transform="translate(78 154.647727)scale(0.1 -0.1)">
       <use xlink:href="#Inconsolata-Regular-49"/>
      </g>
     </g>
     <g id="text_8">
      <!-- 1 -->
      <g style="fill:#555555;" transform="translate(655 154.647727)scale(0.1 -0.1)">
       <use xlink:href="#Inconsolata-Regular-49"/>
      </g>
     </g>
    </g>
    <g id="ytick_2">
     <g id="line2d_16">
      <path clip-path="url(#p87c7ad4d28)" d="M 90 121.335591 
L 648 121.335591 
" style="fill:none;stroke:#ffffff;stroke-linecap:square;stroke-width:0.8;"/>
     </g>
     <g id="line2d_17">
      <g>
       <use style="fill:#555555;stroke:#555555;stroke-width:0.8;" x="90" xlink:href="#m4965490714" y="121.335591"/>
      </g>
     </g>
     <g id="line2d_18">
      <g>
       <use style="fill:#555555;stroke:#555555;stroke-width:0.8;" x="648" xlink:href="#m9e6e7c55c3" y="121.335591"/>
      </g>
     </g>
     <g id="text_9">
      <!-- 10 -->
      <g style="fill:#555555;" transform="translate(73 124.660591)scale(0.1 -0.1)">
       <use xlink:href="#Inconsolata-Regular-49"/>
       <use x="49.999985" xlink:href="#Inconsolata-Regular-48"/>
      </g>
     </g>
     <g id="text_10">
      <!-- 10 -->
      <g style="fill:#555555;" transform="translate(655 124.660591)scale(0.1 -0.1)">
       <use xlink:href="#Inconsolata-Regular-49"/>
       <use x="49.999985" xlink:href="#Inconsolata-Regular-48"/>
      </g>
     </g>
    </g>
    <g id="ytick_3">
     <g id="line2d_19">
      <path clip-path="url(#p87c7ad4d28)" d="M 90 91.348454 
L 648 91.348454 
" style="fill:none;stroke:#ffffff;stroke-linecap:square;stroke-width:0.8;"/>
     </g>
     <g id="line2d_20">
      <g>
       <use style="fill:#555555;stroke:#555555;stroke-width:0.8;" x="90" xlink:href="#m4965490714" y="91.348454"/>
      </g>
     </g>
     <g id="line2d_21">
      <g>
       <use style="fill:#555555;stroke:#555555;stroke-width:0.8;" x="648" xlink:href="#m9e6e7c55c3" y="91.348454"/>
      </g>
     </g>
     <g id="text_11">
      <!-- 100 -->
      <g style="fill:#555555;" transform="translate(68 94.673454)scale(0.1 -0.1)">
       <use xlink:href="#Inconsolata-Regular-49"/>
       <use x="49.999985" xlink:href="#Inconsolata-Regular-48"/>
       <use x="99.999969" xlink:href="#Inconsolata-Regular-48"/>
      </g>
     </g>
     <g id="text_12">
      <!-- 100 -->
      <g style="fill:#555555;" transform="translate(655 94.673454)scale(0.1 -0.1)">
       <use xlink:href="#Inconsolata-Regular-49"/>
       <use x="49.999985" xlink:href="#Inconsolata-Regular-48"/>
       <use x="99.999969" xlink:href="#Inconsolata-Regular-48"/>
      </g>
     </g>
    </g>
    <g id="ytick_4">
     <g id="line2d_22">
      <path clip-path="url(#p87c7ad4d28)" d="M 90 61.361317 
L 648 61.361317 
" style="fill:none;stroke:#ffffff;stroke-linecap:square;stroke-width:0.8;"/>
     </g>
     <g id="line2d_23">
      <g>
       <use style="fill:#555555;stroke:#555555;stroke-width:0.8;" x="90" xlink:href="#m4965490714" y="61.361317"/>
      </g>
     </g>
     <g id="line2d_24">
      <g>
       <use style="fill:#555555;stroke:#555555;stroke-width:0.8;" x="648" xlink:href="#m9e6e7c55c3" y="61.361317"/>
      </g>
     </g>
     <g id="text_13">
      <!-- 1000 -->
      <g style="fill:#555555;" transform="translate(63 64.686317)scale(0.1 -0.1)">
       <use xlink:href="#Inconsolata-Regular-49"/>
       <use x="49.999985" xlink:href="#Inconsolata-Regular-48"/>
       <use x="99.999969" xlink:href="#Inconsolata-Regular-48"/>
       <use x="149.999954" xlink:href="#Inconsolata-Regular-48"/>
      </g>
     </g>
     <g id="text_14">
      <!-- 1000 -->
      <g style="fill:#555555;" transform="translate(655 64.686317)scale(0.1 -0.1)">
       <use xlink:href="#Inconsolata-Regular-49"/>
       <use x="49.999985" xlink:href="#Inconsolata-Regular-48"/>
       <use x="99.999969" xlink:href="#Inconsolata-Regular-48"/>
       <use x="149.999954" xlink:href="#Inconsolata-Regular-48"/>
      </g>
     </g>
    </g>
    <g id="ytick_5">
     <g id="line2d_25">
      <path clip-path="url(#p87c7ad4d28)" d="M 90 31.374181 
L 648 31.374181 
" style="fill:none;stroke:#ffffff;stroke-linecap:square;stroke-width:0.8;"/>
     </g>
     <g id="line2d_26">
      <g>
       <use style="fill:#555555;stroke:#555555;stroke-width:0.8;" x="90" xlink:href="#m4965490714" y="31.374181"/>
      </g>
     </g>
     <g id="line2d_27">
      <g>
       <use style="fill:#555555;stroke:#555555;stroke-width:0.8;" x="648" xlink:href="#m9e6e7c55c3" y="31.374181"/>
      </g>
     </g>
     <g id="text_15">
      <!-- 10000 -->
      <g style="fill:#555555;" transform="translate(58 34.699181)scale(0.1 -0.1)">
       <use xlink:href="#Inconsolata-Regular-49"/>
       <use x="49.999985" xlink:href="#Inconsolata-Regular-48"/>
       <use x="99.999969" xlink:href="#Inconsolata-Regular-48"/>
       <use x="149.999954" xlink:href="#Inconsolata-Regular-48"/>
       <use x="199.999939" xlink:href="#Inconsolata-Regular-48"/>
      </g>
     </g>
     <g id="text_16">
      <!-- 10000 -->
      <g style="fill:#555555;" transform="translate(655 34.699181)scale(0.1 -0.1)">
       <use xlink:href="#Inconsolata-Regular-49"/>
       <use x="49.999985" xlink:href="#Inconsolata-Regular-48"/>
       <use x="99.999969" xlink:href="#Inconsolata-Regular-48"/>
       <use x="149.999954" xlink:href="#Inconsolata-Regular-48"/>
       <use x="199.999939" xlink:href="#Inconsolata-Regular-48"/>
      </g>
     </g>
    </g>
    <g id="ytick_6">
     <g id="line2d_28">
      <defs>
       <path d="M 0 0 
L -2 0 
" id="m9045a5525c" style="stroke:#555555;stroke-width:0.6;"/>
      </defs>
      <g>
       <use style="fill:#555555;stroke:#555555;stroke-width:0.6;" x="90" xlink:href="#m9045a5525c" y="155.967794"/>
      </g>
     </g>
     <g id="line2d_29">
      <defs>
       <path d="M 0 0 
L 2 0 
" id="m3548ddff06" style="stroke:#555555;stroke-width:0.6;"/>
      </defs>
      <g>
       <use style="fill:#555555;stroke:#555555;stroke-width:0.6;" x="648" xlink:href="#m3548ddff06" y="155.967794"/>
      </g>
     </g>
    </g>
    <g id="ytick_7">
     <g id="line2d_30">
      <g>
       <use style="fill:#555555;stroke:#555555;stroke-width:0.6;" x="90" xlink:href="#m9045a5525c" y="154.228781"/>
      </g>
     </g>
     <g id="line2d_31">
      <g>
       <use style="fill:#555555;stroke:#555555;stroke-width:0.6;" x="648" xlink:href="#m3548ddff06" y="154.228781"/>
      </g>
     </g>
    </g>
    <g id="ytick_8">
     <g id="line2d_32">
      <g>
       <use style="fill:#555555;stroke:#555555;stroke-width:0.6;" x="90" xlink:href="#m9045a5525c" y="152.694863"/>
      </g>
     </g>
     <g id="line2d_33">
      <g>
       <use style="fill:#555555;stroke:#555555;stroke-width:0.6;" x="648" xlink:href="#m3548ddff06" y="152.694863"/>
      </g>
     </g>
    </g>
    <g id="ytick_9">
     <g id="line2d_34">
      <g>
       <use style="fill:#555555;stroke:#555555;stroke-width:0.6;" x="90" xlink:href="#m9045a5525c" y="142.2957"/>
      </g>
     </g>
     <g id="line2d_35">
      <g>
       <use style="fill:#555555;stroke:#555555;stroke-width:0.6;" x="648" xlink:href="#m3548ddff06" y="142.2957"/>
      </g>
     </g>
    </g>
    <g id="ytick_10">
     <g id="line2d_36">
      <g>
       <use style="fill:#555555;stroke:#555555;stroke-width:0.6;" x="90" xlink:href="#m9045a5525c" y="137.015227"/>
      </g>
     </g>
     <g id="line2d_37">
      <g>
       <use style="fill:#555555;stroke:#555555;stroke-width:0.6;" x="648" xlink:href="#m3548ddff06" y="137.015227"/>
      </g>
     </g>
    </g>
    <g id="ytick_11">
     <g id="line2d_38">
      <g>
       <use style="fill:#555555;stroke:#555555;stroke-width:0.6;" x="90" xlink:href="#m9045a5525c" y="133.268672"/>
      </g>
     </g>
     <g id="line2d_39">
      <g>
       <use style="fill:#555555;stroke:#555555;stroke-width:0.6;" x="648" xlink:href="#m3548ddff06" y="133.268672"/>
      </g>
     </g>
    </g>
    <g id="ytick_12">
     <g id="line2d_40">
      <g>
       <use style="fill:#555555;stroke:#555555;stroke-width:0.6;" x="90" xlink:href="#m9045a5525c" y="130.362618"/>
      </g>
     </g>
     <g id="line2d_41">
      <g>
       <use style="fill:#555555;stroke:#555555;stroke-width:0.6;" x="648" xlink:href="#m3548ddff06" y="130.362618"/>
      </g>
     </g>
    </g>
    <g id="ytick_13">
     <g id="line2d_42">
      <g>
       <use style="fill:#555555;stroke:#555555;stroke-width:0.6;" x="90" xlink:href="#m9045a5525c" y="127.988199"/>
      </g>
     </g>
     <g id="line2d_43">
      <g>
       <use style="fill:#555555;stroke:#555555;stroke-width:0.6;" x="648" xlink:href="#m3548ddff06" y="127.988199"/>
      </g>
     </g>
    </g>
    <g id="ytick_14">
     <g id="line2d_44">
      <g>
       <use style="fill:#555555;stroke:#555555;stroke-width:0.6;" x="90" xlink:href="#m9045a5525c" y="125.980657"/>
      </g>
     </g>
     <g id="line2d_45">
      <g>
       <use style="fill:#555555;stroke:#555555;stroke-width:0.6;" x="648" xlink:href="#m3548ddff06" y="125.980657"/>
      </g>
     </g>
    </g>
    <g id="ytick_15">
     <g id="line2d_46">
      <g>
       <use style="fill:#555555;stroke:#555555;stroke-width:0.6;" x="90" xlink:href="#m9045a5525c" y="124.241644"/>
      </g>
     </g>
     <g id="line2d_47">
      <g>
       <use style="fill:#555555;stroke:#555555;stroke-width:0.6;" x="648" xlink:href="#m3548ddff06" y="124.241644"/>
      </g>
     </g>
    </g>
    <g id="ytick_16">
     <g id="line2d_48">
      <g>
       <use style="fill:#555555;stroke:#555555;stroke-width:0.6;" x="90" xlink:href="#m9045a5525c" y="122.707727"/>
      </g>
     </g>
     <g id="line2d_49">
      <g>
       <use style="fill:#555555;stroke:#555555;stroke-width:0.6;" x="648" xlink:href="#m3548ddff06" y="122.707727"/>
      </g>
     </g>
    </g>
    <g id="ytick_17">
     <g id="line2d_50">
      <g>
       <use style="fill:#555555;stroke:#555555;stroke-width:0.6;" x="90" xlink:href="#m9045a5525c" y="112.308563"/>
      </g>
     </g>
     <g id="line2d_51">
      <g>
       <use style="fill:#555555;stroke:#555555;stroke-width:0.6;" x="648" xlink:href="#m3548ddff06" y="112.308563"/>
      </g>
     </g>
    </g>
    <g id="ytick_18">
     <g id="line2d_52">
      <g>
       <use style="fill:#555555;stroke:#555555;stroke-width:0.6;" x="90" xlink:href="#m9045a5525c" y="107.02809"/>
      </g>
     </g>
     <g id="line2d_53">
      <g>
       <use style="fill:#555555;stroke:#555555;stroke-width:0.6;" x="648" xlink:href="#m3548ddff06" y="107.02809"/>
      </g>
     </g>
    </g>
    <g id="ytick_19">
     <g id="line2d_54">
      <g>
       <use style="fill:#555555;stroke:#555555;stroke-width:0.6;" x="90" xlink:href="#m9045a5525c" y="103.281535"/>
      </g>
     </g>
     <g id="line2d_55">
      <g>
       <use style="fill:#555555;stroke:#555555;stroke-width:0.6;" x="648" xlink:href="#m3548ddff06" y="103.281535"/>
      </g>
     </g>
    </g>
    <g id="ytick_20">
     <g id="line2d_56">
      <g>
       <use style="fill:#555555;stroke:#555555;stroke-width:0.6;" x="90" xlink:href="#m9045a5525c" y="100.375482"/>
      </g>
     </g>
     <g id="line2d_57">
      <g>
       <use style="fill:#555555;stroke:#555555;stroke-width:0.6;" x="648" xlink:href="#m3548ddff06" y="100.375482"/>
      </g>
     </g>
    </g>
    <g id="ytick_21">
     <g id="line2d_58">
      <g>
       <use style="fill:#555555;stroke:#555555;stroke-width:0.6;" x="90" xlink:href="#m9045a5525c" y="98.001063"/>
      </g>
     </g>
     <g id="line2d_59">
      <g>
       <use style="fill:#555555;stroke:#555555;stroke-width:0.6;" x="648" xlink:href="#m3548ddff06" y="98.001063"/>
      </g>
     </g>
    </g>
    <g id="ytick_22">
     <g id="line2d_60">
      <g>
       <use style="fill:#555555;stroke:#555555;stroke-width:0.6;" x="90" xlink:href="#m9045a5525c" y="95.99352"/>
      </g>
     </g>
     <g id="line2d_61">
      <g>
       <use style="fill:#555555;stroke:#555555;stroke-width:0.6;" x="648" xlink:href="#m3548ddff06" y="95.99352"/>
      </g>
     </g>
    </g>
    <g id="ytick_23">
     <g id="line2d_62">
      <g>
       <use style="fill:#555555;stroke:#555555;stroke-width:0.6;" x="90" xlink:href="#m9045a5525c" y="94.254508"/>
      </g>
     </g>
     <g id="line2d_63">
      <g>
       <use style="fill:#555555;stroke:#555555;stroke-width:0.6;" x="648" xlink:href="#m3548ddff06" y="94.254508"/>
      </g>
     </g>
    </g>
    <g id="ytick_24">
     <g id="line2d_64">
      <g>
       <use style="fill:#555555;stroke:#555555;stroke-width:0.6;" x="90" xlink:href="#m9045a5525c" y="92.72059"/>
      </g>
     </g>
     <g id="line2d_65">
      <g>
       <use style="fill:#555555;stroke:#555555;stroke-width:0.6;" x="648" xlink:href="#m3548ddff06" y="92.72059"/>
      </g>
     </g>
    </g>
    <g id="ytick_25">
     <g id="line2d_66">
      <g>
       <use style="fill:#555555;stroke:#555555;stroke-width:0.6;" x="90" xlink:href="#m9045a5525c" y="82.321426"/>
      </g>
     </g>
     <g id="line2d_67">
      <g>
       <use style="fill:#555555;stroke:#555555;stroke-width:0.6;" x="648" xlink:href="#m3548ddff06" y="82.321426"/>
      </g>
     </g>
    </g>
    <g id="ytick_26">
     <g id="line2d_68">
      <g>
       <use style="fill:#555555;stroke:#555555;stroke-width:0.6;" x="90" xlink:href="#m9045a5525c" y="77.040954"/>
      </g>
     </g>
     <g id="line2d_69">
      <g>
       <use style="fill:#555555;stroke:#555555;stroke-width:0.6;" x="648" xlink:href="#m3548ddff06" y="77.040954"/>
      </g>
     </g>
    </g>
    <g id="ytick_27">
     <g id="line2d_70">
      <g>
       <use style="fill:#555555;stroke:#555555;stroke-width:0.6;" x="90" xlink:href="#m9045a5525c" y="73.294399"/>
      </g>
     </g>
     <g id="line2d_71">
      <g>
       <use style="fill:#555555;stroke:#555555;stroke-width:0.6;" x="648" xlink:href="#m3548ddff06" y="73.294399"/>
      </g>
     </g>
    </g>
    <g id="ytick_28">
     <g id="line2d_72">
      <g>
       <use style="fill:#555555;stroke:#555555;stroke-width:0.6;" x="90" xlink:href="#m9045a5525c" y="70.388345"/>
      </g>
     </g>
     <g id="line2d_73">
      <g>
       <use style="fill:#555555;stroke:#555555;stroke-width:0.6;" x="648" xlink:href="#m3548ddff06" y="70.388345"/>
      </g>
     </g>
    </g>
    <g id="ytick_29">
     <g id="line2d_74">
      <g>
       <use style="fill:#555555;stroke:#555555;stroke-width:0.6;" x="90" xlink:href="#m9045a5525c" y="68.013926"/>
      </g>
     </g>
     <g id="line2d_75">
      <g>
       <use style="fill:#555555;stroke:#555555;stroke-width:0.6;" x="648" xlink:href="#m3548ddff06" y="68.013926"/>
      </g>
     </g>
    </g>
    <g id="ytick_30">
     <g id="line2d_76">
      <g>
       <use style="fill:#555555;stroke:#555555;stroke-width:0.6;" x="90" xlink:href="#m9045a5525c" y="66.006384"/>
      </g>
     </g>
     <g id="line2d_77">
      <g>
       <use style="fill:#555555;stroke:#555555;stroke-width:0.6;" x="648" xlink:href="#m3548ddff06" y="66.006384"/>
      </g>
     </g>
    </g>
    <g id="ytick_31">
     <g id="line2d_78">
      <g>
       <use style="fill:#555555;stroke:#555555;stroke-width:0.6;" x="90" xlink:href="#m9045a5525c" y="64.267371"/>
      </g>
     </g>
     <g id="line2d_79">
      <g>
       <use style="fill:#555555;stroke:#555555;stroke-width:0.6;" x="648" xlink:href="#m3548ddff06" y="64.267371"/>
      </g>
     </g>
    </g>
    <g id="ytick_32">
     <g id="line2d_80">
      <g>
       <use style="fill:#555555;stroke:#555555;stroke-width:0.6;" x="90" xlink:href="#m9045a5525c" y="62.733453"/>
      </g>
     </g>
     <g id="line2d_81">
      <g>
       <use style="fill:#555555;stroke:#555555;stroke-width:0.6;" x="648" xlink:href="#m3548ddff06" y="62.733453"/>
      </g>
     </g>
    </g>
    <g id="ytick_33">
     <g id="line2d_82">
      <g>
       <use style="fill:#555555;stroke:#555555;stroke-width:0.6;" x="90" xlink:href="#m9045a5525c" y="52.33429"/>
      </g>
     </g>
     <g id="line2d_83">
      <g>
       <use style="fill:#555555;stroke:#555555;stroke-width:0.6;" x="648" xlink:href="#m3548ddff06" y="52.33429"/>
      </g>
     </g>
    </g>
    <g id="ytick_34">
     <g id="line2d_84">
      <g>
       <use style="fill:#555555;stroke:#555555;stroke-width:0.6;" x="90" xlink:href="#m9045a5525c" y="47.053817"/>
      </g>
     </g>
     <g id="line2d_85">
      <g>
       <use style="fill:#555555;stroke:#555555;stroke-width:0.6;" x="648" xlink:href="#m3548ddff06" y="47.053817"/>
      </g>
     </g>
    </g>
    <g id="ytick_35">
     <g id="line2d_86">
      <g>
       <use style="fill:#555555;stroke:#555555;stroke-width:0.6;" x="90" xlink:href="#m9045a5525c" y="43.307262"/>
      </g>
     </g>
     <g id="line2d_87">
      <g>
       <use style="fill:#555555;stroke:#555555;stroke-width:0.6;" x="648" xlink:href="#m3548ddff06" y="43.307262"/>
      </g>
     </g>
    </g>
    <g id="ytick_36">
     <g id="line2d_88">
      <g>
       <use style="fill:#555555;stroke:#555555;stroke-width:0.6;" x="90" xlink:href="#m9045a5525c" y="40.401208"/>
      </g>
     </g>
     <g id="line2d_89">
      <g>
       <use style="fill:#555555;stroke:#555555;stroke-width:0.6;" x="648" xlink:href="#m3548ddff06" y="40.401208"/>
      </g>
     </g>
    </g>
    <g id="ytick_37">
     <g id="line2d_90">
      <g>
       <use style="fill:#555555;stroke:#555555;stroke-width:0.6;" x="90" xlink:href="#m9045a5525c" y="38.026789"/>
      </g>
     </g>
     <g id="line2d_91">
      <g>
       <use style="fill:#555555;stroke:#555555;stroke-width:0.6;" x="648" xlink:href="#m3548ddff06" y="38.026789"/>
      </g>
     </g>
    </g>
    <g id="ytick_38">
     <g id="line2d_92">
      <g>
       <use style="fill:#555555;stroke:#555555;stroke-width:0.6;" x="90" xlink:href="#m9045a5525c" y="36.019247"/>
      </g>
     </g>
     <g id="line2d_93">
      <g>
       <use style="fill:#555555;stroke:#555555;stroke-width:0.6;" x="648" xlink:href="#m3548ddff06" y="36.019247"/>
      </g>
     </g>
    </g>
    <g id="ytick_39">
     <g id="line2d_94">
      <g>
       <use style="fill:#555555;stroke:#555555;stroke-width:0.6;" x="90" xlink:href="#m9045a5525c" y="34.280234"/>
      </g>
     </g>
     <g id="line2d_95">
      <g>
       <use style="fill:#555555;stroke:#555555;stroke-width:0.6;" x="648" xlink:href="#m3548ddff06" y="34.280234"/>
      </g>
     </g>
    </g>
    <g id="ytick_40">
     <g id="line2d_96">
      <g>
       <use style="fill:#555555;stroke:#555555;stroke-width:0.6;" x="90" xlink:href="#m9045a5525c" y="32.746317"/>
      </g>
     </g>
     <g id="line2d_97">
      <g>
       <use style="fill:#555555;stroke:#555555;stroke-width:0.6;" x="648" xlink:href="#m3548ddff06" y="32.746317"/>
      </g>
     </g>
    </g>
    <g id="ytick_41">
     <g id="line2d_98">
      <g>
       <use style="fill:#555555;stroke:#555555;stroke-width:0.6;" x="90" xlink:href="#m9045a5525c" y="22.347153"/>
      </g>
     </g>
     <g id="line2d_99">
      <g>
       <use style="fill:#555555;stroke:#555555;stroke-width:0.6;" x="648" xlink:href="#m3548ddff06" y="22.347153"/>
      </g>
     </g>
    </g>
    <g id="text_17">
     <!-- total numbers -->
     <defs>
      <path d="M 29.90625 -0.703125 
Q 24 -0.703125 20.953125 2 
Q 17.90625 4.703125 16.90625 10.34375 
Q 15.90625 16 16.203125 24.796875 
L 16.796875 39.796875 
L 7 39.796875 
L 7 45.703125 
L 17 45.703125 
L 17.40625 57.40625 
L 24.90625 58.296875 
L 25.90625 58.40625 
L 26 57.703125 
Q 25.5 57 25.140625 56.296875 
Q 24.796875 55.59375 24.59375 53.90625 
L 23.90625 45.703125 
L 39.90625 45.703125 
L 39.90625 39.796875 
L 24 39.796875 
L 23.296875 24.296875 
Q 23 16.703125 23.703125 12.546875 
Q 24.40625 8.40625 26.203125 6.84375 
Q 28 5.296875 31 5.296875 
Q 34.296875 5.296875 36.84375 6.59375 
Q 39.40625 7.90625 42.203125 9.90625 
L 44.40625 4.203125 
Q 41 1.703125 37.390625 0.5 
Q 33.796875 -0.703125 29.90625 -0.703125 
z
" id="Inconsolata-Regular-116"/>
      <path d="M 25 -0.796875 
Q 18.796875 -0.796875 14.046875 2.25 
Q 9.296875 5.296875 6.59375 10.640625 
Q 3.90625 16 3.90625 22.90625 
Q 3.90625 29.90625 6.59375 35.25 
Q 9.296875 40.59375 14.046875 43.640625 
Q 18.796875 46.703125 25 46.703125 
Q 31.203125 46.703125 35.953125 43.640625 
Q 40.703125 40.59375 43.390625 35.25 
Q 46.09375 29.90625 46.09375 22.90625 
Q 46.09375 16 43.390625 10.640625 
Q 40.703125 5.296875 35.953125 2.25 
Q 31.203125 -0.796875 25 -0.796875 
z
M 25 5.203125 
Q 29 5.203125 32 7.5 
Q 35 9.796875 36.75 13.796875 
Q 38.5 17.796875 38.5 23 
Q 38.5 30.796875 34.703125 35.75 
Q 30.90625 40.703125 25 40.703125 
Q 19.09375 40.703125 15.296875 35.75 
Q 11.5 30.796875 11.5 23 
Q 11.5 17.796875 13.25 13.796875 
Q 15 9.796875 18.046875 7.5 
Q 21.09375 5.203125 25 5.203125 
z
" id="Inconsolata-Regular-111"/>
      <path d="M 21.09375 -1.09375 
Q 13.296875 -1.09375 9.09375 2.453125 
Q 4.90625 6 4.90625 11.5 
Q 4.90625 16.40625 8 19.953125 
Q 11.09375 23.5 16.34375 25.453125 
Q 21.59375 27.40625 27.90625 27.40625 
Q 30.203125 27.40625 32.75 27.296875 
Q 35.296875 27.203125 38.203125 26.796875 
Q 37.59375 34.796875 34.046875 37.796875 
Q 30.5 40.796875 23.90625 40.796875 
Q 20.59375 40.796875 17.390625 39.546875 
Q 14.203125 38.296875 11.59375 35.703125 
L 8.09375 40.296875 
Q 11.296875 43.5 15.5 45.09375 
Q 19.703125 46.703125 24.40625 46.703125 
Q 30.5 46.703125 35 44.703125 
Q 39.5 42.703125 42 37.796875 
Q 44.5 32.90625 44.5 24.296875 
L 44.5 0 
L 36.703125 0 
L 36.703125 7 
Q 35 3.703125 32.34375 1.953125 
Q 29.703125 0.203125 26.75 -0.4375 
Q 23.796875 -1.09375 21.09375 -1.09375 
z
M 12.09375 11.90625 
Q 12.09375 7.59375 14.890625 6 
Q 17.703125 4.40625 21.796875 4.40625 
Q 29.203125 4.40625 33.5 8.75 
Q 37.796875 13.09375 38.203125 21.296875 
Q 33 22 28.5 22 
Q 21.296875 22 16.6875 19.59375 
Q 12.09375 17.203125 12.09375 11.90625 
z
" id="Inconsolata-Regular-97"/>
      <path d="M 7.90625 0 
L 7.90625 5.796875 
L 21.40625 5.796875 
L 21.40625 60.703125 
L 8.5 60.703125 
L 8.5 66.5 
L 28.703125 66.5 
L 28.703125 5.796875 
L 42.09375 5.796875 
L 42.09375 0 
z
" id="Inconsolata-Regular-108"/>
      <path id="Inconsolata-Regular-32"/>
      <path d="M 7.203125 0 
L 7.203125 45.703125 
L 14.203125 45.703125 
L 14.203125 37.59375 
Q 16.796875 41.796875 20.9375 44.296875 
Q 25.09375 46.796875 29.703125 46.796875 
Q 35.296875 46.796875 39.1875 42.4375 
Q 43.09375 38.09375 43.09375 27.703125 
L 43.09375 0 
L 36.09375 0 
L 36.09375 27.5 
Q 36.09375 34.703125 33.640625 37.59375 
Q 31.203125 40.5 27.703125 40.5 
Q 24.703125 40.5 21.546875 38.75 
Q 18.40625 37 16.296875 33.84375 
Q 14.203125 30.703125 14.203125 26.296875 
L 14.203125 0 
z
" id="Inconsolata-Regular-110"/>
      <path d="M 22.09375 -1.09375 
Q 15.296875 -1.09375 10.796875 4 
Q 6.296875 9.09375 6.40625 20.203125 
L 6.5 45.703125 
L 13.5 45.703125 
L 13.5 20.203125 
Q 13.5 11.5 16.546875 8.09375 
Q 19.59375 4.703125 23.90625 4.703125 
Q 27.09375 4.703125 29.890625 6.390625 
Q 32.703125 8.09375 34.453125 11.59375 
Q 36.203125 15.09375 36.203125 20.5 
L 36.203125 45.703125 
L 43.203125 45.703125 
L 43.203125 7.09375 
Q 43.203125 5.296875 43.34375 3.546875 
Q 43.5 1.796875 44.203125 0 
L 37.296875 0 
Q 36.59375 1.703125 36.4375 3.5 
Q 36.296875 5.296875 36.296875 7 
Q 34.09375 3.203125 30.34375 1.046875 
Q 26.59375 -1.09375 22.09375 -1.09375 
z
" id="Inconsolata-Regular-117"/>
      <path d="M 3.796875 0 
L 3.796875 45.703125 
L 10.40625 45.703125 
L 10.40625 41.203125 
Q 12 43.703125 14.5 45.25 
Q 17 46.796875 19.703125 46.796875 
Q 22.703125 46.796875 24.953125 44.890625 
Q 27.203125 43 27.796875 40.09375 
Q 29.09375 43.09375 31.890625 44.9375 
Q 34.703125 46.796875 38.09375 46.796875 
Q 42.796875 46.796875 44.9375 43.4375 
Q 47.09375 40.09375 46.90625 35.09375 
L 46.90625 0 
L 40.296875 0 
L 40.296875 32.40625 
Q 40.296875 36.59375 39.75 38.5 
Q 39.203125 40.40625 38.203125 40.953125 
Q 37.203125 41.5 36 41.5 
Q 34.09375 41.5 32.4375 39.75 
Q 30.796875 38 29.75 35.390625 
Q 28.703125 32.796875 28.703125 30.203125 
L 28.703125 0 
L 22 0 
L 22 31.796875 
Q 22 37.5 20.953125 39.390625 
Q 19.90625 41.296875 17 41.296875 
Q 14.796875 41.296875 12.59375 38.4375 
Q 10.40625 35.59375 10.40625 30.5 
L 10.40625 0 
z
" id="Inconsolata-Regular-109"/>
      <path d="M 26.59375 -1.09375 
Q 22.40625 -1.09375 18.90625 0.796875 
Q 15.40625 2.703125 13.09375 6 
L 10.59375 0 
L 6 0 
L 6 66.5 
L 14.203125 66.5 
L 14.203125 65.796875 
Q 13.59375 65.203125 13.4375 64.5 
Q 13.296875 63.796875 13.296875 62.09375 
L 13.296875 38.703125 
Q 15.5 42.40625 19.25 44.59375 
Q 23 46.796875 26.90625 46.796875 
Q 35.203125 46.796875 40.453125 40.9375 
Q 45.703125 35.09375 45.703125 23.296875 
Q 45.703125 15.09375 42.890625 9.6875 
Q 40.09375 4.296875 35.75 1.59375 
Q 31.40625 -1.09375 26.59375 -1.09375 
z
M 25.703125 5.296875 
Q 28.90625 5.296875 31.796875 6.9375 
Q 34.703125 8.59375 36.5 12.5 
Q 38.296875 16.40625 38.296875 22.90625 
Q 38.296875 32 34.84375 36.296875 
Q 31.40625 40.59375 25.90625 40.59375 
Q 20.40625 40.59375 16.84375 35.640625 
Q 13.296875 30.703125 13.296875 22.703125 
Q 13.296875 14.796875 16.140625 10.046875 
Q 19 5.296875 25.703125 5.296875 
z
" id="Inconsolata-Regular-98"/>
      <path d="M 27.203125 -1 
Q 17.203125 -1 11.046875 5.09375 
Q 4.90625 11.203125 4.90625 22.703125 
Q 4.90625 30.5 7.75 35.84375 
Q 10.59375 41.203125 15.34375 44 
Q 20.09375 46.796875 25.90625 46.796875 
Q 31.09375 46.796875 35.296875 44.5 
Q 39.5 42.203125 42 37.390625 
Q 44.5 32.59375 44.5 25.09375 
Q 44.5 24.296875 44.453125 23.4375 
Q 44.40625 22.59375 44.296875 21.796875 
L 11.796875 21.796875 
Q 12.203125 13 16.75 8.890625 
Q 21.296875 4.796875 27.40625 4.796875 
Q 34.59375 4.796875 39.203125 9.90625 
L 43.203125 6 
Q 37.40625 -1 27.203125 -1 
z
M 12.09375 27.40625 
L 37.203125 27.40625 
Q 37.203125 33.796875 33.953125 37.546875 
Q 30.703125 41.296875 25.40625 41.296875 
Q 20.703125 41.296875 16.890625 37.9375 
Q 13.09375 34.59375 12.09375 27.40625 
z
" id="Inconsolata-Regular-101"/>
      <path d="M 11.90625 45.703125 
L 19.40625 45.703125 
L 19.203125 37.296875 
Q 21.09375 41.90625 25.09375 44.34375 
Q 29.09375 46.796875 33.703125 46.796875 
Q 41 46.796875 45.796875 41.796875 
L 42.59375 36.203125 
L 42.203125 35.296875 
L 41.5 35.703125 
Q 41.296875 36.5 40.890625 37.203125 
Q 40.5 37.90625 39.203125 38.90625 
Q 37.59375 39.90625 36.25 40.25 
Q 34.90625 40.59375 33.203125 40.59375 
Q 29.90625 40.59375 26.65625 38.890625 
Q 23.40625 37.203125 21.296875 33.59375 
Q 19.203125 30 19.203125 24.203125 
L 19.203125 -0.09375 
L 11.90625 -0.09375 
z
" id="Inconsolata-Regular-114"/>
      <path d="M 25.09375 -1 
Q 13.5 -1 5.703125 6.203125 
L 9.703125 13 
L 10.296875 13.90625 
L 10.90625 13.5 
Q 11.09375 12.703125 11.34375 11.84375 
Q 11.59375 11 12.703125 9.796875 
Q 14.796875 7.703125 17.75 6.34375 
Q 20.703125 5 25.296875 5 
Q 30.796875 5 33.84375 6.953125 
Q 36.90625 8.90625 36.90625 12.296875 
Q 36.90625 15.203125 34.34375 17.09375 
Q 31.796875 19 25.40625 21.09375 
Q 17.5 23.40625 12.84375 26.796875 
Q 8.203125 30.203125 8.203125 35.296875 
Q 8.203125 40.5 12.453125 43.640625 
Q 16.703125 46.796875 25 46.796875 
Q 31.40625 46.796875 35.59375 45 
Q 39.796875 43.203125 43.203125 39.59375 
L 39.09375 34.59375 
L 38.40625 33.796875 
L 37.90625 34.296875 
Q 37.796875 35.09375 37.4375 35.84375 
Q 37.09375 36.59375 36 37.703125 
Q 33.703125 39.5 30.796875 40.453125 
Q 27.90625 41.40625 25.203125 41.40625 
Q 21.203125 41.40625 18.296875 40 
Q 15.40625 38.59375 15.40625 35.703125 
Q 15.40625 34.203125 16.453125 32.75 
Q 17.5 31.296875 20.296875 29.84375 
Q 23.09375 28.40625 28.296875 26.90625 
Q 36.90625 24.296875 40.453125 21.25 
Q 44 18.203125 44 13.296875 
Q 44 9.5 41.953125 6.203125 
Q 39.90625 2.90625 35.703125 0.953125 
Q 31.5 -1 25.09375 -1 
z
" id="Inconsolata-Regular-115"/>
     </defs>
     <g style="fill:#555555;" transform="translate(51.995625 128.55)rotate(-90)scale(0.12 -0.12)">
      <use xlink:href="#Inconsolata-Regular-116"/>
      <use x="49.999985" xlink:href="#Inconsolata-Regular-111"/>
      <use x="99.999969" xlink:href="#Inconsolata-Regular-116"/>
      <use x="149.999954" xlink:href="#Inconsolata-Regular-97"/>
      <use x="199.999939" xlink:href="#Inconsolata-Regular-108"/>
      <use x="249.999924" xlink:href="#Inconsolata-Regular-32"/>
      <use x="299.999908" xlink:href="#Inconsolata-Regular-110"/>
      <use x="349.999893" xlink:href="#Inconsolata-Regular-117"/>
      <use x="399.999878" xlink:href="#Inconsolata-Regular-109"/>
      <use x="449.999863" xlink:href="#Inconsolata-Regular-98"/>
      <use x="499.999847" xlink:href="#Inconsolata-Regular-101"/>
      <use x="549.999832" xlink:href="#Inconsolata-Regular-114"/>
      <use x="599.999817" xlink:href="#Inconsolata-Regular-115"/>
     </g>
    </g>
   </g>
   <g id="line2d_100">
    <path clip-path="url(#p87c7ad4d28)" d="M 115.363636 151.322727 
L 118.419496 151.322727 
L 118.419496 142.2957 
L 124.531216 142.2957 
L 124.531216 137.015227 
L 127.587076 137.015227 
L 127.587076 133.268672 
L 139.810515 133.268672 
L 139.810515 120.094342 
L 142.866375 120.094342 
L 142.866375 118.961172 
L 145.922234 118.961172 
L 145.922234 116.055118 
L 152.033954 116.055118 
L 152.033954 115.214617 
L 155.089814 115.214617 
L 155.089814 112.976568 
L 158.145674 112.976568 
L 158.145674 110.488409 
L 161.201533 110.488409 
L 161.201533 109.934144 
L 167.313253 109.934144 
L 167.313253 109.402509 
L 170.369113 109.402509 
L 170.369113 108.400226 
L 173.424973 108.400226 
L 173.424973 107.926602 
L 188.704272 107.926602 
L 188.704272 107.469599 
L 191.760131 107.469599 
L 191.760131 107.02809 
L 194.815991 107.02809 
L 194.815991 106.60106 
L 200.927711 106.60106 
L 200.927711 90.837673 
L 203.983571 90.837673 
L 203.983571 82.063532 
L 207.03943 82.063532 
L 207.03943 72.262004 
L 210.09529 72.262004 
L 210.09529 67.970587 
L 213.15115 67.970587 
L 213.15115 63.740946 
L 216.20701 63.740946 
L 216.20701 61.66435 
L 219.26287 61.66435 
L 219.26287 58.34116 
L 222.318729 58.34116 
L 222.318729 53.954773 
L 225.374589 53.954773 
L 225.374589 50.306298 
L 228.430449 50.306298 
L 228.430449 46.418411 
L 231.486309 46.418411 
L 231.486309 44.196474 
L 234.542169 44.196474 
L 234.542169 42.259838 
L 237.598028 42.259838 
L 237.598028 39.925537 
L 240.653888 39.925537 
L 240.653888 38.876555 
L 243.709748 38.876555 
L 243.709748 37.837169 
L 246.765608 37.837169 
L 246.765608 36.799361 
L 249.821468 36.799361 
L 249.821468 35.94319 
L 252.877327 35.94319 
L 252.877327 35.447784 
L 255.933187 35.447784 
L 255.933187 35.158993 
L 262.044907 35.098181 
L 262.044907 34.685306 
L 265.100767 34.685306 
L 265.100767 34.495255 
L 268.156627 34.495255 
L 268.156627 34.314465 
L 271.212486 34.314465 
L 271.212486 34.140982 
L 274.268346 34.140982 
L 274.268346 34.019148 
L 277.324206 34.019148 
L 277.324206 33.901606 
L 280.380066 33.901606 
L 280.380066 33.769453 
L 283.435926 33.769453 
L 283.435926 33.624689 
L 286.491785 33.624689 
L 286.491785 33.391494 
L 289.547645 33.391494 
L 289.547645 33.259876 
L 292.603505 33.259876 
L 292.603505 33.040466 
L 295.659365 33.040466 
L 295.659365 32.802873 
L 304.826944 32.692886 
L 304.826944 32.549568 
L 307.882804 32.549568 
L 307.882804 32.402171 
L 310.938664 32.402171 
L 310.938664 32.274552 
L 313.994524 32.274552 
L 313.994524 32.07238 
L 317.050383 32.07238 
L 317.050383 31.928898 
L 323.162103 31.823325 
L 323.162103 31.655903 
L 326.217963 31.655903 
L 326.217963 31.522181 
L 329.273823 31.522181 
L 329.273823 31.405474 
L 332.329682 31.405474 
L 332.329682 31.293686 
L 335.385542 31.293686 
L 335.385542 31.172586 
L 341.497262 31.06913 
L 341.497262 31.009475 
L 347.608981 30.950092 
L 347.608981 30.883451 
L 356.776561 30.800938 
L 356.776561 30.763604 
L 369 30.659635 
L 369 30.626392 
L 387.335159 30.524729 
L 387.335159 30.513753 
L 417.893757 30.403288 
L 417.893757 30.396037 
L 442.340635 30.323753 
L 442.340635 30.282969 
L 454.564074 30.178 
L 454.564074 30.143592 
L 472.899233 30.040912 
L 472.899233 30.003347 
L 488.178532 29.909906 
L 488.178532 29.891298 
L 497.346112 29.82291 
L 497.346112 29.731899 
L 506.513691 29.621013 
L 506.513691 29.590315 
L 515.681271 29.507678 
L 515.681271 29.452502 
L 524.84885 29.36515 
L 524.84885 29.30835 
L 534.016429 29.203203 
L 534.016429 29.161381 
L 543.184009 29.057408 
L 543.184009 28.996506 
L 552.351588 28.907839 
L 552.351588 28.869102 
L 561.519168 28.786632 
L 561.519168 28.723792 
L 567.630887 28.671832 
L 567.630887 28.60112 
L 576.798467 28.532883 
L 576.798467 28.484807 
L 585.966046 28.402654 
L 585.966046 28.362288 
L 592.077766 28.30969 
L 592.077766 28.246032 
L 601.245345 28.159261 
L 601.245345 28.108488 
L 607.357065 28.053874 
L 607.357065 27.990447 
L 613.468784 27.927327 
L 613.468784 27.866501 
L 622.636364 27.777273 
L 622.636364 27.777273 
" style="fill:none;stroke:#348abd;stroke-linecap:square;stroke-width:3;"/>
   </g>
   <g id="line2d_101">
    <path clip-path="url(#p87c7ad4d28)" d="M 200.927711 181 
L 200.927711 151.322727 
L 203.983571 151.322727 
L 203.983571 142.2957 
L 210.09529 142.2957 
L 210.09529 127.988199 
L 213.15115 127.988199 
L 213.15115 124.241644 
L 216.20701 124.241644 
L 216.20701 121.335591 
L 219.26287 121.335591 
L 219.26287 118.961172 
L 222.318729 118.961172 
L 222.318729 117.918756 
L 228.430449 117.918756 
L 228.430449 115.214617 
L 231.486309 115.214617 
L 231.486309 114.425087 
L 234.542169 114.425087 
L 234.542169 107.926602 
L 240.653888 107.926602 
L 240.653888 105.020548 
L 246.765608 105.020548 
L 246.765608 102.646129 
L 249.821468 102.646129 
L 249.821468 102.040287 
L 252.877327 102.040287 
L 252.877327 100.375482 
L 255.933187 100.375482 
L 255.933187 99.616631 
L 258.989047 99.616631 
L 258.989047 99.373199 
L 262.044907 99.373199 
L 262.044907 98.001063 
L 265.100767 98.001063 
L 265.100767 96.759815 
L 271.212486 96.759815 
L 271.212486 95.626644 
L 274.268346 95.626644 
L 274.268346 95.095009 
L 280.380066 95.095009 
L 280.380066 94.092726 
L 283.435926 94.092726 
L 283.435926 93.619101 
L 286.491785 93.619101 
L 286.491785 92.576685 
L 289.547645 92.576685 
L 289.547645 92.154273 
L 292.603505 92.154273 
L 292.603505 91.090559 
L 295.659365 91.090559 
L 295.659365 89.989348 
L 301.771084 89.989348 
L 301.771084 88.974035 
L 304.826944 88.974035 
L 304.826944 88.338629 
L 307.882804 88.338629 
L 307.882804 87.831824 
L 310.938664 87.831824 
L 310.938664 87.05985 
L 313.994524 87.05985 
L 313.994524 86.599616 
L 317.050383 86.599616 
L 317.050383 85.895485 
L 320.106243 85.895485 
L 320.106243 85.391297 
L 323.162103 85.391297 
L 323.162103 85.065699 
L 326.217963 85.065699 
L 326.217963 84.826733 
L 329.273823 84.826733 
L 329.273823 84.514784 
L 332.329682 84.514784 
L 332.329682 84.135071 
L 335.385542 84.135071 
L 335.385542 83.912446 
L 338.441402 83.912446 
L 338.441402 83.478297 
L 341.497262 83.478297 
L 341.497262 83.266532 
L 344.553122 83.266532 
L 344.553122 82.853061 
L 347.608981 82.853061 
L 347.608981 82.321426 
L 350.664841 82.321426 
L 350.664841 82.063532 
L 353.720701 82.063532 
L 353.720701 81.810645 
L 356.776561 81.810645 
L 356.776561 81.624152 
L 359.832421 81.624152 
L 359.832421 81.440291 
L 362.88828 81.440291 
L 362.88828 81.25899 
L 365.94414 81.25899 
L 365.94414 80.96232 
L 369 80.96232 
L 369 80.787509 
L 372.05586 80.787509 
L 372.05586 80.558018 
L 378.167579 80.501272 
L 378.167579 80.388516 
L 381.223439 80.388516 
L 381.223439 80.276728 
L 387.335159 80.165891 
L 387.335159 80.110824 
L 393.446878 80.055989 
L 393.446878 79.947007 
L 402.614458 79.83893 
L 402.614458 79.785226 
L 408.726177 79.731742 
L 408.726177 79.625429 
L 417.893757 79.519977 
L 417.893757 79.415373 
L 427.061336 79.311601 
L 427.061336 79.20865 
L 448.452355 79.106506 
L 448.452355 79.005158 
L 460.675794 78.904591 
L 460.675794 78.804796 
L 482.066813 78.705759 
L 482.066813 78.60747 
L 491.234392 78.558602 
L 491.234392 78.461414 
L 512.625411 78.364945 
L 512.625411 78.316977 
L 537.072289 78.221568 
L 537.072289 78.126853 
L 558.463308 78.032822 
L 558.463308 77.98606 
L 582.910186 77.893036 
L 582.910186 77.846772 
L 619.580504 77.754735 
L 619.580504 77.708959 
L 622.636364 77.708959 
L 622.636364 77.708959 
" style="fill:none;stroke:#e24a33;stroke-linecap:square;stroke-width:3;"/>
   </g>
   <g id="patch_3">
    <path d="M 90 157.5 
L 90 21.6 
" style="fill:none;stroke:#ffffff;stroke-linecap:square;stroke-linejoin:miter;"/>
   </g>
   <g id="patch_4">
    <path d="M 648 157.5 
L 648 21.6 
" style="fill:none;stroke:#ffffff;stroke-linecap:square;stroke-linejoin:miter;"/>
   </g>
   <g id="patch_5">
    <path d="M 90 157.5 
L 648 157.5 
" style="fill:none;stroke:#ffffff;stroke-linecap:square;stroke-linejoin:miter;"/>
   </g>
   <g id="patch_6">
    <path d="M 90 21.6 
L 648 21.6 
" style="fill:none;stroke:#ffffff;stroke-linecap:square;stroke-linejoin:miter;"/>
   </g>
   <g id="legend_1">
    <g id="patch_7">
     <path d="M 514 152.5 
L 641 152.5 
Q 643 152.5 643 150.5 
L 643 124.140625 
Q 643 122.140625 641 122.140625 
L 514 122.140625 
Q 512 122.140625 512 124.140625 
L 512 150.5 
Q 512 152.5 514 152.5 
z
" style="fill:#e5e5e5;opacity:0.8;stroke:#cccccc;stroke-linejoin:miter;stroke-width:0.5;"/>
    </g>
    <g id="line2d_102">
     <path d="M 516 129.640625 
L 536 129.640625 
" style="fill:none;stroke:#348abd;stroke-linecap:square;stroke-width:3;"/>
    </g>
    <g id="line2d_103"/>
    <g id="text_18">
     <!-- Korea, South cases -->
     <defs>
      <path d="M 16.59375 31.203125 
L 11.703125 25.796875 
L 11.703125 0 
L 4.203125 0 
L 4.203125 62.296875 
L 12.59375 62.296875 
L 12.59375 61.59375 
Q 12 61 11.84375 60.296875 
Q 11.703125 59.59375 11.703125 57.90625 
L 11.703125 33.59375 
L 37.703125 62.796875 
Q 38.796875 62.59375 40.09375 62.4375 
Q 41.40625 62.296875 42.90625 62.296875 
L 45.5 62.296875 
L 21.90625 35.40625 
L 47.09375 0 
L 38.09375 -0.40625 
z
" id="Inconsolata-Regular-75"/>
      <path d="M 19.90625 -16.796875 
L 16.5 -13.796875 
Q 19.296875 -11.203125 21.140625 -8.203125 
Q 23 -5.203125 23 -3.296875 
Q 23 -1.90625 21.75 -0.84375 
Q 20.5 0.203125 19.203125 1.390625 
Q 17.90625 2.59375 17.90625 4.40625 
Q 17.90625 6.90625 19.546875 8.59375 
Q 21.203125 10.296875 23.796875 10.296875 
Q 26.40625 10.296875 28.5 8 
Q 30.59375 5.703125 30.59375 2 
Q 30.59375 -5.796875 19.90625 -16.796875 
z
" id="Inconsolata-Regular-44"/>
      <path d="M 24.703125 -1 
Q 12.59375 -1 5.203125 6.90625 
L 8.796875 13.203125 
L 9.203125 14.09375 
L 9.90625 13.703125 
Q 10.09375 13 10.390625 12.140625 
Q 10.703125 11.296875 11.796875 10.09375 
Q 14.40625 7.90625 17.84375 6.59375 
Q 21.296875 5.296875 25.703125 5.296875 
Q 31.296875 5.296875 34.9375 8.4375 
Q 38.59375 11.59375 38.59375 16 
Q 38.59375 18.90625 37.4375 20.90625 
Q 36.296875 22.90625 33.25 24.796875 
Q 30.203125 26.703125 24.296875 29.203125 
Q 14.59375 33 10.890625 37.703125 
Q 7.203125 42.40625 7.203125 47.703125 
Q 7.203125 54.59375 12.296875 58.84375 
Q 17.40625 63.09375 26.203125 63.09375 
Q 31.296875 63.09375 35.796875 61.046875 
Q 40.296875 59 43.5 55.296875 
L 39 49.296875 
L 38.40625 49.703125 
Q 38.296875 50.5 38 51.296875 
Q 37.703125 52.09375 36.59375 53.296875 
Q 34.203125 55.59375 31.5 56.4375 
Q 28.796875 57.296875 25.09375 57.296875 
Q 20.203125 57.296875 17.296875 54.59375 
Q 14.40625 51.90625 14.40625 48.203125 
Q 14.40625 45.40625 15.65625 43.25 
Q 16.90625 41.09375 20.203125 39 
Q 23.5 36.90625 29.796875 34.40625 
Q 35.90625 31.90625 39.296875 29.34375 
Q 42.703125 26.796875 44.09375 23.84375 
Q 45.5 20.90625 45.5 17 
Q 45.5 12.703125 43.34375 8.546875 
Q 41.203125 4.40625 36.59375 1.703125 
Q 32 -1 24.703125 -1 
z
" id="Inconsolata-Regular-83"/>
      <path d="M 7.296875 66.5 
L 15.203125 66.5 
L 15.203125 65.796875 
Q 14.59375 65.203125 14.4375 64.5 
Q 14.296875 63.796875 14.296875 62.09375 
L 14.296875 37.59375 
Q 17 41.796875 21.046875 44.296875 
Q 25.09375 46.796875 29.296875 46.796875 
Q 35.5 46.796875 39.34375 42.4375 
Q 43.203125 38.09375 43.203125 27.703125 
L 43.203125 0 
L 36.203125 0 
L 36.203125 27.5 
Q 36.203125 34.703125 33.75 37.59375 
Q 31.296875 40.5 27.796875 40.5 
Q 24.796875 40.5 21.640625 38.796875 
Q 18.5 37.09375 16.390625 33.9375 
Q 14.296875 30.796875 14.296875 26.296875 
L 14.296875 0 
L 7.296875 0 
z
" id="Inconsolata-Regular-104"/>
      <path d="M 28.5 -1.09375 
Q 21.90625 -1.09375 16.703125 2 
Q 11.5 5.09375 8.546875 10.5 
Q 5.59375 15.90625 5.59375 22.796875 
Q 5.59375 29.703125 8.546875 35.046875 
Q 11.5 40.40625 16.640625 43.5 
Q 21.796875 46.59375 28.40625 46.59375 
Q 34 46.59375 38.453125 44.34375 
Q 42.90625 42.09375 45.703125 38.09375 
L 41.203125 33.703125 
L 40.5 33 
L 40 33.5 
Q 40 34.296875 39.640625 35 
Q 39.296875 35.703125 38.09375 36.90625 
Q 35.90625 38.90625 33.40625 39.703125 
Q 30.90625 40.5 27.59375 40.5 
Q 23.796875 40.5 20.4375 38.390625 
Q 17.09375 36.296875 15.046875 32.4375 
Q 13 28.59375 13 23.296875 
Q 13 18.203125 15.046875 14.140625 
Q 17.09375 10.09375 20.6875 7.75 
Q 24.296875 5.40625 28.90625 5.40625 
Q 35.796875 5.40625 40.796875 11 
L 45 6.09375 
Q 38.296875 -1.09375 28.5 -1.09375 
z
" id="Inconsolata-Regular-99"/>
     </defs>
     <g transform="translate(544 133.140625)scale(0.1 -0.1)">
      <use xlink:href="#Inconsolata-Regular-75"/>
      <use x="49.999985" xlink:href="#Inconsolata-Regular-111"/>
      <use x="99.999969" xlink:href="#Inconsolata-Regular-114"/>
      <use x="149.999954" xlink:href="#Inconsolata-Regular-101"/>
      <use x="199.999939" xlink:href="#Inconsolata-Regular-97"/>
      <use x="249.999924" xlink:href="#Inconsolata-Regular-44"/>
      <use x="299.999908" xlink:href="#Inconsolata-Regular-32"/>
      <use x="349.999893" xlink:href="#Inconsolata-Regular-83"/>
      <use x="399.999878" xlink:href="#Inconsolata-Regular-111"/>
      <use x="449.999863" xlink:href="#Inconsolata-Regular-117"/>
      <use x="499.999847" xlink:href="#Inconsolata-Regular-116"/>
      <use x="549.999832" xlink:href="#Inconsolata-Regular-104"/>
      <use x="599.999817" xlink:href="#Inconsolata-Regular-32"/>
      <use x="649.999802" xlink:href="#Inconsolata-Regular-99"/>
      <use x="699.999786" xlink:href="#Inconsolata-Regular-97"/>
      <use x="749.999771" xlink:href="#Inconsolata-Regular-115"/>
      <use x="799.999756" xlink:href="#Inconsolata-Regular-101"/>
      <use x="849.999741" xlink:href="#Inconsolata-Regular-115"/>
     </g>
    </g>
    <g id="line2d_104">
     <path d="M 516 143.320312 
L 536 143.320312 
" style="fill:none;stroke:#e24a33;stroke-linecap:square;stroke-width:3;"/>
    </g>
    <g id="line2d_105"/>
    <g id="text_19">
     <!-- Korea, South deaths -->
     <defs>
      <path d="M 23.40625 -1 
Q 18.796875 -1 14.4375 1.640625 
Q 10.09375 4.296875 7.296875 9.6875 
Q 4.5 15.09375 4.5 23.296875 
Q 4.5 31.703125 7.390625 36.890625 
Q 10.296875 42.09375 14.75 44.5 
Q 19.203125 46.90625 23.796875 46.90625 
Q 28.5 46.90625 31.953125 44.75 
Q 35.40625 42.59375 37.09375 39 
L 37.09375 66.5 
L 44.703125 66.5 
L 44.703125 65.796875 
Q 44.09375 65.203125 43.9375 64.5 
Q 43.796875 63.796875 43.796875 62.09375 
L 43.90625 7.09375 
Q 43.90625 5.296875 44.046875 3.546875 
Q 44.203125 1.796875 44.90625 0 
L 37.796875 0 
Q 37.09375 1.796875 36.9375 3.546875 
Q 36.796875 5.296875 36.796875 7.09375 
Q 34.59375 3.40625 31.1875 1.203125 
Q 27.796875 -1 23.40625 -1 
z
M 24.5 5.296875 
Q 28.90625 5.296875 31.546875 7.6875 
Q 34.203125 10.09375 35.34375 14.140625 
Q 36.5 18.203125 36.5 23.09375 
Q 36.5 30.796875 33.5 35.890625 
Q 30.5 41 23.90625 41 
Q 17.796875 41 14.640625 36.5 
Q 11.5 32 11.5 24.40625 
Q 11.5 15.796875 14.796875 10.546875 
Q 18.09375 5.296875 24.5 5.296875 
z
" id="Inconsolata-Regular-100"/>
     </defs>
     <g transform="translate(544 146.820312)scale(0.1 -0.1)">
      <use xlink:href="#Inconsolata-Regular-75"/>
      <use x="49.999985" xlink:href="#Inconsolata-Regular-111"/>
      <use x="99.999969" xlink:href="#Inconsolata-Regular-114"/>
      <use x="149.999954" xlink:href="#Inconsolata-Regular-101"/>
      <use x="199.999939" xlink:href="#Inconsolata-Regular-97"/>
      <use x="249.999924" xlink:href="#Inconsolata-Regular-44"/>
      <use x="299.999908" xlink:href="#Inconsolata-Regular-32"/>
      <use x="349.999893" xlink:href="#Inconsolata-Regular-83"/>
      <use x="399.999878" xlink:href="#Inconsolata-Regular-111"/>
      <use x="449.999863" xlink:href="#Inconsolata-Regular-117"/>
      <use x="499.999847" xlink:href="#Inconsolata-Regular-116"/>
      <use x="549.999832" xlink:href="#Inconsolata-Regular-104"/>
      <use x="599.999817" xlink:href="#Inconsolata-Regular-32"/>
      <use x="649.999802" xlink:href="#Inconsolata-Regular-100"/>
      <use x="699.999786" xlink:href="#Inconsolata-Regular-101"/>
      <use x="749.999771" xlink:href="#Inconsolata-Regular-97"/>
      <use x="799.999756" xlink:href="#Inconsolata-Regular-116"/>
      <use x="849.999741" xlink:href="#Inconsolata-Regular-104"/>
      <use x="899.999725" xlink:href="#Inconsolata-Regular-115"/>
     </g>
    </g>
   </g>
  </g>
 </g>
 <defs>
  <clipPath id="p87c7ad4d28">
   <rect height="135.9" width="558" x="90" y="21.6"/>
  </clipPath>
 </defs>
</svg>
