<?xml version="1.0" encoding="utf-8" standalone="no"?>
<!DOCTYPE svg PUBLIC "-//W3C//DTD SVG 1.1//EN"
  "http://www.w3.org/Graphics/SVG/1.1/DTD/svg11.dtd">
<!-- Created with matplotlib (https://matplotlib.org/) -->
<svg height="180pt" version="1.1" viewBox="0 0 720 180" width="720pt" xmlns="http://www.w3.org/2000/svg" xmlns:xlink="http://www.w3.org/1999/xlink">
 <defs>
  <style type="text/css">
*{stroke-linecap:butt;stroke-linejoin:round;}
  </style>
 </defs>
 <g id="figure_1">
  <g id="patch_1">
   <path d="M 0 180 
L 720 180 
L 720 0 
L 0 0 
z
" style="fill:#ffffff;"/>
  </g>
  <g id="axes_1">
   <g id="patch_2">
    <path d="M 90 157.5 
L 648 157.5 
L 648 21.6 
L 90 21.6 
z
" style="fill:#e5e5e5;"/>
   </g>
   <g id="matplotlib.axis_1">
    <g id="xtick_1">
     <g id="line2d_1">
      <path clip-path="url(#p00cf5fd5f9)" d="M 147.469505 157.5 
L 147.469505 21.6 
" style="fill:none;stroke:#ffffff;stroke-linecap:square;stroke-width:0.8;"/>
     </g>
     <g id="line2d_2">
      <defs>
       <path d="M 0 0 
L 0 3.5 
" id="m6d8dfd7e3e" style="stroke:#555555;stroke-width:0.8;"/>
      </defs>
      <g>
       <use style="fill:#555555;stroke:#555555;stroke-width:0.8;" x="147.469505" xlink:href="#m6d8dfd7e3e" y="157.5"/>
      </g>
     </g>
     <g id="text_1">
      <!-- 2020-02 -->
      <defs>
       <path d="M 7.296875 5.59375 
Q 14 12.5 19.390625 17.84375 
Q 24.796875 23.203125 28.59375 27.640625 
Q 32.40625 32.09375 34.40625 36.296875 
Q 36.40625 40.5 36.40625 45.09375 
Q 36.40625 51.59375 33.296875 54.09375 
Q 30.203125 56.59375 25.796875 56.59375 
Q 22.203125 56.59375 19.046875 55.046875 
Q 15.90625 53.5 13.296875 50.296875 
Q 12.40625 48.90625 12.203125 48.15625 
Q 12 47.40625 12.09375 46.59375 
L 11.703125 46.09375 
L 10.90625 46.59375 
L 5.796875 50.59375 
Q 8.796875 56.40625 14.046875 59.546875 
Q 19.296875 62.703125 25.703125 62.703125 
Q 33.59375 62.703125 38.59375 57.953125 
Q 43.59375 53.203125 43.59375 44.90625 
Q 43.59375 39.703125 41.296875 35 
Q 39 30.296875 35.140625 25.6875 
Q 31.296875 21.09375 26.390625 16.296875 
Q 21.5 11.5 16.296875 6.09375 
L 39.5 6.09375 
Q 41.203125 6.09375 41.890625 6.296875 
Q 42.59375 6.5 43.203125 7.09375 
L 43.90625 7.09375 
L 43.90625 0 
L 7.296875 0 
z
" id="Inconsolata-Regular-50"/>
       <path d="M 25 -1.09375 
Q 15.703125 -1.09375 10.703125 7.203125 
Q 5.703125 15.5 5.703125 30.796875 
Q 5.703125 45.59375 10.703125 54.140625 
Q 15.703125 62.703125 25 62.703125 
Q 34.296875 62.703125 39.296875 54.140625 
Q 44.296875 45.59375 44.296875 30.796875 
Q 44.296875 15.5 39.296875 7.203125 
Q 34.296875 -1.09375 25 -1.09375 
z
M 12.90625 30.796875 
Q 12.90625 24.40625 13.796875 19.40625 
L 35 46.703125 
Q 33.5 51.40625 30.953125 54 
Q 28.40625 56.59375 25 56.59375 
Q 19.296875 56.59375 16.09375 49.59375 
Q 12.90625 42.59375 12.90625 30.796875 
z
M 25 5 
Q 30.703125 5 33.890625 11.703125 
Q 37.09375 18.40625 37.09375 30.796875 
Q 37.09375 36.296875 36.40625 40.796875 
L 15.203125 13.90625 
Q 18.296875 5 25 5 
z
" id="Inconsolata-Regular-48"/>
       <path d="M 11.09375 28.09375 
L 11.09375 34.796875 
L 39.09375 34.796875 
L 39.09375 28.09375 
z
" id="Inconsolata-Regular-45"/>
      </defs>
      <g style="fill:#555555;" transform="translate(129.969505 171.15)scale(0.1 -0.1)">
       <use xlink:href="#Inconsolata-Regular-50"/>
       <use x="49.999985" xlink:href="#Inconsolata-Regular-48"/>
       <use x="99.999969" xlink:href="#Inconsolata-Regular-50"/>
       <use x="149.999954" xlink:href="#Inconsolata-Regular-48"/>
       <use x="199.999939" xlink:href="#Inconsolata-Regular-45"/>
       <use x="249.999924" xlink:href="#Inconsolata-Regular-48"/>
       <use x="299.999908" xlink:href="#Inconsolata-Regular-50"/>
      </g>
     </g>
    </g>
    <g id="xtick_2">
     <g id="line2d_3">
      <path clip-path="url(#p00cf5fd5f9)" d="M 240.576525 157.5 
L 240.576525 21.6 
" style="fill:none;stroke:#ffffff;stroke-linecap:square;stroke-width:0.8;"/>
     </g>
     <g id="line2d_4">
      <g>
       <use style="fill:#555555;stroke:#555555;stroke-width:0.8;" x="240.576525" xlink:href="#m6d8dfd7e3e" y="157.5"/>
      </g>
     </g>
     <g id="text_2">
      <!-- 2020-03 -->
      <defs>
       <path d="M 24 -1.09375 
Q 19.09375 -1.09375 14.59375 0.703125 
Q 10.09375 2.5 6.90625 6 
L 11.5 11.5 
L 12.203125 12.296875 
L 12.703125 11.796875 
Q 12.796875 11 13.09375 10.25 
Q 13.40625 9.5 14.5 8.296875 
Q 16.203125 6.796875 18.390625 5.84375 
Q 20.59375 4.90625 23.703125 4.90625 
Q 29.703125 4.90625 32.59375 8.40625 
Q 35.5 11.90625 35.5 17.40625 
Q 35.5 24.5 30.75 27.453125 
Q 26 30.40625 18 29.59375 
L 18 35.203125 
Q 24.5 35.203125 27.796875 36.890625 
Q 31.09375 38.59375 32.25 41.4375 
Q 33.40625 44.296875 33.40625 47.5 
Q 33.40625 51.796875 30.953125 54.25 
Q 28.5 56.703125 24.5 56.703125 
Q 21.5 56.703125 18.640625 55.703125 
Q 15.796875 54.703125 13.09375 52.09375 
L 8.90625 56.296875 
Q 12.296875 59.796875 16.34375 61.25 
Q 20.40625 62.703125 24.40625 62.703125 
Q 32 62.703125 36.296875 58.390625 
Q 40.59375 54.09375 40.59375 47.203125 
Q 40.59375 42.296875 38.1875 38.4375 
Q 35.796875 34.59375 30.796875 33 
Q 36.09375 31.296875 39.390625 27.390625 
Q 42.703125 23.5 42.703125 17.09375 
Q 42.703125 12.203125 40.546875 8.046875 
Q 38.40625 3.90625 34.25 1.40625 
Q 30.09375 -1.09375 24 -1.09375 
z
" id="Inconsolata-Regular-51"/>
      </defs>
      <g style="fill:#555555;" transform="translate(223.076525 171.15)scale(0.1 -0.1)">
       <use xlink:href="#Inconsolata-Regular-50"/>
       <use x="49.999985" xlink:href="#Inconsolata-Regular-48"/>
       <use x="99.999969" xlink:href="#Inconsolata-Regular-50"/>
       <use x="149.999954" xlink:href="#Inconsolata-Regular-48"/>
       <use x="199.999939" xlink:href="#Inconsolata-Regular-45"/>
       <use x="249.999924" xlink:href="#Inconsolata-Regular-48"/>
       <use x="299.999908" xlink:href="#Inconsolata-Regular-51"/>
      </g>
     </g>
    </g>
    <g id="xtick_3">
     <g id="line2d_5">
      <path clip-path="url(#p00cf5fd5f9)" d="M 340.104718 157.5 
L 340.104718 21.6 
" style="fill:none;stroke:#ffffff;stroke-linecap:square;stroke-width:0.8;"/>
     </g>
     <g id="line2d_6">
      <g>
       <use style="fill:#555555;stroke:#555555;stroke-width:0.8;" x="340.104718" xlink:href="#m6d8dfd7e3e" y="157.5"/>
      </g>
     </g>
     <g id="text_3">
      <!-- 2020-04 -->
      <defs>
       <path d="M 31.796875 0 
L 31.796875 15.296875 
L 4.796875 15.296875 
L 4.796875 20.40625 
L 33.296875 62.40625 
L 39.203125 62.40625 
L 39.203125 21.09375 
L 47.203125 21.09375 
L 47.203125 15.203125 
L 39.203125 15.203125 
L 39.203125 0 
z
M 12.90625 21.203125 
L 31.796875 21.203125 
L 31.796875 49.796875 
z
" id="Inconsolata-Regular-52"/>
      </defs>
      <g style="fill:#555555;" transform="translate(322.604718 171.15)scale(0.1 -0.1)">
       <use xlink:href="#Inconsolata-Regular-50"/>
       <use x="49.999985" xlink:href="#Inconsolata-Regular-48"/>
       <use x="99.999969" xlink:href="#Inconsolata-Regular-50"/>
       <use x="149.999954" xlink:href="#Inconsolata-Regular-48"/>
       <use x="199.999939" xlink:href="#Inconsolata-Regular-45"/>
       <use x="249.999924" xlink:href="#Inconsolata-Regular-48"/>
       <use x="299.999908" xlink:href="#Inconsolata-Regular-52"/>
      </g>
     </g>
    </g>
    <g id="xtick_4">
     <g id="line2d_7">
      <path clip-path="url(#p00cf5fd5f9)" d="M 436.422325 157.5 
L 436.422325 21.6 
" style="fill:none;stroke:#ffffff;stroke-linecap:square;stroke-width:0.8;"/>
     </g>
     <g id="line2d_8">
      <g>
       <use style="fill:#555555;stroke:#555555;stroke-width:0.8;" x="436.422325" xlink:href="#m6d8dfd7e3e" y="157.5"/>
      </g>
     </g>
     <g id="text_4">
      <!-- 2020-05 -->
      <defs>
       <path d="M 24.90625 -1.09375 
Q 19.203125 -1.09375 14.34375 1.40625 
Q 9.5 3.90625 6.40625 8.5 
L 12.796875 13.296875 
L 13.203125 12.796875 
Q 13.09375 12 13.4375 11.296875 
Q 13.796875 10.59375 14.796875 9.296875 
Q 16.796875 7.09375 19.25 6.046875 
Q 21.703125 5 25.296875 5 
Q 28.5 5 31.25 6.796875 
Q 34 8.59375 35.703125 11.9375 
Q 37.40625 15.296875 37.40625 19.90625 
Q 37.40625 26.90625 33.65625 30.796875 
Q 29.90625 34.703125 24.59375 34.703125 
Q 21.40625 34.703125 18.296875 33.140625 
Q 15.203125 31.59375 12.90625 28.796875 
L 8.5 30.59375 
L 10.59375 62.296875 
L 42.203125 62.296875 
L 42.203125 56 
L 16.5 56 
L 15.5 38.09375 
Q 20.5 40.5 25.703125 40.5 
Q 31.09375 40.5 35.34375 37.953125 
Q 39.59375 35.40625 42.046875 30.703125 
Q 44.5 26 44.5 19.59375 
Q 44.5 13.203125 41.890625 8.546875 
Q 39.296875 3.90625 34.890625 1.40625 
Q 30.5 -1.09375 24.90625 -1.09375 
z
" id="Inconsolata-Regular-53"/>
      </defs>
      <g style="fill:#555555;" transform="translate(418.922325 171.15)scale(0.1 -0.1)">
       <use xlink:href="#Inconsolata-Regular-50"/>
       <use x="49.999985" xlink:href="#Inconsolata-Regular-48"/>
       <use x="99.999969" xlink:href="#Inconsolata-Regular-50"/>
       <use x="149.999954" xlink:href="#Inconsolata-Regular-48"/>
       <use x="199.999939" xlink:href="#Inconsolata-Regular-45"/>
       <use x="249.999924" xlink:href="#Inconsolata-Regular-48"/>
       <use x="299.999908" xlink:href="#Inconsolata-Regular-53"/>
      </g>
     </g>
    </g>
    <g id="xtick_5">
     <g id="line2d_9">
      <path clip-path="url(#p00cf5fd5f9)" d="M 535.950518 157.5 
L 535.950518 21.6 
" style="fill:none;stroke:#ffffff;stroke-linecap:square;stroke-width:0.8;"/>
     </g>
     <g id="line2d_10">
      <g>
       <use style="fill:#555555;stroke:#555555;stroke-width:0.8;" x="535.950518" xlink:href="#m6d8dfd7e3e" y="157.5"/>
      </g>
     </g>
     <g id="text_5">
      <!-- 2020-06 -->
      <defs>
       <path d="M 26.09375 -1 
Q 16.796875 -1 11.75 6.890625 
Q 6.703125 14.796875 6.703125 28.40625 
Q 6.703125 45.203125 12.703125 54.09375 
Q 18.703125 63 28.703125 63 
Q 36.59375 63 42.40625 57.296875 
L 38 52.296875 
L 37.296875 51.5 
L 36.796875 52 
Q 36.703125 52.796875 36.34375 53.5 
Q 36 54.203125 34.703125 55.296875 
Q 32.5 56.796875 28.90625 56.796875 
Q 26.90625 56.796875 24.296875 55.84375 
Q 21.703125 54.90625 19.296875 52.296875 
Q 16.90625 49.703125 15.296875 44.953125 
Q 13.703125 40.203125 13.59375 32.703125 
Q 15.703125 36.203125 19.25 38.203125 
Q 22.796875 40.203125 26.796875 40.203125 
Q 31.5 40.203125 35.34375 37.640625 
Q 39.203125 35.09375 41.546875 30.546875 
Q 43.90625 26 43.90625 19.796875 
Q 43.90625 13.59375 41.5 8.890625 
Q 39.09375 4.203125 35.09375 1.59375 
Q 31.09375 -1 26.09375 -1 
z
M 26.40625 5.203125 
Q 30.703125 5.203125 33.890625 8.890625 
Q 37.09375 12.59375 37.09375 19.703125 
Q 37.09375 24.703125 35.4375 27.890625 
Q 33.796875 31.09375 31.296875 32.59375 
Q 28.796875 34.09375 26.203125 34.09375 
Q 22.59375 34.09375 19.296875 31.640625 
Q 16 29.203125 14 25.703125 
Q 13.59375 22.296875 14.25 18.6875 
Q 14.90625 15.09375 16.546875 12.046875 
Q 18.203125 9 20.703125 7.09375 
Q 23.203125 5.203125 26.40625 5.203125 
z
" id="Inconsolata-Regular-54"/>
      </defs>
      <g style="fill:#555555;" transform="translate(518.450518 171.15)scale(0.1 -0.1)">
       <use xlink:href="#Inconsolata-Regular-50"/>
       <use x="49.999985" xlink:href="#Inconsolata-Regular-48"/>
       <use x="99.999969" xlink:href="#Inconsolata-Regular-50"/>
       <use x="149.999954" xlink:href="#Inconsolata-Regular-48"/>
       <use x="199.999939" xlink:href="#Inconsolata-Regular-45"/>
       <use x="249.999924" xlink:href="#Inconsolata-Regular-48"/>
       <use x="299.999908" xlink:href="#Inconsolata-Regular-54"/>
      </g>
     </g>
    </g>
    <g id="xtick_6">
     <g id="line2d_11">
      <path clip-path="url(#p00cf5fd5f9)" d="M 632.268124 157.5 
L 632.268124 21.6 
" style="fill:none;stroke:#ffffff;stroke-linecap:square;stroke-width:0.8;"/>
     </g>
     <g id="line2d_12">
      <g>
       <use style="fill:#555555;stroke:#555555;stroke-width:0.8;" x="632.268124" xlink:href="#m6d8dfd7e3e" y="157.5"/>
      </g>
     </g>
     <g id="text_6">
      <!-- 2020-07 -->
      <defs>
       <path d="M 15.5 0 
Q 19.90625 14.296875 24.59375 28.09375 
Q 29.296875 41.90625 34.5 55.703125 
L 7.90625 55.703125 
L 7.90625 62.296875 
L 43.203125 62.296875 
L 43.203125 58.40625 
Q 37.5 44 32.5 29.5 
Q 27.5 15 23.40625 0 
z
" id="Inconsolata-Regular-55"/>
      </defs>
      <g style="fill:#555555;" transform="translate(614.768124 171.15)scale(0.1 -0.1)">
       <use xlink:href="#Inconsolata-Regular-50"/>
       <use x="49.999985" xlink:href="#Inconsolata-Regular-48"/>
       <use x="99.999969" xlink:href="#Inconsolata-Regular-50"/>
       <use x="149.999954" xlink:href="#Inconsolata-Regular-48"/>
       <use x="199.999939" xlink:href="#Inconsolata-Regular-45"/>
       <use x="249.999924" xlink:href="#Inconsolata-Regular-48"/>
       <use x="299.999908" xlink:href="#Inconsolata-Regular-55"/>
      </g>
     </g>
    </g>
   </g>
   <g id="matplotlib.axis_2">
    <g id="ytick_1">
     <g id="line2d_13">
      <path clip-path="url(#p00cf5fd5f9)" d="M 90 143.91 
L 648 143.91 
" style="fill:none;stroke:#ffffff;stroke-linecap:square;stroke-width:0.8;"/>
     </g>
     <g id="line2d_14">
      <defs>
       <path d="M 0 0 
L -3.5 0 
" id="md47ec106d8" style="stroke:#555555;stroke-width:0.8;"/>
      </defs>
      <g>
       <use style="fill:#555555;stroke:#555555;stroke-width:0.8;" x="90" xlink:href="#md47ec106d8" y="143.91"/>
      </g>
     </g>
     <g id="line2d_15">
      <defs>
       <path d="M 0 0 
L 3.5 0 
" id="m29baf1c582" style="stroke:#555555;stroke-width:0.8;"/>
      </defs>
      <g>
       <use style="fill:#555555;stroke:#555555;stroke-width:0.8;" x="648" xlink:href="#m29baf1c582" y="143.91"/>
      </g>
     </g>
     <g id="text_7">
      <!-- 0.8 -->
      <defs>
       <path d="M 23.796875 -1.09375 
Q 21.40625 -1.09375 19.703125 0.59375 
Q 18 2.296875 18 4.59375 
Q 18 6.90625 19.703125 8.59375 
Q 21.40625 10.296875 23.796875 10.296875 
Q 26.09375 10.296875 27.796875 8.59375 
Q 29.5 6.90625 29.5 4.59375 
Q 29.5 2.296875 27.796875 0.59375 
Q 26.09375 -1.09375 23.796875 -1.09375 
z
" id="Inconsolata-Regular-46"/>
       <path d="M 25 -1 
Q 19.09375 -1 14.84375 1.25 
Q 10.59375 3.5 8.296875 7.296875 
Q 6 11.09375 6 15.703125 
Q 6 21.09375 9.390625 25.796875 
Q 12.796875 30.5 18.5 33.09375 
Q 14.203125 35.296875 11.59375 39.25 
Q 9 43.203125 9 47.703125 
Q 9 54.09375 13.140625 58.59375 
Q 17.296875 63.09375 25.5 63.09375 
Q 31.296875 63.09375 34.890625 61.09375 
Q 38.5 59.09375 40.25 55.75 
Q 42 52.40625 42 48.296875 
Q 42 43.796875 39.296875 39.75 
Q 36.59375 35.703125 32.09375 33.296875 
Q 37.5 30.796875 40.796875 26.140625 
Q 44.09375 21.5 44.09375 16.09375 
Q 44.09375 11.203125 41.75 7.34375 
Q 39.40625 3.5 35.15625 1.25 
Q 30.90625 -1 25 -1 
z
M 26.703125 35.796875 
Q 30.40625 37.796875 32.796875 41.1875 
Q 35.203125 44.59375 35.203125 48.09375 
Q 35.203125 51.59375 32.75 54.390625 
Q 30.296875 57.203125 25.296875 57.203125 
Q 20.40625 57.203125 18.046875 54.5 
Q 15.703125 51.796875 15.703125 48.40625 
Q 15.703125 43.796875 18.890625 41.046875 
Q 22.09375 38.296875 26.703125 35.796875 
z
M 25.203125 5.296875 
Q 31 5.296875 34 8.4375 
Q 37 11.59375 37 16.09375 
Q 37 20.703125 33.390625 24.546875 
Q 29.796875 28.40625 23.703125 30.296875 
Q 19.203125 28.40625 16.203125 24.65625 
Q 13.203125 20.90625 13.203125 16.40625 
Q 13.203125 11.90625 16.34375 8.59375 
Q 19.5 5.296875 25.203125 5.296875 
z
" id="Inconsolata-Regular-56"/>
      </defs>
      <g style="fill:#555555;" transform="translate(68 147.235)scale(0.1 -0.1)">
       <use xlink:href="#Inconsolata-Regular-48"/>
       <use x="49.999985" xlink:href="#Inconsolata-Regular-46"/>
       <use x="99.999969" xlink:href="#Inconsolata-Regular-56"/>
      </g>
     </g>
     <g id="text_8">
      <!-- 0.8 -->
      <g style="fill:#555555;" transform="translate(655 147.235)scale(0.1 -0.1)">
       <use xlink:href="#Inconsolata-Regular-48"/>
       <use x="49.999985" xlink:href="#Inconsolata-Regular-46"/>
       <use x="99.999969" xlink:href="#Inconsolata-Regular-56"/>
      </g>
     </g>
    </g>
    <g id="ytick_2">
     <g id="line2d_16">
      <path clip-path="url(#p00cf5fd5f9)" d="M 90 116.73 
L 648 116.73 
" style="fill:none;stroke:#ffffff;stroke-linecap:square;stroke-width:0.8;"/>
     </g>
     <g id="line2d_17">
      <g>
       <use style="fill:#555555;stroke:#555555;stroke-width:0.8;" x="90" xlink:href="#md47ec106d8" y="116.73"/>
      </g>
     </g>
     <g id="line2d_18">
      <g>
       <use style="fill:#555555;stroke:#555555;stroke-width:0.8;" x="648" xlink:href="#m29baf1c582" y="116.73"/>
      </g>
     </g>
     <g id="text_9">
      <!-- 0.9 -->
      <defs>
       <path d="M 22.796875 -1 
Q 13.796875 -1 7.90625 4.703125 
L 12.203125 9.59375 
L 12.90625 10.40625 
L 13.40625 9.90625 
Q 13.5 9.09375 13.890625 8.4375 
Q 14.296875 7.796875 15.5 6.703125 
Q 18.203125 5 22.203125 5 
Q 27 5 30.140625 8.296875 
Q 33.296875 11.59375 35 16.84375 
Q 36.703125 22.09375 37.09375 28.09375 
Q 34.703125 26 31.796875 24.796875 
Q 28.90625 23.59375 24.90625 23.59375 
Q 19.796875 23.59375 15.6875 26 
Q 11.59375 28.40625 9.1875 32.65625 
Q 6.796875 36.90625 6.796875 42.40625 
Q 6.796875 48.296875 9.1875 52.84375 
Q 11.59375 57.40625 15.6875 60.046875 
Q 19.796875 62.703125 24.703125 62.703125 
Q 30.59375 62.703125 34.890625 59.296875 
Q 39.203125 55.90625 41.546875 49.953125 
Q 43.90625 44 43.90625 36.296875 
Q 43.90625 17.5 38.296875 8.34375 
Q 32.703125 -0.796875 22.796875 -1 
z
M 13.59375 42.5 
Q 13.59375 36.59375 17 33.140625 
Q 20.40625 29.703125 25 29.703125 
Q 29.203125 29.703125 32 30.890625 
Q 34.796875 32.09375 37.203125 34.90625 
Q 36.5 56.59375 25 56.59375 
Q 19.90625 56.59375 16.75 52.84375 
Q 13.59375 49.09375 13.59375 42.5 
z
" id="Inconsolata-Regular-57"/>
      </defs>
      <g style="fill:#555555;" transform="translate(68 120.055)scale(0.1 -0.1)">
       <use xlink:href="#Inconsolata-Regular-48"/>
       <use x="49.999985" xlink:href="#Inconsolata-Regular-46"/>
       <use x="99.999969" xlink:href="#Inconsolata-Regular-57"/>
      </g>
     </g>
     <g id="text_10">
      <!-- 0.9 -->
      <g style="fill:#555555;" transform="translate(655 120.055)scale(0.1 -0.1)">
       <use xlink:href="#Inconsolata-Regular-48"/>
       <use x="49.999985" xlink:href="#Inconsolata-Regular-46"/>
       <use x="99.999969" xlink:href="#Inconsolata-Regular-57"/>
      </g>
     </g>
    </g>
    <g id="ytick_3">
     <g id="line2d_19">
      <path clip-path="url(#p00cf5fd5f9)" d="M 90 89.55 
L 648 89.55 
" style="fill:none;stroke:#ffffff;stroke-linecap:square;stroke-width:0.8;"/>
     </g>
     <g id="line2d_20">
      <g>
       <use style="fill:#555555;stroke:#555555;stroke-width:0.8;" x="90" xlink:href="#md47ec106d8" y="89.55"/>
      </g>
     </g>
     <g id="line2d_21">
      <g>
       <use style="fill:#555555;stroke:#555555;stroke-width:0.8;" x="648" xlink:href="#m29baf1c582" y="89.55"/>
      </g>
     </g>
     <g id="text_11">
      <!-- 1.0 -->
      <defs>
       <path d="M 23 0 
L 23 53.703125 
L 10.40625 50 
L 8.796875 53.90625 
L 25.09375 62.40625 
L 30 62.40625 
L 30 0 
z
" id="Inconsolata-Regular-49"/>
      </defs>
      <g style="fill:#555555;" transform="translate(68 92.875)scale(0.1 -0.1)">
       <use xlink:href="#Inconsolata-Regular-49"/>
       <use x="49.999985" xlink:href="#Inconsolata-Regular-46"/>
       <use x="99.999969" xlink:href="#Inconsolata-Regular-48"/>
      </g>
     </g>
     <g id="text_12">
      <!-- 1.0 -->
      <g style="fill:#555555;" transform="translate(655 92.875)scale(0.1 -0.1)">
       <use xlink:href="#Inconsolata-Regular-49"/>
       <use x="49.999985" xlink:href="#Inconsolata-Regular-46"/>
       <use x="99.999969" xlink:href="#Inconsolata-Regular-48"/>
      </g>
     </g>
    </g>
    <g id="ytick_4">
     <g id="line2d_22">
      <path clip-path="url(#p00cf5fd5f9)" d="M 90 62.37 
L 648 62.37 
" style="fill:none;stroke:#ffffff;stroke-linecap:square;stroke-width:0.8;"/>
     </g>
     <g id="line2d_23">
      <g>
       <use style="fill:#555555;stroke:#555555;stroke-width:0.8;" x="90" xlink:href="#md47ec106d8" y="62.37"/>
      </g>
     </g>
     <g id="line2d_24">
      <g>
       <use style="fill:#555555;stroke:#555555;stroke-width:0.8;" x="648" xlink:href="#m29baf1c582" y="62.37"/>
      </g>
     </g>
     <g id="text_13">
      <!-- 1.1 -->
      <g style="fill:#555555;" transform="translate(68 65.695)scale(0.1 -0.1)">
       <use xlink:href="#Inconsolata-Regular-49"/>
       <use x="49.999985" xlink:href="#Inconsolata-Regular-46"/>
       <use x="99.999969" xlink:href="#Inconsolata-Regular-49"/>
      </g>
     </g>
     <g id="text_14">
      <!-- 1.1 -->
      <g style="fill:#555555;" transform="translate(655 65.695)scale(0.1 -0.1)">
       <use xlink:href="#Inconsolata-Regular-49"/>
       <use x="49.999985" xlink:href="#Inconsolata-Regular-46"/>
       <use x="99.999969" xlink:href="#Inconsolata-Regular-49"/>
      </g>
     </g>
    </g>
    <g id="ytick_5">
     <g id="line2d_25">
      <path clip-path="url(#p00cf5fd5f9)" d="M 90 35.19 
L 648 35.19 
" style="fill:none;stroke:#ffffff;stroke-linecap:square;stroke-width:0.8;"/>
     </g>
     <g id="line2d_26">
      <g>
       <use style="fill:#555555;stroke:#555555;stroke-width:0.8;" x="90" xlink:href="#md47ec106d8" y="35.19"/>
      </g>
     </g>
     <g id="line2d_27">
      <g>
       <use style="fill:#555555;stroke:#555555;stroke-width:0.8;" x="648" xlink:href="#m29baf1c582" y="35.19"/>
      </g>
     </g>
     <g id="text_15">
      <!-- 1.2 -->
      <g style="fill:#555555;" transform="translate(68 38.515)scale(0.1 -0.1)">
       <use xlink:href="#Inconsolata-Regular-49"/>
       <use x="49.999985" xlink:href="#Inconsolata-Regular-46"/>
       <use x="99.999969" xlink:href="#Inconsolata-Regular-50"/>
      </g>
     </g>
     <g id="text_16">
      <!-- 1.2 -->
      <g style="fill:#555555;" transform="translate(655 38.515)scale(0.1 -0.1)">
       <use xlink:href="#Inconsolata-Regular-49"/>
       <use x="49.999985" xlink:href="#Inconsolata-Regular-46"/>
       <use x="99.999969" xlink:href="#Inconsolata-Regular-50"/>
      </g>
     </g>
    </g>
    <g id="text_17">
     <!-- R &amp; growth factor -->
     <defs>
      <path d="M 5.59375 0 
L 5.59375 62.296875 
L 24 62.296875 
Q 35 62.296875 39.84375 57.390625 
Q 44.703125 52.5 44.703125 44.5 
Q 44.703125 41 43.140625 37.5 
Q 41.59375 34 38.75 31.390625 
Q 35.90625 28.796875 32 27.796875 
L 46.40625 0 
L 38.59375 0 
L 24.796875 27.5 
L 12.703125 27.5 
L 12.703125 0 
z
M 12.703125 33.703125 
L 24.796875 33.703125 
Q 31.5 33.703125 34.5 36.640625 
Q 37.5 39.59375 37.5 44.5 
Q 37.5 49.203125 34.5 52.453125 
Q 31.5 55.703125 24.796875 55.703125 
L 12.703125 55.703125 
z
" id="Inconsolata-Regular-82"/>
      <path id="Inconsolata-Regular-32"/>
      <path d="M 41.59375 -1.203125 
L 36.09375 7.59375 
Q 33 3.703125 28.546875 1.34375 
Q 24.09375 -1 19.203125 -1 
Q 14.703125 -1 11.140625 1.046875 
Q 7.59375 3.09375 5.59375 6.546875 
Q 3.59375 10 3.59375 14.09375 
Q 3.59375 20.40625 7.046875 25.75 
Q 10.5 31.09375 16.203125 34.296875 
Q 9.09375 42.90625 9.09375 49.796875 
Q 9.09375 53.59375 10.9375 56.546875 
Q 12.796875 59.5 15.9375 61.203125 
Q 19.09375 62.90625 22.796875 62.90625 
Q 26.90625 62.90625 29.90625 61 
Q 32.90625 59.09375 34.59375 56.140625 
Q 36.296875 53.203125 36.296875 49.796875 
Q 36.296875 46.59375 34.890625 43.25 
Q 33.5 39.90625 31.09375 37.203125 
Q 28.703125 34.5 25.5 33 
L 36.703125 17.296875 
Q 39.296875 20.40625 40.140625 22.546875 
Q 41 24.703125 41.203125 27.40625 
Q 41.203125 28 41.59375 28.40625 
L 48.09375 23.90625 
Q 46.40625 20.90625 44.5 18 
Q 42.59375 15.09375 40.5 12.296875 
L 47.5 3.203125 
z
M 22.09375 37.296875 
Q 25.703125 39 27.703125 42.453125 
Q 29.703125 45.90625 29.703125 49.203125 
Q 29.703125 52.5 27.640625 54.75 
Q 25.59375 57 22.90625 57 
Q 20.09375 57 18.046875 55 
Q 16 53 16 49.703125 
Q 16 44.90625 22.09375 37.296875 
z
M 19.90625 5.40625 
Q 23.5 5.40625 26.546875 7.296875 
Q 29.59375 9.203125 32.40625 12.296875 
L 19.703125 29.59375 
Q 15.703125 27.09375 13.453125 23.09375 
Q 11.203125 19.09375 11.203125 15.203125 
Q 11.203125 11.09375 13.796875 8.25 
Q 16.40625 5.40625 19.90625 5.40625 
z
" id="Inconsolata-Regular-38"/>
      <path d="M 22.59375 15.5 
Q 18.703125 15.5 15.5 16.90625 
Q 13.703125 14.703125 13.703125 12.703125 
Q 13.703125 10.296875 16.703125 9.25 
Q 19.703125 8.203125 27.703125 8.203125 
Q 34.703125 8.203125 38.296875 6.703125 
Q 41.90625 5.203125 43.203125 2.59375 
Q 44.5 0 44.5 -3.40625 
Q 44.5 -6.90625 42.59375 -10.09375 
Q 40.703125 -13.296875 36.34375 -15.25 
Q 32 -17.203125 24.703125 -17.203125 
Q 15.09375 -17.203125 9.4375 -14.25 
Q 3.796875 -11.296875 3.796875 -5.40625 
Q 3.796875 -1.703125 5.890625 0.9375 
Q 8 3.59375 10.90625 4.90625 
Q 7.59375 7.09375 7.59375 11 
Q 7.59375 13.203125 8.6875 15.296875 
Q 9.796875 17.40625 11.703125 19.40625 
Q 6.59375 23.90625 6.59375 31.5 
Q 6.59375 35.90625 8.546875 39.5 
Q 10.5 43.09375 14.09375 45.25 
Q 17.703125 47.40625 22.59375 47.40625 
Q 26.296875 47.40625 29.25 46.15625 
Q 32.203125 44.90625 34.296875 42.703125 
Q 36.90625 45.09375 39.796875 46.140625 
Q 42.703125 47.203125 46.59375 46.90625 
L 47.5 41 
Q 44.5 41.296875 41.84375 40.890625 
Q 39.203125 40.5 36.90625 39 
Q 38.59375 35.59375 38.59375 31.5 
Q 38.59375 27.09375 36.640625 23.4375 
Q 34.703125 19.796875 31.140625 17.640625 
Q 27.59375 15.5 22.59375 15.5 
z
M 22.59375 21.5 
Q 27 21.5 29.796875 24.453125 
Q 32.59375 27.40625 32.59375 31.5 
Q 32.59375 35.59375 29.796875 38.546875 
Q 27 41.5 22.59375 41.5 
Q 18.296875 41.5 15.4375 38.546875 
Q 12.59375 35.59375 12.59375 31.5 
Q 12.59375 27.40625 15.4375 24.453125 
Q 18.296875 21.5 22.59375 21.5 
z
M 10.40625 -4.59375 
Q 10.40625 -8 14.25 -9.890625 
Q 18.09375 -11.796875 24.796875 -11.796875 
Q 31.59375 -11.796875 34.75 -9.75 
Q 37.90625 -7.703125 37.90625 -4.5 
Q 37.90625 -2.296875 37.09375 -0.890625 
Q 36.296875 0.5 33.796875 1.203125 
Q 31.296875 1.90625 26.203125 1.90625 
Q 22.703125 1.90625 19.84375 2.203125 
Q 17 2.5 14.703125 3.203125 
Q 12.40625 1.59375 11.40625 -0.046875 
Q 10.40625 -1.703125 10.40625 -4.59375 
z
" id="Inconsolata-Regular-103"/>
      <path d="M 11.90625 45.703125 
L 19.40625 45.703125 
L 19.203125 37.296875 
Q 21.09375 41.90625 25.09375 44.34375 
Q 29.09375 46.796875 33.703125 46.796875 
Q 41 46.796875 45.796875 41.796875 
L 42.59375 36.203125 
L 42.203125 35.296875 
L 41.5 35.703125 
Q 41.296875 36.5 40.890625 37.203125 
Q 40.5 37.90625 39.203125 38.90625 
Q 37.59375 39.90625 36.25 40.25 
Q 34.90625 40.59375 33.203125 40.59375 
Q 29.90625 40.59375 26.65625 38.890625 
Q 23.40625 37.203125 21.296875 33.59375 
Q 19.203125 30 19.203125 24.203125 
L 19.203125 -0.09375 
L 11.90625 -0.09375 
z
" id="Inconsolata-Regular-114"/>
      <path d="M 25 -0.796875 
Q 18.796875 -0.796875 14.046875 2.25 
Q 9.296875 5.296875 6.59375 10.640625 
Q 3.90625 16 3.90625 22.90625 
Q 3.90625 29.90625 6.59375 35.25 
Q 9.296875 40.59375 14.046875 43.640625 
Q 18.796875 46.703125 25 46.703125 
Q 31.203125 46.703125 35.953125 43.640625 
Q 40.703125 40.59375 43.390625 35.25 
Q 46.09375 29.90625 46.09375 22.90625 
Q 46.09375 16 43.390625 10.640625 
Q 40.703125 5.296875 35.953125 2.25 
Q 31.203125 -0.796875 25 -0.796875 
z
M 25 5.203125 
Q 29 5.203125 32 7.5 
Q 35 9.796875 36.75 13.796875 
Q 38.5 17.796875 38.5 23 
Q 38.5 30.796875 34.703125 35.75 
Q 30.90625 40.703125 25 40.703125 
Q 19.09375 40.703125 15.296875 35.75 
Q 11.5 30.796875 11.5 23 
Q 11.5 17.796875 13.25 13.796875 
Q 15 9.796875 18.046875 7.5 
Q 21.09375 5.203125 25 5.203125 
z
" id="Inconsolata-Regular-111"/>
      <path d="M 10.796875 -0.09375 
L 1.59375 45.703125 
L 7.90625 45.703125 
L 15.296875 9 
L 23.09375 41.40625 
L 27.5 41.40625 
L 37.203125 9.09375 
Q 38.5 18 39.34375 23.703125 
Q 40.203125 29.40625 40.640625 33.046875 
Q 41.09375 36.703125 41.25 39.203125 
Q 41.40625 41.703125 41.40625 44.203125 
L 41.40625 45.703125 
L 48.09375 45.703125 
Q 45.09375 22.5 40.5 -0.09375 
L 33.703125 -0.09375 
L 25.296875 29.5 
L 17.296875 -0.09375 
z
" id="Inconsolata-Regular-119"/>
      <path d="M 29.90625 -0.703125 
Q 24 -0.703125 20.953125 2 
Q 17.90625 4.703125 16.90625 10.34375 
Q 15.90625 16 16.203125 24.796875 
L 16.796875 39.796875 
L 7 39.796875 
L 7 45.703125 
L 17 45.703125 
L 17.40625 57.40625 
L 24.90625 58.296875 
L 25.90625 58.40625 
L 26 57.703125 
Q 25.5 57 25.140625 56.296875 
Q 24.796875 55.59375 24.59375 53.90625 
L 23.90625 45.703125 
L 39.90625 45.703125 
L 39.90625 39.796875 
L 24 39.796875 
L 23.296875 24.296875 
Q 23 16.703125 23.703125 12.546875 
Q 24.40625 8.40625 26.203125 6.84375 
Q 28 5.296875 31 5.296875 
Q 34.296875 5.296875 36.84375 6.59375 
Q 39.40625 7.90625 42.203125 9.90625 
L 44.40625 4.203125 
Q 41 1.703125 37.390625 0.5 
Q 33.796875 -0.703125 29.90625 -0.703125 
z
" id="Inconsolata-Regular-116"/>
      <path d="M 7.296875 66.5 
L 15.203125 66.5 
L 15.203125 65.796875 
Q 14.59375 65.203125 14.4375 64.5 
Q 14.296875 63.796875 14.296875 62.09375 
L 14.296875 37.59375 
Q 17 41.796875 21.046875 44.296875 
Q 25.09375 46.796875 29.296875 46.796875 
Q 35.5 46.796875 39.34375 42.4375 
Q 43.203125 38.09375 43.203125 27.703125 
L 43.203125 0 
L 36.203125 0 
L 36.203125 27.5 
Q 36.203125 34.703125 33.75 37.59375 
Q 31.296875 40.5 27.796875 40.5 
Q 24.796875 40.5 21.640625 38.796875 
Q 18.5 37.09375 16.390625 33.9375 
Q 14.296875 30.796875 14.296875 26.296875 
L 14.296875 0 
L 7.296875 0 
z
" id="Inconsolata-Regular-104"/>
      <path d="M 16.203125 40 
L 6.296875 40 
L 6.296875 45.703125 
L 16.203125 45.703125 
L 16.203125 49.5 
Q 16.203125 58.703125 20.953125 62.890625 
Q 25.703125 67.09375 33 67.09375 
Q 37.296875 67.09375 41.046875 65.546875 
Q 44.796875 64 47.296875 60.796875 
L 43.5 55.5 
L 42.90625 54.703125 
L 42.296875 55.09375 
Q 42.203125 55.90625 41.890625 56.703125 
Q 41.59375 57.5 40.5 58.703125 
Q 38.90625 60.09375 37.296875 60.6875 
Q 35.703125 61.296875 33.203125 61.296875 
Q 28.90625 61.296875 26 58.640625 
Q 23.09375 56 23.09375 49.5 
L 23.09375 45.703125 
L 38.09375 45.703125 
L 38.09375 40 
L 23.09375 40 
L 23.09375 0 
L 16.203125 0 
z
" id="Inconsolata-Regular-102"/>
      <path d="M 21.09375 -1.09375 
Q 13.296875 -1.09375 9.09375 2.453125 
Q 4.90625 6 4.90625 11.5 
Q 4.90625 16.40625 8 19.953125 
Q 11.09375 23.5 16.34375 25.453125 
Q 21.59375 27.40625 27.90625 27.40625 
Q 30.203125 27.40625 32.75 27.296875 
Q 35.296875 27.203125 38.203125 26.796875 
Q 37.59375 34.796875 34.046875 37.796875 
Q 30.5 40.796875 23.90625 40.796875 
Q 20.59375 40.796875 17.390625 39.546875 
Q 14.203125 38.296875 11.59375 35.703125 
L 8.09375 40.296875 
Q 11.296875 43.5 15.5 45.09375 
Q 19.703125 46.703125 24.40625 46.703125 
Q 30.5 46.703125 35 44.703125 
Q 39.5 42.703125 42 37.796875 
Q 44.5 32.90625 44.5 24.296875 
L 44.5 0 
L 36.703125 0 
L 36.703125 7 
Q 35 3.703125 32.34375 1.953125 
Q 29.703125 0.203125 26.75 -0.4375 
Q 23.796875 -1.09375 21.09375 -1.09375 
z
M 12.09375 11.90625 
Q 12.09375 7.59375 14.890625 6 
Q 17.703125 4.40625 21.796875 4.40625 
Q 29.203125 4.40625 33.5 8.75 
Q 37.796875 13.09375 38.203125 21.296875 
Q 33 22 28.5 22 
Q 21.296875 22 16.6875 19.59375 
Q 12.09375 17.203125 12.09375 11.90625 
z
" id="Inconsolata-Regular-97"/>
      <path d="M 28.5 -1.09375 
Q 21.90625 -1.09375 16.703125 2 
Q 11.5 5.09375 8.546875 10.5 
Q 5.59375 15.90625 5.59375 22.796875 
Q 5.59375 29.703125 8.546875 35.046875 
Q 11.5 40.40625 16.640625 43.5 
Q 21.796875 46.59375 28.40625 46.59375 
Q 34 46.59375 38.453125 44.34375 
Q 42.90625 42.09375 45.703125 38.09375 
L 41.203125 33.703125 
L 40.5 33 
L 40 33.5 
Q 40 34.296875 39.640625 35 
Q 39.296875 35.703125 38.09375 36.90625 
Q 35.90625 38.90625 33.40625 39.703125 
Q 30.90625 40.5 27.59375 40.5 
Q 23.796875 40.5 20.4375 38.390625 
Q 17.09375 36.296875 15.046875 32.4375 
Q 13 28.59375 13 23.296875 
Q 13 18.203125 15.046875 14.140625 
Q 17.09375 10.09375 20.6875 7.75 
Q 24.296875 5.40625 28.90625 5.40625 
Q 35.796875 5.40625 40.796875 11 
L 45 6.09375 
Q 38.296875 -1.09375 28.5 -1.09375 
z
" id="Inconsolata-Regular-99"/>
     </defs>
     <g style="fill:#555555;" transform="translate(50.254 140.55)rotate(-90)scale(0.12 -0.12)">
      <use xlink:href="#Inconsolata-Regular-82"/>
      <use x="49.999985" xlink:href="#Inconsolata-Regular-32"/>
      <use x="99.999969" xlink:href="#Inconsolata-Regular-38"/>
      <use x="149.999954" xlink:href="#Inconsolata-Regular-32"/>
      <use x="199.999939" xlink:href="#Inconsolata-Regular-103"/>
      <use x="249.999924" xlink:href="#Inconsolata-Regular-114"/>
      <use x="299.999908" xlink:href="#Inconsolata-Regular-111"/>
      <use x="349.999893" xlink:href="#Inconsolata-Regular-119"/>
      <use x="399.999878" xlink:href="#Inconsolata-Regular-116"/>
      <use x="449.999863" xlink:href="#Inconsolata-Regular-104"/>
      <use x="499.999847" xlink:href="#Inconsolata-Regular-32"/>
      <use x="549.999832" xlink:href="#Inconsolata-Regular-102"/>
      <use x="599.999817" xlink:href="#Inconsolata-Regular-97"/>
      <use x="649.999802" xlink:href="#Inconsolata-Regular-99"/>
      <use x="699.999786" xlink:href="#Inconsolata-Regular-116"/>
      <use x="749.999771" xlink:href="#Inconsolata-Regular-111"/>
      <use x="799.999756" xlink:href="#Inconsolata-Regular-114"/>
     </g>
     <!-- (based on cases) -->
     <defs>
      <path d="M 39.5 -10.40625 
Q 31.203125 -6.5 25.046875 0.046875 
Q 18.90625 6.59375 15.546875 14.84375 
Q 12.203125 23.09375 12.203125 32 
Q 12.203125 40.90625 15.5 48.953125 
Q 18.796875 57 24.796875 63.34375 
Q 30.796875 69.703125 38.90625 73.5 
L 40.796875 67.296875 
Q 34.40625 63.796875 29.546875 58.296875 
Q 24.703125 52.796875 22 46 
Q 19.296875 39.203125 19.296875 31.703125 
Q 19.296875 24.203125 22 17.296875 
Q 24.703125 10.40625 29.703125 4.796875 
Q 34.703125 -0.796875 41.40625 -4.40625 
z
" id="Inconsolata-Regular-40"/>
      <path d="M 26.59375 -1.09375 
Q 22.40625 -1.09375 18.90625 0.796875 
Q 15.40625 2.703125 13.09375 6 
L 10.59375 0 
L 6 0 
L 6 66.5 
L 14.203125 66.5 
L 14.203125 65.796875 
Q 13.59375 65.203125 13.4375 64.5 
Q 13.296875 63.796875 13.296875 62.09375 
L 13.296875 38.703125 
Q 15.5 42.40625 19.25 44.59375 
Q 23 46.796875 26.90625 46.796875 
Q 35.203125 46.796875 40.453125 40.9375 
Q 45.703125 35.09375 45.703125 23.296875 
Q 45.703125 15.09375 42.890625 9.6875 
Q 40.09375 4.296875 35.75 1.59375 
Q 31.40625 -1.09375 26.59375 -1.09375 
z
M 25.703125 5.296875 
Q 28.90625 5.296875 31.796875 6.9375 
Q 34.703125 8.59375 36.5 12.5 
Q 38.296875 16.40625 38.296875 22.90625 
Q 38.296875 32 34.84375 36.296875 
Q 31.40625 40.59375 25.90625 40.59375 
Q 20.40625 40.59375 16.84375 35.640625 
Q 13.296875 30.703125 13.296875 22.703125 
Q 13.296875 14.796875 16.140625 10.046875 
Q 19 5.296875 25.703125 5.296875 
z
" id="Inconsolata-Regular-98"/>
      <path d="M 25.09375 -1 
Q 13.5 -1 5.703125 6.203125 
L 9.703125 13 
L 10.296875 13.90625 
L 10.90625 13.5 
Q 11.09375 12.703125 11.34375 11.84375 
Q 11.59375 11 12.703125 9.796875 
Q 14.796875 7.703125 17.75 6.34375 
Q 20.703125 5 25.296875 5 
Q 30.796875 5 33.84375 6.953125 
Q 36.90625 8.90625 36.90625 12.296875 
Q 36.90625 15.203125 34.34375 17.09375 
Q 31.796875 19 25.40625 21.09375 
Q 17.5 23.40625 12.84375 26.796875 
Q 8.203125 30.203125 8.203125 35.296875 
Q 8.203125 40.5 12.453125 43.640625 
Q 16.703125 46.796875 25 46.796875 
Q 31.40625 46.796875 35.59375 45 
Q 39.796875 43.203125 43.203125 39.59375 
L 39.09375 34.59375 
L 38.40625 33.796875 
L 37.90625 34.296875 
Q 37.796875 35.09375 37.4375 35.84375 
Q 37.09375 36.59375 36 37.703125 
Q 33.703125 39.5 30.796875 40.453125 
Q 27.90625 41.40625 25.203125 41.40625 
Q 21.203125 41.40625 18.296875 40 
Q 15.40625 38.59375 15.40625 35.703125 
Q 15.40625 34.203125 16.453125 32.75 
Q 17.5 31.296875 20.296875 29.84375 
Q 23.09375 28.40625 28.296875 26.90625 
Q 36.90625 24.296875 40.453125 21.25 
Q 44 18.203125 44 13.296875 
Q 44 9.5 41.953125 6.203125 
Q 39.90625 2.90625 35.703125 0.953125 
Q 31.5 -1 25.09375 -1 
z
" id="Inconsolata-Regular-115"/>
      <path d="M 27.203125 -1 
Q 17.203125 -1 11.046875 5.09375 
Q 4.90625 11.203125 4.90625 22.703125 
Q 4.90625 30.5 7.75 35.84375 
Q 10.59375 41.203125 15.34375 44 
Q 20.09375 46.796875 25.90625 46.796875 
Q 31.09375 46.796875 35.296875 44.5 
Q 39.5 42.203125 42 37.390625 
Q 44.5 32.59375 44.5 25.09375 
Q 44.5 24.296875 44.453125 23.4375 
Q 44.40625 22.59375 44.296875 21.796875 
L 11.796875 21.796875 
Q 12.203125 13 16.75 8.890625 
Q 21.296875 4.796875 27.40625 4.796875 
Q 34.59375 4.796875 39.203125 9.90625 
L 43.203125 6 
Q 37.40625 -1 27.203125 -1 
z
M 12.09375 27.40625 
L 37.203125 27.40625 
Q 37.203125 33.796875 33.953125 37.546875 
Q 30.703125 41.296875 25.40625 41.296875 
Q 20.703125 41.296875 16.890625 37.9375 
Q 13.09375 34.59375 12.09375 27.40625 
z
" id="Inconsolata-Regular-101"/>
      <path d="M 23.40625 -1 
Q 18.796875 -1 14.4375 1.640625 
Q 10.09375 4.296875 7.296875 9.6875 
Q 4.5 15.09375 4.5 23.296875 
Q 4.5 31.703125 7.390625 36.890625 
Q 10.296875 42.09375 14.75 44.5 
Q 19.203125 46.90625 23.796875 46.90625 
Q 28.5 46.90625 31.953125 44.75 
Q 35.40625 42.59375 37.09375 39 
L 37.09375 66.5 
L 44.703125 66.5 
L 44.703125 65.796875 
Q 44.09375 65.203125 43.9375 64.5 
Q 43.796875 63.796875 43.796875 62.09375 
L 43.90625 7.09375 
Q 43.90625 5.296875 44.046875 3.546875 
Q 44.203125 1.796875 44.90625 0 
L 37.796875 0 
Q 37.09375 1.796875 36.9375 3.546875 
Q 36.796875 5.296875 36.796875 7.09375 
Q 34.59375 3.40625 31.1875 1.203125 
Q 27.796875 -1 23.40625 -1 
z
M 24.5 5.296875 
Q 28.90625 5.296875 31.546875 7.6875 
Q 34.203125 10.09375 35.34375 14.140625 
Q 36.5 18.203125 36.5 23.09375 
Q 36.5 30.796875 33.5 35.890625 
Q 30.5 41 23.90625 41 
Q 17.796875 41 14.640625 36.5 
Q 11.5 32 11.5 24.40625 
Q 11.5 15.796875 14.796875 10.546875 
Q 18.09375 5.296875 24.5 5.296875 
z
" id="Inconsolata-Regular-100"/>
      <path d="M 7.203125 0 
L 7.203125 45.703125 
L 14.203125 45.703125 
L 14.203125 37.59375 
Q 16.796875 41.796875 20.9375 44.296875 
Q 25.09375 46.796875 29.703125 46.796875 
Q 35.296875 46.796875 39.1875 42.4375 
Q 43.09375 38.09375 43.09375 27.703125 
L 43.09375 0 
L 36.09375 0 
L 36.09375 27.5 
Q 36.09375 34.703125 33.640625 37.59375 
Q 31.203125 40.5 27.703125 40.5 
Q 24.703125 40.5 21.546875 38.75 
Q 18.40625 37 16.296875 33.84375 
Q 14.203125 30.703125 14.203125 26.296875 
L 14.203125 0 
z
" id="Inconsolata-Regular-110"/>
      <path d="M 13.25 -10.40625 
Q 21.546875 -6.5 27.6875 0.046875 
Q 33.84375 6.59375 37.1875 14.84375 
Q 40.546875 23.09375 40.546875 32 
Q 40.546875 40.90625 37.25 48.953125 
Q 33.953125 57 27.953125 63.34375 
Q 21.953125 69.703125 13.84375 73.5 
L 11.953125 67.296875 
Q 18.34375 63.796875 23.1875 58.296875 
Q 28.046875 52.796875 30.75 46 
Q 33.453125 39.203125 33.453125 31.703125 
Q 33.453125 24.203125 30.75 17.296875 
Q 28.046875 10.40625 23.046875 4.796875 
Q 18.046875 -0.796875 11.34375 -4.40625 
z
" id="Inconsolata-Regular-41"/>
     </defs>
     <g style="fill:#555555;" transform="translate(61.995625 137.55)rotate(-90)scale(0.12 -0.12)">
      <use xlink:href="#Inconsolata-Regular-40"/>
      <use x="49.999985" xlink:href="#Inconsolata-Regular-98"/>
      <use x="99.999969" xlink:href="#Inconsolata-Regular-97"/>
      <use x="149.999954" xlink:href="#Inconsolata-Regular-115"/>
      <use x="199.999939" xlink:href="#Inconsolata-Regular-101"/>
      <use x="249.999924" xlink:href="#Inconsolata-Regular-100"/>
      <use x="299.999908" xlink:href="#Inconsolata-Regular-32"/>
      <use x="349.999893" xlink:href="#Inconsolata-Regular-111"/>
      <use x="399.999878" xlink:href="#Inconsolata-Regular-110"/>
      <use x="449.999863" xlink:href="#Inconsolata-Regular-32"/>
      <use x="499.999847" xlink:href="#Inconsolata-Regular-99"/>
      <use x="549.999832" xlink:href="#Inconsolata-Regular-97"/>
      <use x="599.999817" xlink:href="#Inconsolata-Regular-115"/>
      <use x="649.999802" xlink:href="#Inconsolata-Regular-101"/>
      <use x="699.999786" xlink:href="#Inconsolata-Regular-115"/>
      <use x="749.999771" xlink:href="#Inconsolata-Regular-41"/>
     </g>
    </g>
   </g>
   <g id="line2d_28">
    <defs>
     <path d="M 0 3 
C 0.795609 3 1.55874 2.683901 2.12132 2.12132 
C 2.683901 1.55874 3 0.795609 3 0 
C 3 -0.795609 2.683901 -1.55874 2.12132 -2.12132 
C 1.55874 -2.683901 0.795609 -3 0 -3 
C -0.795609 -3 -1.55874 -2.683901 -2.12132 -2.12132 
C -2.683901 -1.55874 -3 -0.795609 -3 0 
C -3 0.795609 -2.683901 1.55874 -2.12132 2.12132 
C -1.55874 2.683901 -0.795609 3 0 3 
z
" id="m16a8f8c8df" style="stroke:#348abd;stroke-opacity:0.3;"/>
    </defs>
    <g clip-path="url(#p00cf5fd5f9)">
     <use style="fill:#348abd;fill-opacity:0.3;stroke:#348abd;stroke-opacity:0.3;" x="121.78481" xlink:href="#m16a8f8c8df" y="95.056438"/>
     <use style="fill:#348abd;fill-opacity:0.3;stroke:#348abd;stroke-opacity:0.3;" x="124.995397" xlink:href="#m16a8f8c8df" y="101.500954"/>
     <use style="fill:#348abd;fill-opacity:0.3;stroke:#348abd;stroke-opacity:0.3;" x="128.205984" xlink:href="#m16a8f8c8df" y="111.583723"/>
     <use style="fill:#348abd;fill-opacity:0.3;stroke:#348abd;stroke-opacity:0.3;" x="129.630453" xlink:href="#m16a8f8c8df" y="-1"/>
     <use style="fill:#348abd;fill-opacity:0.3;stroke:#348abd;stroke-opacity:0.3;" x="134.206941" xlink:href="#m16a8f8c8df" y="-1"/>
     <use style="fill:#348abd;fill-opacity:0.3;stroke:#348abd;stroke-opacity:0.3;" x="134.627158" xlink:href="#m16a8f8c8df" y="20.259045"/>
     <use style="fill:#348abd;fill-opacity:0.3;stroke:#348abd;stroke-opacity:0.3;" x="137.837745" xlink:href="#m16a8f8c8df" y="8.278403"/>
     <use style="fill:#348abd;fill-opacity:0.3;stroke:#348abd;stroke-opacity:0.3;" x="141.048331" xlink:href="#m16a8f8c8df" y="46.33761"/>
     <use style="fill:#348abd;fill-opacity:0.3;stroke:#348abd;stroke-opacity:0.3;" x="144.258918" xlink:href="#m16a8f8c8df" y="65.423504"/>
     <use style="fill:#348abd;fill-opacity:0.3;stroke:#348abd;stroke-opacity:0.3;" x="147.469505" xlink:href="#m16a8f8c8df" y="62.077373"/>
     <use style="fill:#348abd;fill-opacity:0.3;stroke:#348abd;stroke-opacity:0.3;" x="150.680092" xlink:href="#m16a8f8c8df" y="56.038962"/>
     <use style="fill:#348abd;fill-opacity:0.3;stroke:#348abd;stroke-opacity:0.3;" x="153.890679" xlink:href="#m16a8f8c8df" y="84.556264"/>
     <use style="fill:#348abd;fill-opacity:0.3;stroke:#348abd;stroke-opacity:0.3;" x="157.101266" xlink:href="#m16a8f8c8df" y="99.901571"/>
     <use style="fill:#348abd;fill-opacity:0.3;stroke:#348abd;stroke-opacity:0.3;" x="160.311853" xlink:href="#m16a8f8c8df" y="136.976547"/>
     <use style="fill:#348abd;fill-opacity:0.3;stroke:#348abd;stroke-opacity:0.3;" x="163.52244" xlink:href="#m16a8f8c8df" y="87.742045"/>
     <use style="fill:#348abd;fill-opacity:0.3;stroke:#348abd;stroke-opacity:0.3;" x="166.733026" xlink:href="#m16a8f8c8df" y="114.422251"/>
     <use style="fill:#348abd;fill-opacity:0.3;stroke:#348abd;stroke-opacity:0.3;" x="169.943613" xlink:href="#m16a8f8c8df" y="107.743084"/>
     <use style="fill:#348abd;fill-opacity:0.3;stroke:#348abd;stroke-opacity:0.3;" x="173.1542" xlink:href="#m16a8f8c8df" y="128.914135"/>
     <use style="fill:#348abd;fill-opacity:0.3;stroke:#348abd;stroke-opacity:0.3;" x="176.364787" xlink:href="#m16a8f8c8df" y="156.557907"/>
     <use style="fill:#348abd;fill-opacity:0.3;stroke:#348abd;stroke-opacity:0.3;" x="179.575374" xlink:href="#m16a8f8c8df" y="179.773784"/>
     <use style="fill:#348abd;fill-opacity:0.3;stroke:#348abd;stroke-opacity:0.3;" x="182.785961" xlink:href="#m16a8f8c8df" y="125.228504"/>
     <use style="fill:#348abd;fill-opacity:0.3;stroke:#348abd;stroke-opacity:0.3;" x="185.996548" xlink:href="#m16a8f8c8df" y="98.891122"/>
     <use style="fill:#348abd;fill-opacity:0.3;stroke:#348abd;stroke-opacity:0.3;" x="189.207135" xlink:href="#m16a8f8c8df" y="104.978869"/>
     <use style="fill:#348abd;fill-opacity:0.3;stroke:#348abd;stroke-opacity:0.3;" x="192.417722" xlink:href="#m16a8f8c8df" y="129.962199"/>
     <use style="fill:#348abd;fill-opacity:0.3;stroke:#348abd;stroke-opacity:0.3;" x="192.55837" xlink:href="#m16a8f8c8df" y="-1"/>
     <use style="fill:#348abd;fill-opacity:0.3;stroke:#348abd;stroke-opacity:0.3;" x="211.353934" xlink:href="#m16a8f8c8df" y="-1"/>
     <use style="fill:#348abd;fill-opacity:0.3;stroke:#348abd;stroke-opacity:0.3;" x="211.681243" xlink:href="#m16a8f8c8df" y="5.045872"/>
     <use style="fill:#348abd;fill-opacity:0.3;stroke:#348abd;stroke-opacity:0.3;" x="214.89183" xlink:href="#m16a8f8c8df" y="10.397172"/>
     <use style="fill:#348abd;fill-opacity:0.3;stroke:#348abd;stroke-opacity:0.3;" x="218.102417" xlink:href="#m16a8f8c8df" y="4.259715"/>
     <use style="fill:#348abd;fill-opacity:0.3;stroke:#348abd;stroke-opacity:0.3;" x="221.313003" xlink:href="#m16a8f8c8df" y="12.717339"/>
     <use style="fill:#348abd;fill-opacity:0.3;stroke:#348abd;stroke-opacity:0.3;" x="224.52359" xlink:href="#m16a8f8c8df" y="9.569566"/>
     <use style="fill:#348abd;fill-opacity:0.3;stroke:#348abd;stroke-opacity:0.3;" x="227.734177" xlink:href="#m16a8f8c8df" y="30.765964"/>
     <use style="fill:#348abd;fill-opacity:0.3;stroke:#348abd;stroke-opacity:0.3;" x="230.944764" xlink:href="#m16a8f8c8df" y="43.283714"/>
     <use style="fill:#348abd;fill-opacity:0.3;stroke:#348abd;stroke-opacity:0.3;" x="234.155351" xlink:href="#m16a8f8c8df" y="40.807021"/>
     <use style="fill:#348abd;fill-opacity:0.3;stroke:#348abd;stroke-opacity:0.3;" x="237.365938" xlink:href="#m16a8f8c8df" y="64.996068"/>
     <use style="fill:#348abd;fill-opacity:0.3;stroke:#348abd;stroke-opacity:0.3;" x="240.576525" xlink:href="#m16a8f8c8df" y="73.372429"/>
     <use style="fill:#348abd;fill-opacity:0.3;stroke:#348abd;stroke-opacity:0.3;" x="243.787112" xlink:href="#m16a8f8c8df" y="85.186633"/>
     <use style="fill:#348abd;fill-opacity:0.3;stroke:#348abd;stroke-opacity:0.3;" x="246.997699" xlink:href="#m16a8f8c8df" y="97.144632"/>
     <use style="fill:#348abd;fill-opacity:0.3;stroke:#348abd;stroke-opacity:0.3;" x="250.208285" xlink:href="#m16a8f8c8df" y="107.100276"/>
     <use style="fill:#348abd;fill-opacity:0.3;stroke:#348abd;stroke-opacity:0.3;" x="253.418872" xlink:href="#m16a8f8c8df" y="119.857675"/>
     <use style="fill:#348abd;fill-opacity:0.3;stroke:#348abd;stroke-opacity:0.3;" x="256.629459" xlink:href="#m16a8f8c8df" y="124.839736"/>
     <use style="fill:#348abd;fill-opacity:0.3;stroke:#348abd;stroke-opacity:0.3;" x="259.840046" xlink:href="#m16a8f8c8df" y="127.233681"/>
     <use style="fill:#348abd;fill-opacity:0.3;stroke:#348abd;stroke-opacity:0.3;" x="263.050633" xlink:href="#m16a8f8c8df" y="143.781397"/>
     <use style="fill:#348abd;fill-opacity:0.3;stroke:#348abd;stroke-opacity:0.3;" x="266.26122" xlink:href="#m16a8f8c8df" y="134.316919"/>
     <use style="fill:#348abd;fill-opacity:0.3;stroke:#348abd;stroke-opacity:0.3;" x="269.471807" xlink:href="#m16a8f8c8df" y="140.12365"/>
     <use style="fill:#348abd;fill-opacity:0.3;stroke:#348abd;stroke-opacity:0.3;" x="272.682394" xlink:href="#m16a8f8c8df" y="145.339547"/>
     <use style="fill:#348abd;fill-opacity:0.3;stroke:#348abd;stroke-opacity:0.3;" x="275.89298" xlink:href="#m16a8f8c8df" y="141.23877"/>
     <use style="fill:#348abd;fill-opacity:0.3;stroke:#348abd;stroke-opacity:0.3;" x="279.103567" xlink:href="#m16a8f8c8df" y="123.855845"/>
     <use style="fill:#348abd;fill-opacity:0.3;stroke:#348abd;stroke-opacity:0.3;" x="282.314154" xlink:href="#m16a8f8c8df" y="110.773685"/>
     <use style="fill:#348abd;fill-opacity:0.3;stroke:#348abd;stroke-opacity:0.3;" x="285.524741" xlink:href="#m16a8f8c8df" y="87.06453"/>
     <use style="fill:#348abd;fill-opacity:0.3;stroke:#348abd;stroke-opacity:0.3;" x="288.735328" xlink:href="#m16a8f8c8df" y="114.381421"/>
     <use style="fill:#348abd;fill-opacity:0.3;stroke:#348abd;stroke-opacity:0.3;" x="291.945915" xlink:href="#m16a8f8c8df" y="80.52509"/>
     <use style="fill:#348abd;fill-opacity:0.3;stroke:#348abd;stroke-opacity:0.3;" x="295.156502" xlink:href="#m16a8f8c8df" y="71.449527"/>
     <use style="fill:#348abd;fill-opacity:0.3;stroke:#348abd;stroke-opacity:0.3;" x="298.367089" xlink:href="#m16a8f8c8df" y="93.240242"/>
     <use style="fill:#348abd;fill-opacity:0.3;stroke:#348abd;stroke-opacity:0.3;" x="301.577675" xlink:href="#m16a8f8c8df" y="87.549657"/>
     <use style="fill:#348abd;fill-opacity:0.3;stroke:#348abd;stroke-opacity:0.3;" x="304.788262" xlink:href="#m16a8f8c8df" y="91.228748"/>
     <use style="fill:#348abd;fill-opacity:0.3;stroke:#348abd;stroke-opacity:0.3;" x="307.998849" xlink:href="#m16a8f8c8df" y="96.31837"/>
     <use style="fill:#348abd;fill-opacity:0.3;stroke:#348abd;stroke-opacity:0.3;" x="311.209436" xlink:href="#m16a8f8c8df" y="100.473675"/>
     <use style="fill:#348abd;fill-opacity:0.3;stroke:#348abd;stroke-opacity:0.3;" x="314.420023" xlink:href="#m16a8f8c8df" y="95.904904"/>
     <use style="fill:#348abd;fill-opacity:0.3;stroke:#348abd;stroke-opacity:0.3;" x="317.63061" xlink:href="#m16a8f8c8df" y="85.272568"/>
     <use style="fill:#348abd;fill-opacity:0.3;stroke:#348abd;stroke-opacity:0.3;" x="320.841197" xlink:href="#m16a8f8c8df" y="93.306806"/>
     <use style="fill:#348abd;fill-opacity:0.3;stroke:#348abd;stroke-opacity:0.3;" x="324.051784" xlink:href="#m16a8f8c8df" y="84.485828"/>
     <use style="fill:#348abd;fill-opacity:0.3;stroke:#348abd;stroke-opacity:0.3;" x="327.262371" xlink:href="#m16a8f8c8df" y="68.221159"/>
     <use style="fill:#348abd;fill-opacity:0.3;stroke:#348abd;stroke-opacity:0.3;" x="330.472957" xlink:href="#m16a8f8c8df" y="87.366238"/>
     <use style="fill:#348abd;fill-opacity:0.3;stroke:#348abd;stroke-opacity:0.3;" x="333.683544" xlink:href="#m16a8f8c8df" y="93.970786"/>
     <use style="fill:#348abd;fill-opacity:0.3;stroke:#348abd;stroke-opacity:0.3;" x="336.894131" xlink:href="#m16a8f8c8df" y="95.220083"/>
     <use style="fill:#348abd;fill-opacity:0.3;stroke:#348abd;stroke-opacity:0.3;" x="340.104718" xlink:href="#m16a8f8c8df" y="96.753376"/>
     <use style="fill:#348abd;fill-opacity:0.3;stroke:#348abd;stroke-opacity:0.3;" x="343.315305" xlink:href="#m16a8f8c8df" y="109.908448"/>
     <use style="fill:#348abd;fill-opacity:0.3;stroke:#348abd;stroke-opacity:0.3;" x="346.525892" xlink:href="#m16a8f8c8df" y="107.49521"/>
     <use style="fill:#348abd;fill-opacity:0.3;stroke:#348abd;stroke-opacity:0.3;" x="349.736479" xlink:href="#m16a8f8c8df" y="107.362872"/>
     <use style="fill:#348abd;fill-opacity:0.3;stroke:#348abd;stroke-opacity:0.3;" x="352.947066" xlink:href="#m16a8f8c8df" y="120.298136"/>
     <use style="fill:#348abd;fill-opacity:0.3;stroke:#348abd;stroke-opacity:0.3;" x="356.157652" xlink:href="#m16a8f8c8df" y="121.883701"/>
     <use style="fill:#348abd;fill-opacity:0.3;stroke:#348abd;stroke-opacity:0.3;" x="359.368239" xlink:href="#m16a8f8c8df" y="123.107187"/>
     <use style="fill:#348abd;fill-opacity:0.3;stroke:#348abd;stroke-opacity:0.3;" x="362.578826" xlink:href="#m16a8f8c8df" y="124.423575"/>
     <use style="fill:#348abd;fill-opacity:0.3;stroke:#348abd;stroke-opacity:0.3;" x="365.789413" xlink:href="#m16a8f8c8df" y="128.577383"/>
     <use style="fill:#348abd;fill-opacity:0.3;stroke:#348abd;stroke-opacity:0.3;" x="369" xlink:href="#m16a8f8c8df" y="123.446394"/>
     <use style="fill:#348abd;fill-opacity:0.3;stroke:#348abd;stroke-opacity:0.3;" x="372.210587" xlink:href="#m16a8f8c8df" y="110.909909"/>
     <use style="fill:#348abd;fill-opacity:0.3;stroke:#348abd;stroke-opacity:0.3;" x="375.421174" xlink:href="#m16a8f8c8df" y="112.037969"/>
     <use style="fill:#348abd;fill-opacity:0.3;stroke:#348abd;stroke-opacity:0.3;" x="378.631761" xlink:href="#m16a8f8c8df" y="112.70694"/>
     <use style="fill:#348abd;fill-opacity:0.3;stroke:#348abd;stroke-opacity:0.3;" x="381.842348" xlink:href="#m16a8f8c8df" y="107.218179"/>
     <use style="fill:#348abd;fill-opacity:0.3;stroke:#348abd;stroke-opacity:0.3;" x="385.052934" xlink:href="#m16a8f8c8df" y="109.652222"/>
     <use style="fill:#348abd;fill-opacity:0.3;stroke:#348abd;stroke-opacity:0.3;" x="388.263521" xlink:href="#m16a8f8c8df" y="113.857023"/>
     <use style="fill:#348abd;fill-opacity:0.3;stroke:#348abd;stroke-opacity:0.3;" x="391.474108" xlink:href="#m16a8f8c8df" y="121.499225"/>
     <use style="fill:#348abd;fill-opacity:0.3;stroke:#348abd;stroke-opacity:0.3;" x="394.684695" xlink:href="#m16a8f8c8df" y="120.245301"/>
     <use style="fill:#348abd;fill-opacity:0.3;stroke:#348abd;stroke-opacity:0.3;" x="397.895282" xlink:href="#m16a8f8c8df" y="120.756265"/>
     <use style="fill:#348abd;fill-opacity:0.3;stroke:#348abd;stroke-opacity:0.3;" x="401.105869" xlink:href="#m16a8f8c8df" y="121.735264"/>
     <use style="fill:#348abd;fill-opacity:0.3;stroke:#348abd;stroke-opacity:0.3;" x="404.316456" xlink:href="#m16a8f8c8df" y="113.947502"/>
     <use style="fill:#348abd;fill-opacity:0.3;stroke:#348abd;stroke-opacity:0.3;" x="407.527043" xlink:href="#m16a8f8c8df" y="109.578052"/>
     <use style="fill:#348abd;fill-opacity:0.3;stroke:#348abd;stroke-opacity:0.3;" x="410.737629" xlink:href="#m16a8f8c8df" y="95.195878"/>
     <use style="fill:#348abd;fill-opacity:0.3;stroke:#348abd;stroke-opacity:0.3;" x="413.948216" xlink:href="#m16a8f8c8df" y="87.893141"/>
     <use style="fill:#348abd;fill-opacity:0.3;stroke:#348abd;stroke-opacity:0.3;" x="417.158803" xlink:href="#m16a8f8c8df" y="103.412197"/>
     <use style="fill:#348abd;fill-opacity:0.3;stroke:#348abd;stroke-opacity:0.3;" x="420.36939" xlink:href="#m16a8f8c8df" y="96.49391"/>
     <use style="fill:#348abd;fill-opacity:0.3;stroke:#348abd;stroke-opacity:0.3;" x="423.579977" xlink:href="#m16a8f8c8df" y="106.277691"/>
     <use style="fill:#348abd;fill-opacity:0.3;stroke:#348abd;stroke-opacity:0.3;" x="426.790564" xlink:href="#m16a8f8c8df" y="100.470945"/>
     <use style="fill:#348abd;fill-opacity:0.3;stroke:#348abd;stroke-opacity:0.3;" x="430.001151" xlink:href="#m16a8f8c8df" y="98.59079"/>
     <use style="fill:#348abd;fill-opacity:0.3;stroke:#348abd;stroke-opacity:0.3;" x="433.211738" xlink:href="#m16a8f8c8df" y="106.438716"/>
     <use style="fill:#348abd;fill-opacity:0.3;stroke:#348abd;stroke-opacity:0.3;" x="436.422325" xlink:href="#m16a8f8c8df" y="111.823634"/>
     <use style="fill:#348abd;fill-opacity:0.3;stroke:#348abd;stroke-opacity:0.3;" x="439.632911" xlink:href="#m16a8f8c8df" y="118.960491"/>
     <use style="fill:#348abd;fill-opacity:0.3;stroke:#348abd;stroke-opacity:0.3;" x="442.843498" xlink:href="#m16a8f8c8df" y="94.593544"/>
     <use style="fill:#348abd;fill-opacity:0.3;stroke:#348abd;stroke-opacity:0.3;" x="446.054085" xlink:href="#m16a8f8c8df" y="64.313358"/>
     <use style="fill:#348abd;fill-opacity:0.3;stroke:#348abd;stroke-opacity:0.3;" x="449.264672" xlink:href="#m16a8f8c8df" y="22.892804"/>
     <use style="fill:#348abd;fill-opacity:0.3;stroke:#348abd;stroke-opacity:0.3;" x="452.475259" xlink:href="#m16a8f8c8df" y="1.573194"/>
     <use style="fill:#348abd;fill-opacity:0.3;stroke:#348abd;stroke-opacity:0.3;" x="455.685846" xlink:href="#m16a8f8c8df" y="21.629127"/>
     <use style="fill:#348abd;fill-opacity:0.3;stroke:#348abd;stroke-opacity:0.3;" x="458.896433" xlink:href="#m16a8f8c8df" y="25.958955"/>
     <use style="fill:#348abd;fill-opacity:0.3;stroke:#348abd;stroke-opacity:0.3;" x="462.10702" xlink:href="#m16a8f8c8df" y="36.080262"/>
     <use style="fill:#348abd;fill-opacity:0.3;stroke:#348abd;stroke-opacity:0.3;" x="465.317606" xlink:href="#m16a8f8c8df" y="53.8007"/>
     <use style="fill:#348abd;fill-opacity:0.3;stroke:#348abd;stroke-opacity:0.3;" x="468.528193" xlink:href="#m16a8f8c8df" y="73.722658"/>
     <use style="fill:#348abd;fill-opacity:0.3;stroke:#348abd;stroke-opacity:0.3;" x="471.73878" xlink:href="#m16a8f8c8df" y="92.153821"/>
     <use style="fill:#348abd;fill-opacity:0.3;stroke:#348abd;stroke-opacity:0.3;" x="474.949367" xlink:href="#m16a8f8c8df" y="102.52407"/>
     <use style="fill:#348abd;fill-opacity:0.3;stroke:#348abd;stroke-opacity:0.3;" x="478.159954" xlink:href="#m16a8f8c8df" y="116.503781"/>
     <use style="fill:#348abd;fill-opacity:0.3;stroke:#348abd;stroke-opacity:0.3;" x="481.370541" xlink:href="#m16a8f8c8df" y="105.731627"/>
     <use style="fill:#348abd;fill-opacity:0.3;stroke:#348abd;stroke-opacity:0.3;" x="484.581128" xlink:href="#m16a8f8c8df" y="109.293862"/>
     <use style="fill:#348abd;fill-opacity:0.3;stroke:#348abd;stroke-opacity:0.3;" x="487.791715" xlink:href="#m16a8f8c8df" y="101.235422"/>
     <use style="fill:#348abd;fill-opacity:0.3;stroke:#348abd;stroke-opacity:0.3;" x="491.002301" xlink:href="#m16a8f8c8df" y="95.1135"/>
     <use style="fill:#348abd;fill-opacity:0.3;stroke:#348abd;stroke-opacity:0.3;" x="494.212888" xlink:href="#m16a8f8c8df" y="85.28389"/>
     <use style="fill:#348abd;fill-opacity:0.3;stroke:#348abd;stroke-opacity:0.3;" x="497.423475" xlink:href="#m16a8f8c8df" y="83.830093"/>
     <use style="fill:#348abd;fill-opacity:0.3;stroke:#348abd;stroke-opacity:0.3;" x="500.634062" xlink:href="#m16a8f8c8df" y="80.681176"/>
     <use style="fill:#348abd;fill-opacity:0.3;stroke:#348abd;stroke-opacity:0.3;" x="503.844649" xlink:href="#m16a8f8c8df" y="67.873592"/>
     <use style="fill:#348abd;fill-opacity:0.3;stroke:#348abd;stroke-opacity:0.3;" x="507.055236" xlink:href="#m16a8f8c8df" y="32.406089"/>
     <use style="fill:#348abd;fill-opacity:0.3;stroke:#348abd;stroke-opacity:0.3;" x="510.265823" xlink:href="#m16a8f8c8df" y="47.09664"/>
     <use style="fill:#348abd;fill-opacity:0.3;stroke:#348abd;stroke-opacity:0.3;" x="513.47641" xlink:href="#m16a8f8c8df" y="45.731978"/>
     <use style="fill:#348abd;fill-opacity:0.3;stroke:#348abd;stroke-opacity:0.3;" x="516.686997" xlink:href="#m16a8f8c8df" y="62.567767"/>
     <use style="fill:#348abd;fill-opacity:0.3;stroke:#348abd;stroke-opacity:0.3;" x="519.897583" xlink:href="#m16a8f8c8df" y="70.557602"/>
     <use style="fill:#348abd;fill-opacity:0.3;stroke:#348abd;stroke-opacity:0.3;" x="523.10817" xlink:href="#m16a8f8c8df" y="80.118181"/>
     <use style="fill:#348abd;fill-opacity:0.3;stroke:#348abd;stroke-opacity:0.3;" x="526.318757" xlink:href="#m16a8f8c8df" y="81.99822"/>
     <use style="fill:#348abd;fill-opacity:0.3;stroke:#348abd;stroke-opacity:0.3;" x="529.529344" xlink:href="#m16a8f8c8df" y="91.422535"/>
     <use style="fill:#348abd;fill-opacity:0.3;stroke:#348abd;stroke-opacity:0.3;" x="532.739931" xlink:href="#m16a8f8c8df" y="98.822876"/>
     <use style="fill:#348abd;fill-opacity:0.3;stroke:#348abd;stroke-opacity:0.3;" x="535.950518" xlink:href="#m16a8f8c8df" y="101.309058"/>
     <use style="fill:#348abd;fill-opacity:0.3;stroke:#348abd;stroke-opacity:0.3;" x="539.161105" xlink:href="#m16a8f8c8df" y="83.916051"/>
     <use style="fill:#348abd;fill-opacity:0.3;stroke:#348abd;stroke-opacity:0.3;" x="542.371692" xlink:href="#m16a8f8c8df" y="81.266655"/>
     <use style="fill:#348abd;fill-opacity:0.3;stroke:#348abd;stroke-opacity:0.3;" x="545.582278" xlink:href="#m16a8f8c8df" y="80.600522"/>
     <use style="fill:#348abd;fill-opacity:0.3;stroke:#348abd;stroke-opacity:0.3;" x="548.792865" xlink:href="#m16a8f8c8df" y="82.597859"/>
     <use style="fill:#348abd;fill-opacity:0.3;stroke:#348abd;stroke-opacity:0.3;" x="552.003452" xlink:href="#m16a8f8c8df" y="86.707568"/>
     <use style="fill:#348abd;fill-opacity:0.3;stroke:#348abd;stroke-opacity:0.3;" x="555.214039" xlink:href="#m16a8f8c8df" y="86.540229"/>
     <use style="fill:#348abd;fill-opacity:0.3;stroke:#348abd;stroke-opacity:0.3;" x="558.424626" xlink:href="#m16a8f8c8df" y="85.146239"/>
     <use style="fill:#348abd;fill-opacity:0.3;stroke:#348abd;stroke-opacity:0.3;" x="561.635213" xlink:href="#m16a8f8c8df" y="90.598381"/>
     <use style="fill:#348abd;fill-opacity:0.3;stroke:#348abd;stroke-opacity:0.3;" x="564.8458" xlink:href="#m16a8f8c8df" y="95.280041"/>
     <use style="fill:#348abd;fill-opacity:0.3;stroke:#348abd;stroke-opacity:0.3;" x="568.056387" xlink:href="#m16a8f8c8df" y="99.024336"/>
     <use style="fill:#348abd;fill-opacity:0.3;stroke:#348abd;stroke-opacity:0.3;" x="571.266974" xlink:href="#m16a8f8c8df" y="92.855491"/>
     <use style="fill:#348abd;fill-opacity:0.3;stroke:#348abd;stroke-opacity:0.3;" x="574.47756" xlink:href="#m16a8f8c8df" y="88.136184"/>
     <use style="fill:#348abd;fill-opacity:0.3;stroke:#348abd;stroke-opacity:0.3;" x="577.688147" xlink:href="#m16a8f8c8df" y="91.585745"/>
     <use style="fill:#348abd;fill-opacity:0.3;stroke:#348abd;stroke-opacity:0.3;" x="580.898734" xlink:href="#m16a8f8c8df" y="78.921032"/>
     <use style="fill:#348abd;fill-opacity:0.3;stroke:#348abd;stroke-opacity:0.3;" x="584.109321" xlink:href="#m16a8f8c8df" y="82.895607"/>
     <use style="fill:#348abd;fill-opacity:0.3;stroke:#348abd;stroke-opacity:0.3;" x="587.319908" xlink:href="#m16a8f8c8df" y="90.407059"/>
     <use style="fill:#348abd;fill-opacity:0.3;stroke:#348abd;stroke-opacity:0.3;" x="590.530495" xlink:href="#m16a8f8c8df" y="83.288229"/>
     <use style="fill:#348abd;fill-opacity:0.3;stroke:#348abd;stroke-opacity:0.3;" x="593.741082" xlink:href="#m16a8f8c8df" y="87.027074"/>
     <use style="fill:#348abd;fill-opacity:0.3;stroke:#348abd;stroke-opacity:0.3;" x="596.951669" xlink:href="#m16a8f8c8df" y="97.568068"/>
     <use style="fill:#348abd;fill-opacity:0.3;stroke:#348abd;stroke-opacity:0.3;" x="600.162255" xlink:href="#m16a8f8c8df" y="100.477738"/>
     <use style="fill:#348abd;fill-opacity:0.3;stroke:#348abd;stroke-opacity:0.3;" x="603.372842" xlink:href="#m16a8f8c8df" y="99.777339"/>
     <use style="fill:#348abd;fill-opacity:0.3;stroke:#348abd;stroke-opacity:0.3;" x="606.583429" xlink:href="#m16a8f8c8df" y="87.252888"/>
     <use style="fill:#348abd;fill-opacity:0.3;stroke:#348abd;stroke-opacity:0.3;" x="609.794016" xlink:href="#m16a8f8c8df" y="92.666736"/>
     <use style="fill:#348abd;fill-opacity:0.3;stroke:#348abd;stroke-opacity:0.3;" x="613.004603" xlink:href="#m16a8f8c8df" y="83.010454"/>
     <use style="fill:#348abd;fill-opacity:0.3;stroke:#348abd;stroke-opacity:0.3;" x="616.21519" xlink:href="#m16a8f8c8df" y="73.480318"/>
     <use style="fill:#348abd;fill-opacity:0.3;stroke:#348abd;stroke-opacity:0.3;" x="619.425777" xlink:href="#m16a8f8c8df" y="85.275355"/>
     <use style="fill:#348abd;fill-opacity:0.3;stroke:#348abd;stroke-opacity:0.3;" x="622.636364" xlink:href="#m16a8f8c8df" y="87.203054"/>
    </g>
   </g>
   <g id="line2d_29">
    <path clip-path="url(#p00cf5fd5f9)" d="M 118.574223 100.17003 
L 121.78481 73.268756 
L 124.995397 55.248662 
L 128.205984 34.472746 
L 131.416571 18.730426 
L 134.627158 11.254677 
L 137.837745 16.614665 
L 141.048331 28.819291 
L 144.258918 50.598698 
L 147.469505 61.326472 
L 150.680092 74.60643 
L 157.101266 95.067644 
L 160.311853 102.959412 
L 163.52244 109.100489 
L 166.733026 114.853462 
L 169.943613 123.935866 
L 173.1542 131.768279 
L 176.364787 138.206484 
L 179.575374 137.37444 
L 182.785961 132.651085 
L 184.768705 -1 
M 216.443469 -1 
L 218.102417 5.596284 
L 221.313003 14.171938 
L 224.52359 20.185064 
L 227.734177 28.603144 
L 230.944764 38.817435 
L 234.155351 49.766941 
L 240.576525 73.130821 
L 246.997699 96.311476 
L 253.418872 115.610493 
L 256.629459 123.22557 
L 259.840046 129.386418 
L 263.050633 134.28917 
L 266.26122 137.566409 
L 269.471807 138.590884 
L 272.682394 136.767538 
L 275.89298 130.279862 
L 279.103567 123.146231 
L 282.314154 113.515968 
L 285.524741 103.466402 
L 288.735328 95.796195 
L 291.945915 90.389953 
L 295.156502 87.556972 
L 298.367089 87.768123 
L 301.577675 88.789511 
L 304.788262 91.913567 
L 307.998849 93.945705 
L 311.209436 94.196058 
L 314.420023 93.332923 
L 320.841197 87.230784 
L 324.051784 85.013505 
L 327.262371 84.728021 
L 330.472957 86.701872 
L 333.683544 90.391787 
L 336.894131 95.137067 
L 340.104718 100.098815 
L 346.525892 108.348636 
L 352.947066 116.384161 
L 356.157652 119.704383 
L 359.368239 122.392902 
L 362.578826 123.266162 
L 365.789413 122.143867 
L 369 119.889525 
L 372.210587 116.756321 
L 375.421174 113.807031 
L 378.631761 111.730801 
L 381.842348 111.492056 
L 385.052934 112.853755 
L 388.263521 114.883094 
L 391.474108 117.167004 
L 394.684695 118.754789 
L 397.895282 118.782149 
L 401.105869 116.395983 
L 410.737629 102.033892 
L 413.948216 99.333046 
L 417.158803 98.657985 
L 420.36939 99.1292 
L 423.579977 100.642673 
L 426.790564 102.483585 
L 430.001151 104.470122 
L 433.211738 105.985707 
L 436.422325 104.03504 
L 439.632911 95.978986 
L 442.843498 80.630884 
L 449.264672 42.914005 
L 452.475259 29.831298 
L 455.685846 25.941607 
L 458.896433 30.652407 
L 462.10702 42.082396 
L 471.73878 85.799565 
L 474.949367 96.914294 
L 478.159954 103.573863 
L 481.370541 105.758039 
L 484.581128 104.004513 
L 487.791715 99.953307 
L 491.002301 94.518513 
L 494.212888 88.831838 
L 497.423475 80.507559 
L 500.634062 71.771087 
L 503.844649 62.588269 
L 507.055236 55.77021 
L 510.265823 52.788191 
L 513.47641 54.676317 
L 516.686997 60.400377 
L 519.897583 68.920589 
L 523.10817 76.734498 
L 526.318757 84.13433 
L 529.529344 88.860176 
L 532.739931 91.182441 
L 535.950518 90.787179 
L 539.161105 88.681341 
L 542.371692 86.059895 
L 545.582278 84.213166 
L 548.792865 83.61425 
L 552.003452 84.777995 
L 555.214039 86.51792 
L 561.635213 90.90933 
L 564.8458 92.340801 
L 568.056387 93.106614 
L 571.266974 92.147313 
L 577.688147 87.97911 
L 580.898734 86.091794 
L 584.109321 85.418193 
L 587.319908 86.253423 
L 590.530495 88.078797 
L 593.741082 91.135096 
L 596.951669 93.304411 
L 600.162255 94.538743 
L 603.372842 94.229836 
L 606.583429 91.608753 
L 609.794016 88.239273 
L 613.004603 85.357963 
L 616.21519 83.532386 
L 619.425777 83.196992 
L 622.636364 83.156543 
L 622.636364 83.156543 
" style="fill:none;stroke:#348abd;stroke-linecap:square;stroke-opacity:0.7;stroke-width:3;"/>
   </g>
   <g id="line2d_30">
    <path clip-path="url(#p00cf5fd5f9)" d="M 145.74838 -1 
L 147.469505 21.982344 
L 150.680092 79.111347 
L 153.890679 133.693641 
L 157.101266 144.980747 
L 160.311853 160.305922 
L 163.52244 171.81966 
L 164.912481 181 
M 182.875742 181 
L 183.442726 -1 
M 236.271368 -1 
L 237.365938 23.489347 
L 240.576525 76.664195 
L 243.787112 117.731598 
L 246.997699 156.745594 
L 250.154834 181 
M 278.178213 181 
L 279.103567 172.124442 
L 282.314154 147.687668 
L 285.524741 108.432516 
L 288.735328 86.295457 
L 291.945915 69.684501 
L 295.156502 60.833324 
L 298.367089 88.564871 
L 301.577675 103.20888 
L 304.788262 115.129422 
L 307.998849 123.300865 
L 311.209436 108.47524 
L 314.420023 91.784297 
L 317.63061 75.688299 
L 320.841197 56.04558 
L 324.051784 59.248647 
L 327.262371 76.009615 
L 330.472957 94.082918 
L 333.683544 113.792015 
L 336.894131 131.368176 
L 340.104718 142.764529 
L 343.315305 155.978694 
L 346.525892 171.517052 
L 349.228903 181 
M 369.370537 181 
L 372.210587 170.955491 
L 375.421174 163.55811 
L 378.631761 161.222404 
L 381.842348 167.173035 
L 385.052934 178.29807 
L 386.091951 181 
M 399.128573 181 
L 401.105869 172.488072 
L 404.316456 148.872709 
L 407.527043 126.161843 
L 410.737629 117.261483 
L 413.948216 119.32762 
L 417.158803 128.760972 
L 420.36939 134.645648 
L 423.579977 139.148873 
L 426.790564 141.643045 
L 430.001151 148.347112 
L 433.211738 156.12518 
L 436.422325 140.804479 
L 439.632911 90.268896 
L 442.486183 -1 
M 464.512154 -1 
L 465.317606 22.242309 
L 468.528193 90.923917 
L 471.73878 133.74937 
L 474.949367 155.967232 
L 478.159954 160.693062 
L 481.370541 149.369207 
L 484.581128 132.441032 
L 487.791715 107.112153 
L 491.002301 80.136765 
L 494.212888 60.126566 
L 497.423475 20.319345 
L 498.818896 -1 
M 517.196662 -1 
L 519.897583 42.155046 
L 523.10817 78.278912 
L 526.318757 101.367547 
L 529.529344 110.805545 
L 532.739931 101.680351 
L 535.950518 82.131283 
L 539.161105 64.820116 
L 542.371692 59.731141 
L 545.582278 63.525969 
L 548.792865 71.132112 
L 552.003452 79.262019 
L 555.214039 83.455711 
L 558.424626 93.357437 
L 561.635213 104.291667 
L 564.8458 106.321838 
L 568.056387 107.316893 
L 571.266974 98.395663 
L 574.47756 80.91491 
L 577.688147 73.302545 
L 580.898734 63.033807 
L 584.109321 63.981282 
L 587.319908 81.817328 
L 590.530495 94.309786 
L 593.741082 112.258982 
L 596.951669 123.000787 
L 600.162255 114.043181 
L 600.162255 114.043181 
" style="fill:none;stroke:#8eba42;stroke-linecap:square;stroke-width:4.5;"/>
   </g>
   <g id="line2d_31">
    <path clip-path="url(#p00cf5fd5f9)" d="M 115.363636 89.55 
L 622.636364 89.55 
" style="fill:none;stroke:#777777;stroke-linecap:square;stroke-width:1.5;"/>
   </g>
   <g id="patch_3">
    <path d="M 90 157.5 
L 90 21.6 
" style="fill:none;stroke:#ffffff;stroke-linecap:square;stroke-linejoin:miter;"/>
   </g>
   <g id="patch_4">
    <path d="M 648 157.5 
L 648 21.6 
" style="fill:none;stroke:#ffffff;stroke-linecap:square;stroke-linejoin:miter;"/>
   </g>
   <g id="patch_5">
    <path d="M 90 157.5 
L 648 157.5 
" style="fill:none;stroke:#ffffff;stroke-linecap:square;stroke-linejoin:miter;"/>
   </g>
   <g id="patch_6">
    <path d="M 90 21.6 
L 648 21.6 
" style="fill:none;stroke:#ffffff;stroke-linecap:square;stroke-linejoin:miter;"/>
   </g>
   <g id="legend_1">
    <g id="patch_7">
     <path d="M 97 71.501562 
L 394 71.501562 
Q 396 71.501562 396 69.501562 
L 396 28.6 
Q 396 26.6 394 26.6 
L 97 26.6 
Q 95 26.6 95 28.6 
L 95 69.501562 
Q 95 71.501562 97 71.501562 
z
" style="fill:#e5e5e5;opacity:0.8;stroke:#cccccc;stroke-linejoin:miter;stroke-width:0.5;"/>
    </g>
    <g id="line2d_32"/>
    <g id="line2d_33">
     <g>
      <use style="fill:#348abd;fill-opacity:0.3;stroke:#348abd;stroke-opacity:0.3;" x="109" xlink:href="#m16a8f8c8df" y="34.1"/>
     </g>
    </g>
    <g id="text_18">
     <!-- Korea, South cases daily growth factor  -->
     <defs>
      <path d="M 16.59375 31.203125 
L 11.703125 25.796875 
L 11.703125 0 
L 4.203125 0 
L 4.203125 62.296875 
L 12.59375 62.296875 
L 12.59375 61.59375 
Q 12 61 11.84375 60.296875 
Q 11.703125 59.59375 11.703125 57.90625 
L 11.703125 33.59375 
L 37.703125 62.796875 
Q 38.796875 62.59375 40.09375 62.4375 
Q 41.40625 62.296875 42.90625 62.296875 
L 45.5 62.296875 
L 21.90625 35.40625 
L 47.09375 0 
L 38.09375 -0.40625 
z
" id="Inconsolata-Regular-75"/>
      <path d="M 19.90625 -16.796875 
L 16.5 -13.796875 
Q 19.296875 -11.203125 21.140625 -8.203125 
Q 23 -5.203125 23 -3.296875 
Q 23 -1.90625 21.75 -0.84375 
Q 20.5 0.203125 19.203125 1.390625 
Q 17.90625 2.59375 17.90625 4.40625 
Q 17.90625 6.90625 19.546875 8.59375 
Q 21.203125 10.296875 23.796875 10.296875 
Q 26.40625 10.296875 28.5 8 
Q 30.59375 5.703125 30.59375 2 
Q 30.59375 -5.796875 19.90625 -16.796875 
z
" id="Inconsolata-Regular-44"/>
      <path d="M 24.703125 -1 
Q 12.59375 -1 5.203125 6.90625 
L 8.796875 13.203125 
L 9.203125 14.09375 
L 9.90625 13.703125 
Q 10.09375 13 10.390625 12.140625 
Q 10.703125 11.296875 11.796875 10.09375 
Q 14.40625 7.90625 17.84375 6.59375 
Q 21.296875 5.296875 25.703125 5.296875 
Q 31.296875 5.296875 34.9375 8.4375 
Q 38.59375 11.59375 38.59375 16 
Q 38.59375 18.90625 37.4375 20.90625 
Q 36.296875 22.90625 33.25 24.796875 
Q 30.203125 26.703125 24.296875 29.203125 
Q 14.59375 33 10.890625 37.703125 
Q 7.203125 42.40625 7.203125 47.703125 
Q 7.203125 54.59375 12.296875 58.84375 
Q 17.40625 63.09375 26.203125 63.09375 
Q 31.296875 63.09375 35.796875 61.046875 
Q 40.296875 59 43.5 55.296875 
L 39 49.296875 
L 38.40625 49.703125 
Q 38.296875 50.5 38 51.296875 
Q 37.703125 52.09375 36.59375 53.296875 
Q 34.203125 55.59375 31.5 56.4375 
Q 28.796875 57.296875 25.09375 57.296875 
Q 20.203125 57.296875 17.296875 54.59375 
Q 14.40625 51.90625 14.40625 48.203125 
Q 14.40625 45.40625 15.65625 43.25 
Q 16.90625 41.09375 20.203125 39 
Q 23.5 36.90625 29.796875 34.40625 
Q 35.90625 31.90625 39.296875 29.34375 
Q 42.703125 26.796875 44.09375 23.84375 
Q 45.5 20.90625 45.5 17 
Q 45.5 12.703125 43.34375 8.546875 
Q 41.203125 4.40625 36.59375 1.703125 
Q 32 -1 24.703125 -1 
z
" id="Inconsolata-Regular-83"/>
      <path d="M 22.09375 -1.09375 
Q 15.296875 -1.09375 10.796875 4 
Q 6.296875 9.09375 6.40625 20.203125 
L 6.5 45.703125 
L 13.5 45.703125 
L 13.5 20.203125 
Q 13.5 11.5 16.546875 8.09375 
Q 19.59375 4.703125 23.90625 4.703125 
Q 27.09375 4.703125 29.890625 6.390625 
Q 32.703125 8.09375 34.453125 11.59375 
Q 36.203125 15.09375 36.203125 20.5 
L 36.203125 45.703125 
L 43.203125 45.703125 
L 43.203125 7.09375 
Q 43.203125 5.296875 43.34375 3.546875 
Q 43.5 1.796875 44.203125 0 
L 37.296875 0 
Q 36.59375 1.703125 36.4375 3.5 
Q 36.296875 5.296875 36.296875 7 
Q 34.09375 3.203125 30.34375 1.046875 
Q 26.59375 -1.09375 22.09375 -1.09375 
z
" id="Inconsolata-Regular-117"/>
      <path d="M 10 0 
L 10 5.796875 
L 21.703125 5.796875 
L 21.703125 39.90625 
L 10.59375 39.90625 
L 10.59375 45.703125 
L 28.90625 45.703125 
L 28.90625 5.796875 
L 39.59375 5.796875 
L 39.59375 0 
z
M 24.90625 55.296875 
Q 22.796875 55.296875 21.296875 56.796875 
Q 19.796875 58.296875 19.796875 60.40625 
Q 19.796875 62.59375 21.25 64.09375 
Q 22.703125 65.59375 24.90625 65.59375 
Q 27 65.59375 28.546875 64.046875 
Q 30.09375 62.5 30.09375 60.40625 
Q 30.09375 58.296875 28.546875 56.796875 
Q 27 55.296875 24.90625 55.296875 
z
" id="Inconsolata-Regular-105"/>
      <path d="M 7.90625 0 
L 7.90625 5.796875 
L 21.40625 5.796875 
L 21.40625 60.703125 
L 8.5 60.703125 
L 8.5 66.5 
L 28.703125 66.5 
L 28.703125 5.796875 
L 42.09375 5.796875 
L 42.09375 0 
z
" id="Inconsolata-Regular-108"/>
      <path d="M 12.703125 -17.40625 
Q 6.296875 -17.40625 2.203125 -13.5 
L 5.296875 -8.59375 
L 5.90625 -7.703125 
L 6.5 -8.09375 
Q 6.703125 -8.90625 7.203125 -9.453125 
Q 7.703125 -10 9.09375 -10.90625 
Q 10.90625 -11.5 13.09375 -11.5 
Q 17 -11.5 19.203125 -8.75 
Q 21.40625 -6 23.296875 -0.296875 
L 4.59375 45.703125 
L 12.09375 45.703125 
L 26.296875 9.09375 
L 32.296875 27.5 
Q 33.796875 32.09375 35.1875 36.59375 
Q 36.59375 41.09375 37.09375 45.703125 
L 44.296875 45.703125 
Q 43.59375 41.09375 42.09375 36.390625 
Q 40.59375 31.703125 38.90625 27 
L 27.5 -5.203125 
Q 25.09375 -11.90625 21.34375 -14.65625 
Q 17.59375 -17.40625 12.703125 -17.40625 
z
" id="Inconsolata-Regular-121"/>
     </defs>
     <g transform="translate(127 37.6)scale(0.1 -0.1)">
      <use xlink:href="#Inconsolata-Regular-75"/>
      <use x="49.999985" xlink:href="#Inconsolata-Regular-111"/>
      <use x="99.999969" xlink:href="#Inconsolata-Regular-114"/>
      <use x="149.999954" xlink:href="#Inconsolata-Regular-101"/>
      <use x="199.999939" xlink:href="#Inconsolata-Regular-97"/>
      <use x="249.999924" xlink:href="#Inconsolata-Regular-44"/>
      <use x="299.999908" xlink:href="#Inconsolata-Regular-32"/>
      <use x="349.999893" xlink:href="#Inconsolata-Regular-83"/>
      <use x="399.999878" xlink:href="#Inconsolata-Regular-111"/>
      <use x="449.999863" xlink:href="#Inconsolata-Regular-117"/>
      <use x="499.999847" xlink:href="#Inconsolata-Regular-116"/>
      <use x="549.999832" xlink:href="#Inconsolata-Regular-104"/>
      <use x="599.999817" xlink:href="#Inconsolata-Regular-32"/>
      <use x="649.999802" xlink:href="#Inconsolata-Regular-99"/>
      <use x="699.999786" xlink:href="#Inconsolata-Regular-97"/>
      <use x="749.999771" xlink:href="#Inconsolata-Regular-115"/>
      <use x="799.999756" xlink:href="#Inconsolata-Regular-101"/>
      <use x="849.999741" xlink:href="#Inconsolata-Regular-115"/>
      <use x="899.999725" xlink:href="#Inconsolata-Regular-32"/>
      <use x="949.99971" xlink:href="#Inconsolata-Regular-100"/>
      <use x="999.999695" xlink:href="#Inconsolata-Regular-97"/>
      <use x="1049.99968" xlink:href="#Inconsolata-Regular-105"/>
      <use x="1099.999664" xlink:href="#Inconsolata-Regular-108"/>
      <use x="1149.999649" xlink:href="#Inconsolata-Regular-121"/>
      <use x="1199.999634" xlink:href="#Inconsolata-Regular-32"/>
      <use x="1249.999619" xlink:href="#Inconsolata-Regular-103"/>
      <use x="1299.999603" xlink:href="#Inconsolata-Regular-114"/>
      <use x="1349.999588" xlink:href="#Inconsolata-Regular-111"/>
      <use x="1399.999573" xlink:href="#Inconsolata-Regular-119"/>
      <use x="1449.999557" xlink:href="#Inconsolata-Regular-116"/>
      <use x="1499.999542" xlink:href="#Inconsolata-Regular-104"/>
      <use x="1549.999527" xlink:href="#Inconsolata-Regular-32"/>
      <use x="1599.999512" xlink:href="#Inconsolata-Regular-102"/>
      <use x="1649.999496" xlink:href="#Inconsolata-Regular-97"/>
      <use x="1699.999481" xlink:href="#Inconsolata-Regular-99"/>
      <use x="1749.999466" xlink:href="#Inconsolata-Regular-116"/>
      <use x="1799.999451" xlink:href="#Inconsolata-Regular-111"/>
      <use x="1849.999435" xlink:href="#Inconsolata-Regular-114"/>
      <use x="1899.99942" xlink:href="#Inconsolata-Regular-32"/>
     </g>
    </g>
    <g id="line2d_34">
     <path d="M 99 48.190625 
L 119 48.190625 
" style="fill:none;stroke:#348abd;stroke-linecap:square;stroke-opacity:0.7;stroke-width:3;"/>
    </g>
    <g id="line2d_35"/>
    <g id="text_19">
     <!-- Korea, South cases daily growth factor (rolling mean) -->
     <defs>
      <path d="M 3.796875 0 
L 3.796875 45.703125 
L 10.40625 45.703125 
L 10.40625 41.203125 
Q 12 43.703125 14.5 45.25 
Q 17 46.796875 19.703125 46.796875 
Q 22.703125 46.796875 24.953125 44.890625 
Q 27.203125 43 27.796875 40.09375 
Q 29.09375 43.09375 31.890625 44.9375 
Q 34.703125 46.796875 38.09375 46.796875 
Q 42.796875 46.796875 44.9375 43.4375 
Q 47.09375 40.09375 46.90625 35.09375 
L 46.90625 0 
L 40.296875 0 
L 40.296875 32.40625 
Q 40.296875 36.59375 39.75 38.5 
Q 39.203125 40.40625 38.203125 40.953125 
Q 37.203125 41.5 36 41.5 
Q 34.09375 41.5 32.4375 39.75 
Q 30.796875 38 29.75 35.390625 
Q 28.703125 32.796875 28.703125 30.203125 
L 28.703125 0 
L 22 0 
L 22 31.796875 
Q 22 37.5 20.953125 39.390625 
Q 19.90625 41.296875 17 41.296875 
Q 14.796875 41.296875 12.59375 38.4375 
Q 10.40625 35.59375 10.40625 30.5 
L 10.40625 0 
z
" id="Inconsolata-Regular-109"/>
     </defs>
     <g transform="translate(127 51.690625)scale(0.1 -0.1)">
      <use xlink:href="#Inconsolata-Regular-75"/>
      <use x="49.999985" xlink:href="#Inconsolata-Regular-111"/>
      <use x="99.999969" xlink:href="#Inconsolata-Regular-114"/>
      <use x="149.999954" xlink:href="#Inconsolata-Regular-101"/>
      <use x="199.999939" xlink:href="#Inconsolata-Regular-97"/>
      <use x="249.999924" xlink:href="#Inconsolata-Regular-44"/>
      <use x="299.999908" xlink:href="#Inconsolata-Regular-32"/>
      <use x="349.999893" xlink:href="#Inconsolata-Regular-83"/>
      <use x="399.999878" xlink:href="#Inconsolata-Regular-111"/>
      <use x="449.999863" xlink:href="#Inconsolata-Regular-117"/>
      <use x="499.999847" xlink:href="#Inconsolata-Regular-116"/>
      <use x="549.999832" xlink:href="#Inconsolata-Regular-104"/>
      <use x="599.999817" xlink:href="#Inconsolata-Regular-32"/>
      <use x="649.999802" xlink:href="#Inconsolata-Regular-99"/>
      <use x="699.999786" xlink:href="#Inconsolata-Regular-97"/>
      <use x="749.999771" xlink:href="#Inconsolata-Regular-115"/>
      <use x="799.999756" xlink:href="#Inconsolata-Regular-101"/>
      <use x="849.999741" xlink:href="#Inconsolata-Regular-115"/>
      <use x="899.999725" xlink:href="#Inconsolata-Regular-32"/>
      <use x="949.99971" xlink:href="#Inconsolata-Regular-100"/>
      <use x="999.999695" xlink:href="#Inconsolata-Regular-97"/>
      <use x="1049.99968" xlink:href="#Inconsolata-Regular-105"/>
      <use x="1099.999664" xlink:href="#Inconsolata-Regular-108"/>
      <use x="1149.999649" xlink:href="#Inconsolata-Regular-121"/>
      <use x="1199.999634" xlink:href="#Inconsolata-Regular-32"/>
      <use x="1249.999619" xlink:href="#Inconsolata-Regular-103"/>
      <use x="1299.999603" xlink:href="#Inconsolata-Regular-114"/>
      <use x="1349.999588" xlink:href="#Inconsolata-Regular-111"/>
      <use x="1399.999573" xlink:href="#Inconsolata-Regular-119"/>
      <use x="1449.999557" xlink:href="#Inconsolata-Regular-116"/>
      <use x="1499.999542" xlink:href="#Inconsolata-Regular-104"/>
      <use x="1549.999527" xlink:href="#Inconsolata-Regular-32"/>
      <use x="1599.999512" xlink:href="#Inconsolata-Regular-102"/>
      <use x="1649.999496" xlink:href="#Inconsolata-Regular-97"/>
      <use x="1699.999481" xlink:href="#Inconsolata-Regular-99"/>
      <use x="1749.999466" xlink:href="#Inconsolata-Regular-116"/>
      <use x="1799.999451" xlink:href="#Inconsolata-Regular-111"/>
      <use x="1849.999435" xlink:href="#Inconsolata-Regular-114"/>
      <use x="1899.99942" xlink:href="#Inconsolata-Regular-32"/>
      <use x="1949.999405" xlink:href="#Inconsolata-Regular-40"/>
      <use x="1999.99939" xlink:href="#Inconsolata-Regular-114"/>
      <use x="2049.999374" xlink:href="#Inconsolata-Regular-111"/>
      <use x="2099.999359" xlink:href="#Inconsolata-Regular-108"/>
      <use x="2149.999344" xlink:href="#Inconsolata-Regular-108"/>
      <use x="2199.999329" xlink:href="#Inconsolata-Regular-105"/>
      <use x="2249.999313" xlink:href="#Inconsolata-Regular-110"/>
      <use x="2299.999298" xlink:href="#Inconsolata-Regular-103"/>
      <use x="2349.999283" xlink:href="#Inconsolata-Regular-32"/>
      <use x="2399.999268" xlink:href="#Inconsolata-Regular-109"/>
      <use x="2449.999252" xlink:href="#Inconsolata-Regular-101"/>
      <use x="2499.999237" xlink:href="#Inconsolata-Regular-97"/>
      <use x="2549.999222" xlink:href="#Inconsolata-Regular-110"/>
      <use x="2599.999207" xlink:href="#Inconsolata-Regular-41"/>
     </g>
    </g>
    <g id="line2d_36">
     <path d="M 99 62.28125 
L 119 62.28125 
" style="fill:none;stroke:#8eba42;stroke-linecap:square;stroke-width:4.5;"/>
    </g>
    <g id="line2d_37"/>
    <g id="text_20">
     <!-- Korea, South estimated R (using cases) -->
     <g transform="translate(127 65.78125)scale(0.1 -0.1)">
      <use xlink:href="#Inconsolata-Regular-75"/>
      <use x="49.999985" xlink:href="#Inconsolata-Regular-111"/>
      <use x="99.999969" xlink:href="#Inconsolata-Regular-114"/>
      <use x="149.999954" xlink:href="#Inconsolata-Regular-101"/>
      <use x="199.999939" xlink:href="#Inconsolata-Regular-97"/>
      <use x="249.999924" xlink:href="#Inconsolata-Regular-44"/>
      <use x="299.999908" xlink:href="#Inconsolata-Regular-32"/>
      <use x="349.999893" xlink:href="#Inconsolata-Regular-83"/>
      <use x="399.999878" xlink:href="#Inconsolata-Regular-111"/>
      <use x="449.999863" xlink:href="#Inconsolata-Regular-117"/>
      <use x="499.999847" xlink:href="#Inconsolata-Regular-116"/>
      <use x="549.999832" xlink:href="#Inconsolata-Regular-104"/>
      <use x="599.999817" xlink:href="#Inconsolata-Regular-32"/>
      <use x="649.999802" xlink:href="#Inconsolata-Regular-101"/>
      <use x="699.999786" xlink:href="#Inconsolata-Regular-115"/>
      <use x="749.999771" xlink:href="#Inconsolata-Regular-116"/>
      <use x="799.999756" xlink:href="#Inconsolata-Regular-105"/>
      <use x="849.999741" xlink:href="#Inconsolata-Regular-109"/>
      <use x="899.999725" xlink:href="#Inconsolata-Regular-97"/>
      <use x="949.99971" xlink:href="#Inconsolata-Regular-116"/>
      <use x="999.999695" xlink:href="#Inconsolata-Regular-101"/>
      <use x="1049.99968" xlink:href="#Inconsolata-Regular-100"/>
      <use x="1099.999664" xlink:href="#Inconsolata-Regular-32"/>
      <use x="1149.999649" xlink:href="#Inconsolata-Regular-82"/>
      <use x="1199.999634" xlink:href="#Inconsolata-Regular-32"/>
      <use x="1249.999619" xlink:href="#Inconsolata-Regular-40"/>
      <use x="1299.999603" xlink:href="#Inconsolata-Regular-117"/>
      <use x="1349.999588" xlink:href="#Inconsolata-Regular-115"/>
      <use x="1399.999573" xlink:href="#Inconsolata-Regular-105"/>
      <use x="1449.999557" xlink:href="#Inconsolata-Regular-110"/>
      <use x="1499.999542" xlink:href="#Inconsolata-Regular-103"/>
      <use x="1549.999527" xlink:href="#Inconsolata-Regular-32"/>
      <use x="1599.999512" xlink:href="#Inconsolata-Regular-99"/>
      <use x="1649.999496" xlink:href="#Inconsolata-Regular-97"/>
      <use x="1699.999481" xlink:href="#Inconsolata-Regular-115"/>
      <use x="1749.999466" xlink:href="#Inconsolata-Regular-101"/>
      <use x="1799.999451" xlink:href="#Inconsolata-Regular-115"/>
      <use x="1849.999435" xlink:href="#Inconsolata-Regular-41"/>
     </g>
    </g>
   </g>
  </g>
 </g>
 <defs>
  <clipPath id="p00cf5fd5f9">
   <rect height="135.9" width="558" x="90" y="21.6"/>
  </clipPath>
 </defs>
</svg>
