<?xml version="1.0" encoding="utf-8" standalone="no"?>
<!DOCTYPE svg PUBLIC "-//W3C//DTD SVG 1.1//EN"
  "http://www.w3.org/Graphics/SVG/1.1/DTD/svg11.dtd">
<!-- Created with matplotlib (https://matplotlib.org/) -->
<svg height="180pt" version="1.1" viewBox="0 0 720 180" width="720pt" xmlns="http://www.w3.org/2000/svg" xmlns:xlink="http://www.w3.org/1999/xlink">
 <defs>
  <style type="text/css">
*{stroke-linecap:butt;stroke-linejoin:round;}
  </style>
 </defs>
 <g id="figure_1">
  <g id="patch_1">
   <path d="M 0 180 
L 720 180 
L 720 0 
L 0 0 
z
" style="fill:#ffffff;"/>
  </g>
  <g id="axes_1">
   <g id="patch_2">
    <path d="M 90 157.5 
L 648 157.5 
L 648 21.6 
L 90 21.6 
z
" style="fill:#e5e5e5;"/>
   </g>
   <g id="matplotlib.axis_1">
    <g id="xtick_1">
     <g id="line2d_1">
      <path clip-path="url(#pbfeea617bc)" d="M 146.107438 157.5 
L 146.107438 21.6 
" style="fill:none;stroke:#ffffff;stroke-linecap:square;stroke-width:0.8;"/>
     </g>
     <g id="line2d_2">
      <defs>
       <path d="M 0 0 
L 0 3.5 
" id="m8488fb8893" style="stroke:#555555;stroke-width:0.8;"/>
      </defs>
      <g>
       <use style="fill:#555555;stroke:#555555;stroke-width:0.8;" x="146.107438" xlink:href="#m8488fb8893" y="157.5"/>
      </g>
     </g>
     <g id="text_1">
      <!-- 2020-02 -->
      <defs>
       <path d="M 7.296875 5.59375 
Q 14 12.5 19.390625 17.84375 
Q 24.796875 23.203125 28.59375 27.640625 
Q 32.40625 32.09375 34.40625 36.296875 
Q 36.40625 40.5 36.40625 45.09375 
Q 36.40625 51.59375 33.296875 54.09375 
Q 30.203125 56.59375 25.796875 56.59375 
Q 22.203125 56.59375 19.046875 55.046875 
Q 15.90625 53.5 13.296875 50.296875 
Q 12.40625 48.90625 12.203125 48.15625 
Q 12 47.40625 12.09375 46.59375 
L 11.703125 46.09375 
L 10.90625 46.59375 
L 5.796875 50.59375 
Q 8.796875 56.40625 14.046875 59.546875 
Q 19.296875 62.703125 25.703125 62.703125 
Q 33.59375 62.703125 38.59375 57.953125 
Q 43.59375 53.203125 43.59375 44.90625 
Q 43.59375 39.703125 41.296875 35 
Q 39 30.296875 35.140625 25.6875 
Q 31.296875 21.09375 26.390625 16.296875 
Q 21.5 11.5 16.296875 6.09375 
L 39.5 6.09375 
Q 41.203125 6.09375 41.890625 6.296875 
Q 42.59375 6.5 43.203125 7.09375 
L 43.90625 7.09375 
L 43.90625 0 
L 7.296875 0 
z
" id="Inconsolata-Regular-50"/>
       <path d="M 25 -1.09375 
Q 15.703125 -1.09375 10.703125 7.203125 
Q 5.703125 15.5 5.703125 30.796875 
Q 5.703125 45.59375 10.703125 54.140625 
Q 15.703125 62.703125 25 62.703125 
Q 34.296875 62.703125 39.296875 54.140625 
Q 44.296875 45.59375 44.296875 30.796875 
Q 44.296875 15.5 39.296875 7.203125 
Q 34.296875 -1.09375 25 -1.09375 
z
M 12.90625 30.796875 
Q 12.90625 24.40625 13.796875 19.40625 
L 35 46.703125 
Q 33.5 51.40625 30.953125 54 
Q 28.40625 56.59375 25 56.59375 
Q 19.296875 56.59375 16.09375 49.59375 
Q 12.90625 42.59375 12.90625 30.796875 
z
M 25 5 
Q 30.703125 5 33.890625 11.703125 
Q 37.09375 18.40625 37.09375 30.796875 
Q 37.09375 36.296875 36.40625 40.796875 
L 15.203125 13.90625 
Q 18.296875 5 25 5 
z
" id="Inconsolata-Regular-48"/>
       <path d="M 11.09375 28.09375 
L 11.09375 34.796875 
L 39.09375 34.796875 
L 39.09375 28.09375 
z
" id="Inconsolata-Regular-45"/>
      </defs>
      <g style="fill:#555555;" transform="translate(128.607438 171.15)scale(0.1 -0.1)">
       <use xlink:href="#Inconsolata-Regular-50"/>
       <use x="49.999985" xlink:href="#Inconsolata-Regular-48"/>
       <use x="99.999969" xlink:href="#Inconsolata-Regular-50"/>
       <use x="149.999954" xlink:href="#Inconsolata-Regular-48"/>
       <use x="199.999939" xlink:href="#Inconsolata-Regular-45"/>
       <use x="249.999924" xlink:href="#Inconsolata-Regular-48"/>
       <use x="299.999908" xlink:href="#Inconsolata-Regular-50"/>
      </g>
     </g>
    </g>
    <g id="xtick_2">
     <g id="line2d_3">
      <path clip-path="url(#pbfeea617bc)" d="M 235.264463 157.5 
L 235.264463 21.6 
" style="fill:none;stroke:#ffffff;stroke-linecap:square;stroke-width:0.8;"/>
     </g>
     <g id="line2d_4">
      <g>
       <use style="fill:#555555;stroke:#555555;stroke-width:0.8;" x="235.264463" xlink:href="#m8488fb8893" y="157.5"/>
      </g>
     </g>
     <g id="text_2">
      <!-- 2020-03 -->
      <defs>
       <path d="M 24 -1.09375 
Q 19.09375 -1.09375 14.59375 0.703125 
Q 10.09375 2.5 6.90625 6 
L 11.5 11.5 
L 12.203125 12.296875 
L 12.703125 11.796875 
Q 12.796875 11 13.09375 10.25 
Q 13.40625 9.5 14.5 8.296875 
Q 16.203125 6.796875 18.390625 5.84375 
Q 20.59375 4.90625 23.703125 4.90625 
Q 29.703125 4.90625 32.59375 8.40625 
Q 35.5 11.90625 35.5 17.40625 
Q 35.5 24.5 30.75 27.453125 
Q 26 30.40625 18 29.59375 
L 18 35.203125 
Q 24.5 35.203125 27.796875 36.890625 
Q 31.09375 38.59375 32.25 41.4375 
Q 33.40625 44.296875 33.40625 47.5 
Q 33.40625 51.796875 30.953125 54.25 
Q 28.5 56.703125 24.5 56.703125 
Q 21.5 56.703125 18.640625 55.703125 
Q 15.796875 54.703125 13.09375 52.09375 
L 8.90625 56.296875 
Q 12.296875 59.796875 16.34375 61.25 
Q 20.40625 62.703125 24.40625 62.703125 
Q 32 62.703125 36.296875 58.390625 
Q 40.59375 54.09375 40.59375 47.203125 
Q 40.59375 42.296875 38.1875 38.4375 
Q 35.796875 34.59375 30.796875 33 
Q 36.09375 31.296875 39.390625 27.390625 
Q 42.703125 23.5 42.703125 17.09375 
Q 42.703125 12.203125 40.546875 8.046875 
Q 38.40625 3.90625 34.25 1.40625 
Q 30.09375 -1.09375 24 -1.09375 
z
" id="Inconsolata-Regular-51"/>
      </defs>
      <g style="fill:#555555;" transform="translate(217.764463 171.15)scale(0.1 -0.1)">
       <use xlink:href="#Inconsolata-Regular-50"/>
       <use x="49.999985" xlink:href="#Inconsolata-Regular-48"/>
       <use x="99.999969" xlink:href="#Inconsolata-Regular-50"/>
       <use x="149.999954" xlink:href="#Inconsolata-Regular-48"/>
       <use x="199.999939" xlink:href="#Inconsolata-Regular-45"/>
       <use x="249.999924" xlink:href="#Inconsolata-Regular-48"/>
       <use x="299.999908" xlink:href="#Inconsolata-Regular-51"/>
      </g>
     </g>
    </g>
    <g id="xtick_3">
     <g id="line2d_5">
      <path clip-path="url(#pbfeea617bc)" d="M 330.570248 157.5 
L 330.570248 21.6 
" style="fill:none;stroke:#ffffff;stroke-linecap:square;stroke-width:0.8;"/>
     </g>
     <g id="line2d_6">
      <g>
       <use style="fill:#555555;stroke:#555555;stroke-width:0.8;" x="330.570248" xlink:href="#m8488fb8893" y="157.5"/>
      </g>
     </g>
     <g id="text_3">
      <!-- 2020-04 -->
      <defs>
       <path d="M 31.796875 0 
L 31.796875 15.296875 
L 4.796875 15.296875 
L 4.796875 20.40625 
L 33.296875 62.40625 
L 39.203125 62.40625 
L 39.203125 21.09375 
L 47.203125 21.09375 
L 47.203125 15.203125 
L 39.203125 15.203125 
L 39.203125 0 
z
M 12.90625 21.203125 
L 31.796875 21.203125 
L 31.796875 49.796875 
z
" id="Inconsolata-Regular-52"/>
      </defs>
      <g style="fill:#555555;" transform="translate(313.070248 171.15)scale(0.1 -0.1)">
       <use xlink:href="#Inconsolata-Regular-50"/>
       <use x="49.999985" xlink:href="#Inconsolata-Regular-48"/>
       <use x="99.999969" xlink:href="#Inconsolata-Regular-50"/>
       <use x="149.999954" xlink:href="#Inconsolata-Regular-48"/>
       <use x="199.999939" xlink:href="#Inconsolata-Regular-45"/>
       <use x="249.999924" xlink:href="#Inconsolata-Regular-48"/>
       <use x="299.999908" xlink:href="#Inconsolata-Regular-52"/>
      </g>
     </g>
    </g>
    <g id="xtick_4">
     <g id="line2d_7">
      <path clip-path="url(#pbfeea617bc)" d="M 422.801653 157.5 
L 422.801653 21.6 
" style="fill:none;stroke:#ffffff;stroke-linecap:square;stroke-width:0.8;"/>
     </g>
     <g id="line2d_8">
      <g>
       <use style="fill:#555555;stroke:#555555;stroke-width:0.8;" x="422.801653" xlink:href="#m8488fb8893" y="157.5"/>
      </g>
     </g>
     <g id="text_4">
      <!-- 2020-05 -->
      <defs>
       <path d="M 24.90625 -1.09375 
Q 19.203125 -1.09375 14.34375 1.40625 
Q 9.5 3.90625 6.40625 8.5 
L 12.796875 13.296875 
L 13.203125 12.796875 
Q 13.09375 12 13.4375 11.296875 
Q 13.796875 10.59375 14.796875 9.296875 
Q 16.796875 7.09375 19.25 6.046875 
Q 21.703125 5 25.296875 5 
Q 28.5 5 31.25 6.796875 
Q 34 8.59375 35.703125 11.9375 
Q 37.40625 15.296875 37.40625 19.90625 
Q 37.40625 26.90625 33.65625 30.796875 
Q 29.90625 34.703125 24.59375 34.703125 
Q 21.40625 34.703125 18.296875 33.140625 
Q 15.203125 31.59375 12.90625 28.796875 
L 8.5 30.59375 
L 10.59375 62.296875 
L 42.203125 62.296875 
L 42.203125 56 
L 16.5 56 
L 15.5 38.09375 
Q 20.5 40.5 25.703125 40.5 
Q 31.09375 40.5 35.34375 37.953125 
Q 39.59375 35.40625 42.046875 30.703125 
Q 44.5 26 44.5 19.59375 
Q 44.5 13.203125 41.890625 8.546875 
Q 39.296875 3.90625 34.890625 1.40625 
Q 30.5 -1.09375 24.90625 -1.09375 
z
" id="Inconsolata-Regular-53"/>
      </defs>
      <g style="fill:#555555;" transform="translate(405.301653 171.15)scale(0.1 -0.1)">
       <use xlink:href="#Inconsolata-Regular-50"/>
       <use x="49.999985" xlink:href="#Inconsolata-Regular-48"/>
       <use x="99.999969" xlink:href="#Inconsolata-Regular-50"/>
       <use x="149.999954" xlink:href="#Inconsolata-Regular-48"/>
       <use x="199.999939" xlink:href="#Inconsolata-Regular-45"/>
       <use x="249.999924" xlink:href="#Inconsolata-Regular-48"/>
       <use x="299.999908" xlink:href="#Inconsolata-Regular-53"/>
      </g>
     </g>
    </g>
    <g id="xtick_5">
     <g id="line2d_9">
      <path clip-path="url(#pbfeea617bc)" d="M 518.107438 157.5 
L 518.107438 21.6 
" style="fill:none;stroke:#ffffff;stroke-linecap:square;stroke-width:0.8;"/>
     </g>
     <g id="line2d_10">
      <g>
       <use style="fill:#555555;stroke:#555555;stroke-width:0.8;" x="518.107438" xlink:href="#m8488fb8893" y="157.5"/>
      </g>
     </g>
     <g id="text_5">
      <!-- 2020-06 -->
      <defs>
       <path d="M 26.09375 -1 
Q 16.796875 -1 11.75 6.890625 
Q 6.703125 14.796875 6.703125 28.40625 
Q 6.703125 45.203125 12.703125 54.09375 
Q 18.703125 63 28.703125 63 
Q 36.59375 63 42.40625 57.296875 
L 38 52.296875 
L 37.296875 51.5 
L 36.796875 52 
Q 36.703125 52.796875 36.34375 53.5 
Q 36 54.203125 34.703125 55.296875 
Q 32.5 56.796875 28.90625 56.796875 
Q 26.90625 56.796875 24.296875 55.84375 
Q 21.703125 54.90625 19.296875 52.296875 
Q 16.90625 49.703125 15.296875 44.953125 
Q 13.703125 40.203125 13.59375 32.703125 
Q 15.703125 36.203125 19.25 38.203125 
Q 22.796875 40.203125 26.796875 40.203125 
Q 31.5 40.203125 35.34375 37.640625 
Q 39.203125 35.09375 41.546875 30.546875 
Q 43.90625 26 43.90625 19.796875 
Q 43.90625 13.59375 41.5 8.890625 
Q 39.09375 4.203125 35.09375 1.59375 
Q 31.09375 -1 26.09375 -1 
z
M 26.40625 5.203125 
Q 30.703125 5.203125 33.890625 8.890625 
Q 37.09375 12.59375 37.09375 19.703125 
Q 37.09375 24.703125 35.4375 27.890625 
Q 33.796875 31.09375 31.296875 32.59375 
Q 28.796875 34.09375 26.203125 34.09375 
Q 22.59375 34.09375 19.296875 31.640625 
Q 16 29.203125 14 25.703125 
Q 13.59375 22.296875 14.25 18.6875 
Q 14.90625 15.09375 16.546875 12.046875 
Q 18.203125 9 20.703125 7.09375 
Q 23.203125 5.203125 26.40625 5.203125 
z
" id="Inconsolata-Regular-54"/>
      </defs>
      <g style="fill:#555555;" transform="translate(500.607438 171.15)scale(0.1 -0.1)">
       <use xlink:href="#Inconsolata-Regular-50"/>
       <use x="49.999985" xlink:href="#Inconsolata-Regular-48"/>
       <use x="99.999969" xlink:href="#Inconsolata-Regular-50"/>
       <use x="149.999954" xlink:href="#Inconsolata-Regular-48"/>
       <use x="199.999939" xlink:href="#Inconsolata-Regular-45"/>
       <use x="249.999924" xlink:href="#Inconsolata-Regular-48"/>
       <use x="299.999908" xlink:href="#Inconsolata-Regular-54"/>
      </g>
     </g>
    </g>
    <g id="xtick_6">
     <g id="line2d_11">
      <path clip-path="url(#pbfeea617bc)" d="M 610.338843 157.5 
L 610.338843 21.6 
" style="fill:none;stroke:#ffffff;stroke-linecap:square;stroke-width:0.8;"/>
     </g>
     <g id="line2d_12">
      <g>
       <use style="fill:#555555;stroke:#555555;stroke-width:0.8;" x="610.338843" xlink:href="#m8488fb8893" y="157.5"/>
      </g>
     </g>
     <g id="text_6">
      <!-- 2020-07 -->
      <defs>
       <path d="M 15.5 0 
Q 19.90625 14.296875 24.59375 28.09375 
Q 29.296875 41.90625 34.5 55.703125 
L 7.90625 55.703125 
L 7.90625 62.296875 
L 43.203125 62.296875 
L 43.203125 58.40625 
Q 37.5 44 32.5 29.5 
Q 27.5 15 23.40625 0 
z
" id="Inconsolata-Regular-55"/>
      </defs>
      <g style="fill:#555555;" transform="translate(592.838843 171.15)scale(0.1 -0.1)">
       <use xlink:href="#Inconsolata-Regular-50"/>
       <use x="49.999985" xlink:href="#Inconsolata-Regular-48"/>
       <use x="99.999969" xlink:href="#Inconsolata-Regular-50"/>
       <use x="149.999954" xlink:href="#Inconsolata-Regular-48"/>
       <use x="199.999939" xlink:href="#Inconsolata-Regular-45"/>
       <use x="249.999924" xlink:href="#Inconsolata-Regular-48"/>
       <use x="299.999908" xlink:href="#Inconsolata-Regular-55"/>
      </g>
     </g>
    </g>
   </g>
   <g id="matplotlib.axis_2">
    <g id="ytick_1">
     <g id="line2d_13">
      <path clip-path="url(#pbfeea617bc)" d="M 90 144.298183 
L 648 144.298183 
" style="fill:none;stroke:#ffffff;stroke-linecap:square;stroke-width:0.8;"/>
     </g>
     <g id="line2d_14">
      <defs>
       <path d="M 0 0 
L -3.5 0 
" id="mc7e801139f" style="stroke:#555555;stroke-width:0.8;"/>
      </defs>
      <g>
       <use style="fill:#555555;stroke:#555555;stroke-width:0.8;" x="90" xlink:href="#mc7e801139f" y="144.298183"/>
      </g>
     </g>
     <g id="line2d_15">
      <defs>
       <path d="M 0 0 
L 3.5 0 
" id="m253e8d5268" style="stroke:#555555;stroke-width:0.8;"/>
      </defs>
      <g>
       <use style="fill:#555555;stroke:#555555;stroke-width:0.8;" x="648" xlink:href="#m253e8d5268" y="144.298183"/>
      </g>
     </g>
     <g id="text_7">
      <!-- 0.8 -->
      <defs>
       <path d="M 23.796875 -1.09375 
Q 21.40625 -1.09375 19.703125 0.59375 
Q 18 2.296875 18 4.59375 
Q 18 6.90625 19.703125 8.59375 
Q 21.40625 10.296875 23.796875 10.296875 
Q 26.09375 10.296875 27.796875 8.59375 
Q 29.5 6.90625 29.5 4.59375 
Q 29.5 2.296875 27.796875 0.59375 
Q 26.09375 -1.09375 23.796875 -1.09375 
z
" id="Inconsolata-Regular-46"/>
       <path d="M 25 -1 
Q 19.09375 -1 14.84375 1.25 
Q 10.59375 3.5 8.296875 7.296875 
Q 6 11.09375 6 15.703125 
Q 6 21.09375 9.390625 25.796875 
Q 12.796875 30.5 18.5 33.09375 
Q 14.203125 35.296875 11.59375 39.25 
Q 9 43.203125 9 47.703125 
Q 9 54.09375 13.140625 58.59375 
Q 17.296875 63.09375 25.5 63.09375 
Q 31.296875 63.09375 34.890625 61.09375 
Q 38.5 59.09375 40.25 55.75 
Q 42 52.40625 42 48.296875 
Q 42 43.796875 39.296875 39.75 
Q 36.59375 35.703125 32.09375 33.296875 
Q 37.5 30.796875 40.796875 26.140625 
Q 44.09375 21.5 44.09375 16.09375 
Q 44.09375 11.203125 41.75 7.34375 
Q 39.40625 3.5 35.15625 1.25 
Q 30.90625 -1 25 -1 
z
M 26.703125 35.796875 
Q 30.40625 37.796875 32.796875 41.1875 
Q 35.203125 44.59375 35.203125 48.09375 
Q 35.203125 51.59375 32.75 54.390625 
Q 30.296875 57.203125 25.296875 57.203125 
Q 20.40625 57.203125 18.046875 54.5 
Q 15.703125 51.796875 15.703125 48.40625 
Q 15.703125 43.796875 18.890625 41.046875 
Q 22.09375 38.296875 26.703125 35.796875 
z
M 25.203125 5.296875 
Q 31 5.296875 34 8.4375 
Q 37 11.59375 37 16.09375 
Q 37 20.703125 33.390625 24.546875 
Q 29.796875 28.40625 23.703125 30.296875 
Q 19.203125 28.40625 16.203125 24.65625 
Q 13.203125 20.90625 13.203125 16.40625 
Q 13.203125 11.90625 16.34375 8.59375 
Q 19.5 5.296875 25.203125 5.296875 
z
" id="Inconsolata-Regular-56"/>
      </defs>
      <g style="fill:#555555;" transform="translate(68 147.623183)scale(0.1 -0.1)">
       <use xlink:href="#Inconsolata-Regular-48"/>
       <use x="49.999985" xlink:href="#Inconsolata-Regular-46"/>
       <use x="99.999969" xlink:href="#Inconsolata-Regular-56"/>
      </g>
     </g>
     <g id="text_8">
      <!-- 0.8 -->
      <g style="fill:#555555;" transform="translate(655 147.623183)scale(0.1 -0.1)">
       <use xlink:href="#Inconsolata-Regular-48"/>
       <use x="49.999985" xlink:href="#Inconsolata-Regular-46"/>
       <use x="99.999969" xlink:href="#Inconsolata-Regular-56"/>
      </g>
     </g>
    </g>
    <g id="ytick_2">
     <g id="line2d_16">
      <path clip-path="url(#pbfeea617bc)" d="M 90 117.89455 
L 648 117.89455 
" style="fill:none;stroke:#ffffff;stroke-linecap:square;stroke-width:0.8;"/>
     </g>
     <g id="line2d_17">
      <g>
       <use style="fill:#555555;stroke:#555555;stroke-width:0.8;" x="90" xlink:href="#mc7e801139f" y="117.89455"/>
      </g>
     </g>
     <g id="line2d_18">
      <g>
       <use style="fill:#555555;stroke:#555555;stroke-width:0.8;" x="648" xlink:href="#m253e8d5268" y="117.89455"/>
      </g>
     </g>
     <g id="text_9">
      <!-- 0.9 -->
      <defs>
       <path d="M 22.796875 -1 
Q 13.796875 -1 7.90625 4.703125 
L 12.203125 9.59375 
L 12.90625 10.40625 
L 13.40625 9.90625 
Q 13.5 9.09375 13.890625 8.4375 
Q 14.296875 7.796875 15.5 6.703125 
Q 18.203125 5 22.203125 5 
Q 27 5 30.140625 8.296875 
Q 33.296875 11.59375 35 16.84375 
Q 36.703125 22.09375 37.09375 28.09375 
Q 34.703125 26 31.796875 24.796875 
Q 28.90625 23.59375 24.90625 23.59375 
Q 19.796875 23.59375 15.6875 26 
Q 11.59375 28.40625 9.1875 32.65625 
Q 6.796875 36.90625 6.796875 42.40625 
Q 6.796875 48.296875 9.1875 52.84375 
Q 11.59375 57.40625 15.6875 60.046875 
Q 19.796875 62.703125 24.703125 62.703125 
Q 30.59375 62.703125 34.890625 59.296875 
Q 39.203125 55.90625 41.546875 49.953125 
Q 43.90625 44 43.90625 36.296875 
Q 43.90625 17.5 38.296875 8.34375 
Q 32.703125 -0.796875 22.796875 -1 
z
M 13.59375 42.5 
Q 13.59375 36.59375 17 33.140625 
Q 20.40625 29.703125 25 29.703125 
Q 29.203125 29.703125 32 30.890625 
Q 34.796875 32.09375 37.203125 34.90625 
Q 36.5 56.59375 25 56.59375 
Q 19.90625 56.59375 16.75 52.84375 
Q 13.59375 49.09375 13.59375 42.5 
z
" id="Inconsolata-Regular-57"/>
      </defs>
      <g style="fill:#555555;" transform="translate(68 121.21955)scale(0.1 -0.1)">
       <use xlink:href="#Inconsolata-Regular-48"/>
       <use x="49.999985" xlink:href="#Inconsolata-Regular-46"/>
       <use x="99.999969" xlink:href="#Inconsolata-Regular-57"/>
      </g>
     </g>
     <g id="text_10">
      <!-- 0.9 -->
      <g style="fill:#555555;" transform="translate(655 121.21955)scale(0.1 -0.1)">
       <use xlink:href="#Inconsolata-Regular-48"/>
       <use x="49.999985" xlink:href="#Inconsolata-Regular-46"/>
       <use x="99.999969" xlink:href="#Inconsolata-Regular-57"/>
      </g>
     </g>
    </g>
    <g id="ytick_3">
     <g id="line2d_19">
      <path clip-path="url(#pbfeea617bc)" d="M 90 91.490917 
L 648 91.490917 
" style="fill:none;stroke:#ffffff;stroke-linecap:square;stroke-width:0.8;"/>
     </g>
     <g id="line2d_20">
      <g>
       <use style="fill:#555555;stroke:#555555;stroke-width:0.8;" x="90" xlink:href="#mc7e801139f" y="91.490917"/>
      </g>
     </g>
     <g id="line2d_21">
      <g>
       <use style="fill:#555555;stroke:#555555;stroke-width:0.8;" x="648" xlink:href="#m253e8d5268" y="91.490917"/>
      </g>
     </g>
     <g id="text_11">
      <!-- 1.0 -->
      <defs>
       <path d="M 23 0 
L 23 53.703125 
L 10.40625 50 
L 8.796875 53.90625 
L 25.09375 62.40625 
L 30 62.40625 
L 30 0 
z
" id="Inconsolata-Regular-49"/>
      </defs>
      <g style="fill:#555555;" transform="translate(68 94.815917)scale(0.1 -0.1)">
       <use xlink:href="#Inconsolata-Regular-49"/>
       <use x="49.999985" xlink:href="#Inconsolata-Regular-46"/>
       <use x="99.999969" xlink:href="#Inconsolata-Regular-48"/>
      </g>
     </g>
     <g id="text_12">
      <!-- 1.0 -->
      <g style="fill:#555555;" transform="translate(655 94.815917)scale(0.1 -0.1)">
       <use xlink:href="#Inconsolata-Regular-49"/>
       <use x="49.999985" xlink:href="#Inconsolata-Regular-46"/>
       <use x="99.999969" xlink:href="#Inconsolata-Regular-48"/>
      </g>
     </g>
    </g>
    <g id="ytick_4">
     <g id="line2d_22">
      <path clip-path="url(#pbfeea617bc)" d="M 90 65.087284 
L 648 65.087284 
" style="fill:none;stroke:#ffffff;stroke-linecap:square;stroke-width:0.8;"/>
     </g>
     <g id="line2d_23">
      <g>
       <use style="fill:#555555;stroke:#555555;stroke-width:0.8;" x="90" xlink:href="#mc7e801139f" y="65.087284"/>
      </g>
     </g>
     <g id="line2d_24">
      <g>
       <use style="fill:#555555;stroke:#555555;stroke-width:0.8;" x="648" xlink:href="#m253e8d5268" y="65.087284"/>
      </g>
     </g>
     <g id="text_13">
      <!-- 1.1 -->
      <g style="fill:#555555;" transform="translate(68 68.412284)scale(0.1 -0.1)">
       <use xlink:href="#Inconsolata-Regular-49"/>
       <use x="49.999985" xlink:href="#Inconsolata-Regular-46"/>
       <use x="99.999969" xlink:href="#Inconsolata-Regular-49"/>
      </g>
     </g>
     <g id="text_14">
      <!-- 1.1 -->
      <g style="fill:#555555;" transform="translate(655 68.412284)scale(0.1 -0.1)">
       <use xlink:href="#Inconsolata-Regular-49"/>
       <use x="49.999985" xlink:href="#Inconsolata-Regular-46"/>
       <use x="99.999969" xlink:href="#Inconsolata-Regular-49"/>
      </g>
     </g>
    </g>
    <g id="ytick_5">
     <g id="line2d_25">
      <path clip-path="url(#pbfeea617bc)" d="M 90 38.683651 
L 648 38.683651 
" style="fill:none;stroke:#ffffff;stroke-linecap:square;stroke-width:0.8;"/>
     </g>
     <g id="line2d_26">
      <g>
       <use style="fill:#555555;stroke:#555555;stroke-width:0.8;" x="90" xlink:href="#mc7e801139f" y="38.683651"/>
      </g>
     </g>
     <g id="line2d_27">
      <g>
       <use style="fill:#555555;stroke:#555555;stroke-width:0.8;" x="648" xlink:href="#m253e8d5268" y="38.683651"/>
      </g>
     </g>
     <g id="text_15">
      <!-- 1.2 -->
      <g style="fill:#555555;" transform="translate(68 42.008651)scale(0.1 -0.1)">
       <use xlink:href="#Inconsolata-Regular-49"/>
       <use x="49.999985" xlink:href="#Inconsolata-Regular-46"/>
       <use x="99.999969" xlink:href="#Inconsolata-Regular-50"/>
      </g>
     </g>
     <g id="text_16">
      <!-- 1.2 -->
      <g style="fill:#555555;" transform="translate(655 42.008651)scale(0.1 -0.1)">
       <use xlink:href="#Inconsolata-Regular-49"/>
       <use x="49.999985" xlink:href="#Inconsolata-Regular-46"/>
       <use x="99.999969" xlink:href="#Inconsolata-Regular-50"/>
      </g>
     </g>
    </g>
    <g id="text_17">
     <!-- R &amp; growth factor -->
     <defs>
      <path d="M 5.59375 0 
L 5.59375 62.296875 
L 24 62.296875 
Q 35 62.296875 39.84375 57.390625 
Q 44.703125 52.5 44.703125 44.5 
Q 44.703125 41 43.140625 37.5 
Q 41.59375 34 38.75 31.390625 
Q 35.90625 28.796875 32 27.796875 
L 46.40625 0 
L 38.59375 0 
L 24.796875 27.5 
L 12.703125 27.5 
L 12.703125 0 
z
M 12.703125 33.703125 
L 24.796875 33.703125 
Q 31.5 33.703125 34.5 36.640625 
Q 37.5 39.59375 37.5 44.5 
Q 37.5 49.203125 34.5 52.453125 
Q 31.5 55.703125 24.796875 55.703125 
L 12.703125 55.703125 
z
" id="Inconsolata-Regular-82"/>
      <path id="Inconsolata-Regular-32"/>
      <path d="M 41.59375 -1.203125 
L 36.09375 7.59375 
Q 33 3.703125 28.546875 1.34375 
Q 24.09375 -1 19.203125 -1 
Q 14.703125 -1 11.140625 1.046875 
Q 7.59375 3.09375 5.59375 6.546875 
Q 3.59375 10 3.59375 14.09375 
Q 3.59375 20.40625 7.046875 25.75 
Q 10.5 31.09375 16.203125 34.296875 
Q 9.09375 42.90625 9.09375 49.796875 
Q 9.09375 53.59375 10.9375 56.546875 
Q 12.796875 59.5 15.9375 61.203125 
Q 19.09375 62.90625 22.796875 62.90625 
Q 26.90625 62.90625 29.90625 61 
Q 32.90625 59.09375 34.59375 56.140625 
Q 36.296875 53.203125 36.296875 49.796875 
Q 36.296875 46.59375 34.890625 43.25 
Q 33.5 39.90625 31.09375 37.203125 
Q 28.703125 34.5 25.5 33 
L 36.703125 17.296875 
Q 39.296875 20.40625 40.140625 22.546875 
Q 41 24.703125 41.203125 27.40625 
Q 41.203125 28 41.59375 28.40625 
L 48.09375 23.90625 
Q 46.40625 20.90625 44.5 18 
Q 42.59375 15.09375 40.5 12.296875 
L 47.5 3.203125 
z
M 22.09375 37.296875 
Q 25.703125 39 27.703125 42.453125 
Q 29.703125 45.90625 29.703125 49.203125 
Q 29.703125 52.5 27.640625 54.75 
Q 25.59375 57 22.90625 57 
Q 20.09375 57 18.046875 55 
Q 16 53 16 49.703125 
Q 16 44.90625 22.09375 37.296875 
z
M 19.90625 5.40625 
Q 23.5 5.40625 26.546875 7.296875 
Q 29.59375 9.203125 32.40625 12.296875 
L 19.703125 29.59375 
Q 15.703125 27.09375 13.453125 23.09375 
Q 11.203125 19.09375 11.203125 15.203125 
Q 11.203125 11.09375 13.796875 8.25 
Q 16.40625 5.40625 19.90625 5.40625 
z
" id="Inconsolata-Regular-38"/>
      <path d="M 22.59375 15.5 
Q 18.703125 15.5 15.5 16.90625 
Q 13.703125 14.703125 13.703125 12.703125 
Q 13.703125 10.296875 16.703125 9.25 
Q 19.703125 8.203125 27.703125 8.203125 
Q 34.703125 8.203125 38.296875 6.703125 
Q 41.90625 5.203125 43.203125 2.59375 
Q 44.5 0 44.5 -3.40625 
Q 44.5 -6.90625 42.59375 -10.09375 
Q 40.703125 -13.296875 36.34375 -15.25 
Q 32 -17.203125 24.703125 -17.203125 
Q 15.09375 -17.203125 9.4375 -14.25 
Q 3.796875 -11.296875 3.796875 -5.40625 
Q 3.796875 -1.703125 5.890625 0.9375 
Q 8 3.59375 10.90625 4.90625 
Q 7.59375 7.09375 7.59375 11 
Q 7.59375 13.203125 8.6875 15.296875 
Q 9.796875 17.40625 11.703125 19.40625 
Q 6.59375 23.90625 6.59375 31.5 
Q 6.59375 35.90625 8.546875 39.5 
Q 10.5 43.09375 14.09375 45.25 
Q 17.703125 47.40625 22.59375 47.40625 
Q 26.296875 47.40625 29.25 46.15625 
Q 32.203125 44.90625 34.296875 42.703125 
Q 36.90625 45.09375 39.796875 46.140625 
Q 42.703125 47.203125 46.59375 46.90625 
L 47.5 41 
Q 44.5 41.296875 41.84375 40.890625 
Q 39.203125 40.5 36.90625 39 
Q 38.59375 35.59375 38.59375 31.5 
Q 38.59375 27.09375 36.640625 23.4375 
Q 34.703125 19.796875 31.140625 17.640625 
Q 27.59375 15.5 22.59375 15.5 
z
M 22.59375 21.5 
Q 27 21.5 29.796875 24.453125 
Q 32.59375 27.40625 32.59375 31.5 
Q 32.59375 35.59375 29.796875 38.546875 
Q 27 41.5 22.59375 41.5 
Q 18.296875 41.5 15.4375 38.546875 
Q 12.59375 35.59375 12.59375 31.5 
Q 12.59375 27.40625 15.4375 24.453125 
Q 18.296875 21.5 22.59375 21.5 
z
M 10.40625 -4.59375 
Q 10.40625 -8 14.25 -9.890625 
Q 18.09375 -11.796875 24.796875 -11.796875 
Q 31.59375 -11.796875 34.75 -9.75 
Q 37.90625 -7.703125 37.90625 -4.5 
Q 37.90625 -2.296875 37.09375 -0.890625 
Q 36.296875 0.5 33.796875 1.203125 
Q 31.296875 1.90625 26.203125 1.90625 
Q 22.703125 1.90625 19.84375 2.203125 
Q 17 2.5 14.703125 3.203125 
Q 12.40625 1.59375 11.40625 -0.046875 
Q 10.40625 -1.703125 10.40625 -4.59375 
z
" id="Inconsolata-Regular-103"/>
      <path d="M 11.90625 45.703125 
L 19.40625 45.703125 
L 19.203125 37.296875 
Q 21.09375 41.90625 25.09375 44.34375 
Q 29.09375 46.796875 33.703125 46.796875 
Q 41 46.796875 45.796875 41.796875 
L 42.59375 36.203125 
L 42.203125 35.296875 
L 41.5 35.703125 
Q 41.296875 36.5 40.890625 37.203125 
Q 40.5 37.90625 39.203125 38.90625 
Q 37.59375 39.90625 36.25 40.25 
Q 34.90625 40.59375 33.203125 40.59375 
Q 29.90625 40.59375 26.65625 38.890625 
Q 23.40625 37.203125 21.296875 33.59375 
Q 19.203125 30 19.203125 24.203125 
L 19.203125 -0.09375 
L 11.90625 -0.09375 
z
" id="Inconsolata-Regular-114"/>
      <path d="M 25 -0.796875 
Q 18.796875 -0.796875 14.046875 2.25 
Q 9.296875 5.296875 6.59375 10.640625 
Q 3.90625 16 3.90625 22.90625 
Q 3.90625 29.90625 6.59375 35.25 
Q 9.296875 40.59375 14.046875 43.640625 
Q 18.796875 46.703125 25 46.703125 
Q 31.203125 46.703125 35.953125 43.640625 
Q 40.703125 40.59375 43.390625 35.25 
Q 46.09375 29.90625 46.09375 22.90625 
Q 46.09375 16 43.390625 10.640625 
Q 40.703125 5.296875 35.953125 2.25 
Q 31.203125 -0.796875 25 -0.796875 
z
M 25 5.203125 
Q 29 5.203125 32 7.5 
Q 35 9.796875 36.75 13.796875 
Q 38.5 17.796875 38.5 23 
Q 38.5 30.796875 34.703125 35.75 
Q 30.90625 40.703125 25 40.703125 
Q 19.09375 40.703125 15.296875 35.75 
Q 11.5 30.796875 11.5 23 
Q 11.5 17.796875 13.25 13.796875 
Q 15 9.796875 18.046875 7.5 
Q 21.09375 5.203125 25 5.203125 
z
" id="Inconsolata-Regular-111"/>
      <path d="M 10.796875 -0.09375 
L 1.59375 45.703125 
L 7.90625 45.703125 
L 15.296875 9 
L 23.09375 41.40625 
L 27.5 41.40625 
L 37.203125 9.09375 
Q 38.5 18 39.34375 23.703125 
Q 40.203125 29.40625 40.640625 33.046875 
Q 41.09375 36.703125 41.25 39.203125 
Q 41.40625 41.703125 41.40625 44.203125 
L 41.40625 45.703125 
L 48.09375 45.703125 
Q 45.09375 22.5 40.5 -0.09375 
L 33.703125 -0.09375 
L 25.296875 29.5 
L 17.296875 -0.09375 
z
" id="Inconsolata-Regular-119"/>
      <path d="M 29.90625 -0.703125 
Q 24 -0.703125 20.953125 2 
Q 17.90625 4.703125 16.90625 10.34375 
Q 15.90625 16 16.203125 24.796875 
L 16.796875 39.796875 
L 7 39.796875 
L 7 45.703125 
L 17 45.703125 
L 17.40625 57.40625 
L 24.90625 58.296875 
L 25.90625 58.40625 
L 26 57.703125 
Q 25.5 57 25.140625 56.296875 
Q 24.796875 55.59375 24.59375 53.90625 
L 23.90625 45.703125 
L 39.90625 45.703125 
L 39.90625 39.796875 
L 24 39.796875 
L 23.296875 24.296875 
Q 23 16.703125 23.703125 12.546875 
Q 24.40625 8.40625 26.203125 6.84375 
Q 28 5.296875 31 5.296875 
Q 34.296875 5.296875 36.84375 6.59375 
Q 39.40625 7.90625 42.203125 9.90625 
L 44.40625 4.203125 
Q 41 1.703125 37.390625 0.5 
Q 33.796875 -0.703125 29.90625 -0.703125 
z
" id="Inconsolata-Regular-116"/>
      <path d="M 7.296875 66.5 
L 15.203125 66.5 
L 15.203125 65.796875 
Q 14.59375 65.203125 14.4375 64.5 
Q 14.296875 63.796875 14.296875 62.09375 
L 14.296875 37.59375 
Q 17 41.796875 21.046875 44.296875 
Q 25.09375 46.796875 29.296875 46.796875 
Q 35.5 46.796875 39.34375 42.4375 
Q 43.203125 38.09375 43.203125 27.703125 
L 43.203125 0 
L 36.203125 0 
L 36.203125 27.5 
Q 36.203125 34.703125 33.75 37.59375 
Q 31.296875 40.5 27.796875 40.5 
Q 24.796875 40.5 21.640625 38.796875 
Q 18.5 37.09375 16.390625 33.9375 
Q 14.296875 30.796875 14.296875 26.296875 
L 14.296875 0 
L 7.296875 0 
z
" id="Inconsolata-Regular-104"/>
      <path d="M 16.203125 40 
L 6.296875 40 
L 6.296875 45.703125 
L 16.203125 45.703125 
L 16.203125 49.5 
Q 16.203125 58.703125 20.953125 62.890625 
Q 25.703125 67.09375 33 67.09375 
Q 37.296875 67.09375 41.046875 65.546875 
Q 44.796875 64 47.296875 60.796875 
L 43.5 55.5 
L 42.90625 54.703125 
L 42.296875 55.09375 
Q 42.203125 55.90625 41.890625 56.703125 
Q 41.59375 57.5 40.5 58.703125 
Q 38.90625 60.09375 37.296875 60.6875 
Q 35.703125 61.296875 33.203125 61.296875 
Q 28.90625 61.296875 26 58.640625 
Q 23.09375 56 23.09375 49.5 
L 23.09375 45.703125 
L 38.09375 45.703125 
L 38.09375 40 
L 23.09375 40 
L 23.09375 0 
L 16.203125 0 
z
" id="Inconsolata-Regular-102"/>
      <path d="M 21.09375 -1.09375 
Q 13.296875 -1.09375 9.09375 2.453125 
Q 4.90625 6 4.90625 11.5 
Q 4.90625 16.40625 8 19.953125 
Q 11.09375 23.5 16.34375 25.453125 
Q 21.59375 27.40625 27.90625 27.40625 
Q 30.203125 27.40625 32.75 27.296875 
Q 35.296875 27.203125 38.203125 26.796875 
Q 37.59375 34.796875 34.046875 37.796875 
Q 30.5 40.796875 23.90625 40.796875 
Q 20.59375 40.796875 17.390625 39.546875 
Q 14.203125 38.296875 11.59375 35.703125 
L 8.09375 40.296875 
Q 11.296875 43.5 15.5 45.09375 
Q 19.703125 46.703125 24.40625 46.703125 
Q 30.5 46.703125 35 44.703125 
Q 39.5 42.703125 42 37.796875 
Q 44.5 32.90625 44.5 24.296875 
L 44.5 0 
L 36.703125 0 
L 36.703125 7 
Q 35 3.703125 32.34375 1.953125 
Q 29.703125 0.203125 26.75 -0.4375 
Q 23.796875 -1.09375 21.09375 -1.09375 
z
M 12.09375 11.90625 
Q 12.09375 7.59375 14.890625 6 
Q 17.703125 4.40625 21.796875 4.40625 
Q 29.203125 4.40625 33.5 8.75 
Q 37.796875 13.09375 38.203125 21.296875 
Q 33 22 28.5 22 
Q 21.296875 22 16.6875 19.59375 
Q 12.09375 17.203125 12.09375 11.90625 
z
" id="Inconsolata-Regular-97"/>
      <path d="M 28.5 -1.09375 
Q 21.90625 -1.09375 16.703125 2 
Q 11.5 5.09375 8.546875 10.5 
Q 5.59375 15.90625 5.59375 22.796875 
Q 5.59375 29.703125 8.546875 35.046875 
Q 11.5 40.40625 16.640625 43.5 
Q 21.796875 46.59375 28.40625 46.59375 
Q 34 46.59375 38.453125 44.34375 
Q 42.90625 42.09375 45.703125 38.09375 
L 41.203125 33.703125 
L 40.5 33 
L 40 33.5 
Q 40 34.296875 39.640625 35 
Q 39.296875 35.703125 38.09375 36.90625 
Q 35.90625 38.90625 33.40625 39.703125 
Q 30.90625 40.5 27.59375 40.5 
Q 23.796875 40.5 20.4375 38.390625 
Q 17.09375 36.296875 15.046875 32.4375 
Q 13 28.59375 13 23.296875 
Q 13 18.203125 15.046875 14.140625 
Q 17.09375 10.09375 20.6875 7.75 
Q 24.296875 5.40625 28.90625 5.40625 
Q 35.796875 5.40625 40.796875 11 
L 45 6.09375 
Q 38.296875 -1.09375 28.5 -1.09375 
z
" id="Inconsolata-Regular-99"/>
     </defs>
     <g style="fill:#555555;" transform="translate(50.254 140.55)rotate(-90)scale(0.12 -0.12)">
      <use xlink:href="#Inconsolata-Regular-82"/>
      <use x="49.999985" xlink:href="#Inconsolata-Regular-32"/>
      <use x="99.999969" xlink:href="#Inconsolata-Regular-38"/>
      <use x="149.999954" xlink:href="#Inconsolata-Regular-32"/>
      <use x="199.999939" xlink:href="#Inconsolata-Regular-103"/>
      <use x="249.999924" xlink:href="#Inconsolata-Regular-114"/>
      <use x="299.999908" xlink:href="#Inconsolata-Regular-111"/>
      <use x="349.999893" xlink:href="#Inconsolata-Regular-119"/>
      <use x="399.999878" xlink:href="#Inconsolata-Regular-116"/>
      <use x="449.999863" xlink:href="#Inconsolata-Regular-104"/>
      <use x="499.999847" xlink:href="#Inconsolata-Regular-32"/>
      <use x="549.999832" xlink:href="#Inconsolata-Regular-102"/>
      <use x="599.999817" xlink:href="#Inconsolata-Regular-97"/>
      <use x="649.999802" xlink:href="#Inconsolata-Regular-99"/>
      <use x="699.999786" xlink:href="#Inconsolata-Regular-116"/>
      <use x="749.999771" xlink:href="#Inconsolata-Regular-111"/>
      <use x="799.999756" xlink:href="#Inconsolata-Regular-114"/>
     </g>
     <!-- (based on cases) -->
     <defs>
      <path d="M 39.5 -10.40625 
Q 31.203125 -6.5 25.046875 0.046875 
Q 18.90625 6.59375 15.546875 14.84375 
Q 12.203125 23.09375 12.203125 32 
Q 12.203125 40.90625 15.5 48.953125 
Q 18.796875 57 24.796875 63.34375 
Q 30.796875 69.703125 38.90625 73.5 
L 40.796875 67.296875 
Q 34.40625 63.796875 29.546875 58.296875 
Q 24.703125 52.796875 22 46 
Q 19.296875 39.203125 19.296875 31.703125 
Q 19.296875 24.203125 22 17.296875 
Q 24.703125 10.40625 29.703125 4.796875 
Q 34.703125 -0.796875 41.40625 -4.40625 
z
" id="Inconsolata-Regular-40"/>
      <path d="M 26.59375 -1.09375 
Q 22.40625 -1.09375 18.90625 0.796875 
Q 15.40625 2.703125 13.09375 6 
L 10.59375 0 
L 6 0 
L 6 66.5 
L 14.203125 66.5 
L 14.203125 65.796875 
Q 13.59375 65.203125 13.4375 64.5 
Q 13.296875 63.796875 13.296875 62.09375 
L 13.296875 38.703125 
Q 15.5 42.40625 19.25 44.59375 
Q 23 46.796875 26.90625 46.796875 
Q 35.203125 46.796875 40.453125 40.9375 
Q 45.703125 35.09375 45.703125 23.296875 
Q 45.703125 15.09375 42.890625 9.6875 
Q 40.09375 4.296875 35.75 1.59375 
Q 31.40625 -1.09375 26.59375 -1.09375 
z
M 25.703125 5.296875 
Q 28.90625 5.296875 31.796875 6.9375 
Q 34.703125 8.59375 36.5 12.5 
Q 38.296875 16.40625 38.296875 22.90625 
Q 38.296875 32 34.84375 36.296875 
Q 31.40625 40.59375 25.90625 40.59375 
Q 20.40625 40.59375 16.84375 35.640625 
Q 13.296875 30.703125 13.296875 22.703125 
Q 13.296875 14.796875 16.140625 10.046875 
Q 19 5.296875 25.703125 5.296875 
z
" id="Inconsolata-Regular-98"/>
      <path d="M 25.09375 -1 
Q 13.5 -1 5.703125 6.203125 
L 9.703125 13 
L 10.296875 13.90625 
L 10.90625 13.5 
Q 11.09375 12.703125 11.34375 11.84375 
Q 11.59375 11 12.703125 9.796875 
Q 14.796875 7.703125 17.75 6.34375 
Q 20.703125 5 25.296875 5 
Q 30.796875 5 33.84375 6.953125 
Q 36.90625 8.90625 36.90625 12.296875 
Q 36.90625 15.203125 34.34375 17.09375 
Q 31.796875 19 25.40625 21.09375 
Q 17.5 23.40625 12.84375 26.796875 
Q 8.203125 30.203125 8.203125 35.296875 
Q 8.203125 40.5 12.453125 43.640625 
Q 16.703125 46.796875 25 46.796875 
Q 31.40625 46.796875 35.59375 45 
Q 39.796875 43.203125 43.203125 39.59375 
L 39.09375 34.59375 
L 38.40625 33.796875 
L 37.90625 34.296875 
Q 37.796875 35.09375 37.4375 35.84375 
Q 37.09375 36.59375 36 37.703125 
Q 33.703125 39.5 30.796875 40.453125 
Q 27.90625 41.40625 25.203125 41.40625 
Q 21.203125 41.40625 18.296875 40 
Q 15.40625 38.59375 15.40625 35.703125 
Q 15.40625 34.203125 16.453125 32.75 
Q 17.5 31.296875 20.296875 29.84375 
Q 23.09375 28.40625 28.296875 26.90625 
Q 36.90625 24.296875 40.453125 21.25 
Q 44 18.203125 44 13.296875 
Q 44 9.5 41.953125 6.203125 
Q 39.90625 2.90625 35.703125 0.953125 
Q 31.5 -1 25.09375 -1 
z
" id="Inconsolata-Regular-115"/>
      <path d="M 27.203125 -1 
Q 17.203125 -1 11.046875 5.09375 
Q 4.90625 11.203125 4.90625 22.703125 
Q 4.90625 30.5 7.75 35.84375 
Q 10.59375 41.203125 15.34375 44 
Q 20.09375 46.796875 25.90625 46.796875 
Q 31.09375 46.796875 35.296875 44.5 
Q 39.5 42.203125 42 37.390625 
Q 44.5 32.59375 44.5 25.09375 
Q 44.5 24.296875 44.453125 23.4375 
Q 44.40625 22.59375 44.296875 21.796875 
L 11.796875 21.796875 
Q 12.203125 13 16.75 8.890625 
Q 21.296875 4.796875 27.40625 4.796875 
Q 34.59375 4.796875 39.203125 9.90625 
L 43.203125 6 
Q 37.40625 -1 27.203125 -1 
z
M 12.09375 27.40625 
L 37.203125 27.40625 
Q 37.203125 33.796875 33.953125 37.546875 
Q 30.703125 41.296875 25.40625 41.296875 
Q 20.703125 41.296875 16.890625 37.9375 
Q 13.09375 34.59375 12.09375 27.40625 
z
" id="Inconsolata-Regular-101"/>
      <path d="M 23.40625 -1 
Q 18.796875 -1 14.4375 1.640625 
Q 10.09375 4.296875 7.296875 9.6875 
Q 4.5 15.09375 4.5 23.296875 
Q 4.5 31.703125 7.390625 36.890625 
Q 10.296875 42.09375 14.75 44.5 
Q 19.203125 46.90625 23.796875 46.90625 
Q 28.5 46.90625 31.953125 44.75 
Q 35.40625 42.59375 37.09375 39 
L 37.09375 66.5 
L 44.703125 66.5 
L 44.703125 65.796875 
Q 44.09375 65.203125 43.9375 64.5 
Q 43.796875 63.796875 43.796875 62.09375 
L 43.90625 7.09375 
Q 43.90625 5.296875 44.046875 3.546875 
Q 44.203125 1.796875 44.90625 0 
L 37.796875 0 
Q 37.09375 1.796875 36.9375 3.546875 
Q 36.796875 5.296875 36.796875 7.09375 
Q 34.59375 3.40625 31.1875 1.203125 
Q 27.796875 -1 23.40625 -1 
z
M 24.5 5.296875 
Q 28.90625 5.296875 31.546875 7.6875 
Q 34.203125 10.09375 35.34375 14.140625 
Q 36.5 18.203125 36.5 23.09375 
Q 36.5 30.796875 33.5 35.890625 
Q 30.5 41 23.90625 41 
Q 17.796875 41 14.640625 36.5 
Q 11.5 32 11.5 24.40625 
Q 11.5 15.796875 14.796875 10.546875 
Q 18.09375 5.296875 24.5 5.296875 
z
" id="Inconsolata-Regular-100"/>
      <path d="M 7.203125 0 
L 7.203125 45.703125 
L 14.203125 45.703125 
L 14.203125 37.59375 
Q 16.796875 41.796875 20.9375 44.296875 
Q 25.09375 46.796875 29.703125 46.796875 
Q 35.296875 46.796875 39.1875 42.4375 
Q 43.09375 38.09375 43.09375 27.703125 
L 43.09375 0 
L 36.09375 0 
L 36.09375 27.5 
Q 36.09375 34.703125 33.640625 37.59375 
Q 31.203125 40.5 27.703125 40.5 
Q 24.703125 40.5 21.546875 38.75 
Q 18.40625 37 16.296875 33.84375 
Q 14.203125 30.703125 14.203125 26.296875 
L 14.203125 0 
z
" id="Inconsolata-Regular-110"/>
      <path d="M 13.25 -10.40625 
Q 21.546875 -6.5 27.6875 0.046875 
Q 33.84375 6.59375 37.1875 14.84375 
Q 40.546875 23.09375 40.546875 32 
Q 40.546875 40.90625 37.25 48.953125 
Q 33.953125 57 27.953125 63.34375 
Q 21.953125 69.703125 13.84375 73.5 
L 11.953125 67.296875 
Q 18.34375 63.796875 23.1875 58.296875 
Q 28.046875 52.796875 30.75 46 
Q 33.453125 39.203125 33.453125 31.703125 
Q 33.453125 24.203125 30.75 17.296875 
Q 28.046875 10.40625 23.046875 4.796875 
Q 18.046875 -0.796875 11.34375 -4.40625 
z
" id="Inconsolata-Regular-41"/>
     </defs>
     <g style="fill:#555555;" transform="translate(61.995625 137.55)rotate(-90)scale(0.12 -0.12)">
      <use xlink:href="#Inconsolata-Regular-40"/>
      <use x="49.999985" xlink:href="#Inconsolata-Regular-98"/>
      <use x="99.999969" xlink:href="#Inconsolata-Regular-97"/>
      <use x="149.999954" xlink:href="#Inconsolata-Regular-115"/>
      <use x="199.999939" xlink:href="#Inconsolata-Regular-101"/>
      <use x="249.999924" xlink:href="#Inconsolata-Regular-100"/>
      <use x="299.999908" xlink:href="#Inconsolata-Regular-32"/>
      <use x="349.999893" xlink:href="#Inconsolata-Regular-111"/>
      <use x="399.999878" xlink:href="#Inconsolata-Regular-110"/>
      <use x="449.999863" xlink:href="#Inconsolata-Regular-32"/>
      <use x="499.999847" xlink:href="#Inconsolata-Regular-99"/>
      <use x="549.999832" xlink:href="#Inconsolata-Regular-97"/>
      <use x="599.999817" xlink:href="#Inconsolata-Regular-115"/>
      <use x="649.999802" xlink:href="#Inconsolata-Regular-101"/>
      <use x="699.999786" xlink:href="#Inconsolata-Regular-115"/>
      <use x="749.999771" xlink:href="#Inconsolata-Regular-41"/>
     </g>
    </g>
   </g>
   <g id="line2d_28">
    <defs>
     <path d="M 0 3 
C 0.795609 3 1.55874 2.683901 2.12132 2.12132 
C 2.683901 1.55874 3 0.795609 3 0 
C 3 -0.795609 2.683901 -1.55874 2.12132 -2.12132 
C 1.55874 -2.683901 0.795609 -3 0 -3 
C -0.795609 -3 -1.55874 -2.683901 -2.12132 -2.12132 
C -2.683901 -1.55874 -3 -0.795609 -3 0 
C -3 0.795609 -2.683901 1.55874 -2.12132 2.12132 
C -1.55874 2.683901 -0.795609 3 0 3 
z
" id="m4edb3d07ee" style="stroke:#348abd;stroke-opacity:0.3;"/>
    </defs>
    <g clip-path="url(#pbfeea617bc)">
     <use style="fill:#348abd;fill-opacity:0.3;stroke:#348abd;stroke-opacity:0.3;" x="121.512397" xlink:href="#m4edb3d07ee" y="96.84007"/>
     <use style="fill:#348abd;fill-opacity:0.3;stroke:#348abd;stroke-opacity:0.3;" x="124.586777" xlink:href="#m4edb3d07ee" y="103.100505"/>
     <use style="fill:#348abd;fill-opacity:0.3;stroke:#348abd;stroke-opacity:0.3;" x="127.661157" xlink:href="#m4edb3d07ee" y="112.895271"/>
     <use style="fill:#348abd;fill-opacity:0.3;stroke:#348abd;stroke-opacity:0.3;" x="129.081659" xlink:href="#m4edb3d07ee" y="-1"/>
     <use style="fill:#348abd;fill-opacity:0.3;stroke:#348abd;stroke-opacity:0.3;" x="133.319315" xlink:href="#m4edb3d07ee" y="-1"/>
     <use style="fill:#348abd;fill-opacity:0.3;stroke:#348abd;stroke-opacity:0.3;" x="133.809917" xlink:href="#m4edb3d07ee" y="24.179182"/>
     <use style="fill:#348abd;fill-opacity:0.3;stroke:#348abd;stroke-opacity:0.3;" x="136.884298" xlink:href="#m4edb3d07ee" y="12.540755"/>
     <use style="fill:#348abd;fill-opacity:0.3;stroke:#348abd;stroke-opacity:0.3;" x="139.958678" xlink:href="#m4edb3d07ee" y="49.512842"/>
     <use style="fill:#348abd;fill-opacity:0.3;stroke:#348abd;stroke-opacity:0.3;" x="143.033058" xlink:href="#m4edb3d07ee" y="68.053568"/>
     <use style="fill:#348abd;fill-opacity:0.3;stroke:#348abd;stroke-opacity:0.3;" x="146.107438" xlink:href="#m4edb3d07ee" y="64.803016"/>
     <use style="fill:#348abd;fill-opacity:0.3;stroke:#348abd;stroke-opacity:0.3;" x="149.181818" xlink:href="#m4edb3d07ee" y="58.937085"/>
     <use style="fill:#348abd;fill-opacity:0.3;stroke:#348abd;stroke-opacity:0.3;" x="152.256198" xlink:href="#m4edb3d07ee" y="86.639822"/>
     <use style="fill:#348abd;fill-opacity:0.3;stroke:#348abd;stroke-opacity:0.3;" x="155.330579" xlink:href="#m4edb3d07ee" y="101.546807"/>
     <use style="fill:#348abd;fill-opacity:0.3;stroke:#348abd;stroke-opacity:0.3;" x="158.404959" xlink:href="#m4edb3d07ee" y="137.562777"/>
     <use style="fill:#348abd;fill-opacity:0.3;stroke:#348abd;stroke-opacity:0.3;" x="161.479339" xlink:href="#m4edb3d07ee" y="89.734604"/>
     <use style="fill:#348abd;fill-opacity:0.3;stroke:#348abd;stroke-opacity:0.3;" x="164.553719" xlink:href="#m4edb3d07ee" y="115.65272"/>
     <use style="fill:#348abd;fill-opacity:0.3;stroke:#348abd;stroke-opacity:0.3;" x="167.628099" xlink:href="#m4edb3d07ee" y="109.164335"/>
     <use style="fill:#348abd;fill-opacity:0.3;stroke:#348abd;stroke-opacity:0.3;" x="170.702479" xlink:href="#m4edb3d07ee" y="129.730659"/>
     <use style="fill:#348abd;fill-opacity:0.3;stroke:#348abd;stroke-opacity:0.3;" x="173.77686" xlink:href="#m4edb3d07ee" y="156.584817"/>
     <use style="fill:#348abd;fill-opacity:0.3;stroke:#348abd;stroke-opacity:0.3;" x="176.85124" xlink:href="#m4edb3d07ee" y="179.137557"/>
     <use style="fill:#348abd;fill-opacity:0.3;stroke:#348abd;stroke-opacity:0.3;" x="179.92562" xlink:href="#m4edb3d07ee" y="126.150304"/>
     <use style="fill:#348abd;fill-opacity:0.3;stroke:#348abd;stroke-opacity:0.3;" x="183" xlink:href="#m4edb3d07ee" y="100.565221"/>
     <use style="fill:#348abd;fill-opacity:0.3;stroke:#348abd;stroke-opacity:0.3;" x="186.07438" xlink:href="#m4edb3d07ee" y="106.479077"/>
     <use style="fill:#348abd;fill-opacity:0.3;stroke:#348abd;stroke-opacity:0.3;" x="189.14876" xlink:href="#m4edb3d07ee" y="130.748786"/>
     <use style="fill:#348abd;fill-opacity:0.3;stroke:#348abd;stroke-opacity:0.3;" x="189.288234" xlink:href="#m4edb3d07ee" y="-1"/>
     <use style="fill:#348abd;fill-opacity:0.3;stroke:#348abd;stroke-opacity:0.3;" x="207.040015" xlink:href="#m4edb3d07ee" y="-1"/>
     <use style="fill:#348abd;fill-opacity:0.3;stroke:#348abd;stroke-opacity:0.3;" x="207.595041" xlink:href="#m4edb3d07ee" y="9.400557"/>
     <use style="fill:#348abd;fill-opacity:0.3;stroke:#348abd;stroke-opacity:0.3;" x="210.669421" xlink:href="#m4edb3d07ee" y="14.599003"/>
     <use style="fill:#348abd;fill-opacity:0.3;stroke:#348abd;stroke-opacity:0.3;" x="213.743802" xlink:href="#m4edb3d07ee" y="8.636856"/>
     <use style="fill:#348abd;fill-opacity:0.3;stroke:#348abd;stroke-opacity:0.3;" x="216.818182" xlink:href="#m4edb3d07ee" y="16.852896"/>
     <use style="fill:#348abd;fill-opacity:0.3;stroke:#348abd;stroke-opacity:0.3;" x="219.892562" xlink:href="#m4edb3d07ee" y="13.795037"/>
     <use style="fill:#348abd;fill-opacity:0.3;stroke:#348abd;stroke-opacity:0.3;" x="222.966942" xlink:href="#m4edb3d07ee" y="34.385982"/>
     <use style="fill:#348abd;fill-opacity:0.3;stroke:#348abd;stroke-opacity:0.3;" x="226.041322" xlink:href="#m4edb3d07ee" y="46.546177"/>
     <use style="fill:#348abd;fill-opacity:0.3;stroke:#348abd;stroke-opacity:0.3;" x="229.115702" xlink:href="#m4edb3d07ee" y="44.140228"/>
     <use style="fill:#348abd;fill-opacity:0.3;stroke:#348abd;stroke-opacity:0.3;" x="232.190083" xlink:href="#m4edb3d07ee" y="67.638341"/>
     <use style="fill:#348abd;fill-opacity:0.3;stroke:#348abd;stroke-opacity:0.3;" x="235.264463" xlink:href="#m4edb3d07ee" y="75.775441"/>
     <use style="fill:#348abd;fill-opacity:0.3;stroke:#348abd;stroke-opacity:0.3;" x="238.338843" xlink:href="#m4edb3d07ee" y="87.252185"/>
     <use style="fill:#348abd;fill-opacity:0.3;stroke:#348abd;stroke-opacity:0.3;" x="241.413223" xlink:href="#m4edb3d07ee" y="98.868617"/>
     <use style="fill:#348abd;fill-opacity:0.3;stroke:#348abd;stroke-opacity:0.3;" x="244.487603" xlink:href="#m4edb3d07ee" y="108.539889"/>
     <use style="fill:#348abd;fill-opacity:0.3;stroke:#348abd;stroke-opacity:0.3;" x="247.561983" xlink:href="#m4edb3d07ee" y="120.932887"/>
     <use style="fill:#348abd;fill-opacity:0.3;stroke:#348abd;stroke-opacity:0.3;" x="250.636364" xlink:href="#m4edb3d07ee" y="125.772641"/>
     <use style="fill:#348abd;fill-opacity:0.3;stroke:#348abd;stroke-opacity:0.3;" x="253.710744" xlink:href="#m4edb3d07ee" y="128.098205"/>
     <use style="fill:#348abd;fill-opacity:0.3;stroke:#348abd;stroke-opacity:0.3;" x="256.785124" xlink:href="#m4edb3d07ee" y="144.173254"/>
     <use style="fill:#348abd;fill-opacity:0.3;stroke:#348abd;stroke-opacity:0.3;" x="259.859504" xlink:href="#m4edb3d07ee" y="134.979118"/>
     <use style="fill:#348abd;fill-opacity:0.3;stroke:#348abd;stroke-opacity:0.3;" x="262.933884" xlink:href="#m4edb3d07ee" y="140.619986"/>
     <use style="fill:#348abd;fill-opacity:0.3;stroke:#348abd;stroke-opacity:0.3;" x="266.008264" xlink:href="#m4edb3d07ee" y="145.686897"/>
     <use style="fill:#348abd;fill-opacity:0.3;stroke:#348abd;stroke-opacity:0.3;" x="269.082645" xlink:href="#m4edb3d07ee" y="141.703254"/>
     <use style="fill:#348abd;fill-opacity:0.3;stroke:#348abd;stroke-opacity:0.3;" x="272.157025" xlink:href="#m4edb3d07ee" y="124.816853"/>
     <use style="fill:#348abd;fill-opacity:0.3;stroke:#348abd;stroke-opacity:0.3;" x="275.231405" xlink:href="#m4edb3d07ee" y="112.108371"/>
     <use style="fill:#348abd;fill-opacity:0.3;stroke:#348abd;stroke-opacity:0.3;" x="278.305785" xlink:href="#m4edb3d07ee" y="89.076442"/>
     <use style="fill:#348abd;fill-opacity:0.3;stroke:#348abd;stroke-opacity:0.3;" x="281.380165" xlink:href="#m4edb3d07ee" y="115.613055"/>
     <use style="fill:#348abd;fill-opacity:0.3;stroke:#348abd;stroke-opacity:0.3;" x="284.454545" xlink:href="#m4edb3d07ee" y="82.723794"/>
     <use style="fill:#348abd;fill-opacity:0.3;stroke:#348abd;stroke-opacity:0.3;" x="287.528926" xlink:href="#m4edb3d07ee" y="73.907464"/>
     <use style="fill:#348abd;fill-opacity:0.3;stroke:#348abd;stroke-opacity:0.3;" x="290.603306" xlink:href="#m4edb3d07ee" y="95.075751"/>
     <use style="fill:#348abd;fill-opacity:0.3;stroke:#348abd;stroke-opacity:0.3;" x="293.677686" xlink:href="#m4edb3d07ee" y="89.547712"/>
     <use style="fill:#348abd;fill-opacity:0.3;stroke:#348abd;stroke-opacity:0.3;" x="296.752066" xlink:href="#m4edb3d07ee" y="93.121713"/>
     <use style="fill:#348abd;fill-opacity:0.3;stroke:#348abd;stroke-opacity:0.3;" x="299.826446" xlink:href="#m4edb3d07ee" y="98.065957"/>
     <use style="fill:#348abd;fill-opacity:0.3;stroke:#348abd;stroke-opacity:0.3;" x="302.900826" xlink:href="#m4edb3d07ee" y="102.102569"/>
     <use style="fill:#348abd;fill-opacity:0.3;stroke:#348abd;stroke-opacity:0.3;" x="305.975207" xlink:href="#m4edb3d07ee" y="97.6643"/>
     <use style="fill:#348abd;fill-opacity:0.3;stroke:#348abd;stroke-opacity:0.3;" x="309.049587" xlink:href="#m4edb3d07ee" y="87.335665"/>
     <use style="fill:#348abd;fill-opacity:0.3;stroke:#348abd;stroke-opacity:0.3;" x="312.123967" xlink:href="#m4edb3d07ee" y="95.140414"/>
     <use style="fill:#348abd;fill-opacity:0.3;stroke:#348abd;stroke-opacity:0.3;" x="315.198347" xlink:href="#m4edb3d07ee" y="86.571397"/>
     <use style="fill:#348abd;fill-opacity:0.3;stroke:#348abd;stroke-opacity:0.3;" x="318.272727" xlink:href="#m4edb3d07ee" y="70.771311"/>
     <use style="fill:#348abd;fill-opacity:0.3;stroke:#348abd;stroke-opacity:0.3;" x="321.347107" xlink:href="#m4edb3d07ee" y="89.369532"/>
     <use style="fill:#348abd;fill-opacity:0.3;stroke:#348abd;stroke-opacity:0.3;" x="324.421488" xlink:href="#m4edb3d07ee" y="95.785428"/>
     <use style="fill:#348abd;fill-opacity:0.3;stroke:#348abd;stroke-opacity:0.3;" x="327.495868" xlink:href="#m4edb3d07ee" y="96.99904"/>
     <use style="fill:#348abd;fill-opacity:0.3;stroke:#348abd;stroke-opacity:0.3;" x="330.570248" xlink:href="#m4edb3d07ee" y="98.488537"/>
     <use style="fill:#348abd;fill-opacity:0.3;stroke:#348abd;stroke-opacity:0.3;" x="333.644628" xlink:href="#m4edb3d07ee" y="111.267848"/>
     <use style="fill:#348abd;fill-opacity:0.3;stroke:#348abd;stroke-opacity:0.3;" x="336.719008" xlink:href="#m4edb3d07ee" y="108.923542"/>
     <use style="fill:#348abd;fill-opacity:0.3;stroke:#348abd;stroke-opacity:0.3;" x="339.793388" xlink:href="#m4edb3d07ee" y="108.794984"/>
     <use style="fill:#348abd;fill-opacity:0.3;stroke:#348abd;stroke-opacity:0.3;" x="342.867769" xlink:href="#m4edb3d07ee" y="121.360767"/>
     <use style="fill:#348abd;fill-opacity:0.3;stroke:#348abd;stroke-opacity:0.3;" x="345.942149" xlink:href="#m4edb3d07ee" y="122.901041"/>
     <use style="fill:#348abd;fill-opacity:0.3;stroke:#348abd;stroke-opacity:0.3;" x="349.016529" xlink:href="#m4edb3d07ee" y="124.08958"/>
     <use style="fill:#348abd;fill-opacity:0.3;stroke:#348abd;stroke-opacity:0.3;" x="352.090909" xlink:href="#m4edb3d07ee" y="125.368367"/>
     <use style="fill:#348abd;fill-opacity:0.3;stroke:#348abd;stroke-opacity:0.3;" x="355.165289" xlink:href="#m4edb3d07ee" y="129.403526"/>
     <use style="fill:#348abd;fill-opacity:0.3;stroke:#348abd;stroke-opacity:0.3;" x="358.239669" xlink:href="#m4edb3d07ee" y="124.419098"/>
     <use style="fill:#348abd;fill-opacity:0.3;stroke:#348abd;stroke-opacity:0.3;" x="361.31405" xlink:href="#m4edb3d07ee" y="112.240704"/>
     <use style="fill:#348abd;fill-opacity:0.3;stroke:#348abd;stroke-opacity:0.3;" x="364.38843" xlink:href="#m4edb3d07ee" y="113.336542"/>
     <use style="fill:#348abd;fill-opacity:0.3;stroke:#348abd;stroke-opacity:0.3;" x="367.46281" xlink:href="#m4edb3d07ee" y="113.986404"/>
     <use style="fill:#348abd;fill-opacity:0.3;stroke:#348abd;stroke-opacity:0.3;" x="370.53719" xlink:href="#m4edb3d07ee" y="108.654424"/>
     <use style="fill:#348abd;fill-opacity:0.3;stroke:#348abd;stroke-opacity:0.3;" x="373.61157" xlink:href="#m4edb3d07ee" y="111.018941"/>
     <use style="fill:#348abd;fill-opacity:0.3;stroke:#348abd;stroke-opacity:0.3;" x="376.68595" xlink:href="#m4edb3d07ee" y="115.103637"/>
     <use style="fill:#348abd;fill-opacity:0.3;stroke:#348abd;stroke-opacity:0.3;" x="379.760331" xlink:href="#m4edb3d07ee" y="122.527548"/>
     <use style="fill:#348abd;fill-opacity:0.3;stroke:#348abd;stroke-opacity:0.3;" x="382.834711" xlink:href="#m4edb3d07ee" y="121.309441"/>
     <use style="fill:#348abd;fill-opacity:0.3;stroke:#348abd;stroke-opacity:0.3;" x="385.909091" xlink:href="#m4edb3d07ee" y="121.805809"/>
     <use style="fill:#348abd;fill-opacity:0.3;stroke:#348abd;stroke-opacity:0.3;" x="388.983471" xlink:href="#m4edb3d07ee" y="122.756844"/>
     <use style="fill:#348abd;fill-opacity:0.3;stroke:#348abd;stroke-opacity:0.3;" x="392.057851" xlink:href="#m4edb3d07ee" y="115.191532"/>
     <use style="fill:#348abd;fill-opacity:0.3;stroke:#348abd;stroke-opacity:0.3;" x="395.132231" xlink:href="#m4edb3d07ee" y="110.94689"/>
     <use style="fill:#348abd;fill-opacity:0.3;stroke:#348abd;stroke-opacity:0.3;" x="398.206612" xlink:href="#m4edb3d07ee" y="96.975527"/>
     <use style="fill:#348abd;fill-opacity:0.3;stroke:#348abd;stroke-opacity:0.3;" x="401.280992" xlink:href="#m4edb3d07ee" y="89.881384"/>
     <use style="fill:#348abd;fill-opacity:0.3;stroke:#348abd;stroke-opacity:0.3;" x="404.355372" xlink:href="#m4edb3d07ee" y="104.957156"/>
     <use style="fill:#348abd;fill-opacity:0.3;stroke:#348abd;stroke-opacity:0.3;" x="407.429752" xlink:href="#m4edb3d07ee" y="98.236482"/>
     <use style="fill:#348abd;fill-opacity:0.3;stroke:#348abd;stroke-opacity:0.3;" x="410.504132" xlink:href="#m4edb3d07ee" y="107.7408"/>
     <use style="fill:#348abd;fill-opacity:0.3;stroke:#348abd;stroke-opacity:0.3;" x="413.578512" xlink:href="#m4edb3d07ee" y="102.099918"/>
     <use style="fill:#348abd;fill-opacity:0.3;stroke:#348abd;stroke-opacity:0.3;" x="416.652893" xlink:href="#m4edb3d07ee" y="100.273467"/>
     <use style="fill:#348abd;fill-opacity:0.3;stroke:#348abd;stroke-opacity:0.3;" x="419.727273" xlink:href="#m4edb3d07ee" y="107.897226"/>
     <use style="fill:#348abd;fill-opacity:0.3;stroke:#348abd;stroke-opacity:0.3;" x="422.801653" xlink:href="#m4edb3d07ee" y="113.128329"/>
     <use style="fill:#348abd;fill-opacity:0.3;stroke:#348abd;stroke-opacity:0.3;" x="425.876033" xlink:href="#m4edb3d07ee" y="120.06133"/>
     <use style="fill:#348abd;fill-opacity:0.3;stroke:#348abd;stroke-opacity:0.3;" x="428.950413" xlink:href="#m4edb3d07ee" y="96.390397"/>
     <use style="fill:#348abd;fill-opacity:0.3;stroke:#348abd;stroke-opacity:0.3;" x="432.024793" xlink:href="#m4edb3d07ee" y="66.975132"/>
     <use style="fill:#348abd;fill-opacity:0.3;stroke:#348abd;stroke-opacity:0.3;" x="435.099174" xlink:href="#m4edb3d07ee" y="26.73771"/>
     <use style="fill:#348abd;fill-opacity:0.3;stroke:#348abd;stroke-opacity:0.3;" x="438.173554" xlink:href="#m4edb3d07ee" y="6.027072"/>
     <use style="fill:#348abd;fill-opacity:0.3;stroke:#348abd;stroke-opacity:0.3;" x="441.247934" xlink:href="#m4edb3d07ee" y="25.51013"/>
     <use style="fill:#348abd;fill-opacity:0.3;stroke:#348abd;stroke-opacity:0.3;" x="444.322314" xlink:href="#m4edb3d07ee" y="29.716281"/>
     <use style="fill:#348abd;fill-opacity:0.3;stroke:#348abd;stroke-opacity:0.3;" x="447.396694" xlink:href="#m4edb3d07ee" y="39.548484"/>
     <use style="fill:#348abd;fill-opacity:0.3;stroke:#348abd;stroke-opacity:0.3;" x="450.471074" xlink:href="#m4edb3d07ee" y="56.762757"/>
     <use style="fill:#348abd;fill-opacity:0.3;stroke:#348abd;stroke-opacity:0.3;" x="453.545455" xlink:href="#m4edb3d07ee" y="76.115665"/>
     <use style="fill:#348abd;fill-opacity:0.3;stroke:#348abd;stroke-opacity:0.3;" x="456.619835" xlink:href="#m4edb3d07ee" y="94.020363"/>
     <use style="fill:#348abd;fill-opacity:0.3;stroke:#348abd;stroke-opacity:0.3;" x="459.694215" xlink:href="#m4edb3d07ee" y="104.094397"/>
     <use style="fill:#348abd;fill-opacity:0.3;stroke:#348abd;stroke-opacity:0.3;" x="462.768595" xlink:href="#m4edb3d07ee" y="117.674793"/>
     <use style="fill:#348abd;fill-opacity:0.3;stroke:#348abd;stroke-opacity:0.3;" x="465.842975" xlink:href="#m4edb3d07ee" y="107.210334"/>
     <use style="fill:#348abd;fill-opacity:0.3;stroke:#348abd;stroke-opacity:0.3;" x="468.917355" xlink:href="#m4edb3d07ee" y="110.670817"/>
     <use style="fill:#348abd;fill-opacity:0.3;stroke:#348abd;stroke-opacity:0.3;" x="471.991736" xlink:href="#m4edb3d07ee" y="102.842558"/>
     <use style="fill:#348abd;fill-opacity:0.3;stroke:#348abd;stroke-opacity:0.3;" x="475.066116" xlink:href="#m4edb3d07ee" y="96.895502"/>
     <use style="fill:#348abd;fill-opacity:0.3;stroke:#348abd;stroke-opacity:0.3;" x="478.140496" xlink:href="#m4edb3d07ee" y="87.346664"/>
     <use style="fill:#348abd;fill-opacity:0.3;stroke:#348abd;stroke-opacity:0.3;" x="481.214876" xlink:href="#m4edb3d07ee" y="85.934393"/>
     <use style="fill:#348abd;fill-opacity:0.3;stroke:#348abd;stroke-opacity:0.3;" x="484.289256" xlink:href="#m4edb3d07ee" y="82.875422"/>
     <use style="fill:#348abd;fill-opacity:0.3;stroke:#348abd;stroke-opacity:0.3;" x="487.363636" xlink:href="#m4edb3d07ee" y="70.433672"/>
     <use style="fill:#348abd;fill-opacity:0.3;stroke:#348abd;stroke-opacity:0.3;" x="490.438017" xlink:href="#m4edb3d07ee" y="35.979259"/>
     <use style="fill:#348abd;fill-opacity:0.3;stroke:#348abd;stroke-opacity:0.3;" x="493.512397" xlink:href="#m4edb3d07ee" y="50.250191"/>
     <use style="fill:#348abd;fill-opacity:0.3;stroke:#348abd;stroke-opacity:0.3;" x="496.586777" xlink:href="#m4edb3d07ee" y="48.924509"/>
     <use style="fill:#348abd;fill-opacity:0.3;stroke:#348abd;stroke-opacity:0.3;" x="499.661157" xlink:href="#m4edb3d07ee" y="65.279402"/>
     <use style="fill:#348abd;fill-opacity:0.3;stroke:#348abd;stroke-opacity:0.3;" x="502.735537" xlink:href="#m4edb3d07ee" y="73.041016"/>
     <use style="fill:#348abd;fill-opacity:0.3;stroke:#348abd;stroke-opacity:0.3;" x="505.809917" xlink:href="#m4edb3d07ee" y="82.328507"/>
     <use style="fill:#348abd;fill-opacity:0.3;stroke:#348abd;stroke-opacity:0.3;" x="508.884298" xlink:href="#m4edb3d07ee" y="84.154846"/>
     <use style="fill:#348abd;fill-opacity:0.3;stroke:#348abd;stroke-opacity:0.3;" x="511.958678" xlink:href="#m4edb3d07ee" y="93.309966"/>
     <use style="fill:#348abd;fill-opacity:0.3;stroke:#348abd;stroke-opacity:0.3;" x="515.033058" xlink:href="#m4edb3d07ee" y="100.498923"/>
     <use style="fill:#348abd;fill-opacity:0.3;stroke:#348abd;stroke-opacity:0.3;" x="518.107438" xlink:href="#m4edb3d07ee" y="102.91409"/>
     <use style="fill:#348abd;fill-opacity:0.3;stroke:#348abd;stroke-opacity:0.3;" x="521.181818" xlink:href="#m4edb3d07ee" y="86.017895"/>
     <use style="fill:#348abd;fill-opacity:0.3;stroke:#348abd;stroke-opacity:0.3;" x="524.256198" xlink:href="#m4edb3d07ee" y="83.444177"/>
     <use style="fill:#348abd;fill-opacity:0.3;stroke:#348abd;stroke-opacity:0.3;" x="527.330579" xlink:href="#m4edb3d07ee" y="82.797071"/>
     <use style="fill:#348abd;fill-opacity:0.3;stroke:#348abd;stroke-opacity:0.3;" x="530.404959" xlink:href="#m4edb3d07ee" y="84.737357"/>
     <use style="fill:#348abd;fill-opacity:0.3;stroke:#348abd;stroke-opacity:0.3;" x="533.479339" xlink:href="#m4edb3d07ee" y="88.729676"/>
     <use style="fill:#348abd;fill-opacity:0.3;stroke:#348abd;stroke-opacity:0.3;" x="536.553719" xlink:href="#m4edb3d07ee" y="88.567116"/>
     <use style="fill:#348abd;fill-opacity:0.3;stroke:#348abd;stroke-opacity:0.3;" x="539.628099" xlink:href="#m4edb3d07ee" y="87.212944"/>
     <use style="fill:#348abd;fill-opacity:0.3;stroke:#348abd;stroke-opacity:0.3;" x="542.702479" xlink:href="#m4edb3d07ee" y="92.509353"/>
     <use style="fill:#348abd;fill-opacity:0.3;stroke:#348abd;stroke-opacity:0.3;" x="545.77686" xlink:href="#m4edb3d07ee" y="97.057286"/>
     <use style="fill:#348abd;fill-opacity:0.3;stroke:#348abd;stroke-opacity:0.3;" x="548.85124" xlink:href="#m4edb3d07ee" y="100.694629"/>
     <use style="fill:#348abd;fill-opacity:0.3;stroke:#348abd;stroke-opacity:0.3;" x="551.92562" xlink:href="#m4edb3d07ee" y="94.701991"/>
     <use style="fill:#348abd;fill-opacity:0.3;stroke:#348abd;stroke-opacity:0.3;" x="555" xlink:href="#m4edb3d07ee" y="90.117485"/>
     <use style="fill:#348abd;fill-opacity:0.3;stroke:#348abd;stroke-opacity:0.3;" x="558.07438" xlink:href="#m4edb3d07ee" y="93.468513"/>
     <use style="fill:#348abd;fill-opacity:0.3;stroke:#348abd;stroke-opacity:0.3;" x="561.14876" xlink:href="#m4edb3d07ee" y="81.165554"/>
     <use style="fill:#348abd;fill-opacity:0.3;stroke:#348abd;stroke-opacity:0.3;" x="564.22314" xlink:href="#m4edb3d07ee" y="85.0266"/>
     <use style="fill:#348abd;fill-opacity:0.3;stroke:#348abd;stroke-opacity:0.3;" x="567.297521" xlink:href="#m4edb3d07ee" y="92.323496"/>
     <use style="fill:#348abd;fill-opacity:0.3;stroke:#348abd;stroke-opacity:0.3;" x="570.371901" xlink:href="#m4edb3d07ee" y="85.408007"/>
     <use style="fill:#348abd;fill-opacity:0.3;stroke:#348abd;stroke-opacity:0.3;" x="573.446281" xlink:href="#m4edb3d07ee" y="89.040056"/>
     <use style="fill:#348abd;fill-opacity:0.3;stroke:#348abd;stroke-opacity:0.3;" x="576.520661" xlink:href="#m4edb3d07ee" y="99.279958"/>
     <use style="fill:#348abd;fill-opacity:0.3;stroke:#348abd;stroke-opacity:0.3;" x="579.595041" xlink:href="#m4edb3d07ee" y="102.106516"/>
     <use style="fill:#348abd;fill-opacity:0.3;stroke:#348abd;stroke-opacity:0.3;" x="582.669421" xlink:href="#m4edb3d07ee" y="101.426123"/>
     <use style="fill:#348abd;fill-opacity:0.3;stroke:#348abd;stroke-opacity:0.3;" x="585.743802" xlink:href="#m4edb3d07ee" y="89.259419"/>
     <use style="fill:#348abd;fill-opacity:0.3;stroke:#348abd;stroke-opacity:0.3;" x="588.818182" xlink:href="#m4edb3d07ee" y="94.518627"/>
     <use style="fill:#348abd;fill-opacity:0.3;stroke:#348abd;stroke-opacity:0.3;" x="591.892562" xlink:href="#m4edb3d07ee" y="85.236134"/>
     <use style="fill:#348abd;fill-opacity:0.3;stroke:#348abd;stroke-opacity:0.3;" x="594.966942" xlink:href="#m4edb3d07ee" y="75.757911"/>
     <use style="fill:#348abd;fill-opacity:0.3;stroke:#348abd;stroke-opacity:0.3;" x="598.041322" xlink:href="#m4edb3d07ee" y="85.278604"/>
     <use style="fill:#348abd;fill-opacity:0.3;stroke:#348abd;stroke-opacity:0.3;" x="601.115702" xlink:href="#m4edb3d07ee" y="82.944835"/>
     <use style="fill:#348abd;fill-opacity:0.3;stroke:#348abd;stroke-opacity:0.3;" x="604.190083" xlink:href="#m4edb3d07ee" y="76.474354"/>
     <use style="fill:#348abd;fill-opacity:0.3;stroke:#348abd;stroke-opacity:0.3;" x="607.264463" xlink:href="#m4edb3d07ee" y="80.656744"/>
     <use style="fill:#348abd;fill-opacity:0.3;stroke:#348abd;stroke-opacity:0.3;" x="610.338843" xlink:href="#m4edb3d07ee" y="87.733494"/>
     <use style="fill:#348abd;fill-opacity:0.3;stroke:#348abd;stroke-opacity:0.3;" x="613.413223" xlink:href="#m4edb3d07ee" y="88.799103"/>
     <use style="fill:#348abd;fill-opacity:0.3;stroke:#348abd;stroke-opacity:0.3;" x="616.487603" xlink:href="#m4edb3d07ee" y="84.760255"/>
     <use style="fill:#348abd;fill-opacity:0.3;stroke:#348abd;stroke-opacity:0.3;" x="619.561983" xlink:href="#m4edb3d07ee" y="87.18982"/>
     <use style="fill:#348abd;fill-opacity:0.3;stroke:#348abd;stroke-opacity:0.3;" x="622.636364" xlink:href="#m4edb3d07ee" y="90.884331"/>
    </g>
   </g>
   <g id="line2d_29">
    <path clip-path="url(#pbfeea617bc)" d="M 118.438017 101.807598 
L 121.512397 75.674729 
L 124.586777 58.16936 
L 127.661157 37.986885 
L 130.735537 22.694226 
L 133.809917 15.432014 
L 136.884298 20.6389 
L 139.958678 32.494914 
L 143.033058 53.652216 
L 146.107438 64.073563 
L 149.181818 76.974194 
L 155.330579 96.850956 
L 158.404959 104.517304 
L 161.479339 110.482968 
L 164.553719 116.071614 
L 167.628099 124.894589 
L 170.702479 132.503277 
L 173.77686 138.757582 
L 176.85124 137.949305 
L 179.92562 133.360867 
L 181.890454 -1 
M 211.032857 -1 
L 213.743802 9.935247 
L 216.818182 18.265947 
L 219.892562 24.107315 
L 222.966942 32.284941 
L 226.041322 42.207473 
L 229.115702 52.844218 
L 235.264463 75.540734 
L 241.413223 98.059259 
L 247.561983 116.807021 
L 250.636364 124.204582 
L 253.710744 130.189451 
L 256.785124 134.952162 
L 259.859504 138.13579 
L 262.933884 139.131002 
L 266.008264 137.359738 
L 269.082645 131.057375 
L 272.157025 124.127509 
L 275.231405 114.772324 
L 278.305785 105.009813 
L 281.380165 97.558696 
L 284.454545 92.306878 
L 287.528926 89.554818 
L 290.603306 89.759937 
L 293.677686 90.752151 
L 296.752066 93.786972 
L 299.826446 95.761064 
L 302.900826 96.004265 
L 305.975207 95.165785 
L 312.123967 89.237947 
L 315.198347 87.084002 
L 318.272727 86.806673 
L 321.347107 88.724142 
L 324.421488 92.308659 
L 327.495868 96.918395 
L 330.570248 101.738417 
L 336.719008 109.752591 
L 342.867769 117.55859 
L 345.942149 120.783973 
L 349.016529 123.395698 
L 352.090909 124.244014 
L 355.165289 123.153777 
L 358.239669 120.963827 
L 361.31405 117.920119 
L 364.38843 115.055073 
L 367.46281 113.038148 
L 370.53719 112.806223 
L 373.61157 114.129026 
L 376.68595 116.100399 
L 379.760331 118.319071 
L 382.834711 119.861504 
L 385.909091 119.888082 
L 388.983471 117.570074 
L 398.206612 103.61822 
L 401.280992 100.994521 
L 404.355372 100.338743 
L 407.429752 100.796498 
L 410.504132 102.266741 
L 413.578512 104.055069 
L 416.652893 105.984862 
L 419.727273 107.457157 
L 422.801653 105.562208 
L 425.876033 97.736267 
L 428.950413 82.826566 
L 435.099174 46.187028 
L 438.173554 33.478015 
L 441.247934 29.699428 
L 444.322314 34.27567 
L 447.396694 45.379173 
L 456.619835 87.847609 
L 459.694215 98.644858 
L 462.768595 105.114204 
L 465.842975 107.235991 
L 468.917355 105.532552 
L 471.991736 101.597065 
L 475.066116 96.31751 
L 478.140496 90.793269 
L 481.214876 82.706764 
L 484.289256 74.219839 
L 487.363636 65.299318 
L 490.438017 58.67601 
L 493.512397 55.779169 
L 496.586777 57.613363 
L 499.661157 63.173921 
L 502.735537 71.450763 
L 505.809917 79.041476 
L 508.884298 86.22994 
L 511.958678 90.820797 
L 515.033058 93.07673 
L 518.107438 92.692757 
L 521.181818 90.64707 
L 524.256198 88.100503 
L 527.330579 86.306524 
L 530.404959 85.724715 
L 533.479339 86.855219 
L 536.553719 88.545446 
L 542.702479 92.811419 
L 545.77686 94.202002 
L 548.85124 94.945941 
L 551.92562 94.01404 
L 558.07438 89.964898 
L 561.14876 88.131491 
L 564.22314 87.477131 
L 567.297521 88.288504 
L 570.371901 90.061738 
L 573.446281 93.030736 
L 576.520661 95.138087 
L 579.595041 96.337162 
L 582.669421 96.043952 
L 585.743802 93.495122 
L 591.892562 86.706847 
L 594.966942 83.779853 
L 598.041322 82.18223 
L 601.115702 81.410699 
L 604.190083 81.95023 
L 610.338843 84.347472 
L 613.413223 85.829025 
L 616.487603 87.059724 
L 619.561983 87.803669 
L 622.636364 88.164829 
L 622.636364 88.164829 
" style="fill:none;stroke:#348abd;stroke-linecap:square;stroke-opacity:0.7;stroke-width:3;"/>
   </g>
   <g id="line2d_30">
    <path clip-path="url(#pbfeea617bc)" d="M 144.125117 -1 
L 146.107438 25.853257 
L 149.181818 81.350433 
L 152.256198 134.373644 
L 155.330579 145.338346 
L 158.404959 160.225774 
L 161.479339 171.410635 
L 162.910596 181 
M 180.00953 181 
L 180.568425 -1 
M 230.942481 -1 
L 232.190083 27.317214 
L 235.264463 78.973181 
L 238.338843 118.867539 
L 241.413223 156.767143 
L 244.526825 181 
M 271.201943 181 
L 272.157025 171.706711 
L 275.231405 147.967947 
L 278.305785 109.834075 
L 281.380165 88.329336 
L 284.454545 72.192854 
L 287.528926 63.594501 
L 290.603306 90.533927 
L 293.677686 104.759646 
L 296.752066 116.339691 
L 299.826446 124.277726 
L 302.900826 109.875579 
L 309.049587 78.025161 
L 312.123967 58.943514 
L 315.198347 62.055089 
L 318.272727 78.337298 
L 321.347107 95.894357 
L 324.421488 115.040486 
L 327.495868 132.114603 
L 330.570248 143.185431 
L 333.644628 156.022149 
L 336.719008 171.11667 
L 339.495949 181 
M 358.407401 181 
L 361.31405 170.57115 
L 364.38843 163.385067 
L 367.46281 161.116077 
L 370.53719 166.896736 
L 373.61157 177.703996 
L 374.860952 181 
M 386.936356 181 
L 388.983471 172.059954 
L 392.057851 149.119139 
L 395.132231 127.056983 
L 398.206612 118.410852 
L 401.280992 120.417972 
L 404.355372 129.581871 
L 407.429752 135.298457 
L 410.504132 139.673053 
L 413.578512 142.095981 
L 416.652893 148.608554 
L 419.727273 156.164451 
L 422.801653 141.281368 
L 425.876033 92.189279 
L 428.747774 -1 
M 449.545137 -1 
L 450.471074 26.105796 
L 453.545455 92.82559 
L 456.619835 134.42778 
L 459.694215 156.011014 
L 462.768595 160.601855 
L 465.842975 149.601454 
L 468.917355 133.156814 
L 471.991736 108.551427 
L 475.066116 82.346561 
L 478.140496 62.907931 
L 481.214876 24.23776 
L 482.843201 -1 
M 499.869891 -1 
L 502.735537 45.449748 
L 505.809917 80.541775 
L 508.884298 102.970909 
L 511.958678 112.139321 
L 515.033058 103.274778 
L 518.107438 84.284108 
L 521.181818 67.467415 
L 524.256198 62.523801 
L 527.330579 66.210234 
L 530.404959 73.599116 
L 533.479339 81.496801 
L 536.553719 85.570705 
L 539.628099 95.189599 
L 542.702479 105.811505 
L 545.77686 107.783686 
L 548.85124 108.750318 
L 551.92562 100.083914 
L 555 83.102479 
L 558.07438 75.707553 
L 561.14876 65.73213 
L 564.22314 66.652541 
L 567.297521 83.979121 
L 570.371901 96.114745 
L 573.446281 113.551242 
L 576.520661 123.986219 
L 579.595041 115.284477 
L 582.669421 103.322809 
L 588.818182 62.678037 
L 591.892562 56.056686 
L 594.966942 50.201838 
L 598.041322 48.003633 
L 601.115702 50.58059 
L 601.115702 50.58059 
" style="fill:none;stroke:#8eba42;stroke-linecap:square;stroke-width:4.5;"/>
   </g>
   <g id="line2d_31">
    <path clip-path="url(#pbfeea617bc)" d="M 115.363636 91.490917 
L 622.636364 91.490917 
" style="fill:none;stroke:#777777;stroke-linecap:square;stroke-width:1.5;"/>
   </g>
   <g id="patch_3">
    <path d="M 90 157.5 
L 90 21.6 
" style="fill:none;stroke:#ffffff;stroke-linecap:square;stroke-linejoin:miter;"/>
   </g>
   <g id="patch_4">
    <path d="M 648 157.5 
L 648 21.6 
" style="fill:none;stroke:#ffffff;stroke-linecap:square;stroke-linejoin:miter;"/>
   </g>
   <g id="patch_5">
    <path d="M 90 157.5 
L 648 157.5 
" style="fill:none;stroke:#ffffff;stroke-linecap:square;stroke-linejoin:miter;"/>
   </g>
   <g id="patch_6">
    <path d="M 90 21.6 
L 648 21.6 
" style="fill:none;stroke:#ffffff;stroke-linecap:square;stroke-linejoin:miter;"/>
   </g>
   <g id="legend_1">
    <g id="patch_7">
     <path d="M 97 71.501562 
L 394 71.501562 
Q 396 71.501562 396 69.501562 
L 396 28.6 
Q 396 26.6 394 26.6 
L 97 26.6 
Q 95 26.6 95 28.6 
L 95 69.501562 
Q 95 71.501562 97 71.501562 
z
" style="fill:#e5e5e5;opacity:0.8;stroke:#cccccc;stroke-linejoin:miter;stroke-width:0.5;"/>
    </g>
    <g id="line2d_32"/>
    <g id="line2d_33">
     <g>
      <use style="fill:#348abd;fill-opacity:0.3;stroke:#348abd;stroke-opacity:0.3;" x="109" xlink:href="#m4edb3d07ee" y="34.1"/>
     </g>
    </g>
    <g id="text_18">
     <!-- Korea, South cases daily growth factor  -->
     <defs>
      <path d="M 16.59375 31.203125 
L 11.703125 25.796875 
L 11.703125 0 
L 4.203125 0 
L 4.203125 62.296875 
L 12.59375 62.296875 
L 12.59375 61.59375 
Q 12 61 11.84375 60.296875 
Q 11.703125 59.59375 11.703125 57.90625 
L 11.703125 33.59375 
L 37.703125 62.796875 
Q 38.796875 62.59375 40.09375 62.4375 
Q 41.40625 62.296875 42.90625 62.296875 
L 45.5 62.296875 
L 21.90625 35.40625 
L 47.09375 0 
L 38.09375 -0.40625 
z
" id="Inconsolata-Regular-75"/>
      <path d="M 19.90625 -16.796875 
L 16.5 -13.796875 
Q 19.296875 -11.203125 21.140625 -8.203125 
Q 23 -5.203125 23 -3.296875 
Q 23 -1.90625 21.75 -0.84375 
Q 20.5 0.203125 19.203125 1.390625 
Q 17.90625 2.59375 17.90625 4.40625 
Q 17.90625 6.90625 19.546875 8.59375 
Q 21.203125 10.296875 23.796875 10.296875 
Q 26.40625 10.296875 28.5 8 
Q 30.59375 5.703125 30.59375 2 
Q 30.59375 -5.796875 19.90625 -16.796875 
z
" id="Inconsolata-Regular-44"/>
      <path d="M 24.703125 -1 
Q 12.59375 -1 5.203125 6.90625 
L 8.796875 13.203125 
L 9.203125 14.09375 
L 9.90625 13.703125 
Q 10.09375 13 10.390625 12.140625 
Q 10.703125 11.296875 11.796875 10.09375 
Q 14.40625 7.90625 17.84375 6.59375 
Q 21.296875 5.296875 25.703125 5.296875 
Q 31.296875 5.296875 34.9375 8.4375 
Q 38.59375 11.59375 38.59375 16 
Q 38.59375 18.90625 37.4375 20.90625 
Q 36.296875 22.90625 33.25 24.796875 
Q 30.203125 26.703125 24.296875 29.203125 
Q 14.59375 33 10.890625 37.703125 
Q 7.203125 42.40625 7.203125 47.703125 
Q 7.203125 54.59375 12.296875 58.84375 
Q 17.40625 63.09375 26.203125 63.09375 
Q 31.296875 63.09375 35.796875 61.046875 
Q 40.296875 59 43.5 55.296875 
L 39 49.296875 
L 38.40625 49.703125 
Q 38.296875 50.5 38 51.296875 
Q 37.703125 52.09375 36.59375 53.296875 
Q 34.203125 55.59375 31.5 56.4375 
Q 28.796875 57.296875 25.09375 57.296875 
Q 20.203125 57.296875 17.296875 54.59375 
Q 14.40625 51.90625 14.40625 48.203125 
Q 14.40625 45.40625 15.65625 43.25 
Q 16.90625 41.09375 20.203125 39 
Q 23.5 36.90625 29.796875 34.40625 
Q 35.90625 31.90625 39.296875 29.34375 
Q 42.703125 26.796875 44.09375 23.84375 
Q 45.5 20.90625 45.5 17 
Q 45.5 12.703125 43.34375 8.546875 
Q 41.203125 4.40625 36.59375 1.703125 
Q 32 -1 24.703125 -1 
z
" id="Inconsolata-Regular-83"/>
      <path d="M 22.09375 -1.09375 
Q 15.296875 -1.09375 10.796875 4 
Q 6.296875 9.09375 6.40625 20.203125 
L 6.5 45.703125 
L 13.5 45.703125 
L 13.5 20.203125 
Q 13.5 11.5 16.546875 8.09375 
Q 19.59375 4.703125 23.90625 4.703125 
Q 27.09375 4.703125 29.890625 6.390625 
Q 32.703125 8.09375 34.453125 11.59375 
Q 36.203125 15.09375 36.203125 20.5 
L 36.203125 45.703125 
L 43.203125 45.703125 
L 43.203125 7.09375 
Q 43.203125 5.296875 43.34375 3.546875 
Q 43.5 1.796875 44.203125 0 
L 37.296875 0 
Q 36.59375 1.703125 36.4375 3.5 
Q 36.296875 5.296875 36.296875 7 
Q 34.09375 3.203125 30.34375 1.046875 
Q 26.59375 -1.09375 22.09375 -1.09375 
z
" id="Inconsolata-Regular-117"/>
      <path d="M 10 0 
L 10 5.796875 
L 21.703125 5.796875 
L 21.703125 39.90625 
L 10.59375 39.90625 
L 10.59375 45.703125 
L 28.90625 45.703125 
L 28.90625 5.796875 
L 39.59375 5.796875 
L 39.59375 0 
z
M 24.90625 55.296875 
Q 22.796875 55.296875 21.296875 56.796875 
Q 19.796875 58.296875 19.796875 60.40625 
Q 19.796875 62.59375 21.25 64.09375 
Q 22.703125 65.59375 24.90625 65.59375 
Q 27 65.59375 28.546875 64.046875 
Q 30.09375 62.5 30.09375 60.40625 
Q 30.09375 58.296875 28.546875 56.796875 
Q 27 55.296875 24.90625 55.296875 
z
" id="Inconsolata-Regular-105"/>
      <path d="M 7.90625 0 
L 7.90625 5.796875 
L 21.40625 5.796875 
L 21.40625 60.703125 
L 8.5 60.703125 
L 8.5 66.5 
L 28.703125 66.5 
L 28.703125 5.796875 
L 42.09375 5.796875 
L 42.09375 0 
z
" id="Inconsolata-Regular-108"/>
      <path d="M 12.703125 -17.40625 
Q 6.296875 -17.40625 2.203125 -13.5 
L 5.296875 -8.59375 
L 5.90625 -7.703125 
L 6.5 -8.09375 
Q 6.703125 -8.90625 7.203125 -9.453125 
Q 7.703125 -10 9.09375 -10.90625 
Q 10.90625 -11.5 13.09375 -11.5 
Q 17 -11.5 19.203125 -8.75 
Q 21.40625 -6 23.296875 -0.296875 
L 4.59375 45.703125 
L 12.09375 45.703125 
L 26.296875 9.09375 
L 32.296875 27.5 
Q 33.796875 32.09375 35.1875 36.59375 
Q 36.59375 41.09375 37.09375 45.703125 
L 44.296875 45.703125 
Q 43.59375 41.09375 42.09375 36.390625 
Q 40.59375 31.703125 38.90625 27 
L 27.5 -5.203125 
Q 25.09375 -11.90625 21.34375 -14.65625 
Q 17.59375 -17.40625 12.703125 -17.40625 
z
" id="Inconsolata-Regular-121"/>
     </defs>
     <g transform="translate(127 37.6)scale(0.1 -0.1)">
      <use xlink:href="#Inconsolata-Regular-75"/>
      <use x="49.999985" xlink:href="#Inconsolata-Regular-111"/>
      <use x="99.999969" xlink:href="#Inconsolata-Regular-114"/>
      <use x="149.999954" xlink:href="#Inconsolata-Regular-101"/>
      <use x="199.999939" xlink:href="#Inconsolata-Regular-97"/>
      <use x="249.999924" xlink:href="#Inconsolata-Regular-44"/>
      <use x="299.999908" xlink:href="#Inconsolata-Regular-32"/>
      <use x="349.999893" xlink:href="#Inconsolata-Regular-83"/>
      <use x="399.999878" xlink:href="#Inconsolata-Regular-111"/>
      <use x="449.999863" xlink:href="#Inconsolata-Regular-117"/>
      <use x="499.999847" xlink:href="#Inconsolata-Regular-116"/>
      <use x="549.999832" xlink:href="#Inconsolata-Regular-104"/>
      <use x="599.999817" xlink:href="#Inconsolata-Regular-32"/>
      <use x="649.999802" xlink:href="#Inconsolata-Regular-99"/>
      <use x="699.999786" xlink:href="#Inconsolata-Regular-97"/>
      <use x="749.999771" xlink:href="#Inconsolata-Regular-115"/>
      <use x="799.999756" xlink:href="#Inconsolata-Regular-101"/>
      <use x="849.999741" xlink:href="#Inconsolata-Regular-115"/>
      <use x="899.999725" xlink:href="#Inconsolata-Regular-32"/>
      <use x="949.99971" xlink:href="#Inconsolata-Regular-100"/>
      <use x="999.999695" xlink:href="#Inconsolata-Regular-97"/>
      <use x="1049.99968" xlink:href="#Inconsolata-Regular-105"/>
      <use x="1099.999664" xlink:href="#Inconsolata-Regular-108"/>
      <use x="1149.999649" xlink:href="#Inconsolata-Regular-121"/>
      <use x="1199.999634" xlink:href="#Inconsolata-Regular-32"/>
      <use x="1249.999619" xlink:href="#Inconsolata-Regular-103"/>
      <use x="1299.999603" xlink:href="#Inconsolata-Regular-114"/>
      <use x="1349.999588" xlink:href="#Inconsolata-Regular-111"/>
      <use x="1399.999573" xlink:href="#Inconsolata-Regular-119"/>
      <use x="1449.999557" xlink:href="#Inconsolata-Regular-116"/>
      <use x="1499.999542" xlink:href="#Inconsolata-Regular-104"/>
      <use x="1549.999527" xlink:href="#Inconsolata-Regular-32"/>
      <use x="1599.999512" xlink:href="#Inconsolata-Regular-102"/>
      <use x="1649.999496" xlink:href="#Inconsolata-Regular-97"/>
      <use x="1699.999481" xlink:href="#Inconsolata-Regular-99"/>
      <use x="1749.999466" xlink:href="#Inconsolata-Regular-116"/>
      <use x="1799.999451" xlink:href="#Inconsolata-Regular-111"/>
      <use x="1849.999435" xlink:href="#Inconsolata-Regular-114"/>
      <use x="1899.99942" xlink:href="#Inconsolata-Regular-32"/>
     </g>
    </g>
    <g id="line2d_34">
     <path d="M 99 48.190625 
L 119 48.190625 
" style="fill:none;stroke:#348abd;stroke-linecap:square;stroke-opacity:0.7;stroke-width:3;"/>
    </g>
    <g id="line2d_35"/>
    <g id="text_19">
     <!-- Korea, South cases daily growth factor (rolling mean) -->
     <defs>
      <path d="M 3.796875 0 
L 3.796875 45.703125 
L 10.40625 45.703125 
L 10.40625 41.203125 
Q 12 43.703125 14.5 45.25 
Q 17 46.796875 19.703125 46.796875 
Q 22.703125 46.796875 24.953125 44.890625 
Q 27.203125 43 27.796875 40.09375 
Q 29.09375 43.09375 31.890625 44.9375 
Q 34.703125 46.796875 38.09375 46.796875 
Q 42.796875 46.796875 44.9375 43.4375 
Q 47.09375 40.09375 46.90625 35.09375 
L 46.90625 0 
L 40.296875 0 
L 40.296875 32.40625 
Q 40.296875 36.59375 39.75 38.5 
Q 39.203125 40.40625 38.203125 40.953125 
Q 37.203125 41.5 36 41.5 
Q 34.09375 41.5 32.4375 39.75 
Q 30.796875 38 29.75 35.390625 
Q 28.703125 32.796875 28.703125 30.203125 
L 28.703125 0 
L 22 0 
L 22 31.796875 
Q 22 37.5 20.953125 39.390625 
Q 19.90625 41.296875 17 41.296875 
Q 14.796875 41.296875 12.59375 38.4375 
Q 10.40625 35.59375 10.40625 30.5 
L 10.40625 0 
z
" id="Inconsolata-Regular-109"/>
     </defs>
     <g transform="translate(127 51.690625)scale(0.1 -0.1)">
      <use xlink:href="#Inconsolata-Regular-75"/>
      <use x="49.999985" xlink:href="#Inconsolata-Regular-111"/>
      <use x="99.999969" xlink:href="#Inconsolata-Regular-114"/>
      <use x="149.999954" xlink:href="#Inconsolata-Regular-101"/>
      <use x="199.999939" xlink:href="#Inconsolata-Regular-97"/>
      <use x="249.999924" xlink:href="#Inconsolata-Regular-44"/>
      <use x="299.999908" xlink:href="#Inconsolata-Regular-32"/>
      <use x="349.999893" xlink:href="#Inconsolata-Regular-83"/>
      <use x="399.999878" xlink:href="#Inconsolata-Regular-111"/>
      <use x="449.999863" xlink:href="#Inconsolata-Regular-117"/>
      <use x="499.999847" xlink:href="#Inconsolata-Regular-116"/>
      <use x="549.999832" xlink:href="#Inconsolata-Regular-104"/>
      <use x="599.999817" xlink:href="#Inconsolata-Regular-32"/>
      <use x="649.999802" xlink:href="#Inconsolata-Regular-99"/>
      <use x="699.999786" xlink:href="#Inconsolata-Regular-97"/>
      <use x="749.999771" xlink:href="#Inconsolata-Regular-115"/>
      <use x="799.999756" xlink:href="#Inconsolata-Regular-101"/>
      <use x="849.999741" xlink:href="#Inconsolata-Regular-115"/>
      <use x="899.999725" xlink:href="#Inconsolata-Regular-32"/>
      <use x="949.99971" xlink:href="#Inconsolata-Regular-100"/>
      <use x="999.999695" xlink:href="#Inconsolata-Regular-97"/>
      <use x="1049.99968" xlink:href="#Inconsolata-Regular-105"/>
      <use x="1099.999664" xlink:href="#Inconsolata-Regular-108"/>
      <use x="1149.999649" xlink:href="#Inconsolata-Regular-121"/>
      <use x="1199.999634" xlink:href="#Inconsolata-Regular-32"/>
      <use x="1249.999619" xlink:href="#Inconsolata-Regular-103"/>
      <use x="1299.999603" xlink:href="#Inconsolata-Regular-114"/>
      <use x="1349.999588" xlink:href="#Inconsolata-Regular-111"/>
      <use x="1399.999573" xlink:href="#Inconsolata-Regular-119"/>
      <use x="1449.999557" xlink:href="#Inconsolata-Regular-116"/>
      <use x="1499.999542" xlink:href="#Inconsolata-Regular-104"/>
      <use x="1549.999527" xlink:href="#Inconsolata-Regular-32"/>
      <use x="1599.999512" xlink:href="#Inconsolata-Regular-102"/>
      <use x="1649.999496" xlink:href="#Inconsolata-Regular-97"/>
      <use x="1699.999481" xlink:href="#Inconsolata-Regular-99"/>
      <use x="1749.999466" xlink:href="#Inconsolata-Regular-116"/>
      <use x="1799.999451" xlink:href="#Inconsolata-Regular-111"/>
      <use x="1849.999435" xlink:href="#Inconsolata-Regular-114"/>
      <use x="1899.99942" xlink:href="#Inconsolata-Regular-32"/>
      <use x="1949.999405" xlink:href="#Inconsolata-Regular-40"/>
      <use x="1999.99939" xlink:href="#Inconsolata-Regular-114"/>
      <use x="2049.999374" xlink:href="#Inconsolata-Regular-111"/>
      <use x="2099.999359" xlink:href="#Inconsolata-Regular-108"/>
      <use x="2149.999344" xlink:href="#Inconsolata-Regular-108"/>
      <use x="2199.999329" xlink:href="#Inconsolata-Regular-105"/>
      <use x="2249.999313" xlink:href="#Inconsolata-Regular-110"/>
      <use x="2299.999298" xlink:href="#Inconsolata-Regular-103"/>
      <use x="2349.999283" xlink:href="#Inconsolata-Regular-32"/>
      <use x="2399.999268" xlink:href="#Inconsolata-Regular-109"/>
      <use x="2449.999252" xlink:href="#Inconsolata-Regular-101"/>
      <use x="2499.999237" xlink:href="#Inconsolata-Regular-97"/>
      <use x="2549.999222" xlink:href="#Inconsolata-Regular-110"/>
      <use x="2599.999207" xlink:href="#Inconsolata-Regular-41"/>
     </g>
    </g>
    <g id="line2d_36">
     <path d="M 99 62.28125 
L 119 62.28125 
" style="fill:none;stroke:#8eba42;stroke-linecap:square;stroke-width:4.5;"/>
    </g>
    <g id="line2d_37"/>
    <g id="text_20">
     <!-- Korea, South estimated R (using cases) -->
     <g transform="translate(127 65.78125)scale(0.1 -0.1)">
      <use xlink:href="#Inconsolata-Regular-75"/>
      <use x="49.999985" xlink:href="#Inconsolata-Regular-111"/>
      <use x="99.999969" xlink:href="#Inconsolata-Regular-114"/>
      <use x="149.999954" xlink:href="#Inconsolata-Regular-101"/>
      <use x="199.999939" xlink:href="#Inconsolata-Regular-97"/>
      <use x="249.999924" xlink:href="#Inconsolata-Regular-44"/>
      <use x="299.999908" xlink:href="#Inconsolata-Regular-32"/>
      <use x="349.999893" xlink:href="#Inconsolata-Regular-83"/>
      <use x="399.999878" xlink:href="#Inconsolata-Regular-111"/>
      <use x="449.999863" xlink:href="#Inconsolata-Regular-117"/>
      <use x="499.999847" xlink:href="#Inconsolata-Regular-116"/>
      <use x="549.999832" xlink:href="#Inconsolata-Regular-104"/>
      <use x="599.999817" xlink:href="#Inconsolata-Regular-32"/>
      <use x="649.999802" xlink:href="#Inconsolata-Regular-101"/>
      <use x="699.999786" xlink:href="#Inconsolata-Regular-115"/>
      <use x="749.999771" xlink:href="#Inconsolata-Regular-116"/>
      <use x="799.999756" xlink:href="#Inconsolata-Regular-105"/>
      <use x="849.999741" xlink:href="#Inconsolata-Regular-109"/>
      <use x="899.999725" xlink:href="#Inconsolata-Regular-97"/>
      <use x="949.99971" xlink:href="#Inconsolata-Regular-116"/>
      <use x="999.999695" xlink:href="#Inconsolata-Regular-101"/>
      <use x="1049.99968" xlink:href="#Inconsolata-Regular-100"/>
      <use x="1099.999664" xlink:href="#Inconsolata-Regular-32"/>
      <use x="1149.999649" xlink:href="#Inconsolata-Regular-82"/>
      <use x="1199.999634" xlink:href="#Inconsolata-Regular-32"/>
      <use x="1249.999619" xlink:href="#Inconsolata-Regular-40"/>
      <use x="1299.999603" xlink:href="#Inconsolata-Regular-117"/>
      <use x="1349.999588" xlink:href="#Inconsolata-Regular-115"/>
      <use x="1399.999573" xlink:href="#Inconsolata-Regular-105"/>
      <use x="1449.999557" xlink:href="#Inconsolata-Regular-110"/>
      <use x="1499.999542" xlink:href="#Inconsolata-Regular-103"/>
      <use x="1549.999527" xlink:href="#Inconsolata-Regular-32"/>
      <use x="1599.999512" xlink:href="#Inconsolata-Regular-99"/>
      <use x="1649.999496" xlink:href="#Inconsolata-Regular-97"/>
      <use x="1699.999481" xlink:href="#Inconsolata-Regular-115"/>
      <use x="1749.999466" xlink:href="#Inconsolata-Regular-101"/>
      <use x="1799.999451" xlink:href="#Inconsolata-Regular-115"/>
      <use x="1849.999435" xlink:href="#Inconsolata-Regular-41"/>
     </g>
    </g>
   </g>
  </g>
 </g>
 <defs>
  <clipPath id="pbfeea617bc">
   <rect height="135.9" width="558" x="90" y="21.6"/>
  </clipPath>
 </defs>
</svg>
