<?xml version="1.0" encoding="utf-8" standalone="no"?>
<!DOCTYPE svg PUBLIC "-//W3C//DTD SVG 1.1//EN"
  "http://www.w3.org/Graphics/SVG/1.1/DTD/svg11.dtd">
<!-- Created with matplotlib (https://matplotlib.org/) -->
<svg height="180pt" version="1.1" viewBox="0 0 864 180" width="864pt" xmlns="http://www.w3.org/2000/svg" xmlns:xlink="http://www.w3.org/1999/xlink">
 <defs>
  <style type="text/css">
*{stroke-linecap:butt;stroke-linejoin:round;}
  </style>
 </defs>
 <g id="figure_1">
  <g id="patch_1">
   <path d="M 0 180 
L 864 180 
L 864 0 
L 0 0 
z
" style="fill:#ffffff;"/>
  </g>
  <g id="axes_1">
   <g id="patch_2">
    <path d="M 51.8 153.2 
L 826.2 153.2 
L 826.2 10.8 
L 51.8 10.8 
z
" style="fill:#e5e5e5;"/>
   </g>
   <g id="matplotlib.axis_1">
    <g id="xtick_1">
     <g id="line2d_1">
      <path clip-path="url(#p1ea316b59f)" d="M 126.437426 153.2 
L 126.437426 10.8 
" style="fill:none;stroke:#ffffff;stroke-linecap:square;stroke-width:0.8;"/>
     </g>
     <g id="line2d_2">
      <defs>
       <path d="M 0 0 
L 0 3.5 
" id="m51265ff638" style="stroke:#555555;stroke-width:0.8;"/>
      </defs>
      <g>
       <use style="fill:#555555;stroke:#555555;stroke-width:0.8;" x="126.437426" xlink:href="#m51265ff638" y="153.2"/>
      </g>
     </g>
     <g id="text_1">
      <!-- 2020-02 -->
      <defs>
       <path d="M 7.296875 5.59375 
Q 14 12.5 19.390625 17.84375 
Q 24.796875 23.203125 28.59375 27.640625 
Q 32.40625 32.09375 34.40625 36.296875 
Q 36.40625 40.5 36.40625 45.09375 
Q 36.40625 51.59375 33.296875 54.09375 
Q 30.203125 56.59375 25.796875 56.59375 
Q 22.203125 56.59375 19.046875 55.046875 
Q 15.90625 53.5 13.296875 50.296875 
Q 12.40625 48.90625 12.203125 48.15625 
Q 12 47.40625 12.09375 46.59375 
L 11.703125 46.09375 
L 10.90625 46.59375 
L 5.796875 50.59375 
Q 8.796875 56.40625 14.046875 59.546875 
Q 19.296875 62.703125 25.703125 62.703125 
Q 33.59375 62.703125 38.59375 57.953125 
Q 43.59375 53.203125 43.59375 44.90625 
Q 43.59375 39.703125 41.296875 35 
Q 39 30.296875 35.140625 25.6875 
Q 31.296875 21.09375 26.390625 16.296875 
Q 21.5 11.5 16.296875 6.09375 
L 39.5 6.09375 
Q 41.203125 6.09375 41.890625 6.296875 
Q 42.59375 6.5 43.203125 7.09375 
L 43.90625 7.09375 
L 43.90625 0 
L 7.296875 0 
z
" id="Inconsolata-Regular-50"/>
       <path d="M 25 -1.09375 
Q 15.703125 -1.09375 10.703125 7.203125 
Q 5.703125 15.5 5.703125 30.796875 
Q 5.703125 45.59375 10.703125 54.140625 
Q 15.703125 62.703125 25 62.703125 
Q 34.296875 62.703125 39.296875 54.140625 
Q 44.296875 45.59375 44.296875 30.796875 
Q 44.296875 15.5 39.296875 7.203125 
Q 34.296875 -1.09375 25 -1.09375 
z
M 12.90625 30.796875 
Q 12.90625 24.40625 13.796875 19.40625 
L 35 46.703125 
Q 33.5 51.40625 30.953125 54 
Q 28.40625 56.59375 25 56.59375 
Q 19.296875 56.59375 16.09375 49.59375 
Q 12.90625 42.59375 12.90625 30.796875 
z
M 25 5 
Q 30.703125 5 33.890625 11.703125 
Q 37.09375 18.40625 37.09375 30.796875 
Q 37.09375 36.296875 36.40625 40.796875 
L 15.203125 13.90625 
Q 18.296875 5 25 5 
z
" id="Inconsolata-Regular-48"/>
       <path d="M 11.09375 28.09375 
L 11.09375 34.796875 
L 39.09375 34.796875 
L 39.09375 28.09375 
z
" id="Inconsolata-Regular-45"/>
      </defs>
      <g style="fill:#555555;" transform="translate(108.937426 166.85)scale(0.1 -0.1)">
       <use xlink:href="#Inconsolata-Regular-50"/>
       <use x="49.999985" xlink:href="#Inconsolata-Regular-48"/>
       <use x="99.999969" xlink:href="#Inconsolata-Regular-50"/>
       <use x="149.999954" xlink:href="#Inconsolata-Regular-48"/>
       <use x="199.999939" xlink:href="#Inconsolata-Regular-45"/>
       <use x="249.999924" xlink:href="#Inconsolata-Regular-48"/>
       <use x="299.999908" xlink:href="#Inconsolata-Regular-50"/>
      </g>
     </g>
    </g>
    <g id="xtick_2">
     <g id="line2d_3">
      <path clip-path="url(#p1ea316b59f)" d="M 248.106079 153.2 
L 248.106079 10.8 
" style="fill:none;stroke:#ffffff;stroke-linecap:square;stroke-width:0.8;"/>
     </g>
     <g id="line2d_4">
      <g>
       <use style="fill:#555555;stroke:#555555;stroke-width:0.8;" x="248.106079" xlink:href="#m51265ff638" y="153.2"/>
      </g>
     </g>
     <g id="text_2">
      <!-- 2020-03 -->
      <defs>
       <path d="M 24 -1.09375 
Q 19.09375 -1.09375 14.59375 0.703125 
Q 10.09375 2.5 6.90625 6 
L 11.5 11.5 
L 12.203125 12.296875 
L 12.703125 11.796875 
Q 12.796875 11 13.09375 10.25 
Q 13.40625 9.5 14.5 8.296875 
Q 16.203125 6.796875 18.390625 5.84375 
Q 20.59375 4.90625 23.703125 4.90625 
Q 29.703125 4.90625 32.59375 8.40625 
Q 35.5 11.90625 35.5 17.40625 
Q 35.5 24.5 30.75 27.453125 
Q 26 30.40625 18 29.59375 
L 18 35.203125 
Q 24.5 35.203125 27.796875 36.890625 
Q 31.09375 38.59375 32.25 41.4375 
Q 33.40625 44.296875 33.40625 47.5 
Q 33.40625 51.796875 30.953125 54.25 
Q 28.5 56.703125 24.5 56.703125 
Q 21.5 56.703125 18.640625 55.703125 
Q 15.796875 54.703125 13.09375 52.09375 
L 8.90625 56.296875 
Q 12.296875 59.796875 16.34375 61.25 
Q 20.40625 62.703125 24.40625 62.703125 
Q 32 62.703125 36.296875 58.390625 
Q 40.59375 54.09375 40.59375 47.203125 
Q 40.59375 42.296875 38.1875 38.4375 
Q 35.796875 34.59375 30.796875 33 
Q 36.09375 31.296875 39.390625 27.390625 
Q 42.703125 23.5 42.703125 17.09375 
Q 42.703125 12.203125 40.546875 8.046875 
Q 38.40625 3.90625 34.25 1.40625 
Q 30.09375 -1.09375 24 -1.09375 
z
" id="Inconsolata-Regular-51"/>
      </defs>
      <g style="fill:#555555;" transform="translate(230.606079 166.85)scale(0.1 -0.1)">
       <use xlink:href="#Inconsolata-Regular-50"/>
       <use x="49.999985" xlink:href="#Inconsolata-Regular-48"/>
       <use x="99.999969" xlink:href="#Inconsolata-Regular-50"/>
       <use x="149.999954" xlink:href="#Inconsolata-Regular-48"/>
       <use x="199.999939" xlink:href="#Inconsolata-Regular-45"/>
       <use x="249.999924" xlink:href="#Inconsolata-Regular-48"/>
       <use x="299.999908" xlink:href="#Inconsolata-Regular-51"/>
      </g>
     </g>
    </g>
    <g id="xtick_3">
     <g id="line2d_5">
      <path clip-path="url(#p1ea316b59f)" d="M 378.165673 153.2 
L 378.165673 10.8 
" style="fill:none;stroke:#ffffff;stroke-linecap:square;stroke-width:0.8;"/>
     </g>
     <g id="line2d_6">
      <g>
       <use style="fill:#555555;stroke:#555555;stroke-width:0.8;" x="378.165673" xlink:href="#m51265ff638" y="153.2"/>
      </g>
     </g>
     <g id="text_3">
      <!-- 2020-04 -->
      <defs>
       <path d="M 31.796875 0 
L 31.796875 15.296875 
L 4.796875 15.296875 
L 4.796875 20.40625 
L 33.296875 62.40625 
L 39.203125 62.40625 
L 39.203125 21.09375 
L 47.203125 21.09375 
L 47.203125 15.203125 
L 39.203125 15.203125 
L 39.203125 0 
z
M 12.90625 21.203125 
L 31.796875 21.203125 
L 31.796875 49.796875 
z
" id="Inconsolata-Regular-52"/>
      </defs>
      <g style="fill:#555555;" transform="translate(360.665673 166.85)scale(0.1 -0.1)">
       <use xlink:href="#Inconsolata-Regular-50"/>
       <use x="49.999985" xlink:href="#Inconsolata-Regular-48"/>
       <use x="99.999969" xlink:href="#Inconsolata-Regular-50"/>
       <use x="149.999954" xlink:href="#Inconsolata-Regular-48"/>
       <use x="199.999939" xlink:href="#Inconsolata-Regular-45"/>
       <use x="249.999924" xlink:href="#Inconsolata-Regular-48"/>
       <use x="299.999908" xlink:href="#Inconsolata-Regular-52"/>
      </g>
     </g>
    </g>
    <g id="xtick_4">
     <g id="line2d_7">
      <path clip-path="url(#p1ea316b59f)" d="M 504.029797 153.2 
L 504.029797 10.8 
" style="fill:none;stroke:#ffffff;stroke-linecap:square;stroke-width:0.8;"/>
     </g>
     <g id="line2d_8">
      <g>
       <use style="fill:#555555;stroke:#555555;stroke-width:0.8;" x="504.029797" xlink:href="#m51265ff638" y="153.2"/>
      </g>
     </g>
     <g id="text_4">
      <!-- 2020-05 -->
      <defs>
       <path d="M 24.90625 -1.09375 
Q 19.203125 -1.09375 14.34375 1.40625 
Q 9.5 3.90625 6.40625 8.5 
L 12.796875 13.296875 
L 13.203125 12.796875 
Q 13.09375 12 13.4375 11.296875 
Q 13.796875 10.59375 14.796875 9.296875 
Q 16.796875 7.09375 19.25 6.046875 
Q 21.703125 5 25.296875 5 
Q 28.5 5 31.25 6.796875 
Q 34 8.59375 35.703125 11.9375 
Q 37.40625 15.296875 37.40625 19.90625 
Q 37.40625 26.90625 33.65625 30.796875 
Q 29.90625 34.703125 24.59375 34.703125 
Q 21.40625 34.703125 18.296875 33.140625 
Q 15.203125 31.59375 12.90625 28.796875 
L 8.5 30.59375 
L 10.59375 62.296875 
L 42.203125 62.296875 
L 42.203125 56 
L 16.5 56 
L 15.5 38.09375 
Q 20.5 40.5 25.703125 40.5 
Q 31.09375 40.5 35.34375 37.953125 
Q 39.59375 35.40625 42.046875 30.703125 
Q 44.5 26 44.5 19.59375 
Q 44.5 13.203125 41.890625 8.546875 
Q 39.296875 3.90625 34.890625 1.40625 
Q 30.5 -1.09375 24.90625 -1.09375 
z
" id="Inconsolata-Regular-53"/>
      </defs>
      <g style="fill:#555555;" transform="translate(486.529797 166.85)scale(0.1 -0.1)">
       <use xlink:href="#Inconsolata-Regular-50"/>
       <use x="49.999985" xlink:href="#Inconsolata-Regular-48"/>
       <use x="99.999969" xlink:href="#Inconsolata-Regular-50"/>
       <use x="149.999954" xlink:href="#Inconsolata-Regular-48"/>
       <use x="199.999939" xlink:href="#Inconsolata-Regular-45"/>
       <use x="249.999924" xlink:href="#Inconsolata-Regular-48"/>
       <use x="299.999908" xlink:href="#Inconsolata-Regular-53"/>
      </g>
     </g>
    </g>
    <g id="xtick_5">
     <g id="line2d_9">
      <path clip-path="url(#p1ea316b59f)" d="M 634.089392 153.2 
L 634.089392 10.8 
" style="fill:none;stroke:#ffffff;stroke-linecap:square;stroke-width:0.8;"/>
     </g>
     <g id="line2d_10">
      <g>
       <use style="fill:#555555;stroke:#555555;stroke-width:0.8;" x="634.089392" xlink:href="#m51265ff638" y="153.2"/>
      </g>
     </g>
     <g id="text_5">
      <!-- 2020-06 -->
      <defs>
       <path d="M 26.09375 -1 
Q 16.796875 -1 11.75 6.890625 
Q 6.703125 14.796875 6.703125 28.40625 
Q 6.703125 45.203125 12.703125 54.09375 
Q 18.703125 63 28.703125 63 
Q 36.59375 63 42.40625 57.296875 
L 38 52.296875 
L 37.296875 51.5 
L 36.796875 52 
Q 36.703125 52.796875 36.34375 53.5 
Q 36 54.203125 34.703125 55.296875 
Q 32.5 56.796875 28.90625 56.796875 
Q 26.90625 56.796875 24.296875 55.84375 
Q 21.703125 54.90625 19.296875 52.296875 
Q 16.90625 49.703125 15.296875 44.953125 
Q 13.703125 40.203125 13.59375 32.703125 
Q 15.703125 36.203125 19.25 38.203125 
Q 22.796875 40.203125 26.796875 40.203125 
Q 31.5 40.203125 35.34375 37.640625 
Q 39.203125 35.09375 41.546875 30.546875 
Q 43.90625 26 43.90625 19.796875 
Q 43.90625 13.59375 41.5 8.890625 
Q 39.09375 4.203125 35.09375 1.59375 
Q 31.09375 -1 26.09375 -1 
z
M 26.40625 5.203125 
Q 30.703125 5.203125 33.890625 8.890625 
Q 37.09375 12.59375 37.09375 19.703125 
Q 37.09375 24.703125 35.4375 27.890625 
Q 33.796875 31.09375 31.296875 32.59375 
Q 28.796875 34.09375 26.203125 34.09375 
Q 22.59375 34.09375 19.296875 31.640625 
Q 16 29.203125 14 25.703125 
Q 13.59375 22.296875 14.25 18.6875 
Q 14.90625 15.09375 16.546875 12.046875 
Q 18.203125 9 20.703125 7.09375 
Q 23.203125 5.203125 26.40625 5.203125 
z
" id="Inconsolata-Regular-54"/>
      </defs>
      <g style="fill:#555555;" transform="translate(616.589392 166.85)scale(0.1 -0.1)">
       <use xlink:href="#Inconsolata-Regular-50"/>
       <use x="49.999985" xlink:href="#Inconsolata-Regular-48"/>
       <use x="99.999969" xlink:href="#Inconsolata-Regular-50"/>
       <use x="149.999954" xlink:href="#Inconsolata-Regular-48"/>
       <use x="199.999939" xlink:href="#Inconsolata-Regular-45"/>
       <use x="249.999924" xlink:href="#Inconsolata-Regular-48"/>
       <use x="299.999908" xlink:href="#Inconsolata-Regular-54"/>
      </g>
     </g>
    </g>
    <g id="xtick_6">
     <g id="line2d_11">
      <path clip-path="url(#p1ea316b59f)" d="M 759.953516 153.2 
L 759.953516 10.8 
" style="fill:none;stroke:#ffffff;stroke-linecap:square;stroke-width:0.8;"/>
     </g>
     <g id="line2d_12">
      <g>
       <use style="fill:#555555;stroke:#555555;stroke-width:0.8;" x="759.953516" xlink:href="#m51265ff638" y="153.2"/>
      </g>
     </g>
     <g id="text_6">
      <!-- 2020-07 -->
      <defs>
       <path d="M 15.5 0 
Q 19.90625 14.296875 24.59375 28.09375 
Q 29.296875 41.90625 34.5 55.703125 
L 7.90625 55.703125 
L 7.90625 62.296875 
L 43.203125 62.296875 
L 43.203125 58.40625 
Q 37.5 44 32.5 29.5 
Q 27.5 15 23.40625 0 
z
" id="Inconsolata-Regular-55"/>
      </defs>
      <g style="fill:#555555;" transform="translate(742.453516 166.85)scale(0.1 -0.1)">
       <use xlink:href="#Inconsolata-Regular-50"/>
       <use x="49.999985" xlink:href="#Inconsolata-Regular-48"/>
       <use x="99.999969" xlink:href="#Inconsolata-Regular-50"/>
       <use x="149.999954" xlink:href="#Inconsolata-Regular-48"/>
       <use x="199.999939" xlink:href="#Inconsolata-Regular-45"/>
       <use x="249.999924" xlink:href="#Inconsolata-Regular-48"/>
       <use x="299.999908" xlink:href="#Inconsolata-Regular-55"/>
      </g>
     </g>
    </g>
   </g>
   <g id="matplotlib.axis_2">
    <g id="ytick_1">
     <g id="line2d_13">
      <path clip-path="url(#p1ea316b59f)" d="M 51.8 153.2 
L 826.2 153.2 
" style="fill:none;stroke:#ffffff;stroke-linecap:square;stroke-width:0.8;"/>
     </g>
     <g id="line2d_14">
      <defs>
       <path d="M 0 0 
L -3.5 0 
" id="m14c3769f76" style="stroke:#555555;stroke-width:0.8;"/>
      </defs>
      <g>
       <use style="fill:#555555;stroke:#555555;stroke-width:0.8;" x="51.8" xlink:href="#m14c3769f76" y="153.2"/>
      </g>
     </g>
     <g id="line2d_15">
      <defs>
       <path d="M 0 0 
L 3.5 0 
" id="me24500cbb7" style="stroke:#555555;stroke-width:0.8;"/>
      </defs>
      <g>
       <use style="fill:#555555;stroke:#555555;stroke-width:0.8;" x="826.2" xlink:href="#me24500cbb7" y="153.2"/>
      </g>
     </g>
     <g id="text_7">
      <!-- 0 -->
      <g style="fill:#555555;" transform="translate(39.8 156.525)scale(0.1 -0.1)">
       <use xlink:href="#Inconsolata-Regular-48"/>
      </g>
     </g>
     <g id="text_8">
      <!-- 0 -->
      <g style="fill:#555555;" transform="translate(833.2 156.525)scale(0.1 -0.1)">
       <use xlink:href="#Inconsolata-Regular-48"/>
      </g>
     </g>
    </g>
    <g id="ytick_2">
     <g id="line2d_16">
      <path clip-path="url(#p1ea316b59f)" d="M 51.8 114.424004 
L 826.2 114.424004 
" style="fill:none;stroke:#ffffff;stroke-linecap:square;stroke-width:0.8;"/>
     </g>
     <g id="line2d_17">
      <g>
       <use style="fill:#555555;stroke:#555555;stroke-width:0.8;" x="51.8" xlink:href="#m14c3769f76" y="114.424004"/>
      </g>
     </g>
     <g id="line2d_18">
      <g>
       <use style="fill:#555555;stroke:#555555;stroke-width:0.8;" x="826.2" xlink:href="#me24500cbb7" y="114.424004"/>
      </g>
     </g>
     <g id="text_9">
      <!-- 2000 -->
      <g style="fill:#555555;" transform="translate(24.8 117.749004)scale(0.1 -0.1)">
       <use xlink:href="#Inconsolata-Regular-50"/>
       <use x="49.999985" xlink:href="#Inconsolata-Regular-48"/>
       <use x="99.999969" xlink:href="#Inconsolata-Regular-48"/>
       <use x="149.999954" xlink:href="#Inconsolata-Regular-48"/>
      </g>
     </g>
     <g id="text_10">
      <!-- 2000 -->
      <g style="fill:#555555;" transform="translate(833.2 117.749004)scale(0.1 -0.1)">
       <use xlink:href="#Inconsolata-Regular-50"/>
       <use x="49.999985" xlink:href="#Inconsolata-Regular-48"/>
       <use x="99.999969" xlink:href="#Inconsolata-Regular-48"/>
       <use x="149.999954" xlink:href="#Inconsolata-Regular-48"/>
      </g>
     </g>
    </g>
    <g id="ytick_3">
     <g id="line2d_19">
      <path clip-path="url(#p1ea316b59f)" d="M 51.8 75.648007 
L 826.2 75.648007 
" style="fill:none;stroke:#ffffff;stroke-linecap:square;stroke-width:0.8;"/>
     </g>
     <g id="line2d_20">
      <g>
       <use style="fill:#555555;stroke:#555555;stroke-width:0.8;" x="51.8" xlink:href="#m14c3769f76" y="75.648007"/>
      </g>
     </g>
     <g id="line2d_21">
      <g>
       <use style="fill:#555555;stroke:#555555;stroke-width:0.8;" x="826.2" xlink:href="#me24500cbb7" y="75.648007"/>
      </g>
     </g>
     <g id="text_11">
      <!-- 4000 -->
      <g style="fill:#555555;" transform="translate(24.8 78.973007)scale(0.1 -0.1)">
       <use xlink:href="#Inconsolata-Regular-52"/>
       <use x="49.999985" xlink:href="#Inconsolata-Regular-48"/>
       <use x="99.999969" xlink:href="#Inconsolata-Regular-48"/>
       <use x="149.999954" xlink:href="#Inconsolata-Regular-48"/>
      </g>
     </g>
     <g id="text_12">
      <!-- 4000 -->
      <g style="fill:#555555;" transform="translate(833.2 78.973007)scale(0.1 -0.1)">
       <use xlink:href="#Inconsolata-Regular-52"/>
       <use x="49.999985" xlink:href="#Inconsolata-Regular-48"/>
       <use x="99.999969" xlink:href="#Inconsolata-Regular-48"/>
       <use x="149.999954" xlink:href="#Inconsolata-Regular-48"/>
      </g>
     </g>
    </g>
    <g id="ytick_4">
     <g id="line2d_22">
      <path clip-path="url(#p1ea316b59f)" d="M 51.8 36.872011 
L 826.2 36.872011 
" style="fill:none;stroke:#ffffff;stroke-linecap:square;stroke-width:0.8;"/>
     </g>
     <g id="line2d_23">
      <g>
       <use style="fill:#555555;stroke:#555555;stroke-width:0.8;" x="51.8" xlink:href="#m14c3769f76" y="36.872011"/>
      </g>
     </g>
     <g id="line2d_24">
      <g>
       <use style="fill:#555555;stroke:#555555;stroke-width:0.8;" x="826.2" xlink:href="#me24500cbb7" y="36.872011"/>
      </g>
     </g>
     <g id="text_13">
      <!-- 6000 -->
      <g style="fill:#555555;" transform="translate(24.8 40.197011)scale(0.1 -0.1)">
       <use xlink:href="#Inconsolata-Regular-54"/>
       <use x="49.999985" xlink:href="#Inconsolata-Regular-48"/>
       <use x="99.999969" xlink:href="#Inconsolata-Regular-48"/>
       <use x="149.999954" xlink:href="#Inconsolata-Regular-48"/>
      </g>
     </g>
     <g id="text_14">
      <!-- 6000 -->
      <g style="fill:#555555;" transform="translate(833.2 40.197011)scale(0.1 -0.1)">
       <use xlink:href="#Inconsolata-Regular-54"/>
       <use x="49.999985" xlink:href="#Inconsolata-Regular-48"/>
       <use x="99.999969" xlink:href="#Inconsolata-Regular-48"/>
       <use x="149.999954" xlink:href="#Inconsolata-Regular-48"/>
      </g>
     </g>
    </g>
    <g id="text_15">
     <!-- daily change -->
     <defs>
      <path d="M 23.40625 -1 
Q 18.796875 -1 14.4375 1.640625 
Q 10.09375 4.296875 7.296875 9.6875 
Q 4.5 15.09375 4.5 23.296875 
Q 4.5 31.703125 7.390625 36.890625 
Q 10.296875 42.09375 14.75 44.5 
Q 19.203125 46.90625 23.796875 46.90625 
Q 28.5 46.90625 31.953125 44.75 
Q 35.40625 42.59375 37.09375 39 
L 37.09375 66.5 
L 44.703125 66.5 
L 44.703125 65.796875 
Q 44.09375 65.203125 43.9375 64.5 
Q 43.796875 63.796875 43.796875 62.09375 
L 43.90625 7.09375 
Q 43.90625 5.296875 44.046875 3.546875 
Q 44.203125 1.796875 44.90625 0 
L 37.796875 0 
Q 37.09375 1.796875 36.9375 3.546875 
Q 36.796875 5.296875 36.796875 7.09375 
Q 34.59375 3.40625 31.1875 1.203125 
Q 27.796875 -1 23.40625 -1 
z
M 24.5 5.296875 
Q 28.90625 5.296875 31.546875 7.6875 
Q 34.203125 10.09375 35.34375 14.140625 
Q 36.5 18.203125 36.5 23.09375 
Q 36.5 30.796875 33.5 35.890625 
Q 30.5 41 23.90625 41 
Q 17.796875 41 14.640625 36.5 
Q 11.5 32 11.5 24.40625 
Q 11.5 15.796875 14.796875 10.546875 
Q 18.09375 5.296875 24.5 5.296875 
z
" id="Inconsolata-Regular-100"/>
      <path d="M 21.09375 -1.09375 
Q 13.296875 -1.09375 9.09375 2.453125 
Q 4.90625 6 4.90625 11.5 
Q 4.90625 16.40625 8 19.953125 
Q 11.09375 23.5 16.34375 25.453125 
Q 21.59375 27.40625 27.90625 27.40625 
Q 30.203125 27.40625 32.75 27.296875 
Q 35.296875 27.203125 38.203125 26.796875 
Q 37.59375 34.796875 34.046875 37.796875 
Q 30.5 40.796875 23.90625 40.796875 
Q 20.59375 40.796875 17.390625 39.546875 
Q 14.203125 38.296875 11.59375 35.703125 
L 8.09375 40.296875 
Q 11.296875 43.5 15.5 45.09375 
Q 19.703125 46.703125 24.40625 46.703125 
Q 30.5 46.703125 35 44.703125 
Q 39.5 42.703125 42 37.796875 
Q 44.5 32.90625 44.5 24.296875 
L 44.5 0 
L 36.703125 0 
L 36.703125 7 
Q 35 3.703125 32.34375 1.953125 
Q 29.703125 0.203125 26.75 -0.4375 
Q 23.796875 -1.09375 21.09375 -1.09375 
z
M 12.09375 11.90625 
Q 12.09375 7.59375 14.890625 6 
Q 17.703125 4.40625 21.796875 4.40625 
Q 29.203125 4.40625 33.5 8.75 
Q 37.796875 13.09375 38.203125 21.296875 
Q 33 22 28.5 22 
Q 21.296875 22 16.6875 19.59375 
Q 12.09375 17.203125 12.09375 11.90625 
z
" id="Inconsolata-Regular-97"/>
      <path d="M 10 0 
L 10 5.796875 
L 21.703125 5.796875 
L 21.703125 39.90625 
L 10.59375 39.90625 
L 10.59375 45.703125 
L 28.90625 45.703125 
L 28.90625 5.796875 
L 39.59375 5.796875 
L 39.59375 0 
z
M 24.90625 55.296875 
Q 22.796875 55.296875 21.296875 56.796875 
Q 19.796875 58.296875 19.796875 60.40625 
Q 19.796875 62.59375 21.25 64.09375 
Q 22.703125 65.59375 24.90625 65.59375 
Q 27 65.59375 28.546875 64.046875 
Q 30.09375 62.5 30.09375 60.40625 
Q 30.09375 58.296875 28.546875 56.796875 
Q 27 55.296875 24.90625 55.296875 
z
" id="Inconsolata-Regular-105"/>
      <path d="M 7.90625 0 
L 7.90625 5.796875 
L 21.40625 5.796875 
L 21.40625 60.703125 
L 8.5 60.703125 
L 8.5 66.5 
L 28.703125 66.5 
L 28.703125 5.796875 
L 42.09375 5.796875 
L 42.09375 0 
z
" id="Inconsolata-Regular-108"/>
      <path d="M 12.703125 -17.40625 
Q 6.296875 -17.40625 2.203125 -13.5 
L 5.296875 -8.59375 
L 5.90625 -7.703125 
L 6.5 -8.09375 
Q 6.703125 -8.90625 7.203125 -9.453125 
Q 7.703125 -10 9.09375 -10.90625 
Q 10.90625 -11.5 13.09375 -11.5 
Q 17 -11.5 19.203125 -8.75 
Q 21.40625 -6 23.296875 -0.296875 
L 4.59375 45.703125 
L 12.09375 45.703125 
L 26.296875 9.09375 
L 32.296875 27.5 
Q 33.796875 32.09375 35.1875 36.59375 
Q 36.59375 41.09375 37.09375 45.703125 
L 44.296875 45.703125 
Q 43.59375 41.09375 42.09375 36.390625 
Q 40.59375 31.703125 38.90625 27 
L 27.5 -5.203125 
Q 25.09375 -11.90625 21.34375 -14.65625 
Q 17.59375 -17.40625 12.703125 -17.40625 
z
" id="Inconsolata-Regular-121"/>
      <path id="Inconsolata-Regular-32"/>
      <path d="M 28.5 -1.09375 
Q 21.90625 -1.09375 16.703125 2 
Q 11.5 5.09375 8.546875 10.5 
Q 5.59375 15.90625 5.59375 22.796875 
Q 5.59375 29.703125 8.546875 35.046875 
Q 11.5 40.40625 16.640625 43.5 
Q 21.796875 46.59375 28.40625 46.59375 
Q 34 46.59375 38.453125 44.34375 
Q 42.90625 42.09375 45.703125 38.09375 
L 41.203125 33.703125 
L 40.5 33 
L 40 33.5 
Q 40 34.296875 39.640625 35 
Q 39.296875 35.703125 38.09375 36.90625 
Q 35.90625 38.90625 33.40625 39.703125 
Q 30.90625 40.5 27.59375 40.5 
Q 23.796875 40.5 20.4375 38.390625 
Q 17.09375 36.296875 15.046875 32.4375 
Q 13 28.59375 13 23.296875 
Q 13 18.203125 15.046875 14.140625 
Q 17.09375 10.09375 20.6875 7.75 
Q 24.296875 5.40625 28.90625 5.40625 
Q 35.796875 5.40625 40.796875 11 
L 45 6.09375 
Q 38.296875 -1.09375 28.5 -1.09375 
z
" id="Inconsolata-Regular-99"/>
      <path d="M 7.296875 66.5 
L 15.203125 66.5 
L 15.203125 65.796875 
Q 14.59375 65.203125 14.4375 64.5 
Q 14.296875 63.796875 14.296875 62.09375 
L 14.296875 37.59375 
Q 17 41.796875 21.046875 44.296875 
Q 25.09375 46.796875 29.296875 46.796875 
Q 35.5 46.796875 39.34375 42.4375 
Q 43.203125 38.09375 43.203125 27.703125 
L 43.203125 0 
L 36.203125 0 
L 36.203125 27.5 
Q 36.203125 34.703125 33.75 37.59375 
Q 31.296875 40.5 27.796875 40.5 
Q 24.796875 40.5 21.640625 38.796875 
Q 18.5 37.09375 16.390625 33.9375 
Q 14.296875 30.796875 14.296875 26.296875 
L 14.296875 0 
L 7.296875 0 
z
" id="Inconsolata-Regular-104"/>
      <path d="M 7.203125 0 
L 7.203125 45.703125 
L 14.203125 45.703125 
L 14.203125 37.59375 
Q 16.796875 41.796875 20.9375 44.296875 
Q 25.09375 46.796875 29.703125 46.796875 
Q 35.296875 46.796875 39.1875 42.4375 
Q 43.09375 38.09375 43.09375 27.703125 
L 43.09375 0 
L 36.09375 0 
L 36.09375 27.5 
Q 36.09375 34.703125 33.640625 37.59375 
Q 31.203125 40.5 27.703125 40.5 
Q 24.703125 40.5 21.546875 38.75 
Q 18.40625 37 16.296875 33.84375 
Q 14.203125 30.703125 14.203125 26.296875 
L 14.203125 0 
z
" id="Inconsolata-Regular-110"/>
      <path d="M 22.59375 15.5 
Q 18.703125 15.5 15.5 16.90625 
Q 13.703125 14.703125 13.703125 12.703125 
Q 13.703125 10.296875 16.703125 9.25 
Q 19.703125 8.203125 27.703125 8.203125 
Q 34.703125 8.203125 38.296875 6.703125 
Q 41.90625 5.203125 43.203125 2.59375 
Q 44.5 0 44.5 -3.40625 
Q 44.5 -6.90625 42.59375 -10.09375 
Q 40.703125 -13.296875 36.34375 -15.25 
Q 32 -17.203125 24.703125 -17.203125 
Q 15.09375 -17.203125 9.4375 -14.25 
Q 3.796875 -11.296875 3.796875 -5.40625 
Q 3.796875 -1.703125 5.890625 0.9375 
Q 8 3.59375 10.90625 4.90625 
Q 7.59375 7.09375 7.59375 11 
Q 7.59375 13.203125 8.6875 15.296875 
Q 9.796875 17.40625 11.703125 19.40625 
Q 6.59375 23.90625 6.59375 31.5 
Q 6.59375 35.90625 8.546875 39.5 
Q 10.5 43.09375 14.09375 45.25 
Q 17.703125 47.40625 22.59375 47.40625 
Q 26.296875 47.40625 29.25 46.15625 
Q 32.203125 44.90625 34.296875 42.703125 
Q 36.90625 45.09375 39.796875 46.140625 
Q 42.703125 47.203125 46.59375 46.90625 
L 47.5 41 
Q 44.5 41.296875 41.84375 40.890625 
Q 39.203125 40.5 36.90625 39 
Q 38.59375 35.59375 38.59375 31.5 
Q 38.59375 27.09375 36.640625 23.4375 
Q 34.703125 19.796875 31.140625 17.640625 
Q 27.59375 15.5 22.59375 15.5 
z
M 22.59375 21.5 
Q 27 21.5 29.796875 24.453125 
Q 32.59375 27.40625 32.59375 31.5 
Q 32.59375 35.59375 29.796875 38.546875 
Q 27 41.5 22.59375 41.5 
Q 18.296875 41.5 15.4375 38.546875 
Q 12.59375 35.59375 12.59375 31.5 
Q 12.59375 27.40625 15.4375 24.453125 
Q 18.296875 21.5 22.59375 21.5 
z
M 10.40625 -4.59375 
Q 10.40625 -8 14.25 -9.890625 
Q 18.09375 -11.796875 24.796875 -11.796875 
Q 31.59375 -11.796875 34.75 -9.75 
Q 37.90625 -7.703125 37.90625 -4.5 
Q 37.90625 -2.296875 37.09375 -0.890625 
Q 36.296875 0.5 33.796875 1.203125 
Q 31.296875 1.90625 26.203125 1.90625 
Q 22.703125 1.90625 19.84375 2.203125 
Q 17 2.5 14.703125 3.203125 
Q 12.40625 1.59375 11.40625 -0.046875 
Q 10.40625 -1.703125 10.40625 -4.59375 
z
" id="Inconsolata-Regular-103"/>
      <path d="M 27.203125 -1 
Q 17.203125 -1 11.046875 5.09375 
Q 4.90625 11.203125 4.90625 22.703125 
Q 4.90625 30.5 7.75 35.84375 
Q 10.59375 41.203125 15.34375 44 
Q 20.09375 46.796875 25.90625 46.796875 
Q 31.09375 46.796875 35.296875 44.5 
Q 39.5 42.203125 42 37.390625 
Q 44.5 32.59375 44.5 25.09375 
Q 44.5 24.296875 44.453125 23.4375 
Q 44.40625 22.59375 44.296875 21.796875 
L 11.796875 21.796875 
Q 12.203125 13 16.75 8.890625 
Q 21.296875 4.796875 27.40625 4.796875 
Q 34.59375 4.796875 39.203125 9.90625 
L 43.203125 6 
Q 37.40625 -1 27.203125 -1 
z
M 12.09375 27.40625 
L 37.203125 27.40625 
Q 37.203125 33.796875 33.953125 37.546875 
Q 30.703125 41.296875 25.40625 41.296875 
Q 20.703125 41.296875 16.890625 37.9375 
Q 13.09375 34.59375 12.09375 27.40625 
z
" id="Inconsolata-Regular-101"/>
     </defs>
     <g style="fill:#555555;" transform="translate(18.71125 118)rotate(-90)scale(0.12 -0.12)">
      <use xlink:href="#Inconsolata-Regular-100"/>
      <use x="49.999985" xlink:href="#Inconsolata-Regular-97"/>
      <use x="99.999969" xlink:href="#Inconsolata-Regular-105"/>
      <use x="149.999954" xlink:href="#Inconsolata-Regular-108"/>
      <use x="199.999939" xlink:href="#Inconsolata-Regular-121"/>
      <use x="249.999924" xlink:href="#Inconsolata-Regular-32"/>
      <use x="299.999908" xlink:href="#Inconsolata-Regular-99"/>
      <use x="349.999893" xlink:href="#Inconsolata-Regular-104"/>
      <use x="399.999878" xlink:href="#Inconsolata-Regular-97"/>
      <use x="449.999863" xlink:href="#Inconsolata-Regular-110"/>
      <use x="499.999847" xlink:href="#Inconsolata-Regular-103"/>
      <use x="549.999832" xlink:href="#Inconsolata-Regular-101"/>
     </g>
    </g>
   </g>
   <g id="patch_3">
    <path clip-path="url(#p1ea316b59f)" d="M 87 153.2 
L 90.356377 153.2 
L 90.356377 153.2 
L 87 153.2 
z
" style="fill:#348abd;opacity:0.2;"/>
   </g>
   <g id="patch_4">
    <path clip-path="url(#p1ea316b59f)" d="M 91.195471 153.2 
L 94.551847 153.2 
L 94.551847 153.2 
L 91.195471 153.2 
z
" style="fill:#348abd;opacity:0.2;"/>
   </g>
   <g id="patch_5">
    <path clip-path="url(#p1ea316b59f)" d="M 95.390942 153.2 
L 98.747318 153.2 
L 98.747318 153.2 
L 95.390942 153.2 
z
" style="fill:#348abd;opacity:0.2;"/>
   </g>
   <g id="patch_6">
    <path clip-path="url(#p1ea316b59f)" d="M 99.586412 153.2 
L 102.942789 153.2 
L 102.942789 153.2 
L 99.586412 153.2 
z
" style="fill:#348abd;opacity:0.2;"/>
   </g>
   <g id="patch_7">
    <path clip-path="url(#p1ea316b59f)" d="M 103.781883 153.2 
L 107.13826 153.2 
L 107.13826 153.2 
L 103.781883 153.2 
z
" style="fill:#348abd;opacity:0.2;"/>
   </g>
   <g id="patch_8">
    <path clip-path="url(#p1ea316b59f)" d="M 107.977354 153.2 
L 111.333731 153.2 
L 111.333731 153.2 
L 107.977354 153.2 
z
" style="fill:#348abd;opacity:0.2;"/>
   </g>
   <g id="patch_9">
    <path clip-path="url(#p1ea316b59f)" d="M 112.172825 153.2 
L 115.529201 153.2 
L 115.529201 153.2 
L 112.172825 153.2 
z
" style="fill:#348abd;opacity:0.2;"/>
   </g>
   <g id="patch_10">
    <path clip-path="url(#p1ea316b59f)" d="M 116.368296 153.2 
L 119.724672 153.2 
L 119.724672 153.2 
L 116.368296 153.2 
z
" style="fill:#348abd;opacity:0.2;"/>
   </g>
   <g id="patch_11">
    <path clip-path="url(#p1ea316b59f)" d="M 120.563766 153.2 
L 123.920143 153.2 
L 123.920143 153.2 
L 120.563766 153.2 
z
" style="fill:#348abd;opacity:0.2;"/>
   </g>
   <g id="patch_12">
    <path clip-path="url(#p1ea316b59f)" d="M 124.759237 153.2 
L 128.115614 153.2 
L 128.115614 153.2 
L 124.759237 153.2 
z
" style="fill:#348abd;opacity:0.2;"/>
   </g>
   <g id="patch_13">
    <path clip-path="url(#p1ea316b59f)" d="M 128.954708 153.2 
L 132.311085 153.2 
L 132.311085 153.2 
L 128.954708 153.2 
z
" style="fill:#348abd;opacity:0.2;"/>
   </g>
   <g id="patch_14">
    <path clip-path="url(#p1ea316b59f)" d="M 133.150179 153.2 
L 136.506555 153.2 
L 136.506555 153.2 
L 133.150179 153.2 
z
" style="fill:#348abd;opacity:0.2;"/>
   </g>
   <g id="patch_15">
    <path clip-path="url(#p1ea316b59f)" d="M 137.34565 153.2 
L 140.702026 153.2 
L 140.702026 153.2 
L 137.34565 153.2 
z
" style="fill:#348abd;opacity:0.2;"/>
   </g>
   <g id="patch_16">
    <path clip-path="url(#p1ea316b59f)" d="M 141.54112 153.2 
L 144.897497 153.2 
L 144.897497 153.2 
L 141.54112 153.2 
z
" style="fill:#348abd;opacity:0.2;"/>
   </g>
   <g id="patch_17">
    <path clip-path="url(#p1ea316b59f)" d="M 145.736591 153.2 
L 149.092968 153.2 
L 149.092968 153.2 
L 145.736591 153.2 
z
" style="fill:#348abd;opacity:0.2;"/>
   </g>
   <g id="patch_18">
    <path clip-path="url(#p1ea316b59f)" d="M 149.932062 153.2 
L 153.288439 153.2 
L 153.288439 153.2 
L 149.932062 153.2 
z
" style="fill:#348abd;opacity:0.2;"/>
   </g>
   <g id="patch_19">
    <path clip-path="url(#p1ea316b59f)" d="M 154.127533 153.2 
L 157.483909 153.2 
L 157.483909 153.2 
L 154.127533 153.2 
z
" style="fill:#348abd;opacity:0.2;"/>
   </g>
   <g id="patch_20">
    <path clip-path="url(#p1ea316b59f)" d="M 158.323004 153.2 
L 161.67938 153.2 
L 161.67938 153.2 
L 158.323004 153.2 
z
" style="fill:#348abd;opacity:0.2;"/>
   </g>
   <g id="patch_21">
    <path clip-path="url(#p1ea316b59f)" d="M 162.518474 153.2 
L 165.874851 153.2 
L 165.874851 153.2 
L 162.518474 153.2 
z
" style="fill:#348abd;opacity:0.2;"/>
   </g>
   <g id="patch_22">
    <path clip-path="url(#p1ea316b59f)" d="M 166.713945 153.2 
L 170.070322 153.2 
L 170.070322 153.2 
L 166.713945 153.2 
z
" style="fill:#348abd;opacity:0.2;"/>
   </g>
   <g id="patch_23">
    <path clip-path="url(#p1ea316b59f)" d="M 170.909416 153.2 
L 174.265793 153.2 
L 174.265793 153.2 
L 170.909416 153.2 
z
" style="fill:#348abd;opacity:0.2;"/>
   </g>
   <g id="patch_24">
    <path clip-path="url(#p1ea316b59f)" d="M 175.104887 153.2 
L 178.461263 153.2 
L 178.461263 153.2 
L 175.104887 153.2 
z
" style="fill:#348abd;opacity:0.2;"/>
   </g>
   <g id="patch_25">
    <path clip-path="url(#p1ea316b59f)" d="M 179.300358 153.2 
L 182.656734 153.2 
L 182.656734 153.2 
L 179.300358 153.2 
z
" style="fill:#348abd;opacity:0.2;"/>
   </g>
   <g id="patch_26">
    <path clip-path="url(#p1ea316b59f)" d="M 183.495828 153.2 
L 186.852205 153.2 
L 186.852205 153.2 
L 183.495828 153.2 
z
" style="fill:#348abd;opacity:0.2;"/>
   </g>
   <g id="patch_27">
    <path clip-path="url(#p1ea316b59f)" d="M 187.691299 153.2 
L 191.047676 153.2 
L 191.047676 153.2 
L 187.691299 153.2 
z
" style="fill:#348abd;opacity:0.2;"/>
   </g>
   <g id="patch_28">
    <path clip-path="url(#p1ea316b59f)" d="M 191.88677 153.2 
L 195.243147 153.2 
L 195.243147 153.2 
L 191.88677 153.2 
z
" style="fill:#348abd;opacity:0.2;"/>
   </g>
   <g id="patch_29">
    <path clip-path="url(#p1ea316b59f)" d="M 196.082241 153.2 
L 199.438617 153.2 
L 199.438617 153.2 
L 196.082241 153.2 
z
" style="fill:#348abd;opacity:0.2;"/>
   </g>
   <g id="patch_30">
    <path clip-path="url(#p1ea316b59f)" d="M 200.277712 153.2 
L 203.634088 153.2 
L 203.634088 153.2 
L 200.277712 153.2 
z
" style="fill:#348abd;opacity:0.2;"/>
   </g>
   <g id="patch_31">
    <path clip-path="url(#p1ea316b59f)" d="M 204.473182 153.2 
L 207.829559 153.2 
L 207.829559 153.2 
L 204.473182 153.2 
z
" style="fill:#348abd;opacity:0.2;"/>
   </g>
   <g id="patch_32">
    <path clip-path="url(#p1ea316b59f)" d="M 208.668653 153.2 
L 212.02503 153.2 
L 212.02503 153.2 
L 208.668653 153.2 
z
" style="fill:#348abd;opacity:0.2;"/>
   </g>
   <g id="patch_33">
    <path clip-path="url(#p1ea316b59f)" d="M 212.864124 153.2 
L 216.220501 153.2 
L 216.220501 153.2 
L 212.864124 153.2 
z
" style="fill:#348abd;opacity:0.2;"/>
   </g>
   <g id="patch_34">
    <path clip-path="url(#p1ea316b59f)" d="M 217.059595 153.2 
L 220.415971 153.2 
L 220.415971 153.2 
L 217.059595 153.2 
z
" style="fill:#348abd;opacity:0.2;"/>
   </g>
   <g id="patch_35">
    <path clip-path="url(#p1ea316b59f)" d="M 221.255066 153.2 
L 224.611442 153.2 
L 224.611442 153.2 
L 221.255066 153.2 
z
" style="fill:#348abd;opacity:0.2;"/>
   </g>
   <g id="patch_36">
    <path clip-path="url(#p1ea316b59f)" d="M 225.450536 153.2 
L 228.806913 153.2 
L 228.806913 153.2 
L 225.450536 153.2 
z
" style="fill:#348abd;opacity:0.2;"/>
   </g>
   <g id="patch_37">
    <path clip-path="url(#p1ea316b59f)" d="M 229.646007 153.2 
L 233.002384 153.2 
L 233.002384 153.2 
L 229.646007 153.2 
z
" style="fill:#348abd;opacity:0.2;"/>
   </g>
   <g id="patch_38">
    <path clip-path="url(#p1ea316b59f)" d="M 233.841478 153.2 
L 237.197855 153.2 
L 237.197855 153.2 
L 233.841478 153.2 
z
" style="fill:#348abd;opacity:0.2;"/>
   </g>
   <g id="patch_39">
    <path clip-path="url(#p1ea316b59f)" d="M 238.036949 153.2 
L 241.393325 153.2 
L 241.393325 153.180612 
L 238.036949 153.180612 
z
" style="fill:#348abd;opacity:0.2;"/>
   </g>
   <g id="patch_40">
    <path clip-path="url(#p1ea316b59f)" d="M 242.23242 153.2 
L 245.588796 153.2 
L 245.588796 153.141836 
L 242.23242 153.141836 
z
" style="fill:#348abd;opacity:0.2;"/>
   </g>
   <g id="patch_41">
    <path clip-path="url(#p1ea316b59f)" d="M 246.42789 153.2 
L 249.784267 153.2 
L 249.784267 153.180612 
L 246.42789 153.180612 
z
" style="fill:#348abd;opacity:0.2;"/>
   </g>
   <g id="patch_42">
    <path clip-path="url(#p1ea316b59f)" d="M 250.623361 153.2 
L 253.979738 153.2 
L 253.979738 153.2 
L 250.623361 153.2 
z
" style="fill:#348abd;opacity:0.2;"/>
   </g>
   <g id="patch_43">
    <path clip-path="url(#p1ea316b59f)" d="M 254.818832 153.2 
L 258.175209 153.2 
L 258.175209 153.2 
L 254.818832 153.2 
z
" style="fill:#348abd;opacity:0.2;"/>
   </g>
   <g id="patch_44">
    <path clip-path="url(#p1ea316b59f)" d="M 259.014303 153.2 
L 262.370679 153.2 
L 262.370679 153.2 
L 259.014303 153.2 
z
" style="fill:#348abd;opacity:0.2;"/>
   </g>
   <g id="patch_45">
    <path clip-path="url(#p1ea316b59f)" d="M 263.209774 153.2 
L 266.56615 153.2 
L 266.56615 153.2 
L 263.209774 153.2 
z
" style="fill:#348abd;opacity:0.2;"/>
   </g>
   <g id="patch_46">
    <path clip-path="url(#p1ea316b59f)" d="M 267.405244 153.2 
L 270.761621 153.2 
L 270.761621 153.180612 
L 267.405244 153.180612 
z
" style="fill:#348abd;opacity:0.2;"/>
   </g>
   <g id="patch_47">
    <path clip-path="url(#p1ea316b59f)" d="M 271.600715 153.2 
L 274.957092 153.2 
L 274.957092 153.2 
L 271.600715 153.2 
z
" style="fill:#348abd;opacity:0.2;"/>
   </g>
   <g id="patch_48">
    <path clip-path="url(#p1ea316b59f)" d="M 275.796186 153.2 
L 279.152563 153.2 
L 279.152563 153.180612 
L 275.796186 153.180612 
z
" style="fill:#348abd;opacity:0.2;"/>
   </g>
   <g id="patch_49">
    <path clip-path="url(#p1ea316b59f)" d="M 279.991657 153.2 
L 283.348033 153.2 
L 283.348033 153.2 
L 279.991657 153.2 
z
" style="fill:#348abd;opacity:0.2;"/>
   </g>
   <g id="patch_50">
    <path clip-path="url(#p1ea316b59f)" d="M 284.187128 153.2 
L 287.543504 153.2 
L 287.543504 153.2 
L 284.187128 153.2 
z
" style="fill:#348abd;opacity:0.2;"/>
   </g>
   <g id="patch_51">
    <path clip-path="url(#p1ea316b59f)" d="M 288.382598 153.2 
L 291.738975 153.2 
L 291.738975 153.180612 
L 288.382598 153.180612 
z
" style="fill:#348abd;opacity:0.2;"/>
   </g>
   <g id="patch_52">
    <path clip-path="url(#p1ea316b59f)" d="M 292.578069 153.2 
L 295.934446 153.2 
L 295.934446 153.122448 
L 292.578069 153.122448 
z
" style="fill:#348abd;opacity:0.2;"/>
   </g>
   <g id="patch_53">
    <path clip-path="url(#p1ea316b59f)" d="M 296.77354 153.2 
L 300.129917 153.2 
L 300.129917 152.928568 
L 296.77354 152.928568 
z
" style="fill:#348abd;opacity:0.2;"/>
   </g>
   <g id="patch_54">
    <path clip-path="url(#p1ea316b59f)" d="M 300.969011 153.2 
L 304.325387 153.2 
L 304.325387 152.90918 
L 300.969011 152.90918 
z
" style="fill:#348abd;opacity:0.2;"/>
   </g>
   <g id="patch_55">
    <path clip-path="url(#p1ea316b59f)" d="M 305.164482 153.2 
L 308.520858 153.2 
L 308.520858 152.967344 
L 305.164482 152.967344 
z
" style="fill:#348abd;opacity:0.2;"/>
   </g>
   <g id="patch_56">
    <path clip-path="url(#p1ea316b59f)" d="M 309.359952 153.2 
L 312.716329 153.2 
L 312.716329 152.637748 
L 309.359952 152.637748 
z
" style="fill:#348abd;opacity:0.2;"/>
   </g>
   <g id="patch_57">
    <path clip-path="url(#p1ea316b59f)" d="M 313.555423 153.2 
L 316.9118 153.2 
L 316.9118 152.986732 
L 313.555423 152.986732 
z
" style="fill:#348abd;opacity:0.2;"/>
   </g>
   <g id="patch_58">
    <path clip-path="url(#p1ea316b59f)" d="M 317.750894 153.2 
L 321.107271 153.2 
L 321.107271 152.7153 
L 317.750894 152.7153 
z
" style="fill:#348abd;opacity:0.2;"/>
   </g>
   <g id="patch_59">
    <path clip-path="url(#p1ea316b59f)" d="M 321.946365 153.2 
L 325.302741 153.2 
L 325.302741 152.308152 
L 321.946365 152.308152 
z
" style="fill:#348abd;opacity:0.2;"/>
   </g>
   <g id="patch_60">
    <path clip-path="url(#p1ea316b59f)" d="M 326.141836 153.2 
L 329.498212 153.2 
L 329.498212 152.443868 
L 326.141836 152.443868 
z
" style="fill:#348abd;opacity:0.2;"/>
   </g>
   <g id="patch_61">
    <path clip-path="url(#p1ea316b59f)" d="M 330.337306 153.2 
L 333.693683 153.2 
L 333.693683 152.269376 
L 330.337306 152.269376 
z
" style="fill:#348abd;opacity:0.2;"/>
   </g>
   <g id="patch_62">
    <path clip-path="url(#p1ea316b59f)" d="M 334.532777 153.2 
L 337.889154 153.2 
L 337.889154 151.93978 
L 334.532777 151.93978 
z
" style="fill:#348abd;opacity:0.2;"/>
   </g>
   <g id="patch_63">
    <path clip-path="url(#p1ea316b59f)" d="M 338.728248 153.2 
L 342.084625 153.2 
L 342.084625 152.211212 
L 338.728248 152.211212 
z
" style="fill:#348abd;opacity:0.2;"/>
   </g>
   <g id="patch_64">
    <path clip-path="url(#p1ea316b59f)" d="M 342.923719 153.2 
L 346.280095 153.2 
L 346.280095 152.463256 
L 342.923719 152.463256 
z
" style="fill:#348abd;opacity:0.2;"/>
   </g>
   <g id="patch_65">
    <path clip-path="url(#p1ea316b59f)" d="M 347.11919 153.2 
L 350.475566 153.2 
L 350.475566 151.84284 
L 347.11919 151.84284 
z
" style="fill:#348abd;opacity:0.2;"/>
   </g>
   <g id="patch_66">
    <path clip-path="url(#p1ea316b59f)" d="M 351.31466 153.2 
L 354.671037 153.2 
L 354.671037 151.06732 
L 351.31466 151.06732 
z
" style="fill:#348abd;opacity:0.2;"/>
   </g>
   <g id="patch_67">
    <path clip-path="url(#p1ea316b59f)" d="M 355.510131 153.2 
L 358.866508 153.2 
L 358.866508 150.640784 
L 355.510131 150.640784 
z
" style="fill:#348abd;opacity:0.2;"/>
   </g>
   <g id="patch_68">
    <path clip-path="url(#p1ea316b59f)" d="M 359.705602 153.2 
L 363.061979 153.2 
L 363.061979 150.660172 
L 359.705602 150.660172 
z
" style="fill:#348abd;opacity:0.2;"/>
   </g>
   <g id="patch_69">
    <path clip-path="url(#p1ea316b59f)" d="M 363.901073 153.2 
L 367.257449 153.2 
L 367.257449 150.38874 
L 363.901073 150.38874 
z
" style="fill:#348abd;opacity:0.2;"/>
   </g>
   <g id="patch_70">
    <path clip-path="url(#p1ea316b59f)" d="M 368.096544 153.2 
L 371.45292 153.2 
L 371.45292 151.241812 
L 368.096544 151.241812 
z
" style="fill:#348abd;opacity:0.2;"/>
   </g>
   <g id="patch_71">
    <path clip-path="url(#p1ea316b59f)" d="M 372.292014 153.2 
L 375.648391 153.2 
L 375.648391 150.854052 
L 372.292014 150.854052 
z
" style="fill:#348abd;opacity:0.2;"/>
   </g>
   <g id="patch_72">
    <path clip-path="url(#p1ea316b59f)" d="M 376.487485 153.2 
L 379.843862 153.2 
L 379.843862 150.039756 
L 376.487485 150.039756 
z
" style="fill:#348abd;opacity:0.2;"/>
   </g>
   <g id="patch_73">
    <path clip-path="url(#p1ea316b59f)" d="M 380.682956 153.2 
L 384.039333 153.2 
L 384.039333 150.640784 
L 380.682956 150.640784 
z
" style="fill:#348abd;opacity:0.2;"/>
   </g>
   <g id="patch_74">
    <path clip-path="url(#p1ea316b59f)" d="M 384.878427 153.2 
L 388.234803 153.2 
L 388.234803 149.748936 
L 384.878427 149.748936 
z
" style="fill:#348abd;opacity:0.2;"/>
   </g>
   <g id="patch_75">
    <path clip-path="url(#p1ea316b59f)" d="M 389.073897 153.2 
L 392.430274 153.2 
L 392.430274 149.283624 
L 389.073897 149.283624 
z
" style="fill:#348abd;opacity:0.2;"/>
   </g>
   <g id="patch_76">
    <path clip-path="url(#p1ea316b59f)" d="M 393.269368 153.2 
L 396.625745 153.2 
L 396.625745 148.294836 
L 393.269368 148.294836 
z
" style="fill:#348abd;opacity:0.2;"/>
   </g>
   <g id="patch_77">
    <path clip-path="url(#p1ea316b59f)" d="M 397.464839 153.2 
L 400.821216 153.2 
L 400.821216 147.461153 
L 397.464839 147.461153 
z
" style="fill:#348abd;opacity:0.2;"/>
   </g>
   <g id="patch_78">
    <path clip-path="url(#p1ea316b59f)" d="M 401.66031 153.2 
L 405.016687 153.2 
L 405.016687 146.491753 
L 401.66031 146.491753 
z
" style="fill:#348abd;opacity:0.2;"/>
   </g>
   <g id="patch_79">
    <path clip-path="url(#p1ea316b59f)" d="M 405.855781 153.2 
L 409.212157 153.2 
L 409.212157 145.522353 
L 405.855781 145.522353 
z
" style="fill:#348abd;opacity:0.2;"/>
   </g>
   <g id="patch_80">
    <path clip-path="url(#p1ea316b59f)" d="M 410.051251 153.2 
L 413.407628 153.2 
L 413.407628 148.15912 
L 410.051251 148.15912 
z
" style="fill:#348abd;opacity:0.2;"/>
   </g>
   <g id="patch_81">
    <path clip-path="url(#p1ea316b59f)" d="M 414.246722 153.2 
L 417.603099 153.2 
L 417.603099 145.386637 
L 414.246722 145.386637 
z
" style="fill:#348abd;opacity:0.2;"/>
   </g>
   <g id="patch_82">
    <path clip-path="url(#p1ea316b59f)" d="M 418.442193 153.2 
L 421.79857 153.2 
L 421.79857 145.929501 
L 418.442193 145.929501 
z
" style="fill:#348abd;opacity:0.2;"/>
   </g>
   <g id="patch_83">
    <path clip-path="url(#p1ea316b59f)" d="M 422.637664 153.2 
L 425.994041 153.2 
L 425.994041 144.630505 
L 422.637664 144.630505 
z
" style="fill:#348abd;opacity:0.2;"/>
   </g>
   <g id="patch_84">
    <path clip-path="url(#p1ea316b59f)" d="M 426.833135 153.2 
L 430.189511 153.2 
L 430.189511 146.356037 
L 426.833135 146.356037 
z
" style="fill:#348abd;opacity:0.2;"/>
   </g>
   <g id="patch_85">
    <path clip-path="url(#p1ea316b59f)" d="M 431.028605 153.2 
L 434.384982 153.2 
L 434.384982 145.735621 
L 431.028605 145.735621 
z
" style="fill:#348abd;opacity:0.2;"/>
   </g>
   <g id="patch_86">
    <path clip-path="url(#p1ea316b59f)" d="M 435.224076 153.2 
L 438.580453 153.2 
L 438.580453 144.514177 
L 435.224076 144.514177 
z
" style="fill:#348abd;opacity:0.2;"/>
   </g>
   <g id="patch_87">
    <path clip-path="url(#p1ea316b59f)" d="M 439.419547 153.2 
L 442.775924 153.2 
L 442.775924 144.475401 
L 439.419547 144.475401 
z
" style="fill:#348abd;opacity:0.2;"/>
   </g>
   <g id="patch_88">
    <path clip-path="url(#p1ea316b59f)" d="M 443.615018 153.2 
L 446.971395 153.2 
L 446.971395 141.993737 
L 443.615018 141.993737 
z
" style="fill:#348abd;opacity:0.2;"/>
   </g>
   <g id="patch_89">
    <path clip-path="url(#p1ea316b59f)" d="M 447.810489 153.2 
L 451.166865 153.2 
L 451.166865 141.140665 
L 447.810489 141.140665 
z
" style="fill:#348abd;opacity:0.2;"/>
   </g>
   <g id="patch_90">
    <path clip-path="url(#p1ea316b59f)" d="M 452.005959 153.2 
L 455.362336 153.2 
L 455.362336 138.387569 
L 452.005959 138.387569 
z
" style="fill:#348abd;opacity:0.2;"/>
   </g>
   <g id="patch_91">
    <path clip-path="url(#p1ea316b59f)" d="M 456.20143 153.2 
L 459.557807 153.2 
L 459.557807 143.292733 
L 456.20143 143.292733 
z
" style="fill:#348abd;opacity:0.2;"/>
   </g>
   <g id="patch_92">
    <path clip-path="url(#p1ea316b59f)" d="M 460.396901 153.2 
L 463.753278 153.2 
L 463.753278 139.066149 
L 460.396901 139.066149 
z
" style="fill:#348abd;opacity:0.2;"/>
   </g>
   <g id="patch_93">
    <path clip-path="url(#p1ea316b59f)" d="M 464.592372 153.2 
L 467.948749 153.2 
L 467.948749 132.978318 
L 464.592372 132.978318 
z
" style="fill:#348abd;opacity:0.2;"/>
   </g>
   <g id="patch_94">
    <path clip-path="url(#p1ea316b59f)" d="M 468.787843 153.2 
L 472.144219 153.2 
L 472.144219 132.08647 
L 468.787843 132.08647 
z
" style="fill:#348abd;opacity:0.2;"/>
   </g>
   <g id="patch_95">
    <path clip-path="url(#p1ea316b59f)" d="M 472.983313 153.2 
L 476.33969 153.2 
L 476.33969 129.17827 
L 472.983313 129.17827 
z
" style="fill:#348abd;opacity:0.2;"/>
   </g>
   <g id="patch_96">
    <path clip-path="url(#p1ea316b59f)" d="M 477.178784 153.2 
L 480.535161 153.2 
L 480.535161 134.393642 
L 477.178784 134.393642 
z
" style="fill:#348abd;opacity:0.2;"/>
   </g>
   <g id="patch_97">
    <path clip-path="url(#p1ea316b59f)" d="M 481.374255 153.2 
L 484.730632 153.2 
L 484.730632 137.011021 
L 481.374255 137.011021 
z
" style="fill:#348abd;opacity:0.2;"/>
   </g>
   <g id="patch_98">
    <path clip-path="url(#p1ea316b59f)" d="M 485.569726 153.2 
L 488.926103 153.2 
L 488.926103 136.681426 
L 485.569726 136.681426 
z
" style="fill:#348abd;opacity:0.2;"/>
   </g>
   <g id="patch_99">
    <path clip-path="url(#p1ea316b59f)" d="M 489.765197 153.2 
L 493.121573 153.2 
L 493.121573 129.488478 
L 489.765197 129.488478 
z
" style="fill:#348abd;opacity:0.2;"/>
   </g>
   <g id="patch_100">
    <path clip-path="url(#p1ea316b59f)" d="M 493.960667 153.2 
L 497.317044 153.2 
L 497.317044 132.900766 
L 493.960667 132.900766 
z
" style="fill:#348abd;opacity:0.2;"/>
   </g>
   <g id="patch_101">
    <path clip-path="url(#p1ea316b59f)" d="M 498.156138 153.2 
L 501.512515 153.2 
L 501.512515 125.572103 
L 498.156138 125.572103 
z
" style="fill:#348abd;opacity:0.2;"/>
   </g>
   <g id="patch_102">
    <path clip-path="url(#p1ea316b59f)" d="M 502.351609 153.2 
L 505.707986 153.2 
L 505.707986 123.827183 
L 502.351609 123.827183 
z
" style="fill:#348abd;opacity:0.2;"/>
   </g>
   <g id="patch_103">
    <path clip-path="url(#p1ea316b59f)" d="M 506.54708 153.2 
L 509.903456 153.2 
L 509.903456 127.04559 
L 506.54708 127.04559 
z
" style="fill:#348abd;opacity:0.2;"/>
   </g>
   <g id="patch_104">
    <path clip-path="url(#p1ea316b59f)" d="M 510.742551 153.2 
L 514.098927 153.2 
L 514.098927 126.386398 
L 510.742551 126.386398 
z
" style="fill:#348abd;opacity:0.2;"/>
   </g>
   <g id="patch_105">
    <path clip-path="url(#p1ea316b59f)" d="M 514.938021 153.2 
L 518.294398 153.2 
L 518.294398 125.397611 
L 514.938021 125.397611 
z
" style="fill:#348abd;opacity:0.2;"/>
   </g>
   <g id="patch_106">
    <path clip-path="url(#p1ea316b59f)" d="M 519.133492 153.2 
L 522.489869 153.2 
L 522.489869 131.485442 
L 519.133492 131.485442 
z
" style="fill:#348abd;opacity:0.2;"/>
   </g>
   <g id="patch_107">
    <path clip-path="url(#p1ea316b59f)" d="M 523.328963 153.2 
L 526.68534 153.2 
L 526.68534 122.004711 
L 523.328963 122.004711 
z
" style="fill:#348abd;opacity:0.2;"/>
   </g>
   <g id="patch_108">
    <path clip-path="url(#p1ea316b59f)" d="M 527.524434 153.2 
L 530.88081 153.2 
L 530.88081 114.772988 
L 527.524434 114.772988 
z
" style="fill:#348abd;opacity:0.2;"/>
   </g>
   <g id="patch_109">
    <path clip-path="url(#p1ea316b59f)" d="M 531.719905 153.2 
L 535.076281 153.2 
L 535.076281 116.246475 
L 531.719905 116.246475 
z
" style="fill:#348abd;opacity:0.2;"/>
   </g>
   <g id="patch_110">
    <path clip-path="url(#p1ea316b59f)" d="M 535.915375 153.2 
L 539.271752 153.2 
L 539.271752 115.626059 
L 535.915375 115.626059 
z
" style="fill:#348abd;opacity:0.2;"/>
   </g>
   <g id="patch_111">
    <path clip-path="url(#p1ea316b59f)" d="M 540.110846 153.2 
L 543.467223 153.2 
L 543.467223 122.915947 
L 540.110846 122.915947 
z
" style="fill:#348abd;opacity:0.2;"/>
   </g>
   <g id="patch_112">
    <path clip-path="url(#p1ea316b59f)" d="M 544.306317 153.2 
L 547.662694 153.2 
L 547.662694 127.898662 
L 544.306317 127.898662 
z
" style="fill:#348abd;opacity:0.2;"/>
   </g>
   <g id="patch_113">
    <path clip-path="url(#p1ea316b59f)" d="M 548.501788 153.2 
L 551.858164 153.2 
L 551.858164 114.482168 
L 548.501788 114.482168 
z
" style="fill:#348abd;opacity:0.2;"/>
   </g>
   <g id="patch_114">
    <path clip-path="url(#p1ea316b59f)" d="M 552.697259 153.2 
L 556.053635 153.2 
L 556.053635 117.099547 
L 552.697259 117.099547 
z
" style="fill:#348abd;opacity:0.2;"/>
   </g>
   <g id="patch_115">
    <path clip-path="url(#p1ea316b59f)" d="M 556.892729 153.2 
L 560.249106 153.2 
L 560.249106 106.494312 
L 556.892729 106.494312 
z
" style="fill:#348abd;opacity:0.2;"/>
   </g>
   <g id="patch_116">
    <path clip-path="url(#p1ea316b59f)" d="M 561.0882 153.2 
L 564.444577 153.2 
L 564.444577 105.951448 
L 561.0882 105.951448 
z
" style="fill:#348abd;opacity:0.2;"/>
   </g>
   <g id="patch_117">
    <path clip-path="url(#p1ea316b59f)" d="M 565.283671 153.2 
L 568.640048 153.2 
L 568.640048 112.252548 
L 565.283671 112.252548 
z
" style="fill:#348abd;opacity:0.2;"/>
   </g>
   <g id="patch_118">
    <path clip-path="url(#p1ea316b59f)" d="M 569.479142 153.2 
L 572.835518 153.2 
L 572.835518 112.969904 
L 569.479142 112.969904 
z
" style="fill:#348abd;opacity:0.2;"/>
   </g>
   <g id="patch_119">
    <path clip-path="url(#p1ea316b59f)" d="M 573.674613 153.2 
L 577.030989 153.2 
L 577.030989 106.397372 
L 573.674613 106.397372 
z
" style="fill:#348abd;opacity:0.2;"/>
   </g>
   <g id="patch_120">
    <path clip-path="url(#p1ea316b59f)" d="M 577.870083 153.2 
L 581.22646 153.2 
L 581.22646 100.600361 
L 577.870083 100.600361 
z
" style="fill:#348abd;opacity:0.2;"/>
   </g>
   <g id="patch_121">
    <path clip-path="url(#p1ea316b59f)" d="M 582.065554 153.2 
L 585.421931 153.2 
L 585.421931 109.61578 
L 582.065554 109.61578 
z
" style="fill:#348abd;opacity:0.2;"/>
   </g>
   <g id="patch_122">
    <path clip-path="url(#p1ea316b59f)" d="M 586.261025 153.2 
L 589.617402 153.2 
L 589.617402 95.559481 
L 586.261025 95.559481 
z
" style="fill:#348abd;opacity:0.2;"/>
   </g>
   <g id="patch_123">
    <path clip-path="url(#p1ea316b59f)" d="M 590.456496 153.2 
L 593.812872 153.2 
L 593.812872 95.811525 
L 590.456496 95.811525 
z
" style="fill:#348abd;opacity:0.2;"/>
   </g>
   <g id="patch_124">
    <path clip-path="url(#p1ea316b59f)" d="M 594.651967 153.2 
L 598.008343 153.2 
L 598.008343 88.657354 
L 594.651967 88.657354 
z
" style="fill:#348abd;opacity:0.2;"/>
   </g>
   <g id="patch_125">
    <path clip-path="url(#p1ea316b59f)" d="M 598.847437 153.2 
L 602.203814 153.2 
L 602.203814 99.611573 
L 598.847437 99.611573 
z
" style="fill:#348abd;opacity:0.2;"/>
   </g>
   <g id="patch_126">
    <path clip-path="url(#p1ea316b59f)" d="M 603.042908 153.2 
L 606.399285 153.2 
L 606.399285 105.020824 
L 603.042908 105.020824 
z
" style="fill:#348abd;opacity:0.2;"/>
   </g>
   <g id="patch_127">
    <path clip-path="url(#p1ea316b59f)" d="M 607.238379 153.2 
L 610.594756 153.2 
L 610.594756 86.214466 
L 607.238379 86.214466 
z
" style="fill:#348abd;opacity:0.2;"/>
   </g>
   <g id="patch_128">
    <path clip-path="url(#p1ea316b59f)" d="M 611.43385 153.2 
L 614.790226 153.2 
L 614.790226 86.059362 
L 611.43385 86.059362 
z
" style="fill:#348abd;opacity:0.2;"/>
   </g>
   <g id="patch_129">
    <path clip-path="url(#p1ea316b59f)" d="M 615.629321 153.2 
L 618.985697 153.2 
L 618.985697 87.72673 
L 615.629321 87.72673 
z
" style="fill:#348abd;opacity:0.2;"/>
   </g>
   <g id="patch_130">
    <path clip-path="url(#p1ea316b59f)" d="M 619.824791 153.2 
L 623.181168 153.2 
L 623.181168 90.63493 
L 619.824791 90.63493 
z
" style="fill:#348abd;opacity:0.2;"/>
   </g>
   <g id="patch_131">
    <path clip-path="url(#p1ea316b59f)" d="M 624.020262 153.2 
L 627.376639 153.2 
L 627.376639 97.265625 
L 624.020262 97.265625 
z
" style="fill:#348abd;opacity:0.2;"/>
   </g>
   <g id="patch_132">
    <path clip-path="url(#p1ea316b59f)" d="M 628.215733 153.2 
L 631.57211 153.2 
L 631.57211 92.08903 
L 628.215733 92.08903 
z
" style="fill:#348abd;opacity:0.2;"/>
   </g>
   <g id="patch_133">
    <path clip-path="url(#p1ea316b59f)" d="M 632.411204 153.2 
L 635.76758 153.2 
L 635.76758 99.475857 
L 632.411204 99.475857 
z
" style="fill:#348abd;opacity:0.2;"/>
   </g>
   <g id="patch_134">
    <path clip-path="url(#p1ea316b59f)" d="M 636.606675 153.2 
L 639.963051 153.2 
L 639.963051 77.761299 
L 636.606675 77.761299 
z
" style="fill:#348abd;opacity:0.2;"/>
   </g>
   <g id="patch_135">
    <path clip-path="url(#p1ea316b59f)" d="M 640.802145 153.2 
L 644.158522 153.2 
L 644.158522 77.354151 
L 640.802145 77.354151 
z
" style="fill:#348abd;opacity:0.2;"/>
   </g>
   <g id="patch_136">
    <path clip-path="url(#p1ea316b59f)" d="M 644.997616 153.2 
L 648.353993 153.2 
L 648.353993 67.078512 
L 644.997616 67.078512 
z
" style="fill:#348abd;opacity:0.2;"/>
   </g>
   <g id="patch_137">
    <path clip-path="url(#p1ea316b59f)" d="M 649.193087 153.2 
L 652.549464 153.2 
L 652.549464 68.93976 
L 649.193087 68.93976 
z
" style="fill:#348abd;opacity:0.2;"/>
   </g>
   <g id="patch_138">
    <path clip-path="url(#p1ea316b59f)" d="M 653.388558 153.2 
L 656.744934 153.2 
L 656.744934 83.538922 
L 653.388558 83.538922 
z
" style="fill:#348abd;opacity:0.2;"/>
   </g>
   <g id="patch_139">
    <path clip-path="url(#p1ea316b59f)" d="M 657.584029 153.2 
L 660.940405 153.2 
L 660.940405 85.652214 
L 657.584029 85.652214 
z
" style="fill:#348abd;opacity:0.2;"/>
   </g>
   <g id="patch_140">
    <path clip-path="url(#p1ea316b59f)" d="M 661.779499 153.2 
L 665.135876 153.2 
L 665.135876 95.055393 
L 661.779499 95.055393 
z
" style="fill:#348abd;opacity:0.2;"/>
   </g>
   <g id="patch_141">
    <path clip-path="url(#p1ea316b59f)" d="M 665.97497 153.2 
L 669.331347 153.2 
L 669.331347 71.789795 
L 665.97497 71.789795 
z
" style="fill:#348abd;opacity:0.2;"/>
   </g>
   <g id="patch_142">
    <path clip-path="url(#p1ea316b59f)" d="M 670.170441 153.2 
L 673.526818 153.2 
L 673.526818 58.528405 
L 670.170441 58.528405 
z
" style="fill:#348abd;opacity:0.2;"/>
   </g>
   <g id="patch_143">
    <path clip-path="url(#p1ea316b59f)" d="M 674.365912 153.2 
L 677.722288 153.2 
L 677.722288 60.331488 
L 674.365912 60.331488 
z
" style="fill:#348abd;opacity:0.2;"/>
   </g>
   <g id="patch_144">
    <path clip-path="url(#p1ea316b59f)" d="M 678.561383 153.2 
L 681.917759 153.2 
L 681.917759 51.955873 
L 678.561383 51.955873 
z
" style="fill:#348abd;opacity:0.2;"/>
   </g>
   <g id="patch_145">
    <path clip-path="url(#p1ea316b59f)" d="M 682.756853 153.2 
L 686.11323 153.2 
L 686.11323 85.458334 
L 682.756853 85.458334 
z
" style="fill:#348abd;opacity:0.2;"/>
   </g>
   <g id="patch_146">
    <path clip-path="url(#p1ea316b59f)" d="M 686.952324 153.2 
L 690.308701 153.2 
L 690.308701 72.797971 
L 686.952324 72.797971 
z
" style="fill:#348abd;opacity:0.2;"/>
   </g>
   <g id="patch_147">
    <path clip-path="url(#p1ea316b59f)" d="M 691.147795 153.2 
L 694.504172 153.2 
L 694.504172 86.75733 
L 691.147795 86.75733 
z
" style="fill:#348abd;opacity:0.2;"/>
   </g>
   <g id="patch_148">
    <path clip-path="url(#p1ea316b59f)" d="M 695.343266 153.2 
L 698.699642 153.2 
L 698.699642 64.034596 
L 695.343266 64.034596 
z
" style="fill:#348abd;opacity:0.2;"/>
   </g>
   <g id="patch_149">
    <path clip-path="url(#p1ea316b59f)" d="M 699.538737 153.2 
L 702.895113 153.2 
L 702.895113 57.617169 
L 699.538737 57.617169 
z
" style="fill:#348abd;opacity:0.2;"/>
   </g>
   <g id="patch_150">
    <path clip-path="url(#p1ea316b59f)" d="M 703.734207 153.2 
L 707.090584 153.2 
L 707.090584 43.425154 
L 703.734207 43.425154 
z
" style="fill:#348abd;opacity:0.2;"/>
   </g>
   <g id="patch_151">
    <path clip-path="url(#p1ea316b59f)" d="M 707.929678 153.2 
L 711.286055 153.2 
L 711.286055 55.678369 
L 707.929678 55.678369 
z
" style="fill:#348abd;opacity:0.2;"/>
   </g>
   <g id="patch_152">
    <path clip-path="url(#p1ea316b59f)" d="M 712.125149 153.2 
L 715.481526 153.2 
L 715.481526 61.746812 
L 712.125149 61.746812 
z
" style="fill:#348abd;opacity:0.2;"/>
   </g>
   <g id="patch_153">
    <path clip-path="url(#p1ea316b59f)" d="M 716.32062 153.2 
L 719.676996 153.2 
L 719.676996 49.609925 
L 716.32062 49.609925 
z
" style="fill:#348abd;opacity:0.2;"/>
   </g>
   <g id="patch_154">
    <path clip-path="url(#p1ea316b59f)" d="M 720.516091 153.2 
L 723.872467 153.2 
L 723.872467 64.461132 
L 720.516091 64.461132 
z
" style="fill:#348abd;opacity:0.2;"/>
   </g>
   <g id="patch_155">
    <path clip-path="url(#p1ea316b59f)" d="M 724.711561 153.2 
L 728.067938 153.2 
L 728.067938 31.288267 
L 724.711561 31.288267 
z
" style="fill:#348abd;opacity:0.2;"/>
   </g>
   <g id="patch_156">
    <path clip-path="url(#p1ea316b59f)" d="M 728.907032 153.2 
L 732.263409 153.2 
L 732.263409 47.787454 
L 728.907032 47.787454 
z
" style="fill:#348abd;opacity:0.2;"/>
   </g>
   <g id="patch_157">
    <path clip-path="url(#p1ea316b59f)" d="M 733.102503 153.2 
L 736.45888 153.2 
L 736.45888 34.855659 
L 733.102503 34.855659 
z
" style="fill:#348abd;opacity:0.2;"/>
   </g>
   <g id="patch_158">
    <path clip-path="url(#p1ea316b59f)" d="M 737.297974 153.2 
L 740.65435 153.2 
L 740.65435 47.709902 
L 737.297974 47.709902 
z
" style="fill:#348abd;opacity:0.2;"/>
   </g>
   <g id="patch_159">
    <path clip-path="url(#p1ea316b59f)" d="M 741.493445 153.2 
L 744.849821 153.2 
L 744.849821 67.698928 
L 741.493445 67.698928 
z
" style="fill:#348abd;opacity:0.2;"/>
   </g>
   <g id="patch_160">
    <path clip-path="url(#p1ea316b59f)" d="M 745.688915 153.2 
L 749.045292 153.2 
L 749.045292 74.678607 
L 745.688915 74.678607 
z
" style="fill:#348abd;opacity:0.2;"/>
   </g>
   <g id="patch_161">
    <path clip-path="url(#p1ea316b59f)" d="M 749.884386 153.2 
L 753.240763 153.2 
L 753.240763 79.428667 
L 749.884386 79.428667 
z
" style="fill:#348abd;opacity:0.2;"/>
   </g>
   <g id="patch_162">
    <path clip-path="url(#p1ea316b59f)" d="M 754.079857 153.2 
L 757.436234 153.2 
L 757.436234 47.884394 
L 754.079857 47.884394 
z
" style="fill:#348abd;opacity:0.2;"/>
   </g>
   <g id="patch_163">
    <path clip-path="url(#p1ea316b59f)" d="M 758.275328 153.2 
L 761.631704 153.2 
L 761.631704 43.056782 
L 758.275328 43.056782 
z
" style="fill:#348abd;opacity:0.2;"/>
   </g>
   <g id="patch_164">
    <path clip-path="url(#p1ea316b59f)" d="M 762.470799 153.2 
L 765.827175 153.2 
L 765.827175 22.505504 
L 762.470799 22.505504 
z
" style="fill:#348abd;opacity:0.2;"/>
   </g>
   <g id="patch_165">
    <path clip-path="url(#p1ea316b59f)" d="M 766.666269 153.2 
L 770.022646 153.2 
L 770.022646 22.524892 
L 766.666269 22.524892 
z
" style="fill:#348abd;opacity:0.2;"/>
   </g>
   <g id="patch_166">
    <path clip-path="url(#p1ea316b59f)" d="M 770.86174 153.2 
L 774.218117 153.2 
L 774.218117 19.15138 
L 770.86174 19.15138 
z
" style="fill:#348abd;opacity:0.2;"/>
   </g>
   <g id="patch_167">
    <path clip-path="url(#p1ea316b59f)" d="M 775.057211 153.2 
L 778.413588 153.2 
L 778.413588 62.406004 
L 775.057211 62.406004 
z
" style="fill:#348abd;opacity:0.2;"/>
   </g>
   <g id="patch_168">
    <path clip-path="url(#p1ea316b59f)" d="M 779.252682 153.2 
L 782.609058 153.2 
L 782.609058 58.160033 
L 779.252682 58.160033 
z
" style="fill:#348abd;opacity:0.2;"/>
   </g>
   <g id="patch_169">
    <path clip-path="url(#p1ea316b59f)" d="M 783.448153 153.2 
L 786.804529 153.2 
L 786.804529 31.869907 
L 783.448153 31.869907 
z
" style="fill:#348abd;opacity:0.2;"/>
   </g>
   <g id="patch_170">
    <path clip-path="url(#p1ea316b59f)" d="M 787.643623 153.2 
L 791 153.2 
L 791 17.580952 
L 787.643623 17.580952 
z
" style="fill:#348abd;opacity:0.2;"/>
   </g>
   <g id="line2d_25">
    <path clip-path="url(#p1ea316b59f)" d="M 88.678188 153.2 
L 290.060787 153.118488 
L 311.038141 152.830733 
L 336.210965 152.227717 
L 348.797378 151.67361 
L 369.774732 150.705081 
L 378.165673 150.320086 
L 382.361144 150.026438 
L 390.752086 149.129113 
L 407.533969 147.034112 
L 415.924911 146.286592 
L 428.511323 145.403876 
L 436.902265 144.360897 
L 441.097735 143.698091 
L 445.293206 142.895571 
L 449.488677 141.912699 
L 453.684148 140.669317 
L 462.075089 137.857011 
L 466.27056 136.614472 
L 470.466031 135.585794 
L 478.856973 133.98256 
L 487.247914 132.468048 
L 491.443385 131.617949 
L 499.834327 129.556548 
L 516.61621 125.130828 
L 525.007151 122.852648 
L 529.202622 121.85035 
L 537.593564 120.013976 
L 545.984505 117.826474 
L 554.375447 115.370575 
L 558.570918 113.861499 
L 566.961859 110.343889 
L 587.939213 101.187015 
L 600.525626 95.713332 
L 604.721097 94.291799 
L 608.916567 93.190241 
L 613.112038 92.558916 
L 617.307509 92.120801 
L 621.50298 91.454212 
L 625.698451 90.462648 
L 629.893921 88.825852 
L 634.089392 86.857543 
L 638.284863 84.693344 
L 642.480334 82.663503 
L 646.675805 81.025672 
L 650.871275 79.593271 
L 655.066746 78.388897 
L 667.653159 74.038477 
L 671.848629 72.6599 
L 692.825983 67.149598 
L 697.021454 65.71174 
L 701.216925 63.735951 
L 705.412396 61.089945 
L 713.803337 55.012859 
L 717.998808 52.348165 
L 722.194279 50.577069 
L 726.38975 49.806305 
L 730.585221 50.199375 
L 734.780691 51.5621 
L 738.976162 53.222398 
L 743.171633 54.741329 
L 747.367104 55.120153 
L 751.562574 53.908515 
L 755.758045 51.425652 
L 759.953516 48.022738 
L 764.148987 44.450475 
L 768.344458 41.091283 
L 772.539928 38.484018 
L 776.735399 36.869858 
L 780.93087 36.375283 
L 789.321812 36.861851 
L 789.321812 36.861851 
" style="fill:none;stroke:#348abd;stroke-linecap:square;stroke-width:3;"/>
   </g>
   <g id="line2d_26">
    <defs>
     <path d="M 0 3 
C 0.795609 3 1.55874 2.683901 2.12132 2.12132 
C 2.683901 1.55874 3 0.795609 3 0 
C 3 -0.795609 2.683901 -1.55874 2.12132 -2.12132 
C 1.55874 -2.683901 0.795609 -3 0 -3 
C -0.795609 -3 -1.55874 -2.683901 -2.12132 -2.12132 
C -2.683901 -1.55874 -3 -0.795609 -3 0 
C -3 0.795609 -2.683901 1.55874 -2.12132 2.12132 
C -1.55874 2.683901 -0.795609 3 0 3 
z
" id="m23731bb737" style="stroke:#e24a33;stroke-opacity:0.001;"/>
    </defs>
    <g clip-path="url(#p1ea316b59f)">
     <use style="fill:#e24a33;fill-opacity:0.001;stroke:#e24a33;stroke-opacity:0.001;" x="439" xlink:href="#m23731bb737" y="82"/>
    </g>
   </g>
   <g id="patch_171">
    <path d="M 51.8 153.2 
L 51.8 10.8 
" style="fill:none;stroke:#ffffff;stroke-linecap:square;stroke-linejoin:miter;"/>
   </g>
   <g id="patch_172">
    <path d="M 826.2 153.2 
L 826.2 10.8 
" style="fill:none;stroke:#ffffff;stroke-linecap:square;stroke-linejoin:miter;"/>
   </g>
   <g id="patch_173">
    <path d="M 51.8 153.2 
L 826.2 153.2 
" style="fill:none;stroke:#ffffff;stroke-linecap:square;stroke-linejoin:miter;"/>
   </g>
   <g id="patch_174">
    <path d="M 51.8 10.8 
L 826.2 10.8 
" style="fill:none;stroke:#ffffff;stroke-linecap:square;stroke-linejoin:miter;"/>
   </g>
   <g id="legend_1">
    <g id="patch_175">
     <path d="M 58.8 60.210938 
L 245.8 60.210938 
Q 247.8 60.210938 247.8 58.210938 
L 247.8 17.8 
Q 247.8 15.8 245.8 15.8 
L 58.8 15.8 
Q 56.8 15.8 56.8 17.8 
L 56.8 58.210938 
Q 56.8 60.210938 58.8 60.210938 
z
" style="fill:#e5e5e5;opacity:0.8;stroke:#cccccc;stroke-linejoin:miter;stroke-width:0.5;"/>
    </g>
    <g id="patch_176">
     <path d="M 60.8 26.8 
L 80.8 26.8 
L 80.8 19.8 
L 60.8 19.8 
z
" style="fill:#348abd;opacity:0.2;"/>
    </g>
    <g id="text_16">
     <!-- Mexico new cases -->
     <defs>
      <path d="M 4.09375 0 
L 4.09375 62.296875 
L 9.59375 62.296875 
L 25 31.796875 
L 40.703125 62.40625 
L 46 62.40625 
L 46 0 
L 39.40625 0 
L 39.40625 47 
L 25.90625 21.90625 
L 23.203125 21.90625 
L 10.59375 46.703125 
L 10.59375 0 
z
" id="Inconsolata-Regular-77"/>
      <path d="M 4.703125 0 
L 20.796875 23.203125 
L 5 45.703125 
L 12.90625 45.703125 
L 24.796875 28.796875 
L 36.203125 45.703125 
L 43.59375 45.703125 
L 28.796875 23.5 
L 45.59375 0 
L 37.40625 0 
L 24.796875 17.796875 
L 12.90625 0 
z
" id="Inconsolata-Regular-120"/>
      <path d="M 25 -0.796875 
Q 18.796875 -0.796875 14.046875 2.25 
Q 9.296875 5.296875 6.59375 10.640625 
Q 3.90625 16 3.90625 22.90625 
Q 3.90625 29.90625 6.59375 35.25 
Q 9.296875 40.59375 14.046875 43.640625 
Q 18.796875 46.703125 25 46.703125 
Q 31.203125 46.703125 35.953125 43.640625 
Q 40.703125 40.59375 43.390625 35.25 
Q 46.09375 29.90625 46.09375 22.90625 
Q 46.09375 16 43.390625 10.640625 
Q 40.703125 5.296875 35.953125 2.25 
Q 31.203125 -0.796875 25 -0.796875 
z
M 25 5.203125 
Q 29 5.203125 32 7.5 
Q 35 9.796875 36.75 13.796875 
Q 38.5 17.796875 38.5 23 
Q 38.5 30.796875 34.703125 35.75 
Q 30.90625 40.703125 25 40.703125 
Q 19.09375 40.703125 15.296875 35.75 
Q 11.5 30.796875 11.5 23 
Q 11.5 17.796875 13.25 13.796875 
Q 15 9.796875 18.046875 7.5 
Q 21.09375 5.203125 25 5.203125 
z
" id="Inconsolata-Regular-111"/>
      <path d="M 10.796875 -0.09375 
L 1.59375 45.703125 
L 7.90625 45.703125 
L 15.296875 9 
L 23.09375 41.40625 
L 27.5 41.40625 
L 37.203125 9.09375 
Q 38.5 18 39.34375 23.703125 
Q 40.203125 29.40625 40.640625 33.046875 
Q 41.09375 36.703125 41.25 39.203125 
Q 41.40625 41.703125 41.40625 44.203125 
L 41.40625 45.703125 
L 48.09375 45.703125 
Q 45.09375 22.5 40.5 -0.09375 
L 33.703125 -0.09375 
L 25.296875 29.5 
L 17.296875 -0.09375 
z
" id="Inconsolata-Regular-119"/>
      <path d="M 25.09375 -1 
Q 13.5 -1 5.703125 6.203125 
L 9.703125 13 
L 10.296875 13.90625 
L 10.90625 13.5 
Q 11.09375 12.703125 11.34375 11.84375 
Q 11.59375 11 12.703125 9.796875 
Q 14.796875 7.703125 17.75 6.34375 
Q 20.703125 5 25.296875 5 
Q 30.796875 5 33.84375 6.953125 
Q 36.90625 8.90625 36.90625 12.296875 
Q 36.90625 15.203125 34.34375 17.09375 
Q 31.796875 19 25.40625 21.09375 
Q 17.5 23.40625 12.84375 26.796875 
Q 8.203125 30.203125 8.203125 35.296875 
Q 8.203125 40.5 12.453125 43.640625 
Q 16.703125 46.796875 25 46.796875 
Q 31.40625 46.796875 35.59375 45 
Q 39.796875 43.203125 43.203125 39.59375 
L 39.09375 34.59375 
L 38.40625 33.796875 
L 37.90625 34.296875 
Q 37.796875 35.09375 37.4375 35.84375 
Q 37.09375 36.59375 36 37.703125 
Q 33.703125 39.5 30.796875 40.453125 
Q 27.90625 41.40625 25.203125 41.40625 
Q 21.203125 41.40625 18.296875 40 
Q 15.40625 38.59375 15.40625 35.703125 
Q 15.40625 34.203125 16.453125 32.75 
Q 17.5 31.296875 20.296875 29.84375 
Q 23.09375 28.40625 28.296875 26.90625 
Q 36.90625 24.296875 40.453125 21.25 
Q 44 18.203125 44 13.296875 
Q 44 9.5 41.953125 6.203125 
Q 39.90625 2.90625 35.703125 0.953125 
Q 31.5 -1 25.09375 -1 
z
" id="Inconsolata-Regular-115"/>
     </defs>
     <g transform="translate(88.8 26.8)scale(0.1 -0.1)">
      <use xlink:href="#Inconsolata-Regular-77"/>
      <use x="49.999985" xlink:href="#Inconsolata-Regular-101"/>
      <use x="99.999969" xlink:href="#Inconsolata-Regular-120"/>
      <use x="149.999954" xlink:href="#Inconsolata-Regular-105"/>
      <use x="199.999939" xlink:href="#Inconsolata-Regular-99"/>
      <use x="249.999924" xlink:href="#Inconsolata-Regular-111"/>
      <use x="299.999908" xlink:href="#Inconsolata-Regular-32"/>
      <use x="349.999893" xlink:href="#Inconsolata-Regular-110"/>
      <use x="399.999878" xlink:href="#Inconsolata-Regular-101"/>
      <use x="449.999863" xlink:href="#Inconsolata-Regular-119"/>
      <use x="499.999847" xlink:href="#Inconsolata-Regular-32"/>
      <use x="549.999832" xlink:href="#Inconsolata-Regular-99"/>
      <use x="599.999817" xlink:href="#Inconsolata-Regular-97"/>
      <use x="649.999802" xlink:href="#Inconsolata-Regular-115"/>
      <use x="699.999786" xlink:href="#Inconsolata-Regular-101"/>
      <use x="749.999771" xlink:href="#Inconsolata-Regular-115"/>
     </g>
    </g>
    <g id="line2d_27">
     <path d="M 60.8 37.320313 
L 80.8 37.320313 
" style="fill:none;stroke:#348abd;stroke-linecap:square;stroke-width:3;"/>
    </g>
    <g id="line2d_28"/>
    <g id="text_17">
     <!-- Mexico new cases (rolling mean) -->
     <defs>
      <path d="M 39.5 -10.40625 
Q 31.203125 -6.5 25.046875 0.046875 
Q 18.90625 6.59375 15.546875 14.84375 
Q 12.203125 23.09375 12.203125 32 
Q 12.203125 40.90625 15.5 48.953125 
Q 18.796875 57 24.796875 63.34375 
Q 30.796875 69.703125 38.90625 73.5 
L 40.796875 67.296875 
Q 34.40625 63.796875 29.546875 58.296875 
Q 24.703125 52.796875 22 46 
Q 19.296875 39.203125 19.296875 31.703125 
Q 19.296875 24.203125 22 17.296875 
Q 24.703125 10.40625 29.703125 4.796875 
Q 34.703125 -0.796875 41.40625 -4.40625 
z
" id="Inconsolata-Regular-40"/>
      <path d="M 11.90625 45.703125 
L 19.40625 45.703125 
L 19.203125 37.296875 
Q 21.09375 41.90625 25.09375 44.34375 
Q 29.09375 46.796875 33.703125 46.796875 
Q 41 46.796875 45.796875 41.796875 
L 42.59375 36.203125 
L 42.203125 35.296875 
L 41.5 35.703125 
Q 41.296875 36.5 40.890625 37.203125 
Q 40.5 37.90625 39.203125 38.90625 
Q 37.59375 39.90625 36.25 40.25 
Q 34.90625 40.59375 33.203125 40.59375 
Q 29.90625 40.59375 26.65625 38.890625 
Q 23.40625 37.203125 21.296875 33.59375 
Q 19.203125 30 19.203125 24.203125 
L 19.203125 -0.09375 
L 11.90625 -0.09375 
z
" id="Inconsolata-Regular-114"/>
      <path d="M 3.796875 0 
L 3.796875 45.703125 
L 10.40625 45.703125 
L 10.40625 41.203125 
Q 12 43.703125 14.5 45.25 
Q 17 46.796875 19.703125 46.796875 
Q 22.703125 46.796875 24.953125 44.890625 
Q 27.203125 43 27.796875 40.09375 
Q 29.09375 43.09375 31.890625 44.9375 
Q 34.703125 46.796875 38.09375 46.796875 
Q 42.796875 46.796875 44.9375 43.4375 
Q 47.09375 40.09375 46.90625 35.09375 
L 46.90625 0 
L 40.296875 0 
L 40.296875 32.40625 
Q 40.296875 36.59375 39.75 38.5 
Q 39.203125 40.40625 38.203125 40.953125 
Q 37.203125 41.5 36 41.5 
Q 34.09375 41.5 32.4375 39.75 
Q 30.796875 38 29.75 35.390625 
Q 28.703125 32.796875 28.703125 30.203125 
L 28.703125 0 
L 22 0 
L 22 31.796875 
Q 22 37.5 20.953125 39.390625 
Q 19.90625 41.296875 17 41.296875 
Q 14.796875 41.296875 12.59375 38.4375 
Q 10.40625 35.59375 10.40625 30.5 
L 10.40625 0 
z
" id="Inconsolata-Regular-109"/>
      <path d="M 13.25 -10.40625 
Q 21.546875 -6.5 27.6875 0.046875 
Q 33.84375 6.59375 37.1875 14.84375 
Q 40.546875 23.09375 40.546875 32 
Q 40.546875 40.90625 37.25 48.953125 
Q 33.953125 57 27.953125 63.34375 
Q 21.953125 69.703125 13.84375 73.5 
L 11.953125 67.296875 
Q 18.34375 63.796875 23.1875 58.296875 
Q 28.046875 52.796875 30.75 46 
Q 33.453125 39.203125 33.453125 31.703125 
Q 33.453125 24.203125 30.75 17.296875 
Q 28.046875 10.40625 23.046875 4.796875 
Q 18.046875 -0.796875 11.34375 -4.40625 
z
" id="Inconsolata-Regular-41"/>
     </defs>
     <g transform="translate(88.8 40.820313)scale(0.1 -0.1)">
      <use xlink:href="#Inconsolata-Regular-77"/>
      <use x="49.999985" xlink:href="#Inconsolata-Regular-101"/>
      <use x="99.999969" xlink:href="#Inconsolata-Regular-120"/>
      <use x="149.999954" xlink:href="#Inconsolata-Regular-105"/>
      <use x="199.999939" xlink:href="#Inconsolata-Regular-99"/>
      <use x="249.999924" xlink:href="#Inconsolata-Regular-111"/>
      <use x="299.999908" xlink:href="#Inconsolata-Regular-32"/>
      <use x="349.999893" xlink:href="#Inconsolata-Regular-110"/>
      <use x="399.999878" xlink:href="#Inconsolata-Regular-101"/>
      <use x="449.999863" xlink:href="#Inconsolata-Regular-119"/>
      <use x="499.999847" xlink:href="#Inconsolata-Regular-32"/>
      <use x="549.999832" xlink:href="#Inconsolata-Regular-99"/>
      <use x="599.999817" xlink:href="#Inconsolata-Regular-97"/>
      <use x="649.999802" xlink:href="#Inconsolata-Regular-115"/>
      <use x="699.999786" xlink:href="#Inconsolata-Regular-101"/>
      <use x="749.999771" xlink:href="#Inconsolata-Regular-115"/>
      <use x="799.999756" xlink:href="#Inconsolata-Regular-32"/>
      <use x="849.999741" xlink:href="#Inconsolata-Regular-40"/>
      <use x="899.999725" xlink:href="#Inconsolata-Regular-114"/>
      <use x="949.99971" xlink:href="#Inconsolata-Regular-111"/>
      <use x="999.999695" xlink:href="#Inconsolata-Regular-108"/>
      <use x="1049.99968" xlink:href="#Inconsolata-Regular-108"/>
      <use x="1099.999664" xlink:href="#Inconsolata-Regular-105"/>
      <use x="1149.999649" xlink:href="#Inconsolata-Regular-110"/>
      <use x="1199.999634" xlink:href="#Inconsolata-Regular-103"/>
      <use x="1249.999619" xlink:href="#Inconsolata-Regular-32"/>
      <use x="1299.999603" xlink:href="#Inconsolata-Regular-109"/>
      <use x="1349.999588" xlink:href="#Inconsolata-Regular-101"/>
      <use x="1399.999573" xlink:href="#Inconsolata-Regular-97"/>
      <use x="1449.999557" xlink:href="#Inconsolata-Regular-110"/>
      <use x="1499.999542" xlink:href="#Inconsolata-Regular-41"/>
     </g>
    </g>
    <g id="line2d_29"/>
    <g id="line2d_30">
     <g>
      <use style="fill:#e24a33;fill-opacity:0.001;stroke:#e24a33;stroke-opacity:0.001;" x="70.8" xlink:href="#m23731bb737" y="51.040625"/>
     </g>
    </g>
    <g id="text_18">
     <!-- [last updated: 09/07/2020] -->
     <defs>
      <path d="M 13.09375 -8.90625 
L 13.09375 67 
L 41.703125 67 
L 41.703125 61 
L 19.5 61 
L 19.5 -3.203125 
L 41.796875 -3.203125 
L 41.796875 -8.90625 
z
" id="Inconsolata-Regular-91"/>
      <path d="M 29.90625 -0.703125 
Q 24 -0.703125 20.953125 2 
Q 17.90625 4.703125 16.90625 10.34375 
Q 15.90625 16 16.203125 24.796875 
L 16.796875 39.796875 
L 7 39.796875 
L 7 45.703125 
L 17 45.703125 
L 17.40625 57.40625 
L 24.90625 58.296875 
L 25.90625 58.40625 
L 26 57.703125 
Q 25.5 57 25.140625 56.296875 
Q 24.796875 55.59375 24.59375 53.90625 
L 23.90625 45.703125 
L 39.90625 45.703125 
L 39.90625 39.796875 
L 24 39.796875 
L 23.296875 24.296875 
Q 23 16.703125 23.703125 12.546875 
Q 24.40625 8.40625 26.203125 6.84375 
Q 28 5.296875 31 5.296875 
Q 34.296875 5.296875 36.84375 6.59375 
Q 39.40625 7.90625 42.203125 9.90625 
L 44.40625 4.203125 
Q 41 1.703125 37.390625 0.5 
Q 33.796875 -0.703125 29.90625 -0.703125 
z
" id="Inconsolata-Regular-116"/>
      <path d="M 22.09375 -1.09375 
Q 15.296875 -1.09375 10.796875 4 
Q 6.296875 9.09375 6.40625 20.203125 
L 6.5 45.703125 
L 13.5 45.703125 
L 13.5 20.203125 
Q 13.5 11.5 16.546875 8.09375 
Q 19.59375 4.703125 23.90625 4.703125 
Q 27.09375 4.703125 29.890625 6.390625 
Q 32.703125 8.09375 34.453125 11.59375 
Q 36.203125 15.09375 36.203125 20.5 
L 36.203125 45.703125 
L 43.203125 45.703125 
L 43.203125 7.09375 
Q 43.203125 5.296875 43.34375 3.546875 
Q 43.5 1.796875 44.203125 0 
L 37.296875 0 
Q 36.59375 1.703125 36.4375 3.5 
Q 36.296875 5.296875 36.296875 7 
Q 34.09375 3.203125 30.34375 1.046875 
Q 26.59375 -1.09375 22.09375 -1.09375 
z
" id="Inconsolata-Regular-117"/>
      <path d="M 6 -16.703125 
L 6 45.703125 
L 13.296875 45.703125 
L 13.296875 36.703125 
Q 14.90625 41.90625 18.65625 44.296875 
Q 22.40625 46.703125 27.203125 46.703125 
Q 32.296875 46.703125 36.640625 44.140625 
Q 41 41.59375 43.640625 36.390625 
Q 46.296875 31.203125 46.296875 23.203125 
Q 46.296875 15.203125 43.5 9.75 
Q 40.703125 4.296875 36.296875 1.546875 
Q 31.90625 -1.203125 27 -1.203125 
Q 22.90625 -1.203125 19.296875 0.6875 
Q 15.703125 2.59375 13.40625 6 
L 13.40625 -16.703125 
z
M 25.796875 5.203125 
Q 29 5.203125 32 6.75 
Q 35 8.296875 36.890625 12.1875 
Q 38.796875 16.09375 38.796875 22.90625 
Q 38.796875 31.09375 35.6875 35.640625 
Q 32.59375 40.203125 26.90625 40.5 
Q 23.203125 40.703125 20.09375 38.84375 
Q 17 37 15.140625 32.703125 
Q 13.296875 28.40625 13.296875 21.296875 
Q 13.5 13.203125 16.890625 9.203125 
Q 20.296875 5.203125 25.796875 5.203125 
z
" id="Inconsolata-Regular-112"/>
      <path d="M 23.796875 30.796875 
Q 21.5 30.796875 19.703125 32.5 
Q 17.90625 34.203125 17.90625 36.5 
Q 17.90625 38.90625 19.703125 40.59375 
Q 21.5 42.296875 23.796875 42.296875 
Q 26.09375 42.296875 27.9375 40.59375 
Q 29.796875 38.90625 29.796875 36.5 
Q 29.796875 34.203125 28 32.5 
Q 26.203125 30.796875 23.796875 30.796875 
z
M 23.796875 -1.09375 
Q 21.296875 -1.09375 19.59375 0.546875 
Q 17.90625 2.203125 17.90625 4.59375 
Q 17.90625 7 19.703125 8.703125 
Q 21.5 10.40625 23.796875 10.40625 
Q 26.09375 10.40625 27.9375 8.703125 
Q 29.796875 7 29.796875 4.59375 
Q 29.796875 2.296875 28.046875 0.59375 
Q 26.296875 -1.09375 23.796875 -1.09375 
z
" id="Inconsolata-Regular-58"/>
      <path d="M 22.796875 -1 
Q 13.796875 -1 7.90625 4.703125 
L 12.203125 9.59375 
L 12.90625 10.40625 
L 13.40625 9.90625 
Q 13.5 9.09375 13.890625 8.4375 
Q 14.296875 7.796875 15.5 6.703125 
Q 18.203125 5 22.203125 5 
Q 27 5 30.140625 8.296875 
Q 33.296875 11.59375 35 16.84375 
Q 36.703125 22.09375 37.09375 28.09375 
Q 34.703125 26 31.796875 24.796875 
Q 28.90625 23.59375 24.90625 23.59375 
Q 19.796875 23.59375 15.6875 26 
Q 11.59375 28.40625 9.1875 32.65625 
Q 6.796875 36.90625 6.796875 42.40625 
Q 6.796875 48.296875 9.1875 52.84375 
Q 11.59375 57.40625 15.6875 60.046875 
Q 19.796875 62.703125 24.703125 62.703125 
Q 30.59375 62.703125 34.890625 59.296875 
Q 39.203125 55.90625 41.546875 49.953125 
Q 43.90625 44 43.90625 36.296875 
Q 43.90625 17.5 38.296875 8.34375 
Q 32.703125 -0.796875 22.796875 -1 
z
M 13.59375 42.5 
Q 13.59375 36.59375 17 33.140625 
Q 20.40625 29.703125 25 29.703125 
Q 29.203125 29.703125 32 30.890625 
Q 34.796875 32.09375 37.203125 34.90625 
Q 36.5 56.59375 25 56.59375 
Q 19.90625 56.59375 16.75 52.84375 
Q 13.59375 49.09375 13.59375 42.5 
z
" id="Inconsolata-Regular-57"/>
      <path d="M 12.296875 -4.203125 
L 6.40625 -1.296875 
L 37.703125 66.5 
L 43.703125 63.40625 
z
" id="Inconsolata-Regular-47"/>
      <path d="M 41.78125 -8.90625 
L 41.78125 67 
L 13.171875 67 
L 13.171875 61 
L 35.375 61 
L 35.375 -3.203125 
L 13.078125 -3.203125 
L 13.078125 -8.90625 
z
" id="Inconsolata-Regular-93"/>
     </defs>
     <g transform="translate(88.8 54.540625)scale(0.1 -0.1)">
      <use xlink:href="#Inconsolata-Regular-91"/>
      <use x="49.999985" xlink:href="#Inconsolata-Regular-108"/>
      <use x="99.999969" xlink:href="#Inconsolata-Regular-97"/>
      <use x="149.999954" xlink:href="#Inconsolata-Regular-115"/>
      <use x="199.999939" xlink:href="#Inconsolata-Regular-116"/>
      <use x="249.999924" xlink:href="#Inconsolata-Regular-32"/>
      <use x="299.999908" xlink:href="#Inconsolata-Regular-117"/>
      <use x="349.999893" xlink:href="#Inconsolata-Regular-112"/>
      <use x="399.999878" xlink:href="#Inconsolata-Regular-100"/>
      <use x="449.999863" xlink:href="#Inconsolata-Regular-97"/>
      <use x="499.999847" xlink:href="#Inconsolata-Regular-116"/>
      <use x="549.999832" xlink:href="#Inconsolata-Regular-101"/>
      <use x="599.999817" xlink:href="#Inconsolata-Regular-100"/>
      <use x="649.999802" xlink:href="#Inconsolata-Regular-58"/>
      <use x="699.999786" xlink:href="#Inconsolata-Regular-32"/>
      <use x="749.999771" xlink:href="#Inconsolata-Regular-48"/>
      <use x="799.999756" xlink:href="#Inconsolata-Regular-57"/>
      <use x="849.999741" xlink:href="#Inconsolata-Regular-47"/>
      <use x="899.999725" xlink:href="#Inconsolata-Regular-48"/>
      <use x="949.99971" xlink:href="#Inconsolata-Regular-55"/>
      <use x="999.999695" xlink:href="#Inconsolata-Regular-47"/>
      <use x="1049.99968" xlink:href="#Inconsolata-Regular-50"/>
      <use x="1099.999664" xlink:href="#Inconsolata-Regular-48"/>
      <use x="1149.999649" xlink:href="#Inconsolata-Regular-50"/>
      <use x="1199.999634" xlink:href="#Inconsolata-Regular-48"/>
      <use x="1249.999619" xlink:href="#Inconsolata-Regular-93"/>
     </g>
    </g>
   </g>
  </g>
 </g>
 <defs>
  <clipPath id="p1ea316b59f">
   <rect height="142.4" width="774.4" x="51.8" y="10.8"/>
  </clipPath>
 </defs>
</svg>
