<?xml version="1.0" encoding="utf-8" standalone="no"?>
<!DOCTYPE svg PUBLIC "-//W3C//DTD SVG 1.1//EN"
  "http://www.w3.org/Graphics/SVG/1.1/DTD/svg11.dtd">
<!-- Created with matplotlib (https://matplotlib.org/) -->
<svg height="180pt" version="1.1" viewBox="0 0 720 180" width="720pt" xmlns="http://www.w3.org/2000/svg" xmlns:xlink="http://www.w3.org/1999/xlink">
 <defs>
  <style type="text/css">
*{stroke-linecap:butt;stroke-linejoin:round;}
  </style>
 </defs>
 <g id="figure_1">
  <g id="patch_1">
   <path d="M 0 180 
L 720 180 
L 720 0 
L 0 0 
z
" style="fill:#ffffff;"/>
  </g>
  <g id="axes_1">
   <g id="patch_2">
    <path d="M 90 157.5 
L 648 157.5 
L 648 21.6 
L 90 21.6 
z
" style="fill:#e5e5e5;"/>
   </g>
   <g id="matplotlib.axis_1">
    <g id="xtick_1">
     <g id="line2d_1">
      <path clip-path="url(#p4e15fb6b00)" d="M 146.2949 157.5 
L 146.2949 21.6 
" style="fill:none;stroke:#ffffff;stroke-linecap:square;stroke-width:0.8;"/>
     </g>
     <g id="line2d_2">
      <defs>
       <path d="M 0 0 
L 0 3.5 
" id="m1e7069d370" style="stroke:#555555;stroke-width:0.8;"/>
      </defs>
      <g>
       <use style="fill:#555555;stroke:#555555;stroke-width:0.8;" x="146.2949" xlink:href="#m1e7069d370" y="157.5"/>
      </g>
     </g>
     <g id="text_1">
      <!-- 2020-02 -->
      <defs>
       <path d="M 7.296875 5.59375 
Q 14 12.5 19.390625 17.84375 
Q 24.796875 23.203125 28.59375 27.640625 
Q 32.40625 32.09375 34.40625 36.296875 
Q 36.40625 40.5 36.40625 45.09375 
Q 36.40625 51.59375 33.296875 54.09375 
Q 30.203125 56.59375 25.796875 56.59375 
Q 22.203125 56.59375 19.046875 55.046875 
Q 15.90625 53.5 13.296875 50.296875 
Q 12.40625 48.90625 12.203125 48.15625 
Q 12 47.40625 12.09375 46.59375 
L 11.703125 46.09375 
L 10.90625 46.59375 
L 5.796875 50.59375 
Q 8.796875 56.40625 14.046875 59.546875 
Q 19.296875 62.703125 25.703125 62.703125 
Q 33.59375 62.703125 38.59375 57.953125 
Q 43.59375 53.203125 43.59375 44.90625 
Q 43.59375 39.703125 41.296875 35 
Q 39 30.296875 35.140625 25.6875 
Q 31.296875 21.09375 26.390625 16.296875 
Q 21.5 11.5 16.296875 6.09375 
L 39.5 6.09375 
Q 41.203125 6.09375 41.890625 6.296875 
Q 42.59375 6.5 43.203125 7.09375 
L 43.90625 7.09375 
L 43.90625 0 
L 7.296875 0 
z
" id="Inconsolata-Regular-50"/>
       <path d="M 25 -1.09375 
Q 15.703125 -1.09375 10.703125 7.203125 
Q 5.703125 15.5 5.703125 30.796875 
Q 5.703125 45.59375 10.703125 54.140625 
Q 15.703125 62.703125 25 62.703125 
Q 34.296875 62.703125 39.296875 54.140625 
Q 44.296875 45.59375 44.296875 30.796875 
Q 44.296875 15.5 39.296875 7.203125 
Q 34.296875 -1.09375 25 -1.09375 
z
M 12.90625 30.796875 
Q 12.90625 24.40625 13.796875 19.40625 
L 35 46.703125 
Q 33.5 51.40625 30.953125 54 
Q 28.40625 56.59375 25 56.59375 
Q 19.296875 56.59375 16.09375 49.59375 
Q 12.90625 42.59375 12.90625 30.796875 
z
M 25 5 
Q 30.703125 5 33.890625 11.703125 
Q 37.09375 18.40625 37.09375 30.796875 
Q 37.09375 36.296875 36.40625 40.796875 
L 15.203125 13.90625 
Q 18.296875 5 25 5 
z
" id="Inconsolata-Regular-48"/>
       <path d="M 11.09375 28.09375 
L 11.09375 34.796875 
L 39.09375 34.796875 
L 39.09375 28.09375 
z
" id="Inconsolata-Regular-45"/>
      </defs>
      <g style="fill:#555555;" transform="translate(128.7949 171.15)scale(0.1 -0.1)">
       <use xlink:href="#Inconsolata-Regular-50"/>
       <use x="49.999985" xlink:href="#Inconsolata-Regular-48"/>
       <use x="99.999969" xlink:href="#Inconsolata-Regular-50"/>
       <use x="149.999954" xlink:href="#Inconsolata-Regular-48"/>
       <use x="199.999939" xlink:href="#Inconsolata-Regular-45"/>
       <use x="249.999924" xlink:href="#Inconsolata-Regular-48"/>
       <use x="299.999908" xlink:href="#Inconsolata-Regular-50"/>
      </g>
     </g>
    </g>
    <g id="xtick_2">
     <g id="line2d_3">
      <path clip-path="url(#p4e15fb6b00)" d="M 235.995565 157.5 
L 235.995565 21.6 
" style="fill:none;stroke:#ffffff;stroke-linecap:square;stroke-width:0.8;"/>
     </g>
     <g id="line2d_4">
      <g>
       <use style="fill:#555555;stroke:#555555;stroke-width:0.8;" x="235.995565" xlink:href="#m1e7069d370" y="157.5"/>
      </g>
     </g>
     <g id="text_2">
      <!-- 2020-03 -->
      <defs>
       <path d="M 24 -1.09375 
Q 19.09375 -1.09375 14.59375 0.703125 
Q 10.09375 2.5 6.90625 6 
L 11.5 11.5 
L 12.203125 12.296875 
L 12.703125 11.796875 
Q 12.796875 11 13.09375 10.25 
Q 13.40625 9.5 14.5 8.296875 
Q 16.203125 6.796875 18.390625 5.84375 
Q 20.59375 4.90625 23.703125 4.90625 
Q 29.703125 4.90625 32.59375 8.40625 
Q 35.5 11.90625 35.5 17.40625 
Q 35.5 24.5 30.75 27.453125 
Q 26 30.40625 18 29.59375 
L 18 35.203125 
Q 24.5 35.203125 27.796875 36.890625 
Q 31.09375 38.59375 32.25 41.4375 
Q 33.40625 44.296875 33.40625 47.5 
Q 33.40625 51.796875 30.953125 54.25 
Q 28.5 56.703125 24.5 56.703125 
Q 21.5 56.703125 18.640625 55.703125 
Q 15.796875 54.703125 13.09375 52.09375 
L 8.90625 56.296875 
Q 12.296875 59.796875 16.34375 61.25 
Q 20.40625 62.703125 24.40625 62.703125 
Q 32 62.703125 36.296875 58.390625 
Q 40.59375 54.09375 40.59375 47.203125 
Q 40.59375 42.296875 38.1875 38.4375 
Q 35.796875 34.59375 30.796875 33 
Q 36.09375 31.296875 39.390625 27.390625 
Q 42.703125 23.5 42.703125 17.09375 
Q 42.703125 12.203125 40.546875 8.046875 
Q 38.40625 3.90625 34.25 1.40625 
Q 30.09375 -1.09375 24 -1.09375 
z
" id="Inconsolata-Regular-51"/>
      </defs>
      <g style="fill:#555555;" transform="translate(218.495565 171.15)scale(0.1 -0.1)">
       <use xlink:href="#Inconsolata-Regular-50"/>
       <use x="49.999985" xlink:href="#Inconsolata-Regular-48"/>
       <use x="99.999969" xlink:href="#Inconsolata-Regular-50"/>
       <use x="149.999954" xlink:href="#Inconsolata-Regular-48"/>
       <use x="199.999939" xlink:href="#Inconsolata-Regular-45"/>
       <use x="249.999924" xlink:href="#Inconsolata-Regular-48"/>
       <use x="299.999908" xlink:href="#Inconsolata-Regular-51"/>
      </g>
     </g>
    </g>
    <g id="xtick_3">
     <g id="line2d_5">
      <path clip-path="url(#p4e15fb6b00)" d="M 331.882483 157.5 
L 331.882483 21.6 
" style="fill:none;stroke:#ffffff;stroke-linecap:square;stroke-width:0.8;"/>
     </g>
     <g id="line2d_6">
      <g>
       <use style="fill:#555555;stroke:#555555;stroke-width:0.8;" x="331.882483" xlink:href="#m1e7069d370" y="157.5"/>
      </g>
     </g>
     <g id="text_3">
      <!-- 2020-04 -->
      <defs>
       <path d="M 31.796875 0 
L 31.796875 15.296875 
L 4.796875 15.296875 
L 4.796875 20.40625 
L 33.296875 62.40625 
L 39.203125 62.40625 
L 39.203125 21.09375 
L 47.203125 21.09375 
L 47.203125 15.203125 
L 39.203125 15.203125 
L 39.203125 0 
z
M 12.90625 21.203125 
L 31.796875 21.203125 
L 31.796875 49.796875 
z
" id="Inconsolata-Regular-52"/>
      </defs>
      <g style="fill:#555555;" transform="translate(314.382483 171.15)scale(0.1 -0.1)">
       <use xlink:href="#Inconsolata-Regular-50"/>
       <use x="49.999985" xlink:href="#Inconsolata-Regular-48"/>
       <use x="99.999969" xlink:href="#Inconsolata-Regular-50"/>
       <use x="149.999954" xlink:href="#Inconsolata-Regular-48"/>
       <use x="199.999939" xlink:href="#Inconsolata-Regular-45"/>
       <use x="249.999924" xlink:href="#Inconsolata-Regular-48"/>
       <use x="299.999908" xlink:href="#Inconsolata-Regular-52"/>
      </g>
     </g>
    </g>
    <g id="xtick_4">
     <g id="line2d_7">
      <path clip-path="url(#p4e15fb6b00)" d="M 424.676275 157.5 
L 424.676275 21.6 
" style="fill:none;stroke:#ffffff;stroke-linecap:square;stroke-width:0.8;"/>
     </g>
     <g id="line2d_8">
      <g>
       <use style="fill:#555555;stroke:#555555;stroke-width:0.8;" x="424.676275" xlink:href="#m1e7069d370" y="157.5"/>
      </g>
     </g>
     <g id="text_4">
      <!-- 2020-05 -->
      <defs>
       <path d="M 24.90625 -1.09375 
Q 19.203125 -1.09375 14.34375 1.40625 
Q 9.5 3.90625 6.40625 8.5 
L 12.796875 13.296875 
L 13.203125 12.796875 
Q 13.09375 12 13.4375 11.296875 
Q 13.796875 10.59375 14.796875 9.296875 
Q 16.796875 7.09375 19.25 6.046875 
Q 21.703125 5 25.296875 5 
Q 28.5 5 31.25 6.796875 
Q 34 8.59375 35.703125 11.9375 
Q 37.40625 15.296875 37.40625 19.90625 
Q 37.40625 26.90625 33.65625 30.796875 
Q 29.90625 34.703125 24.59375 34.703125 
Q 21.40625 34.703125 18.296875 33.140625 
Q 15.203125 31.59375 12.90625 28.796875 
L 8.5 30.59375 
L 10.59375 62.296875 
L 42.203125 62.296875 
L 42.203125 56 
L 16.5 56 
L 15.5 38.09375 
Q 20.5 40.5 25.703125 40.5 
Q 31.09375 40.5 35.34375 37.953125 
Q 39.59375 35.40625 42.046875 30.703125 
Q 44.5 26 44.5 19.59375 
Q 44.5 13.203125 41.890625 8.546875 
Q 39.296875 3.90625 34.890625 1.40625 
Q 30.5 -1.09375 24.90625 -1.09375 
z
" id="Inconsolata-Regular-53"/>
      </defs>
      <g style="fill:#555555;" transform="translate(407.176275 171.15)scale(0.1 -0.1)">
       <use xlink:href="#Inconsolata-Regular-50"/>
       <use x="49.999985" xlink:href="#Inconsolata-Regular-48"/>
       <use x="99.999969" xlink:href="#Inconsolata-Regular-50"/>
       <use x="149.999954" xlink:href="#Inconsolata-Regular-48"/>
       <use x="199.999939" xlink:href="#Inconsolata-Regular-45"/>
       <use x="249.999924" xlink:href="#Inconsolata-Regular-48"/>
       <use x="299.999908" xlink:href="#Inconsolata-Regular-53"/>
      </g>
     </g>
    </g>
    <g id="xtick_5">
     <g id="line2d_9">
      <path clip-path="url(#p4e15fb6b00)" d="M 520.563193 157.5 
L 520.563193 21.6 
" style="fill:none;stroke:#ffffff;stroke-linecap:square;stroke-width:0.8;"/>
     </g>
     <g id="line2d_10">
      <g>
       <use style="fill:#555555;stroke:#555555;stroke-width:0.8;" x="520.563193" xlink:href="#m1e7069d370" y="157.5"/>
      </g>
     </g>
     <g id="text_5">
      <!-- 2020-06 -->
      <defs>
       <path d="M 26.09375 -1 
Q 16.796875 -1 11.75 6.890625 
Q 6.703125 14.796875 6.703125 28.40625 
Q 6.703125 45.203125 12.703125 54.09375 
Q 18.703125 63 28.703125 63 
Q 36.59375 63 42.40625 57.296875 
L 38 52.296875 
L 37.296875 51.5 
L 36.796875 52 
Q 36.703125 52.796875 36.34375 53.5 
Q 36 54.203125 34.703125 55.296875 
Q 32.5 56.796875 28.90625 56.796875 
Q 26.90625 56.796875 24.296875 55.84375 
Q 21.703125 54.90625 19.296875 52.296875 
Q 16.90625 49.703125 15.296875 44.953125 
Q 13.703125 40.203125 13.59375 32.703125 
Q 15.703125 36.203125 19.25 38.203125 
Q 22.796875 40.203125 26.796875 40.203125 
Q 31.5 40.203125 35.34375 37.640625 
Q 39.203125 35.09375 41.546875 30.546875 
Q 43.90625 26 43.90625 19.796875 
Q 43.90625 13.59375 41.5 8.890625 
Q 39.09375 4.203125 35.09375 1.59375 
Q 31.09375 -1 26.09375 -1 
z
M 26.40625 5.203125 
Q 30.703125 5.203125 33.890625 8.890625 
Q 37.09375 12.59375 37.09375 19.703125 
Q 37.09375 24.703125 35.4375 27.890625 
Q 33.796875 31.09375 31.296875 32.59375 
Q 28.796875 34.09375 26.203125 34.09375 
Q 22.59375 34.09375 19.296875 31.640625 
Q 16 29.203125 14 25.703125 
Q 13.59375 22.296875 14.25 18.6875 
Q 14.90625 15.09375 16.546875 12.046875 
Q 18.203125 9 20.703125 7.09375 
Q 23.203125 5.203125 26.40625 5.203125 
z
" id="Inconsolata-Regular-54"/>
      </defs>
      <g style="fill:#555555;" transform="translate(503.063193 171.15)scale(0.1 -0.1)">
       <use xlink:href="#Inconsolata-Regular-50"/>
       <use x="49.999985" xlink:href="#Inconsolata-Regular-48"/>
       <use x="99.999969" xlink:href="#Inconsolata-Regular-50"/>
       <use x="149.999954" xlink:href="#Inconsolata-Regular-48"/>
       <use x="199.999939" xlink:href="#Inconsolata-Regular-45"/>
       <use x="249.999924" xlink:href="#Inconsolata-Regular-48"/>
       <use x="299.999908" xlink:href="#Inconsolata-Regular-54"/>
      </g>
     </g>
    </g>
    <g id="xtick_6">
     <g id="line2d_11">
      <path clip-path="url(#p4e15fb6b00)" d="M 613.356984 157.5 
L 613.356984 21.6 
" style="fill:none;stroke:#ffffff;stroke-linecap:square;stroke-width:0.8;"/>
     </g>
     <g id="line2d_12">
      <g>
       <use style="fill:#555555;stroke:#555555;stroke-width:0.8;" x="613.356984" xlink:href="#m1e7069d370" y="157.5"/>
      </g>
     </g>
     <g id="text_6">
      <!-- 2020-07 -->
      <defs>
       <path d="M 15.5 0 
Q 19.90625 14.296875 24.59375 28.09375 
Q 29.296875 41.90625 34.5 55.703125 
L 7.90625 55.703125 
L 7.90625 62.296875 
L 43.203125 62.296875 
L 43.203125 58.40625 
Q 37.5 44 32.5 29.5 
Q 27.5 15 23.40625 0 
z
" id="Inconsolata-Regular-55"/>
      </defs>
      <g style="fill:#555555;" transform="translate(595.856984 171.15)scale(0.1 -0.1)">
       <use xlink:href="#Inconsolata-Regular-50"/>
       <use x="49.999985" xlink:href="#Inconsolata-Regular-48"/>
       <use x="99.999969" xlink:href="#Inconsolata-Regular-50"/>
       <use x="149.999954" xlink:href="#Inconsolata-Regular-48"/>
       <use x="199.999939" xlink:href="#Inconsolata-Regular-45"/>
       <use x="249.999924" xlink:href="#Inconsolata-Regular-48"/>
       <use x="299.999908" xlink:href="#Inconsolata-Regular-55"/>
      </g>
     </g>
    </g>
   </g>
   <g id="matplotlib.axis_2">
    <g id="ytick_1">
     <g id="line2d_13">
      <path clip-path="url(#p4e15fb6b00)" d="M 90 157.5 
L 648 157.5 
" style="fill:none;stroke:#ffffff;stroke-linecap:square;stroke-width:0.8;"/>
     </g>
     <g id="line2d_14">
      <defs>
       <path d="M 0 0 
L -3.5 0 
" id="mb5b0138ae3" style="stroke:#555555;stroke-width:0.8;"/>
      </defs>
      <g>
       <use style="fill:#555555;stroke:#555555;stroke-width:0.8;" x="90" xlink:href="#mb5b0138ae3" y="157.5"/>
      </g>
     </g>
     <g id="line2d_15">
      <defs>
       <path d="M 0 0 
L 3.5 0 
" id="ma6ac7d42c0" style="stroke:#555555;stroke-width:0.8;"/>
      </defs>
      <g>
       <use style="fill:#555555;stroke:#555555;stroke-width:0.8;" x="648" xlink:href="#ma6ac7d42c0" y="157.5"/>
      </g>
     </g>
     <g id="text_7">
      <!-- 0 -->
      <g style="fill:#555555;" transform="translate(78 160.825)scale(0.1 -0.1)">
       <use xlink:href="#Inconsolata-Regular-48"/>
      </g>
     </g>
     <g id="text_8">
      <!-- 0 -->
      <g style="fill:#555555;" transform="translate(655 160.825)scale(0.1 -0.1)">
       <use xlink:href="#Inconsolata-Regular-48"/>
      </g>
     </g>
    </g>
    <g id="ytick_2">
     <g id="line2d_16">
      <path clip-path="url(#p4e15fb6b00)" d="M 90 118.272268 
L 648 118.272268 
" style="fill:none;stroke:#ffffff;stroke-linecap:square;stroke-width:0.8;"/>
     </g>
     <g id="line2d_17">
      <g>
       <use style="fill:#555555;stroke:#555555;stroke-width:0.8;" x="90" xlink:href="#mb5b0138ae3" y="118.272268"/>
      </g>
     </g>
     <g id="line2d_18">
      <g>
       <use style="fill:#555555;stroke:#555555;stroke-width:0.8;" x="648" xlink:href="#ma6ac7d42c0" y="118.272268"/>
      </g>
     </g>
     <g id="text_9">
      <!-- 500 -->
      <g style="fill:#555555;" transform="translate(68 121.597268)scale(0.1 -0.1)">
       <use xlink:href="#Inconsolata-Regular-53"/>
       <use x="49.999985" xlink:href="#Inconsolata-Regular-48"/>
       <use x="99.999969" xlink:href="#Inconsolata-Regular-48"/>
      </g>
     </g>
     <g id="text_10">
      <!-- 500 -->
      <g style="fill:#555555;" transform="translate(655 121.597268)scale(0.1 -0.1)">
       <use xlink:href="#Inconsolata-Regular-53"/>
       <use x="49.999985" xlink:href="#Inconsolata-Regular-48"/>
       <use x="99.999969" xlink:href="#Inconsolata-Regular-48"/>
      </g>
     </g>
    </g>
    <g id="ytick_3">
     <g id="line2d_19">
      <path clip-path="url(#p4e15fb6b00)" d="M 90 79.044535 
L 648 79.044535 
" style="fill:none;stroke:#ffffff;stroke-linecap:square;stroke-width:0.8;"/>
     </g>
     <g id="line2d_20">
      <g>
       <use style="fill:#555555;stroke:#555555;stroke-width:0.8;" x="90" xlink:href="#mb5b0138ae3" y="79.044535"/>
      </g>
     </g>
     <g id="line2d_21">
      <g>
       <use style="fill:#555555;stroke:#555555;stroke-width:0.8;" x="648" xlink:href="#ma6ac7d42c0" y="79.044535"/>
      </g>
     </g>
     <g id="text_11">
      <!-- 1000 -->
      <defs>
       <path d="M 23 0 
L 23 53.703125 
L 10.40625 50 
L 8.796875 53.90625 
L 25.09375 62.40625 
L 30 62.40625 
L 30 0 
z
" id="Inconsolata-Regular-49"/>
      </defs>
      <g style="fill:#555555;" transform="translate(63 82.369535)scale(0.1 -0.1)">
       <use xlink:href="#Inconsolata-Regular-49"/>
       <use x="49.999985" xlink:href="#Inconsolata-Regular-48"/>
       <use x="99.999969" xlink:href="#Inconsolata-Regular-48"/>
       <use x="149.999954" xlink:href="#Inconsolata-Regular-48"/>
      </g>
     </g>
     <g id="text_12">
      <!-- 1000 -->
      <g style="fill:#555555;" transform="translate(655 82.369535)scale(0.1 -0.1)">
       <use xlink:href="#Inconsolata-Regular-49"/>
       <use x="49.999985" xlink:href="#Inconsolata-Regular-48"/>
       <use x="99.999969" xlink:href="#Inconsolata-Regular-48"/>
       <use x="149.999954" xlink:href="#Inconsolata-Regular-48"/>
      </g>
     </g>
    </g>
    <g id="ytick_4">
     <g id="line2d_22">
      <path clip-path="url(#p4e15fb6b00)" d="M 90 39.816803 
L 648 39.816803 
" style="fill:none;stroke:#ffffff;stroke-linecap:square;stroke-width:0.8;"/>
     </g>
     <g id="line2d_23">
      <g>
       <use style="fill:#555555;stroke:#555555;stroke-width:0.8;" x="90" xlink:href="#mb5b0138ae3" y="39.816803"/>
      </g>
     </g>
     <g id="line2d_24">
      <g>
       <use style="fill:#555555;stroke:#555555;stroke-width:0.8;" x="648" xlink:href="#ma6ac7d42c0" y="39.816803"/>
      </g>
     </g>
     <g id="text_13">
      <!-- 1500 -->
      <g style="fill:#555555;" transform="translate(63 43.141803)scale(0.1 -0.1)">
       <use xlink:href="#Inconsolata-Regular-49"/>
       <use x="49.999985" xlink:href="#Inconsolata-Regular-53"/>
       <use x="99.999969" xlink:href="#Inconsolata-Regular-48"/>
       <use x="149.999954" xlink:href="#Inconsolata-Regular-48"/>
      </g>
     </g>
     <g id="text_14">
      <!-- 1500 -->
      <g style="fill:#555555;" transform="translate(655 43.141803)scale(0.1 -0.1)">
       <use xlink:href="#Inconsolata-Regular-49"/>
       <use x="49.999985" xlink:href="#Inconsolata-Regular-53"/>
       <use x="99.999969" xlink:href="#Inconsolata-Regular-48"/>
       <use x="149.999954" xlink:href="#Inconsolata-Regular-48"/>
      </g>
     </g>
    </g>
    <g id="text_15">
     <!-- doubling time [days] -->
     <defs>
      <path d="M 23.40625 -1 
Q 18.796875 -1 14.4375 1.640625 
Q 10.09375 4.296875 7.296875 9.6875 
Q 4.5 15.09375 4.5 23.296875 
Q 4.5 31.703125 7.390625 36.890625 
Q 10.296875 42.09375 14.75 44.5 
Q 19.203125 46.90625 23.796875 46.90625 
Q 28.5 46.90625 31.953125 44.75 
Q 35.40625 42.59375 37.09375 39 
L 37.09375 66.5 
L 44.703125 66.5 
L 44.703125 65.796875 
Q 44.09375 65.203125 43.9375 64.5 
Q 43.796875 63.796875 43.796875 62.09375 
L 43.90625 7.09375 
Q 43.90625 5.296875 44.046875 3.546875 
Q 44.203125 1.796875 44.90625 0 
L 37.796875 0 
Q 37.09375 1.796875 36.9375 3.546875 
Q 36.796875 5.296875 36.796875 7.09375 
Q 34.59375 3.40625 31.1875 1.203125 
Q 27.796875 -1 23.40625 -1 
z
M 24.5 5.296875 
Q 28.90625 5.296875 31.546875 7.6875 
Q 34.203125 10.09375 35.34375 14.140625 
Q 36.5 18.203125 36.5 23.09375 
Q 36.5 30.796875 33.5 35.890625 
Q 30.5 41 23.90625 41 
Q 17.796875 41 14.640625 36.5 
Q 11.5 32 11.5 24.40625 
Q 11.5 15.796875 14.796875 10.546875 
Q 18.09375 5.296875 24.5 5.296875 
z
" id="Inconsolata-Regular-100"/>
      <path d="M 25 -0.796875 
Q 18.796875 -0.796875 14.046875 2.25 
Q 9.296875 5.296875 6.59375 10.640625 
Q 3.90625 16 3.90625 22.90625 
Q 3.90625 29.90625 6.59375 35.25 
Q 9.296875 40.59375 14.046875 43.640625 
Q 18.796875 46.703125 25 46.703125 
Q 31.203125 46.703125 35.953125 43.640625 
Q 40.703125 40.59375 43.390625 35.25 
Q 46.09375 29.90625 46.09375 22.90625 
Q 46.09375 16 43.390625 10.640625 
Q 40.703125 5.296875 35.953125 2.25 
Q 31.203125 -0.796875 25 -0.796875 
z
M 25 5.203125 
Q 29 5.203125 32 7.5 
Q 35 9.796875 36.75 13.796875 
Q 38.5 17.796875 38.5 23 
Q 38.5 30.796875 34.703125 35.75 
Q 30.90625 40.703125 25 40.703125 
Q 19.09375 40.703125 15.296875 35.75 
Q 11.5 30.796875 11.5 23 
Q 11.5 17.796875 13.25 13.796875 
Q 15 9.796875 18.046875 7.5 
Q 21.09375 5.203125 25 5.203125 
z
" id="Inconsolata-Regular-111"/>
      <path d="M 22.09375 -1.09375 
Q 15.296875 -1.09375 10.796875 4 
Q 6.296875 9.09375 6.40625 20.203125 
L 6.5 45.703125 
L 13.5 45.703125 
L 13.5 20.203125 
Q 13.5 11.5 16.546875 8.09375 
Q 19.59375 4.703125 23.90625 4.703125 
Q 27.09375 4.703125 29.890625 6.390625 
Q 32.703125 8.09375 34.453125 11.59375 
Q 36.203125 15.09375 36.203125 20.5 
L 36.203125 45.703125 
L 43.203125 45.703125 
L 43.203125 7.09375 
Q 43.203125 5.296875 43.34375 3.546875 
Q 43.5 1.796875 44.203125 0 
L 37.296875 0 
Q 36.59375 1.703125 36.4375 3.5 
Q 36.296875 5.296875 36.296875 7 
Q 34.09375 3.203125 30.34375 1.046875 
Q 26.59375 -1.09375 22.09375 -1.09375 
z
" id="Inconsolata-Regular-117"/>
      <path d="M 26.59375 -1.09375 
Q 22.40625 -1.09375 18.90625 0.796875 
Q 15.40625 2.703125 13.09375 6 
L 10.59375 0 
L 6 0 
L 6 66.5 
L 14.203125 66.5 
L 14.203125 65.796875 
Q 13.59375 65.203125 13.4375 64.5 
Q 13.296875 63.796875 13.296875 62.09375 
L 13.296875 38.703125 
Q 15.5 42.40625 19.25 44.59375 
Q 23 46.796875 26.90625 46.796875 
Q 35.203125 46.796875 40.453125 40.9375 
Q 45.703125 35.09375 45.703125 23.296875 
Q 45.703125 15.09375 42.890625 9.6875 
Q 40.09375 4.296875 35.75 1.59375 
Q 31.40625 -1.09375 26.59375 -1.09375 
z
M 25.703125 5.296875 
Q 28.90625 5.296875 31.796875 6.9375 
Q 34.703125 8.59375 36.5 12.5 
Q 38.296875 16.40625 38.296875 22.90625 
Q 38.296875 32 34.84375 36.296875 
Q 31.40625 40.59375 25.90625 40.59375 
Q 20.40625 40.59375 16.84375 35.640625 
Q 13.296875 30.703125 13.296875 22.703125 
Q 13.296875 14.796875 16.140625 10.046875 
Q 19 5.296875 25.703125 5.296875 
z
" id="Inconsolata-Regular-98"/>
      <path d="M 7.90625 0 
L 7.90625 5.796875 
L 21.40625 5.796875 
L 21.40625 60.703125 
L 8.5 60.703125 
L 8.5 66.5 
L 28.703125 66.5 
L 28.703125 5.796875 
L 42.09375 5.796875 
L 42.09375 0 
z
" id="Inconsolata-Regular-108"/>
      <path d="M 10 0 
L 10 5.796875 
L 21.703125 5.796875 
L 21.703125 39.90625 
L 10.59375 39.90625 
L 10.59375 45.703125 
L 28.90625 45.703125 
L 28.90625 5.796875 
L 39.59375 5.796875 
L 39.59375 0 
z
M 24.90625 55.296875 
Q 22.796875 55.296875 21.296875 56.796875 
Q 19.796875 58.296875 19.796875 60.40625 
Q 19.796875 62.59375 21.25 64.09375 
Q 22.703125 65.59375 24.90625 65.59375 
Q 27 65.59375 28.546875 64.046875 
Q 30.09375 62.5 30.09375 60.40625 
Q 30.09375 58.296875 28.546875 56.796875 
Q 27 55.296875 24.90625 55.296875 
z
" id="Inconsolata-Regular-105"/>
      <path d="M 7.203125 0 
L 7.203125 45.703125 
L 14.203125 45.703125 
L 14.203125 37.59375 
Q 16.796875 41.796875 20.9375 44.296875 
Q 25.09375 46.796875 29.703125 46.796875 
Q 35.296875 46.796875 39.1875 42.4375 
Q 43.09375 38.09375 43.09375 27.703125 
L 43.09375 0 
L 36.09375 0 
L 36.09375 27.5 
Q 36.09375 34.703125 33.640625 37.59375 
Q 31.203125 40.5 27.703125 40.5 
Q 24.703125 40.5 21.546875 38.75 
Q 18.40625 37 16.296875 33.84375 
Q 14.203125 30.703125 14.203125 26.296875 
L 14.203125 0 
z
" id="Inconsolata-Regular-110"/>
      <path d="M 22.59375 15.5 
Q 18.703125 15.5 15.5 16.90625 
Q 13.703125 14.703125 13.703125 12.703125 
Q 13.703125 10.296875 16.703125 9.25 
Q 19.703125 8.203125 27.703125 8.203125 
Q 34.703125 8.203125 38.296875 6.703125 
Q 41.90625 5.203125 43.203125 2.59375 
Q 44.5 0 44.5 -3.40625 
Q 44.5 -6.90625 42.59375 -10.09375 
Q 40.703125 -13.296875 36.34375 -15.25 
Q 32 -17.203125 24.703125 -17.203125 
Q 15.09375 -17.203125 9.4375 -14.25 
Q 3.796875 -11.296875 3.796875 -5.40625 
Q 3.796875 -1.703125 5.890625 0.9375 
Q 8 3.59375 10.90625 4.90625 
Q 7.59375 7.09375 7.59375 11 
Q 7.59375 13.203125 8.6875 15.296875 
Q 9.796875 17.40625 11.703125 19.40625 
Q 6.59375 23.90625 6.59375 31.5 
Q 6.59375 35.90625 8.546875 39.5 
Q 10.5 43.09375 14.09375 45.25 
Q 17.703125 47.40625 22.59375 47.40625 
Q 26.296875 47.40625 29.25 46.15625 
Q 32.203125 44.90625 34.296875 42.703125 
Q 36.90625 45.09375 39.796875 46.140625 
Q 42.703125 47.203125 46.59375 46.90625 
L 47.5 41 
Q 44.5 41.296875 41.84375 40.890625 
Q 39.203125 40.5 36.90625 39 
Q 38.59375 35.59375 38.59375 31.5 
Q 38.59375 27.09375 36.640625 23.4375 
Q 34.703125 19.796875 31.140625 17.640625 
Q 27.59375 15.5 22.59375 15.5 
z
M 22.59375 21.5 
Q 27 21.5 29.796875 24.453125 
Q 32.59375 27.40625 32.59375 31.5 
Q 32.59375 35.59375 29.796875 38.546875 
Q 27 41.5 22.59375 41.5 
Q 18.296875 41.5 15.4375 38.546875 
Q 12.59375 35.59375 12.59375 31.5 
Q 12.59375 27.40625 15.4375 24.453125 
Q 18.296875 21.5 22.59375 21.5 
z
M 10.40625 -4.59375 
Q 10.40625 -8 14.25 -9.890625 
Q 18.09375 -11.796875 24.796875 -11.796875 
Q 31.59375 -11.796875 34.75 -9.75 
Q 37.90625 -7.703125 37.90625 -4.5 
Q 37.90625 -2.296875 37.09375 -0.890625 
Q 36.296875 0.5 33.796875 1.203125 
Q 31.296875 1.90625 26.203125 1.90625 
Q 22.703125 1.90625 19.84375 2.203125 
Q 17 2.5 14.703125 3.203125 
Q 12.40625 1.59375 11.40625 -0.046875 
Q 10.40625 -1.703125 10.40625 -4.59375 
z
" id="Inconsolata-Regular-103"/>
      <path id="Inconsolata-Regular-32"/>
      <path d="M 29.90625 -0.703125 
Q 24 -0.703125 20.953125 2 
Q 17.90625 4.703125 16.90625 10.34375 
Q 15.90625 16 16.203125 24.796875 
L 16.796875 39.796875 
L 7 39.796875 
L 7 45.703125 
L 17 45.703125 
L 17.40625 57.40625 
L 24.90625 58.296875 
L 25.90625 58.40625 
L 26 57.703125 
Q 25.5 57 25.140625 56.296875 
Q 24.796875 55.59375 24.59375 53.90625 
L 23.90625 45.703125 
L 39.90625 45.703125 
L 39.90625 39.796875 
L 24 39.796875 
L 23.296875 24.296875 
Q 23 16.703125 23.703125 12.546875 
Q 24.40625 8.40625 26.203125 6.84375 
Q 28 5.296875 31 5.296875 
Q 34.296875 5.296875 36.84375 6.59375 
Q 39.40625 7.90625 42.203125 9.90625 
L 44.40625 4.203125 
Q 41 1.703125 37.390625 0.5 
Q 33.796875 -0.703125 29.90625 -0.703125 
z
" id="Inconsolata-Regular-116"/>
      <path d="M 3.796875 0 
L 3.796875 45.703125 
L 10.40625 45.703125 
L 10.40625 41.203125 
Q 12 43.703125 14.5 45.25 
Q 17 46.796875 19.703125 46.796875 
Q 22.703125 46.796875 24.953125 44.890625 
Q 27.203125 43 27.796875 40.09375 
Q 29.09375 43.09375 31.890625 44.9375 
Q 34.703125 46.796875 38.09375 46.796875 
Q 42.796875 46.796875 44.9375 43.4375 
Q 47.09375 40.09375 46.90625 35.09375 
L 46.90625 0 
L 40.296875 0 
L 40.296875 32.40625 
Q 40.296875 36.59375 39.75 38.5 
Q 39.203125 40.40625 38.203125 40.953125 
Q 37.203125 41.5 36 41.5 
Q 34.09375 41.5 32.4375 39.75 
Q 30.796875 38 29.75 35.390625 
Q 28.703125 32.796875 28.703125 30.203125 
L 28.703125 0 
L 22 0 
L 22 31.796875 
Q 22 37.5 20.953125 39.390625 
Q 19.90625 41.296875 17 41.296875 
Q 14.796875 41.296875 12.59375 38.4375 
Q 10.40625 35.59375 10.40625 30.5 
L 10.40625 0 
z
" id="Inconsolata-Regular-109"/>
      <path d="M 27.203125 -1 
Q 17.203125 -1 11.046875 5.09375 
Q 4.90625 11.203125 4.90625 22.703125 
Q 4.90625 30.5 7.75 35.84375 
Q 10.59375 41.203125 15.34375 44 
Q 20.09375 46.796875 25.90625 46.796875 
Q 31.09375 46.796875 35.296875 44.5 
Q 39.5 42.203125 42 37.390625 
Q 44.5 32.59375 44.5 25.09375 
Q 44.5 24.296875 44.453125 23.4375 
Q 44.40625 22.59375 44.296875 21.796875 
L 11.796875 21.796875 
Q 12.203125 13 16.75 8.890625 
Q 21.296875 4.796875 27.40625 4.796875 
Q 34.59375 4.796875 39.203125 9.90625 
L 43.203125 6 
Q 37.40625 -1 27.203125 -1 
z
M 12.09375 27.40625 
L 37.203125 27.40625 
Q 37.203125 33.796875 33.953125 37.546875 
Q 30.703125 41.296875 25.40625 41.296875 
Q 20.703125 41.296875 16.890625 37.9375 
Q 13.09375 34.59375 12.09375 27.40625 
z
" id="Inconsolata-Regular-101"/>
      <path d="M 13.09375 -8.90625 
L 13.09375 67 
L 41.703125 67 
L 41.703125 61 
L 19.5 61 
L 19.5 -3.203125 
L 41.796875 -3.203125 
L 41.796875 -8.90625 
z
" id="Inconsolata-Regular-91"/>
      <path d="M 21.09375 -1.09375 
Q 13.296875 -1.09375 9.09375 2.453125 
Q 4.90625 6 4.90625 11.5 
Q 4.90625 16.40625 8 19.953125 
Q 11.09375 23.5 16.34375 25.453125 
Q 21.59375 27.40625 27.90625 27.40625 
Q 30.203125 27.40625 32.75 27.296875 
Q 35.296875 27.203125 38.203125 26.796875 
Q 37.59375 34.796875 34.046875 37.796875 
Q 30.5 40.796875 23.90625 40.796875 
Q 20.59375 40.796875 17.390625 39.546875 
Q 14.203125 38.296875 11.59375 35.703125 
L 8.09375 40.296875 
Q 11.296875 43.5 15.5 45.09375 
Q 19.703125 46.703125 24.40625 46.703125 
Q 30.5 46.703125 35 44.703125 
Q 39.5 42.703125 42 37.796875 
Q 44.5 32.90625 44.5 24.296875 
L 44.5 0 
L 36.703125 0 
L 36.703125 7 
Q 35 3.703125 32.34375 1.953125 
Q 29.703125 0.203125 26.75 -0.4375 
Q 23.796875 -1.09375 21.09375 -1.09375 
z
M 12.09375 11.90625 
Q 12.09375 7.59375 14.890625 6 
Q 17.703125 4.40625 21.796875 4.40625 
Q 29.203125 4.40625 33.5 8.75 
Q 37.796875 13.09375 38.203125 21.296875 
Q 33 22 28.5 22 
Q 21.296875 22 16.6875 19.59375 
Q 12.09375 17.203125 12.09375 11.90625 
z
" id="Inconsolata-Regular-97"/>
      <path d="M 12.703125 -17.40625 
Q 6.296875 -17.40625 2.203125 -13.5 
L 5.296875 -8.59375 
L 5.90625 -7.703125 
L 6.5 -8.09375 
Q 6.703125 -8.90625 7.203125 -9.453125 
Q 7.703125 -10 9.09375 -10.90625 
Q 10.90625 -11.5 13.09375 -11.5 
Q 17 -11.5 19.203125 -8.75 
Q 21.40625 -6 23.296875 -0.296875 
L 4.59375 45.703125 
L 12.09375 45.703125 
L 26.296875 9.09375 
L 32.296875 27.5 
Q 33.796875 32.09375 35.1875 36.59375 
Q 36.59375 41.09375 37.09375 45.703125 
L 44.296875 45.703125 
Q 43.59375 41.09375 42.09375 36.390625 
Q 40.59375 31.703125 38.90625 27 
L 27.5 -5.203125 
Q 25.09375 -11.90625 21.34375 -14.65625 
Q 17.59375 -17.40625 12.703125 -17.40625 
z
" id="Inconsolata-Regular-121"/>
      <path d="M 25.09375 -1 
Q 13.5 -1 5.703125 6.203125 
L 9.703125 13 
L 10.296875 13.90625 
L 10.90625 13.5 
Q 11.09375 12.703125 11.34375 11.84375 
Q 11.59375 11 12.703125 9.796875 
Q 14.796875 7.703125 17.75 6.34375 
Q 20.703125 5 25.296875 5 
Q 30.796875 5 33.84375 6.953125 
Q 36.90625 8.90625 36.90625 12.296875 
Q 36.90625 15.203125 34.34375 17.09375 
Q 31.796875 19 25.40625 21.09375 
Q 17.5 23.40625 12.84375 26.796875 
Q 8.203125 30.203125 8.203125 35.296875 
Q 8.203125 40.5 12.453125 43.640625 
Q 16.703125 46.796875 25 46.796875 
Q 31.40625 46.796875 35.59375 45 
Q 39.796875 43.203125 43.203125 39.59375 
L 39.09375 34.59375 
L 38.40625 33.796875 
L 37.90625 34.296875 
Q 37.796875 35.09375 37.4375 35.84375 
Q 37.09375 36.59375 36 37.703125 
Q 33.703125 39.5 30.796875 40.453125 
Q 27.90625 41.40625 25.203125 41.40625 
Q 21.203125 41.40625 18.296875 40 
Q 15.40625 38.59375 15.40625 35.703125 
Q 15.40625 34.203125 16.453125 32.75 
Q 17.5 31.296875 20.296875 29.84375 
Q 23.09375 28.40625 28.296875 26.90625 
Q 36.90625 24.296875 40.453125 21.25 
Q 44 18.203125 44 13.296875 
Q 44 9.5 41.953125 6.203125 
Q 39.90625 2.90625 35.703125 0.953125 
Q 31.5 -1 25.09375 -1 
z
" id="Inconsolata-Regular-115"/>
      <path d="M 41.78125 -8.90625 
L 41.78125 67 
L 13.171875 67 
L 13.171875 61 
L 35.375 61 
L 35.375 -3.203125 
L 13.078125 -3.203125 
L 13.078125 -8.90625 
z
" id="Inconsolata-Regular-93"/>
     </defs>
     <g style="fill:#555555;" transform="translate(56.91125 149.55)rotate(-90)scale(0.12 -0.12)">
      <use xlink:href="#Inconsolata-Regular-100"/>
      <use x="49.999985" xlink:href="#Inconsolata-Regular-111"/>
      <use x="99.999969" xlink:href="#Inconsolata-Regular-117"/>
      <use x="149.999954" xlink:href="#Inconsolata-Regular-98"/>
      <use x="199.999939" xlink:href="#Inconsolata-Regular-108"/>
      <use x="249.999924" xlink:href="#Inconsolata-Regular-105"/>
      <use x="299.999908" xlink:href="#Inconsolata-Regular-110"/>
      <use x="349.999893" xlink:href="#Inconsolata-Regular-103"/>
      <use x="399.999878" xlink:href="#Inconsolata-Regular-32"/>
      <use x="449.999863" xlink:href="#Inconsolata-Regular-116"/>
      <use x="499.999847" xlink:href="#Inconsolata-Regular-105"/>
      <use x="549.999832" xlink:href="#Inconsolata-Regular-109"/>
      <use x="599.999817" xlink:href="#Inconsolata-Regular-101"/>
      <use x="649.999802" xlink:href="#Inconsolata-Regular-32"/>
      <use x="699.999786" xlink:href="#Inconsolata-Regular-91"/>
      <use x="749.999771" xlink:href="#Inconsolata-Regular-100"/>
      <use x="799.999756" xlink:href="#Inconsolata-Regular-97"/>
      <use x="849.999741" xlink:href="#Inconsolata-Regular-121"/>
      <use x="899.999725" xlink:href="#Inconsolata-Regular-115"/>
      <use x="949.99971" xlink:href="#Inconsolata-Regular-93"/>
     </g>
    </g>
   </g>
   <g id="line2d_25">
    <defs>
     <path d="M 0 3 
C 0.795609 3 1.55874 2.683901 2.12132 2.12132 
C 2.683901 1.55874 3 0.795609 3 0 
C 3 -0.795609 2.683901 -1.55874 2.12132 -2.12132 
C 1.55874 -2.683901 0.795609 -3 0 -3 
C -0.795609 -3 -1.55874 -2.683901 -2.12132 -2.12132 
C -2.683901 -1.55874 -3 -0.795609 -3 0 
C -3 0.795609 -2.683901 1.55874 -2.12132 2.12132 
C -1.55874 2.683901 -0.795609 3 0 3 
z
" id="m84d0d8c0f1" style="stroke:#e24a33;stroke-opacity:0.3;"/>
    </defs>
    <g clip-path="url(#p4e15fb6b00)">
     <use style="fill:#e24a33;fill-opacity:0.3;stroke:#e24a33;stroke-opacity:0.3;" x="208.157428" xlink:href="#m84d0d8c0f1" y="157.421545"/>
     <use style="fill:#e24a33;fill-opacity:0.3;stroke:#e24a33;stroke-opacity:0.3;" x="214.343681" xlink:href="#m84d0d8c0f1" y="157.4505"/>
     <use style="fill:#e24a33;fill-opacity:0.3;stroke:#e24a33;stroke-opacity:0.3;" x="217.436807" xlink:href="#m84d0d8c0f1" y="157.310968"/>
     <use style="fill:#e24a33;fill-opacity:0.3;stroke:#e24a33;stroke-opacity:0.3;" x="220.529933" xlink:href="#m84d0d8c0f1" y="157.256295"/>
     <use style="fill:#e24a33;fill-opacity:0.3;stroke:#e24a33;stroke-opacity:0.3;" x="223.62306" xlink:href="#m84d0d8c0f1" y="157.201729"/>
     <use style="fill:#e24a33;fill-opacity:0.3;stroke:#e24a33;stroke-opacity:0.3;" x="226.716186" xlink:href="#m84d0d8c0f1" y="156.820598"/>
     <use style="fill:#e24a33;fill-opacity:0.3;stroke:#e24a33;stroke-opacity:0.3;" x="232.902439" xlink:href="#m84d0d8c0f1" y="157.238098"/>
     <use style="fill:#e24a33;fill-opacity:0.3;stroke:#e24a33;stroke-opacity:0.3;" x="235.995565" xlink:href="#m84d0d8c0f1" y="156.602985"/>
     <use style="fill:#e24a33;fill-opacity:0.3;stroke:#e24a33;stroke-opacity:0.3;" x="239.088692" xlink:href="#m84d0d8c0f1" y="157.391018"/>
     <use style="fill:#e24a33;fill-opacity:0.3;stroke:#e24a33;stroke-opacity:0.3;" x="245.274945" xlink:href="#m84d0d8c0f1" y="157.256295"/>
     <use style="fill:#e24a33;fill-opacity:0.3;stroke:#e24a33;stroke-opacity:0.3;" x="251.461197" xlink:href="#m84d0d8c0f1" y="157.201729"/>
     <use style="fill:#e24a33;fill-opacity:0.3;stroke:#e24a33;stroke-opacity:0.3;" x="254.554324" xlink:href="#m84d0d8c0f1" y="156.331015"/>
     <use style="fill:#e24a33;fill-opacity:0.3;stroke:#e24a33;stroke-opacity:0.3;" x="257.64745" xlink:href="#m84d0d8c0f1" y="157.074593"/>
     <use style="fill:#e24a33;fill-opacity:0.3;stroke:#e24a33;stroke-opacity:0.3;" x="260.740576" xlink:href="#m84d0d8c0f1" y="156.56672"/>
     <use style="fill:#e24a33;fill-opacity:0.3;stroke:#e24a33;stroke-opacity:0.3;" x="263.833703" xlink:href="#m84d0d8c0f1" y="154.590691"/>
     <use style="fill:#e24a33;fill-opacity:0.3;stroke:#e24a33;stroke-opacity:0.3;" x="266.926829" xlink:href="#m84d0d8c0f1" y="156.983856"/>
     <use style="fill:#e24a33;fill-opacity:0.3;stroke:#e24a33;stroke-opacity:0.3;" x="270.019956" xlink:href="#m84d0d8c0f1" y="156.929429"/>
     <use style="fill:#e24a33;fill-opacity:0.3;stroke:#e24a33;stroke-opacity:0.3;" x="276.206208" xlink:href="#m84d0d8c0f1" y="156.875011"/>
     <use style="fill:#e24a33;fill-opacity:0.3;stroke:#e24a33;stroke-opacity:0.3;" x="279.299335" xlink:href="#m84d0d8c0f1" y="156.167846"/>
     <use style="fill:#e24a33;fill-opacity:0.3;stroke:#e24a33;stroke-opacity:0.3;" x="285.485588" xlink:href="#m84d0d8c0f1" y="156.793393"/>
     <use style="fill:#e24a33;fill-opacity:0.3;stroke:#e24a33;stroke-opacity:0.3;" x="288.578714" xlink:href="#m84d0d8c0f1" y="156.004682"/>
     <use style="fill:#e24a33;fill-opacity:0.3;stroke:#e24a33;stroke-opacity:0.3;" x="291.67184" xlink:href="#m84d0d8c0f1" y="156.820598"/>
     <use style="fill:#e24a33;fill-opacity:0.3;stroke:#e24a33;stroke-opacity:0.3;" x="294.764967" xlink:href="#m84d0d8c0f1" y="155.823394"/>
     <use style="fill:#e24a33;fill-opacity:0.3;stroke:#e24a33;stroke-opacity:0.3;" x="297.858093" xlink:href="#m84d0d8c0f1" y="156.834201"/>
     <use style="fill:#e24a33;fill-opacity:0.3;stroke:#e24a33;stroke-opacity:0.3;" x="300.95122" xlink:href="#m84d0d8c0f1" y="156.856872"/>
     <use style="fill:#e24a33;fill-opacity:0.3;stroke:#e24a33;stroke-opacity:0.3;" x="307.137472" xlink:href="#m84d0d8c0f1" y="156.802461"/>
     <use style="fill:#e24a33;fill-opacity:0.3;stroke:#e24a33;stroke-opacity:0.3;" x="310.230599" xlink:href="#m84d0d8c0f1" y="156.385407"/>
     <use style="fill:#e24a33;fill-opacity:0.3;stroke:#e24a33;stroke-opacity:0.3;" x="313.323725" xlink:href="#m84d0d8c0f1" y="156.10258"/>
     <use style="fill:#e24a33;fill-opacity:0.3;stroke:#e24a33;stroke-opacity:0.3;" x="316.416851" xlink:href="#m84d0d8c0f1" y="156.582586"/>
     <use style="fill:#e24a33;fill-opacity:0.3;stroke:#e24a33;stroke-opacity:0.3;" x="319.509978" xlink:href="#m84d0d8c0f1" y="155.961173"/>
     <use style="fill:#e24a33;fill-opacity:0.3;stroke:#e24a33;stroke-opacity:0.3;" x="322.603104" xlink:href="#m84d0d8c0f1" y="156.494193"/>
     <use style="fill:#e24a33;fill-opacity:0.3;stroke:#e24a33;stroke-opacity:0.3;" x="325.696231" xlink:href="#m84d0d8c0f1" y="156.095328"/>
     <use style="fill:#e24a33;fill-opacity:0.3;stroke:#e24a33;stroke-opacity:0.3;" x="328.789357" xlink:href="#m84d0d8c0f1" y="155.324866"/>
     <use style="fill:#e24a33;fill-opacity:0.3;stroke:#e24a33;stroke-opacity:0.3;" x="331.882483" xlink:href="#m84d0d8c0f1" y="154.536309"/>
     <use style="fill:#e24a33;fill-opacity:0.3;stroke:#e24a33;stroke-opacity:0.3;" x="334.97561" xlink:href="#m84d0d8c0f1" y="155.229694"/>
     <use style="fill:#e24a33;fill-opacity:0.3;stroke:#e24a33;stroke-opacity:0.3;" x="338.068736" xlink:href="#m84d0d8c0f1" y="155.634858"/>
     <use style="fill:#e24a33;fill-opacity:0.3;stroke:#e24a33;stroke-opacity:0.3;" x="341.161863" xlink:href="#m84d0d8c0f1" y="154.318778"/>
     <use style="fill:#e24a33;fill-opacity:0.3;stroke:#e24a33;stroke-opacity:0.3;" x="344.254989" xlink:href="#m84d0d8c0f1" y="155.868716"/>
     <use style="fill:#e24a33;fill-opacity:0.3;stroke:#e24a33;stroke-opacity:0.3;" x="347.348115" xlink:href="#m84d0d8c0f1" y="154.155631"/>
     <use style="fill:#e24a33;fill-opacity:0.3;stroke:#e24a33;stroke-opacity:0.3;" x="350.441242" xlink:href="#m84d0d8c0f1" y="155.787137"/>
     <use style="fill:#e24a33;fill-opacity:0.3;stroke:#e24a33;stroke-opacity:0.3;" x="353.534368" xlink:href="#m84d0d8c0f1" y="156.167846"/>
     <use style="fill:#e24a33;fill-opacity:0.3;stroke:#e24a33;stroke-opacity:0.3;" x="356.627494" xlink:href="#m84d0d8c0f1" y="154.75384"/>
     <use style="fill:#e24a33;fill-opacity:0.3;stroke:#e24a33;stroke-opacity:0.3;" x="359.720621" xlink:href="#m84d0d8c0f1" y="154.699457"/>
     <use style="fill:#e24a33;fill-opacity:0.3;stroke:#e24a33;stroke-opacity:0.3;" x="362.813747" xlink:href="#m84d0d8c0f1" y="153.702446"/>
     <use style="fill:#e24a33;fill-opacity:0.3;stroke:#e24a33;stroke-opacity:0.3;" x="365.906874" xlink:href="#m84d0d8c0f1" y="153.648063"/>
     <use style="fill:#e24a33;fill-opacity:0.3;stroke:#e24a33;stroke-opacity:0.3;" x="369" xlink:href="#m84d0d8c0f1" y="153.593681"/>
     <use style="fill:#e24a33;fill-opacity:0.3;stroke:#e24a33;stroke-opacity:0.3;" x="372.093126" xlink:href="#m84d0d8c0f1" y="155.112769"/>
     <use style="fill:#e24a33;fill-opacity:0.3;stroke:#e24a33;stroke-opacity:0.3;" x="375.186253" xlink:href="#m84d0d8c0f1" y="153.448663"/>
     <use style="fill:#e24a33;fill-opacity:0.3;stroke:#e24a33;stroke-opacity:0.3;" x="378.279379" xlink:href="#m84d0d8c0f1" y="154.413948"/>
     <use style="fill:#e24a33;fill-opacity:0.3;stroke:#e24a33;stroke-opacity:0.3;" x="381.372506" xlink:href="#m84d0d8c0f1" y="145.019538"/>
     <use style="fill:#e24a33;fill-opacity:0.3;stroke:#e24a33;stroke-opacity:0.3;" x="384.465632" xlink:href="#m84d0d8c0f1" y="151.219012"/>
     <use style="fill:#e24a33;fill-opacity:0.3;stroke:#e24a33;stroke-opacity:0.3;" x="387.558758" xlink:href="#m84d0d8c0f1" y="151.164631"/>
     <use style="fill:#e24a33;fill-opacity:0.3;stroke:#e24a33;stroke-opacity:0.3;" x="390.651885" xlink:href="#m84d0d8c0f1" y="151.110249"/>
     <use style="fill:#e24a33;fill-opacity:0.3;stroke:#e24a33;stroke-opacity:0.3;" x="393.745011" xlink:href="#m84d0d8c0f1" y="144.638869"/>
     <use style="fill:#e24a33;fill-opacity:0.3;stroke:#e24a33;stroke-opacity:0.3;" x="396.838137" xlink:href="#m84d0d8c0f1" y="144.584488"/>
     <use style="fill:#e24a33;fill-opacity:0.3;stroke:#e24a33;stroke-opacity:0.3;" x="399.931264" xlink:href="#m84d0d8c0f1" y="151.001486"/>
     <use style="fill:#e24a33;fill-opacity:0.3;stroke:#e24a33;stroke-opacity:0.3;" x="406.117517" xlink:href="#m84d0d8c0f1" y="150.947105"/>
     <use style="fill:#e24a33;fill-opacity:0.3;stroke:#e24a33;stroke-opacity:0.3;" x="409.210643" xlink:href="#m84d0d8c0f1" y="144.312581"/>
     <use style="fill:#e24a33;fill-opacity:0.3;stroke:#e24a33;stroke-opacity:0.3;" x="412.303769" xlink:href="#m84d0d8c0f1" y="144.2582"/>
     <use style="fill:#e24a33;fill-opacity:0.3;stroke:#e24a33;stroke-opacity:0.3;" x="415.396896" xlink:href="#m84d0d8c0f1" y="150.838342"/>
     <use style="fill:#e24a33;fill-opacity:0.3;stroke:#e24a33;stroke-opacity:0.3;" x="418.490022" xlink:href="#m84d0d8c0f1" y="144.095056"/>
     <use style="fill:#e24a33;fill-opacity:0.3;stroke:#e24a33;stroke-opacity:0.3;" x="421.583149" xlink:href="#m84d0d8c0f1" y="144.040675"/>
     <use style="fill:#e24a33;fill-opacity:0.3;stroke:#e24a33;stroke-opacity:0.3;" x="424.676275" xlink:href="#m84d0d8c0f1" y="150.729579"/>
     <use style="fill:#e24a33;fill-opacity:0.3;stroke:#e24a33;stroke-opacity:0.3;" x="430.862528" xlink:href="#m84d0d8c0f1" y="150.675197"/>
     <use style="fill:#e24a33;fill-opacity:0.3;stroke:#e24a33;stroke-opacity:0.3;" x="433.955654" xlink:href="#m84d0d8c0f1" y="150.620816"/>
     <use style="fill:#e24a33;fill-opacity:0.3;stroke:#e24a33;stroke-opacity:0.3;" x="437.04878" xlink:href="#m84d0d8c0f1" y="143.660006"/>
     <use style="fill:#e24a33;fill-opacity:0.3;stroke:#e24a33;stroke-opacity:0.3;" x="440.141907" xlink:href="#m84d0d8c0f1" y="143.605625"/>
     <use style="fill:#e24a33;fill-opacity:0.3;stroke:#e24a33;stroke-opacity:0.3;" x="455.607539" xlink:href="#m84d0d8c0f1" y="150.512053"/>
     <use style="fill:#e24a33;fill-opacity:0.3;stroke:#e24a33;stroke-opacity:0.3;" x="458.700665" xlink:href="#m84d0d8c0f1" y="143.442481"/>
     <use style="fill:#e24a33;fill-opacity:0.3;stroke:#e24a33;stroke-opacity:0.3;" x="461.793792" xlink:href="#m84d0d8c0f1" y="143.3881"/>
     <use style="fill:#e24a33;fill-opacity:0.3;stroke:#e24a33;stroke-opacity:0.3;" x="467.980044" xlink:href="#m84d0d8c0f1" y="150.40329"/>
     <use style="fill:#e24a33;fill-opacity:0.3;stroke:#e24a33;stroke-opacity:0.3;" x="474.166297" xlink:href="#m84d0d8c0f1" y="143.224956"/>
     <use style="fill:#e24a33;fill-opacity:0.3;stroke:#e24a33;stroke-opacity:0.3;" x="483.445676" xlink:href="#m84d0d8c0f1" y="143.170575"/>
     <use style="fill:#e24a33;fill-opacity:0.3;stroke:#e24a33;stroke-opacity:0.3;" x="489.631929" xlink:href="#m84d0d8c0f1" y="150.294527"/>
     <use style="fill:#e24a33;fill-opacity:0.3;stroke:#e24a33;stroke-opacity:0.3;" x="495.818182" xlink:href="#m84d0d8c0f1" y="143.007431"/>
     <use style="fill:#e24a33;fill-opacity:0.3;stroke:#e24a33;stroke-opacity:0.3;" x="498.911308" xlink:href="#m84d0d8c0f1" y="150.212955"/>
     <use style="fill:#e24a33;fill-opacity:0.3;stroke:#e24a33;stroke-opacity:0.3;" x="514.37694" xlink:href="#m84d0d8c0f1" y="142.844288"/>
     <use style="fill:#e24a33;fill-opacity:0.3;stroke:#e24a33;stroke-opacity:0.3;" x="517.470067" xlink:href="#m84d0d8c0f1" y="142.789906"/>
     <use style="fill:#e24a33;fill-opacity:0.3;stroke:#e24a33;stroke-opacity:0.3;" x="520.563193" xlink:href="#m84d0d8c0f1" y="142.735525"/>
     <use style="fill:#e24a33;fill-opacity:0.3;stroke:#e24a33;stroke-opacity:0.3;" x="523.656319" xlink:href="#m84d0d8c0f1" y="142.681144"/>
     <use style="fill:#e24a33;fill-opacity:0.3;stroke:#e24a33;stroke-opacity:0.3;" x="542.215078" xlink:href="#m84d0d8c0f1" y="142.626763"/>
     <use style="fill:#e24a33;fill-opacity:0.3;stroke:#e24a33;stroke-opacity:0.3;" x="545.308204" xlink:href="#m84d0d8c0f1" y="150.02262"/>
     <use style="fill:#e24a33;fill-opacity:0.3;stroke:#e24a33;stroke-opacity:0.3;" x="551.494457" xlink:href="#m84d0d8c0f1" y="142.463619"/>
    </g>
   </g>
   <g id="line2d_26">
    <path clip-path="url(#p4e15fb6b00)" d="M 208.157428 157.380408 
L 211.250554 157.369554 
L 214.343681 157.346266 
L 217.436807 157.297077 
L 220.529933 157.243655 
L 223.62306 157.175717 
L 226.716186 157.142121 
L 229.809313 157.149878 
L 232.902439 157.173168 
L 235.995565 157.165414 
L 239.088692 157.158202 
L 242.181818 157.13344 
L 245.274945 157.100708 
L 248.368071 157.034416 
L 251.461197 156.952747 
L 254.554324 156.873049 
L 257.64745 156.837054 
L 260.740576 156.786007 
L 263.833703 156.724062 
L 266.926829 156.655762 
L 270.019956 156.573381 
L 273.113082 156.489701 
L 276.206208 156.422675 
L 279.299335 156.360758 
L 282.392461 156.339127 
L 285.485588 156.385343 
L 288.578714 156.459803 
L 291.67184 156.524881 
L 294.764967 156.551816 
L 297.858093 156.546028 
L 300.95122 156.522494 
L 304.044346 156.490007 
L 307.137472 156.449384 
L 310.230599 156.396969 
L 313.323725 156.362874 
L 316.416851 156.334829 
L 319.509978 156.246975 
L 322.603104 156.107275 
L 325.696231 155.948974 
L 328.789357 155.76062 
L 331.882483 155.562115 
L 334.97561 155.374536 
L 338.068736 155.263348 
L 341.161863 155.307303 
L 344.254989 155.427141 
L 347.348115 155.474533 
L 350.441242 155.435486 
L 353.534368 155.325028 
L 356.627494 155.146997 
L 359.720621 154.928908 
L 362.813747 154.635356 
L 365.906874 154.341306 
L 369 154.104669 
L 372.093126 153.877768 
L 375.186253 153.572672 
L 378.279379 153.202762 
L 381.372506 152.556965 
L 384.465632 151.614566 
L 387.558758 150.537162 
L 390.651885 149.536441 
L 393.745011 148.719855 
L 396.838137 148.000453 
L 399.931264 147.167131 
L 403.02439 146.704219 
L 406.117517 146.846868 
L 409.210643 146.926708 
L 412.303769 147.036695 
L 415.396896 147.075157 
L 418.490022 146.924419 
L 421.583149 146.93653 
L 424.676275 147.235723 
L 427.769401 147.187381 
L 430.862528 146.789724 
L 433.955654 145.509743 
L 437.04878 143.268835 
L 440.141907 138.689922 
L 443.235033 132.544763 
L 446.32816 128.721887 
L 449.421286 129.800647 
L 452.514412 132.989709 
L 455.607539 136.891269 
L 458.700665 140.203377 
L 461.793792 142.03998 
L 464.886918 141.262818 
L 467.980044 138.291663 
L 471.073171 134.623903 
L 474.166297 132.029206 
L 477.259424 130.535928 
L 480.35255 130.483853 
L 483.445676 131.876106 
L 486.538803 135.059873 
L 489.631929 138.767569 
L 492.725055 140.375552 
L 495.818182 139.219312 
L 498.911308 136.514476 
L 502.004435 134.304394 
L 508.190687 133.732885 
L 511.283814 133.731527 
L 514.37694 134.425011 
L 517.470067 137.772058 
L 520.563193 141.540593 
L 523.656319 142.995954 
L 542.215078 142.481276 
L 545.308204 140.532793 
L 548.40133 138.72422 
L 551.494457 137.365049 
" style="fill:none;stroke:#e24a33;stroke-linecap:square;stroke-width:3;"/>
   </g>
   <g id="line2d_27">
    <defs>
     <path d="M 0 3 
C 0.795609 3 1.55874 2.683901 2.12132 2.12132 
C 2.683901 1.55874 3 0.795609 3 0 
C 3 -0.795609 2.683901 -1.55874 2.12132 -2.12132 
C 1.55874 -2.683901 0.795609 -3 0 -3 
C -0.795609 -3 -1.55874 -2.683901 -2.12132 -2.12132 
C -2.683901 -1.55874 -3 -0.795609 -3 0 
C -3 0.795609 -2.683901 1.55874 -2.12132 2.12132 
C -1.55874 2.683901 -0.795609 3 0 3 
z
" id="me64cf7265a" style="stroke:#348abd;stroke-opacity:0.3;"/>
    </defs>
    <g clip-path="url(#p4e15fb6b00)">
     <use style="fill:#348abd;fill-opacity:0.3;stroke:#348abd;stroke-opacity:0.3;" x="121.549889" xlink:href="#me64cf7265a" y="157.421545"/>
     <use style="fill:#348abd;fill-opacity:0.3;stroke:#348abd;stroke-opacity:0.3;" x="130.829268" xlink:href="#me64cf7265a" y="157.421545"/>
     <use style="fill:#348abd;fill-opacity:0.3;stroke:#348abd;stroke-opacity:0.3;" x="143.201774" xlink:href="#me64cf7265a" y="157.446242"/>
     <use style="fill:#348abd;fill-opacity:0.3;stroke:#348abd;stroke-opacity:0.3;" x="146.2949" xlink:href="#me64cf7265a" y="156.875011"/>
     <use style="fill:#348abd;fill-opacity:0.3;stroke:#348abd;stroke-opacity:0.3;" x="149.388027" xlink:href="#me64cf7265a" y="157.256295"/>
     <use style="fill:#348abd;fill-opacity:0.3;stroke:#348abd;stroke-opacity:0.3;" x="155.574279" xlink:href="#me64cf7265a" y="156.657384"/>
     <use style="fill:#348abd;fill-opacity:0.3;stroke:#348abd;stroke-opacity:0.3;" x="158.667406" xlink:href="#me64cf7265a" y="157.183555"/>
     <use style="fill:#348abd;fill-opacity:0.3;stroke:#348abd;stroke-opacity:0.3;" x="161.760532" xlink:href="#me64cf7265a" y="157.215364"/>
     <use style="fill:#348abd;fill-opacity:0.3;stroke:#348abd;stroke-opacity:0.3;" x="164.853659" xlink:href="#me64cf7265a" y="156.222235"/>
     <use style="fill:#348abd;fill-opacity:0.3;stroke:#348abd;stroke-opacity:0.3;" x="171.039911" xlink:href="#me64cf7265a" y="156.167846"/>
     <use style="fill:#348abd;fill-opacity:0.3;stroke:#348abd;stroke-opacity:0.3;" x="174.133038" xlink:href="#me64cf7265a" y="156.793393"/>
     <use style="fill:#348abd;fill-opacity:0.3;stroke:#348abd;stroke-opacity:0.3;" x="177.226164" xlink:href="#me64cf7265a" y="156.004682"/>
     <use style="fill:#348abd;fill-opacity:0.3;stroke:#348abd;stroke-opacity:0.3;" x="192.691796" xlink:href="#me64cf7265a" y="155.950295"/>
     <use style="fill:#348abd;fill-opacity:0.3;stroke:#348abd;stroke-opacity:0.3;" x="195.784922" xlink:href="#me64cf7265a" y="155.895909"/>
     <use style="fill:#348abd;fill-opacity:0.3;stroke:#348abd;stroke-opacity:0.3;" x="198.878049" xlink:href="#me64cf7265a" y="155.841522"/>
     <use style="fill:#348abd;fill-opacity:0.3;stroke:#348abd;stroke-opacity:0.3;" x="205.064302" xlink:href="#me64cf7265a" y="157.455072"/>
     <use style="fill:#348abd;fill-opacity:0.3;stroke:#348abd;stroke-opacity:0.3;" x="208.157428" xlink:href="#me64cf7265a" y="157.419283"/>
     <use style="fill:#348abd;fill-opacity:0.3;stroke:#348abd;stroke-opacity:0.3;" x="211.250554" xlink:href="#me64cf7265a" y="157.427744"/>
     <use style="fill:#348abd;fill-opacity:0.3;stroke:#348abd;stroke-opacity:0.3;" x="214.343681" xlink:href="#me64cf7265a" y="157.334968"/>
     <use style="fill:#348abd;fill-opacity:0.3;stroke:#348abd;stroke-opacity:0.3;" x="217.436807" xlink:href="#me64cf7265a" y="157.332558"/>
     <use style="fill:#348abd;fill-opacity:0.3;stroke:#348abd;stroke-opacity:0.3;" x="220.529933" xlink:href="#me64cf7265a" y="157.158952"/>
     <use style="fill:#348abd;fill-opacity:0.3;stroke:#348abd;stroke-opacity:0.3;" x="223.62306" xlink:href="#me64cf7265a" y="157.286886"/>
     <use style="fill:#348abd;fill-opacity:0.3;stroke:#348abd;stroke-opacity:0.3;" x="226.716186" xlink:href="#me64cf7265a" y="157.338541"/>
     <use style="fill:#348abd;fill-opacity:0.3;stroke:#348abd;stroke-opacity:0.3;" x="229.809313" xlink:href="#me64cf7265a" y="157.305886"/>
     <use style="fill:#348abd;fill-opacity:0.3;stroke:#348abd;stroke-opacity:0.3;" x="232.902439" xlink:href="#me64cf7265a" y="157.317839"/>
     <use style="fill:#348abd;fill-opacity:0.3;stroke:#348abd;stroke-opacity:0.3;" x="235.995565" xlink:href="#me64cf7265a" y="157.18126"/>
     <use style="fill:#348abd;fill-opacity:0.3;stroke:#348abd;stroke-opacity:0.3;" x="239.088692" xlink:href="#me64cf7265a" y="157.134304"/>
     <use style="fill:#348abd;fill-opacity:0.3;stroke:#348abd;stroke-opacity:0.3;" x="242.181818" xlink:href="#me64cf7265a" y="157.196603"/>
     <use style="fill:#348abd;fill-opacity:0.3;stroke:#348abd;stroke-opacity:0.3;" x="245.274945" xlink:href="#me64cf7265a" y="156.824851"/>
     <use style="fill:#348abd;fill-opacity:0.3;stroke:#348abd;stroke-opacity:0.3;" x="248.368071" xlink:href="#me64cf7265a" y="156.818617"/>
     <use style="fill:#348abd;fill-opacity:0.3;stroke:#348abd;stroke-opacity:0.3;" x="251.461197" xlink:href="#me64cf7265a" y="156.817581"/>
     <use style="fill:#348abd;fill-opacity:0.3;stroke:#348abd;stroke-opacity:0.3;" x="254.554324" xlink:href="#me64cf7265a" y="156.672806"/>
     <use style="fill:#348abd;fill-opacity:0.3;stroke:#348abd;stroke-opacity:0.3;" x="257.64745" xlink:href="#me64cf7265a" y="156.070425"/>
     <use style="fill:#348abd;fill-opacity:0.3;stroke:#348abd;stroke-opacity:0.3;" x="260.740576" xlink:href="#me64cf7265a" y="155.047642"/>
     <use style="fill:#348abd;fill-opacity:0.3;stroke:#348abd;stroke-opacity:0.3;" x="263.833703" xlink:href="#me64cf7265a" y="145.853902"/>
     <use style="fill:#348abd;fill-opacity:0.3;stroke:#348abd;stroke-opacity:0.3;" x="266.926829" xlink:href="#me64cf7265a" y="155.784664"/>
     <use style="fill:#348abd;fill-opacity:0.3;stroke:#348abd;stroke-opacity:0.3;" x="270.019956" xlink:href="#me64cf7265a" y="153.773524"/>
     <use style="fill:#348abd;fill-opacity:0.3;stroke:#348abd;stroke-opacity:0.3;" x="273.113082" xlink:href="#me64cf7265a" y="153.58264"/>
     <use style="fill:#348abd;fill-opacity:0.3;stroke:#348abd;stroke-opacity:0.3;" x="276.206208" xlink:href="#me64cf7265a" y="153.41766"/>
     <use style="fill:#348abd;fill-opacity:0.3;stroke:#348abd;stroke-opacity:0.3;" x="279.299335" xlink:href="#me64cf7265a" y="151.68698"/>
     <use style="fill:#348abd;fill-opacity:0.3;stroke:#348abd;stroke-opacity:0.3;" x="282.392461" xlink:href="#me64cf7265a" y="151.474753"/>
     <use style="fill:#348abd;fill-opacity:0.3;stroke:#348abd;stroke-opacity:0.3;" x="285.485588" xlink:href="#me64cf7265a" y="152.14091"/>
     <use style="fill:#348abd;fill-opacity:0.3;stroke:#348abd;stroke-opacity:0.3;" x="288.578714" xlink:href="#me64cf7265a" y="152.60779"/>
     <use style="fill:#348abd;fill-opacity:0.3;stroke:#348abd;stroke-opacity:0.3;" x="291.67184" xlink:href="#me64cf7265a" y="154.462964"/>
     <use style="fill:#348abd;fill-opacity:0.3;stroke:#348abd;stroke-opacity:0.3;" x="294.764967" xlink:href="#me64cf7265a" y="152.119121"/>
     <use style="fill:#348abd;fill-opacity:0.3;stroke:#348abd;stroke-opacity:0.3;" x="297.858093" xlink:href="#me64cf7265a" y="154.272165"/>
     <use style="fill:#348abd;fill-opacity:0.3;stroke:#348abd;stroke-opacity:0.3;" x="300.95122" xlink:href="#me64cf7265a" y="154.519188"/>
     <use style="fill:#348abd;fill-opacity:0.3;stroke:#348abd;stroke-opacity:0.3;" x="307.137472" xlink:href="#me64cf7265a" y="151.060877"/>
     <use style="fill:#348abd;fill-opacity:0.3;stroke:#348abd;stroke-opacity:0.3;" x="310.230599" xlink:href="#me64cf7265a" y="152.558432"/>
     <use style="fill:#348abd;fill-opacity:0.3;stroke:#348abd;stroke-opacity:0.3;" x="313.323725" xlink:href="#me64cf7265a" y="152.69516"/>
     <use style="fill:#348abd;fill-opacity:0.3;stroke:#348abd;stroke-opacity:0.3;" x="316.416851" xlink:href="#me64cf7265a" y="151.950474"/>
     <use style="fill:#348abd;fill-opacity:0.3;stroke:#348abd;stroke-opacity:0.3;" x="319.509978" xlink:href="#me64cf7265a" y="153.996954"/>
     <use style="fill:#348abd;fill-opacity:0.3;stroke:#348abd;stroke-opacity:0.3;" x="322.603104" xlink:href="#me64cf7265a" y="152.564051"/>
     <use style="fill:#348abd;fill-opacity:0.3;stroke:#348abd;stroke-opacity:0.3;" x="325.696231" xlink:href="#me64cf7265a" y="150.79163"/>
     <use style="fill:#348abd;fill-opacity:0.3;stroke:#348abd;stroke-opacity:0.3;" x="328.789357" xlink:href="#me64cf7265a" y="153.269855"/>
     <use style="fill:#348abd;fill-opacity:0.3;stroke:#348abd;stroke-opacity:0.3;" x="331.882483" xlink:href="#me64cf7265a" y="152.203804"/>
     <use style="fill:#348abd;fill-opacity:0.3;stroke:#348abd;stroke-opacity:0.3;" x="334.97561" xlink:href="#me64cf7265a" y="151.43165"/>
     <use style="fill:#348abd;fill-opacity:0.3;stroke:#348abd;stroke-opacity:0.3;" x="338.068736" xlink:href="#me64cf7265a" y="151.164631"/>
     <use style="fill:#348abd;fill-opacity:0.3;stroke:#348abd;stroke-opacity:0.3;" x="341.161863" xlink:href="#me64cf7265a" y="151.651751"/>
     <use style="fill:#348abd;fill-opacity:0.3;stroke:#348abd;stroke-opacity:0.3;" x="344.254989" xlink:href="#me64cf7265a" y="150.654385"/>
     <use style="fill:#348abd;fill-opacity:0.3;stroke:#348abd;stroke-opacity:0.3;" x="347.348115" xlink:href="#me64cf7265a" y="145.628145"/>
     <use style="fill:#348abd;fill-opacity:0.3;stroke:#348abd;stroke-opacity:0.3;" x="350.441242" xlink:href="#me64cf7265a" y="145.573764"/>
     <use style="fill:#348abd;fill-opacity:0.3;stroke:#348abd;stroke-opacity:0.3;" x="353.534368" xlink:href="#me64cf7265a" y="146.872606"/>
     <use style="fill:#348abd;fill-opacity:0.3;stroke:#348abd;stroke-opacity:0.3;" x="356.627494" xlink:href="#me64cf7265a" y="142.993487"/>
     <use style="fill:#348abd;fill-opacity:0.3;stroke:#348abd;stroke-opacity:0.3;" x="359.720621" xlink:href="#me64cf7265a" y="136.47967"/>
     <use style="fill:#348abd;fill-opacity:0.3;stroke:#348abd;stroke-opacity:0.3;" x="362.813747" xlink:href="#me64cf7265a" y="138.530043"/>
     <use style="fill:#348abd;fill-opacity:0.3;stroke:#348abd;stroke-opacity:0.3;" x="365.906874" xlink:href="#me64cf7265a" y="139.662985"/>
     <use style="fill:#348abd;fill-opacity:0.3;stroke:#348abd;stroke-opacity:0.3;" x="369" xlink:href="#me64cf7265a" y="134.60662"/>
     <use style="fill:#348abd;fill-opacity:0.3;stroke:#348abd;stroke-opacity:0.3;" x="372.093126" xlink:href="#me64cf7265a" y="136.25006"/>
     <use style="fill:#348abd;fill-opacity:0.3;stroke:#348abd;stroke-opacity:0.3;" x="375.186253" xlink:href="#me64cf7265a" y="136.195679"/>
     <use style="fill:#348abd;fill-opacity:0.3;stroke:#348abd;stroke-opacity:0.3;" x="378.279379" xlink:href="#me64cf7265a" y="131.293222"/>
     <use style="fill:#348abd;fill-opacity:0.3;stroke:#348abd;stroke-opacity:0.3;" x="381.372506" xlink:href="#me64cf7265a" y="131.238841"/>
     <use style="fill:#348abd;fill-opacity:0.3;stroke:#348abd;stroke-opacity:0.3;" x="384.465632" xlink:href="#me64cf7265a" y="125.342601"/>
     <use style="fill:#348abd;fill-opacity:0.3;stroke:#348abd;stroke-opacity:0.3;" x="387.558758" xlink:href="#me64cf7265a" y="85.057468"/>
     <use style="fill:#348abd;fill-opacity:0.3;stroke:#348abd;stroke-opacity:0.3;" x="390.651885" xlink:href="#me64cf7265a" y="112.876061"/>
     <use style="fill:#348abd;fill-opacity:0.3;stroke:#348abd;stroke-opacity:0.3;" x="393.745011" xlink:href="#me64cf7265a" y="92.976729"/>
     <use style="fill:#348abd;fill-opacity:0.3;stroke:#348abd;stroke-opacity:0.3;" x="396.838137" xlink:href="#me64cf7265a" y="104.658797"/>
     <use style="fill:#348abd;fill-opacity:0.3;stroke:#348abd;stroke-opacity:0.3;" x="399.931264" xlink:href="#me64cf7265a" y="115.933359"/>
     <use style="fill:#348abd;fill-opacity:0.3;stroke:#348abd;stroke-opacity:0.3;" x="403.02439" xlink:href="#me64cf7265a" y="99.241441"/>
     <use style="fill:#348abd;fill-opacity:0.3;stroke:#348abd;stroke-opacity:0.3;" x="406.117517" xlink:href="#me64cf7265a" y="99.18706"/>
     <use style="fill:#348abd;fill-opacity:0.3;stroke:#348abd;stroke-opacity:0.3;" x="409.210643" xlink:href="#me64cf7265a" y="99.132679"/>
     <use style="fill:#348abd;fill-opacity:0.3;stroke:#348abd;stroke-opacity:0.3;" x="412.303769" xlink:href="#me64cf7265a" y="115.762447"/>
     <use style="fill:#348abd;fill-opacity:0.3;stroke:#348abd;stroke-opacity:0.3;" x="415.396896" xlink:href="#me64cf7265a" y="92.505425"/>
     <use style="fill:#348abd;fill-opacity:0.3;stroke:#348abd;stroke-opacity:0.3;" x="418.490022" xlink:href="#me64cf7265a" y="11.17383"/>
     <use style="fill:#348abd;fill-opacity:0.3;stroke:#348abd;stroke-opacity:0.3;" x="421.583149" xlink:href="#me64cf7265a" y="92.426874"/>
     <use style="fill:#348abd;fill-opacity:0.3;stroke:#348abd;stroke-opacity:0.3;" x="424.676275" xlink:href="#me64cf7265a" y="59.822332"/>
     <use style="fill:#348abd;fill-opacity:0.3;stroke:#348abd;stroke-opacity:0.3;" x="427.769401" xlink:href="#me64cf7265a" y="112.378264"/>
     <use style="fill:#348abd;fill-opacity:0.3;stroke:#348abd;stroke-opacity:0.3;" x="430.862528" xlink:href="#me64cf7265a" y="84.105797"/>
     <use style="fill:#348abd;fill-opacity:0.3;stroke:#348abd;stroke-opacity:0.3;" x="433.012795" xlink:href="#me64cf7265a" y="-1"/>
     <use style="fill:#348abd;fill-opacity:0.3;stroke:#348abd;stroke-opacity:0.3;" x="439.898384" xlink:href="#me64cf7265a" y="-1"/>
     <use style="fill:#348abd;fill-opacity:0.3;stroke:#348abd;stroke-opacity:0.3;" x="440.141907" xlink:href="#me64cf7265a" y="10.562042"/>
     <use style="fill:#348abd;fill-opacity:0.3;stroke:#348abd;stroke-opacity:0.3;" x="443.235033" xlink:href="#me64cf7265a" y="108.484431"/>
     <use style="fill:#348abd;fill-opacity:0.3;stroke:#348abd;stroke-opacity:0.3;" x="446.32816" xlink:href="#me64cf7265a" y="124.77764"/>
     <use style="fill:#348abd;fill-opacity:0.3;stroke:#348abd;stroke-opacity:0.3;" x="449.421286" xlink:href="#me64cf7265a" y="140.134822"/>
     <use style="fill:#348abd;fill-opacity:0.3;stroke:#348abd;stroke-opacity:0.3;" x="452.514412" xlink:href="#me64cf7265a" y="140.577367"/>
     <use style="fill:#348abd;fill-opacity:0.3;stroke:#348abd;stroke-opacity:0.3;" x="455.607539" xlink:href="#me64cf7265a" y="135.500808"/>
     <use style="fill:#348abd;fill-opacity:0.3;stroke:#348abd;stroke-opacity:0.3;" x="458.700665" xlink:href="#me64cf7265a" y="134.599257"/>
     <use style="fill:#348abd;fill-opacity:0.3;stroke:#348abd;stroke-opacity:0.3;" x="461.793792" xlink:href="#me64cf7265a" y="136.916734"/>
     <use style="fill:#348abd;fill-opacity:0.3;stroke:#348abd;stroke-opacity:0.3;" x="464.886918" xlink:href="#me64cf7265a" y="135.33565"/>
     <use style="fill:#348abd;fill-opacity:0.3;stroke:#348abd;stroke-opacity:0.3;" x="467.980044" xlink:href="#me64cf7265a" y="125.937455"/>
     <use style="fill:#348abd;fill-opacity:0.3;stroke:#348abd;stroke-opacity:0.3;" x="471.073171" xlink:href="#me64cf7265a" y="111.303189"/>
     <use style="fill:#348abd;fill-opacity:0.3;stroke:#348abd;stroke-opacity:0.3;" x="474.166297" xlink:href="#me64cf7265a" y="117.41201"/>
     <use style="fill:#348abd;fill-opacity:0.3;stroke:#348abd;stroke-opacity:0.3;" x="477.259424" xlink:href="#me64cf7265a" y="111.186061"/>
     <use style="fill:#348abd;fill-opacity:0.3;stroke:#348abd;stroke-opacity:0.3;" x="480.35255" xlink:href="#me64cf7265a" y="138.646736"/>
     <use style="fill:#348abd;fill-opacity:0.3;stroke:#348abd;stroke-opacity:0.3;" x="483.445676" xlink:href="#me64cf7265a" y="107.124901"/>
     <use style="fill:#348abd;fill-opacity:0.3;stroke:#348abd;stroke-opacity:0.3;" x="486.538803" xlink:href="#me64cf7265a" y="127.231441"/>
     <use style="fill:#348abd;fill-opacity:0.3;stroke:#348abd;stroke-opacity:0.3;" x="489.631929" xlink:href="#me64cf7265a" y="131.128682"/>
     <use style="fill:#348abd;fill-opacity:0.3;stroke:#348abd;stroke-opacity:0.3;" x="492.725055" xlink:href="#me64cf7265a" y="133.186183"/>
     <use style="fill:#348abd;fill-opacity:0.3;stroke:#348abd;stroke-opacity:0.3;" x="495.818182" xlink:href="#me64cf7265a" y="119.439975"/>
     <use style="fill:#348abd;fill-opacity:0.3;stroke:#348abd;stroke-opacity:0.3;" x="498.911308" xlink:href="#me64cf7265a" y="125.399367"/>
     <use style="fill:#348abd;fill-opacity:0.3;stroke:#348abd;stroke-opacity:0.3;" x="502.004435" xlink:href="#me64cf7265a" y="142.212106"/>
     <use style="fill:#348abd;fill-opacity:0.3;stroke:#348abd;stroke-opacity:0.3;" x="505.097561" xlink:href="#me64cf7265a" y="149.71836"/>
     <use style="fill:#348abd;fill-opacity:0.3;stroke:#348abd;stroke-opacity:0.3;" x="508.190687" xlink:href="#me64cf7265a" y="146.836623"/>
     <use style="fill:#348abd;fill-opacity:0.3;stroke:#348abd;stroke-opacity:0.3;" x="511.283814" xlink:href="#me64cf7265a" y="141.573998"/>
     <use style="fill:#348abd;fill-opacity:0.3;stroke:#348abd;stroke-opacity:0.3;" x="514.37694" xlink:href="#me64cf7265a" y="134.429297"/>
     <use style="fill:#348abd;fill-opacity:0.3;stroke:#348abd;stroke-opacity:0.3;" x="517.470067" xlink:href="#me64cf7265a" y="139.65444"/>
     <use style="fill:#348abd;fill-opacity:0.3;stroke:#348abd;stroke-opacity:0.3;" x="520.563193" xlink:href="#me64cf7265a" y="141.011067"/>
     <use style="fill:#348abd;fill-opacity:0.3;stroke:#348abd;stroke-opacity:0.3;" x="523.656319" xlink:href="#me64cf7265a" y="144.664395"/>
     <use style="fill:#348abd;fill-opacity:0.3;stroke:#348abd;stroke-opacity:0.3;" x="526.749446" xlink:href="#me64cf7265a" y="141.311852"/>
     <use style="fill:#348abd;fill-opacity:0.3;stroke:#348abd;stroke-opacity:0.3;" x="529.842572" xlink:href="#me64cf7265a" y="141.257471"/>
     <use style="fill:#348abd;fill-opacity:0.3;stroke:#348abd;stroke-opacity:0.3;" x="532.935698" xlink:href="#me64cf7265a" y="145.031267"/>
     <use style="fill:#348abd;fill-opacity:0.3;stroke:#348abd;stroke-opacity:0.3;" x="536.028825" xlink:href="#me64cf7265a" y="146.292251"/>
     <use style="fill:#348abd;fill-opacity:0.3;stroke:#348abd;stroke-opacity:0.3;" x="539.121951" xlink:href="#me64cf7265a" y="140.620381"/>
     <use style="fill:#348abd;fill-opacity:0.3;stroke:#348abd;stroke-opacity:0.3;" x="542.215078" xlink:href="#me64cf7265a" y="140.566"/>
     <use style="fill:#348abd;fill-opacity:0.3;stroke:#348abd;stroke-opacity:0.3;" x="545.308204" xlink:href="#me64cf7265a" y="144.582313"/>
     <use style="fill:#348abd;fill-opacity:0.3;stroke:#348abd;stroke-opacity:0.3;" x="548.40133" xlink:href="#me64cf7265a" y="143.089607"/>
     <use style="fill:#348abd;fill-opacity:0.3;stroke:#348abd;stroke-opacity:0.3;" x="551.494457" xlink:href="#me64cf7265a" y="145.871188"/>
     <use style="fill:#348abd;fill-opacity:0.3;stroke:#348abd;stroke-opacity:0.3;" x="554.587583" xlink:href="#me64cf7265a" y="143.874133"/>
     <use style="fill:#348abd;fill-opacity:0.3;stroke:#348abd;stroke-opacity:0.3;" x="557.68071" xlink:href="#me64cf7265a" y="138.197891"/>
     <use style="fill:#348abd;fill-opacity:0.3;stroke:#348abd;stroke-opacity:0.3;" x="560.773836" xlink:href="#me64cf7265a" y="139.217361"/>
     <use style="fill:#348abd;fill-opacity:0.3;stroke:#348abd;stroke-opacity:0.3;" x="563.866962" xlink:href="#me64cf7265a" y="138.08593"/>
     <use style="fill:#348abd;fill-opacity:0.3;stroke:#348abd;stroke-opacity:0.3;" x="566.960089" xlink:href="#me64cf7265a" y="142.100656"/>
     <use style="fill:#348abd;fill-opacity:0.3;stroke:#348abd;stroke-opacity:0.3;" x="570.053215" xlink:href="#me64cf7265a" y="146.229752"/>
     <use style="fill:#348abd;fill-opacity:0.3;stroke:#348abd;stroke-opacity:0.3;" x="573.146341" xlink:href="#me64cf7265a" y="143.869763"/>
     <use style="fill:#348abd;fill-opacity:0.3;stroke:#348abd;stroke-opacity:0.3;" x="576.239468" xlink:href="#me64cf7265a" y="147.484553"/>
     <use style="fill:#348abd;fill-opacity:0.3;stroke:#348abd;stroke-opacity:0.3;" x="579.332594" xlink:href="#me64cf7265a" y="143.454944"/>
     <use style="fill:#348abd;fill-opacity:0.3;stroke:#348abd;stroke-opacity:0.3;" x="582.425721" xlink:href="#me64cf7265a" y="117.739363"/>
     <use style="fill:#348abd;fill-opacity:0.3;stroke:#348abd;stroke-opacity:0.3;" x="585.518847" xlink:href="#me64cf7265a" y="142.768627"/>
     <use style="fill:#348abd;fill-opacity:0.3;stroke:#348abd;stroke-opacity:0.3;" x="588.611973" xlink:href="#me64cf7265a" y="144.161167"/>
     <use style="fill:#348abd;fill-opacity:0.3;stroke:#348abd;stroke-opacity:0.3;" x="591.7051" xlink:href="#me64cf7265a" y="133.127529"/>
     <use style="fill:#348abd;fill-opacity:0.3;stroke:#348abd;stroke-opacity:0.3;" x="594.798226" xlink:href="#me64cf7265a" y="139.95511"/>
     <use style="fill:#348abd;fill-opacity:0.3;stroke:#348abd;stroke-opacity:0.3;" x="597.891353" xlink:href="#me64cf7265a" y="144.035344"/>
     <use style="fill:#348abd;fill-opacity:0.3;stroke:#348abd;stroke-opacity:0.3;" x="600.984479" xlink:href="#me64cf7265a" y="146.374684"/>
     <use style="fill:#348abd;fill-opacity:0.3;stroke:#348abd;stroke-opacity:0.3;" x="604.077605" xlink:href="#me64cf7265a" y="141.009568"/>
     <use style="fill:#348abd;fill-opacity:0.3;stroke:#348abd;stroke-opacity:0.3;" x="607.170732" xlink:href="#me64cf7265a" y="141.339318"/>
     <use style="fill:#348abd;fill-opacity:0.3;stroke:#348abd;stroke-opacity:0.3;" x="610.263858" xlink:href="#me64cf7265a" y="143.551244"/>
     <use style="fill:#348abd;fill-opacity:0.3;stroke:#348abd;stroke-opacity:0.3;" x="613.356984" xlink:href="#me64cf7265a" y="144.532121"/>
     <use style="fill:#348abd;fill-opacity:0.3;stroke:#348abd;stroke-opacity:0.3;" x="616.450111" xlink:href="#me64cf7265a" y="146.334184"/>
     <use style="fill:#348abd;fill-opacity:0.3;stroke:#348abd;stroke-opacity:0.3;" x="619.543237" xlink:href="#me64cf7265a" y="146.279803"/>
     <use style="fill:#348abd;fill-opacity:0.3;stroke:#348abd;stroke-opacity:0.3;" x="622.636364" xlink:href="#me64cf7265a" y="145.856653"/>
    </g>
   </g>
   <g id="line2d_28">
    <path clip-path="url(#p4e15fb6b00)" d="M 130.829268 157.343395 
L 149.388027 157.190257 
L 161.760532 156.850084 
L 167.946785 156.642037 
L 177.226164 155.625471 
L 180.31929 155.575644 
L 183.412417 155.345163 
L 192.691796 155.678766 
L 195.784922 156.633878 
L 198.878049 157.361663 
L 208.157428 157.38236 
L 242.181818 157.076045 
L 251.461197 156.70053 
L 257.64745 156.194983 
L 260.740576 155.821816 
L 273.113082 153.754663 
L 279.299335 152.987428 
L 282.392461 152.780576 
L 285.485588 152.843046 
L 291.67184 153.264401 
L 294.764967 153.232703 
L 300.95122 152.750588 
L 307.137472 152.233442 
L 310.230599 152.148455 
L 313.323725 152.232578 
L 319.509978 152.680894 
L 325.696231 152.542687 
L 331.882483 152.049349 
L 334.97561 151.735719 
L 338.068736 151.267564 
L 341.161863 150.560008 
L 344.254989 149.681474 
L 347.348115 148.588017 
L 350.441242 147.076298 
L 356.627494 143.281565 
L 365.906874 138.179393 
L 369 136.774984 
L 372.093126 135.607359 
L 375.186253 133.818569 
L 378.279379 131.135332 
L 381.372506 127.574801 
L 384.465632 122.920617 
L 390.651885 112.601349 
L 393.745011 108.037503 
L 396.838137 105.221825 
L 399.931264 104.697428 
L 403.02439 105.026285 
L 406.117517 103.939796 
L 409.210643 100.847146 
L 412.303769 96.495408 
L 415.396896 93.252051 
L 418.490022 91.419324 
L 421.583149 88.011341 
L 424.676275 81.147218 
L 427.769401 73.69698 
L 430.862528 69.003437 
L 433.955654 70.877116 
L 437.04878 82.334984 
L 440.141907 99.993307 
L 443.235033 115.760074 
L 446.32816 125.922644 
L 449.421286 131.669359 
L 452.514412 134.868668 
L 455.607539 136.220751 
L 458.700665 135.801218 
L 461.793792 133.856734 
L 464.886918 131.022938 
L 467.980044 128.67984 
L 474.166297 125.063608 
L 477.259424 124.161571 
L 480.35255 125.16738 
L 483.445676 126.778751 
L 486.538803 127.829981 
L 489.631929 128.581611 
L 492.725055 131.283094 
L 495.818182 135.855954 
L 498.911308 139.970161 
L 502.004435 142.034985 
L 505.097561 143.076062 
L 508.190687 143.579757 
L 511.283814 143.657763 
L 514.37694 143.03014 
L 517.470067 141.987294 
L 520.563193 141.435867 
L 523.656319 141.931969 
L 526.749446 142.777506 
L 529.842572 143.250834 
L 539.121951 143.487017 
L 542.215078 143.664242 
L 545.308204 143.57727 
L 551.494457 142.904163 
L 557.68071 142.078937 
L 560.773836 141.953651 
L 563.866962 142.244459 
L 570.053215 143.501115 
L 573.146341 143.588082 
L 576.239468 143.442489 
L 579.332594 142.966751 
L 585.518847 141.090184 
L 588.611973 140.762164 
L 591.7051 141.262465 
L 594.798226 142.034774 
L 604.077605 143.268721 
L 607.170732 143.859646 
L 610.263858 144.257665 
L 616.450111 144.527264 
L 616.450111 144.527264 
" style="fill:none;stroke:#348abd;stroke-linecap:square;stroke-width:3;"/>
   </g>
   <g id="patch_3">
    <path d="M 90 157.5 
L 90 21.6 
" style="fill:none;stroke:#ffffff;stroke-linecap:square;stroke-linejoin:miter;"/>
   </g>
   <g id="patch_4">
    <path d="M 648 157.5 
L 648 21.6 
" style="fill:none;stroke:#ffffff;stroke-linecap:square;stroke-linejoin:miter;"/>
   </g>
   <g id="patch_5">
    <path d="M 90 157.5 
L 648 157.5 
" style="fill:none;stroke:#ffffff;stroke-linecap:square;stroke-linejoin:miter;"/>
   </g>
   <g id="patch_6">
    <path d="M 90 21.6 
L 648 21.6 
" style="fill:none;stroke:#ffffff;stroke-linecap:square;stroke-linejoin:miter;"/>
   </g>
   <g id="legend_1">
    <g id="patch_7">
     <path d="M 97 85.18125 
L 369 85.18125 
Q 371 85.18125 371 83.18125 
L 371 28.6 
Q 371 26.6 369 26.6 
L 97 26.6 
Q 95 26.6 95 28.6 
L 95 83.18125 
Q 95 85.18125 97 85.18125 
z
" style="fill:#e5e5e5;opacity:0.8;stroke:#cccccc;stroke-linejoin:miter;stroke-width:0.5;"/>
    </g>
    <g id="line2d_29"/>
    <g id="line2d_30">
     <g>
      <use style="fill:#e24a33;fill-opacity:0.3;stroke:#e24a33;stroke-opacity:0.3;" x="109" xlink:href="#m84d0d8c0f1" y="34.1"/>
     </g>
    </g>
    <g id="text_16">
     <!-- Korea, South doubling time deaths -->
     <defs>
      <path d="M 16.59375 31.203125 
L 11.703125 25.796875 
L 11.703125 0 
L 4.203125 0 
L 4.203125 62.296875 
L 12.59375 62.296875 
L 12.59375 61.59375 
Q 12 61 11.84375 60.296875 
Q 11.703125 59.59375 11.703125 57.90625 
L 11.703125 33.59375 
L 37.703125 62.796875 
Q 38.796875 62.59375 40.09375 62.4375 
Q 41.40625 62.296875 42.90625 62.296875 
L 45.5 62.296875 
L 21.90625 35.40625 
L 47.09375 0 
L 38.09375 -0.40625 
z
" id="Inconsolata-Regular-75"/>
      <path d="M 11.90625 45.703125 
L 19.40625 45.703125 
L 19.203125 37.296875 
Q 21.09375 41.90625 25.09375 44.34375 
Q 29.09375 46.796875 33.703125 46.796875 
Q 41 46.796875 45.796875 41.796875 
L 42.59375 36.203125 
L 42.203125 35.296875 
L 41.5 35.703125 
Q 41.296875 36.5 40.890625 37.203125 
Q 40.5 37.90625 39.203125 38.90625 
Q 37.59375 39.90625 36.25 40.25 
Q 34.90625 40.59375 33.203125 40.59375 
Q 29.90625 40.59375 26.65625 38.890625 
Q 23.40625 37.203125 21.296875 33.59375 
Q 19.203125 30 19.203125 24.203125 
L 19.203125 -0.09375 
L 11.90625 -0.09375 
z
" id="Inconsolata-Regular-114"/>
      <path d="M 19.90625 -16.796875 
L 16.5 -13.796875 
Q 19.296875 -11.203125 21.140625 -8.203125 
Q 23 -5.203125 23 -3.296875 
Q 23 -1.90625 21.75 -0.84375 
Q 20.5 0.203125 19.203125 1.390625 
Q 17.90625 2.59375 17.90625 4.40625 
Q 17.90625 6.90625 19.546875 8.59375 
Q 21.203125 10.296875 23.796875 10.296875 
Q 26.40625 10.296875 28.5 8 
Q 30.59375 5.703125 30.59375 2 
Q 30.59375 -5.796875 19.90625 -16.796875 
z
" id="Inconsolata-Regular-44"/>
      <path d="M 24.703125 -1 
Q 12.59375 -1 5.203125 6.90625 
L 8.796875 13.203125 
L 9.203125 14.09375 
L 9.90625 13.703125 
Q 10.09375 13 10.390625 12.140625 
Q 10.703125 11.296875 11.796875 10.09375 
Q 14.40625 7.90625 17.84375 6.59375 
Q 21.296875 5.296875 25.703125 5.296875 
Q 31.296875 5.296875 34.9375 8.4375 
Q 38.59375 11.59375 38.59375 16 
Q 38.59375 18.90625 37.4375 20.90625 
Q 36.296875 22.90625 33.25 24.796875 
Q 30.203125 26.703125 24.296875 29.203125 
Q 14.59375 33 10.890625 37.703125 
Q 7.203125 42.40625 7.203125 47.703125 
Q 7.203125 54.59375 12.296875 58.84375 
Q 17.40625 63.09375 26.203125 63.09375 
Q 31.296875 63.09375 35.796875 61.046875 
Q 40.296875 59 43.5 55.296875 
L 39 49.296875 
L 38.40625 49.703125 
Q 38.296875 50.5 38 51.296875 
Q 37.703125 52.09375 36.59375 53.296875 
Q 34.203125 55.59375 31.5 56.4375 
Q 28.796875 57.296875 25.09375 57.296875 
Q 20.203125 57.296875 17.296875 54.59375 
Q 14.40625 51.90625 14.40625 48.203125 
Q 14.40625 45.40625 15.65625 43.25 
Q 16.90625 41.09375 20.203125 39 
Q 23.5 36.90625 29.796875 34.40625 
Q 35.90625 31.90625 39.296875 29.34375 
Q 42.703125 26.796875 44.09375 23.84375 
Q 45.5 20.90625 45.5 17 
Q 45.5 12.703125 43.34375 8.546875 
Q 41.203125 4.40625 36.59375 1.703125 
Q 32 -1 24.703125 -1 
z
" id="Inconsolata-Regular-83"/>
      <path d="M 7.296875 66.5 
L 15.203125 66.5 
L 15.203125 65.796875 
Q 14.59375 65.203125 14.4375 64.5 
Q 14.296875 63.796875 14.296875 62.09375 
L 14.296875 37.59375 
Q 17 41.796875 21.046875 44.296875 
Q 25.09375 46.796875 29.296875 46.796875 
Q 35.5 46.796875 39.34375 42.4375 
Q 43.203125 38.09375 43.203125 27.703125 
L 43.203125 0 
L 36.203125 0 
L 36.203125 27.5 
Q 36.203125 34.703125 33.75 37.59375 
Q 31.296875 40.5 27.796875 40.5 
Q 24.796875 40.5 21.640625 38.796875 
Q 18.5 37.09375 16.390625 33.9375 
Q 14.296875 30.796875 14.296875 26.296875 
L 14.296875 0 
L 7.296875 0 
z
" id="Inconsolata-Regular-104"/>
     </defs>
     <g transform="translate(127 37.6)scale(0.1 -0.1)">
      <use xlink:href="#Inconsolata-Regular-75"/>
      <use x="49.999985" xlink:href="#Inconsolata-Regular-111"/>
      <use x="99.999969" xlink:href="#Inconsolata-Regular-114"/>
      <use x="149.999954" xlink:href="#Inconsolata-Regular-101"/>
      <use x="199.999939" xlink:href="#Inconsolata-Regular-97"/>
      <use x="249.999924" xlink:href="#Inconsolata-Regular-44"/>
      <use x="299.999908" xlink:href="#Inconsolata-Regular-32"/>
      <use x="349.999893" xlink:href="#Inconsolata-Regular-83"/>
      <use x="399.999878" xlink:href="#Inconsolata-Regular-111"/>
      <use x="449.999863" xlink:href="#Inconsolata-Regular-117"/>
      <use x="499.999847" xlink:href="#Inconsolata-Regular-116"/>
      <use x="549.999832" xlink:href="#Inconsolata-Regular-104"/>
      <use x="599.999817" xlink:href="#Inconsolata-Regular-32"/>
      <use x="649.999802" xlink:href="#Inconsolata-Regular-100"/>
      <use x="699.999786" xlink:href="#Inconsolata-Regular-111"/>
      <use x="749.999771" xlink:href="#Inconsolata-Regular-117"/>
      <use x="799.999756" xlink:href="#Inconsolata-Regular-98"/>
      <use x="849.999741" xlink:href="#Inconsolata-Regular-108"/>
      <use x="899.999725" xlink:href="#Inconsolata-Regular-105"/>
      <use x="949.99971" xlink:href="#Inconsolata-Regular-110"/>
      <use x="999.999695" xlink:href="#Inconsolata-Regular-103"/>
      <use x="1049.99968" xlink:href="#Inconsolata-Regular-32"/>
      <use x="1099.999664" xlink:href="#Inconsolata-Regular-116"/>
      <use x="1149.999649" xlink:href="#Inconsolata-Regular-105"/>
      <use x="1199.999634" xlink:href="#Inconsolata-Regular-109"/>
      <use x="1249.999619" xlink:href="#Inconsolata-Regular-101"/>
      <use x="1299.999603" xlink:href="#Inconsolata-Regular-32"/>
      <use x="1349.999588" xlink:href="#Inconsolata-Regular-100"/>
      <use x="1399.999573" xlink:href="#Inconsolata-Regular-101"/>
      <use x="1449.999557" xlink:href="#Inconsolata-Regular-97"/>
      <use x="1499.999542" xlink:href="#Inconsolata-Regular-116"/>
      <use x="1549.999527" xlink:href="#Inconsolata-Regular-104"/>
      <use x="1599.999512" xlink:href="#Inconsolata-Regular-115"/>
     </g>
    </g>
    <g id="line2d_31">
     <path d="M 99 48.170312 
L 119 48.170312 
" style="fill:none;stroke:#e24a33;stroke-linecap:square;stroke-width:3;"/>
    </g>
    <g id="line2d_32"/>
    <g id="text_17">
     <!-- Korea, South doubling time deaths (rolling mean) -->
     <defs>
      <path d="M 39.5 -10.40625 
Q 31.203125 -6.5 25.046875 0.046875 
Q 18.90625 6.59375 15.546875 14.84375 
Q 12.203125 23.09375 12.203125 32 
Q 12.203125 40.90625 15.5 48.953125 
Q 18.796875 57 24.796875 63.34375 
Q 30.796875 69.703125 38.90625 73.5 
L 40.796875 67.296875 
Q 34.40625 63.796875 29.546875 58.296875 
Q 24.703125 52.796875 22 46 
Q 19.296875 39.203125 19.296875 31.703125 
Q 19.296875 24.203125 22 17.296875 
Q 24.703125 10.40625 29.703125 4.796875 
Q 34.703125 -0.796875 41.40625 -4.40625 
z
" id="Inconsolata-Regular-40"/>
      <path d="M 13.25 -10.40625 
Q 21.546875 -6.5 27.6875 0.046875 
Q 33.84375 6.59375 37.1875 14.84375 
Q 40.546875 23.09375 40.546875 32 
Q 40.546875 40.90625 37.25 48.953125 
Q 33.953125 57 27.953125 63.34375 
Q 21.953125 69.703125 13.84375 73.5 
L 11.953125 67.296875 
Q 18.34375 63.796875 23.1875 58.296875 
Q 28.046875 52.796875 30.75 46 
Q 33.453125 39.203125 33.453125 31.703125 
Q 33.453125 24.203125 30.75 17.296875 
Q 28.046875 10.40625 23.046875 4.796875 
Q 18.046875 -0.796875 11.34375 -4.40625 
z
" id="Inconsolata-Regular-41"/>
     </defs>
     <g transform="translate(127 51.670312)scale(0.1 -0.1)">
      <use xlink:href="#Inconsolata-Regular-75"/>
      <use x="49.999985" xlink:href="#Inconsolata-Regular-111"/>
      <use x="99.999969" xlink:href="#Inconsolata-Regular-114"/>
      <use x="149.999954" xlink:href="#Inconsolata-Regular-101"/>
      <use x="199.999939" xlink:href="#Inconsolata-Regular-97"/>
      <use x="249.999924" xlink:href="#Inconsolata-Regular-44"/>
      <use x="299.999908" xlink:href="#Inconsolata-Regular-32"/>
      <use x="349.999893" xlink:href="#Inconsolata-Regular-83"/>
      <use x="399.999878" xlink:href="#Inconsolata-Regular-111"/>
      <use x="449.999863" xlink:href="#Inconsolata-Regular-117"/>
      <use x="499.999847" xlink:href="#Inconsolata-Regular-116"/>
      <use x="549.999832" xlink:href="#Inconsolata-Regular-104"/>
      <use x="599.999817" xlink:href="#Inconsolata-Regular-32"/>
      <use x="649.999802" xlink:href="#Inconsolata-Regular-100"/>
      <use x="699.999786" xlink:href="#Inconsolata-Regular-111"/>
      <use x="749.999771" xlink:href="#Inconsolata-Regular-117"/>
      <use x="799.999756" xlink:href="#Inconsolata-Regular-98"/>
      <use x="849.999741" xlink:href="#Inconsolata-Regular-108"/>
      <use x="899.999725" xlink:href="#Inconsolata-Regular-105"/>
      <use x="949.99971" xlink:href="#Inconsolata-Regular-110"/>
      <use x="999.999695" xlink:href="#Inconsolata-Regular-103"/>
      <use x="1049.99968" xlink:href="#Inconsolata-Regular-32"/>
      <use x="1099.999664" xlink:href="#Inconsolata-Regular-116"/>
      <use x="1149.999649" xlink:href="#Inconsolata-Regular-105"/>
      <use x="1199.999634" xlink:href="#Inconsolata-Regular-109"/>
      <use x="1249.999619" xlink:href="#Inconsolata-Regular-101"/>
      <use x="1299.999603" xlink:href="#Inconsolata-Regular-32"/>
      <use x="1349.999588" xlink:href="#Inconsolata-Regular-100"/>
      <use x="1399.999573" xlink:href="#Inconsolata-Regular-101"/>
      <use x="1449.999557" xlink:href="#Inconsolata-Regular-97"/>
      <use x="1499.999542" xlink:href="#Inconsolata-Regular-116"/>
      <use x="1549.999527" xlink:href="#Inconsolata-Regular-104"/>
      <use x="1599.999512" xlink:href="#Inconsolata-Regular-115"/>
      <use x="1649.999496" xlink:href="#Inconsolata-Regular-32"/>
      <use x="1699.999481" xlink:href="#Inconsolata-Regular-40"/>
      <use x="1749.999466" xlink:href="#Inconsolata-Regular-114"/>
      <use x="1799.999451" xlink:href="#Inconsolata-Regular-111"/>
      <use x="1849.999435" xlink:href="#Inconsolata-Regular-108"/>
      <use x="1899.99942" xlink:href="#Inconsolata-Regular-108"/>
      <use x="1949.999405" xlink:href="#Inconsolata-Regular-105"/>
      <use x="1999.99939" xlink:href="#Inconsolata-Regular-110"/>
      <use x="2049.999374" xlink:href="#Inconsolata-Regular-103"/>
      <use x="2099.999359" xlink:href="#Inconsolata-Regular-32"/>
      <use x="2149.999344" xlink:href="#Inconsolata-Regular-109"/>
      <use x="2199.999329" xlink:href="#Inconsolata-Regular-101"/>
      <use x="2249.999313" xlink:href="#Inconsolata-Regular-97"/>
      <use x="2299.999298" xlink:href="#Inconsolata-Regular-110"/>
      <use x="2349.999283" xlink:href="#Inconsolata-Regular-41"/>
     </g>
    </g>
    <g id="line2d_33"/>
    <g id="line2d_34">
     <g>
      <use style="fill:#348abd;fill-opacity:0.3;stroke:#348abd;stroke-opacity:0.3;" x="109" xlink:href="#me64cf7265a" y="61.890625"/>
     </g>
    </g>
    <g id="text_18">
     <!-- Korea, South doubling time cases -->
     <defs>
      <path d="M 28.5 -1.09375 
Q 21.90625 -1.09375 16.703125 2 
Q 11.5 5.09375 8.546875 10.5 
Q 5.59375 15.90625 5.59375 22.796875 
Q 5.59375 29.703125 8.546875 35.046875 
Q 11.5 40.40625 16.640625 43.5 
Q 21.796875 46.59375 28.40625 46.59375 
Q 34 46.59375 38.453125 44.34375 
Q 42.90625 42.09375 45.703125 38.09375 
L 41.203125 33.703125 
L 40.5 33 
L 40 33.5 
Q 40 34.296875 39.640625 35 
Q 39.296875 35.703125 38.09375 36.90625 
Q 35.90625 38.90625 33.40625 39.703125 
Q 30.90625 40.5 27.59375 40.5 
Q 23.796875 40.5 20.4375 38.390625 
Q 17.09375 36.296875 15.046875 32.4375 
Q 13 28.59375 13 23.296875 
Q 13 18.203125 15.046875 14.140625 
Q 17.09375 10.09375 20.6875 7.75 
Q 24.296875 5.40625 28.90625 5.40625 
Q 35.796875 5.40625 40.796875 11 
L 45 6.09375 
Q 38.296875 -1.09375 28.5 -1.09375 
z
" id="Inconsolata-Regular-99"/>
     </defs>
     <g transform="translate(127 65.390625)scale(0.1 -0.1)">
      <use xlink:href="#Inconsolata-Regular-75"/>
      <use x="49.999985" xlink:href="#Inconsolata-Regular-111"/>
      <use x="99.999969" xlink:href="#Inconsolata-Regular-114"/>
      <use x="149.999954" xlink:href="#Inconsolata-Regular-101"/>
      <use x="199.999939" xlink:href="#Inconsolata-Regular-97"/>
      <use x="249.999924" xlink:href="#Inconsolata-Regular-44"/>
      <use x="299.999908" xlink:href="#Inconsolata-Regular-32"/>
      <use x="349.999893" xlink:href="#Inconsolata-Regular-83"/>
      <use x="399.999878" xlink:href="#Inconsolata-Regular-111"/>
      <use x="449.999863" xlink:href="#Inconsolata-Regular-117"/>
      <use x="499.999847" xlink:href="#Inconsolata-Regular-116"/>
      <use x="549.999832" xlink:href="#Inconsolata-Regular-104"/>
      <use x="599.999817" xlink:href="#Inconsolata-Regular-32"/>
      <use x="649.999802" xlink:href="#Inconsolata-Regular-100"/>
      <use x="699.999786" xlink:href="#Inconsolata-Regular-111"/>
      <use x="749.999771" xlink:href="#Inconsolata-Regular-117"/>
      <use x="799.999756" xlink:href="#Inconsolata-Regular-98"/>
      <use x="849.999741" xlink:href="#Inconsolata-Regular-108"/>
      <use x="899.999725" xlink:href="#Inconsolata-Regular-105"/>
      <use x="949.99971" xlink:href="#Inconsolata-Regular-110"/>
      <use x="999.999695" xlink:href="#Inconsolata-Regular-103"/>
      <use x="1049.99968" xlink:href="#Inconsolata-Regular-32"/>
      <use x="1099.999664" xlink:href="#Inconsolata-Regular-116"/>
      <use x="1149.999649" xlink:href="#Inconsolata-Regular-105"/>
      <use x="1199.999634" xlink:href="#Inconsolata-Regular-109"/>
      <use x="1249.999619" xlink:href="#Inconsolata-Regular-101"/>
      <use x="1299.999603" xlink:href="#Inconsolata-Regular-32"/>
      <use x="1349.999588" xlink:href="#Inconsolata-Regular-99"/>
      <use x="1399.999573" xlink:href="#Inconsolata-Regular-97"/>
      <use x="1449.999557" xlink:href="#Inconsolata-Regular-115"/>
      <use x="1499.999542" xlink:href="#Inconsolata-Regular-101"/>
      <use x="1549.999527" xlink:href="#Inconsolata-Regular-115"/>
     </g>
    </g>
    <g id="line2d_35">
     <path d="M 99 75.960938 
L 119 75.960938 
" style="fill:none;stroke:#348abd;stroke-linecap:square;stroke-width:3;"/>
    </g>
    <g id="line2d_36"/>
    <g id="text_19">
     <!-- Korea, South doubling time cases (rolling mean) -->
     <g transform="translate(127 79.460938)scale(0.1 -0.1)">
      <use xlink:href="#Inconsolata-Regular-75"/>
      <use x="49.999985" xlink:href="#Inconsolata-Regular-111"/>
      <use x="99.999969" xlink:href="#Inconsolata-Regular-114"/>
      <use x="149.999954" xlink:href="#Inconsolata-Regular-101"/>
      <use x="199.999939" xlink:href="#Inconsolata-Regular-97"/>
      <use x="249.999924" xlink:href="#Inconsolata-Regular-44"/>
      <use x="299.999908" xlink:href="#Inconsolata-Regular-32"/>
      <use x="349.999893" xlink:href="#Inconsolata-Regular-83"/>
      <use x="399.999878" xlink:href="#Inconsolata-Regular-111"/>
      <use x="449.999863" xlink:href="#Inconsolata-Regular-117"/>
      <use x="499.999847" xlink:href="#Inconsolata-Regular-116"/>
      <use x="549.999832" xlink:href="#Inconsolata-Regular-104"/>
      <use x="599.999817" xlink:href="#Inconsolata-Regular-32"/>
      <use x="649.999802" xlink:href="#Inconsolata-Regular-100"/>
      <use x="699.999786" xlink:href="#Inconsolata-Regular-111"/>
      <use x="749.999771" xlink:href="#Inconsolata-Regular-117"/>
      <use x="799.999756" xlink:href="#Inconsolata-Regular-98"/>
      <use x="849.999741" xlink:href="#Inconsolata-Regular-108"/>
      <use x="899.999725" xlink:href="#Inconsolata-Regular-105"/>
      <use x="949.99971" xlink:href="#Inconsolata-Regular-110"/>
      <use x="999.999695" xlink:href="#Inconsolata-Regular-103"/>
      <use x="1049.99968" xlink:href="#Inconsolata-Regular-32"/>
      <use x="1099.999664" xlink:href="#Inconsolata-Regular-116"/>
      <use x="1149.999649" xlink:href="#Inconsolata-Regular-105"/>
      <use x="1199.999634" xlink:href="#Inconsolata-Regular-109"/>
      <use x="1249.999619" xlink:href="#Inconsolata-Regular-101"/>
      <use x="1299.999603" xlink:href="#Inconsolata-Regular-32"/>
      <use x="1349.999588" xlink:href="#Inconsolata-Regular-99"/>
      <use x="1399.999573" xlink:href="#Inconsolata-Regular-97"/>
      <use x="1449.999557" xlink:href="#Inconsolata-Regular-115"/>
      <use x="1499.999542" xlink:href="#Inconsolata-Regular-101"/>
      <use x="1549.999527" xlink:href="#Inconsolata-Regular-115"/>
      <use x="1599.999512" xlink:href="#Inconsolata-Regular-32"/>
      <use x="1649.999496" xlink:href="#Inconsolata-Regular-40"/>
      <use x="1699.999481" xlink:href="#Inconsolata-Regular-114"/>
      <use x="1749.999466" xlink:href="#Inconsolata-Regular-111"/>
      <use x="1799.999451" xlink:href="#Inconsolata-Regular-108"/>
      <use x="1849.999435" xlink:href="#Inconsolata-Regular-108"/>
      <use x="1899.99942" xlink:href="#Inconsolata-Regular-105"/>
      <use x="1949.999405" xlink:href="#Inconsolata-Regular-110"/>
      <use x="1999.99939" xlink:href="#Inconsolata-Regular-103"/>
      <use x="2049.999374" xlink:href="#Inconsolata-Regular-32"/>
      <use x="2099.999359" xlink:href="#Inconsolata-Regular-109"/>
      <use x="2149.999344" xlink:href="#Inconsolata-Regular-101"/>
      <use x="2199.999329" xlink:href="#Inconsolata-Regular-97"/>
      <use x="2249.999313" xlink:href="#Inconsolata-Regular-110"/>
      <use x="2299.999298" xlink:href="#Inconsolata-Regular-41"/>
     </g>
    </g>
   </g>
  </g>
 </g>
 <defs>
  <clipPath id="p4e15fb6b00">
   <rect height="135.9" width="558" x="90" y="21.6"/>
  </clipPath>
 </defs>
</svg>
