<?xml version="1.0" encoding="utf-8" standalone="no"?>
<!DOCTYPE svg PUBLIC "-//W3C//DTD SVG 1.1//EN"
  "http://www.w3.org/Graphics/SVG/1.1/DTD/svg11.dtd">
<!-- Created with matplotlib (https://matplotlib.org/) -->
<svg height="180pt" version="1.1" viewBox="0 0 720 180" width="720pt" xmlns="http://www.w3.org/2000/svg" xmlns:xlink="http://www.w3.org/1999/xlink">
 <defs>
  <style type="text/css">
*{stroke-linecap:butt;stroke-linejoin:round;}
  </style>
 </defs>
 <g id="figure_1">
  <g id="patch_1">
   <path d="M 0 180 
L 720 180 
L 720 0 
L 0 0 
z
" style="fill:#ffffff;"/>
  </g>
  <g id="axes_1">
   <g id="patch_2">
    <path d="M 90 157.5 
L 648 157.5 
L 648 21.6 
L 90 21.6 
z
" style="fill:#e5e5e5;"/>
   </g>
   <g id="matplotlib.axis_1">
    <g id="xtick_1">
     <g id="line2d_1">
      <path clip-path="url(#pc3e6f3c95d)" d="M 145.558442 157.5 
L 145.558442 21.6 
" style="fill:none;stroke:#ffffff;stroke-linecap:square;stroke-width:0.8;"/>
     </g>
     <g id="line2d_2">
      <defs>
       <path d="M 0 0 
L 0 3.5 
" id="m37ffd4e5a8" style="stroke:#555555;stroke-width:0.8;"/>
      </defs>
      <g>
       <use style="fill:#555555;stroke:#555555;stroke-width:0.8;" x="145.558442" xlink:href="#m37ffd4e5a8" y="157.5"/>
      </g>
     </g>
     <g id="text_1">
      <!-- 2020-02 -->
      <defs>
       <path d="M 7.296875 5.59375 
Q 14 12.5 19.390625 17.84375 
Q 24.796875 23.203125 28.59375 27.640625 
Q 32.40625 32.09375 34.40625 36.296875 
Q 36.40625 40.5 36.40625 45.09375 
Q 36.40625 51.59375 33.296875 54.09375 
Q 30.203125 56.59375 25.796875 56.59375 
Q 22.203125 56.59375 19.046875 55.046875 
Q 15.90625 53.5 13.296875 50.296875 
Q 12.40625 48.90625 12.203125 48.15625 
Q 12 47.40625 12.09375 46.59375 
L 11.703125 46.09375 
L 10.90625 46.59375 
L 5.796875 50.59375 
Q 8.796875 56.40625 14.046875 59.546875 
Q 19.296875 62.703125 25.703125 62.703125 
Q 33.59375 62.703125 38.59375 57.953125 
Q 43.59375 53.203125 43.59375 44.90625 
Q 43.59375 39.703125 41.296875 35 
Q 39 30.296875 35.140625 25.6875 
Q 31.296875 21.09375 26.390625 16.296875 
Q 21.5 11.5 16.296875 6.09375 
L 39.5 6.09375 
Q 41.203125 6.09375 41.890625 6.296875 
Q 42.59375 6.5 43.203125 7.09375 
L 43.90625 7.09375 
L 43.90625 0 
L 7.296875 0 
z
" id="Inconsolata-Regular-50"/>
       <path d="M 25 -1.09375 
Q 15.703125 -1.09375 10.703125 7.203125 
Q 5.703125 15.5 5.703125 30.796875 
Q 5.703125 45.59375 10.703125 54.140625 
Q 15.703125 62.703125 25 62.703125 
Q 34.296875 62.703125 39.296875 54.140625 
Q 44.296875 45.59375 44.296875 30.796875 
Q 44.296875 15.5 39.296875 7.203125 
Q 34.296875 -1.09375 25 -1.09375 
z
M 12.90625 30.796875 
Q 12.90625 24.40625 13.796875 19.40625 
L 35 46.703125 
Q 33.5 51.40625 30.953125 54 
Q 28.40625 56.59375 25 56.59375 
Q 19.296875 56.59375 16.09375 49.59375 
Q 12.90625 42.59375 12.90625 30.796875 
z
M 25 5 
Q 30.703125 5 33.890625 11.703125 
Q 37.09375 18.40625 37.09375 30.796875 
Q 37.09375 36.296875 36.40625 40.796875 
L 15.203125 13.90625 
Q 18.296875 5 25 5 
z
" id="Inconsolata-Regular-48"/>
       <path d="M 11.09375 28.09375 
L 11.09375 34.796875 
L 39.09375 34.796875 
L 39.09375 28.09375 
z
" id="Inconsolata-Regular-45"/>
      </defs>
      <g style="fill:#555555;" transform="translate(128.058442 171.15)scale(0.1 -0.1)">
       <use xlink:href="#Inconsolata-Regular-50"/>
       <use x="49.999985" xlink:href="#Inconsolata-Regular-48"/>
       <use x="99.999969" xlink:href="#Inconsolata-Regular-50"/>
       <use x="149.999954" xlink:href="#Inconsolata-Regular-48"/>
       <use x="199.999939" xlink:href="#Inconsolata-Regular-45"/>
       <use x="249.999924" xlink:href="#Inconsolata-Regular-48"/>
       <use x="299.999908" xlink:href="#Inconsolata-Regular-50"/>
      </g>
     </g>
    </g>
    <g id="xtick_2">
     <g id="line2d_3">
      <path clip-path="url(#pc3e6f3c95d)" d="M 233.123377 157.5 
L 233.123377 21.6 
" style="fill:none;stroke:#ffffff;stroke-linecap:square;stroke-width:0.8;"/>
     </g>
     <g id="line2d_4">
      <g>
       <use style="fill:#555555;stroke:#555555;stroke-width:0.8;" x="233.123377" xlink:href="#m37ffd4e5a8" y="157.5"/>
      </g>
     </g>
     <g id="text_2">
      <!-- 2020-03 -->
      <defs>
       <path d="M 24 -1.09375 
Q 19.09375 -1.09375 14.59375 0.703125 
Q 10.09375 2.5 6.90625 6 
L 11.5 11.5 
L 12.203125 12.296875 
L 12.703125 11.796875 
Q 12.796875 11 13.09375 10.25 
Q 13.40625 9.5 14.5 8.296875 
Q 16.203125 6.796875 18.390625 5.84375 
Q 20.59375 4.90625 23.703125 4.90625 
Q 29.703125 4.90625 32.59375 8.40625 
Q 35.5 11.90625 35.5 17.40625 
Q 35.5 24.5 30.75 27.453125 
Q 26 30.40625 18 29.59375 
L 18 35.203125 
Q 24.5 35.203125 27.796875 36.890625 
Q 31.09375 38.59375 32.25 41.4375 
Q 33.40625 44.296875 33.40625 47.5 
Q 33.40625 51.796875 30.953125 54.25 
Q 28.5 56.703125 24.5 56.703125 
Q 21.5 56.703125 18.640625 55.703125 
Q 15.796875 54.703125 13.09375 52.09375 
L 8.90625 56.296875 
Q 12.296875 59.796875 16.34375 61.25 
Q 20.40625 62.703125 24.40625 62.703125 
Q 32 62.703125 36.296875 58.390625 
Q 40.59375 54.09375 40.59375 47.203125 
Q 40.59375 42.296875 38.1875 38.4375 
Q 35.796875 34.59375 30.796875 33 
Q 36.09375 31.296875 39.390625 27.390625 
Q 42.703125 23.5 42.703125 17.09375 
Q 42.703125 12.203125 40.546875 8.046875 
Q 38.40625 3.90625 34.25 1.40625 
Q 30.09375 -1.09375 24 -1.09375 
z
" id="Inconsolata-Regular-51"/>
      </defs>
      <g style="fill:#555555;" transform="translate(215.623377 171.15)scale(0.1 -0.1)">
       <use xlink:href="#Inconsolata-Regular-50"/>
       <use x="49.999985" xlink:href="#Inconsolata-Regular-48"/>
       <use x="99.999969" xlink:href="#Inconsolata-Regular-50"/>
       <use x="149.999954" xlink:href="#Inconsolata-Regular-48"/>
       <use x="199.999939" xlink:href="#Inconsolata-Regular-45"/>
       <use x="249.999924" xlink:href="#Inconsolata-Regular-48"/>
       <use x="299.999908" xlink:href="#Inconsolata-Regular-51"/>
      </g>
     </g>
    </g>
    <g id="xtick_3">
     <g id="line2d_5">
      <path clip-path="url(#pc3e6f3c95d)" d="M 326.727273 157.5 
L 326.727273 21.6 
" style="fill:none;stroke:#ffffff;stroke-linecap:square;stroke-width:0.8;"/>
     </g>
     <g id="line2d_6">
      <g>
       <use style="fill:#555555;stroke:#555555;stroke-width:0.8;" x="326.727273" xlink:href="#m37ffd4e5a8" y="157.5"/>
      </g>
     </g>
     <g id="text_3">
      <!-- 2020-04 -->
      <defs>
       <path d="M 31.796875 0 
L 31.796875 15.296875 
L 4.796875 15.296875 
L 4.796875 20.40625 
L 33.296875 62.40625 
L 39.203125 62.40625 
L 39.203125 21.09375 
L 47.203125 21.09375 
L 47.203125 15.203125 
L 39.203125 15.203125 
L 39.203125 0 
z
M 12.90625 21.203125 
L 31.796875 21.203125 
L 31.796875 49.796875 
z
" id="Inconsolata-Regular-52"/>
      </defs>
      <g style="fill:#555555;" transform="translate(309.227273 171.15)scale(0.1 -0.1)">
       <use xlink:href="#Inconsolata-Regular-50"/>
       <use x="49.999985" xlink:href="#Inconsolata-Regular-48"/>
       <use x="99.999969" xlink:href="#Inconsolata-Regular-50"/>
       <use x="149.999954" xlink:href="#Inconsolata-Regular-48"/>
       <use x="199.999939" xlink:href="#Inconsolata-Regular-45"/>
       <use x="249.999924" xlink:href="#Inconsolata-Regular-48"/>
       <use x="299.999908" xlink:href="#Inconsolata-Regular-52"/>
      </g>
     </g>
    </g>
    <g id="xtick_4">
     <g id="line2d_7">
      <path clip-path="url(#pc3e6f3c95d)" d="M 417.311688 157.5 
L 417.311688 21.6 
" style="fill:none;stroke:#ffffff;stroke-linecap:square;stroke-width:0.8;"/>
     </g>
     <g id="line2d_8">
      <g>
       <use style="fill:#555555;stroke:#555555;stroke-width:0.8;" x="417.311688" xlink:href="#m37ffd4e5a8" y="157.5"/>
      </g>
     </g>
     <g id="text_4">
      <!-- 2020-05 -->
      <defs>
       <path d="M 24.90625 -1.09375 
Q 19.203125 -1.09375 14.34375 1.40625 
Q 9.5 3.90625 6.40625 8.5 
L 12.796875 13.296875 
L 13.203125 12.796875 
Q 13.09375 12 13.4375 11.296875 
Q 13.796875 10.59375 14.796875 9.296875 
Q 16.796875 7.09375 19.25 6.046875 
Q 21.703125 5 25.296875 5 
Q 28.5 5 31.25 6.796875 
Q 34 8.59375 35.703125 11.9375 
Q 37.40625 15.296875 37.40625 19.90625 
Q 37.40625 26.90625 33.65625 30.796875 
Q 29.90625 34.703125 24.59375 34.703125 
Q 21.40625 34.703125 18.296875 33.140625 
Q 15.203125 31.59375 12.90625 28.796875 
L 8.5 30.59375 
L 10.59375 62.296875 
L 42.203125 62.296875 
L 42.203125 56 
L 16.5 56 
L 15.5 38.09375 
Q 20.5 40.5 25.703125 40.5 
Q 31.09375 40.5 35.34375 37.953125 
Q 39.59375 35.40625 42.046875 30.703125 
Q 44.5 26 44.5 19.59375 
Q 44.5 13.203125 41.890625 8.546875 
Q 39.296875 3.90625 34.890625 1.40625 
Q 30.5 -1.09375 24.90625 -1.09375 
z
" id="Inconsolata-Regular-53"/>
      </defs>
      <g style="fill:#555555;" transform="translate(399.811688 171.15)scale(0.1 -0.1)">
       <use xlink:href="#Inconsolata-Regular-50"/>
       <use x="49.999985" xlink:href="#Inconsolata-Regular-48"/>
       <use x="99.999969" xlink:href="#Inconsolata-Regular-50"/>
       <use x="149.999954" xlink:href="#Inconsolata-Regular-48"/>
       <use x="199.999939" xlink:href="#Inconsolata-Regular-45"/>
       <use x="249.999924" xlink:href="#Inconsolata-Regular-48"/>
       <use x="299.999908" xlink:href="#Inconsolata-Regular-53"/>
      </g>
     </g>
    </g>
    <g id="xtick_5">
     <g id="line2d_9">
      <path clip-path="url(#pc3e6f3c95d)" d="M 510.915584 157.5 
L 510.915584 21.6 
" style="fill:none;stroke:#ffffff;stroke-linecap:square;stroke-width:0.8;"/>
     </g>
     <g id="line2d_10">
      <g>
       <use style="fill:#555555;stroke:#555555;stroke-width:0.8;" x="510.915584" xlink:href="#m37ffd4e5a8" y="157.5"/>
      </g>
     </g>
     <g id="text_5">
      <!-- 2020-06 -->
      <defs>
       <path d="M 26.09375 -1 
Q 16.796875 -1 11.75 6.890625 
Q 6.703125 14.796875 6.703125 28.40625 
Q 6.703125 45.203125 12.703125 54.09375 
Q 18.703125 63 28.703125 63 
Q 36.59375 63 42.40625 57.296875 
L 38 52.296875 
L 37.296875 51.5 
L 36.796875 52 
Q 36.703125 52.796875 36.34375 53.5 
Q 36 54.203125 34.703125 55.296875 
Q 32.5 56.796875 28.90625 56.796875 
Q 26.90625 56.796875 24.296875 55.84375 
Q 21.703125 54.90625 19.296875 52.296875 
Q 16.90625 49.703125 15.296875 44.953125 
Q 13.703125 40.203125 13.59375 32.703125 
Q 15.703125 36.203125 19.25 38.203125 
Q 22.796875 40.203125 26.796875 40.203125 
Q 31.5 40.203125 35.34375 37.640625 
Q 39.203125 35.09375 41.546875 30.546875 
Q 43.90625 26 43.90625 19.796875 
Q 43.90625 13.59375 41.5 8.890625 
Q 39.09375 4.203125 35.09375 1.59375 
Q 31.09375 -1 26.09375 -1 
z
M 26.40625 5.203125 
Q 30.703125 5.203125 33.890625 8.890625 
Q 37.09375 12.59375 37.09375 19.703125 
Q 37.09375 24.703125 35.4375 27.890625 
Q 33.796875 31.09375 31.296875 32.59375 
Q 28.796875 34.09375 26.203125 34.09375 
Q 22.59375 34.09375 19.296875 31.640625 
Q 16 29.203125 14 25.703125 
Q 13.59375 22.296875 14.25 18.6875 
Q 14.90625 15.09375 16.546875 12.046875 
Q 18.203125 9 20.703125 7.09375 
Q 23.203125 5.203125 26.40625 5.203125 
z
" id="Inconsolata-Regular-54"/>
      </defs>
      <g style="fill:#555555;" transform="translate(493.415584 171.15)scale(0.1 -0.1)">
       <use xlink:href="#Inconsolata-Regular-50"/>
       <use x="49.999985" xlink:href="#Inconsolata-Regular-48"/>
       <use x="99.999969" xlink:href="#Inconsolata-Regular-50"/>
       <use x="149.999954" xlink:href="#Inconsolata-Regular-48"/>
       <use x="199.999939" xlink:href="#Inconsolata-Regular-45"/>
       <use x="249.999924" xlink:href="#Inconsolata-Regular-48"/>
       <use x="299.999908" xlink:href="#Inconsolata-Regular-54"/>
      </g>
     </g>
    </g>
    <g id="xtick_6">
     <g id="line2d_11">
      <path clip-path="url(#pc3e6f3c95d)" d="M 601.5 157.5 
L 601.5 21.6 
" style="fill:none;stroke:#ffffff;stroke-linecap:square;stroke-width:0.8;"/>
     </g>
     <g id="line2d_12">
      <g>
       <use style="fill:#555555;stroke:#555555;stroke-width:0.8;" x="601.5" xlink:href="#m37ffd4e5a8" y="157.5"/>
      </g>
     </g>
     <g id="text_6">
      <!-- 2020-07 -->
      <defs>
       <path d="M 15.5 0 
Q 19.90625 14.296875 24.59375 28.09375 
Q 29.296875 41.90625 34.5 55.703125 
L 7.90625 55.703125 
L 7.90625 62.296875 
L 43.203125 62.296875 
L 43.203125 58.40625 
Q 37.5 44 32.5 29.5 
Q 27.5 15 23.40625 0 
z
" id="Inconsolata-Regular-55"/>
      </defs>
      <g style="fill:#555555;" transform="translate(584 171.15)scale(0.1 -0.1)">
       <use xlink:href="#Inconsolata-Regular-50"/>
       <use x="49.999985" xlink:href="#Inconsolata-Regular-48"/>
       <use x="99.999969" xlink:href="#Inconsolata-Regular-50"/>
       <use x="149.999954" xlink:href="#Inconsolata-Regular-48"/>
       <use x="199.999939" xlink:href="#Inconsolata-Regular-45"/>
       <use x="249.999924" xlink:href="#Inconsolata-Regular-48"/>
       <use x="299.999908" xlink:href="#Inconsolata-Regular-55"/>
      </g>
     </g>
    </g>
   </g>
   <g id="matplotlib.axis_2">
    <g id="ytick_1">
     <g id="line2d_13">
      <path clip-path="url(#pc3e6f3c95d)" d="M 90 157.5 
L 648 157.5 
" style="fill:none;stroke:#ffffff;stroke-linecap:square;stroke-width:0.8;"/>
     </g>
     <g id="line2d_14">
      <defs>
       <path d="M 0 0 
L -3.5 0 
" id="m93283f0a1f" style="stroke:#555555;stroke-width:0.8;"/>
      </defs>
      <g>
       <use style="fill:#555555;stroke:#555555;stroke-width:0.8;" x="90" xlink:href="#m93283f0a1f" y="157.5"/>
      </g>
     </g>
     <g id="line2d_15">
      <defs>
       <path d="M 0 0 
L 3.5 0 
" id="md566e4b6d3" style="stroke:#555555;stroke-width:0.8;"/>
      </defs>
      <g>
       <use style="fill:#555555;stroke:#555555;stroke-width:0.8;" x="648" xlink:href="#md566e4b6d3" y="157.5"/>
      </g>
     </g>
     <g id="text_7">
      <!-- 0 -->
      <g style="fill:#555555;" transform="translate(78 160.825)scale(0.1 -0.1)">
       <use xlink:href="#Inconsolata-Regular-48"/>
      </g>
     </g>
     <g id="text_8">
      <!-- 0 -->
      <g style="fill:#555555;" transform="translate(655 160.825)scale(0.1 -0.1)">
       <use xlink:href="#Inconsolata-Regular-48"/>
      </g>
     </g>
    </g>
    <g id="ytick_2">
     <g id="line2d_16">
      <path clip-path="url(#pc3e6f3c95d)" d="M 90 127.082004 
L 648 127.082004 
" style="fill:none;stroke:#ffffff;stroke-linecap:square;stroke-width:0.8;"/>
     </g>
     <g id="line2d_17">
      <g>
       <use style="fill:#555555;stroke:#555555;stroke-width:0.8;" x="90" xlink:href="#m93283f0a1f" y="127.082004"/>
      </g>
     </g>
     <g id="line2d_18">
      <g>
       <use style="fill:#555555;stroke:#555555;stroke-width:0.8;" x="648" xlink:href="#md566e4b6d3" y="127.082004"/>
      </g>
     </g>
     <g id="text_9">
      <!-- 200 -->
      <g style="fill:#555555;" transform="translate(68 130.407004)scale(0.1 -0.1)">
       <use xlink:href="#Inconsolata-Regular-50"/>
       <use x="49.999985" xlink:href="#Inconsolata-Regular-48"/>
       <use x="99.999969" xlink:href="#Inconsolata-Regular-48"/>
      </g>
     </g>
     <g id="text_10">
      <!-- 200 -->
      <g style="fill:#555555;" transform="translate(655 130.407004)scale(0.1 -0.1)">
       <use xlink:href="#Inconsolata-Regular-50"/>
       <use x="49.999985" xlink:href="#Inconsolata-Regular-48"/>
       <use x="99.999969" xlink:href="#Inconsolata-Regular-48"/>
      </g>
     </g>
    </g>
    <g id="ytick_3">
     <g id="line2d_19">
      <path clip-path="url(#pc3e6f3c95d)" d="M 90 96.664009 
L 648 96.664009 
" style="fill:none;stroke:#ffffff;stroke-linecap:square;stroke-width:0.8;"/>
     </g>
     <g id="line2d_20">
      <g>
       <use style="fill:#555555;stroke:#555555;stroke-width:0.8;" x="90" xlink:href="#m93283f0a1f" y="96.664009"/>
      </g>
     </g>
     <g id="line2d_21">
      <g>
       <use style="fill:#555555;stroke:#555555;stroke-width:0.8;" x="648" xlink:href="#md566e4b6d3" y="96.664009"/>
      </g>
     </g>
     <g id="text_11">
      <!-- 400 -->
      <g style="fill:#555555;" transform="translate(68 99.989009)scale(0.1 -0.1)">
       <use xlink:href="#Inconsolata-Regular-52"/>
       <use x="49.999985" xlink:href="#Inconsolata-Regular-48"/>
       <use x="99.999969" xlink:href="#Inconsolata-Regular-48"/>
      </g>
     </g>
     <g id="text_12">
      <!-- 400 -->
      <g style="fill:#555555;" transform="translate(655 99.989009)scale(0.1 -0.1)">
       <use xlink:href="#Inconsolata-Regular-52"/>
       <use x="49.999985" xlink:href="#Inconsolata-Regular-48"/>
       <use x="99.999969" xlink:href="#Inconsolata-Regular-48"/>
      </g>
     </g>
    </g>
    <g id="ytick_4">
     <g id="line2d_22">
      <path clip-path="url(#pc3e6f3c95d)" d="M 90 66.246013 
L 648 66.246013 
" style="fill:none;stroke:#ffffff;stroke-linecap:square;stroke-width:0.8;"/>
     </g>
     <g id="line2d_23">
      <g>
       <use style="fill:#555555;stroke:#555555;stroke-width:0.8;" x="90" xlink:href="#m93283f0a1f" y="66.246013"/>
      </g>
     </g>
     <g id="line2d_24">
      <g>
       <use style="fill:#555555;stroke:#555555;stroke-width:0.8;" x="648" xlink:href="#md566e4b6d3" y="66.246013"/>
      </g>
     </g>
     <g id="text_13">
      <!-- 600 -->
      <g style="fill:#555555;" transform="translate(68 69.571013)scale(0.1 -0.1)">
       <use xlink:href="#Inconsolata-Regular-54"/>
       <use x="49.999985" xlink:href="#Inconsolata-Regular-48"/>
       <use x="99.999969" xlink:href="#Inconsolata-Regular-48"/>
      </g>
     </g>
     <g id="text_14">
      <!-- 600 -->
      <g style="fill:#555555;" transform="translate(655 69.571013)scale(0.1 -0.1)">
       <use xlink:href="#Inconsolata-Regular-54"/>
       <use x="49.999985" xlink:href="#Inconsolata-Regular-48"/>
       <use x="99.999969" xlink:href="#Inconsolata-Regular-48"/>
      </g>
     </g>
    </g>
    <g id="ytick_5">
     <g id="line2d_25">
      <path clip-path="url(#pc3e6f3c95d)" d="M 90 35.828017 
L 648 35.828017 
" style="fill:none;stroke:#ffffff;stroke-linecap:square;stroke-width:0.8;"/>
     </g>
     <g id="line2d_26">
      <g>
       <use style="fill:#555555;stroke:#555555;stroke-width:0.8;" x="90" xlink:href="#m93283f0a1f" y="35.828017"/>
      </g>
     </g>
     <g id="line2d_27">
      <g>
       <use style="fill:#555555;stroke:#555555;stroke-width:0.8;" x="648" xlink:href="#md566e4b6d3" y="35.828017"/>
      </g>
     </g>
     <g id="text_15">
      <!-- 800 -->
      <defs>
       <path d="M 25 -1 
Q 19.09375 -1 14.84375 1.25 
Q 10.59375 3.5 8.296875 7.296875 
Q 6 11.09375 6 15.703125 
Q 6 21.09375 9.390625 25.796875 
Q 12.796875 30.5 18.5 33.09375 
Q 14.203125 35.296875 11.59375 39.25 
Q 9 43.203125 9 47.703125 
Q 9 54.09375 13.140625 58.59375 
Q 17.296875 63.09375 25.5 63.09375 
Q 31.296875 63.09375 34.890625 61.09375 
Q 38.5 59.09375 40.25 55.75 
Q 42 52.40625 42 48.296875 
Q 42 43.796875 39.296875 39.75 
Q 36.59375 35.703125 32.09375 33.296875 
Q 37.5 30.796875 40.796875 26.140625 
Q 44.09375 21.5 44.09375 16.09375 
Q 44.09375 11.203125 41.75 7.34375 
Q 39.40625 3.5 35.15625 1.25 
Q 30.90625 -1 25 -1 
z
M 26.703125 35.796875 
Q 30.40625 37.796875 32.796875 41.1875 
Q 35.203125 44.59375 35.203125 48.09375 
Q 35.203125 51.59375 32.75 54.390625 
Q 30.296875 57.203125 25.296875 57.203125 
Q 20.40625 57.203125 18.046875 54.5 
Q 15.703125 51.796875 15.703125 48.40625 
Q 15.703125 43.796875 18.890625 41.046875 
Q 22.09375 38.296875 26.703125 35.796875 
z
M 25.203125 5.296875 
Q 31 5.296875 34 8.4375 
Q 37 11.59375 37 16.09375 
Q 37 20.703125 33.390625 24.546875 
Q 29.796875 28.40625 23.703125 30.296875 
Q 19.203125 28.40625 16.203125 24.65625 
Q 13.203125 20.90625 13.203125 16.40625 
Q 13.203125 11.90625 16.34375 8.59375 
Q 19.5 5.296875 25.203125 5.296875 
z
" id="Inconsolata-Regular-56"/>
      </defs>
      <g style="fill:#555555;" transform="translate(68 39.153017)scale(0.1 -0.1)">
       <use xlink:href="#Inconsolata-Regular-56"/>
       <use x="49.999985" xlink:href="#Inconsolata-Regular-48"/>
       <use x="99.999969" xlink:href="#Inconsolata-Regular-48"/>
      </g>
     </g>
     <g id="text_16">
      <!-- 800 -->
      <g style="fill:#555555;" transform="translate(655 39.153017)scale(0.1 -0.1)">
       <use xlink:href="#Inconsolata-Regular-56"/>
       <use x="49.999985" xlink:href="#Inconsolata-Regular-48"/>
       <use x="99.999969" xlink:href="#Inconsolata-Regular-48"/>
      </g>
     </g>
    </g>
    <g id="text_17">
     <!-- daily change -->
     <defs>
      <path d="M 23.40625 -1 
Q 18.796875 -1 14.4375 1.640625 
Q 10.09375 4.296875 7.296875 9.6875 
Q 4.5 15.09375 4.5 23.296875 
Q 4.5 31.703125 7.390625 36.890625 
Q 10.296875 42.09375 14.75 44.5 
Q 19.203125 46.90625 23.796875 46.90625 
Q 28.5 46.90625 31.953125 44.75 
Q 35.40625 42.59375 37.09375 39 
L 37.09375 66.5 
L 44.703125 66.5 
L 44.703125 65.796875 
Q 44.09375 65.203125 43.9375 64.5 
Q 43.796875 63.796875 43.796875 62.09375 
L 43.90625 7.09375 
Q 43.90625 5.296875 44.046875 3.546875 
Q 44.203125 1.796875 44.90625 0 
L 37.796875 0 
Q 37.09375 1.796875 36.9375 3.546875 
Q 36.796875 5.296875 36.796875 7.09375 
Q 34.59375 3.40625 31.1875 1.203125 
Q 27.796875 -1 23.40625 -1 
z
M 24.5 5.296875 
Q 28.90625 5.296875 31.546875 7.6875 
Q 34.203125 10.09375 35.34375 14.140625 
Q 36.5 18.203125 36.5 23.09375 
Q 36.5 30.796875 33.5 35.890625 
Q 30.5 41 23.90625 41 
Q 17.796875 41 14.640625 36.5 
Q 11.5 32 11.5 24.40625 
Q 11.5 15.796875 14.796875 10.546875 
Q 18.09375 5.296875 24.5 5.296875 
z
" id="Inconsolata-Regular-100"/>
      <path d="M 21.09375 -1.09375 
Q 13.296875 -1.09375 9.09375 2.453125 
Q 4.90625 6 4.90625 11.5 
Q 4.90625 16.40625 8 19.953125 
Q 11.09375 23.5 16.34375 25.453125 
Q 21.59375 27.40625 27.90625 27.40625 
Q 30.203125 27.40625 32.75 27.296875 
Q 35.296875 27.203125 38.203125 26.796875 
Q 37.59375 34.796875 34.046875 37.796875 
Q 30.5 40.796875 23.90625 40.796875 
Q 20.59375 40.796875 17.390625 39.546875 
Q 14.203125 38.296875 11.59375 35.703125 
L 8.09375 40.296875 
Q 11.296875 43.5 15.5 45.09375 
Q 19.703125 46.703125 24.40625 46.703125 
Q 30.5 46.703125 35 44.703125 
Q 39.5 42.703125 42 37.796875 
Q 44.5 32.90625 44.5 24.296875 
L 44.5 0 
L 36.703125 0 
L 36.703125 7 
Q 35 3.703125 32.34375 1.953125 
Q 29.703125 0.203125 26.75 -0.4375 
Q 23.796875 -1.09375 21.09375 -1.09375 
z
M 12.09375 11.90625 
Q 12.09375 7.59375 14.890625 6 
Q 17.703125 4.40625 21.796875 4.40625 
Q 29.203125 4.40625 33.5 8.75 
Q 37.796875 13.09375 38.203125 21.296875 
Q 33 22 28.5 22 
Q 21.296875 22 16.6875 19.59375 
Q 12.09375 17.203125 12.09375 11.90625 
z
" id="Inconsolata-Regular-97"/>
      <path d="M 10 0 
L 10 5.796875 
L 21.703125 5.796875 
L 21.703125 39.90625 
L 10.59375 39.90625 
L 10.59375 45.703125 
L 28.90625 45.703125 
L 28.90625 5.796875 
L 39.59375 5.796875 
L 39.59375 0 
z
M 24.90625 55.296875 
Q 22.796875 55.296875 21.296875 56.796875 
Q 19.796875 58.296875 19.796875 60.40625 
Q 19.796875 62.59375 21.25 64.09375 
Q 22.703125 65.59375 24.90625 65.59375 
Q 27 65.59375 28.546875 64.046875 
Q 30.09375 62.5 30.09375 60.40625 
Q 30.09375 58.296875 28.546875 56.796875 
Q 27 55.296875 24.90625 55.296875 
z
" id="Inconsolata-Regular-105"/>
      <path d="M 7.90625 0 
L 7.90625 5.796875 
L 21.40625 5.796875 
L 21.40625 60.703125 
L 8.5 60.703125 
L 8.5 66.5 
L 28.703125 66.5 
L 28.703125 5.796875 
L 42.09375 5.796875 
L 42.09375 0 
z
" id="Inconsolata-Regular-108"/>
      <path d="M 12.703125 -17.40625 
Q 6.296875 -17.40625 2.203125 -13.5 
L 5.296875 -8.59375 
L 5.90625 -7.703125 
L 6.5 -8.09375 
Q 6.703125 -8.90625 7.203125 -9.453125 
Q 7.703125 -10 9.09375 -10.90625 
Q 10.90625 -11.5 13.09375 -11.5 
Q 17 -11.5 19.203125 -8.75 
Q 21.40625 -6 23.296875 -0.296875 
L 4.59375 45.703125 
L 12.09375 45.703125 
L 26.296875 9.09375 
L 32.296875 27.5 
Q 33.796875 32.09375 35.1875 36.59375 
Q 36.59375 41.09375 37.09375 45.703125 
L 44.296875 45.703125 
Q 43.59375 41.09375 42.09375 36.390625 
Q 40.59375 31.703125 38.90625 27 
L 27.5 -5.203125 
Q 25.09375 -11.90625 21.34375 -14.65625 
Q 17.59375 -17.40625 12.703125 -17.40625 
z
" id="Inconsolata-Regular-121"/>
      <path id="Inconsolata-Regular-32"/>
      <path d="M 28.5 -1.09375 
Q 21.90625 -1.09375 16.703125 2 
Q 11.5 5.09375 8.546875 10.5 
Q 5.59375 15.90625 5.59375 22.796875 
Q 5.59375 29.703125 8.546875 35.046875 
Q 11.5 40.40625 16.640625 43.5 
Q 21.796875 46.59375 28.40625 46.59375 
Q 34 46.59375 38.453125 44.34375 
Q 42.90625 42.09375 45.703125 38.09375 
L 41.203125 33.703125 
L 40.5 33 
L 40 33.5 
Q 40 34.296875 39.640625 35 
Q 39.296875 35.703125 38.09375 36.90625 
Q 35.90625 38.90625 33.40625 39.703125 
Q 30.90625 40.5 27.59375 40.5 
Q 23.796875 40.5 20.4375 38.390625 
Q 17.09375 36.296875 15.046875 32.4375 
Q 13 28.59375 13 23.296875 
Q 13 18.203125 15.046875 14.140625 
Q 17.09375 10.09375 20.6875 7.75 
Q 24.296875 5.40625 28.90625 5.40625 
Q 35.796875 5.40625 40.796875 11 
L 45 6.09375 
Q 38.296875 -1.09375 28.5 -1.09375 
z
" id="Inconsolata-Regular-99"/>
      <path d="M 7.296875 66.5 
L 15.203125 66.5 
L 15.203125 65.796875 
Q 14.59375 65.203125 14.4375 64.5 
Q 14.296875 63.796875 14.296875 62.09375 
L 14.296875 37.59375 
Q 17 41.796875 21.046875 44.296875 
Q 25.09375 46.796875 29.296875 46.796875 
Q 35.5 46.796875 39.34375 42.4375 
Q 43.203125 38.09375 43.203125 27.703125 
L 43.203125 0 
L 36.203125 0 
L 36.203125 27.5 
Q 36.203125 34.703125 33.75 37.59375 
Q 31.296875 40.5 27.796875 40.5 
Q 24.796875 40.5 21.640625 38.796875 
Q 18.5 37.09375 16.390625 33.9375 
Q 14.296875 30.796875 14.296875 26.296875 
L 14.296875 0 
L 7.296875 0 
z
" id="Inconsolata-Regular-104"/>
      <path d="M 7.203125 0 
L 7.203125 45.703125 
L 14.203125 45.703125 
L 14.203125 37.59375 
Q 16.796875 41.796875 20.9375 44.296875 
Q 25.09375 46.796875 29.703125 46.796875 
Q 35.296875 46.796875 39.1875 42.4375 
Q 43.09375 38.09375 43.09375 27.703125 
L 43.09375 0 
L 36.09375 0 
L 36.09375 27.5 
Q 36.09375 34.703125 33.640625 37.59375 
Q 31.203125 40.5 27.703125 40.5 
Q 24.703125 40.5 21.546875 38.75 
Q 18.40625 37 16.296875 33.84375 
Q 14.203125 30.703125 14.203125 26.296875 
L 14.203125 0 
z
" id="Inconsolata-Regular-110"/>
      <path d="M 22.59375 15.5 
Q 18.703125 15.5 15.5 16.90625 
Q 13.703125 14.703125 13.703125 12.703125 
Q 13.703125 10.296875 16.703125 9.25 
Q 19.703125 8.203125 27.703125 8.203125 
Q 34.703125 8.203125 38.296875 6.703125 
Q 41.90625 5.203125 43.203125 2.59375 
Q 44.5 0 44.5 -3.40625 
Q 44.5 -6.90625 42.59375 -10.09375 
Q 40.703125 -13.296875 36.34375 -15.25 
Q 32 -17.203125 24.703125 -17.203125 
Q 15.09375 -17.203125 9.4375 -14.25 
Q 3.796875 -11.296875 3.796875 -5.40625 
Q 3.796875 -1.703125 5.890625 0.9375 
Q 8 3.59375 10.90625 4.90625 
Q 7.59375 7.09375 7.59375 11 
Q 7.59375 13.203125 8.6875 15.296875 
Q 9.796875 17.40625 11.703125 19.40625 
Q 6.59375 23.90625 6.59375 31.5 
Q 6.59375 35.90625 8.546875 39.5 
Q 10.5 43.09375 14.09375 45.25 
Q 17.703125 47.40625 22.59375 47.40625 
Q 26.296875 47.40625 29.25 46.15625 
Q 32.203125 44.90625 34.296875 42.703125 
Q 36.90625 45.09375 39.796875 46.140625 
Q 42.703125 47.203125 46.59375 46.90625 
L 47.5 41 
Q 44.5 41.296875 41.84375 40.890625 
Q 39.203125 40.5 36.90625 39 
Q 38.59375 35.59375 38.59375 31.5 
Q 38.59375 27.09375 36.640625 23.4375 
Q 34.703125 19.796875 31.140625 17.640625 
Q 27.59375 15.5 22.59375 15.5 
z
M 22.59375 21.5 
Q 27 21.5 29.796875 24.453125 
Q 32.59375 27.40625 32.59375 31.5 
Q 32.59375 35.59375 29.796875 38.546875 
Q 27 41.5 22.59375 41.5 
Q 18.296875 41.5 15.4375 38.546875 
Q 12.59375 35.59375 12.59375 31.5 
Q 12.59375 27.40625 15.4375 24.453125 
Q 18.296875 21.5 22.59375 21.5 
z
M 10.40625 -4.59375 
Q 10.40625 -8 14.25 -9.890625 
Q 18.09375 -11.796875 24.796875 -11.796875 
Q 31.59375 -11.796875 34.75 -9.75 
Q 37.90625 -7.703125 37.90625 -4.5 
Q 37.90625 -2.296875 37.09375 -0.890625 
Q 36.296875 0.5 33.796875 1.203125 
Q 31.296875 1.90625 26.203125 1.90625 
Q 22.703125 1.90625 19.84375 2.203125 
Q 17 2.5 14.703125 3.203125 
Q 12.40625 1.59375 11.40625 -0.046875 
Q 10.40625 -1.703125 10.40625 -4.59375 
z
" id="Inconsolata-Regular-103"/>
      <path d="M 27.203125 -1 
Q 17.203125 -1 11.046875 5.09375 
Q 4.90625 11.203125 4.90625 22.703125 
Q 4.90625 30.5 7.75 35.84375 
Q 10.59375 41.203125 15.34375 44 
Q 20.09375 46.796875 25.90625 46.796875 
Q 31.09375 46.796875 35.296875 44.5 
Q 39.5 42.203125 42 37.390625 
Q 44.5 32.59375 44.5 25.09375 
Q 44.5 24.296875 44.453125 23.4375 
Q 44.40625 22.59375 44.296875 21.796875 
L 11.796875 21.796875 
Q 12.203125 13 16.75 8.890625 
Q 21.296875 4.796875 27.40625 4.796875 
Q 34.59375 4.796875 39.203125 9.90625 
L 43.203125 6 
Q 37.40625 -1 27.203125 -1 
z
M 12.09375 27.40625 
L 37.203125 27.40625 
Q 37.203125 33.796875 33.953125 37.546875 
Q 30.703125 41.296875 25.40625 41.296875 
Q 20.703125 41.296875 16.890625 37.9375 
Q 13.09375 34.59375 12.09375 27.40625 
z
" id="Inconsolata-Regular-101"/>
     </defs>
     <g style="fill:#555555;" transform="translate(61.91125 125.55)rotate(-90)scale(0.12 -0.12)">
      <use xlink:href="#Inconsolata-Regular-100"/>
      <use x="49.999985" xlink:href="#Inconsolata-Regular-97"/>
      <use x="99.999969" xlink:href="#Inconsolata-Regular-105"/>
      <use x="149.999954" xlink:href="#Inconsolata-Regular-108"/>
      <use x="199.999939" xlink:href="#Inconsolata-Regular-121"/>
      <use x="249.999924" xlink:href="#Inconsolata-Regular-32"/>
      <use x="299.999908" xlink:href="#Inconsolata-Regular-99"/>
      <use x="349.999893" xlink:href="#Inconsolata-Regular-104"/>
      <use x="399.999878" xlink:href="#Inconsolata-Regular-97"/>
      <use x="449.999863" xlink:href="#Inconsolata-Regular-110"/>
      <use x="499.999847" xlink:href="#Inconsolata-Regular-103"/>
      <use x="549.999832" xlink:href="#Inconsolata-Regular-101"/>
     </g>
    </g>
   </g>
   <g id="patch_3">
    <path clip-path="url(#pc3e6f3c95d)" d="M 117.175325 157.5 
L 119.590909 157.5 
L 119.590909 157.5 
L 117.175325 157.5 
z
" style="fill:#348abd;opacity:0.2;"/>
   </g>
   <g id="patch_4">
    <path clip-path="url(#pc3e6f3c95d)" d="M 120.194805 157.5 
L 122.61039 157.5 
L 122.61039 157.34791 
L 120.194805 157.34791 
z
" style="fill:#348abd;opacity:0.2;"/>
   </g>
   <g id="patch_5">
    <path clip-path="url(#pc3e6f3c95d)" d="M 123.214286 157.5 
L 125.62987 157.5 
L 125.62987 157.5 
L 123.214286 157.5 
z
" style="fill:#348abd;opacity:0.2;"/>
   </g>
   <g id="patch_6">
    <path clip-path="url(#pc3e6f3c95d)" d="M 126.233766 157.5 
L 128.649351 157.5 
L 128.649351 157.34791 
L 126.233766 157.34791 
z
" style="fill:#348abd;opacity:0.2;"/>
   </g>
   <g id="patch_7">
    <path clip-path="url(#pc3e6f3c95d)" d="M 129.253247 157.5 
L 131.668831 157.5 
L 131.668831 157.34791 
L 129.253247 157.34791 
z
" style="fill:#348abd;opacity:0.2;"/>
   </g>
   <g id="patch_8">
    <path clip-path="url(#pc3e6f3c95d)" d="M 132.272727 157.5 
L 134.688312 157.5 
L 134.688312 157.5 
L 132.272727 157.5 
z
" style="fill:#348abd;opacity:0.2;"/>
   </g>
   <g id="patch_9">
    <path clip-path="url(#pc3e6f3c95d)" d="M 135.292208 157.5 
L 137.707792 157.5 
L 137.707792 157.5 
L 135.292208 157.5 
z
" style="fill:#348abd;opacity:0.2;"/>
   </g>
   <g id="patch_10">
    <path clip-path="url(#pc3e6f3c95d)" d="M 138.311688 157.5 
L 140.727273 157.5 
L 140.727273 157.5 
L 138.311688 157.5 
z
" style="fill:#348abd;opacity:0.2;"/>
   </g>
   <g id="patch_11">
    <path clip-path="url(#pc3e6f3c95d)" d="M 141.331169 157.5 
L 143.746753 157.5 
L 143.746753 156.43537 
L 141.331169 156.43537 
z
" style="fill:#348abd;opacity:0.2;"/>
   </g>
   <g id="patch_12">
    <path clip-path="url(#pc3e6f3c95d)" d="M 144.350649 157.5 
L 146.766234 157.5 
L 146.766234 157.34791 
L 144.350649 157.34791 
z
" style="fill:#348abd;opacity:0.2;"/>
   </g>
   <g id="patch_13">
    <path clip-path="url(#pc3e6f3c95d)" d="M 147.37013 157.5 
L 149.785714 157.5 
L 149.785714 157.04373 
L 147.37013 157.04373 
z
" style="fill:#348abd;opacity:0.2;"/>
   </g>
   <g id="patch_14">
    <path clip-path="url(#pc3e6f3c95d)" d="M 150.38961 157.5 
L 152.805195 157.5 
L 152.805195 157.5 
L 150.38961 157.5 
z
" style="fill:#348abd;opacity:0.2;"/>
   </g>
   <g id="patch_15">
    <path clip-path="url(#pc3e6f3c95d)" d="M 153.409091 157.5 
L 155.824675 157.5 
L 155.824675 157.34791 
L 153.409091 157.34791 
z
" style="fill:#348abd;opacity:0.2;"/>
   </g>
   <g id="patch_16">
    <path clip-path="url(#pc3e6f3c95d)" d="M 156.428571 157.5 
L 158.844156 157.5 
L 158.844156 157.04373 
L 156.428571 157.04373 
z
" style="fill:#348abd;opacity:0.2;"/>
   </g>
   <g id="patch_17">
    <path clip-path="url(#pc3e6f3c95d)" d="M 159.448052 157.5 
L 161.863636 157.5 
L 161.863636 156.89164 
L 159.448052 156.89164 
z
" style="fill:#348abd;opacity:0.2;"/>
   </g>
   <g id="patch_18">
    <path clip-path="url(#pc3e6f3c95d)" d="M 162.467532 157.5 
L 164.883117 157.5 
L 164.883117 157.34791 
L 162.467532 157.34791 
z
" style="fill:#348abd;opacity:0.2;"/>
   </g>
   <g id="patch_19">
    <path clip-path="url(#pc3e6f3c95d)" d="M 165.487013 157.5 
L 167.902597 157.5 
L 167.902597 157.5 
L 165.487013 157.5 
z
" style="fill:#348abd;opacity:0.2;"/>
   </g>
   <g id="patch_20">
    <path clip-path="url(#pc3e6f3c95d)" d="M 168.506494 157.5 
L 170.922078 157.5 
L 170.922078 157.34791 
L 168.506494 157.34791 
z
" style="fill:#348abd;opacity:0.2;"/>
   </g>
   <g id="patch_21">
    <path clip-path="url(#pc3e6f3c95d)" d="M 171.525974 157.5 
L 173.941558 157.5 
L 173.941558 157.19582 
L 171.525974 157.19582 
z
" style="fill:#348abd;opacity:0.2;"/>
   </g>
   <g id="patch_22">
    <path clip-path="url(#pc3e6f3c95d)" d="M 174.545455 157.5 
L 176.961039 157.5 
L 176.961039 157.34791 
L 174.545455 157.34791 
z
" style="fill:#348abd;opacity:0.2;"/>
   </g>
   <g id="patch_23">
    <path clip-path="url(#pc3e6f3c95d)" d="M 177.564935 157.5 
L 179.980519 157.5 
L 179.980519 157.5 
L 177.564935 157.5 
z
" style="fill:#348abd;opacity:0.2;"/>
   </g>
   <g id="patch_24">
    <path clip-path="url(#pc3e6f3c95d)" d="M 180.584416 157.5 
L 183 157.5 
L 183 157.5 
L 180.584416 157.5 
z
" style="fill:#348abd;opacity:0.2;"/>
   </g>
   <g id="patch_25">
    <path clip-path="url(#pc3e6f3c95d)" d="M 183.603896 157.5 
L 186.019481 157.5 
L 186.019481 157.5 
L 183.603896 157.5 
z
" style="fill:#348abd;opacity:0.2;"/>
   </g>
   <g id="patch_26">
    <path clip-path="url(#pc3e6f3c95d)" d="M 186.623377 157.5 
L 189.038961 157.5 
L 189.038961 157.5 
L 186.623377 157.5 
z
" style="fill:#348abd;opacity:0.2;"/>
   </g>
   <g id="patch_27">
    <path clip-path="url(#pc3e6f3c95d)" d="M 189.642857 157.5 
L 192.058442 157.5 
L 192.058442 157.34791 
L 189.642857 157.34791 
z
" style="fill:#348abd;opacity:0.2;"/>
   </g>
   <g id="patch_28">
    <path clip-path="url(#pc3e6f3c95d)" d="M 192.662338 157.5 
L 195.077922 157.5 
L 195.077922 157.34791 
L 192.662338 157.34791 
z
" style="fill:#348abd;opacity:0.2;"/>
   </g>
   <g id="patch_29">
    <path clip-path="url(#pc3e6f3c95d)" d="M 195.681818 157.5 
L 198.097403 157.5 
L 198.097403 157.34791 
L 195.681818 157.34791 
z
" style="fill:#348abd;opacity:0.2;"/>
   </g>
   <g id="patch_30">
    <path clip-path="url(#pc3e6f3c95d)" d="M 198.701299 157.5 
L 201.116883 157.5 
L 201.116883 157.5 
L 198.701299 157.5 
z
" style="fill:#348abd;opacity:0.2;"/>
   </g>
   <g id="patch_31">
    <path clip-path="url(#pc3e6f3c95d)" d="M 201.720779 157.5 
L 204.136364 157.5 
L 204.136364 146.397432 
L 201.720779 146.397432 
z
" style="fill:#348abd;opacity:0.2;"/>
   </g>
   <g id="patch_32">
    <path clip-path="url(#pc3e6f3c95d)" d="M 204.74026 157.5 
L 207.155844 157.5 
L 207.155844 142.291002 
L 204.74026 142.291002 
z
" style="fill:#348abd;opacity:0.2;"/>
   </g>
   <g id="patch_33">
    <path clip-path="url(#pc3e6f3c95d)" d="M 207.75974 157.5 
L 210.175325 157.5 
L 210.175325 122.671395 
L 207.75974 122.671395 
z
" style="fill:#348abd;opacity:0.2;"/>
   </g>
   <g id="patch_34">
    <path clip-path="url(#pc3e6f3c95d)" d="M 210.779221 157.5 
L 213.194805 157.5 
L 213.194805 131.796794 
L 210.779221 131.796794 
z
" style="fill:#348abd;opacity:0.2;"/>
   </g>
   <g id="patch_35">
    <path clip-path="url(#pc3e6f3c95d)" d="M 213.798701 157.5 
L 216.214286 157.5 
L 216.214286 122.367215 
L 213.798701 122.367215 
z
" style="fill:#348abd;opacity:0.2;"/>
   </g>
   <g id="patch_36">
    <path clip-path="url(#pc3e6f3c95d)" d="M 216.818182 157.5 
L 219.233766 157.5 
L 219.233766 135.599043 
L 216.818182 135.599043 
z
" style="fill:#348abd;opacity:0.2;"/>
   </g>
   <g id="patch_37">
    <path clip-path="url(#pc3e6f3c95d)" d="M 219.837662 157.5 
L 222.253247 157.5 
L 222.253247 114.306446 
L 219.837662 114.306446 
z
" style="fill:#348abd;opacity:0.2;"/>
   </g>
   <g id="patch_38">
    <path clip-path="url(#pc3e6f3c95d)" d="M 222.857143 157.5 
L 225.272727 157.5 
L 225.272727 80.694561 
L 222.857143 80.694561 
z
" style="fill:#348abd;opacity:0.2;"/>
   </g>
   <g id="patch_39">
    <path clip-path="url(#pc3e6f3c95d)" d="M 225.876623 157.5 
L 228.292208 157.5 
L 228.292208 70.656622 
L 225.876623 70.656622 
z
" style="fill:#348abd;opacity:0.2;"/>
   </g>
   <g id="patch_40">
    <path clip-path="url(#pc3e6f3c95d)" d="M 228.896104 157.5 
L 231.311688 157.5 
L 231.311688 33.850848 
L 228.896104 33.850848 
z
" style="fill:#348abd;opacity:0.2;"/>
   </g>
   <g id="patch_41">
    <path clip-path="url(#pc3e6f3c95d)" d="M 231.915584 157.5 
L 234.331169 157.5 
L 234.331169 68.375273 
L 231.915584 68.375273 
z
" style="fill:#348abd;opacity:0.2;"/>
   </g>
   <g id="patch_42">
    <path clip-path="url(#pc3e6f3c95d)" d="M 234.935065 157.5 
L 237.350649 157.5 
L 237.350649 66.398103 
L 234.935065 66.398103 
z
" style="fill:#348abd;opacity:0.2;"/>
   </g>
   <g id="patch_43">
    <path clip-path="url(#pc3e6f3c95d)" d="M 237.954545 157.5 
L 240.37013 157.5 
L 240.37013 28.071429 
L 237.954545 28.071429 
z
" style="fill:#348abd;opacity:0.2;"/>
   </g>
   <g id="patch_44">
    <path clip-path="url(#pc3e6f3c95d)" d="M 240.974026 157.5 
L 243.38961 157.5 
L 243.38961 91.340859 
L 240.974026 91.340859 
z
" style="fill:#348abd;opacity:0.2;"/>
   </g>
   <g id="patch_45">
    <path clip-path="url(#pc3e6f3c95d)" d="M 243.993506 157.5 
L 246.409091 157.5 
L 246.409091 86.47398 
L 243.993506 86.47398 
z
" style="fill:#348abd;opacity:0.2;"/>
   </g>
   <g id="patch_46">
    <path clip-path="url(#pc3e6f3c95d)" d="M 247.012987 157.5 
L 249.428571 157.5 
L 249.428571 80.694561 
L 247.012987 80.694561 
z
" style="fill:#348abd;opacity:0.2;"/>
   </g>
   <g id="patch_47">
    <path clip-path="url(#pc3e6f3c95d)" d="M 250.032468 157.5 
L 252.448052 157.5 
L 252.448052 89.36369 
L 250.032468 89.36369 
z
" style="fill:#348abd;opacity:0.2;"/>
   </g>
   <g id="patch_48">
    <path clip-path="url(#pc3e6f3c95d)" d="M 253.051948 157.5 
L 255.467532 157.5 
L 255.467532 115.979436 
L 253.051948 115.979436 
z
" style="fill:#348abd;opacity:0.2;"/>
   </g>
   <g id="patch_49">
    <path clip-path="url(#pc3e6f3c95d)" d="M 256.071429 157.5 
L 258.487013 157.5 
L 258.487013 132.557244 
L 256.071429 132.557244 
z
" style="fill:#348abd;opacity:0.2;"/>
   </g>
   <g id="patch_50">
    <path clip-path="url(#pc3e6f3c95d)" d="M 259.090909 157.5 
L 261.506494 157.5 
L 261.506494 152.176851 
L 259.090909 152.176851 
z
" style="fill:#348abd;opacity:0.2;"/>
   </g>
   <g id="patch_51">
    <path clip-path="url(#pc3e6f3c95d)" d="M 262.11039 157.5 
L 264.525974 157.5 
L 264.525974 120.694225 
L 262.11039 120.694225 
z
" style="fill:#348abd;opacity:0.2;"/>
   </g>
   <g id="patch_52">
    <path clip-path="url(#pc3e6f3c95d)" d="M 265.12987 157.5 
L 267.545455 157.5 
L 267.545455 140.161742 
L 265.12987 140.161742 
z
" style="fill:#348abd;opacity:0.2;"/>
   </g>
   <g id="patch_53">
    <path clip-path="url(#pc3e6f3c95d)" d="M 268.149351 157.5 
L 270.564935 157.5 
L 270.564935 140.770102 
L 268.149351 140.770102 
z
" style="fill:#348abd;opacity:0.2;"/>
   </g>
   <g id="patch_54">
    <path clip-path="url(#pc3e6f3c95d)" d="M 271.168831 157.5 
L 273.584416 157.5 
L 273.584416 141.226372 
L 271.168831 141.226372 
z
" style="fill:#348abd;opacity:0.2;"/>
   </g>
   <g id="patch_55">
    <path clip-path="url(#pc3e6f3c95d)" d="M 274.188312 157.5 
L 276.603896 157.5 
L 276.603896 145.941162 
L 274.188312 145.941162 
z
" style="fill:#348abd;opacity:0.2;"/>
   </g>
   <g id="patch_56">
    <path clip-path="url(#pc3e6f3c95d)" d="M 277.207792 157.5 
L 279.623377 157.5 
L 279.623377 146.245342 
L 277.207792 146.245342 
z
" style="fill:#348abd;opacity:0.2;"/>
   </g>
   <g id="patch_57">
    <path clip-path="url(#pc3e6f3c95d)" d="M 280.227273 157.5 
L 282.642857 157.5 
L 282.642857 144.724442 
L 280.227273 144.724442 
z
" style="fill:#348abd;opacity:0.2;"/>
   </g>
   <g id="patch_58">
    <path clip-path="url(#pc3e6f3c95d)" d="M 283.246753 157.5 
L 285.662338 157.5 
L 285.662338 143.355632 
L 283.246753 143.355632 
z
" style="fill:#348abd;opacity:0.2;"/>
   </g>
   <g id="patch_59">
    <path clip-path="url(#pc3e6f3c95d)" d="M 286.266234 157.5 
L 288.681818 157.5 
L 288.681818 134.382323 
L 286.266234 134.382323 
z
" style="fill:#348abd;opacity:0.2;"/>
   </g>
   <g id="patch_60">
    <path clip-path="url(#pc3e6f3c95d)" d="M 289.285714 157.5 
L 291.701299 157.5 
L 291.701299 144.268172 
L 289.285714 144.268172 
z
" style="fill:#348abd;opacity:0.2;"/>
   </g>
   <g id="patch_61">
    <path clip-path="url(#pc3e6f3c95d)" d="M 292.305195 157.5 
L 294.720779 157.5 
L 294.720779 135.142773 
L 292.305195 135.142773 
z
" style="fill:#348abd;opacity:0.2;"/>
   </g>
   <g id="patch_62">
    <path clip-path="url(#pc3e6f3c95d)" d="M 295.324675 157.5 
L 297.74026 157.5 
L 297.74026 132.861424 
L 295.324675 132.861424 
z
" style="fill:#348abd;opacity:0.2;"/>
   </g>
   <g id="patch_63">
    <path clip-path="url(#pc3e6f3c95d)" d="M 298.344156 157.5 
L 300.75974 157.5 
L 300.75974 157.5 
L 298.344156 157.5 
z
" style="fill:#348abd;opacity:0.2;"/>
   </g>
   <g id="patch_64">
    <path clip-path="url(#pc3e6f3c95d)" d="M 301.363636 157.5 
L 303.779221 157.5 
L 303.779221 145.941162 
L 301.363636 145.941162 
z
" style="fill:#348abd;opacity:0.2;"/>
   </g>
   <g id="patch_65">
    <path clip-path="url(#pc3e6f3c95d)" d="M 304.383117 157.5 
L 306.798701 157.5 
L 306.798701 142.291002 
L 304.383117 142.291002 
z
" style="fill:#348abd;opacity:0.2;"/>
   </g>
   <g id="patch_66">
    <path clip-path="url(#pc3e6f3c95d)" d="M 307.402597 157.5 
L 309.818182 157.5 
L 309.818182 141.682642 
L 307.402597 141.682642 
z
" style="fill:#348abd;opacity:0.2;"/>
   </g>
   <g id="patch_67">
    <path clip-path="url(#pc3e6f3c95d)" d="M 310.422078 157.5 
L 312.837662 157.5 
L 312.837662 143.659812 
L 310.422078 143.659812 
z
" style="fill:#348abd;opacity:0.2;"/>
   </g>
   <g id="patch_68">
    <path clip-path="url(#pc3e6f3c95d)" d="M 313.441558 157.5 
L 315.857143 157.5 
L 315.857143 135.294863 
L 313.441558 135.294863 
z
" style="fill:#348abd;opacity:0.2;"/>
   </g>
   <g id="patch_69">
    <path clip-path="url(#pc3e6f3c95d)" d="M 316.461039 157.5 
L 318.876623 157.5 
L 318.876623 141.530552 
L 316.461039 141.530552 
z
" style="fill:#348abd;opacity:0.2;"/>
   </g>
   <g id="patch_70">
    <path clip-path="url(#pc3e6f3c95d)" d="M 319.480519 157.5 
L 321.896104 157.5 
L 321.896104 145.636982 
L 319.480519 145.636982 
z
" style="fill:#348abd;opacity:0.2;"/>
   </g>
   <g id="patch_71">
    <path clip-path="url(#pc3e6f3c95d)" d="M 322.5 157.5 
L 324.915584 157.5 
L 324.915584 138.488753 
L 322.5 138.488753 
z
" style="fill:#348abd;opacity:0.2;"/>
   </g>
   <g id="patch_72">
    <path clip-path="url(#pc3e6f3c95d)" d="M 325.519481 157.5 
L 327.935065 157.5 
L 327.935065 142.138912 
L 325.519481 142.138912 
z
" style="fill:#348abd;opacity:0.2;"/>
   </g>
   <g id="patch_73">
    <path clip-path="url(#pc3e6f3c95d)" d="M 328.538961 157.5 
L 330.954545 157.5 
L 330.954545 143.963992 
L 328.538961 143.963992 
z
" style="fill:#348abd;opacity:0.2;"/>
   </g>
   <g id="patch_74">
    <path clip-path="url(#pc3e6f3c95d)" d="M 331.558442 157.5 
L 333.974026 157.5 
L 333.974026 144.420262 
L 331.558442 144.420262 
z
" style="fill:#348abd;opacity:0.2;"/>
   </g>
   <g id="patch_75">
    <path clip-path="url(#pc3e6f3c95d)" d="M 334.577922 157.5 
L 336.993506 157.5 
L 336.993506 143.203542 
L 334.577922 143.203542 
z
" style="fill:#348abd;opacity:0.2;"/>
   </g>
   <g id="patch_76">
    <path clip-path="url(#pc3e6f3c95d)" d="M 337.597403 157.5 
L 340.012987 157.5 
L 340.012987 145.180712 
L 337.597403 145.180712 
z
" style="fill:#348abd;opacity:0.2;"/>
   </g>
   <g id="patch_77">
    <path clip-path="url(#pc3e6f3c95d)" d="M 340.616883 157.5 
L 343.032468 157.5 
L 343.032468 150.351771 
L 340.616883 150.351771 
z
" style="fill:#348abd;opacity:0.2;"/>
   </g>
   <g id="patch_78">
    <path clip-path="url(#pc3e6f3c95d)" d="M 343.636364 157.5 
L 346.051948 157.5 
L 346.051948 150.351771 
L 343.636364 150.351771 
z
" style="fill:#348abd;opacity:0.2;"/>
   </g>
   <g id="patch_79">
    <path clip-path="url(#pc3e6f3c95d)" d="M 346.655844 157.5 
L 349.071429 157.5 
L 349.071429 149.439231 
L 346.655844 149.439231 
z
" style="fill:#348abd;opacity:0.2;"/>
   </g>
   <g id="patch_80">
    <path clip-path="url(#pc3e6f3c95d)" d="M 349.675325 157.5 
L 352.090909 157.5 
L 352.090909 151.568491 
L 349.675325 151.568491 
z
" style="fill:#348abd;opacity:0.2;"/>
   </g>
   <g id="patch_81">
    <path clip-path="url(#pc3e6f3c95d)" d="M 352.694805 157.5 
L 355.11039 157.5 
L 355.11039 153.393571 
L 352.694805 153.393571 
z
" style="fill:#348abd;opacity:0.2;"/>
   </g>
   <g id="patch_82">
    <path clip-path="url(#pc3e6f3c95d)" d="M 355.714286 157.5 
L 358.12987 157.5 
L 358.12987 152.937301 
L 355.714286 152.937301 
z
" style="fill:#348abd;opacity:0.2;"/>
   </g>
   <g id="patch_83">
    <path clip-path="url(#pc3e6f3c95d)" d="M 358.733766 157.5 
L 361.149351 157.5 
L 361.149351 152.633121 
L 358.733766 152.633121 
z
" style="fill:#348abd;opacity:0.2;"/>
   </g>
   <g id="patch_84">
    <path clip-path="url(#pc3e6f3c95d)" d="M 361.753247 157.5 
L 364.168831 157.5 
L 364.168831 153.697751 
L 361.753247 153.697751 
z
" style="fill:#348abd;opacity:0.2;"/>
   </g>
   <g id="patch_85">
    <path clip-path="url(#pc3e6f3c95d)" d="M 364.772727 157.5 
L 367.188312 157.5 
L 367.188312 153.393571 
L 364.772727 153.393571 
z
" style="fill:#348abd;opacity:0.2;"/>
   </g>
   <g id="patch_86">
    <path clip-path="url(#pc3e6f3c95d)" d="M 367.792208 157.5 
L 370.207792 157.5 
L 370.207792 153.393571 
L 367.792208 153.393571 
z
" style="fill:#348abd;opacity:0.2;"/>
   </g>
   <g id="patch_87">
    <path clip-path="url(#pc3e6f3c95d)" d="M 370.811688 157.5 
L 373.227273 157.5 
L 373.227273 154.15402 
L 370.811688 154.15402 
z
" style="fill:#348abd;opacity:0.2;"/>
   </g>
   <g id="patch_88">
    <path clip-path="url(#pc3e6f3c95d)" d="M 373.831169 157.5 
L 376.246753 157.5 
L 376.246753 154.15402 
L 373.831169 154.15402 
z
" style="fill:#348abd;opacity:0.2;"/>
   </g>
   <g id="patch_89">
    <path clip-path="url(#pc3e6f3c95d)" d="M 376.850649 157.5 
L 379.266234 157.5 
L 379.266234 154.76238 
L 376.850649 154.76238 
z
" style="fill:#348abd;opacity:0.2;"/>
   </g>
   <g id="patch_90">
    <path clip-path="url(#pc3e6f3c95d)" d="M 379.87013 157.5 
L 382.285714 157.5 
L 382.285714 156.28328 
L 379.87013 156.28328 
z
" style="fill:#348abd;opacity:0.2;"/>
   </g>
   <g id="patch_91">
    <path clip-path="url(#pc3e6f3c95d)" d="M 382.88961 157.5 
L 385.305195 157.5 
L 385.305195 155.52283 
L 382.88961 155.52283 
z
" style="fill:#348abd;opacity:0.2;"/>
   </g>
   <g id="patch_92">
    <path clip-path="url(#pc3e6f3c95d)" d="M 385.909091 157.5 
L 388.324675 157.5 
L 388.324675 156.13119 
L 385.909091 156.13119 
z
" style="fill:#348abd;opacity:0.2;"/>
   </g>
   <g id="patch_93">
    <path clip-path="url(#pc3e6f3c95d)" d="M 388.928571 157.5 
L 391.344156 157.5 
L 391.344156 155.82701 
L 388.928571 155.82701 
z
" style="fill:#348abd;opacity:0.2;"/>
   </g>
   <g id="patch_94">
    <path clip-path="url(#pc3e6f3c95d)" d="M 391.948052 157.5 
L 394.363636 157.5 
L 394.363636 155.37074 
L 391.948052 155.37074 
z
" style="fill:#348abd;opacity:0.2;"/>
   </g>
   <g id="patch_95">
    <path clip-path="url(#pc3e6f3c95d)" d="M 394.967532 157.5 
L 397.383117 157.5 
L 397.383117 155.9791 
L 394.967532 155.9791 
z
" style="fill:#348abd;opacity:0.2;"/>
   </g>
   <g id="patch_96">
    <path clip-path="url(#pc3e6f3c95d)" d="M 397.987013 157.5 
L 400.402597 157.5 
L 400.402597 155.9791 
L 397.987013 155.9791 
z
" style="fill:#348abd;opacity:0.2;"/>
   </g>
   <g id="patch_97">
    <path clip-path="url(#pc3e6f3c95d)" d="M 401.006494 157.5 
L 403.422078 157.5 
L 403.422078 155.9791 
L 401.006494 155.9791 
z
" style="fill:#348abd;opacity:0.2;"/>
   </g>
   <g id="patch_98">
    <path clip-path="url(#pc3e6f3c95d)" d="M 404.025974 157.5 
L 406.441558 157.5 
L 406.441558 155.37074 
L 404.025974 155.37074 
z
" style="fill:#348abd;opacity:0.2;"/>
   </g>
   <g id="patch_99">
    <path clip-path="url(#pc3e6f3c95d)" d="M 407.045455 157.5 
L 409.461039 157.5 
L 409.461039 156.13119 
L 407.045455 156.13119 
z
" style="fill:#348abd;opacity:0.2;"/>
   </g>
   <g id="patch_100">
    <path clip-path="url(#pc3e6f3c95d)" d="M 410.064935 157.5 
L 412.480519 157.5 
L 412.480519 156.89164 
L 410.064935 156.89164 
z
" style="fill:#348abd;opacity:0.2;"/>
   </g>
   <g id="patch_101">
    <path clip-path="url(#pc3e6f3c95d)" d="M 413.084416 157.5 
L 415.5 157.5 
L 415.5 156.13119 
L 413.084416 156.13119 
z
" style="fill:#348abd;opacity:0.2;"/>
   </g>
   <g id="patch_102">
    <path clip-path="url(#pc3e6f3c95d)" d="M 416.103896 157.5 
L 418.519481 157.5 
L 418.519481 156.58746 
L 416.103896 156.58746 
z
" style="fill:#348abd;opacity:0.2;"/>
   </g>
   <g id="patch_103">
    <path clip-path="url(#pc3e6f3c95d)" d="M 419.123377 157.5 
L 421.538961 157.5 
L 421.538961 155.52283 
L 419.123377 155.52283 
z
" style="fill:#348abd;opacity:0.2;"/>
   </g>
   <g id="patch_104">
    <path clip-path="url(#pc3e6f3c95d)" d="M 422.142857 157.5 
L 424.558442 157.5 
L 424.558442 156.28328 
L 422.142857 156.28328 
z
" style="fill:#348abd;opacity:0.2;"/>
   </g>
   <g id="patch_105">
    <path clip-path="url(#pc3e6f3c95d)" d="M 425.162338 157.5 
L 427.577922 157.5 
L 427.577922 157.04373 
L 425.162338 157.04373 
z
" style="fill:#348abd;opacity:0.2;"/>
   </g>
   <g id="patch_106">
    <path clip-path="url(#pc3e6f3c95d)" d="M 428.181818 157.5 
L 430.597403 157.5 
L 430.597403 157.19582 
L 428.181818 157.19582 
z
" style="fill:#348abd;opacity:0.2;"/>
   </g>
   <g id="patch_107">
    <path clip-path="url(#pc3e6f3c95d)" d="M 431.201299 157.5 
L 433.616883 157.5 
L 433.616883 156.89164 
L 431.201299 156.89164 
z
" style="fill:#348abd;opacity:0.2;"/>
   </g>
   <g id="patch_108">
    <path clip-path="url(#pc3e6f3c95d)" d="M 434.220779 157.5 
L 436.636364 157.5 
L 436.636364 155.67492 
L 434.220779 155.67492 
z
" style="fill:#348abd;opacity:0.2;"/>
   </g>
   <g id="patch_109">
    <path clip-path="url(#pc3e6f3c95d)" d="M 437.24026 157.5 
L 439.655844 157.5 
L 439.655844 154.76238 
L 437.24026 154.76238 
z
" style="fill:#348abd;opacity:0.2;"/>
   </g>
   <g id="patch_110">
    <path clip-path="url(#pc3e6f3c95d)" d="M 440.25974 157.5 
L 442.675325 157.5 
L 442.675325 152.328941 
L 440.25974 152.328941 
z
" style="fill:#348abd;opacity:0.2;"/>
   </g>
   <g id="patch_111">
    <path clip-path="url(#pc3e6f3c95d)" d="M 443.279221 157.5 
L 445.694805 157.5 
L 445.694805 152.176851 
L 443.279221 152.176851 
z
" style="fill:#348abd;opacity:0.2;"/>
   </g>
   <g id="patch_112">
    <path clip-path="url(#pc3e6f3c95d)" d="M 446.298701 157.5 
L 448.714286 157.5 
L 448.714286 153.393571 
L 446.298701 153.393571 
z
" style="fill:#348abd;opacity:0.2;"/>
   </g>
   <g id="patch_113">
    <path clip-path="url(#pc3e6f3c95d)" d="M 449.318182 157.5 
L 451.733766 157.5 
L 451.733766 153.545661 
L 449.318182 153.545661 
z
" style="fill:#348abd;opacity:0.2;"/>
   </g>
   <g id="patch_114">
    <path clip-path="url(#pc3e6f3c95d)" d="M 452.337662 157.5 
L 454.753247 157.5 
L 454.753247 153.089391 
L 452.337662 153.089391 
z
" style="fill:#348abd;opacity:0.2;"/>
   </g>
   <g id="patch_115">
    <path clip-path="url(#pc3e6f3c95d)" d="M 455.357143 157.5 
L 457.772727 157.5 
L 457.772727 153.393571 
L 455.357143 153.393571 
z
" style="fill:#348abd;opacity:0.2;"/>
   </g>
   <g id="patch_116">
    <path clip-path="url(#pc3e6f3c95d)" d="M 458.376623 157.5 
L 460.792208 157.5 
L 460.792208 154.61029 
L 458.376623 154.61029 
z
" style="fill:#348abd;opacity:0.2;"/>
   </g>
   <g id="patch_117">
    <path clip-path="url(#pc3e6f3c95d)" d="M 461.396104 157.5 
L 463.811688 157.5 
L 463.811688 155.52283 
L 461.396104 155.52283 
z
" style="fill:#348abd;opacity:0.2;"/>
   </g>
   <g id="patch_118">
    <path clip-path="url(#pc3e6f3c95d)" d="M 464.415584 157.5 
L 466.831169 157.5 
L 466.831169 155.21865 
L 464.415584 155.21865 
z
" style="fill:#348abd;opacity:0.2;"/>
   </g>
   <g id="patch_119">
    <path clip-path="url(#pc3e6f3c95d)" d="M 467.435065 157.5 
L 469.850649 157.5 
L 469.850649 155.52283 
L 467.435065 155.52283 
z
" style="fill:#348abd;opacity:0.2;"/>
   </g>
   <g id="patch_120">
    <path clip-path="url(#pc3e6f3c95d)" d="M 470.454545 157.5 
L 472.87013 157.5 
L 472.87013 152.633121 
L 470.454545 152.633121 
z
" style="fill:#348abd;opacity:0.2;"/>
   </g>
   <g id="patch_121">
    <path clip-path="url(#pc3e6f3c95d)" d="M 473.474026 157.5 
L 475.88961 157.5 
L 475.88961 155.67492 
L 473.474026 155.67492 
z
" style="fill:#348abd;opacity:0.2;"/>
   </g>
   <g id="patch_122">
    <path clip-path="url(#pc3e6f3c95d)" d="M 476.493506 157.5 
L 478.909091 157.5 
L 478.909091 154.4582 
L 476.493506 154.4582 
z
" style="fill:#348abd;opacity:0.2;"/>
   </g>
   <g id="patch_123">
    <path clip-path="url(#pc3e6f3c95d)" d="M 479.512987 157.5 
L 481.928571 157.5 
L 481.928571 154.001931 
L 479.512987 154.001931 
z
" style="fill:#348abd;opacity:0.2;"/>
   </g>
   <g id="patch_124">
    <path clip-path="url(#pc3e6f3c95d)" d="M 482.532468 157.5 
L 484.948052 157.5 
L 484.948052 153.697751 
L 482.532468 153.697751 
z
" style="fill:#348abd;opacity:0.2;"/>
   </g>
   <g id="patch_125">
    <path clip-path="url(#pc3e6f3c95d)" d="M 485.551948 157.5 
L 487.967532 157.5 
L 487.967532 155.06656 
L 485.551948 155.06656 
z
" style="fill:#348abd;opacity:0.2;"/>
   </g>
   <g id="patch_126">
    <path clip-path="url(#pc3e6f3c95d)" d="M 488.571429 157.5 
L 490.987013 157.5 
L 490.987013 154.61029 
L 488.571429 154.61029 
z
" style="fill:#348abd;opacity:0.2;"/>
   </g>
   <g id="patch_127">
    <path clip-path="url(#pc3e6f3c95d)" d="M 491.590909 157.5 
L 494.006494 157.5 
L 494.006494 151.416401 
L 491.590909 151.416401 
z
" style="fill:#348abd;opacity:0.2;"/>
   </g>
   <g id="patch_128">
    <path clip-path="url(#pc3e6f3c95d)" d="M 494.61039 157.5 
L 497.025974 157.5 
L 497.025974 145.484892 
L 494.61039 145.484892 
z
" style="fill:#348abd;opacity:0.2;"/>
   </g>
   <g id="patch_129">
    <path clip-path="url(#pc3e6f3c95d)" d="M 497.62987 157.5 
L 500.045455 157.5 
L 500.045455 148.678781 
L 497.62987 148.678781 
z
" style="fill:#348abd;opacity:0.2;"/>
   </g>
   <g id="patch_130">
    <path clip-path="url(#pc3e6f3c95d)" d="M 500.649351 157.5 
L 503.064935 157.5 
L 503.064935 151.568491 
L 500.649351 151.568491 
z
" style="fill:#348abd;opacity:0.2;"/>
   </g>
   <g id="patch_131">
    <path clip-path="url(#pc3e6f3c95d)" d="M 503.668831 157.5 
L 506.084416 157.5 
L 506.084416 153.393571 
L 503.668831 153.393571 
z
" style="fill:#348abd;opacity:0.2;"/>
   </g>
   <g id="patch_132">
    <path clip-path="url(#pc3e6f3c95d)" d="M 506.688312 157.5 
L 509.103896 157.5 
L 509.103896 152.176851 
L 506.688312 152.176851 
z
" style="fill:#348abd;opacity:0.2;"/>
   </g>
   <g id="patch_133">
    <path clip-path="url(#pc3e6f3c95d)" d="M 509.707792 157.5 
L 512.123377 157.5 
L 512.123377 151.720581 
L 509.707792 151.720581 
z
" style="fill:#348abd;opacity:0.2;"/>
   </g>
   <g id="patch_134">
    <path clip-path="url(#pc3e6f3c95d)" d="M 512.727273 157.5 
L 515.142857 157.5 
L 515.142857 150.047591 
L 512.727273 150.047591 
z
" style="fill:#348abd;opacity:0.2;"/>
   </g>
   <g id="patch_135">
    <path clip-path="url(#pc3e6f3c95d)" d="M 515.746753 157.5 
L 518.162338 157.5 
L 518.162338 151.568491 
L 515.746753 151.568491 
z
" style="fill:#348abd;opacity:0.2;"/>
   </g>
   <g id="patch_136">
    <path clip-path="url(#pc3e6f3c95d)" d="M 518.766234 157.5 
L 521.181818 157.5 
L 521.181818 151.568491 
L 518.766234 151.568491 
z
" style="fill:#348abd;opacity:0.2;"/>
   </g>
   <g id="patch_137">
    <path clip-path="url(#pc3e6f3c95d)" d="M 521.785714 157.5 
L 524.201299 157.5 
L 524.201299 149.743411 
L 521.785714 149.743411 
z
" style="fill:#348abd;opacity:0.2;"/>
   </g>
   <g id="patch_138">
    <path clip-path="url(#pc3e6f3c95d)" d="M 524.805195 157.5 
L 527.220779 157.5 
L 527.220779 148.830871 
L 524.805195 148.830871 
z
" style="fill:#348abd;opacity:0.2;"/>
   </g>
   <g id="patch_139">
    <path clip-path="url(#pc3e6f3c95d)" d="M 527.824675 157.5 
L 530.24026 157.5 
L 530.24026 151.720581 
L 527.824675 151.720581 
z
" style="fill:#348abd;opacity:0.2;"/>
   </g>
   <g id="patch_140">
    <path clip-path="url(#pc3e6f3c95d)" d="M 530.844156 157.5 
L 533.25974 157.5 
L 533.25974 151.720581 
L 530.844156 151.720581 
z
" style="fill:#348abd;opacity:0.2;"/>
   </g>
   <g id="patch_141">
    <path clip-path="url(#pc3e6f3c95d)" d="M 533.863636 157.5 
L 536.279221 157.5 
L 536.279221 149.895501 
L 533.863636 149.895501 
z
" style="fill:#348abd;opacity:0.2;"/>
   </g>
   <g id="patch_142">
    <path clip-path="url(#pc3e6f3c95d)" d="M 536.883117 157.5 
L 539.298701 157.5 
L 539.298701 150.655951 
L 536.883117 150.655951 
z
" style="fill:#348abd;opacity:0.2;"/>
   </g>
   <g id="patch_143">
    <path clip-path="url(#pc3e6f3c95d)" d="M 539.902597 157.5 
L 542.318182 157.5 
L 542.318182 148.982961 
L 539.902597 148.982961 
z
" style="fill:#348abd;opacity:0.2;"/>
   </g>
   <g id="patch_144">
    <path clip-path="url(#pc3e6f3c95d)" d="M 542.922078 157.5 
L 545.337662 157.5 
L 545.337662 150.199681 
L 542.922078 150.199681 
z
" style="fill:#348abd;opacity:0.2;"/>
   </g>
   <g id="patch_145">
    <path clip-path="url(#pc3e6f3c95d)" d="M 545.941558 157.5 
L 548.357143 157.5 
L 548.357143 152.328941 
L 545.941558 152.328941 
z
" style="fill:#348abd;opacity:0.2;"/>
   </g>
   <g id="patch_146">
    <path clip-path="url(#pc3e6f3c95d)" d="M 548.961039 157.5 
L 551.376623 157.5 
L 551.376623 152.024761 
L 548.961039 152.024761 
z
" style="fill:#348abd;opacity:0.2;"/>
   </g>
   <g id="patch_147">
    <path clip-path="url(#pc3e6f3c95d)" d="M 551.980519 157.5 
L 554.396104 157.5 
L 554.396104 152.328941 
L 551.980519 152.328941 
z
" style="fill:#348abd;opacity:0.2;"/>
   </g>
   <g id="patch_148">
    <path clip-path="url(#pc3e6f3c95d)" d="M 555 157.5 
L 557.415584 157.5 
L 557.415584 150.960131 
L 555 150.960131 
z
" style="fill:#348abd;opacity:0.2;"/>
   </g>
   <g id="patch_149">
    <path clip-path="url(#pc3e6f3c95d)" d="M 558.019481 157.5 
L 560.435065 157.5 
L 560.435065 148.526691 
L 558.019481 148.526691 
z
" style="fill:#348abd;opacity:0.2;"/>
   </g>
   <g id="patch_150">
    <path clip-path="url(#pc3e6f3c95d)" d="M 561.038961 157.5 
L 563.454545 157.5 
L 563.454545 150.047591 
L 561.038961 150.047591 
z
" style="fill:#348abd;opacity:0.2;"/>
   </g>
   <g id="patch_151">
    <path clip-path="url(#pc3e6f3c95d)" d="M 564.058442 157.5 
L 566.474026 157.5 
L 566.474026 147.309971 
L 564.058442 147.309971 
z
" style="fill:#348abd;opacity:0.2;"/>
   </g>
   <g id="patch_152">
    <path clip-path="url(#pc3e6f3c95d)" d="M 567.077922 157.5 
L 569.493506 157.5 
L 569.493506 150.199681 
L 567.077922 150.199681 
z
" style="fill:#348abd;opacity:0.2;"/>
   </g>
   <g id="patch_153">
    <path clip-path="url(#pc3e6f3c95d)" d="M 570.097403 157.5 
L 572.512987 157.5 
L 572.512987 154.91447 
L 570.097403 154.91447 
z
" style="fill:#348abd;opacity:0.2;"/>
   </g>
   <g id="patch_154">
    <path clip-path="url(#pc3e6f3c95d)" d="M 573.116883 157.5 
L 575.532468 157.5 
L 575.532468 150.503861 
L 573.116883 150.503861 
z
" style="fill:#348abd;opacity:0.2;"/>
   </g>
   <g id="patch_155">
    <path clip-path="url(#pc3e6f3c95d)" d="M 576.136364 157.5 
L 578.551948 157.5 
L 578.551948 149.743411 
L 576.136364 149.743411 
z
" style="fill:#348abd;opacity:0.2;"/>
   </g>
   <g id="patch_156">
    <path clip-path="url(#pc3e6f3c95d)" d="M 579.155844 157.5 
L 581.571429 157.5 
L 581.571429 153.241481 
L 579.155844 153.241481 
z
" style="fill:#348abd;opacity:0.2;"/>
   </g>
   <g id="patch_157">
    <path clip-path="url(#pc3e6f3c95d)" d="M 582.175325 157.5 
L 584.590909 157.5 
L 584.590909 151.568491 
L 582.175325 151.568491 
z
" style="fill:#348abd;opacity:0.2;"/>
   </g>
   <g id="patch_158">
    <path clip-path="url(#pc3e6f3c95d)" d="M 585.194805 157.5 
L 587.61039 157.5 
L 587.61039 149.743411 
L 585.194805 149.743411 
z
" style="fill:#348abd;opacity:0.2;"/>
   </g>
   <g id="patch_159">
    <path clip-path="url(#pc3e6f3c95d)" d="M 588.214286 157.5 
L 590.62987 157.5 
L 590.62987 148.070421 
L 588.214286 148.070421 
z
" style="fill:#348abd;opacity:0.2;"/>
   </g>
   <g id="patch_160">
    <path clip-path="url(#pc3e6f3c95d)" d="M 591.233766 157.5 
L 593.649351 157.5 
L 593.649351 151.112221 
L 591.233766 151.112221 
z
" style="fill:#348abd;opacity:0.2;"/>
   </g>
   <g id="patch_161">
    <path clip-path="url(#pc3e6f3c95d)" d="M 594.253247 157.5 
L 596.668831 157.5 
L 596.668831 150.960131 
L 594.253247 150.960131 
z
" style="fill:#348abd;opacity:0.2;"/>
   </g>
   <g id="patch_162">
    <path clip-path="url(#pc3e6f3c95d)" d="M 597.272727 157.5 
L 599.688312 157.5 
L 599.688312 149.895501 
L 597.272727 149.895501 
z
" style="fill:#348abd;opacity:0.2;"/>
   </g>
   <g id="patch_163">
    <path clip-path="url(#pc3e6f3c95d)" d="M 600.292208 157.5 
L 602.707792 157.5 
L 602.707792 149.287141 
L 600.292208 149.287141 
z
" style="fill:#348abd;opacity:0.2;"/>
   </g>
   <g id="patch_164">
    <path clip-path="url(#pc3e6f3c95d)" d="M 603.311688 157.5 
L 605.727273 157.5 
L 605.727273 147.918331 
L 603.311688 147.918331 
z
" style="fill:#348abd;opacity:0.2;"/>
   </g>
   <g id="patch_165">
    <path clip-path="url(#pc3e6f3c95d)" d="M 606.331169 157.5 
L 608.746753 157.5 
L 608.746753 147.918331 
L 606.331169 147.918331 
z
" style="fill:#348abd;opacity:0.2;"/>
   </g>
   <g id="patch_166">
    <path clip-path="url(#pc3e6f3c95d)" d="M 609.350649 157.5 
L 611.766234 157.5 
L 611.766234 148.222511 
L 609.350649 148.222511 
z
" style="fill:#348abd;opacity:0.2;"/>
   </g>
   <g id="patch_167">
    <path clip-path="url(#pc3e6f3c95d)" d="M 612.37013 157.5 
L 614.785714 157.5 
L 614.785714 150.503861 
L 612.37013 150.503861 
z
" style="fill:#348abd;opacity:0.2;"/>
   </g>
   <g id="patch_168">
    <path clip-path="url(#pc3e6f3c95d)" d="M 615.38961 157.5 
L 617.805195 157.5 
L 617.805195 150.808041 
L 615.38961 150.808041 
z
" style="fill:#348abd;opacity:0.2;"/>
   </g>
   <g id="patch_169">
    <path clip-path="url(#pc3e6f3c95d)" d="M 618.409091 157.5 
L 620.824675 157.5 
L 620.824675 147.918331 
L 618.409091 147.918331 
z
" style="fill:#348abd;opacity:0.2;"/>
   </g>
   <g id="patch_170">
    <path clip-path="url(#pc3e6f3c95d)" d="M 621.428571 157.5 
L 623.844156 157.5 
L 623.844156 150.047591 
L 621.428571 150.047591 
z
" style="fill:#348abd;opacity:0.2;"/>
   </g>
   <g id="line2d_28">
    <path clip-path="url(#pc3e6f3c95d)" d="M 118.383117 157.421369 
L 133.480519 157.359726 
L 151.597403 157.185659 
L 172.733766 157.336843 
L 184.811688 157.423917 
L 187.831169 157.276025 
L 190.850649 156.800635 
L 193.87013 155.591805 
L 196.88961 153.505335 
L 199.909091 150.472901 
L 202.928571 146.760383 
L 205.948052 142.588503 
L 208.967532 137.631279 
L 211.987013 131.705469 
L 215.006494 124.099967 
L 218.025974 115.079513 
L 221.045455 105.269355 
L 224.064935 94.63871 
L 227.084416 84.677838 
L 230.103896 75.992014 
L 233.123377 69.559052 
L 236.142857 66.69531 
L 239.162338 67.166161 
L 242.181818 71.290572 
L 245.201299 78.304356 
L 248.220779 86.981495 
L 254.25974 106.312511 
L 257.279221 115.098599 
L 260.298701 123.012212 
L 263.318182 129.40564 
L 266.337662 134.567936 
L 269.357143 138.250956 
L 272.376623 140.316567 
L 275.396104 141.522824 
L 278.415584 142.083911 
L 284.454545 142.059005 
L 287.474026 141.706161 
L 290.493506 141.53635 
L 293.512987 141.665777 
L 296.532468 141.91562 
L 302.571429 142.609289 
L 305.590909 142.823832 
L 308.61039 142.833682 
L 320.688312 141.613496 
L 323.707792 141.842112 
L 326.727273 142.355954 
L 329.746753 143.064308 
L 332.766234 143.919414 
L 338.805195 146.081981 
L 347.863636 149.649825 
L 350.883117 150.673326 
L 353.902597 151.514781 
L 356.922078 152.17427 
L 362.961039 153.049949 
L 381.077922 155.030866 
L 387.116883 155.527774 
L 393.155844 155.771084 
L 426.37013 156.362921 
L 429.38961 156.164335 
L 435.428571 155.403348 
L 444.487013 153.941073 
L 447.506494 153.63785 
L 450.525974 153.529817 
L 453.545455 153.629439 
L 468.642857 154.597355 
L 474.681818 154.579125 
L 477.701299 154.472387 
L 480.720779 154.213236 
L 483.74026 153.794819 
L 495.818182 151.50865 
L 498.837662 151.177379 
L 501.857143 150.986144 
L 504.876623 150.950249 
L 513.935065 151.221008 
L 519.974026 150.968196 
L 529.032468 150.569559 
L 535.071429 150.498615 
L 550.168831 150.866799 
L 565.266234 150.426933 
L 568.285714 150.494239 
L 577.344156 150.990706 
L 580.363636 151.018183 
L 586.402597 150.726191 
L 595.461039 149.909422 
L 601.5 149.416252 
L 607.538961 149.190412 
L 613.577922 149.133671 
L 622.636364 149.410397 
L 622.636364 149.410397 
" style="fill:none;stroke:#348abd;stroke-linecap:square;stroke-width:3;"/>
   </g>
   <g id="patch_171">
    <path d="M 90 157.5 
L 90 21.6 
" style="fill:none;stroke:#ffffff;stroke-linecap:square;stroke-linejoin:miter;"/>
   </g>
   <g id="patch_172">
    <path d="M 648 157.5 
L 648 21.6 
" style="fill:none;stroke:#ffffff;stroke-linecap:square;stroke-linejoin:miter;"/>
   </g>
   <g id="patch_173">
    <path d="M 90 157.5 
L 648 157.5 
" style="fill:none;stroke:#ffffff;stroke-linecap:square;stroke-linejoin:miter;"/>
   </g>
   <g id="patch_174">
    <path d="M 90 21.6 
L 648 21.6 
" style="fill:none;stroke:#ffffff;stroke-linecap:square;stroke-linejoin:miter;"/>
   </g>
   <g id="legend_1">
    <g id="patch_175">
     <path d="M 424 57.35 
L 641 57.35 
Q 643 57.35 643 55.35 
L 643 28.6 
Q 643 26.6 641 26.6 
L 424 26.6 
Q 422 26.6 422 28.6 
L 422 55.35 
Q 422 57.35 424 57.35 
z
" style="fill:#e5e5e5;opacity:0.8;stroke:#cccccc;stroke-linejoin:miter;stroke-width:0.5;"/>
    </g>
    <g id="line2d_29">
     <path d="M 426 34.45 
L 446 34.45 
" style="fill:none;stroke:#348abd;stroke-linecap:square;stroke-width:3;"/>
    </g>
    <g id="line2d_30"/>
    <g id="text_18">
     <!-- Korea, South new cases (rolling mean) -->
     <defs>
      <path d="M 16.59375 31.203125 
L 11.703125 25.796875 
L 11.703125 0 
L 4.203125 0 
L 4.203125 62.296875 
L 12.59375 62.296875 
L 12.59375 61.59375 
Q 12 61 11.84375 60.296875 
Q 11.703125 59.59375 11.703125 57.90625 
L 11.703125 33.59375 
L 37.703125 62.796875 
Q 38.796875 62.59375 40.09375 62.4375 
Q 41.40625 62.296875 42.90625 62.296875 
L 45.5 62.296875 
L 21.90625 35.40625 
L 47.09375 0 
L 38.09375 -0.40625 
z
" id="Inconsolata-Regular-75"/>
      <path d="M 25 -0.796875 
Q 18.796875 -0.796875 14.046875 2.25 
Q 9.296875 5.296875 6.59375 10.640625 
Q 3.90625 16 3.90625 22.90625 
Q 3.90625 29.90625 6.59375 35.25 
Q 9.296875 40.59375 14.046875 43.640625 
Q 18.796875 46.703125 25 46.703125 
Q 31.203125 46.703125 35.953125 43.640625 
Q 40.703125 40.59375 43.390625 35.25 
Q 46.09375 29.90625 46.09375 22.90625 
Q 46.09375 16 43.390625 10.640625 
Q 40.703125 5.296875 35.953125 2.25 
Q 31.203125 -0.796875 25 -0.796875 
z
M 25 5.203125 
Q 29 5.203125 32 7.5 
Q 35 9.796875 36.75 13.796875 
Q 38.5 17.796875 38.5 23 
Q 38.5 30.796875 34.703125 35.75 
Q 30.90625 40.703125 25 40.703125 
Q 19.09375 40.703125 15.296875 35.75 
Q 11.5 30.796875 11.5 23 
Q 11.5 17.796875 13.25 13.796875 
Q 15 9.796875 18.046875 7.5 
Q 21.09375 5.203125 25 5.203125 
z
" id="Inconsolata-Regular-111"/>
      <path d="M 11.90625 45.703125 
L 19.40625 45.703125 
L 19.203125 37.296875 
Q 21.09375 41.90625 25.09375 44.34375 
Q 29.09375 46.796875 33.703125 46.796875 
Q 41 46.796875 45.796875 41.796875 
L 42.59375 36.203125 
L 42.203125 35.296875 
L 41.5 35.703125 
Q 41.296875 36.5 40.890625 37.203125 
Q 40.5 37.90625 39.203125 38.90625 
Q 37.59375 39.90625 36.25 40.25 
Q 34.90625 40.59375 33.203125 40.59375 
Q 29.90625 40.59375 26.65625 38.890625 
Q 23.40625 37.203125 21.296875 33.59375 
Q 19.203125 30 19.203125 24.203125 
L 19.203125 -0.09375 
L 11.90625 -0.09375 
z
" id="Inconsolata-Regular-114"/>
      <path d="M 19.90625 -16.796875 
L 16.5 -13.796875 
Q 19.296875 -11.203125 21.140625 -8.203125 
Q 23 -5.203125 23 -3.296875 
Q 23 -1.90625 21.75 -0.84375 
Q 20.5 0.203125 19.203125 1.390625 
Q 17.90625 2.59375 17.90625 4.40625 
Q 17.90625 6.90625 19.546875 8.59375 
Q 21.203125 10.296875 23.796875 10.296875 
Q 26.40625 10.296875 28.5 8 
Q 30.59375 5.703125 30.59375 2 
Q 30.59375 -5.796875 19.90625 -16.796875 
z
" id="Inconsolata-Regular-44"/>
      <path d="M 24.703125 -1 
Q 12.59375 -1 5.203125 6.90625 
L 8.796875 13.203125 
L 9.203125 14.09375 
L 9.90625 13.703125 
Q 10.09375 13 10.390625 12.140625 
Q 10.703125 11.296875 11.796875 10.09375 
Q 14.40625 7.90625 17.84375 6.59375 
Q 21.296875 5.296875 25.703125 5.296875 
Q 31.296875 5.296875 34.9375 8.4375 
Q 38.59375 11.59375 38.59375 16 
Q 38.59375 18.90625 37.4375 20.90625 
Q 36.296875 22.90625 33.25 24.796875 
Q 30.203125 26.703125 24.296875 29.203125 
Q 14.59375 33 10.890625 37.703125 
Q 7.203125 42.40625 7.203125 47.703125 
Q 7.203125 54.59375 12.296875 58.84375 
Q 17.40625 63.09375 26.203125 63.09375 
Q 31.296875 63.09375 35.796875 61.046875 
Q 40.296875 59 43.5 55.296875 
L 39 49.296875 
L 38.40625 49.703125 
Q 38.296875 50.5 38 51.296875 
Q 37.703125 52.09375 36.59375 53.296875 
Q 34.203125 55.59375 31.5 56.4375 
Q 28.796875 57.296875 25.09375 57.296875 
Q 20.203125 57.296875 17.296875 54.59375 
Q 14.40625 51.90625 14.40625 48.203125 
Q 14.40625 45.40625 15.65625 43.25 
Q 16.90625 41.09375 20.203125 39 
Q 23.5 36.90625 29.796875 34.40625 
Q 35.90625 31.90625 39.296875 29.34375 
Q 42.703125 26.796875 44.09375 23.84375 
Q 45.5 20.90625 45.5 17 
Q 45.5 12.703125 43.34375 8.546875 
Q 41.203125 4.40625 36.59375 1.703125 
Q 32 -1 24.703125 -1 
z
" id="Inconsolata-Regular-83"/>
      <path d="M 22.09375 -1.09375 
Q 15.296875 -1.09375 10.796875 4 
Q 6.296875 9.09375 6.40625 20.203125 
L 6.5 45.703125 
L 13.5 45.703125 
L 13.5 20.203125 
Q 13.5 11.5 16.546875 8.09375 
Q 19.59375 4.703125 23.90625 4.703125 
Q 27.09375 4.703125 29.890625 6.390625 
Q 32.703125 8.09375 34.453125 11.59375 
Q 36.203125 15.09375 36.203125 20.5 
L 36.203125 45.703125 
L 43.203125 45.703125 
L 43.203125 7.09375 
Q 43.203125 5.296875 43.34375 3.546875 
Q 43.5 1.796875 44.203125 0 
L 37.296875 0 
Q 36.59375 1.703125 36.4375 3.5 
Q 36.296875 5.296875 36.296875 7 
Q 34.09375 3.203125 30.34375 1.046875 
Q 26.59375 -1.09375 22.09375 -1.09375 
z
" id="Inconsolata-Regular-117"/>
      <path d="M 29.90625 -0.703125 
Q 24 -0.703125 20.953125 2 
Q 17.90625 4.703125 16.90625 10.34375 
Q 15.90625 16 16.203125 24.796875 
L 16.796875 39.796875 
L 7 39.796875 
L 7 45.703125 
L 17 45.703125 
L 17.40625 57.40625 
L 24.90625 58.296875 
L 25.90625 58.40625 
L 26 57.703125 
Q 25.5 57 25.140625 56.296875 
Q 24.796875 55.59375 24.59375 53.90625 
L 23.90625 45.703125 
L 39.90625 45.703125 
L 39.90625 39.796875 
L 24 39.796875 
L 23.296875 24.296875 
Q 23 16.703125 23.703125 12.546875 
Q 24.40625 8.40625 26.203125 6.84375 
Q 28 5.296875 31 5.296875 
Q 34.296875 5.296875 36.84375 6.59375 
Q 39.40625 7.90625 42.203125 9.90625 
L 44.40625 4.203125 
Q 41 1.703125 37.390625 0.5 
Q 33.796875 -0.703125 29.90625 -0.703125 
z
" id="Inconsolata-Regular-116"/>
      <path d="M 10.796875 -0.09375 
L 1.59375 45.703125 
L 7.90625 45.703125 
L 15.296875 9 
L 23.09375 41.40625 
L 27.5 41.40625 
L 37.203125 9.09375 
Q 38.5 18 39.34375 23.703125 
Q 40.203125 29.40625 40.640625 33.046875 
Q 41.09375 36.703125 41.25 39.203125 
Q 41.40625 41.703125 41.40625 44.203125 
L 41.40625 45.703125 
L 48.09375 45.703125 
Q 45.09375 22.5 40.5 -0.09375 
L 33.703125 -0.09375 
L 25.296875 29.5 
L 17.296875 -0.09375 
z
" id="Inconsolata-Regular-119"/>
      <path d="M 25.09375 -1 
Q 13.5 -1 5.703125 6.203125 
L 9.703125 13 
L 10.296875 13.90625 
L 10.90625 13.5 
Q 11.09375 12.703125 11.34375 11.84375 
Q 11.59375 11 12.703125 9.796875 
Q 14.796875 7.703125 17.75 6.34375 
Q 20.703125 5 25.296875 5 
Q 30.796875 5 33.84375 6.953125 
Q 36.90625 8.90625 36.90625 12.296875 
Q 36.90625 15.203125 34.34375 17.09375 
Q 31.796875 19 25.40625 21.09375 
Q 17.5 23.40625 12.84375 26.796875 
Q 8.203125 30.203125 8.203125 35.296875 
Q 8.203125 40.5 12.453125 43.640625 
Q 16.703125 46.796875 25 46.796875 
Q 31.40625 46.796875 35.59375 45 
Q 39.796875 43.203125 43.203125 39.59375 
L 39.09375 34.59375 
L 38.40625 33.796875 
L 37.90625 34.296875 
Q 37.796875 35.09375 37.4375 35.84375 
Q 37.09375 36.59375 36 37.703125 
Q 33.703125 39.5 30.796875 40.453125 
Q 27.90625 41.40625 25.203125 41.40625 
Q 21.203125 41.40625 18.296875 40 
Q 15.40625 38.59375 15.40625 35.703125 
Q 15.40625 34.203125 16.453125 32.75 
Q 17.5 31.296875 20.296875 29.84375 
Q 23.09375 28.40625 28.296875 26.90625 
Q 36.90625 24.296875 40.453125 21.25 
Q 44 18.203125 44 13.296875 
Q 44 9.5 41.953125 6.203125 
Q 39.90625 2.90625 35.703125 0.953125 
Q 31.5 -1 25.09375 -1 
z
" id="Inconsolata-Regular-115"/>
      <path d="M 39.5 -10.40625 
Q 31.203125 -6.5 25.046875 0.046875 
Q 18.90625 6.59375 15.546875 14.84375 
Q 12.203125 23.09375 12.203125 32 
Q 12.203125 40.90625 15.5 48.953125 
Q 18.796875 57 24.796875 63.34375 
Q 30.796875 69.703125 38.90625 73.5 
L 40.796875 67.296875 
Q 34.40625 63.796875 29.546875 58.296875 
Q 24.703125 52.796875 22 46 
Q 19.296875 39.203125 19.296875 31.703125 
Q 19.296875 24.203125 22 17.296875 
Q 24.703125 10.40625 29.703125 4.796875 
Q 34.703125 -0.796875 41.40625 -4.40625 
z
" id="Inconsolata-Regular-40"/>
      <path d="M 3.796875 0 
L 3.796875 45.703125 
L 10.40625 45.703125 
L 10.40625 41.203125 
Q 12 43.703125 14.5 45.25 
Q 17 46.796875 19.703125 46.796875 
Q 22.703125 46.796875 24.953125 44.890625 
Q 27.203125 43 27.796875 40.09375 
Q 29.09375 43.09375 31.890625 44.9375 
Q 34.703125 46.796875 38.09375 46.796875 
Q 42.796875 46.796875 44.9375 43.4375 
Q 47.09375 40.09375 46.90625 35.09375 
L 46.90625 0 
L 40.296875 0 
L 40.296875 32.40625 
Q 40.296875 36.59375 39.75 38.5 
Q 39.203125 40.40625 38.203125 40.953125 
Q 37.203125 41.5 36 41.5 
Q 34.09375 41.5 32.4375 39.75 
Q 30.796875 38 29.75 35.390625 
Q 28.703125 32.796875 28.703125 30.203125 
L 28.703125 0 
L 22 0 
L 22 31.796875 
Q 22 37.5 20.953125 39.390625 
Q 19.90625 41.296875 17 41.296875 
Q 14.796875 41.296875 12.59375 38.4375 
Q 10.40625 35.59375 10.40625 30.5 
L 10.40625 0 
z
" id="Inconsolata-Regular-109"/>
      <path d="M 13.25 -10.40625 
Q 21.546875 -6.5 27.6875 0.046875 
Q 33.84375 6.59375 37.1875 14.84375 
Q 40.546875 23.09375 40.546875 32 
Q 40.546875 40.90625 37.25 48.953125 
Q 33.953125 57 27.953125 63.34375 
Q 21.953125 69.703125 13.84375 73.5 
L 11.953125 67.296875 
Q 18.34375 63.796875 23.1875 58.296875 
Q 28.046875 52.796875 30.75 46 
Q 33.453125 39.203125 33.453125 31.703125 
Q 33.453125 24.203125 30.75 17.296875 
Q 28.046875 10.40625 23.046875 4.796875 
Q 18.046875 -0.796875 11.34375 -4.40625 
z
" id="Inconsolata-Regular-41"/>
     </defs>
     <g transform="translate(454 37.95)scale(0.1 -0.1)">
      <use xlink:href="#Inconsolata-Regular-75"/>
      <use x="49.999985" xlink:href="#Inconsolata-Regular-111"/>
      <use x="99.999969" xlink:href="#Inconsolata-Regular-114"/>
      <use x="149.999954" xlink:href="#Inconsolata-Regular-101"/>
      <use x="199.999939" xlink:href="#Inconsolata-Regular-97"/>
      <use x="249.999924" xlink:href="#Inconsolata-Regular-44"/>
      <use x="299.999908" xlink:href="#Inconsolata-Regular-32"/>
      <use x="349.999893" xlink:href="#Inconsolata-Regular-83"/>
      <use x="399.999878" xlink:href="#Inconsolata-Regular-111"/>
      <use x="449.999863" xlink:href="#Inconsolata-Regular-117"/>
      <use x="499.999847" xlink:href="#Inconsolata-Regular-116"/>
      <use x="549.999832" xlink:href="#Inconsolata-Regular-104"/>
      <use x="599.999817" xlink:href="#Inconsolata-Regular-32"/>
      <use x="649.999802" xlink:href="#Inconsolata-Regular-110"/>
      <use x="699.999786" xlink:href="#Inconsolata-Regular-101"/>
      <use x="749.999771" xlink:href="#Inconsolata-Regular-119"/>
      <use x="799.999756" xlink:href="#Inconsolata-Regular-32"/>
      <use x="849.999741" xlink:href="#Inconsolata-Regular-99"/>
      <use x="899.999725" xlink:href="#Inconsolata-Regular-97"/>
      <use x="949.99971" xlink:href="#Inconsolata-Regular-115"/>
      <use x="999.999695" xlink:href="#Inconsolata-Regular-101"/>
      <use x="1049.99968" xlink:href="#Inconsolata-Regular-115"/>
      <use x="1099.999664" xlink:href="#Inconsolata-Regular-32"/>
      <use x="1149.999649" xlink:href="#Inconsolata-Regular-40"/>
      <use x="1199.999634" xlink:href="#Inconsolata-Regular-114"/>
      <use x="1249.999619" xlink:href="#Inconsolata-Regular-111"/>
      <use x="1299.999603" xlink:href="#Inconsolata-Regular-108"/>
      <use x="1349.999588" xlink:href="#Inconsolata-Regular-108"/>
      <use x="1399.999573" xlink:href="#Inconsolata-Regular-105"/>
      <use x="1449.999557" xlink:href="#Inconsolata-Regular-110"/>
      <use x="1499.999542" xlink:href="#Inconsolata-Regular-103"/>
      <use x="1549.999527" xlink:href="#Inconsolata-Regular-32"/>
      <use x="1599.999512" xlink:href="#Inconsolata-Regular-109"/>
      <use x="1649.999496" xlink:href="#Inconsolata-Regular-101"/>
      <use x="1699.999481" xlink:href="#Inconsolata-Regular-97"/>
      <use x="1749.999466" xlink:href="#Inconsolata-Regular-110"/>
      <use x="1799.999451" xlink:href="#Inconsolata-Regular-41"/>
     </g>
    </g>
    <g id="patch_176">
     <path d="M 426 51.670312 
L 446 51.670312 
L 446 44.670312 
L 426 44.670312 
z
" style="fill:#348abd;opacity:0.2;"/>
    </g>
    <g id="text_19">
     <!-- Korea, South new cases -->
     <g transform="translate(454 51.670312)scale(0.1 -0.1)">
      <use xlink:href="#Inconsolata-Regular-75"/>
      <use x="49.999985" xlink:href="#Inconsolata-Regular-111"/>
      <use x="99.999969" xlink:href="#Inconsolata-Regular-114"/>
      <use x="149.999954" xlink:href="#Inconsolata-Regular-101"/>
      <use x="199.999939" xlink:href="#Inconsolata-Regular-97"/>
      <use x="249.999924" xlink:href="#Inconsolata-Regular-44"/>
      <use x="299.999908" xlink:href="#Inconsolata-Regular-32"/>
      <use x="349.999893" xlink:href="#Inconsolata-Regular-83"/>
      <use x="399.999878" xlink:href="#Inconsolata-Regular-111"/>
      <use x="449.999863" xlink:href="#Inconsolata-Regular-117"/>
      <use x="499.999847" xlink:href="#Inconsolata-Regular-116"/>
      <use x="549.999832" xlink:href="#Inconsolata-Regular-104"/>
      <use x="599.999817" xlink:href="#Inconsolata-Regular-32"/>
      <use x="649.999802" xlink:href="#Inconsolata-Regular-110"/>
      <use x="699.999786" xlink:href="#Inconsolata-Regular-101"/>
      <use x="749.999771" xlink:href="#Inconsolata-Regular-119"/>
      <use x="799.999756" xlink:href="#Inconsolata-Regular-32"/>
      <use x="849.999741" xlink:href="#Inconsolata-Regular-99"/>
      <use x="899.999725" xlink:href="#Inconsolata-Regular-97"/>
      <use x="949.99971" xlink:href="#Inconsolata-Regular-115"/>
      <use x="999.999695" xlink:href="#Inconsolata-Regular-101"/>
      <use x="1049.99968" xlink:href="#Inconsolata-Regular-115"/>
     </g>
    </g>
   </g>
  </g>
 </g>
 <defs>
  <clipPath id="pc3e6f3c95d">
   <rect height="135.9" width="558" x="90" y="21.6"/>
  </clipPath>
 </defs>
</svg>
