<?xml version="1.0" encoding="utf-8" standalone="no"?>
<!DOCTYPE svg PUBLIC "-//W3C//DTD SVG 1.1//EN"
  "http://www.w3.org/Graphics/SVG/1.1/DTD/svg11.dtd">
<!-- Created with matplotlib (https://matplotlib.org/) -->
<svg height="180pt" version="1.1" viewBox="0 0 720 180" width="720pt" xmlns="http://www.w3.org/2000/svg" xmlns:xlink="http://www.w3.org/1999/xlink">
 <defs>
  <style type="text/css">
*{stroke-linecap:butt;stroke-linejoin:round;}
  </style>
 </defs>
 <g id="figure_1">
  <g id="patch_1">
   <path d="M 0 180 
L 720 180 
L 720 0 
L 0 0 
z
" style="fill:#ffffff;"/>
  </g>
  <g id="axes_1">
   <g id="patch_2">
    <path d="M 90 157.5 
L 648 157.5 
L 648 21.6 
L 90 21.6 
z
" style="fill:#e5e5e5;"/>
   </g>
   <g id="matplotlib.axis_1">
    <g id="xtick_1">
     <g id="line2d_1">
      <path clip-path="url(#pde24fc8dd5)" d="M 146.107438 157.5 
L 146.107438 21.6 
" style="fill:none;stroke:#ffffff;stroke-linecap:square;stroke-width:0.8;"/>
     </g>
     <g id="line2d_2">
      <defs>
       <path d="M 0 0 
L 0 3.5 
" id="m2739ea0985" style="stroke:#555555;stroke-width:0.8;"/>
      </defs>
      <g>
       <use style="fill:#555555;stroke:#555555;stroke-width:0.8;" x="146.107438" xlink:href="#m2739ea0985" y="157.5"/>
      </g>
     </g>
     <g id="text_1">
      <!-- 2020-02 -->
      <defs>
       <path d="M 7.296875 5.59375 
Q 14 12.5 19.390625 17.84375 
Q 24.796875 23.203125 28.59375 27.640625 
Q 32.40625 32.09375 34.40625 36.296875 
Q 36.40625 40.5 36.40625 45.09375 
Q 36.40625 51.59375 33.296875 54.09375 
Q 30.203125 56.59375 25.796875 56.59375 
Q 22.203125 56.59375 19.046875 55.046875 
Q 15.90625 53.5 13.296875 50.296875 
Q 12.40625 48.90625 12.203125 48.15625 
Q 12 47.40625 12.09375 46.59375 
L 11.703125 46.09375 
L 10.90625 46.59375 
L 5.796875 50.59375 
Q 8.796875 56.40625 14.046875 59.546875 
Q 19.296875 62.703125 25.703125 62.703125 
Q 33.59375 62.703125 38.59375 57.953125 
Q 43.59375 53.203125 43.59375 44.90625 
Q 43.59375 39.703125 41.296875 35 
Q 39 30.296875 35.140625 25.6875 
Q 31.296875 21.09375 26.390625 16.296875 
Q 21.5 11.5 16.296875 6.09375 
L 39.5 6.09375 
Q 41.203125 6.09375 41.890625 6.296875 
Q 42.59375 6.5 43.203125 7.09375 
L 43.90625 7.09375 
L 43.90625 0 
L 7.296875 0 
z
" id="Inconsolata-Regular-50"/>
       <path d="M 25 -1.09375 
Q 15.703125 -1.09375 10.703125 7.203125 
Q 5.703125 15.5 5.703125 30.796875 
Q 5.703125 45.59375 10.703125 54.140625 
Q 15.703125 62.703125 25 62.703125 
Q 34.296875 62.703125 39.296875 54.140625 
Q 44.296875 45.59375 44.296875 30.796875 
Q 44.296875 15.5 39.296875 7.203125 
Q 34.296875 -1.09375 25 -1.09375 
z
M 12.90625 30.796875 
Q 12.90625 24.40625 13.796875 19.40625 
L 35 46.703125 
Q 33.5 51.40625 30.953125 54 
Q 28.40625 56.59375 25 56.59375 
Q 19.296875 56.59375 16.09375 49.59375 
Q 12.90625 42.59375 12.90625 30.796875 
z
M 25 5 
Q 30.703125 5 33.890625 11.703125 
Q 37.09375 18.40625 37.09375 30.796875 
Q 37.09375 36.296875 36.40625 40.796875 
L 15.203125 13.90625 
Q 18.296875 5 25 5 
z
" id="Inconsolata-Regular-48"/>
       <path d="M 11.09375 28.09375 
L 11.09375 34.796875 
L 39.09375 34.796875 
L 39.09375 28.09375 
z
" id="Inconsolata-Regular-45"/>
      </defs>
      <g style="fill:#555555;" transform="translate(128.607438 171.15)scale(0.1 -0.1)">
       <use xlink:href="#Inconsolata-Regular-50"/>
       <use x="49.999985" xlink:href="#Inconsolata-Regular-48"/>
       <use x="99.999969" xlink:href="#Inconsolata-Regular-50"/>
       <use x="149.999954" xlink:href="#Inconsolata-Regular-48"/>
       <use x="199.999939" xlink:href="#Inconsolata-Regular-45"/>
       <use x="249.999924" xlink:href="#Inconsolata-Regular-48"/>
       <use x="299.999908" xlink:href="#Inconsolata-Regular-50"/>
      </g>
     </g>
    </g>
    <g id="xtick_2">
     <g id="line2d_3">
      <path clip-path="url(#pde24fc8dd5)" d="M 235.264463 157.5 
L 235.264463 21.6 
" style="fill:none;stroke:#ffffff;stroke-linecap:square;stroke-width:0.8;"/>
     </g>
     <g id="line2d_4">
      <g>
       <use style="fill:#555555;stroke:#555555;stroke-width:0.8;" x="235.264463" xlink:href="#m2739ea0985" y="157.5"/>
      </g>
     </g>
     <g id="text_2">
      <!-- 2020-03 -->
      <defs>
       <path d="M 24 -1.09375 
Q 19.09375 -1.09375 14.59375 0.703125 
Q 10.09375 2.5 6.90625 6 
L 11.5 11.5 
L 12.203125 12.296875 
L 12.703125 11.796875 
Q 12.796875 11 13.09375 10.25 
Q 13.40625 9.5 14.5 8.296875 
Q 16.203125 6.796875 18.390625 5.84375 
Q 20.59375 4.90625 23.703125 4.90625 
Q 29.703125 4.90625 32.59375 8.40625 
Q 35.5 11.90625 35.5 17.40625 
Q 35.5 24.5 30.75 27.453125 
Q 26 30.40625 18 29.59375 
L 18 35.203125 
Q 24.5 35.203125 27.796875 36.890625 
Q 31.09375 38.59375 32.25 41.4375 
Q 33.40625 44.296875 33.40625 47.5 
Q 33.40625 51.796875 30.953125 54.25 
Q 28.5 56.703125 24.5 56.703125 
Q 21.5 56.703125 18.640625 55.703125 
Q 15.796875 54.703125 13.09375 52.09375 
L 8.90625 56.296875 
Q 12.296875 59.796875 16.34375 61.25 
Q 20.40625 62.703125 24.40625 62.703125 
Q 32 62.703125 36.296875 58.390625 
Q 40.59375 54.09375 40.59375 47.203125 
Q 40.59375 42.296875 38.1875 38.4375 
Q 35.796875 34.59375 30.796875 33 
Q 36.09375 31.296875 39.390625 27.390625 
Q 42.703125 23.5 42.703125 17.09375 
Q 42.703125 12.203125 40.546875 8.046875 
Q 38.40625 3.90625 34.25 1.40625 
Q 30.09375 -1.09375 24 -1.09375 
z
" id="Inconsolata-Regular-51"/>
      </defs>
      <g style="fill:#555555;" transform="translate(217.764463 171.15)scale(0.1 -0.1)">
       <use xlink:href="#Inconsolata-Regular-50"/>
       <use x="49.999985" xlink:href="#Inconsolata-Regular-48"/>
       <use x="99.999969" xlink:href="#Inconsolata-Regular-50"/>
       <use x="149.999954" xlink:href="#Inconsolata-Regular-48"/>
       <use x="199.999939" xlink:href="#Inconsolata-Regular-45"/>
       <use x="249.999924" xlink:href="#Inconsolata-Regular-48"/>
       <use x="299.999908" xlink:href="#Inconsolata-Regular-51"/>
      </g>
     </g>
    </g>
    <g id="xtick_3">
     <g id="line2d_5">
      <path clip-path="url(#pde24fc8dd5)" d="M 330.570248 157.5 
L 330.570248 21.6 
" style="fill:none;stroke:#ffffff;stroke-linecap:square;stroke-width:0.8;"/>
     </g>
     <g id="line2d_6">
      <g>
       <use style="fill:#555555;stroke:#555555;stroke-width:0.8;" x="330.570248" xlink:href="#m2739ea0985" y="157.5"/>
      </g>
     </g>
     <g id="text_3">
      <!-- 2020-04 -->
      <defs>
       <path d="M 31.796875 0 
L 31.796875 15.296875 
L 4.796875 15.296875 
L 4.796875 20.40625 
L 33.296875 62.40625 
L 39.203125 62.40625 
L 39.203125 21.09375 
L 47.203125 21.09375 
L 47.203125 15.203125 
L 39.203125 15.203125 
L 39.203125 0 
z
M 12.90625 21.203125 
L 31.796875 21.203125 
L 31.796875 49.796875 
z
" id="Inconsolata-Regular-52"/>
      </defs>
      <g style="fill:#555555;" transform="translate(313.070248 171.15)scale(0.1 -0.1)">
       <use xlink:href="#Inconsolata-Regular-50"/>
       <use x="49.999985" xlink:href="#Inconsolata-Regular-48"/>
       <use x="99.999969" xlink:href="#Inconsolata-Regular-50"/>
       <use x="149.999954" xlink:href="#Inconsolata-Regular-48"/>
       <use x="199.999939" xlink:href="#Inconsolata-Regular-45"/>
       <use x="249.999924" xlink:href="#Inconsolata-Regular-48"/>
       <use x="299.999908" xlink:href="#Inconsolata-Regular-52"/>
      </g>
     </g>
    </g>
    <g id="xtick_4">
     <g id="line2d_7">
      <path clip-path="url(#pde24fc8dd5)" d="M 422.801653 157.5 
L 422.801653 21.6 
" style="fill:none;stroke:#ffffff;stroke-linecap:square;stroke-width:0.8;"/>
     </g>
     <g id="line2d_8">
      <g>
       <use style="fill:#555555;stroke:#555555;stroke-width:0.8;" x="422.801653" xlink:href="#m2739ea0985" y="157.5"/>
      </g>
     </g>
     <g id="text_4">
      <!-- 2020-05 -->
      <defs>
       <path d="M 24.90625 -1.09375 
Q 19.203125 -1.09375 14.34375 1.40625 
Q 9.5 3.90625 6.40625 8.5 
L 12.796875 13.296875 
L 13.203125 12.796875 
Q 13.09375 12 13.4375 11.296875 
Q 13.796875 10.59375 14.796875 9.296875 
Q 16.796875 7.09375 19.25 6.046875 
Q 21.703125 5 25.296875 5 
Q 28.5 5 31.25 6.796875 
Q 34 8.59375 35.703125 11.9375 
Q 37.40625 15.296875 37.40625 19.90625 
Q 37.40625 26.90625 33.65625 30.796875 
Q 29.90625 34.703125 24.59375 34.703125 
Q 21.40625 34.703125 18.296875 33.140625 
Q 15.203125 31.59375 12.90625 28.796875 
L 8.5 30.59375 
L 10.59375 62.296875 
L 42.203125 62.296875 
L 42.203125 56 
L 16.5 56 
L 15.5 38.09375 
Q 20.5 40.5 25.703125 40.5 
Q 31.09375 40.5 35.34375 37.953125 
Q 39.59375 35.40625 42.046875 30.703125 
Q 44.5 26 44.5 19.59375 
Q 44.5 13.203125 41.890625 8.546875 
Q 39.296875 3.90625 34.890625 1.40625 
Q 30.5 -1.09375 24.90625 -1.09375 
z
" id="Inconsolata-Regular-53"/>
      </defs>
      <g style="fill:#555555;" transform="translate(405.301653 171.15)scale(0.1 -0.1)">
       <use xlink:href="#Inconsolata-Regular-50"/>
       <use x="49.999985" xlink:href="#Inconsolata-Regular-48"/>
       <use x="99.999969" xlink:href="#Inconsolata-Regular-50"/>
       <use x="149.999954" xlink:href="#Inconsolata-Regular-48"/>
       <use x="199.999939" xlink:href="#Inconsolata-Regular-45"/>
       <use x="249.999924" xlink:href="#Inconsolata-Regular-48"/>
       <use x="299.999908" xlink:href="#Inconsolata-Regular-53"/>
      </g>
     </g>
    </g>
    <g id="xtick_5">
     <g id="line2d_9">
      <path clip-path="url(#pde24fc8dd5)" d="M 518.107438 157.5 
L 518.107438 21.6 
" style="fill:none;stroke:#ffffff;stroke-linecap:square;stroke-width:0.8;"/>
     </g>
     <g id="line2d_10">
      <g>
       <use style="fill:#555555;stroke:#555555;stroke-width:0.8;" x="518.107438" xlink:href="#m2739ea0985" y="157.5"/>
      </g>
     </g>
     <g id="text_5">
      <!-- 2020-06 -->
      <defs>
       <path d="M 26.09375 -1 
Q 16.796875 -1 11.75 6.890625 
Q 6.703125 14.796875 6.703125 28.40625 
Q 6.703125 45.203125 12.703125 54.09375 
Q 18.703125 63 28.703125 63 
Q 36.59375 63 42.40625 57.296875 
L 38 52.296875 
L 37.296875 51.5 
L 36.796875 52 
Q 36.703125 52.796875 36.34375 53.5 
Q 36 54.203125 34.703125 55.296875 
Q 32.5 56.796875 28.90625 56.796875 
Q 26.90625 56.796875 24.296875 55.84375 
Q 21.703125 54.90625 19.296875 52.296875 
Q 16.90625 49.703125 15.296875 44.953125 
Q 13.703125 40.203125 13.59375 32.703125 
Q 15.703125 36.203125 19.25 38.203125 
Q 22.796875 40.203125 26.796875 40.203125 
Q 31.5 40.203125 35.34375 37.640625 
Q 39.203125 35.09375 41.546875 30.546875 
Q 43.90625 26 43.90625 19.796875 
Q 43.90625 13.59375 41.5 8.890625 
Q 39.09375 4.203125 35.09375 1.59375 
Q 31.09375 -1 26.09375 -1 
z
M 26.40625 5.203125 
Q 30.703125 5.203125 33.890625 8.890625 
Q 37.09375 12.59375 37.09375 19.703125 
Q 37.09375 24.703125 35.4375 27.890625 
Q 33.796875 31.09375 31.296875 32.59375 
Q 28.796875 34.09375 26.203125 34.09375 
Q 22.59375 34.09375 19.296875 31.640625 
Q 16 29.203125 14 25.703125 
Q 13.59375 22.296875 14.25 18.6875 
Q 14.90625 15.09375 16.546875 12.046875 
Q 18.203125 9 20.703125 7.09375 
Q 23.203125 5.203125 26.40625 5.203125 
z
" id="Inconsolata-Regular-54"/>
      </defs>
      <g style="fill:#555555;" transform="translate(500.607438 171.15)scale(0.1 -0.1)">
       <use xlink:href="#Inconsolata-Regular-50"/>
       <use x="49.999985" xlink:href="#Inconsolata-Regular-48"/>
       <use x="99.999969" xlink:href="#Inconsolata-Regular-50"/>
       <use x="149.999954" xlink:href="#Inconsolata-Regular-48"/>
       <use x="199.999939" xlink:href="#Inconsolata-Regular-45"/>
       <use x="249.999924" xlink:href="#Inconsolata-Regular-48"/>
       <use x="299.999908" xlink:href="#Inconsolata-Regular-54"/>
      </g>
     </g>
    </g>
    <g id="xtick_6">
     <g id="line2d_11">
      <path clip-path="url(#pde24fc8dd5)" d="M 610.338843 157.5 
L 610.338843 21.6 
" style="fill:none;stroke:#ffffff;stroke-linecap:square;stroke-width:0.8;"/>
     </g>
     <g id="line2d_12">
      <g>
       <use style="fill:#555555;stroke:#555555;stroke-width:0.8;" x="610.338843" xlink:href="#m2739ea0985" y="157.5"/>
      </g>
     </g>
     <g id="text_6">
      <!-- 2020-07 -->
      <defs>
       <path d="M 15.5 0 
Q 19.90625 14.296875 24.59375 28.09375 
Q 29.296875 41.90625 34.5 55.703125 
L 7.90625 55.703125 
L 7.90625 62.296875 
L 43.203125 62.296875 
L 43.203125 58.40625 
Q 37.5 44 32.5 29.5 
Q 27.5 15 23.40625 0 
z
" id="Inconsolata-Regular-55"/>
      </defs>
      <g style="fill:#555555;" transform="translate(592.838843 171.15)scale(0.1 -0.1)">
       <use xlink:href="#Inconsolata-Regular-50"/>
       <use x="49.999985" xlink:href="#Inconsolata-Regular-48"/>
       <use x="99.999969" xlink:href="#Inconsolata-Regular-50"/>
       <use x="149.999954" xlink:href="#Inconsolata-Regular-48"/>
       <use x="199.999939" xlink:href="#Inconsolata-Regular-45"/>
       <use x="249.999924" xlink:href="#Inconsolata-Regular-48"/>
       <use x="299.999908" xlink:href="#Inconsolata-Regular-55"/>
      </g>
     </g>
    </g>
   </g>
   <g id="matplotlib.axis_2">
    <g id="ytick_1">
     <g id="line2d_13">
      <path clip-path="url(#pde24fc8dd5)" d="M 90 157.5 
L 648 157.5 
" style="fill:none;stroke:#ffffff;stroke-linecap:square;stroke-width:0.8;"/>
     </g>
     <g id="line2d_14">
      <defs>
       <path d="M 0 0 
L -3.5 0 
" id="m5cca539a14" style="stroke:#555555;stroke-width:0.8;"/>
      </defs>
      <g>
       <use style="fill:#555555;stroke:#555555;stroke-width:0.8;" x="90" xlink:href="#m5cca539a14" y="157.5"/>
      </g>
     </g>
     <g id="line2d_15">
      <defs>
       <path d="M 0 0 
L 3.5 0 
" id="m701f46ca92" style="stroke:#555555;stroke-width:0.8;"/>
      </defs>
      <g>
       <use style="fill:#555555;stroke:#555555;stroke-width:0.8;" x="648" xlink:href="#m701f46ca92" y="157.5"/>
      </g>
     </g>
     <g id="text_7">
      <!-- 0 -->
      <g style="fill:#555555;" transform="translate(78 160.825)scale(0.1 -0.1)">
       <use xlink:href="#Inconsolata-Regular-48"/>
      </g>
     </g>
     <g id="text_8">
      <!-- 0 -->
      <g style="fill:#555555;" transform="translate(655 160.825)scale(0.1 -0.1)">
       <use xlink:href="#Inconsolata-Regular-48"/>
      </g>
     </g>
    </g>
    <g id="ytick_2">
     <g id="line2d_16">
      <path clip-path="url(#pde24fc8dd5)" d="M 90 133.967532 
L 648 133.967532 
" style="fill:none;stroke:#ffffff;stroke-linecap:square;stroke-width:0.8;"/>
     </g>
     <g id="line2d_17">
      <g>
       <use style="fill:#555555;stroke:#555555;stroke-width:0.8;" x="90" xlink:href="#m5cca539a14" y="133.967532"/>
      </g>
     </g>
     <g id="line2d_18">
      <g>
       <use style="fill:#555555;stroke:#555555;stroke-width:0.8;" x="648" xlink:href="#m701f46ca92" y="133.967532"/>
      </g>
     </g>
     <g id="text_9">
      <!-- 2 -->
      <g style="fill:#555555;" transform="translate(78 137.292532)scale(0.1 -0.1)">
       <use xlink:href="#Inconsolata-Regular-50"/>
      </g>
     </g>
     <g id="text_10">
      <!-- 2 -->
      <g style="fill:#555555;" transform="translate(655 137.292532)scale(0.1 -0.1)">
       <use xlink:href="#Inconsolata-Regular-50"/>
      </g>
     </g>
    </g>
    <g id="ytick_3">
     <g id="line2d_19">
      <path clip-path="url(#pde24fc8dd5)" d="M 90 110.435065 
L 648 110.435065 
" style="fill:none;stroke:#ffffff;stroke-linecap:square;stroke-width:0.8;"/>
     </g>
     <g id="line2d_20">
      <g>
       <use style="fill:#555555;stroke:#555555;stroke-width:0.8;" x="90" xlink:href="#m5cca539a14" y="110.435065"/>
      </g>
     </g>
     <g id="line2d_21">
      <g>
       <use style="fill:#555555;stroke:#555555;stroke-width:0.8;" x="648" xlink:href="#m701f46ca92" y="110.435065"/>
      </g>
     </g>
     <g id="text_11">
      <!-- 4 -->
      <g style="fill:#555555;" transform="translate(78 113.760065)scale(0.1 -0.1)">
       <use xlink:href="#Inconsolata-Regular-52"/>
      </g>
     </g>
     <g id="text_12">
      <!-- 4 -->
      <g style="fill:#555555;" transform="translate(655 113.760065)scale(0.1 -0.1)">
       <use xlink:href="#Inconsolata-Regular-52"/>
      </g>
     </g>
    </g>
    <g id="ytick_4">
     <g id="line2d_22">
      <path clip-path="url(#pde24fc8dd5)" d="M 90 86.902597 
L 648 86.902597 
" style="fill:none;stroke:#ffffff;stroke-linecap:square;stroke-width:0.8;"/>
     </g>
     <g id="line2d_23">
      <g>
       <use style="fill:#555555;stroke:#555555;stroke-width:0.8;" x="90" xlink:href="#m5cca539a14" y="86.902597"/>
      </g>
     </g>
     <g id="line2d_24">
      <g>
       <use style="fill:#555555;stroke:#555555;stroke-width:0.8;" x="648" xlink:href="#m701f46ca92" y="86.902597"/>
      </g>
     </g>
     <g id="text_13">
      <!-- 6 -->
      <g style="fill:#555555;" transform="translate(78 90.227597)scale(0.1 -0.1)">
       <use xlink:href="#Inconsolata-Regular-54"/>
      </g>
     </g>
     <g id="text_14">
      <!-- 6 -->
      <g style="fill:#555555;" transform="translate(655 90.227597)scale(0.1 -0.1)">
       <use xlink:href="#Inconsolata-Regular-54"/>
      </g>
     </g>
    </g>
    <g id="ytick_5">
     <g id="line2d_25">
      <path clip-path="url(#pde24fc8dd5)" d="M 90 63.37013 
L 648 63.37013 
" style="fill:none;stroke:#ffffff;stroke-linecap:square;stroke-width:0.8;"/>
     </g>
     <g id="line2d_26">
      <g>
       <use style="fill:#555555;stroke:#555555;stroke-width:0.8;" x="90" xlink:href="#m5cca539a14" y="63.37013"/>
      </g>
     </g>
     <g id="line2d_27">
      <g>
       <use style="fill:#555555;stroke:#555555;stroke-width:0.8;" x="648" xlink:href="#m701f46ca92" y="63.37013"/>
      </g>
     </g>
     <g id="text_15">
      <!-- 8 -->
      <defs>
       <path d="M 25 -1 
Q 19.09375 -1 14.84375 1.25 
Q 10.59375 3.5 8.296875 7.296875 
Q 6 11.09375 6 15.703125 
Q 6 21.09375 9.390625 25.796875 
Q 12.796875 30.5 18.5 33.09375 
Q 14.203125 35.296875 11.59375 39.25 
Q 9 43.203125 9 47.703125 
Q 9 54.09375 13.140625 58.59375 
Q 17.296875 63.09375 25.5 63.09375 
Q 31.296875 63.09375 34.890625 61.09375 
Q 38.5 59.09375 40.25 55.75 
Q 42 52.40625 42 48.296875 
Q 42 43.796875 39.296875 39.75 
Q 36.59375 35.703125 32.09375 33.296875 
Q 37.5 30.796875 40.796875 26.140625 
Q 44.09375 21.5 44.09375 16.09375 
Q 44.09375 11.203125 41.75 7.34375 
Q 39.40625 3.5 35.15625 1.25 
Q 30.90625 -1 25 -1 
z
M 26.703125 35.796875 
Q 30.40625 37.796875 32.796875 41.1875 
Q 35.203125 44.59375 35.203125 48.09375 
Q 35.203125 51.59375 32.75 54.390625 
Q 30.296875 57.203125 25.296875 57.203125 
Q 20.40625 57.203125 18.046875 54.5 
Q 15.703125 51.796875 15.703125 48.40625 
Q 15.703125 43.796875 18.890625 41.046875 
Q 22.09375 38.296875 26.703125 35.796875 
z
M 25.203125 5.296875 
Q 31 5.296875 34 8.4375 
Q 37 11.59375 37 16.09375 
Q 37 20.703125 33.390625 24.546875 
Q 29.796875 28.40625 23.703125 30.296875 
Q 19.203125 28.40625 16.203125 24.65625 
Q 13.203125 20.90625 13.203125 16.40625 
Q 13.203125 11.90625 16.34375 8.59375 
Q 19.5 5.296875 25.203125 5.296875 
z
" id="Inconsolata-Regular-56"/>
      </defs>
      <g style="fill:#555555;" transform="translate(78 66.69513)scale(0.1 -0.1)">
       <use xlink:href="#Inconsolata-Regular-56"/>
      </g>
     </g>
     <g id="text_16">
      <!-- 8 -->
      <g style="fill:#555555;" transform="translate(655 66.69513)scale(0.1 -0.1)">
       <use xlink:href="#Inconsolata-Regular-56"/>
      </g>
     </g>
    </g>
    <g id="ytick_6">
     <g id="line2d_28">
      <path clip-path="url(#pde24fc8dd5)" d="M 90 39.837662 
L 648 39.837662 
" style="fill:none;stroke:#ffffff;stroke-linecap:square;stroke-width:0.8;"/>
     </g>
     <g id="line2d_29">
      <g>
       <use style="fill:#555555;stroke:#555555;stroke-width:0.8;" x="90" xlink:href="#m5cca539a14" y="39.837662"/>
      </g>
     </g>
     <g id="line2d_30">
      <g>
       <use style="fill:#555555;stroke:#555555;stroke-width:0.8;" x="648" xlink:href="#m701f46ca92" y="39.837662"/>
      </g>
     </g>
     <g id="text_17">
      <!-- 10 -->
      <defs>
       <path d="M 23 0 
L 23 53.703125 
L 10.40625 50 
L 8.796875 53.90625 
L 25.09375 62.40625 
L 30 62.40625 
L 30 0 
z
" id="Inconsolata-Regular-49"/>
      </defs>
      <g style="fill:#555555;" transform="translate(73 43.162662)scale(0.1 -0.1)">
       <use xlink:href="#Inconsolata-Regular-49"/>
       <use x="49.999985" xlink:href="#Inconsolata-Regular-48"/>
      </g>
     </g>
     <g id="text_18">
      <!-- 10 -->
      <g style="fill:#555555;" transform="translate(655 43.162662)scale(0.1 -0.1)">
       <use xlink:href="#Inconsolata-Regular-49"/>
       <use x="49.999985" xlink:href="#Inconsolata-Regular-48"/>
      </g>
     </g>
    </g>
    <g id="text_19">
     <!-- daily change -->
     <defs>
      <path d="M 23.40625 -1 
Q 18.796875 -1 14.4375 1.640625 
Q 10.09375 4.296875 7.296875 9.6875 
Q 4.5 15.09375 4.5 23.296875 
Q 4.5 31.703125 7.390625 36.890625 
Q 10.296875 42.09375 14.75 44.5 
Q 19.203125 46.90625 23.796875 46.90625 
Q 28.5 46.90625 31.953125 44.75 
Q 35.40625 42.59375 37.09375 39 
L 37.09375 66.5 
L 44.703125 66.5 
L 44.703125 65.796875 
Q 44.09375 65.203125 43.9375 64.5 
Q 43.796875 63.796875 43.796875 62.09375 
L 43.90625 7.09375 
Q 43.90625 5.296875 44.046875 3.546875 
Q 44.203125 1.796875 44.90625 0 
L 37.796875 0 
Q 37.09375 1.796875 36.9375 3.546875 
Q 36.796875 5.296875 36.796875 7.09375 
Q 34.59375 3.40625 31.1875 1.203125 
Q 27.796875 -1 23.40625 -1 
z
M 24.5 5.296875 
Q 28.90625 5.296875 31.546875 7.6875 
Q 34.203125 10.09375 35.34375 14.140625 
Q 36.5 18.203125 36.5 23.09375 
Q 36.5 30.796875 33.5 35.890625 
Q 30.5 41 23.90625 41 
Q 17.796875 41 14.640625 36.5 
Q 11.5 32 11.5 24.40625 
Q 11.5 15.796875 14.796875 10.546875 
Q 18.09375 5.296875 24.5 5.296875 
z
" id="Inconsolata-Regular-100"/>
      <path d="M 21.09375 -1.09375 
Q 13.296875 -1.09375 9.09375 2.453125 
Q 4.90625 6 4.90625 11.5 
Q 4.90625 16.40625 8 19.953125 
Q 11.09375 23.5 16.34375 25.453125 
Q 21.59375 27.40625 27.90625 27.40625 
Q 30.203125 27.40625 32.75 27.296875 
Q 35.296875 27.203125 38.203125 26.796875 
Q 37.59375 34.796875 34.046875 37.796875 
Q 30.5 40.796875 23.90625 40.796875 
Q 20.59375 40.796875 17.390625 39.546875 
Q 14.203125 38.296875 11.59375 35.703125 
L 8.09375 40.296875 
Q 11.296875 43.5 15.5 45.09375 
Q 19.703125 46.703125 24.40625 46.703125 
Q 30.5 46.703125 35 44.703125 
Q 39.5 42.703125 42 37.796875 
Q 44.5 32.90625 44.5 24.296875 
L 44.5 0 
L 36.703125 0 
L 36.703125 7 
Q 35 3.703125 32.34375 1.953125 
Q 29.703125 0.203125 26.75 -0.4375 
Q 23.796875 -1.09375 21.09375 -1.09375 
z
M 12.09375 11.90625 
Q 12.09375 7.59375 14.890625 6 
Q 17.703125 4.40625 21.796875 4.40625 
Q 29.203125 4.40625 33.5 8.75 
Q 37.796875 13.09375 38.203125 21.296875 
Q 33 22 28.5 22 
Q 21.296875 22 16.6875 19.59375 
Q 12.09375 17.203125 12.09375 11.90625 
z
" id="Inconsolata-Regular-97"/>
      <path d="M 10 0 
L 10 5.796875 
L 21.703125 5.796875 
L 21.703125 39.90625 
L 10.59375 39.90625 
L 10.59375 45.703125 
L 28.90625 45.703125 
L 28.90625 5.796875 
L 39.59375 5.796875 
L 39.59375 0 
z
M 24.90625 55.296875 
Q 22.796875 55.296875 21.296875 56.796875 
Q 19.796875 58.296875 19.796875 60.40625 
Q 19.796875 62.59375 21.25 64.09375 
Q 22.703125 65.59375 24.90625 65.59375 
Q 27 65.59375 28.546875 64.046875 
Q 30.09375 62.5 30.09375 60.40625 
Q 30.09375 58.296875 28.546875 56.796875 
Q 27 55.296875 24.90625 55.296875 
z
" id="Inconsolata-Regular-105"/>
      <path d="M 7.90625 0 
L 7.90625 5.796875 
L 21.40625 5.796875 
L 21.40625 60.703125 
L 8.5 60.703125 
L 8.5 66.5 
L 28.703125 66.5 
L 28.703125 5.796875 
L 42.09375 5.796875 
L 42.09375 0 
z
" id="Inconsolata-Regular-108"/>
      <path d="M 12.703125 -17.40625 
Q 6.296875 -17.40625 2.203125 -13.5 
L 5.296875 -8.59375 
L 5.90625 -7.703125 
L 6.5 -8.09375 
Q 6.703125 -8.90625 7.203125 -9.453125 
Q 7.703125 -10 9.09375 -10.90625 
Q 10.90625 -11.5 13.09375 -11.5 
Q 17 -11.5 19.203125 -8.75 
Q 21.40625 -6 23.296875 -0.296875 
L 4.59375 45.703125 
L 12.09375 45.703125 
L 26.296875 9.09375 
L 32.296875 27.5 
Q 33.796875 32.09375 35.1875 36.59375 
Q 36.59375 41.09375 37.09375 45.703125 
L 44.296875 45.703125 
Q 43.59375 41.09375 42.09375 36.390625 
Q 40.59375 31.703125 38.90625 27 
L 27.5 -5.203125 
Q 25.09375 -11.90625 21.34375 -14.65625 
Q 17.59375 -17.40625 12.703125 -17.40625 
z
" id="Inconsolata-Regular-121"/>
      <path id="Inconsolata-Regular-32"/>
      <path d="M 28.5 -1.09375 
Q 21.90625 -1.09375 16.703125 2 
Q 11.5 5.09375 8.546875 10.5 
Q 5.59375 15.90625 5.59375 22.796875 
Q 5.59375 29.703125 8.546875 35.046875 
Q 11.5 40.40625 16.640625 43.5 
Q 21.796875 46.59375 28.40625 46.59375 
Q 34 46.59375 38.453125 44.34375 
Q 42.90625 42.09375 45.703125 38.09375 
L 41.203125 33.703125 
L 40.5 33 
L 40 33.5 
Q 40 34.296875 39.640625 35 
Q 39.296875 35.703125 38.09375 36.90625 
Q 35.90625 38.90625 33.40625 39.703125 
Q 30.90625 40.5 27.59375 40.5 
Q 23.796875 40.5 20.4375 38.390625 
Q 17.09375 36.296875 15.046875 32.4375 
Q 13 28.59375 13 23.296875 
Q 13 18.203125 15.046875 14.140625 
Q 17.09375 10.09375 20.6875 7.75 
Q 24.296875 5.40625 28.90625 5.40625 
Q 35.796875 5.40625 40.796875 11 
L 45 6.09375 
Q 38.296875 -1.09375 28.5 -1.09375 
z
" id="Inconsolata-Regular-99"/>
      <path d="M 7.296875 66.5 
L 15.203125 66.5 
L 15.203125 65.796875 
Q 14.59375 65.203125 14.4375 64.5 
Q 14.296875 63.796875 14.296875 62.09375 
L 14.296875 37.59375 
Q 17 41.796875 21.046875 44.296875 
Q 25.09375 46.796875 29.296875 46.796875 
Q 35.5 46.796875 39.34375 42.4375 
Q 43.203125 38.09375 43.203125 27.703125 
L 43.203125 0 
L 36.203125 0 
L 36.203125 27.5 
Q 36.203125 34.703125 33.75 37.59375 
Q 31.296875 40.5 27.796875 40.5 
Q 24.796875 40.5 21.640625 38.796875 
Q 18.5 37.09375 16.390625 33.9375 
Q 14.296875 30.796875 14.296875 26.296875 
L 14.296875 0 
L 7.296875 0 
z
" id="Inconsolata-Regular-104"/>
      <path d="M 7.203125 0 
L 7.203125 45.703125 
L 14.203125 45.703125 
L 14.203125 37.59375 
Q 16.796875 41.796875 20.9375 44.296875 
Q 25.09375 46.796875 29.703125 46.796875 
Q 35.296875 46.796875 39.1875 42.4375 
Q 43.09375 38.09375 43.09375 27.703125 
L 43.09375 0 
L 36.09375 0 
L 36.09375 27.5 
Q 36.09375 34.703125 33.640625 37.59375 
Q 31.203125 40.5 27.703125 40.5 
Q 24.703125 40.5 21.546875 38.75 
Q 18.40625 37 16.296875 33.84375 
Q 14.203125 30.703125 14.203125 26.296875 
L 14.203125 0 
z
" id="Inconsolata-Regular-110"/>
      <path d="M 22.59375 15.5 
Q 18.703125 15.5 15.5 16.90625 
Q 13.703125 14.703125 13.703125 12.703125 
Q 13.703125 10.296875 16.703125 9.25 
Q 19.703125 8.203125 27.703125 8.203125 
Q 34.703125 8.203125 38.296875 6.703125 
Q 41.90625 5.203125 43.203125 2.59375 
Q 44.5 0 44.5 -3.40625 
Q 44.5 -6.90625 42.59375 -10.09375 
Q 40.703125 -13.296875 36.34375 -15.25 
Q 32 -17.203125 24.703125 -17.203125 
Q 15.09375 -17.203125 9.4375 -14.25 
Q 3.796875 -11.296875 3.796875 -5.40625 
Q 3.796875 -1.703125 5.890625 0.9375 
Q 8 3.59375 10.90625 4.90625 
Q 7.59375 7.09375 7.59375 11 
Q 7.59375 13.203125 8.6875 15.296875 
Q 9.796875 17.40625 11.703125 19.40625 
Q 6.59375 23.90625 6.59375 31.5 
Q 6.59375 35.90625 8.546875 39.5 
Q 10.5 43.09375 14.09375 45.25 
Q 17.703125 47.40625 22.59375 47.40625 
Q 26.296875 47.40625 29.25 46.15625 
Q 32.203125 44.90625 34.296875 42.703125 
Q 36.90625 45.09375 39.796875 46.140625 
Q 42.703125 47.203125 46.59375 46.90625 
L 47.5 41 
Q 44.5 41.296875 41.84375 40.890625 
Q 39.203125 40.5 36.90625 39 
Q 38.59375 35.59375 38.59375 31.5 
Q 38.59375 27.09375 36.640625 23.4375 
Q 34.703125 19.796875 31.140625 17.640625 
Q 27.59375 15.5 22.59375 15.5 
z
M 22.59375 21.5 
Q 27 21.5 29.796875 24.453125 
Q 32.59375 27.40625 32.59375 31.5 
Q 32.59375 35.59375 29.796875 38.546875 
Q 27 41.5 22.59375 41.5 
Q 18.296875 41.5 15.4375 38.546875 
Q 12.59375 35.59375 12.59375 31.5 
Q 12.59375 27.40625 15.4375 24.453125 
Q 18.296875 21.5 22.59375 21.5 
z
M 10.40625 -4.59375 
Q 10.40625 -8 14.25 -9.890625 
Q 18.09375 -11.796875 24.796875 -11.796875 
Q 31.59375 -11.796875 34.75 -9.75 
Q 37.90625 -7.703125 37.90625 -4.5 
Q 37.90625 -2.296875 37.09375 -0.890625 
Q 36.296875 0.5 33.796875 1.203125 
Q 31.296875 1.90625 26.203125 1.90625 
Q 22.703125 1.90625 19.84375 2.203125 
Q 17 2.5 14.703125 3.203125 
Q 12.40625 1.59375 11.40625 -0.046875 
Q 10.40625 -1.703125 10.40625 -4.59375 
z
" id="Inconsolata-Regular-103"/>
      <path d="M 27.203125 -1 
Q 17.203125 -1 11.046875 5.09375 
Q 4.90625 11.203125 4.90625 22.703125 
Q 4.90625 30.5 7.75 35.84375 
Q 10.59375 41.203125 15.34375 44 
Q 20.09375 46.796875 25.90625 46.796875 
Q 31.09375 46.796875 35.296875 44.5 
Q 39.5 42.203125 42 37.390625 
Q 44.5 32.59375 44.5 25.09375 
Q 44.5 24.296875 44.453125 23.4375 
Q 44.40625 22.59375 44.296875 21.796875 
L 11.796875 21.796875 
Q 12.203125 13 16.75 8.890625 
Q 21.296875 4.796875 27.40625 4.796875 
Q 34.59375 4.796875 39.203125 9.90625 
L 43.203125 6 
Q 37.40625 -1 27.203125 -1 
z
M 12.09375 27.40625 
L 37.203125 27.40625 
Q 37.203125 33.796875 33.953125 37.546875 
Q 30.703125 41.296875 25.40625 41.296875 
Q 20.703125 41.296875 16.890625 37.9375 
Q 13.09375 34.59375 12.09375 27.40625 
z
" id="Inconsolata-Regular-101"/>
     </defs>
     <g style="fill:#555555;" transform="translate(66.91125 125.55)rotate(-90)scale(0.12 -0.12)">
      <use xlink:href="#Inconsolata-Regular-100"/>
      <use x="49.999985" xlink:href="#Inconsolata-Regular-97"/>
      <use x="99.999969" xlink:href="#Inconsolata-Regular-105"/>
      <use x="149.999954" xlink:href="#Inconsolata-Regular-108"/>
      <use x="199.999939" xlink:href="#Inconsolata-Regular-121"/>
      <use x="249.999924" xlink:href="#Inconsolata-Regular-32"/>
      <use x="299.999908" xlink:href="#Inconsolata-Regular-99"/>
      <use x="349.999893" xlink:href="#Inconsolata-Regular-104"/>
      <use x="399.999878" xlink:href="#Inconsolata-Regular-97"/>
      <use x="449.999863" xlink:href="#Inconsolata-Regular-110"/>
      <use x="499.999847" xlink:href="#Inconsolata-Regular-103"/>
      <use x="549.999832" xlink:href="#Inconsolata-Regular-101"/>
     </g>
    </g>
   </g>
   <g id="patch_3">
    <path clip-path="url(#pde24fc8dd5)" d="M 117.208264 157.5 
L 119.667769 157.5 
L 119.667769 157.5 
L 117.208264 157.5 
z
" style="fill:#e24a33;opacity:0.2;"/>
   </g>
   <g id="patch_4">
    <path clip-path="url(#pde24fc8dd5)" d="M 120.282645 157.5 
L 122.742149 157.5 
L 122.742149 157.5 
L 120.282645 157.5 
z
" style="fill:#e24a33;opacity:0.2;"/>
   </g>
   <g id="patch_5">
    <path clip-path="url(#pde24fc8dd5)" d="M 123.357025 157.5 
L 125.816529 157.5 
L 125.816529 157.5 
L 123.357025 157.5 
z
" style="fill:#e24a33;opacity:0.2;"/>
   </g>
   <g id="patch_6">
    <path clip-path="url(#pde24fc8dd5)" d="M 126.431405 157.5 
L 128.890909 157.5 
L 128.890909 157.5 
L 126.431405 157.5 
z
" style="fill:#e24a33;opacity:0.2;"/>
   </g>
   <g id="patch_7">
    <path clip-path="url(#pde24fc8dd5)" d="M 129.505785 157.5 
L 131.965289 157.5 
L 131.965289 157.5 
L 129.505785 157.5 
z
" style="fill:#e24a33;opacity:0.2;"/>
   </g>
   <g id="patch_8">
    <path clip-path="url(#pde24fc8dd5)" d="M 132.580165 157.5 
L 135.039669 157.5 
L 135.039669 157.5 
L 132.580165 157.5 
z
" style="fill:#e24a33;opacity:0.2;"/>
   </g>
   <g id="patch_9">
    <path clip-path="url(#pde24fc8dd5)" d="M 135.654545 157.5 
L 138.11405 157.5 
L 138.11405 157.5 
L 135.654545 157.5 
z
" style="fill:#e24a33;opacity:0.2;"/>
   </g>
   <g id="patch_10">
    <path clip-path="url(#pde24fc8dd5)" d="M 138.728926 157.5 
L 141.18843 157.5 
L 141.18843 157.5 
L 138.728926 157.5 
z
" style="fill:#e24a33;opacity:0.2;"/>
   </g>
   <g id="patch_11">
    <path clip-path="url(#pde24fc8dd5)" d="M 141.803306 157.5 
L 144.26281 157.5 
L 144.26281 157.5 
L 141.803306 157.5 
z
" style="fill:#e24a33;opacity:0.2;"/>
   </g>
   <g id="patch_12">
    <path clip-path="url(#pde24fc8dd5)" d="M 144.877686 157.5 
L 147.33719 157.5 
L 147.33719 157.5 
L 144.877686 157.5 
z
" style="fill:#e24a33;opacity:0.2;"/>
   </g>
   <g id="patch_13">
    <path clip-path="url(#pde24fc8dd5)" d="M 147.952066 157.5 
L 150.41157 157.5 
L 150.41157 157.5 
L 147.952066 157.5 
z
" style="fill:#e24a33;opacity:0.2;"/>
   </g>
   <g id="patch_14">
    <path clip-path="url(#pde24fc8dd5)" d="M 151.026446 157.5 
L 153.48595 157.5 
L 153.48595 157.5 
L 151.026446 157.5 
z
" style="fill:#e24a33;opacity:0.2;"/>
   </g>
   <g id="patch_15">
    <path clip-path="url(#pde24fc8dd5)" d="M 154.100826 157.5 
L 156.560331 157.5 
L 156.560331 157.5 
L 154.100826 157.5 
z
" style="fill:#e24a33;opacity:0.2;"/>
   </g>
   <g id="patch_16">
    <path clip-path="url(#pde24fc8dd5)" d="M 157.175207 157.5 
L 159.634711 157.5 
L 159.634711 157.5 
L 157.175207 157.5 
z
" style="fill:#e24a33;opacity:0.2;"/>
   </g>
   <g id="patch_17">
    <path clip-path="url(#pde24fc8dd5)" d="M 160.249587 157.5 
L 162.709091 157.5 
L 162.709091 157.5 
L 160.249587 157.5 
z
" style="fill:#e24a33;opacity:0.2;"/>
   </g>
   <g id="patch_18">
    <path clip-path="url(#pde24fc8dd5)" d="M 163.323967 157.5 
L 165.783471 157.5 
L 165.783471 157.5 
L 163.323967 157.5 
z
" style="fill:#e24a33;opacity:0.2;"/>
   </g>
   <g id="patch_19">
    <path clip-path="url(#pde24fc8dd5)" d="M 166.398347 157.5 
L 168.857851 157.5 
L 168.857851 157.5 
L 166.398347 157.5 
z
" style="fill:#e24a33;opacity:0.2;"/>
   </g>
   <g id="patch_20">
    <path clip-path="url(#pde24fc8dd5)" d="M 169.472727 157.5 
L 171.932231 157.5 
L 171.932231 157.5 
L 169.472727 157.5 
z
" style="fill:#e24a33;opacity:0.2;"/>
   </g>
   <g id="patch_21">
    <path clip-path="url(#pde24fc8dd5)" d="M 172.547107 157.5 
L 175.006612 157.5 
L 175.006612 157.5 
L 172.547107 157.5 
z
" style="fill:#e24a33;opacity:0.2;"/>
   </g>
   <g id="patch_22">
    <path clip-path="url(#pde24fc8dd5)" d="M 175.621488 157.5 
L 178.080992 157.5 
L 178.080992 157.5 
L 175.621488 157.5 
z
" style="fill:#e24a33;opacity:0.2;"/>
   </g>
   <g id="patch_23">
    <path clip-path="url(#pde24fc8dd5)" d="M 178.695868 157.5 
L 181.155372 157.5 
L 181.155372 157.5 
L 178.695868 157.5 
z
" style="fill:#e24a33;opacity:0.2;"/>
   </g>
   <g id="patch_24">
    <path clip-path="url(#pde24fc8dd5)" d="M 181.770248 157.5 
L 184.229752 157.5 
L 184.229752 157.5 
L 181.770248 157.5 
z
" style="fill:#e24a33;opacity:0.2;"/>
   </g>
   <g id="patch_25">
    <path clip-path="url(#pde24fc8dd5)" d="M 184.844628 157.5 
L 187.304132 157.5 
L 187.304132 157.5 
L 184.844628 157.5 
z
" style="fill:#e24a33;opacity:0.2;"/>
   </g>
   <g id="patch_26">
    <path clip-path="url(#pde24fc8dd5)" d="M 187.919008 157.5 
L 190.378512 157.5 
L 190.378512 157.5 
L 187.919008 157.5 
z
" style="fill:#e24a33;opacity:0.2;"/>
   </g>
   <g id="patch_27">
    <path clip-path="url(#pde24fc8dd5)" d="M 190.993388 157.5 
L 193.452893 157.5 
L 193.452893 157.5 
L 190.993388 157.5 
z
" style="fill:#e24a33;opacity:0.2;"/>
   </g>
   <g id="patch_28">
    <path clip-path="url(#pde24fc8dd5)" d="M 194.067769 157.5 
L 196.527273 157.5 
L 196.527273 157.5 
L 194.067769 157.5 
z
" style="fill:#e24a33;opacity:0.2;"/>
   </g>
   <g id="patch_29">
    <path clip-path="url(#pde24fc8dd5)" d="M 197.142149 157.5 
L 199.601653 157.5 
L 199.601653 157.5 
L 197.142149 157.5 
z
" style="fill:#e24a33;opacity:0.2;"/>
   </g>
   <g id="patch_30">
    <path clip-path="url(#pde24fc8dd5)" d="M 200.216529 157.5 
L 202.676033 157.5 
L 202.676033 157.5 
L 200.216529 157.5 
z
" style="fill:#e24a33;opacity:0.2;"/>
   </g>
   <g id="patch_31">
    <path clip-path="url(#pde24fc8dd5)" d="M 203.290909 157.5 
L 205.750413 157.5 
L 205.750413 145.733766 
L 203.290909 145.733766 
z
" style="fill:#e24a33;opacity:0.2;"/>
   </g>
   <g id="patch_32">
    <path clip-path="url(#pde24fc8dd5)" d="M 206.365289 157.5 
L 208.824793 157.5 
L 208.824793 145.733766 
L 206.365289 145.733766 
z
" style="fill:#e24a33;opacity:0.2;"/>
   </g>
   <g id="patch_33">
    <path clip-path="url(#pde24fc8dd5)" d="M 209.439669 157.5 
L 211.899174 157.5 
L 211.899174 157.5 
L 209.439669 157.5 
z
" style="fill:#e24a33;opacity:0.2;"/>
   </g>
   <g id="patch_34">
    <path clip-path="url(#pde24fc8dd5)" d="M 212.51405 157.5 
L 214.973554 157.5 
L 214.973554 110.435065 
L 212.51405 110.435065 
z
" style="fill:#e24a33;opacity:0.2;"/>
   </g>
   <g id="patch_35">
    <path clip-path="url(#pde24fc8dd5)" d="M 215.58843 157.5 
L 218.047934 157.5 
L 218.047934 133.967532 
L 215.58843 133.967532 
z
" style="fill:#e24a33;opacity:0.2;"/>
   </g>
   <g id="patch_36">
    <path clip-path="url(#pde24fc8dd5)" d="M 218.66281 157.5 
L 221.122314 157.5 
L 221.122314 133.967532 
L 218.66281 133.967532 
z
" style="fill:#e24a33;opacity:0.2;"/>
   </g>
   <g id="patch_37">
    <path clip-path="url(#pde24fc8dd5)" d="M 221.73719 157.5 
L 224.196694 157.5 
L 224.196694 133.967532 
L 221.73719 133.967532 
z
" style="fill:#e24a33;opacity:0.2;"/>
   </g>
   <g id="patch_38">
    <path clip-path="url(#pde24fc8dd5)" d="M 224.81157 157.5 
L 227.271074 157.5 
L 227.271074 145.733766 
L 224.81157 145.733766 
z
" style="fill:#e24a33;opacity:0.2;"/>
   </g>
   <g id="patch_39">
    <path clip-path="url(#pde24fc8dd5)" d="M 227.88595 157.5 
L 230.345455 157.5 
L 230.345455 157.5 
L 227.88595 157.5 
z
" style="fill:#e24a33;opacity:0.2;"/>
   </g>
   <g id="patch_40">
    <path clip-path="url(#pde24fc8dd5)" d="M 230.960331 157.5 
L 233.419835 157.5 
L 233.419835 122.201299 
L 230.960331 122.201299 
z
" style="fill:#e24a33;opacity:0.2;"/>
   </g>
   <g id="patch_41">
    <path clip-path="url(#pde24fc8dd5)" d="M 234.034711 157.5 
L 236.494215 157.5 
L 236.494215 145.733766 
L 234.034711 145.733766 
z
" style="fill:#e24a33;opacity:0.2;"/>
   </g>
   <g id="patch_42">
    <path clip-path="url(#pde24fc8dd5)" d="M 237.109091 157.5 
L 239.568595 157.5 
L 239.568595 28.071429 
L 237.109091 28.071429 
z
" style="fill:#e24a33;opacity:0.2;"/>
   </g>
   <g id="patch_43">
    <path clip-path="url(#pde24fc8dd5)" d="M 240.183471 157.5 
L 242.642975 157.5 
L 242.642975 157.5 
L 240.183471 157.5 
z
" style="fill:#e24a33;opacity:0.2;"/>
   </g>
   <g id="patch_44">
    <path clip-path="url(#pde24fc8dd5)" d="M 243.257851 157.5 
L 245.717355 157.5 
L 245.717355 75.136364 
L 243.257851 75.136364 
z
" style="fill:#e24a33;opacity:0.2;"/>
   </g>
   <g id="patch_45">
    <path clip-path="url(#pde24fc8dd5)" d="M 246.332231 157.5 
L 248.791736 157.5 
L 248.791736 157.5 
L 246.332231 157.5 
z
" style="fill:#e24a33;opacity:0.2;"/>
   </g>
   <g id="patch_46">
    <path clip-path="url(#pde24fc8dd5)" d="M 249.406612 157.5 
L 251.866116 157.5 
L 251.866116 75.136364 
L 249.406612 75.136364 
z
" style="fill:#e24a33;opacity:0.2;"/>
   </g>
   <g id="patch_47">
    <path clip-path="url(#pde24fc8dd5)" d="M 252.480992 157.5 
L 254.940496 157.5 
L 254.940496 133.967532 
L 252.480992 133.967532 
z
" style="fill:#e24a33;opacity:0.2;"/>
   </g>
   <g id="patch_48">
    <path clip-path="url(#pde24fc8dd5)" d="M 255.555372 157.5 
L 258.014876 157.5 
L 258.014876 86.902597 
L 255.555372 86.902597 
z
" style="fill:#e24a33;opacity:0.2;"/>
   </g>
   <g id="patch_49">
    <path clip-path="url(#pde24fc8dd5)" d="M 258.629752 157.5 
L 261.089256 157.5 
L 261.089256 122.201299 
L 258.629752 122.201299 
z
" style="fill:#e24a33;opacity:0.2;"/>
   </g>
   <g id="patch_50">
    <path clip-path="url(#pde24fc8dd5)" d="M 261.704132 157.5 
L 264.163636 157.5 
L 264.163636 145.733766 
L 261.704132 145.733766 
z
" style="fill:#e24a33;opacity:0.2;"/>
   </g>
   <g id="patch_51">
    <path clip-path="url(#pde24fc8dd5)" d="M 264.778512 157.5 
L 267.238017 157.5 
L 267.238017 86.902597 
L 264.778512 86.902597 
z
" style="fill:#e24a33;opacity:0.2;"/>
   </g>
   <g id="patch_52">
    <path clip-path="url(#pde24fc8dd5)" d="M 267.852893 157.5 
L 270.312397 157.5 
L 270.312397 86.902597 
L 267.852893 86.902597 
z
" style="fill:#e24a33;opacity:0.2;"/>
   </g>
   <g id="patch_53">
    <path clip-path="url(#pde24fc8dd5)" d="M 270.927273 157.5 
L 273.386777 157.5 
L 273.386777 157.5 
L 270.927273 157.5 
z
" style="fill:#e24a33;opacity:0.2;"/>
   </g>
   <g id="patch_54">
    <path clip-path="url(#pde24fc8dd5)" d="M 274.001653 157.5 
L 276.461157 157.5 
L 276.461157 86.902597 
L 274.001653 86.902597 
z
" style="fill:#e24a33;opacity:0.2;"/>
   </g>
   <g id="patch_55">
    <path clip-path="url(#pde24fc8dd5)" d="M 277.076033 157.5 
L 279.535537 157.5 
L 279.535537 122.201299 
L 277.076033 122.201299 
z
" style="fill:#e24a33;opacity:0.2;"/>
   </g>
   <g id="patch_56">
    <path clip-path="url(#pde24fc8dd5)" d="M 280.150413 157.5 
L 282.609917 157.5 
L 282.609917 157.5 
L 280.150413 157.5 
z
" style="fill:#e24a33;opacity:0.2;"/>
   </g>
   <g id="patch_57">
    <path clip-path="url(#pde24fc8dd5)" d="M 283.224793 157.5 
L 285.684298 157.5 
L 285.684298 86.902597 
L 283.224793 86.902597 
z
" style="fill:#e24a33;opacity:0.2;"/>
   </g>
   <g id="patch_58">
    <path clip-path="url(#pde24fc8dd5)" d="M 286.299174 157.5 
L 288.758678 157.5 
L 288.758678 122.201299 
L 286.299174 122.201299 
z
" style="fill:#e24a33;opacity:0.2;"/>
   </g>
   <g id="patch_59">
    <path clip-path="url(#pde24fc8dd5)" d="M 289.373554 157.5 
L 291.833058 157.5 
L 291.833058 75.136364 
L 289.373554 75.136364 
z
" style="fill:#e24a33;opacity:0.2;"/>
   </g>
   <g id="patch_60">
    <path clip-path="url(#pde24fc8dd5)" d="M 292.447934 157.5 
L 294.907438 157.5 
L 294.907438 122.201299 
L 292.447934 122.201299 
z
" style="fill:#e24a33;opacity:0.2;"/>
   </g>
   <g id="patch_61">
    <path clip-path="url(#pde24fc8dd5)" d="M 295.522314 157.5 
L 297.981818 157.5 
L 297.981818 63.37013 
L 295.522314 63.37013 
z
" style="fill:#e24a33;opacity:0.2;"/>
   </g>
   <g id="patch_62">
    <path clip-path="url(#pde24fc8dd5)" d="M 298.596694 157.5 
L 301.056198 157.5 
L 301.056198 51.603896 
L 298.596694 51.603896 
z
" style="fill:#e24a33;opacity:0.2;"/>
   </g>
   <g id="patch_63">
    <path clip-path="url(#pde24fc8dd5)" d="M 301.671074 157.5 
L 304.130579 157.5 
L 304.130579 157.5 
L 301.671074 157.5 
z
" style="fill:#e24a33;opacity:0.2;"/>
   </g>
   <g id="patch_64">
    <path clip-path="url(#pde24fc8dd5)" d="M 304.745455 157.5 
L 307.204959 157.5 
L 307.204959 51.603896 
L 304.745455 51.603896 
z
" style="fill:#e24a33;opacity:0.2;"/>
   </g>
   <g id="patch_65">
    <path clip-path="url(#pde24fc8dd5)" d="M 307.819835 157.5 
L 310.279339 157.5 
L 310.279339 86.902597 
L 307.819835 86.902597 
z
" style="fill:#e24a33;opacity:0.2;"/>
   </g>
   <g id="patch_66">
    <path clip-path="url(#pde24fc8dd5)" d="M 310.894215 157.5 
L 313.353719 157.5 
L 313.353719 98.668831 
L 310.894215 98.668831 
z
" style="fill:#e24a33;opacity:0.2;"/>
   </g>
   <g id="patch_67">
    <path clip-path="url(#pde24fc8dd5)" d="M 313.968595 157.5 
L 316.428099 157.5 
L 316.428099 63.37013 
L 313.968595 63.37013 
z
" style="fill:#e24a33;opacity:0.2;"/>
   </g>
   <g id="patch_68">
    <path clip-path="url(#pde24fc8dd5)" d="M 317.042975 157.5 
L 319.502479 157.5 
L 319.502479 98.668831 
L 317.042975 98.668831 
z
" style="fill:#e24a33;opacity:0.2;"/>
   </g>
   <g id="patch_69">
    <path clip-path="url(#pde24fc8dd5)" d="M 320.117355 157.5 
L 322.57686 157.5 
L 322.57686 63.37013 
L 320.117355 63.37013 
z
" style="fill:#e24a33;opacity:0.2;"/>
   </g>
   <g id="patch_70">
    <path clip-path="url(#pde24fc8dd5)" d="M 323.191736 157.5 
L 325.65124 157.5 
L 325.65124 86.902597 
L 323.191736 86.902597 
z
" style="fill:#e24a33;opacity:0.2;"/>
   </g>
   <g id="patch_71">
    <path clip-path="url(#pde24fc8dd5)" d="M 326.266116 157.5 
L 328.72562 157.5 
L 328.72562 110.435065 
L 326.266116 110.435065 
z
" style="fill:#e24a33;opacity:0.2;"/>
   </g>
   <g id="patch_72">
    <path clip-path="url(#pde24fc8dd5)" d="M 329.340496 157.5 
L 331.8 157.5 
L 331.8 122.201299 
L 329.340496 122.201299 
z
" style="fill:#e24a33;opacity:0.2;"/>
   </g>
   <g id="patch_73">
    <path clip-path="url(#pde24fc8dd5)" d="M 332.414876 157.5 
L 334.87438 157.5 
L 334.87438 110.435065 
L 332.414876 110.435065 
z
" style="fill:#e24a33;opacity:0.2;"/>
   </g>
   <g id="patch_74">
    <path clip-path="url(#pde24fc8dd5)" d="M 335.489256 157.5 
L 337.94876 157.5 
L 337.94876 98.668831 
L 335.489256 98.668831 
z
" style="fill:#e24a33;opacity:0.2;"/>
   </g>
   <g id="patch_75">
    <path clip-path="url(#pde24fc8dd5)" d="M 338.563636 157.5 
L 341.02314 157.5 
L 341.02314 122.201299 
L 338.563636 122.201299 
z
" style="fill:#e24a33;opacity:0.2;"/>
   </g>
   <g id="patch_76">
    <path clip-path="url(#pde24fc8dd5)" d="M 341.638017 157.5 
L 344.097521 157.5 
L 344.097521 86.902597 
L 341.638017 86.902597 
z
" style="fill:#e24a33;opacity:0.2;"/>
   </g>
   <g id="patch_77">
    <path clip-path="url(#pde24fc8dd5)" d="M 344.712397 157.5 
L 347.171901 157.5 
L 347.171901 122.201299 
L 344.712397 122.201299 
z
" style="fill:#e24a33;opacity:0.2;"/>
   </g>
   <g id="patch_78">
    <path clip-path="url(#pde24fc8dd5)" d="M 347.786777 157.5 
L 350.246281 157.5 
L 350.246281 86.902597 
L 347.786777 86.902597 
z
" style="fill:#e24a33;opacity:0.2;"/>
   </g>
   <g id="patch_79">
    <path clip-path="url(#pde24fc8dd5)" d="M 350.861157 157.5 
L 353.320661 157.5 
L 353.320661 63.37013 
L 350.861157 63.37013 
z
" style="fill:#e24a33;opacity:0.2;"/>
   </g>
   <g id="patch_80">
    <path clip-path="url(#pde24fc8dd5)" d="M 353.935537 157.5 
L 356.395041 157.5 
L 356.395041 110.435065 
L 353.935537 110.435065 
z
" style="fill:#e24a33;opacity:0.2;"/>
   </g>
   <g id="patch_81">
    <path clip-path="url(#pde24fc8dd5)" d="M 357.009917 157.5 
L 359.469421 157.5 
L 359.469421 110.435065 
L 357.009917 110.435065 
z
" style="fill:#e24a33;opacity:0.2;"/>
   </g>
   <g id="patch_82">
    <path clip-path="url(#pde24fc8dd5)" d="M 360.084298 157.5 
L 362.543802 157.5 
L 362.543802 122.201299 
L 360.084298 122.201299 
z
" style="fill:#e24a33;opacity:0.2;"/>
   </g>
   <g id="patch_83">
    <path clip-path="url(#pde24fc8dd5)" d="M 363.158678 157.5 
L 365.618182 157.5 
L 365.618182 122.201299 
L 363.158678 122.201299 
z
" style="fill:#e24a33;opacity:0.2;"/>
   </g>
   <g id="patch_84">
    <path clip-path="url(#pde24fc8dd5)" d="M 366.233058 157.5 
L 368.692562 157.5 
L 368.692562 122.201299 
L 366.233058 122.201299 
z
" style="fill:#e24a33;opacity:0.2;"/>
   </g>
   <g id="patch_85">
    <path clip-path="url(#pde24fc8dd5)" d="M 369.307438 157.5 
L 371.766942 157.5 
L 371.766942 98.668831 
L 369.307438 98.668831 
z
" style="fill:#e24a33;opacity:0.2;"/>
   </g>
   <g id="patch_86">
    <path clip-path="url(#pde24fc8dd5)" d="M 372.381818 157.5 
L 374.841322 157.5 
L 374.841322 122.201299 
L 372.381818 122.201299 
z
" style="fill:#e24a33;opacity:0.2;"/>
   </g>
   <g id="patch_87">
    <path clip-path="url(#pde24fc8dd5)" d="M 375.456198 157.5 
L 377.915702 157.5 
L 377.915702 110.435065 
L 375.456198 110.435065 
z
" style="fill:#e24a33;opacity:0.2;"/>
   </g>
   <g id="patch_88">
    <path clip-path="url(#pde24fc8dd5)" d="M 378.530579 157.5 
L 380.990083 157.5 
L 380.990083 145.733766 
L 378.530579 145.733766 
z
" style="fill:#e24a33;opacity:0.2;"/>
   </g>
   <g id="patch_89">
    <path clip-path="url(#pde24fc8dd5)" d="M 381.604959 157.5 
L 384.064463 157.5 
L 384.064463 133.967532 
L 381.604959 133.967532 
z
" style="fill:#e24a33;opacity:0.2;"/>
   </g>
   <g id="patch_90">
    <path clip-path="url(#pde24fc8dd5)" d="M 384.679339 157.5 
L 387.138843 157.5 
L 387.138843 133.967532 
L 384.679339 133.967532 
z
" style="fill:#e24a33;opacity:0.2;"/>
   </g>
   <g id="patch_91">
    <path clip-path="url(#pde24fc8dd5)" d="M 387.753719 157.5 
L 390.213223 157.5 
L 390.213223 133.967532 
L 387.753719 133.967532 
z
" style="fill:#e24a33;opacity:0.2;"/>
   </g>
   <g id="patch_92">
    <path clip-path="url(#pde24fc8dd5)" d="M 390.828099 157.5 
L 393.287603 157.5 
L 393.287603 145.733766 
L 390.828099 145.733766 
z
" style="fill:#e24a33;opacity:0.2;"/>
   </g>
   <g id="patch_93">
    <path clip-path="url(#pde24fc8dd5)" d="M 393.902479 157.5 
L 396.361983 157.5 
L 396.361983 145.733766 
L 393.902479 145.733766 
z
" style="fill:#e24a33;opacity:0.2;"/>
   </g>
   <g id="patch_94">
    <path clip-path="url(#pde24fc8dd5)" d="M 396.97686 157.5 
L 399.436364 157.5 
L 399.436364 133.967532 
L 396.97686 133.967532 
z
" style="fill:#e24a33;opacity:0.2;"/>
   </g>
   <g id="patch_95">
    <path clip-path="url(#pde24fc8dd5)" d="M 400.05124 157.5 
L 402.510744 157.5 
L 402.510744 157.5 
L 400.05124 157.5 
z
" style="fill:#e24a33;opacity:0.2;"/>
   </g>
   <g id="patch_96">
    <path clip-path="url(#pde24fc8dd5)" d="M 403.12562 157.5 
L 405.585124 157.5 
L 405.585124 133.967532 
L 403.12562 133.967532 
z
" style="fill:#e24a33;opacity:0.2;"/>
   </g>
   <g id="patch_97">
    <path clip-path="url(#pde24fc8dd5)" d="M 406.2 157.5 
L 408.659504 157.5 
L 408.659504 145.733766 
L 406.2 145.733766 
z
" style="fill:#e24a33;opacity:0.2;"/>
   </g>
   <g id="patch_98">
    <path clip-path="url(#pde24fc8dd5)" d="M 409.27438 157.5 
L 411.733884 157.5 
L 411.733884 145.733766 
L 409.27438 145.733766 
z
" style="fill:#e24a33;opacity:0.2;"/>
   </g>
   <g id="patch_99">
    <path clip-path="url(#pde24fc8dd5)" d="M 412.34876 157.5 
L 414.808264 157.5 
L 414.808264 133.967532 
L 412.34876 133.967532 
z
" style="fill:#e24a33;opacity:0.2;"/>
   </g>
   <g id="patch_100">
    <path clip-path="url(#pde24fc8dd5)" d="M 415.42314 157.5 
L 417.882645 157.5 
L 417.882645 145.733766 
L 415.42314 145.733766 
z
" style="fill:#e24a33;opacity:0.2;"/>
   </g>
   <g id="patch_101">
    <path clip-path="url(#pde24fc8dd5)" d="M 418.497521 157.5 
L 420.957025 157.5 
L 420.957025 145.733766 
L 418.497521 145.733766 
z
" style="fill:#e24a33;opacity:0.2;"/>
   </g>
   <g id="patch_102">
    <path clip-path="url(#pde24fc8dd5)" d="M 421.571901 157.5 
L 424.031405 157.5 
L 424.031405 133.967532 
L 421.571901 133.967532 
z
" style="fill:#e24a33;opacity:0.2;"/>
   </g>
   <g id="patch_103">
    <path clip-path="url(#pde24fc8dd5)" d="M 424.646281 157.5 
L 427.105785 157.5 
L 427.105785 157.5 
L 424.646281 157.5 
z
" style="fill:#e24a33;opacity:0.2;"/>
   </g>
   <g id="patch_104">
    <path clip-path="url(#pde24fc8dd5)" d="M 427.720661 157.5 
L 430.180165 157.5 
L 430.180165 133.967532 
L 427.720661 133.967532 
z
" style="fill:#e24a33;opacity:0.2;"/>
   </g>
   <g id="patch_105">
    <path clip-path="url(#pde24fc8dd5)" d="M 430.795041 157.5 
L 433.254545 157.5 
L 433.254545 133.967532 
L 430.795041 133.967532 
z
" style="fill:#e24a33;opacity:0.2;"/>
   </g>
   <g id="patch_106">
    <path clip-path="url(#pde24fc8dd5)" d="M 433.869421 157.5 
L 436.328926 157.5 
L 436.328926 145.733766 
L 433.869421 145.733766 
z
" style="fill:#e24a33;opacity:0.2;"/>
   </g>
   <g id="patch_107">
    <path clip-path="url(#pde24fc8dd5)" d="M 436.943802 157.5 
L 439.403306 157.5 
L 439.403306 145.733766 
L 436.943802 145.733766 
z
" style="fill:#e24a33;opacity:0.2;"/>
   </g>
   <g id="patch_108">
    <path clip-path="url(#pde24fc8dd5)" d="M 440.018182 157.5 
L 442.477686 157.5 
L 442.477686 157.5 
L 440.018182 157.5 
z
" style="fill:#e24a33;opacity:0.2;"/>
   </g>
   <g id="patch_109">
    <path clip-path="url(#pde24fc8dd5)" d="M 443.092562 157.5 
L 445.552066 157.5 
L 445.552066 157.5 
L 443.092562 157.5 
z
" style="fill:#e24a33;opacity:0.2;"/>
   </g>
   <g id="patch_110">
    <path clip-path="url(#pde24fc8dd5)" d="M 446.166942 157.5 
L 448.626446 157.5 
L 448.626446 157.5 
L 446.166942 157.5 
z
" style="fill:#e24a33;opacity:0.2;"/>
   </g>
   <g id="patch_111">
    <path clip-path="url(#pde24fc8dd5)" d="M 449.241322 157.5 
L 451.700826 157.5 
L 451.700826 157.5 
L 449.241322 157.5 
z
" style="fill:#e24a33;opacity:0.2;"/>
   </g>
   <g id="patch_112">
    <path clip-path="url(#pde24fc8dd5)" d="M 452.315702 157.5 
L 454.775207 157.5 
L 454.775207 133.967532 
L 452.315702 133.967532 
z
" style="fill:#e24a33;opacity:0.2;"/>
   </g>
   <g id="patch_113">
    <path clip-path="url(#pde24fc8dd5)" d="M 455.390083 157.5 
L 457.849587 157.5 
L 457.849587 145.733766 
L 455.390083 145.733766 
z
" style="fill:#e24a33;opacity:0.2;"/>
   </g>
   <g id="patch_114">
    <path clip-path="url(#pde24fc8dd5)" d="M 458.464463 157.5 
L 460.923967 157.5 
L 460.923967 145.733766 
L 458.464463 145.733766 
z
" style="fill:#e24a33;opacity:0.2;"/>
   </g>
   <g id="patch_115">
    <path clip-path="url(#pde24fc8dd5)" d="M 461.538843 157.5 
L 463.998347 157.5 
L 463.998347 157.5 
L 461.538843 157.5 
z
" style="fill:#e24a33;opacity:0.2;"/>
   </g>
   <g id="patch_116">
    <path clip-path="url(#pde24fc8dd5)" d="M 464.613223 157.5 
L 467.072727 157.5 
L 467.072727 133.967532 
L 464.613223 133.967532 
z
" style="fill:#e24a33;opacity:0.2;"/>
   </g>
   <g id="patch_117">
    <path clip-path="url(#pde24fc8dd5)" d="M 467.687603 157.5 
L 470.147107 157.5 
L 470.147107 157.5 
L 467.687603 157.5 
z
" style="fill:#e24a33;opacity:0.2;"/>
   </g>
   <g id="patch_118">
    <path clip-path="url(#pde24fc8dd5)" d="M 470.761983 157.5 
L 473.221488 157.5 
L 473.221488 145.733766 
L 470.761983 145.733766 
z
" style="fill:#e24a33;opacity:0.2;"/>
   </g>
   <g id="patch_119">
    <path clip-path="url(#pde24fc8dd5)" d="M 473.836364 157.5 
L 476.295868 157.5 
L 476.295868 157.5 
L 473.836364 157.5 
z
" style="fill:#e24a33;opacity:0.2;"/>
   </g>
   <g id="patch_120">
    <path clip-path="url(#pde24fc8dd5)" d="M 476.910744 157.5 
L 479.370248 157.5 
L 479.370248 157.5 
L 476.910744 157.5 
z
" style="fill:#e24a33;opacity:0.2;"/>
   </g>
   <g id="patch_121">
    <path clip-path="url(#pde24fc8dd5)" d="M 479.985124 157.5 
L 482.444628 157.5 
L 482.444628 145.733766 
L 479.985124 145.733766 
z
" style="fill:#e24a33;opacity:0.2;"/>
   </g>
   <g id="patch_122">
    <path clip-path="url(#pde24fc8dd5)" d="M 483.059504 157.5 
L 485.519008 157.5 
L 485.519008 157.5 
L 483.059504 157.5 
z
" style="fill:#e24a33;opacity:0.2;"/>
   </g>
   <g id="patch_123">
    <path clip-path="url(#pde24fc8dd5)" d="M 486.133884 157.5 
L 488.593388 157.5 
L 488.593388 133.967532 
L 486.133884 133.967532 
z
" style="fill:#e24a33;opacity:0.2;"/>
   </g>
   <g id="patch_124">
    <path clip-path="url(#pde24fc8dd5)" d="M 489.208264 157.5 
L 491.667769 157.5 
L 491.667769 157.5 
L 489.208264 157.5 
z
" style="fill:#e24a33;opacity:0.2;"/>
   </g>
   <g id="patch_125">
    <path clip-path="url(#pde24fc8dd5)" d="M 492.282645 157.5 
L 494.742149 157.5 
L 494.742149 145.733766 
L 492.282645 145.733766 
z
" style="fill:#e24a33;opacity:0.2;"/>
   </g>
   <g id="patch_126">
    <path clip-path="url(#pde24fc8dd5)" d="M 495.357025 157.5 
L 497.816529 157.5 
L 497.816529 133.967532 
L 495.357025 133.967532 
z
" style="fill:#e24a33;opacity:0.2;"/>
   </g>
   <g id="patch_127">
    <path clip-path="url(#pde24fc8dd5)" d="M 498.431405 157.5 
L 500.890909 157.5 
L 500.890909 157.5 
L 498.431405 157.5 
z
" style="fill:#e24a33;opacity:0.2;"/>
   </g>
   <g id="patch_128">
    <path clip-path="url(#pde24fc8dd5)" d="M 501.505785 157.5 
L 503.965289 157.5 
L 503.965289 157.5 
L 501.505785 157.5 
z
" style="fill:#e24a33;opacity:0.2;"/>
   </g>
   <g id="patch_129">
    <path clip-path="url(#pde24fc8dd5)" d="M 504.580165 157.5 
L 507.039669 157.5 
L 507.039669 157.5 
L 504.580165 157.5 
z
" style="fill:#e24a33;opacity:0.2;"/>
   </g>
   <g id="patch_130">
    <path clip-path="url(#pde24fc8dd5)" d="M 507.654545 157.5 
L 510.11405 157.5 
L 510.11405 157.5 
L 507.654545 157.5 
z
" style="fill:#e24a33;opacity:0.2;"/>
   </g>
   <g id="patch_131">
    <path clip-path="url(#pde24fc8dd5)" d="M 510.728926 157.5 
L 513.18843 157.5 
L 513.18843 145.733766 
L 510.728926 145.733766 
z
" style="fill:#e24a33;opacity:0.2;"/>
   </g>
   <g id="patch_132">
    <path clip-path="url(#pde24fc8dd5)" d="M 513.803306 157.5 
L 516.26281 157.5 
L 516.26281 145.733766 
L 513.803306 145.733766 
z
" style="fill:#e24a33;opacity:0.2;"/>
   </g>
   <g id="patch_133">
    <path clip-path="url(#pde24fc8dd5)" d="M 516.877686 157.5 
L 519.33719 157.5 
L 519.33719 145.733766 
L 516.877686 145.733766 
z
" style="fill:#e24a33;opacity:0.2;"/>
   </g>
   <g id="patch_134">
    <path clip-path="url(#pde24fc8dd5)" d="M 519.952066 157.5 
L 522.41157 157.5 
L 522.41157 145.733766 
L 519.952066 145.733766 
z
" style="fill:#e24a33;opacity:0.2;"/>
   </g>
   <g id="patch_135">
    <path clip-path="url(#pde24fc8dd5)" d="M 523.026446 157.5 
L 525.48595 157.5 
L 525.48595 157.5 
L 523.026446 157.5 
z
" style="fill:#e24a33;opacity:0.2;"/>
   </g>
   <g id="patch_136">
    <path clip-path="url(#pde24fc8dd5)" d="M 526.100826 157.5 
L 528.560331 157.5 
L 528.560331 157.5 
L 526.100826 157.5 
z
" style="fill:#e24a33;opacity:0.2;"/>
   </g>
   <g id="patch_137">
    <path clip-path="url(#pde24fc8dd5)" d="M 529.175207 157.5 
L 531.634711 157.5 
L 531.634711 157.5 
L 529.175207 157.5 
z
" style="fill:#e24a33;opacity:0.2;"/>
   </g>
   <g id="patch_138">
    <path clip-path="url(#pde24fc8dd5)" d="M 532.249587 157.5 
L 534.709091 157.5 
L 534.709091 157.5 
L 532.249587 157.5 
z
" style="fill:#e24a33;opacity:0.2;"/>
   </g>
   <g id="patch_139">
    <path clip-path="url(#pde24fc8dd5)" d="M 535.323967 157.5 
L 537.783471 157.5 
L 537.783471 157.5 
L 535.323967 157.5 
z
" style="fill:#e24a33;opacity:0.2;"/>
   </g>
   <g id="patch_140">
    <path clip-path="url(#pde24fc8dd5)" d="M 538.398347 157.5 
L 540.857851 157.5 
L 540.857851 145.733766 
L 538.398347 145.733766 
z
" style="fill:#e24a33;opacity:0.2;"/>
   </g>
   <g id="patch_141">
    <path clip-path="url(#pde24fc8dd5)" d="M 541.472727 157.5 
L 543.932231 157.5 
L 543.932231 133.967532 
L 541.472727 133.967532 
z
" style="fill:#e24a33;opacity:0.2;"/>
   </g>
   <g id="patch_142">
    <path clip-path="url(#pde24fc8dd5)" d="M 544.547107 157.5 
L 547.006612 157.5 
L 547.006612 157.5 
L 544.547107 157.5 
z
" style="fill:#e24a33;opacity:0.2;"/>
   </g>
   <g id="patch_143">
    <path clip-path="url(#pde24fc8dd5)" d="M 547.621488 157.5 
L 550.080992 157.5 
L 550.080992 145.733766 
L 547.621488 145.733766 
z
" style="fill:#e24a33;opacity:0.2;"/>
   </g>
   <g id="patch_144">
    <path clip-path="url(#pde24fc8dd5)" d="M 550.695868 157.5 
L 553.155372 157.5 
L 553.155372 157.5 
L 550.695868 157.5 
z
" style="fill:#e24a33;opacity:0.2;"/>
   </g>
   <g id="patch_145">
    <path clip-path="url(#pde24fc8dd5)" d="M 553.770248 157.5 
L 556.229752 157.5 
L 556.229752 157.5 
L 553.770248 157.5 
z
" style="fill:#e24a33;opacity:0.2;"/>
   </g>
   <g id="patch_146">
    <path clip-path="url(#pde24fc8dd5)" d="M 556.844628 157.5 
L 559.304132 157.5 
L 559.304132 157.5 
L 556.844628 157.5 
z
" style="fill:#e24a33;opacity:0.2;"/>
   </g>
   <g id="patch_147">
    <path clip-path="url(#pde24fc8dd5)" d="M 559.919008 157.5 
L 562.378512 157.5 
L 562.378512 145.733766 
L 559.919008 145.733766 
z
" style="fill:#e24a33;opacity:0.2;"/>
   </g>
   <g id="patch_148">
    <path clip-path="url(#pde24fc8dd5)" d="M 562.993388 157.5 
L 565.452893 157.5 
L 565.452893 145.733766 
L 562.993388 145.733766 
z
" style="fill:#e24a33;opacity:0.2;"/>
   </g>
   <g id="patch_149">
    <path clip-path="url(#pde24fc8dd5)" d="M 566.067769 157.5 
L 568.527273 157.5 
L 568.527273 145.733766 
L 566.067769 145.733766 
z
" style="fill:#e24a33;opacity:0.2;"/>
   </g>
   <g id="patch_150">
    <path clip-path="url(#pde24fc8dd5)" d="M 569.142149 157.5 
L 571.601653 157.5 
L 571.601653 157.5 
L 569.142149 157.5 
z
" style="fill:#e24a33;opacity:0.2;"/>
   </g>
   <g id="patch_151">
    <path clip-path="url(#pde24fc8dd5)" d="M 572.216529 157.5 
L 574.676033 157.5 
L 574.676033 157.5 
L 572.216529 157.5 
z
" style="fill:#e24a33;opacity:0.2;"/>
   </g>
   <g id="patch_152">
    <path clip-path="url(#pde24fc8dd5)" d="M 575.290909 157.5 
L 577.750413 157.5 
L 577.750413 157.5 
L 575.290909 157.5 
z
" style="fill:#e24a33;opacity:0.2;"/>
   </g>
   <g id="patch_153">
    <path clip-path="url(#pde24fc8dd5)" d="M 578.365289 157.5 
L 580.824793 157.5 
L 580.824793 157.5 
L 578.365289 157.5 
z
" style="fill:#e24a33;opacity:0.2;"/>
   </g>
   <g id="patch_154">
    <path clip-path="url(#pde24fc8dd5)" d="M 581.439669 157.5 
L 583.899174 157.5 
L 583.899174 145.733766 
L 581.439669 145.733766 
z
" style="fill:#e24a33;opacity:0.2;"/>
   </g>
   <g id="patch_155">
    <path clip-path="url(#pde24fc8dd5)" d="M 584.51405 157.5 
L 586.973554 157.5 
L 586.973554 157.5 
L 584.51405 157.5 
z
" style="fill:#e24a33;opacity:0.2;"/>
   </g>
   <g id="patch_156">
    <path clip-path="url(#pde24fc8dd5)" d="M 587.58843 157.5 
L 590.047934 157.5 
L 590.047934 145.733766 
L 587.58843 145.733766 
z
" style="fill:#e24a33;opacity:0.2;"/>
   </g>
   <g id="patch_157">
    <path clip-path="url(#pde24fc8dd5)" d="M 590.66281 157.5 
L 593.122314 157.5 
L 593.122314 157.5 
L 590.66281 157.5 
z
" style="fill:#e24a33;opacity:0.2;"/>
   </g>
   <g id="patch_158">
    <path clip-path="url(#pde24fc8dd5)" d="M 593.73719 157.5 
L 596.196694 157.5 
L 596.196694 157.5 
L 593.73719 157.5 
z
" style="fill:#e24a33;opacity:0.2;"/>
   </g>
   <g id="patch_159">
    <path clip-path="url(#pde24fc8dd5)" d="M 596.81157 157.5 
L 599.271074 157.5 
L 599.271074 157.5 
L 596.81157 157.5 
z
" style="fill:#e24a33;opacity:0.2;"/>
   </g>
   <g id="patch_160">
    <path clip-path="url(#pde24fc8dd5)" d="M 599.88595 157.5 
L 602.345455 157.5 
L 602.345455 157.5 
L 599.88595 157.5 
z
" style="fill:#e24a33;opacity:0.2;"/>
   </g>
   <g id="patch_161">
    <path clip-path="url(#pde24fc8dd5)" d="M 602.960331 157.5 
L 605.419835 157.5 
L 605.419835 157.5 
L 602.960331 157.5 
z
" style="fill:#e24a33;opacity:0.2;"/>
   </g>
   <g id="patch_162">
    <path clip-path="url(#pde24fc8dd5)" d="M 606.034711 157.5 
L 608.494215 157.5 
L 608.494215 157.5 
L 606.034711 157.5 
z
" style="fill:#e24a33;opacity:0.2;"/>
   </g>
   <g id="patch_163">
    <path clip-path="url(#pde24fc8dd5)" d="M 609.109091 157.5 
L 611.568595 157.5 
L 611.568595 157.5 
L 609.109091 157.5 
z
" style="fill:#e24a33;opacity:0.2;"/>
   </g>
   <g id="patch_164">
    <path clip-path="url(#pde24fc8dd5)" d="M 612.183471 157.5 
L 614.642975 157.5 
L 614.642975 157.5 
L 612.183471 157.5 
z
" style="fill:#e24a33;opacity:0.2;"/>
   </g>
   <g id="patch_165">
    <path clip-path="url(#pde24fc8dd5)" d="M 615.257851 157.5 
L 617.717355 157.5 
L 617.717355 145.733766 
L 615.257851 145.733766 
z
" style="fill:#e24a33;opacity:0.2;"/>
   </g>
   <g id="patch_166">
    <path clip-path="url(#pde24fc8dd5)" d="M 618.332231 157.5 
L 620.791736 157.5 
L 620.791736 157.5 
L 618.332231 157.5 
z
" style="fill:#e24a33;opacity:0.2;"/>
   </g>
   <g id="patch_167">
    <path clip-path="url(#pde24fc8dd5)" d="M 621.406612 157.5 
L 623.866116 157.5 
L 623.866116 145.733766 
L 621.406612 145.733766 
z
" style="fill:#e24a33;opacity:0.2;"/>
   </g>
   <g id="line2d_31">
    <path clip-path="url(#pde24fc8dd5)" d="M 118.438017 157.5 
L 186.07438 157.5 
L 189.14876 157.337803 
L 192.22314 156.890244 
L 195.297521 156.220999 
L 198.371901 154.77146 
L 201.446281 152.618375 
L 204.520661 149.761115 
L 207.595041 146.274506 
L 210.669421 143.014843 
L 213.743802 140.388874 
L 216.818182 138.518675 
L 219.892562 137.656019 
L 222.966942 135.915202 
L 226.041322 133.95374 
L 229.115702 130.752378 
L 235.264463 123.008626 
L 238.338843 118.598399 
L 241.413223 114.721087 
L 244.487603 111.592175 
L 247.561983 110.249049 
L 250.636364 110.622446 
L 253.710744 111.255128 
L 256.785124 112.387208 
L 259.859504 112.546824 
L 262.933884 112.462208 
L 266.008264 113.490386 
L 269.082645 114.160756 
L 272.157025 115.556995 
L 275.231405 115.678436 
L 278.305785 115.409297 
L 281.380165 114.209563 
L 287.528926 107.66363 
L 290.603306 102.973689 
L 293.677686 98.003491 
L 296.752066 94.577424 
L 299.826446 90.793527 
L 302.900826 88.688658 
L 305.975207 87.116655 
L 309.049587 85.720955 
L 315.198347 85.208079 
L 318.272727 86.743389 
L 321.347107 89.117384 
L 324.421488 92.298987 
L 327.495868 96.474864 
L 330.570248 100.14571 
L 333.644628 103.381169 
L 336.719008 104.973097 
L 339.793388 104.897298 
L 342.867769 103.444798 
L 345.942149 101.609654 
L 349.016529 100.836872 
L 352.090909 101.232648 
L 355.165289 102.933908 
L 358.239669 105.275305 
L 361.31405 107.960139 
L 367.46281 114.585668 
L 370.53719 117.785791 
L 373.61157 120.660831 
L 376.68595 123.215883 
L 379.760331 126.197548 
L 382.834711 129.531704 
L 385.909091 133.05742 
L 388.983471 136.280925 
L 392.057851 138.760345 
L 395.132231 140.54693 
L 398.206612 141.639701 
L 401.280992 142.326327 
L 404.355372 142.773887 
L 413.578512 142.648332 
L 422.801653 142.087261 
L 425.876033 142.297528 
L 428.950413 142.858599 
L 432.024793 143.933286 
L 438.173554 147.234452 
L 441.247934 148.765177 
L 444.322314 149.902365 
L 447.396694 150.425109 
L 450.471074 150.455096 
L 453.545455 149.878279 
L 459.694215 148.168602 
L 462.768595 147.940964 
L 465.842975 148.309764 
L 471.991736 150.028482 
L 475.066116 150.575263 
L 478.140496 150.812478 
L 484.289256 149.905316 
L 490.438017 148.724335 
L 493.512397 148.918906 
L 496.586777 149.368843 
L 499.661157 150.196631 
L 502.735537 150.878008 
L 508.884298 151.343563 
L 515.033058 151.058762 
L 518.107438 151.112785 
L 521.181818 151.383155 
L 527.330579 152.682053 
L 530.404959 153.08393 
L 533.479339 152.985411 
L 542.702479 151.226911 
L 545.77686 150.950589 
L 548.85124 150.929643 
L 551.92562 151.055812 
L 564.22314 152.183907 
L 567.297521 152.307074 
L 576.520661 153.276815 
L 579.595041 153.708679 
L 585.743802 154.144196 
L 591.892562 154.576762 
L 601.115702 156.344166 
L 604.190083 156.604881 
L 607.264463 156.344166 
L 610.338843 155.762967 
L 616.487603 154.067311 
L 619.561983 153.205073 
L 622.636364 152.696216 
L 622.636364 152.696216 
" style="fill:none;stroke:#e24a33;stroke-linecap:square;stroke-width:3;"/>
   </g>
   <g id="patch_168">
    <path d="M 90 157.5 
L 90 21.6 
" style="fill:none;stroke:#ffffff;stroke-linecap:square;stroke-linejoin:miter;"/>
   </g>
   <g id="patch_169">
    <path d="M 648 157.5 
L 648 21.6 
" style="fill:none;stroke:#ffffff;stroke-linecap:square;stroke-linejoin:miter;"/>
   </g>
   <g id="patch_170">
    <path d="M 90 157.5 
L 648 157.5 
" style="fill:none;stroke:#ffffff;stroke-linecap:square;stroke-linejoin:miter;"/>
   </g>
   <g id="patch_171">
    <path d="M 90 21.6 
L 648 21.6 
" style="fill:none;stroke:#ffffff;stroke-linecap:square;stroke-linejoin:miter;"/>
   </g>
   <g id="legend_1">
    <g id="patch_172">
     <path d="M 419 57.35 
L 641 57.35 
Q 643 57.35 643 55.35 
L 643 28.6 
Q 643 26.6 641 26.6 
L 419 26.6 
Q 417 26.6 417 28.6 
L 417 55.35 
Q 417 57.35 419 57.35 
z
" style="fill:#e5e5e5;opacity:0.8;stroke:#cccccc;stroke-linejoin:miter;stroke-width:0.5;"/>
    </g>
    <g id="line2d_32">
     <path d="M 421 34.45 
L 441 34.45 
" style="fill:none;stroke:#e24a33;stroke-linecap:square;stroke-width:3;"/>
    </g>
    <g id="line2d_33"/>
    <g id="text_20">
     <!-- Korea, South new deaths (rolling mean) -->
     <defs>
      <path d="M 16.59375 31.203125 
L 11.703125 25.796875 
L 11.703125 0 
L 4.203125 0 
L 4.203125 62.296875 
L 12.59375 62.296875 
L 12.59375 61.59375 
Q 12 61 11.84375 60.296875 
Q 11.703125 59.59375 11.703125 57.90625 
L 11.703125 33.59375 
L 37.703125 62.796875 
Q 38.796875 62.59375 40.09375 62.4375 
Q 41.40625 62.296875 42.90625 62.296875 
L 45.5 62.296875 
L 21.90625 35.40625 
L 47.09375 0 
L 38.09375 -0.40625 
z
" id="Inconsolata-Regular-75"/>
      <path d="M 25 -0.796875 
Q 18.796875 -0.796875 14.046875 2.25 
Q 9.296875 5.296875 6.59375 10.640625 
Q 3.90625 16 3.90625 22.90625 
Q 3.90625 29.90625 6.59375 35.25 
Q 9.296875 40.59375 14.046875 43.640625 
Q 18.796875 46.703125 25 46.703125 
Q 31.203125 46.703125 35.953125 43.640625 
Q 40.703125 40.59375 43.390625 35.25 
Q 46.09375 29.90625 46.09375 22.90625 
Q 46.09375 16 43.390625 10.640625 
Q 40.703125 5.296875 35.953125 2.25 
Q 31.203125 -0.796875 25 -0.796875 
z
M 25 5.203125 
Q 29 5.203125 32 7.5 
Q 35 9.796875 36.75 13.796875 
Q 38.5 17.796875 38.5 23 
Q 38.5 30.796875 34.703125 35.75 
Q 30.90625 40.703125 25 40.703125 
Q 19.09375 40.703125 15.296875 35.75 
Q 11.5 30.796875 11.5 23 
Q 11.5 17.796875 13.25 13.796875 
Q 15 9.796875 18.046875 7.5 
Q 21.09375 5.203125 25 5.203125 
z
" id="Inconsolata-Regular-111"/>
      <path d="M 11.90625 45.703125 
L 19.40625 45.703125 
L 19.203125 37.296875 
Q 21.09375 41.90625 25.09375 44.34375 
Q 29.09375 46.796875 33.703125 46.796875 
Q 41 46.796875 45.796875 41.796875 
L 42.59375 36.203125 
L 42.203125 35.296875 
L 41.5 35.703125 
Q 41.296875 36.5 40.890625 37.203125 
Q 40.5 37.90625 39.203125 38.90625 
Q 37.59375 39.90625 36.25 40.25 
Q 34.90625 40.59375 33.203125 40.59375 
Q 29.90625 40.59375 26.65625 38.890625 
Q 23.40625 37.203125 21.296875 33.59375 
Q 19.203125 30 19.203125 24.203125 
L 19.203125 -0.09375 
L 11.90625 -0.09375 
z
" id="Inconsolata-Regular-114"/>
      <path d="M 19.90625 -16.796875 
L 16.5 -13.796875 
Q 19.296875 -11.203125 21.140625 -8.203125 
Q 23 -5.203125 23 -3.296875 
Q 23 -1.90625 21.75 -0.84375 
Q 20.5 0.203125 19.203125 1.390625 
Q 17.90625 2.59375 17.90625 4.40625 
Q 17.90625 6.90625 19.546875 8.59375 
Q 21.203125 10.296875 23.796875 10.296875 
Q 26.40625 10.296875 28.5 8 
Q 30.59375 5.703125 30.59375 2 
Q 30.59375 -5.796875 19.90625 -16.796875 
z
" id="Inconsolata-Regular-44"/>
      <path d="M 24.703125 -1 
Q 12.59375 -1 5.203125 6.90625 
L 8.796875 13.203125 
L 9.203125 14.09375 
L 9.90625 13.703125 
Q 10.09375 13 10.390625 12.140625 
Q 10.703125 11.296875 11.796875 10.09375 
Q 14.40625 7.90625 17.84375 6.59375 
Q 21.296875 5.296875 25.703125 5.296875 
Q 31.296875 5.296875 34.9375 8.4375 
Q 38.59375 11.59375 38.59375 16 
Q 38.59375 18.90625 37.4375 20.90625 
Q 36.296875 22.90625 33.25 24.796875 
Q 30.203125 26.703125 24.296875 29.203125 
Q 14.59375 33 10.890625 37.703125 
Q 7.203125 42.40625 7.203125 47.703125 
Q 7.203125 54.59375 12.296875 58.84375 
Q 17.40625 63.09375 26.203125 63.09375 
Q 31.296875 63.09375 35.796875 61.046875 
Q 40.296875 59 43.5 55.296875 
L 39 49.296875 
L 38.40625 49.703125 
Q 38.296875 50.5 38 51.296875 
Q 37.703125 52.09375 36.59375 53.296875 
Q 34.203125 55.59375 31.5 56.4375 
Q 28.796875 57.296875 25.09375 57.296875 
Q 20.203125 57.296875 17.296875 54.59375 
Q 14.40625 51.90625 14.40625 48.203125 
Q 14.40625 45.40625 15.65625 43.25 
Q 16.90625 41.09375 20.203125 39 
Q 23.5 36.90625 29.796875 34.40625 
Q 35.90625 31.90625 39.296875 29.34375 
Q 42.703125 26.796875 44.09375 23.84375 
Q 45.5 20.90625 45.5 17 
Q 45.5 12.703125 43.34375 8.546875 
Q 41.203125 4.40625 36.59375 1.703125 
Q 32 -1 24.703125 -1 
z
" id="Inconsolata-Regular-83"/>
      <path d="M 22.09375 -1.09375 
Q 15.296875 -1.09375 10.796875 4 
Q 6.296875 9.09375 6.40625 20.203125 
L 6.5 45.703125 
L 13.5 45.703125 
L 13.5 20.203125 
Q 13.5 11.5 16.546875 8.09375 
Q 19.59375 4.703125 23.90625 4.703125 
Q 27.09375 4.703125 29.890625 6.390625 
Q 32.703125 8.09375 34.453125 11.59375 
Q 36.203125 15.09375 36.203125 20.5 
L 36.203125 45.703125 
L 43.203125 45.703125 
L 43.203125 7.09375 
Q 43.203125 5.296875 43.34375 3.546875 
Q 43.5 1.796875 44.203125 0 
L 37.296875 0 
Q 36.59375 1.703125 36.4375 3.5 
Q 36.296875 5.296875 36.296875 7 
Q 34.09375 3.203125 30.34375 1.046875 
Q 26.59375 -1.09375 22.09375 -1.09375 
z
" id="Inconsolata-Regular-117"/>
      <path d="M 29.90625 -0.703125 
Q 24 -0.703125 20.953125 2 
Q 17.90625 4.703125 16.90625 10.34375 
Q 15.90625 16 16.203125 24.796875 
L 16.796875 39.796875 
L 7 39.796875 
L 7 45.703125 
L 17 45.703125 
L 17.40625 57.40625 
L 24.90625 58.296875 
L 25.90625 58.40625 
L 26 57.703125 
Q 25.5 57 25.140625 56.296875 
Q 24.796875 55.59375 24.59375 53.90625 
L 23.90625 45.703125 
L 39.90625 45.703125 
L 39.90625 39.796875 
L 24 39.796875 
L 23.296875 24.296875 
Q 23 16.703125 23.703125 12.546875 
Q 24.40625 8.40625 26.203125 6.84375 
Q 28 5.296875 31 5.296875 
Q 34.296875 5.296875 36.84375 6.59375 
Q 39.40625 7.90625 42.203125 9.90625 
L 44.40625 4.203125 
Q 41 1.703125 37.390625 0.5 
Q 33.796875 -0.703125 29.90625 -0.703125 
z
" id="Inconsolata-Regular-116"/>
      <path d="M 10.796875 -0.09375 
L 1.59375 45.703125 
L 7.90625 45.703125 
L 15.296875 9 
L 23.09375 41.40625 
L 27.5 41.40625 
L 37.203125 9.09375 
Q 38.5 18 39.34375 23.703125 
Q 40.203125 29.40625 40.640625 33.046875 
Q 41.09375 36.703125 41.25 39.203125 
Q 41.40625 41.703125 41.40625 44.203125 
L 41.40625 45.703125 
L 48.09375 45.703125 
Q 45.09375 22.5 40.5 -0.09375 
L 33.703125 -0.09375 
L 25.296875 29.5 
L 17.296875 -0.09375 
z
" id="Inconsolata-Regular-119"/>
      <path d="M 25.09375 -1 
Q 13.5 -1 5.703125 6.203125 
L 9.703125 13 
L 10.296875 13.90625 
L 10.90625 13.5 
Q 11.09375 12.703125 11.34375 11.84375 
Q 11.59375 11 12.703125 9.796875 
Q 14.796875 7.703125 17.75 6.34375 
Q 20.703125 5 25.296875 5 
Q 30.796875 5 33.84375 6.953125 
Q 36.90625 8.90625 36.90625 12.296875 
Q 36.90625 15.203125 34.34375 17.09375 
Q 31.796875 19 25.40625 21.09375 
Q 17.5 23.40625 12.84375 26.796875 
Q 8.203125 30.203125 8.203125 35.296875 
Q 8.203125 40.5 12.453125 43.640625 
Q 16.703125 46.796875 25 46.796875 
Q 31.40625 46.796875 35.59375 45 
Q 39.796875 43.203125 43.203125 39.59375 
L 39.09375 34.59375 
L 38.40625 33.796875 
L 37.90625 34.296875 
Q 37.796875 35.09375 37.4375 35.84375 
Q 37.09375 36.59375 36 37.703125 
Q 33.703125 39.5 30.796875 40.453125 
Q 27.90625 41.40625 25.203125 41.40625 
Q 21.203125 41.40625 18.296875 40 
Q 15.40625 38.59375 15.40625 35.703125 
Q 15.40625 34.203125 16.453125 32.75 
Q 17.5 31.296875 20.296875 29.84375 
Q 23.09375 28.40625 28.296875 26.90625 
Q 36.90625 24.296875 40.453125 21.25 
Q 44 18.203125 44 13.296875 
Q 44 9.5 41.953125 6.203125 
Q 39.90625 2.90625 35.703125 0.953125 
Q 31.5 -1 25.09375 -1 
z
" id="Inconsolata-Regular-115"/>
      <path d="M 39.5 -10.40625 
Q 31.203125 -6.5 25.046875 0.046875 
Q 18.90625 6.59375 15.546875 14.84375 
Q 12.203125 23.09375 12.203125 32 
Q 12.203125 40.90625 15.5 48.953125 
Q 18.796875 57 24.796875 63.34375 
Q 30.796875 69.703125 38.90625 73.5 
L 40.796875 67.296875 
Q 34.40625 63.796875 29.546875 58.296875 
Q 24.703125 52.796875 22 46 
Q 19.296875 39.203125 19.296875 31.703125 
Q 19.296875 24.203125 22 17.296875 
Q 24.703125 10.40625 29.703125 4.796875 
Q 34.703125 -0.796875 41.40625 -4.40625 
z
" id="Inconsolata-Regular-40"/>
      <path d="M 3.796875 0 
L 3.796875 45.703125 
L 10.40625 45.703125 
L 10.40625 41.203125 
Q 12 43.703125 14.5 45.25 
Q 17 46.796875 19.703125 46.796875 
Q 22.703125 46.796875 24.953125 44.890625 
Q 27.203125 43 27.796875 40.09375 
Q 29.09375 43.09375 31.890625 44.9375 
Q 34.703125 46.796875 38.09375 46.796875 
Q 42.796875 46.796875 44.9375 43.4375 
Q 47.09375 40.09375 46.90625 35.09375 
L 46.90625 0 
L 40.296875 0 
L 40.296875 32.40625 
Q 40.296875 36.59375 39.75 38.5 
Q 39.203125 40.40625 38.203125 40.953125 
Q 37.203125 41.5 36 41.5 
Q 34.09375 41.5 32.4375 39.75 
Q 30.796875 38 29.75 35.390625 
Q 28.703125 32.796875 28.703125 30.203125 
L 28.703125 0 
L 22 0 
L 22 31.796875 
Q 22 37.5 20.953125 39.390625 
Q 19.90625 41.296875 17 41.296875 
Q 14.796875 41.296875 12.59375 38.4375 
Q 10.40625 35.59375 10.40625 30.5 
L 10.40625 0 
z
" id="Inconsolata-Regular-109"/>
      <path d="M 13.25 -10.40625 
Q 21.546875 -6.5 27.6875 0.046875 
Q 33.84375 6.59375 37.1875 14.84375 
Q 40.546875 23.09375 40.546875 32 
Q 40.546875 40.90625 37.25 48.953125 
Q 33.953125 57 27.953125 63.34375 
Q 21.953125 69.703125 13.84375 73.5 
L 11.953125 67.296875 
Q 18.34375 63.796875 23.1875 58.296875 
Q 28.046875 52.796875 30.75 46 
Q 33.453125 39.203125 33.453125 31.703125 
Q 33.453125 24.203125 30.75 17.296875 
Q 28.046875 10.40625 23.046875 4.796875 
Q 18.046875 -0.796875 11.34375 -4.40625 
z
" id="Inconsolata-Regular-41"/>
     </defs>
     <g transform="translate(449 37.95)scale(0.1 -0.1)">
      <use xlink:href="#Inconsolata-Regular-75"/>
      <use x="49.999985" xlink:href="#Inconsolata-Regular-111"/>
      <use x="99.999969" xlink:href="#Inconsolata-Regular-114"/>
      <use x="149.999954" xlink:href="#Inconsolata-Regular-101"/>
      <use x="199.999939" xlink:href="#Inconsolata-Regular-97"/>
      <use x="249.999924" xlink:href="#Inconsolata-Regular-44"/>
      <use x="299.999908" xlink:href="#Inconsolata-Regular-32"/>
      <use x="349.999893" xlink:href="#Inconsolata-Regular-83"/>
      <use x="399.999878" xlink:href="#Inconsolata-Regular-111"/>
      <use x="449.999863" xlink:href="#Inconsolata-Regular-117"/>
      <use x="499.999847" xlink:href="#Inconsolata-Regular-116"/>
      <use x="549.999832" xlink:href="#Inconsolata-Regular-104"/>
      <use x="599.999817" xlink:href="#Inconsolata-Regular-32"/>
      <use x="649.999802" xlink:href="#Inconsolata-Regular-110"/>
      <use x="699.999786" xlink:href="#Inconsolata-Regular-101"/>
      <use x="749.999771" xlink:href="#Inconsolata-Regular-119"/>
      <use x="799.999756" xlink:href="#Inconsolata-Regular-32"/>
      <use x="849.999741" xlink:href="#Inconsolata-Regular-100"/>
      <use x="899.999725" xlink:href="#Inconsolata-Regular-101"/>
      <use x="949.99971" xlink:href="#Inconsolata-Regular-97"/>
      <use x="999.999695" xlink:href="#Inconsolata-Regular-116"/>
      <use x="1049.99968" xlink:href="#Inconsolata-Regular-104"/>
      <use x="1099.999664" xlink:href="#Inconsolata-Regular-115"/>
      <use x="1149.999649" xlink:href="#Inconsolata-Regular-32"/>
      <use x="1199.999634" xlink:href="#Inconsolata-Regular-40"/>
      <use x="1249.999619" xlink:href="#Inconsolata-Regular-114"/>
      <use x="1299.999603" xlink:href="#Inconsolata-Regular-111"/>
      <use x="1349.999588" xlink:href="#Inconsolata-Regular-108"/>
      <use x="1399.999573" xlink:href="#Inconsolata-Regular-108"/>
      <use x="1449.999557" xlink:href="#Inconsolata-Regular-105"/>
      <use x="1499.999542" xlink:href="#Inconsolata-Regular-110"/>
      <use x="1549.999527" xlink:href="#Inconsolata-Regular-103"/>
      <use x="1599.999512" xlink:href="#Inconsolata-Regular-32"/>
      <use x="1649.999496" xlink:href="#Inconsolata-Regular-109"/>
      <use x="1699.999481" xlink:href="#Inconsolata-Regular-101"/>
      <use x="1749.999466" xlink:href="#Inconsolata-Regular-97"/>
      <use x="1799.999451" xlink:href="#Inconsolata-Regular-110"/>
      <use x="1849.999435" xlink:href="#Inconsolata-Regular-41"/>
     </g>
    </g>
    <g id="patch_173">
     <path d="M 421 51.670312 
L 441 51.670312 
L 441 44.670312 
L 421 44.670312 
z
" style="fill:#e24a33;opacity:0.2;"/>
    </g>
    <g id="text_21">
     <!-- Korea, South new deaths -->
     <g transform="translate(449 51.670312)scale(0.1 -0.1)">
      <use xlink:href="#Inconsolata-Regular-75"/>
      <use x="49.999985" xlink:href="#Inconsolata-Regular-111"/>
      <use x="99.999969" xlink:href="#Inconsolata-Regular-114"/>
      <use x="149.999954" xlink:href="#Inconsolata-Regular-101"/>
      <use x="199.999939" xlink:href="#Inconsolata-Regular-97"/>
      <use x="249.999924" xlink:href="#Inconsolata-Regular-44"/>
      <use x="299.999908" xlink:href="#Inconsolata-Regular-32"/>
      <use x="349.999893" xlink:href="#Inconsolata-Regular-83"/>
      <use x="399.999878" xlink:href="#Inconsolata-Regular-111"/>
      <use x="449.999863" xlink:href="#Inconsolata-Regular-117"/>
      <use x="499.999847" xlink:href="#Inconsolata-Regular-116"/>
      <use x="549.999832" xlink:href="#Inconsolata-Regular-104"/>
      <use x="599.999817" xlink:href="#Inconsolata-Regular-32"/>
      <use x="649.999802" xlink:href="#Inconsolata-Regular-110"/>
      <use x="699.999786" xlink:href="#Inconsolata-Regular-101"/>
      <use x="749.999771" xlink:href="#Inconsolata-Regular-119"/>
      <use x="799.999756" xlink:href="#Inconsolata-Regular-32"/>
      <use x="849.999741" xlink:href="#Inconsolata-Regular-100"/>
      <use x="899.999725" xlink:href="#Inconsolata-Regular-101"/>
      <use x="949.99971" xlink:href="#Inconsolata-Regular-97"/>
      <use x="999.999695" xlink:href="#Inconsolata-Regular-116"/>
      <use x="1049.99968" xlink:href="#Inconsolata-Regular-104"/>
      <use x="1099.999664" xlink:href="#Inconsolata-Regular-115"/>
     </g>
    </g>
   </g>
  </g>
 </g>
 <defs>
  <clipPath id="pde24fc8dd5">
   <rect height="135.9" width="558" x="90" y="21.6"/>
  </clipPath>
 </defs>
</svg>
