<?xml version="1.0" encoding="utf-8" standalone="no"?>
<!DOCTYPE svg PUBLIC "-//W3C//DTD SVG 1.1//EN"
  "http://www.w3.org/Graphics/SVG/1.1/DTD/svg11.dtd">
<!-- Created with matplotlib (https://matplotlib.org/) -->
<svg height="432pt" version="1.1" viewBox="0 0 720 432" width="720pt" xmlns="http://www.w3.org/2000/svg" xmlns:xlink="http://www.w3.org/1999/xlink">
 <defs>
  <style type="text/css">
*{stroke-linecap:butt;stroke-linejoin:round;}
  </style>
 </defs>
 <g id="figure_1">
  <g id="patch_1">
   <path d="M 0 432 
L 720 432 
L 720 0 
L 0 0 
z
" style="fill:#ffffff;"/>
  </g>
  <g id="axes_1">
   <g id="patch_2">
    <path d="M 69.325 392 
L 678 392 
L 678 221 
L 69.325 221 
z
" style="fill:#e5e5e5;"/>
   </g>
   <g id="matplotlib.axis_1">
    <g id="xtick_1">
     <g id="line2d_1">
      <path clip-path="url(#p17f8ee3e6d)" d="M 73.832034 392 
L 73.832034 221 
" style="fill:none;stroke:#ffffff;stroke-linecap:square;stroke-width:0.8;"/>
     </g>
     <g id="line2d_2">
      <defs>
       <path d="M 0 0 
L 0 3.5 
" id="mb087a88b80" style="stroke:#555555;stroke-width:0.8;"/>
      </defs>
      <g>
       <use style="fill:#555555;stroke:#555555;stroke-width:0.8;" x="73.832034" xlink:href="#mb087a88b80" y="392"/>
      </g>
     </g>
     <g id="text_1">
      <!-- 0 -->
      <defs>
       <path d="M 25 -1.09375 
Q 15.703125 -1.09375 10.703125 7.203125 
Q 5.703125 15.5 5.703125 30.796875 
Q 5.703125 45.59375 10.703125 54.140625 
Q 15.703125 62.703125 25 62.703125 
Q 34.296875 62.703125 39.296875 54.140625 
Q 44.296875 45.59375 44.296875 30.796875 
Q 44.296875 15.5 39.296875 7.203125 
Q 34.296875 -1.09375 25 -1.09375 
z
M 12.90625 30.796875 
Q 12.90625 24.40625 13.796875 19.40625 
L 35 46.703125 
Q 33.5 51.40625 30.953125 54 
Q 28.40625 56.59375 25 56.59375 
Q 19.296875 56.59375 16.09375 49.59375 
Q 12.90625 42.59375 12.90625 30.796875 
z
M 25 5 
Q 30.703125 5 33.890625 11.703125 
Q 37.09375 18.40625 37.09375 30.796875 
Q 37.09375 36.296875 36.40625 40.796875 
L 15.203125 13.90625 
Q 18.296875 5 25 5 
z
" id="Inconsolata-Regular-48"/>
      </defs>
      <g style="fill:#555555;" transform="translate(71.332034 405.65)scale(0.1 -0.1)">
       <use xlink:href="#Inconsolata-Regular-48"/>
      </g>
     </g>
    </g>
    <g id="xtick_2">
     <g id="line2d_3">
      <path clip-path="url(#p17f8ee3e6d)" d="M 163.972723 392 
L 163.972723 221 
" style="fill:none;stroke:#ffffff;stroke-linecap:square;stroke-width:0.8;"/>
     </g>
     <g id="line2d_4">
      <g>
       <use style="fill:#555555;stroke:#555555;stroke-width:0.8;" x="163.972723" xlink:href="#mb087a88b80" y="392"/>
      </g>
     </g>
     <g id="text_2">
      <!-- 20 -->
      <defs>
       <path d="M 7.296875 5.59375 
Q 14 12.5 19.390625 17.84375 
Q 24.796875 23.203125 28.59375 27.640625 
Q 32.40625 32.09375 34.40625 36.296875 
Q 36.40625 40.5 36.40625 45.09375 
Q 36.40625 51.59375 33.296875 54.09375 
Q 30.203125 56.59375 25.796875 56.59375 
Q 22.203125 56.59375 19.046875 55.046875 
Q 15.90625 53.5 13.296875 50.296875 
Q 12.40625 48.90625 12.203125 48.15625 
Q 12 47.40625 12.09375 46.59375 
L 11.703125 46.09375 
L 10.90625 46.59375 
L 5.796875 50.59375 
Q 8.796875 56.40625 14.046875 59.546875 
Q 19.296875 62.703125 25.703125 62.703125 
Q 33.59375 62.703125 38.59375 57.953125 
Q 43.59375 53.203125 43.59375 44.90625 
Q 43.59375 39.703125 41.296875 35 
Q 39 30.296875 35.140625 25.6875 
Q 31.296875 21.09375 26.390625 16.296875 
Q 21.5 11.5 16.296875 6.09375 
L 39.5 6.09375 
Q 41.203125 6.09375 41.890625 6.296875 
Q 42.59375 6.5 43.203125 7.09375 
L 43.90625 7.09375 
L 43.90625 0 
L 7.296875 0 
z
" id="Inconsolata-Regular-50"/>
      </defs>
      <g style="fill:#555555;" transform="translate(158.972723 405.65)scale(0.1 -0.1)">
       <use xlink:href="#Inconsolata-Regular-50"/>
       <use x="49.999985" xlink:href="#Inconsolata-Regular-48"/>
      </g>
     </g>
    </g>
    <g id="xtick_3">
     <g id="line2d_5">
      <path clip-path="url(#p17f8ee3e6d)" d="M 254.113412 392 
L 254.113412 221 
" style="fill:none;stroke:#ffffff;stroke-linecap:square;stroke-width:0.8;"/>
     </g>
     <g id="line2d_6">
      <g>
       <use style="fill:#555555;stroke:#555555;stroke-width:0.8;" x="254.113412" xlink:href="#mb087a88b80" y="392"/>
      </g>
     </g>
     <g id="text_3">
      <!-- 40 -->
      <defs>
       <path d="M 31.796875 0 
L 31.796875 15.296875 
L 4.796875 15.296875 
L 4.796875 20.40625 
L 33.296875 62.40625 
L 39.203125 62.40625 
L 39.203125 21.09375 
L 47.203125 21.09375 
L 47.203125 15.203125 
L 39.203125 15.203125 
L 39.203125 0 
z
M 12.90625 21.203125 
L 31.796875 21.203125 
L 31.796875 49.796875 
z
" id="Inconsolata-Regular-52"/>
      </defs>
      <g style="fill:#555555;" transform="translate(249.113412 405.65)scale(0.1 -0.1)">
       <use xlink:href="#Inconsolata-Regular-52"/>
       <use x="49.999985" xlink:href="#Inconsolata-Regular-48"/>
      </g>
     </g>
    </g>
    <g id="xtick_4">
     <g id="line2d_7">
      <path clip-path="url(#p17f8ee3e6d)" d="M 344.2541 392 
L 344.2541 221 
" style="fill:none;stroke:#ffffff;stroke-linecap:square;stroke-width:0.8;"/>
     </g>
     <g id="line2d_8">
      <g>
       <use style="fill:#555555;stroke:#555555;stroke-width:0.8;" x="344.2541" xlink:href="#mb087a88b80" y="392"/>
      </g>
     </g>
     <g id="text_4">
      <!-- 60 -->
      <defs>
       <path d="M 26.09375 -1 
Q 16.796875 -1 11.75 6.890625 
Q 6.703125 14.796875 6.703125 28.40625 
Q 6.703125 45.203125 12.703125 54.09375 
Q 18.703125 63 28.703125 63 
Q 36.59375 63 42.40625 57.296875 
L 38 52.296875 
L 37.296875 51.5 
L 36.796875 52 
Q 36.703125 52.796875 36.34375 53.5 
Q 36 54.203125 34.703125 55.296875 
Q 32.5 56.796875 28.90625 56.796875 
Q 26.90625 56.796875 24.296875 55.84375 
Q 21.703125 54.90625 19.296875 52.296875 
Q 16.90625 49.703125 15.296875 44.953125 
Q 13.703125 40.203125 13.59375 32.703125 
Q 15.703125 36.203125 19.25 38.203125 
Q 22.796875 40.203125 26.796875 40.203125 
Q 31.5 40.203125 35.34375 37.640625 
Q 39.203125 35.09375 41.546875 30.546875 
Q 43.90625 26 43.90625 19.796875 
Q 43.90625 13.59375 41.5 8.890625 
Q 39.09375 4.203125 35.09375 1.59375 
Q 31.09375 -1 26.09375 -1 
z
M 26.40625 5.203125 
Q 30.703125 5.203125 33.890625 8.890625 
Q 37.09375 12.59375 37.09375 19.703125 
Q 37.09375 24.703125 35.4375 27.890625 
Q 33.796875 31.09375 31.296875 32.59375 
Q 28.796875 34.09375 26.203125 34.09375 
Q 22.59375 34.09375 19.296875 31.640625 
Q 16 29.203125 14 25.703125 
Q 13.59375 22.296875 14.25 18.6875 
Q 14.90625 15.09375 16.546875 12.046875 
Q 18.203125 9 20.703125 7.09375 
Q 23.203125 5.203125 26.40625 5.203125 
z
" id="Inconsolata-Regular-54"/>
      </defs>
      <g style="fill:#555555;" transform="translate(339.2541 405.65)scale(0.1 -0.1)">
       <use xlink:href="#Inconsolata-Regular-54"/>
       <use x="49.999985" xlink:href="#Inconsolata-Regular-48"/>
      </g>
     </g>
    </g>
    <g id="xtick_5">
     <g id="line2d_9">
      <path clip-path="url(#p17f8ee3e6d)" d="M 434.394789 392 
L 434.394789 221 
" style="fill:none;stroke:#ffffff;stroke-linecap:square;stroke-width:0.8;"/>
     </g>
     <g id="line2d_10">
      <g>
       <use style="fill:#555555;stroke:#555555;stroke-width:0.8;" x="434.394789" xlink:href="#mb087a88b80" y="392"/>
      </g>
     </g>
     <g id="text_5">
      <!-- 80 -->
      <defs>
       <path d="M 25 -1 
Q 19.09375 -1 14.84375 1.25 
Q 10.59375 3.5 8.296875 7.296875 
Q 6 11.09375 6 15.703125 
Q 6 21.09375 9.390625 25.796875 
Q 12.796875 30.5 18.5 33.09375 
Q 14.203125 35.296875 11.59375 39.25 
Q 9 43.203125 9 47.703125 
Q 9 54.09375 13.140625 58.59375 
Q 17.296875 63.09375 25.5 63.09375 
Q 31.296875 63.09375 34.890625 61.09375 
Q 38.5 59.09375 40.25 55.75 
Q 42 52.40625 42 48.296875 
Q 42 43.796875 39.296875 39.75 
Q 36.59375 35.703125 32.09375 33.296875 
Q 37.5 30.796875 40.796875 26.140625 
Q 44.09375 21.5 44.09375 16.09375 
Q 44.09375 11.203125 41.75 7.34375 
Q 39.40625 3.5 35.15625 1.25 
Q 30.90625 -1 25 -1 
z
M 26.703125 35.796875 
Q 30.40625 37.796875 32.796875 41.1875 
Q 35.203125 44.59375 35.203125 48.09375 
Q 35.203125 51.59375 32.75 54.390625 
Q 30.296875 57.203125 25.296875 57.203125 
Q 20.40625 57.203125 18.046875 54.5 
Q 15.703125 51.796875 15.703125 48.40625 
Q 15.703125 43.796875 18.890625 41.046875 
Q 22.09375 38.296875 26.703125 35.796875 
z
M 25.203125 5.296875 
Q 31 5.296875 34 8.4375 
Q 37 11.59375 37 16.09375 
Q 37 20.703125 33.390625 24.546875 
Q 29.796875 28.40625 23.703125 30.296875 
Q 19.203125 28.40625 16.203125 24.65625 
Q 13.203125 20.90625 13.203125 16.40625 
Q 13.203125 11.90625 16.34375 8.59375 
Q 19.5 5.296875 25.203125 5.296875 
z
" id="Inconsolata-Regular-56"/>
      </defs>
      <g style="fill:#555555;" transform="translate(429.394789 405.65)scale(0.1 -0.1)">
       <use xlink:href="#Inconsolata-Regular-56"/>
       <use x="49.999985" xlink:href="#Inconsolata-Regular-48"/>
      </g>
     </g>
    </g>
    <g id="xtick_6">
     <g id="line2d_11">
      <path clip-path="url(#p17f8ee3e6d)" d="M 524.535478 392 
L 524.535478 221 
" style="fill:none;stroke:#ffffff;stroke-linecap:square;stroke-width:0.8;"/>
     </g>
     <g id="line2d_12">
      <g>
       <use style="fill:#555555;stroke:#555555;stroke-width:0.8;" x="524.535478" xlink:href="#mb087a88b80" y="392"/>
      </g>
     </g>
     <g id="text_6">
      <!-- 100 -->
      <defs>
       <path d="M 23 0 
L 23 53.703125 
L 10.40625 50 
L 8.796875 53.90625 
L 25.09375 62.40625 
L 30 62.40625 
L 30 0 
z
" id="Inconsolata-Regular-49"/>
      </defs>
      <g style="fill:#555555;" transform="translate(517.035478 405.65)scale(0.1 -0.1)">
       <use xlink:href="#Inconsolata-Regular-49"/>
       <use x="49.999985" xlink:href="#Inconsolata-Regular-48"/>
       <use x="99.999969" xlink:href="#Inconsolata-Regular-48"/>
      </g>
     </g>
    </g>
    <g id="xtick_7">
     <g id="line2d_13">
      <path clip-path="url(#p17f8ee3e6d)" d="M 614.676166 392 
L 614.676166 221 
" style="fill:none;stroke:#ffffff;stroke-linecap:square;stroke-width:0.8;"/>
     </g>
     <g id="line2d_14">
      <g>
       <use style="fill:#555555;stroke:#555555;stroke-width:0.8;" x="614.676166" xlink:href="#mb087a88b80" y="392"/>
      </g>
     </g>
     <g id="text_7">
      <!-- 120 -->
      <g style="fill:#555555;" transform="translate(607.176166 405.65)scale(0.1 -0.1)">
       <use xlink:href="#Inconsolata-Regular-49"/>
       <use x="49.999985" xlink:href="#Inconsolata-Regular-50"/>
       <use x="99.999969" xlink:href="#Inconsolata-Regular-48"/>
      </g>
     </g>
    </g>
    <g id="text_8">
     <!-- days since 3 deaths -->
     <defs>
      <path d="M 23.40625 -1 
Q 18.796875 -1 14.4375 1.640625 
Q 10.09375 4.296875 7.296875 9.6875 
Q 4.5 15.09375 4.5 23.296875 
Q 4.5 31.703125 7.390625 36.890625 
Q 10.296875 42.09375 14.75 44.5 
Q 19.203125 46.90625 23.796875 46.90625 
Q 28.5 46.90625 31.953125 44.75 
Q 35.40625 42.59375 37.09375 39 
L 37.09375 66.5 
L 44.703125 66.5 
L 44.703125 65.796875 
Q 44.09375 65.203125 43.9375 64.5 
Q 43.796875 63.796875 43.796875 62.09375 
L 43.90625 7.09375 
Q 43.90625 5.296875 44.046875 3.546875 
Q 44.203125 1.796875 44.90625 0 
L 37.796875 0 
Q 37.09375 1.796875 36.9375 3.546875 
Q 36.796875 5.296875 36.796875 7.09375 
Q 34.59375 3.40625 31.1875 1.203125 
Q 27.796875 -1 23.40625 -1 
z
M 24.5 5.296875 
Q 28.90625 5.296875 31.546875 7.6875 
Q 34.203125 10.09375 35.34375 14.140625 
Q 36.5 18.203125 36.5 23.09375 
Q 36.5 30.796875 33.5 35.890625 
Q 30.5 41 23.90625 41 
Q 17.796875 41 14.640625 36.5 
Q 11.5 32 11.5 24.40625 
Q 11.5 15.796875 14.796875 10.546875 
Q 18.09375 5.296875 24.5 5.296875 
z
" id="Inconsolata-Regular-100"/>
      <path d="M 21.09375 -1.09375 
Q 13.296875 -1.09375 9.09375 2.453125 
Q 4.90625 6 4.90625 11.5 
Q 4.90625 16.40625 8 19.953125 
Q 11.09375 23.5 16.34375 25.453125 
Q 21.59375 27.40625 27.90625 27.40625 
Q 30.203125 27.40625 32.75 27.296875 
Q 35.296875 27.203125 38.203125 26.796875 
Q 37.59375 34.796875 34.046875 37.796875 
Q 30.5 40.796875 23.90625 40.796875 
Q 20.59375 40.796875 17.390625 39.546875 
Q 14.203125 38.296875 11.59375 35.703125 
L 8.09375 40.296875 
Q 11.296875 43.5 15.5 45.09375 
Q 19.703125 46.703125 24.40625 46.703125 
Q 30.5 46.703125 35 44.703125 
Q 39.5 42.703125 42 37.796875 
Q 44.5 32.90625 44.5 24.296875 
L 44.5 0 
L 36.703125 0 
L 36.703125 7 
Q 35 3.703125 32.34375 1.953125 
Q 29.703125 0.203125 26.75 -0.4375 
Q 23.796875 -1.09375 21.09375 -1.09375 
z
M 12.09375 11.90625 
Q 12.09375 7.59375 14.890625 6 
Q 17.703125 4.40625 21.796875 4.40625 
Q 29.203125 4.40625 33.5 8.75 
Q 37.796875 13.09375 38.203125 21.296875 
Q 33 22 28.5 22 
Q 21.296875 22 16.6875 19.59375 
Q 12.09375 17.203125 12.09375 11.90625 
z
" id="Inconsolata-Regular-97"/>
      <path d="M 12.703125 -17.40625 
Q 6.296875 -17.40625 2.203125 -13.5 
L 5.296875 -8.59375 
L 5.90625 -7.703125 
L 6.5 -8.09375 
Q 6.703125 -8.90625 7.203125 -9.453125 
Q 7.703125 -10 9.09375 -10.90625 
Q 10.90625 -11.5 13.09375 -11.5 
Q 17 -11.5 19.203125 -8.75 
Q 21.40625 -6 23.296875 -0.296875 
L 4.59375 45.703125 
L 12.09375 45.703125 
L 26.296875 9.09375 
L 32.296875 27.5 
Q 33.796875 32.09375 35.1875 36.59375 
Q 36.59375 41.09375 37.09375 45.703125 
L 44.296875 45.703125 
Q 43.59375 41.09375 42.09375 36.390625 
Q 40.59375 31.703125 38.90625 27 
L 27.5 -5.203125 
Q 25.09375 -11.90625 21.34375 -14.65625 
Q 17.59375 -17.40625 12.703125 -17.40625 
z
" id="Inconsolata-Regular-121"/>
      <path d="M 25.09375 -1 
Q 13.5 -1 5.703125 6.203125 
L 9.703125 13 
L 10.296875 13.90625 
L 10.90625 13.5 
Q 11.09375 12.703125 11.34375 11.84375 
Q 11.59375 11 12.703125 9.796875 
Q 14.796875 7.703125 17.75 6.34375 
Q 20.703125 5 25.296875 5 
Q 30.796875 5 33.84375 6.953125 
Q 36.90625 8.90625 36.90625 12.296875 
Q 36.90625 15.203125 34.34375 17.09375 
Q 31.796875 19 25.40625 21.09375 
Q 17.5 23.40625 12.84375 26.796875 
Q 8.203125 30.203125 8.203125 35.296875 
Q 8.203125 40.5 12.453125 43.640625 
Q 16.703125 46.796875 25 46.796875 
Q 31.40625 46.796875 35.59375 45 
Q 39.796875 43.203125 43.203125 39.59375 
L 39.09375 34.59375 
L 38.40625 33.796875 
L 37.90625 34.296875 
Q 37.796875 35.09375 37.4375 35.84375 
Q 37.09375 36.59375 36 37.703125 
Q 33.703125 39.5 30.796875 40.453125 
Q 27.90625 41.40625 25.203125 41.40625 
Q 21.203125 41.40625 18.296875 40 
Q 15.40625 38.59375 15.40625 35.703125 
Q 15.40625 34.203125 16.453125 32.75 
Q 17.5 31.296875 20.296875 29.84375 
Q 23.09375 28.40625 28.296875 26.90625 
Q 36.90625 24.296875 40.453125 21.25 
Q 44 18.203125 44 13.296875 
Q 44 9.5 41.953125 6.203125 
Q 39.90625 2.90625 35.703125 0.953125 
Q 31.5 -1 25.09375 -1 
z
" id="Inconsolata-Regular-115"/>
      <path id="Inconsolata-Regular-32"/>
      <path d="M 10 0 
L 10 5.796875 
L 21.703125 5.796875 
L 21.703125 39.90625 
L 10.59375 39.90625 
L 10.59375 45.703125 
L 28.90625 45.703125 
L 28.90625 5.796875 
L 39.59375 5.796875 
L 39.59375 0 
z
M 24.90625 55.296875 
Q 22.796875 55.296875 21.296875 56.796875 
Q 19.796875 58.296875 19.796875 60.40625 
Q 19.796875 62.59375 21.25 64.09375 
Q 22.703125 65.59375 24.90625 65.59375 
Q 27 65.59375 28.546875 64.046875 
Q 30.09375 62.5 30.09375 60.40625 
Q 30.09375 58.296875 28.546875 56.796875 
Q 27 55.296875 24.90625 55.296875 
z
" id="Inconsolata-Regular-105"/>
      <path d="M 7.203125 0 
L 7.203125 45.703125 
L 14.203125 45.703125 
L 14.203125 37.59375 
Q 16.796875 41.796875 20.9375 44.296875 
Q 25.09375 46.796875 29.703125 46.796875 
Q 35.296875 46.796875 39.1875 42.4375 
Q 43.09375 38.09375 43.09375 27.703125 
L 43.09375 0 
L 36.09375 0 
L 36.09375 27.5 
Q 36.09375 34.703125 33.640625 37.59375 
Q 31.203125 40.5 27.703125 40.5 
Q 24.703125 40.5 21.546875 38.75 
Q 18.40625 37 16.296875 33.84375 
Q 14.203125 30.703125 14.203125 26.296875 
L 14.203125 0 
z
" id="Inconsolata-Regular-110"/>
      <path d="M 28.5 -1.09375 
Q 21.90625 -1.09375 16.703125 2 
Q 11.5 5.09375 8.546875 10.5 
Q 5.59375 15.90625 5.59375 22.796875 
Q 5.59375 29.703125 8.546875 35.046875 
Q 11.5 40.40625 16.640625 43.5 
Q 21.796875 46.59375 28.40625 46.59375 
Q 34 46.59375 38.453125 44.34375 
Q 42.90625 42.09375 45.703125 38.09375 
L 41.203125 33.703125 
L 40.5 33 
L 40 33.5 
Q 40 34.296875 39.640625 35 
Q 39.296875 35.703125 38.09375 36.90625 
Q 35.90625 38.90625 33.40625 39.703125 
Q 30.90625 40.5 27.59375 40.5 
Q 23.796875 40.5 20.4375 38.390625 
Q 17.09375 36.296875 15.046875 32.4375 
Q 13 28.59375 13 23.296875 
Q 13 18.203125 15.046875 14.140625 
Q 17.09375 10.09375 20.6875 7.75 
Q 24.296875 5.40625 28.90625 5.40625 
Q 35.796875 5.40625 40.796875 11 
L 45 6.09375 
Q 38.296875 -1.09375 28.5 -1.09375 
z
" id="Inconsolata-Regular-99"/>
      <path d="M 27.203125 -1 
Q 17.203125 -1 11.046875 5.09375 
Q 4.90625 11.203125 4.90625 22.703125 
Q 4.90625 30.5 7.75 35.84375 
Q 10.59375 41.203125 15.34375 44 
Q 20.09375 46.796875 25.90625 46.796875 
Q 31.09375 46.796875 35.296875 44.5 
Q 39.5 42.203125 42 37.390625 
Q 44.5 32.59375 44.5 25.09375 
Q 44.5 24.296875 44.453125 23.4375 
Q 44.40625 22.59375 44.296875 21.796875 
L 11.796875 21.796875 
Q 12.203125 13 16.75 8.890625 
Q 21.296875 4.796875 27.40625 4.796875 
Q 34.59375 4.796875 39.203125 9.90625 
L 43.203125 6 
Q 37.40625 -1 27.203125 -1 
z
M 12.09375 27.40625 
L 37.203125 27.40625 
Q 37.203125 33.796875 33.953125 37.546875 
Q 30.703125 41.296875 25.40625 41.296875 
Q 20.703125 41.296875 16.890625 37.9375 
Q 13.09375 34.59375 12.09375 27.40625 
z
" id="Inconsolata-Regular-101"/>
      <path d="M 24 -1.09375 
Q 19.09375 -1.09375 14.59375 0.703125 
Q 10.09375 2.5 6.90625 6 
L 11.5 11.5 
L 12.203125 12.296875 
L 12.703125 11.796875 
Q 12.796875 11 13.09375 10.25 
Q 13.40625 9.5 14.5 8.296875 
Q 16.203125 6.796875 18.390625 5.84375 
Q 20.59375 4.90625 23.703125 4.90625 
Q 29.703125 4.90625 32.59375 8.40625 
Q 35.5 11.90625 35.5 17.40625 
Q 35.5 24.5 30.75 27.453125 
Q 26 30.40625 18 29.59375 
L 18 35.203125 
Q 24.5 35.203125 27.796875 36.890625 
Q 31.09375 38.59375 32.25 41.4375 
Q 33.40625 44.296875 33.40625 47.5 
Q 33.40625 51.796875 30.953125 54.25 
Q 28.5 56.703125 24.5 56.703125 
Q 21.5 56.703125 18.640625 55.703125 
Q 15.796875 54.703125 13.09375 52.09375 
L 8.90625 56.296875 
Q 12.296875 59.796875 16.34375 61.25 
Q 20.40625 62.703125 24.40625 62.703125 
Q 32 62.703125 36.296875 58.390625 
Q 40.59375 54.09375 40.59375 47.203125 
Q 40.59375 42.296875 38.1875 38.4375 
Q 35.796875 34.59375 30.796875 33 
Q 36.09375 31.296875 39.390625 27.390625 
Q 42.703125 23.5 42.703125 17.09375 
Q 42.703125 12.203125 40.546875 8.046875 
Q 38.40625 3.90625 34.25 1.40625 
Q 30.09375 -1.09375 24 -1.09375 
z
" id="Inconsolata-Regular-51"/>
      <path d="M 29.90625 -0.703125 
Q 24 -0.703125 20.953125 2 
Q 17.90625 4.703125 16.90625 10.34375 
Q 15.90625 16 16.203125 24.796875 
L 16.796875 39.796875 
L 7 39.796875 
L 7 45.703125 
L 17 45.703125 
L 17.40625 57.40625 
L 24.90625 58.296875 
L 25.90625 58.40625 
L 26 57.703125 
Q 25.5 57 25.140625 56.296875 
Q 24.796875 55.59375 24.59375 53.90625 
L 23.90625 45.703125 
L 39.90625 45.703125 
L 39.90625 39.796875 
L 24 39.796875 
L 23.296875 24.296875 
Q 23 16.703125 23.703125 12.546875 
Q 24.40625 8.40625 26.203125 6.84375 
Q 28 5.296875 31 5.296875 
Q 34.296875 5.296875 36.84375 6.59375 
Q 39.40625 7.90625 42.203125 9.90625 
L 44.40625 4.203125 
Q 41 1.703125 37.390625 0.5 
Q 33.796875 -0.703125 29.90625 -0.703125 
z
" id="Inconsolata-Regular-116"/>
      <path d="M 7.296875 66.5 
L 15.203125 66.5 
L 15.203125 65.796875 
Q 14.59375 65.203125 14.4375 64.5 
Q 14.296875 63.796875 14.296875 62.09375 
L 14.296875 37.59375 
Q 17 41.796875 21.046875 44.296875 
Q 25.09375 46.796875 29.296875 46.796875 
Q 35.5 46.796875 39.34375 42.4375 
Q 43.203125 38.09375 43.203125 27.703125 
L 43.203125 0 
L 36.203125 0 
L 36.203125 27.5 
Q 36.203125 34.703125 33.75 37.59375 
Q 31.296875 40.5 27.796875 40.5 
Q 24.796875 40.5 21.640625 38.796875 
Q 18.5 37.09375 16.390625 33.9375 
Q 14.296875 30.796875 14.296875 26.296875 
L 14.296875 0 
L 7.296875 0 
z
" id="Inconsolata-Regular-104"/>
     </defs>
     <g style="fill:#555555;" transform="translate(316.6625 419.300313)scale(0.12 -0.12)">
      <use xlink:href="#Inconsolata-Regular-100"/>
      <use x="49.999985" xlink:href="#Inconsolata-Regular-97"/>
      <use x="99.999969" xlink:href="#Inconsolata-Regular-121"/>
      <use x="149.999954" xlink:href="#Inconsolata-Regular-115"/>
      <use x="199.999939" xlink:href="#Inconsolata-Regular-32"/>
      <use x="249.999924" xlink:href="#Inconsolata-Regular-115"/>
      <use x="299.999908" xlink:href="#Inconsolata-Regular-105"/>
      <use x="349.999893" xlink:href="#Inconsolata-Regular-110"/>
      <use x="399.999878" xlink:href="#Inconsolata-Regular-99"/>
      <use x="449.999863" xlink:href="#Inconsolata-Regular-101"/>
      <use x="499.999847" xlink:href="#Inconsolata-Regular-32"/>
      <use x="549.999832" xlink:href="#Inconsolata-Regular-51"/>
      <use x="599.999817" xlink:href="#Inconsolata-Regular-32"/>
      <use x="649.999802" xlink:href="#Inconsolata-Regular-100"/>
      <use x="699.999786" xlink:href="#Inconsolata-Regular-101"/>
      <use x="749.999771" xlink:href="#Inconsolata-Regular-97"/>
      <use x="799.999756" xlink:href="#Inconsolata-Regular-116"/>
      <use x="849.999741" xlink:href="#Inconsolata-Regular-104"/>
      <use x="899.999725" xlink:href="#Inconsolata-Regular-115"/>
     </g>
    </g>
   </g>
   <g id="matplotlib.axis_2">
    <g id="ytick_1">
     <g id="line2d_15">
      <path clip-path="url(#p17f8ee3e6d)" d="M 69.325 392 
L 678 392 
" style="fill:none;stroke:#ffffff;stroke-linecap:square;stroke-width:0.8;"/>
     </g>
     <g id="line2d_16">
      <defs>
       <path d="M 0 0 
L -3.5 0 
" id="m71adcef568" style="stroke:#555555;stroke-width:0.8;"/>
      </defs>
      <g>
       <use style="fill:#555555;stroke:#555555;stroke-width:0.8;" x="69.325" xlink:href="#m71adcef568" y="392"/>
      </g>
     </g>
     <g id="line2d_17">
      <defs>
       <path d="M 0 0 
L 3.5 0 
" id="md43c4b5c43" style="stroke:#555555;stroke-width:0.8;"/>
      </defs>
      <g>
       <use style="fill:#555555;stroke:#555555;stroke-width:0.8;" x="678" xlink:href="#md43c4b5c43" y="392"/>
      </g>
     </g>
     <g id="text_9">
      <!-- 0.1 -->
      <defs>
       <path d="M 23.796875 -1.09375 
Q 21.40625 -1.09375 19.703125 0.59375 
Q 18 2.296875 18 4.59375 
Q 18 6.90625 19.703125 8.59375 
Q 21.40625 10.296875 23.796875 10.296875 
Q 26.09375 10.296875 27.796875 8.59375 
Q 29.5 6.90625 29.5 4.59375 
Q 29.5 2.296875 27.796875 0.59375 
Q 26.09375 -1.09375 23.796875 -1.09375 
z
" id="Inconsolata-Regular-46"/>
      </defs>
      <g style="fill:#555555;" transform="translate(47.325 395.325)scale(0.1 -0.1)">
       <use xlink:href="#Inconsolata-Regular-48"/>
       <use x="49.999985" xlink:href="#Inconsolata-Regular-46"/>
       <use x="99.999969" xlink:href="#Inconsolata-Regular-49"/>
      </g>
     </g>
     <g id="text_10">
      <!-- 0.1 -->
      <g style="fill:#555555;" transform="translate(685 395.325)scale(0.1 -0.1)">
       <use xlink:href="#Inconsolata-Regular-48"/>
       <use x="49.999985" xlink:href="#Inconsolata-Regular-46"/>
       <use x="99.999969" xlink:href="#Inconsolata-Regular-49"/>
      </g>
     </g>
    </g>
    <g id="ytick_2">
     <g id="line2d_18">
      <path clip-path="url(#p17f8ee3e6d)" d="M 69.325 354.496537 
L 678 354.496537 
" style="fill:none;stroke:#ffffff;stroke-linecap:square;stroke-width:0.8;"/>
     </g>
     <g id="line2d_19">
      <g>
       <use style="fill:#555555;stroke:#555555;stroke-width:0.8;" x="69.325" xlink:href="#m71adcef568" y="354.496537"/>
      </g>
     </g>
     <g id="line2d_20">
      <g>
       <use style="fill:#555555;stroke:#555555;stroke-width:0.8;" x="678" xlink:href="#md43c4b5c43" y="354.496537"/>
      </g>
     </g>
     <g id="text_11">
      <!-- 1 -->
      <g style="fill:#555555;" transform="translate(57.325 357.821537)scale(0.1 -0.1)">
       <use xlink:href="#Inconsolata-Regular-49"/>
      </g>
     </g>
     <g id="text_12">
      <!-- 1 -->
      <g style="fill:#555555;" transform="translate(685 357.821537)scale(0.1 -0.1)">
       <use xlink:href="#Inconsolata-Regular-49"/>
      </g>
     </g>
    </g>
    <g id="ytick_3">
     <g id="line2d_21">
      <path clip-path="url(#p17f8ee3e6d)" d="M 69.325 316.993073 
L 678 316.993073 
" style="fill:none;stroke:#ffffff;stroke-linecap:square;stroke-width:0.8;"/>
     </g>
     <g id="line2d_22">
      <g>
       <use style="fill:#555555;stroke:#555555;stroke-width:0.8;" x="69.325" xlink:href="#m71adcef568" y="316.993073"/>
      </g>
     </g>
     <g id="line2d_23">
      <g>
       <use style="fill:#555555;stroke:#555555;stroke-width:0.8;" x="678" xlink:href="#md43c4b5c43" y="316.993073"/>
      </g>
     </g>
     <g id="text_13">
      <!-- 10 -->
      <g style="fill:#555555;" transform="translate(52.325 320.318073)scale(0.1 -0.1)">
       <use xlink:href="#Inconsolata-Regular-49"/>
       <use x="49.999985" xlink:href="#Inconsolata-Regular-48"/>
      </g>
     </g>
     <g id="text_14">
      <!-- 10 -->
      <g style="fill:#555555;" transform="translate(685 320.318073)scale(0.1 -0.1)">
       <use xlink:href="#Inconsolata-Regular-49"/>
       <use x="49.999985" xlink:href="#Inconsolata-Regular-48"/>
      </g>
     </g>
    </g>
    <g id="ytick_4">
     <g id="line2d_24">
      <path clip-path="url(#p17f8ee3e6d)" d="M 69.325 279.48961 
L 678 279.48961 
" style="fill:none;stroke:#ffffff;stroke-linecap:square;stroke-width:0.8;"/>
     </g>
     <g id="line2d_25">
      <g>
       <use style="fill:#555555;stroke:#555555;stroke-width:0.8;" x="69.325" xlink:href="#m71adcef568" y="279.48961"/>
      </g>
     </g>
     <g id="line2d_26">
      <g>
       <use style="fill:#555555;stroke:#555555;stroke-width:0.8;" x="678" xlink:href="#md43c4b5c43" y="279.48961"/>
      </g>
     </g>
     <g id="text_15">
      <!-- 100 -->
      <g style="fill:#555555;" transform="translate(47.325 282.81461)scale(0.1 -0.1)">
       <use xlink:href="#Inconsolata-Regular-49"/>
       <use x="49.999985" xlink:href="#Inconsolata-Regular-48"/>
       <use x="99.999969" xlink:href="#Inconsolata-Regular-48"/>
      </g>
     </g>
     <g id="text_16">
      <!-- 100 -->
      <g style="fill:#555555;" transform="translate(685 282.81461)scale(0.1 -0.1)">
       <use xlink:href="#Inconsolata-Regular-49"/>
       <use x="49.999985" xlink:href="#Inconsolata-Regular-48"/>
       <use x="99.999969" xlink:href="#Inconsolata-Regular-48"/>
      </g>
     </g>
    </g>
    <g id="ytick_5">
     <g id="line2d_27">
      <path clip-path="url(#p17f8ee3e6d)" d="M 69.325 241.986146 
L 678 241.986146 
" style="fill:none;stroke:#ffffff;stroke-linecap:square;stroke-width:0.8;"/>
     </g>
     <g id="line2d_28">
      <g>
       <use style="fill:#555555;stroke:#555555;stroke-width:0.8;" x="69.325" xlink:href="#m71adcef568" y="241.986146"/>
      </g>
     </g>
     <g id="line2d_29">
      <g>
       <use style="fill:#555555;stroke:#555555;stroke-width:0.8;" x="678" xlink:href="#md43c4b5c43" y="241.986146"/>
      </g>
     </g>
     <g id="text_17">
      <!-- 1000 -->
      <g style="fill:#555555;" transform="translate(42.325 245.311146)scale(0.1 -0.1)">
       <use xlink:href="#Inconsolata-Regular-49"/>
       <use x="49.999985" xlink:href="#Inconsolata-Regular-48"/>
       <use x="99.999969" xlink:href="#Inconsolata-Regular-48"/>
       <use x="149.999954" xlink:href="#Inconsolata-Regular-48"/>
      </g>
     </g>
     <g id="text_18">
      <!-- 1000 -->
      <g style="fill:#555555;" transform="translate(685 245.311146)scale(0.1 -0.1)">
       <use xlink:href="#Inconsolata-Regular-49"/>
       <use x="49.999985" xlink:href="#Inconsolata-Regular-48"/>
       <use x="99.999969" xlink:href="#Inconsolata-Regular-48"/>
       <use x="149.999954" xlink:href="#Inconsolata-Regular-48"/>
      </g>
     </g>
    </g>
    <g id="ytick_6">
     <g id="line2d_30">
      <defs>
       <path d="M 0 0 
L -2 0 
" id="m633e557198" style="stroke:#555555;stroke-width:0.6;"/>
      </defs>
      <g>
       <use style="fill:#555555;stroke:#555555;stroke-width:0.6;" x="69.325" xlink:href="#m633e557198" y="380.710333"/>
      </g>
     </g>
     <g id="line2d_31">
      <defs>
       <path d="M 0 0 
L 2 0 
" id="mf05014c3d0" style="stroke:#555555;stroke-width:0.6;"/>
      </defs>
      <g>
       <use style="fill:#555555;stroke:#555555;stroke-width:0.6;" x="678" xlink:href="#mf05014c3d0" y="380.710333"/>
      </g>
     </g>
    </g>
    <g id="ytick_7">
     <g id="line2d_32">
      <g>
       <use style="fill:#555555;stroke:#555555;stroke-width:0.6;" x="69.325" xlink:href="#m633e557198" y="374.1063"/>
      </g>
     </g>
     <g id="line2d_33">
      <g>
       <use style="fill:#555555;stroke:#555555;stroke-width:0.6;" x="678" xlink:href="#mf05014c3d0" y="374.1063"/>
      </g>
     </g>
    </g>
    <g id="ytick_8">
     <g id="line2d_34">
      <g>
       <use style="fill:#555555;stroke:#555555;stroke-width:0.6;" x="69.325" xlink:href="#m633e557198" y="369.420665"/>
      </g>
     </g>
     <g id="line2d_35">
      <g>
       <use style="fill:#555555;stroke:#555555;stroke-width:0.6;" x="678" xlink:href="#mf05014c3d0" y="369.420665"/>
      </g>
     </g>
    </g>
    <g id="ytick_9">
     <g id="line2d_36">
      <g>
       <use style="fill:#555555;stroke:#555555;stroke-width:0.6;" x="69.325" xlink:href="#m633e557198" y="365.786204"/>
      </g>
     </g>
     <g id="line2d_37">
      <g>
       <use style="fill:#555555;stroke:#555555;stroke-width:0.6;" x="678" xlink:href="#mf05014c3d0" y="365.786204"/>
      </g>
     </g>
    </g>
    <g id="ytick_10">
     <g id="line2d_38">
      <g>
       <use style="fill:#555555;stroke:#555555;stroke-width:0.6;" x="69.325" xlink:href="#m633e557198" y="362.816633"/>
      </g>
     </g>
     <g id="line2d_39">
      <g>
       <use style="fill:#555555;stroke:#555555;stroke-width:0.6;" x="678" xlink:href="#mf05014c3d0" y="362.816633"/>
      </g>
     </g>
    </g>
    <g id="ytick_11">
     <g id="line2d_40">
      <g>
       <use style="fill:#555555;stroke:#555555;stroke-width:0.6;" x="69.325" xlink:href="#m633e557198" y="360.305897"/>
      </g>
     </g>
     <g id="line2d_41">
      <g>
       <use style="fill:#555555;stroke:#555555;stroke-width:0.6;" x="678" xlink:href="#mf05014c3d0" y="360.305897"/>
      </g>
     </g>
    </g>
    <g id="ytick_12">
     <g id="line2d_42">
      <g>
       <use style="fill:#555555;stroke:#555555;stroke-width:0.6;" x="69.325" xlink:href="#m633e557198" y="358.130998"/>
      </g>
     </g>
     <g id="line2d_43">
      <g>
       <use style="fill:#555555;stroke:#555555;stroke-width:0.6;" x="678" xlink:href="#mf05014c3d0" y="358.130998"/>
      </g>
     </g>
    </g>
    <g id="ytick_13">
     <g id="line2d_44">
      <g>
       <use style="fill:#555555;stroke:#555555;stroke-width:0.6;" x="69.325" xlink:href="#m633e557198" y="356.212601"/>
      </g>
     </g>
     <g id="line2d_45">
      <g>
       <use style="fill:#555555;stroke:#555555;stroke-width:0.6;" x="678" xlink:href="#mf05014c3d0" y="356.212601"/>
      </g>
     </g>
    </g>
    <g id="ytick_14">
     <g id="line2d_46">
      <g>
       <use style="fill:#555555;stroke:#555555;stroke-width:0.6;" x="69.325" xlink:href="#m633e557198" y="343.206869"/>
      </g>
     </g>
     <g id="line2d_47">
      <g>
       <use style="fill:#555555;stroke:#555555;stroke-width:0.6;" x="678" xlink:href="#mf05014c3d0" y="343.206869"/>
      </g>
     </g>
    </g>
    <g id="ytick_15">
     <g id="line2d_48">
      <g>
       <use style="fill:#555555;stroke:#555555;stroke-width:0.6;" x="69.325" xlink:href="#m633e557198" y="336.602837"/>
      </g>
     </g>
     <g id="line2d_49">
      <g>
       <use style="fill:#555555;stroke:#555555;stroke-width:0.6;" x="678" xlink:href="#mf05014c3d0" y="336.602837"/>
      </g>
     </g>
    </g>
    <g id="ytick_16">
     <g id="line2d_50">
      <g>
       <use style="fill:#555555;stroke:#555555;stroke-width:0.6;" x="69.325" xlink:href="#m633e557198" y="331.917202"/>
      </g>
     </g>
     <g id="line2d_51">
      <g>
       <use style="fill:#555555;stroke:#555555;stroke-width:0.6;" x="678" xlink:href="#mf05014c3d0" y="331.917202"/>
      </g>
     </g>
    </g>
    <g id="ytick_17">
     <g id="line2d_52">
      <g>
       <use style="fill:#555555;stroke:#555555;stroke-width:0.6;" x="69.325" xlink:href="#m633e557198" y="328.28274"/>
      </g>
     </g>
     <g id="line2d_53">
      <g>
       <use style="fill:#555555;stroke:#555555;stroke-width:0.6;" x="678" xlink:href="#mf05014c3d0" y="328.28274"/>
      </g>
     </g>
    </g>
    <g id="ytick_18">
     <g id="line2d_54">
      <g>
       <use style="fill:#555555;stroke:#555555;stroke-width:0.6;" x="69.325" xlink:href="#m633e557198" y="325.31317"/>
      </g>
     </g>
     <g id="line2d_55">
      <g>
       <use style="fill:#555555;stroke:#555555;stroke-width:0.6;" x="678" xlink:href="#mf05014c3d0" y="325.31317"/>
      </g>
     </g>
    </g>
    <g id="ytick_19">
     <g id="line2d_56">
      <g>
       <use style="fill:#555555;stroke:#555555;stroke-width:0.6;" x="69.325" xlink:href="#m633e557198" y="322.802433"/>
      </g>
     </g>
     <g id="line2d_57">
      <g>
       <use style="fill:#555555;stroke:#555555;stroke-width:0.6;" x="678" xlink:href="#mf05014c3d0" y="322.802433"/>
      </g>
     </g>
    </g>
    <g id="ytick_20">
     <g id="line2d_58">
      <g>
       <use style="fill:#555555;stroke:#555555;stroke-width:0.6;" x="69.325" xlink:href="#m633e557198" y="320.627534"/>
      </g>
     </g>
     <g id="line2d_59">
      <g>
       <use style="fill:#555555;stroke:#555555;stroke-width:0.6;" x="678" xlink:href="#mf05014c3d0" y="320.627534"/>
      </g>
     </g>
    </g>
    <g id="ytick_21">
     <g id="line2d_60">
      <g>
       <use style="fill:#555555;stroke:#555555;stroke-width:0.6;" x="69.325" xlink:href="#m633e557198" y="318.709137"/>
      </g>
     </g>
     <g id="line2d_61">
      <g>
       <use style="fill:#555555;stroke:#555555;stroke-width:0.6;" x="678" xlink:href="#mf05014c3d0" y="318.709137"/>
      </g>
     </g>
    </g>
    <g id="ytick_22">
     <g id="line2d_62">
      <g>
       <use style="fill:#555555;stroke:#555555;stroke-width:0.6;" x="69.325" xlink:href="#m633e557198" y="305.703406"/>
      </g>
     </g>
     <g id="line2d_63">
      <g>
       <use style="fill:#555555;stroke:#555555;stroke-width:0.6;" x="678" xlink:href="#mf05014c3d0" y="305.703406"/>
      </g>
     </g>
    </g>
    <g id="ytick_23">
     <g id="line2d_64">
      <g>
       <use style="fill:#555555;stroke:#555555;stroke-width:0.6;" x="69.325" xlink:href="#m633e557198" y="299.099373"/>
      </g>
     </g>
     <g id="line2d_65">
      <g>
       <use style="fill:#555555;stroke:#555555;stroke-width:0.6;" x="678" xlink:href="#mf05014c3d0" y="299.099373"/>
      </g>
     </g>
    </g>
    <g id="ytick_24">
     <g id="line2d_66">
      <g>
       <use style="fill:#555555;stroke:#555555;stroke-width:0.6;" x="69.325" xlink:href="#m633e557198" y="294.413738"/>
      </g>
     </g>
     <g id="line2d_67">
      <g>
       <use style="fill:#555555;stroke:#555555;stroke-width:0.6;" x="678" xlink:href="#mf05014c3d0" y="294.413738"/>
      </g>
     </g>
    </g>
    <g id="ytick_25">
     <g id="line2d_68">
      <g>
       <use style="fill:#555555;stroke:#555555;stroke-width:0.6;" x="69.325" xlink:href="#m633e557198" y="290.779277"/>
      </g>
     </g>
     <g id="line2d_69">
      <g>
       <use style="fill:#555555;stroke:#555555;stroke-width:0.6;" x="678" xlink:href="#mf05014c3d0" y="290.779277"/>
      </g>
     </g>
    </g>
    <g id="ytick_26">
     <g id="line2d_70">
      <g>
       <use style="fill:#555555;stroke:#555555;stroke-width:0.6;" x="69.325" xlink:href="#m633e557198" y="287.809706"/>
      </g>
     </g>
     <g id="line2d_71">
      <g>
       <use style="fill:#555555;stroke:#555555;stroke-width:0.6;" x="678" xlink:href="#mf05014c3d0" y="287.809706"/>
      </g>
     </g>
    </g>
    <g id="ytick_27">
     <g id="line2d_72">
      <g>
       <use style="fill:#555555;stroke:#555555;stroke-width:0.6;" x="69.325" xlink:href="#m633e557198" y="285.29897"/>
      </g>
     </g>
     <g id="line2d_73">
      <g>
       <use style="fill:#555555;stroke:#555555;stroke-width:0.6;" x="678" xlink:href="#mf05014c3d0" y="285.29897"/>
      </g>
     </g>
    </g>
    <g id="ytick_28">
     <g id="line2d_74">
      <g>
       <use style="fill:#555555;stroke:#555555;stroke-width:0.6;" x="69.325" xlink:href="#m633e557198" y="283.124071"/>
      </g>
     </g>
     <g id="line2d_75">
      <g>
       <use style="fill:#555555;stroke:#555555;stroke-width:0.6;" x="678" xlink:href="#mf05014c3d0" y="283.124071"/>
      </g>
     </g>
    </g>
    <g id="ytick_29">
     <g id="line2d_76">
      <g>
       <use style="fill:#555555;stroke:#555555;stroke-width:0.6;" x="69.325" xlink:href="#m633e557198" y="281.205674"/>
      </g>
     </g>
     <g id="line2d_77">
      <g>
       <use style="fill:#555555;stroke:#555555;stroke-width:0.6;" x="678" xlink:href="#mf05014c3d0" y="281.205674"/>
      </g>
     </g>
    </g>
    <g id="ytick_30">
     <g id="line2d_78">
      <g>
       <use style="fill:#555555;stroke:#555555;stroke-width:0.6;" x="69.325" xlink:href="#m633e557198" y="268.199942"/>
      </g>
     </g>
     <g id="line2d_79">
      <g>
       <use style="fill:#555555;stroke:#555555;stroke-width:0.6;" x="678" xlink:href="#mf05014c3d0" y="268.199942"/>
      </g>
     </g>
    </g>
    <g id="ytick_31">
     <g id="line2d_80">
      <g>
       <use style="fill:#555555;stroke:#555555;stroke-width:0.6;" x="69.325" xlink:href="#m633e557198" y="261.59591"/>
      </g>
     </g>
     <g id="line2d_81">
      <g>
       <use style="fill:#555555;stroke:#555555;stroke-width:0.6;" x="678" xlink:href="#mf05014c3d0" y="261.59591"/>
      </g>
     </g>
    </g>
    <g id="ytick_32">
     <g id="line2d_82">
      <g>
       <use style="fill:#555555;stroke:#555555;stroke-width:0.6;" x="69.325" xlink:href="#m633e557198" y="256.910275"/>
      </g>
     </g>
     <g id="line2d_83">
      <g>
       <use style="fill:#555555;stroke:#555555;stroke-width:0.6;" x="678" xlink:href="#mf05014c3d0" y="256.910275"/>
      </g>
     </g>
    </g>
    <g id="ytick_33">
     <g id="line2d_84">
      <g>
       <use style="fill:#555555;stroke:#555555;stroke-width:0.6;" x="69.325" xlink:href="#m633e557198" y="253.275814"/>
      </g>
     </g>
     <g id="line2d_85">
      <g>
       <use style="fill:#555555;stroke:#555555;stroke-width:0.6;" x="678" xlink:href="#mf05014c3d0" y="253.275814"/>
      </g>
     </g>
    </g>
    <g id="ytick_34">
     <g id="line2d_86">
      <g>
       <use style="fill:#555555;stroke:#555555;stroke-width:0.6;" x="69.325" xlink:href="#m633e557198" y="250.306243"/>
      </g>
     </g>
     <g id="line2d_87">
      <g>
       <use style="fill:#555555;stroke:#555555;stroke-width:0.6;" x="678" xlink:href="#mf05014c3d0" y="250.306243"/>
      </g>
     </g>
    </g>
    <g id="ytick_35">
     <g id="line2d_88">
      <g>
       <use style="fill:#555555;stroke:#555555;stroke-width:0.6;" x="69.325" xlink:href="#m633e557198" y="247.795506"/>
      </g>
     </g>
     <g id="line2d_89">
      <g>
       <use style="fill:#555555;stroke:#555555;stroke-width:0.6;" x="678" xlink:href="#mf05014c3d0" y="247.795506"/>
      </g>
     </g>
    </g>
    <g id="ytick_36">
     <g id="line2d_90">
      <g>
       <use style="fill:#555555;stroke:#555555;stroke-width:0.6;" x="69.325" xlink:href="#m633e557198" y="245.620607"/>
      </g>
     </g>
     <g id="line2d_91">
      <g>
       <use style="fill:#555555;stroke:#555555;stroke-width:0.6;" x="678" xlink:href="#mf05014c3d0" y="245.620607"/>
      </g>
     </g>
    </g>
    <g id="ytick_37">
     <g id="line2d_92">
      <g>
       <use style="fill:#555555;stroke:#555555;stroke-width:0.6;" x="69.325" xlink:href="#m633e557198" y="243.70221"/>
      </g>
     </g>
     <g id="line2d_93">
      <g>
       <use style="fill:#555555;stroke:#555555;stroke-width:0.6;" x="678" xlink:href="#mf05014c3d0" y="243.70221"/>
      </g>
     </g>
    </g>
    <g id="ytick_38">
     <g id="line2d_94">
      <g>
       <use style="fill:#555555;stroke:#555555;stroke-width:0.6;" x="69.325" xlink:href="#m633e557198" y="230.696479"/>
      </g>
     </g>
     <g id="line2d_95">
      <g>
       <use style="fill:#555555;stroke:#555555;stroke-width:0.6;" x="678" xlink:href="#mf05014c3d0" y="230.696479"/>
      </g>
     </g>
    </g>
    <g id="ytick_39">
     <g id="line2d_96">
      <g>
       <use style="fill:#555555;stroke:#555555;stroke-width:0.6;" x="69.325" xlink:href="#m633e557198" y="224.092447"/>
      </g>
     </g>
     <g id="line2d_97">
      <g>
       <use style="fill:#555555;stroke:#555555;stroke-width:0.6;" x="678" xlink:href="#mf05014c3d0" y="224.092447"/>
      </g>
     </g>
    </g>
    <g id="text_19">
     <!-- daily new deaths -->
     <defs>
      <path d="M 7.90625 0 
L 7.90625 5.796875 
L 21.40625 5.796875 
L 21.40625 60.703125 
L 8.5 60.703125 
L 8.5 66.5 
L 28.703125 66.5 
L 28.703125 5.796875 
L 42.09375 5.796875 
L 42.09375 0 
z
" id="Inconsolata-Regular-108"/>
      <path d="M 10.796875 -0.09375 
L 1.59375 45.703125 
L 7.90625 45.703125 
L 15.296875 9 
L 23.09375 41.40625 
L 27.5 41.40625 
L 37.203125 9.09375 
Q 38.5 18 39.34375 23.703125 
Q 40.203125 29.40625 40.640625 33.046875 
Q 41.09375 36.703125 41.25 39.203125 
Q 41.40625 41.703125 41.40625 44.203125 
L 41.40625 45.703125 
L 48.09375 45.703125 
Q 45.09375 22.5 40.5 -0.09375 
L 33.703125 -0.09375 
L 25.296875 29.5 
L 17.296875 -0.09375 
z
" id="Inconsolata-Regular-119"/>
     </defs>
     <g style="fill:#555555;" transform="translate(23.5635 354.5)rotate(-90)scale(0.12 -0.12)">
      <use xlink:href="#Inconsolata-Regular-100"/>
      <use x="49.999985" xlink:href="#Inconsolata-Regular-97"/>
      <use x="99.999969" xlink:href="#Inconsolata-Regular-105"/>
      <use x="149.999954" xlink:href="#Inconsolata-Regular-108"/>
      <use x="199.999939" xlink:href="#Inconsolata-Regular-121"/>
      <use x="249.999924" xlink:href="#Inconsolata-Regular-32"/>
      <use x="299.999908" xlink:href="#Inconsolata-Regular-110"/>
      <use x="349.999893" xlink:href="#Inconsolata-Regular-101"/>
      <use x="399.999878" xlink:href="#Inconsolata-Regular-119"/>
      <use x="449.999863" xlink:href="#Inconsolata-Regular-32"/>
      <use x="499.999847" xlink:href="#Inconsolata-Regular-100"/>
      <use x="549.999832" xlink:href="#Inconsolata-Regular-101"/>
      <use x="599.999817" xlink:href="#Inconsolata-Regular-97"/>
      <use x="649.999802" xlink:href="#Inconsolata-Regular-116"/>
      <use x="699.999786" xlink:href="#Inconsolata-Regular-104"/>
      <use x="749.999771" xlink:href="#Inconsolata-Regular-115"/>
     </g>
     <!-- (rolling 7-day mean) -->
     <defs>
      <path d="M 39.5 -10.40625 
Q 31.203125 -6.5 25.046875 0.046875 
Q 18.90625 6.59375 15.546875 14.84375 
Q 12.203125 23.09375 12.203125 32 
Q 12.203125 40.90625 15.5 48.953125 
Q 18.796875 57 24.796875 63.34375 
Q 30.796875 69.703125 38.90625 73.5 
L 40.796875 67.296875 
Q 34.40625 63.796875 29.546875 58.296875 
Q 24.703125 52.796875 22 46 
Q 19.296875 39.203125 19.296875 31.703125 
Q 19.296875 24.203125 22 17.296875 
Q 24.703125 10.40625 29.703125 4.796875 
Q 34.703125 -0.796875 41.40625 -4.40625 
z
" id="Inconsolata-Regular-40"/>
      <path d="M 11.90625 45.703125 
L 19.40625 45.703125 
L 19.203125 37.296875 
Q 21.09375 41.90625 25.09375 44.34375 
Q 29.09375 46.796875 33.703125 46.796875 
Q 41 46.796875 45.796875 41.796875 
L 42.59375 36.203125 
L 42.203125 35.296875 
L 41.5 35.703125 
Q 41.296875 36.5 40.890625 37.203125 
Q 40.5 37.90625 39.203125 38.90625 
Q 37.59375 39.90625 36.25 40.25 
Q 34.90625 40.59375 33.203125 40.59375 
Q 29.90625 40.59375 26.65625 38.890625 
Q 23.40625 37.203125 21.296875 33.59375 
Q 19.203125 30 19.203125 24.203125 
L 19.203125 -0.09375 
L 11.90625 -0.09375 
z
" id="Inconsolata-Regular-114"/>
      <path d="M 25 -0.796875 
Q 18.796875 -0.796875 14.046875 2.25 
Q 9.296875 5.296875 6.59375 10.640625 
Q 3.90625 16 3.90625 22.90625 
Q 3.90625 29.90625 6.59375 35.25 
Q 9.296875 40.59375 14.046875 43.640625 
Q 18.796875 46.703125 25 46.703125 
Q 31.203125 46.703125 35.953125 43.640625 
Q 40.703125 40.59375 43.390625 35.25 
Q 46.09375 29.90625 46.09375 22.90625 
Q 46.09375 16 43.390625 10.640625 
Q 40.703125 5.296875 35.953125 2.25 
Q 31.203125 -0.796875 25 -0.796875 
z
M 25 5.203125 
Q 29 5.203125 32 7.5 
Q 35 9.796875 36.75 13.796875 
Q 38.5 17.796875 38.5 23 
Q 38.5 30.796875 34.703125 35.75 
Q 30.90625 40.703125 25 40.703125 
Q 19.09375 40.703125 15.296875 35.75 
Q 11.5 30.796875 11.5 23 
Q 11.5 17.796875 13.25 13.796875 
Q 15 9.796875 18.046875 7.5 
Q 21.09375 5.203125 25 5.203125 
z
" id="Inconsolata-Regular-111"/>
      <path d="M 22.59375 15.5 
Q 18.703125 15.5 15.5 16.90625 
Q 13.703125 14.703125 13.703125 12.703125 
Q 13.703125 10.296875 16.703125 9.25 
Q 19.703125 8.203125 27.703125 8.203125 
Q 34.703125 8.203125 38.296875 6.703125 
Q 41.90625 5.203125 43.203125 2.59375 
Q 44.5 0 44.5 -3.40625 
Q 44.5 -6.90625 42.59375 -10.09375 
Q 40.703125 -13.296875 36.34375 -15.25 
Q 32 -17.203125 24.703125 -17.203125 
Q 15.09375 -17.203125 9.4375 -14.25 
Q 3.796875 -11.296875 3.796875 -5.40625 
Q 3.796875 -1.703125 5.890625 0.9375 
Q 8 3.59375 10.90625 4.90625 
Q 7.59375 7.09375 7.59375 11 
Q 7.59375 13.203125 8.6875 15.296875 
Q 9.796875 17.40625 11.703125 19.40625 
Q 6.59375 23.90625 6.59375 31.5 
Q 6.59375 35.90625 8.546875 39.5 
Q 10.5 43.09375 14.09375 45.25 
Q 17.703125 47.40625 22.59375 47.40625 
Q 26.296875 47.40625 29.25 46.15625 
Q 32.203125 44.90625 34.296875 42.703125 
Q 36.90625 45.09375 39.796875 46.140625 
Q 42.703125 47.203125 46.59375 46.90625 
L 47.5 41 
Q 44.5 41.296875 41.84375 40.890625 
Q 39.203125 40.5 36.90625 39 
Q 38.59375 35.59375 38.59375 31.5 
Q 38.59375 27.09375 36.640625 23.4375 
Q 34.703125 19.796875 31.140625 17.640625 
Q 27.59375 15.5 22.59375 15.5 
z
M 22.59375 21.5 
Q 27 21.5 29.796875 24.453125 
Q 32.59375 27.40625 32.59375 31.5 
Q 32.59375 35.59375 29.796875 38.546875 
Q 27 41.5 22.59375 41.5 
Q 18.296875 41.5 15.4375 38.546875 
Q 12.59375 35.59375 12.59375 31.5 
Q 12.59375 27.40625 15.4375 24.453125 
Q 18.296875 21.5 22.59375 21.5 
z
M 10.40625 -4.59375 
Q 10.40625 -8 14.25 -9.890625 
Q 18.09375 -11.796875 24.796875 -11.796875 
Q 31.59375 -11.796875 34.75 -9.75 
Q 37.90625 -7.703125 37.90625 -4.5 
Q 37.90625 -2.296875 37.09375 -0.890625 
Q 36.296875 0.5 33.796875 1.203125 
Q 31.296875 1.90625 26.203125 1.90625 
Q 22.703125 1.90625 19.84375 2.203125 
Q 17 2.5 14.703125 3.203125 
Q 12.40625 1.59375 11.40625 -0.046875 
Q 10.40625 -1.703125 10.40625 -4.59375 
z
" id="Inconsolata-Regular-103"/>
      <path d="M 15.5 0 
Q 19.90625 14.296875 24.59375 28.09375 
Q 29.296875 41.90625 34.5 55.703125 
L 7.90625 55.703125 
L 7.90625 62.296875 
L 43.203125 62.296875 
L 43.203125 58.40625 
Q 37.5 44 32.5 29.5 
Q 27.5 15 23.40625 0 
z
" id="Inconsolata-Regular-55"/>
      <path d="M 11.09375 28.09375 
L 11.09375 34.796875 
L 39.09375 34.796875 
L 39.09375 28.09375 
z
" id="Inconsolata-Regular-45"/>
      <path d="M 3.796875 0 
L 3.796875 45.703125 
L 10.40625 45.703125 
L 10.40625 41.203125 
Q 12 43.703125 14.5 45.25 
Q 17 46.796875 19.703125 46.796875 
Q 22.703125 46.796875 24.953125 44.890625 
Q 27.203125 43 27.796875 40.09375 
Q 29.09375 43.09375 31.890625 44.9375 
Q 34.703125 46.796875 38.09375 46.796875 
Q 42.796875 46.796875 44.9375 43.4375 
Q 47.09375 40.09375 46.90625 35.09375 
L 46.90625 0 
L 40.296875 0 
L 40.296875 32.40625 
Q 40.296875 36.59375 39.75 38.5 
Q 39.203125 40.40625 38.203125 40.953125 
Q 37.203125 41.5 36 41.5 
Q 34.09375 41.5 32.4375 39.75 
Q 30.796875 38 29.75 35.390625 
Q 28.703125 32.796875 28.703125 30.203125 
L 28.703125 0 
L 22 0 
L 22 31.796875 
Q 22 37.5 20.953125 39.390625 
Q 19.90625 41.296875 17 41.296875 
Q 14.796875 41.296875 12.59375 38.4375 
Q 10.40625 35.59375 10.40625 30.5 
L 10.40625 0 
z
" id="Inconsolata-Regular-109"/>
      <path d="M 13.25 -10.40625 
Q 21.546875 -6.5 27.6875 0.046875 
Q 33.84375 6.59375 37.1875 14.84375 
Q 40.546875 23.09375 40.546875 32 
Q 40.546875 40.90625 37.25 48.953125 
Q 33.953125 57 27.953125 63.34375 
Q 21.953125 69.703125 13.84375 73.5 
L 11.953125 67.296875 
Q 18.34375 63.796875 23.1875 58.296875 
Q 28.046875 52.796875 30.75 46 
Q 33.453125 39.203125 33.453125 31.703125 
Q 33.453125 24.203125 30.75 17.296875 
Q 28.046875 10.40625 23.046875 4.796875 
Q 18.046875 -0.796875 11.34375 -4.40625 
z
" id="Inconsolata-Regular-41"/>
     </defs>
     <g style="fill:#555555;" transform="translate(36.23625 366.5)rotate(-90)scale(0.12 -0.12)">
      <use xlink:href="#Inconsolata-Regular-40"/>
      <use x="49.999985" xlink:href="#Inconsolata-Regular-114"/>
      <use x="99.999969" xlink:href="#Inconsolata-Regular-111"/>
      <use x="149.999954" xlink:href="#Inconsolata-Regular-108"/>
      <use x="199.999939" xlink:href="#Inconsolata-Regular-108"/>
      <use x="249.999924" xlink:href="#Inconsolata-Regular-105"/>
      <use x="299.999908" xlink:href="#Inconsolata-Regular-110"/>
      <use x="349.999893" xlink:href="#Inconsolata-Regular-103"/>
      <use x="399.999878" xlink:href="#Inconsolata-Regular-32"/>
      <use x="449.999863" xlink:href="#Inconsolata-Regular-55"/>
      <use x="499.999847" xlink:href="#Inconsolata-Regular-45"/>
      <use x="549.999832" xlink:href="#Inconsolata-Regular-100"/>
      <use x="599.999817" xlink:href="#Inconsolata-Regular-97"/>
      <use x="649.999802" xlink:href="#Inconsolata-Regular-121"/>
      <use x="699.999786" xlink:href="#Inconsolata-Regular-32"/>
      <use x="749.999771" xlink:href="#Inconsolata-Regular-109"/>
      <use x="799.999756" xlink:href="#Inconsolata-Regular-101"/>
      <use x="849.999741" xlink:href="#Inconsolata-Regular-97"/>
      <use x="899.999725" xlink:href="#Inconsolata-Regular-110"/>
      <use x="949.99971" xlink:href="#Inconsolata-Regular-41"/>
     </g>
    </g>
   </g>
   <g id="line2d_98">
    <path clip-path="url(#p17f8ee3e6d)" d="M 15.234957 433 
L 15.240587 386.19064 
L 19.747621 374.900973 
L 24.254656 374.900973 
L 28.76169 357.007273 
L 33.268725 352.321638 
L 37.775759 348.687177 
L 42.282793 345.717606 
L 46.789828 345.717606 
L 51.296862 347.134807 
L 55.803897 343.206869 
L 60.310931 347.134807 
L 64.817966 337.397509 
L 69.325 339.113573 
L 73.832034 335.12113 
L 78.339069 335.84514 
L 82.846103 331.34565 
L 87.353138 331.917202 
L 91.860172 329.241108 
L 96.367207 333.763048 
L 100.874241 333.124239 
L 105.381275 333.763048 
L 109.88831 330.259411 
L 114.395344 334.427938 
L 118.902379 331.917202 
L 123.409413 333.763048 
L 127.916448 335.84514 
L 132.423482 332.509541 
L 136.930516 334.427938 
L 141.437551 333.763048 
L 145.944585 331.917202 
L 150.45162 330.793477 
L 154.958654 327.823906 
L 159.465689 327.823906 
L 168.479757 325.31317 
L 172.986792 326.107842 
L 177.493826 324.189445 
L 182.000861 325.31317 
L 186.507895 325.70566 
L 191.01493 323.481179 
L 195.521964 325.31317 
L 200.028999 326.520207 
L 204.536033 326.943284 
L 209.043067 328.28274 
L 218.057136 330.259411 
L 222.564171 331.917202 
L 227.071205 330.793477 
L 231.57824 328.28274 
L 236.085274 328.28274 
L 240.592308 328.754876 
L 245.099343 328.754876 
L 249.606377 330.259411 
L 254.113412 330.259411 
L 258.620446 330.793477 
L 263.127481 333.763048 
L 267.634515 333.763048 
L 272.141549 335.84514 
L 281.155618 337.397509 
L 285.662653 338.232951 
L 290.169687 342.083144 
L 294.676722 344.413906 
L 299.183756 347.134807 
L 303.69079 348.687177 
L 308.197825 348.687177 
L 312.704859 350.403241 
L 317.211894 352.321638 
L 321.718928 350.403241 
L 326.225963 350.403241 
L 330.732997 352.321638 
L 335.240031 348.687177 
L 339.747066 352.321638 
L 344.2541 350.403241 
L 348.761135 348.687177 
L 353.268169 350.403241 
L 357.775204 350.403241 
L 362.282238 352.321638 
L 366.789272 357.007273 
L 371.296307 357.007273 
L 375.803341 363.611305 
L 393.831479 363.611305 
L 398.338514 357.007273 
L 402.845548 357.007273 
L 407.352582 354.496537 
L 411.859617 359.976844 
L 416.366651 363.611305 
L 438.901823 363.611305 
L 443.408858 357.007273 
L 447.915892 357.007273 
L 452.422927 359.976844 
L 456.929961 359.976844 
L 461.436996 368.29694 
L 465.94403 363.611305 
L 470.451064 363.611305 
L 474.958099 368.29694 
L 479.465133 363.611305 
L 492.986237 363.611305 
L 497.493271 368.29694 
L 502.000305 374.900973 
L 506.50734 374.900973 
L 511.014374 368.29694 
L 515.521409 368.29694 
L 520.028443 363.611305 
L 538.056581 363.611305 
L 542.563615 368.29694 
L 547.07065 363.611305 
L 551.577684 368.29694 
L 569.605822 368.29694 
L 574.112856 374.900973 
L 596.648029 374.900973 
L 601.155063 386.19064 
L 605.662097 386.19064 
L 605.667728 433 
M 619.177571 433 
L 619.183201 386.19064 
L 632.704304 386.19064 
L 632.704304 386.19064 
" style="fill:none;stroke:#e24a33;stroke-linecap:square;stroke-width:4;"/>
   </g>
   <g id="line2d_99">
    <defs>
     <path d="M 0 3 
C 0.795609 3 1.55874 2.683901 2.12132 2.12132 
C 2.683901 1.55874 3 0.795609 3 0 
C 3 -0.795609 2.683901 -1.55874 2.12132 -2.12132 
C 1.55874 -2.683901 0.795609 -3 0 -3 
C -0.795609 -3 -1.55874 -2.683901 -2.12132 -2.12132 
C -2.683901 -1.55874 -3 -0.795609 -3 0 
C -3 0.795609 -2.683901 1.55874 -2.12132 2.12132 
C -1.55874 2.683901 -0.795609 3 0 3 
z
" id="m4de369cb04" style="stroke:#e24a33;"/>
    </defs>
    <g clip-path="url(#p17f8ee3e6d)">
     <use style="fill:#e24a33;stroke:#e24a33;" x="632.704304" xlink:href="#m4de369cb04" y="386.19064"/>
    </g>
   </g>
   <g id="line2d_100">
    <path clip-path="url(#p17f8ee3e6d)" d="M 37.768773 433 
L 37.775759 374.900973 
L 42.282793 374.900973 
L 46.789828 368.29694 
L 51.296862 368.29694 
L 55.803897 354.496537 
L 60.310931 350.403241 
L 64.817966 347.134807 
L 69.325 342.083144 
L 73.832034 335.84514 
L 78.339069 333.763048 
L 82.846103 325.70566 
L 87.353138 319.50381 
L 91.860172 315.869348 
L 96.367207 314.218565 
L 100.874241 310.234655 
L 105.381275 306.538848 
L 109.88831 301.792096 
L 114.395344 298.121074 
L 118.902379 294.707215 
L 127.916448 287.089068 
L 136.930516 281.518906 
L 141.437551 279.167073 
L 145.944585 276.520039 
L 150.45162 274.809792 
L 154.958654 273.502065 
L 159.465689 272.870073 
L 163.972723 271.192798 
L 168.479757 270.163483 
L 172.986792 267.866004 
L 177.493826 267.076217 
L 182.000861 267.163317 
L 186.507895 269.50752 
L 191.01493 267.763745 
L 195.521964 268.387157 
L 200.028999 269.684974 
L 204.536033 267.572323 
L 209.043067 267.684652 
L 213.550102 266.178459 
L 218.057136 264.818733 
L 222.564171 266.395699 
L 227.071205 265.347128 
L 231.57824 264.668183 
L 236.085274 267.349964 
L 240.592308 266.82837 
L 245.099343 268.107135 
L 249.606377 267.991866 
L 254.113412 268.316699 
L 258.620446 269.864382 
L 263.127481 269.646785 
L 267.634515 270.874374 
L 272.141549 272.916631 
L 276.648584 274.075918 
L 285.662653 275.5783 
L 290.169687 276.004748 
L 294.676722 279.985715 
L 299.183756 277.152644 
L 303.69079 277.958407 
L 308.197825 277.852849 
L 321.718928 280.251739 
L 326.225963 278.474832 
L 330.732997 282.384893 
L 335.240031 285.232625 
L 339.747066 289.142516 
L 348.761135 288.891934 
L 353.268169 291.155884 
L 357.775204 291.10833 
L 362.282238 294.240157 
L 366.789272 292.289818 
L 371.296307 291.688363 
L 375.803341 292.086855 
L 380.310376 292.18802 
L 389.324445 293.786119 
L 393.831479 294.182705 
L 398.338514 295.188064 
L 402.845548 294.648095 
L 407.352582 295.066514 
L 416.366651 296.522293 
L 420.873686 300.643988 
L 425.38072 302.162283 
L 429.887755 303.027312 
L 438.901823 305.358074 
L 443.408858 305.131854 
L 447.915892 305.703406 
L 452.422927 302.25616 
L 456.929961 304.579681 
L 465.94403 307.549252 
L 470.451064 308.214142 
L 479.465133 309.337867 
L 483.972168 314.023502 
L 488.479202 311.347408 
L 492.986237 310.702273 
L 497.493271 310.544904 
L 502.000305 310.861177 
L 506.50734 312.191512 
L 511.014374 312.541795 
L 515.521409 312.191512 
L 520.028443 315.440704 
L 524.535478 318.20011 
L 529.042512 315.230539 
L 533.549546 316.309579 
L 538.056581 316.309579 
L 542.563615 315.440704 
L 547.07065 315.653616 
L 551.577684 317.70651 
L 556.084719 317.95144 
L 560.591753 324.189445 
L 574.112856 324.189445 
L 574.112856 324.189445 
" style="fill:none;stroke:#348abd;stroke-linecap:square;stroke-opacity:0.4;stroke-width:2;"/>
   </g>
   <g id="line2d_101">
    <defs>
     <path d="M 0 3 
C 0.795609 3 1.55874 2.683901 2.12132 2.12132 
C 2.683901 1.55874 3 0.795609 3 0 
C 3 -0.795609 2.683901 -1.55874 2.12132 -2.12132 
C 1.55874 -2.683901 0.795609 -3 0 -3 
C -0.795609 -3 -1.55874 -2.683901 -2.12132 -2.12132 
C -2.683901 -1.55874 -3 -0.795609 -3 0 
C -3 0.795609 -2.683901 1.55874 -2.12132 2.12132 
C -1.55874 2.683901 -0.795609 3 0 3 
z
" id="mf0ff2d03b9" style="stroke:#348abd;stroke-opacity:0.4;"/>
    </defs>
    <g clip-path="url(#p17f8ee3e6d)">
     <use style="fill:#348abd;fill-opacity:0.4;stroke:#348abd;stroke-opacity:0.4;" x="574.112856" xlink:href="#mf0ff2d03b9" y="324.189445"/>
    </g>
   </g>
   <g id="line2d_102">
    <path clip-path="url(#p17f8ee3e6d)" d="M -1 363.611305 
L 10.733552 363.611305 
L 15.240587 368.29694 
L 19.747621 374.900973 
L 24.254656 354.496537 
L 28.76169 357.007273 
L 33.268725 354.496537 
L 37.775759 350.403241 
L 42.282793 348.687177 
L 46.789828 348.687177 
L 51.296862 345.717606 
L 55.803897 347.134807 
L 60.310931 342.083144 
L 64.817966 341.03197 
L 69.325 338.232951 
L 73.832034 335.12113 
L 78.339069 332.509541 
L 82.846103 330.793477 
L 87.353138 332.509541 
L 91.860172 333.124239 
L 96.367207 332.509541 
L 100.874241 333.763048 
L 105.381275 336.602837 
L 109.88831 340.044544 
L 114.395344 344.413906 
L 118.902379 345.717606 
L 123.409413 345.717606 
L 127.916448 348.687177 
L 132.423482 354.496537 
L 136.930516 357.007273 
L 141.437551 359.976844 
L 145.944585 363.611305 
L 150.45162 345.717606 
L 154.958654 344.413906 
L 159.465689 344.413906 
L 163.972723 341.03197 
L 168.479757 341.03197 
L 172.986792 335.84514 
L 177.493826 334.427938 
L 182.000861 339.113573 
L 186.507895 343.206869 
L 191.01493 343.206869 
L 195.521964 345.717606 
L 200.028999 344.413906 
L 204.536033 352.321638 
L 209.043067 357.007273 
L 213.550102 363.611305 
L 218.057136 363.611305 
L 222.564171 368.29694 
L 227.071205 374.900973 
L 231.57824 386.19064 
L 254.113412 386.19064 
L 258.620446 374.900973 
L 272.141549 374.900973 
L 276.648584 368.29694 
L 281.155618 368.29694 
L 285.662653 363.611305 
L 290.169687 368.29694 
L 303.69079 368.29694 
L 308.197825 374.900973 
L 312.704859 374.900973 
L 317.211894 386.19064 
L 321.718928 386.19064 
L 321.724558 433 
M 425.37509 433 
L 425.38072 386.19064 
L 429.887755 374.900973 
L 452.422927 374.900973 
L 456.929961 386.19064 
L 456.935591 433 
L 456.935591 433 
" style="fill:none;stroke:#988ed5;stroke-linecap:square;stroke-opacity:0.4;stroke-width:2;"/>
   </g>
   <g id="line2d_103">
    <defs>
     <path d="M 0 3 
C 0.795609 3 1.55874 2.683901 2.12132 2.12132 
C 2.683901 1.55874 3 0.795609 3 0 
C 3 -0.795609 2.683901 -1.55874 2.12132 -2.12132 
C 1.55874 -2.683901 0.795609 -3 0 -3 
C -0.795609 -3 -1.55874 -2.683901 -2.12132 -2.12132 
C -2.683901 -1.55874 -3 -0.795609 -3 0 
C -3 0.795609 -2.683901 1.55874 -2.12132 2.12132 
C -1.55874 2.683901 -0.795609 3 0 3 
z
" id="m2babfe501f" style="stroke:#988ed5;stroke-opacity:0.4;"/>
    </defs>
    <g clip-path="url(#p17f8ee3e6d)">
     <use style="fill:#988ed5;fill-opacity:0.4;stroke:#988ed5;stroke-opacity:0.4;" x="0" xlink:href="#m2babfe501f" y="0"/>
    </g>
   </g>
   <g id="line2d_104">
    <path clip-path="url(#p17f8ee3e6d)" d="M -1 372.281724 
L 1.719484 368.29694 
L 6.226518 368.29694 
L 10.733552 363.611305 
L 15.240587 359.976844 
L 19.747621 359.976844 
L 24.254656 363.611305 
L 28.76169 368.29694 
L 33.268725 374.900973 
L 37.775759 363.611305 
L 42.282793 363.611305 
L 46.789828 359.976844 
L 51.296862 350.403241 
L 55.803897 347.134807 
L 60.310931 347.134807 
L 64.817966 344.413906 
L 69.325 342.083144 
L 73.832034 335.12113 
L 78.339069 335.12113 
L 82.846103 331.34565 
L 87.353138 325.70566 
L 91.860172 320.921011 
L 96.367207 319.234588 
L 100.874241 316.534239 
L 105.381275 315.653616 
L 109.88831 311.848603 
L 114.395344 308.766315 
L 118.902379 308.626507 
L 123.409413 309.631344 
L 127.916448 307.036216 
L 132.423482 305.937763 
L 136.930516 305.937763 
L 141.437551 306.416843 
L 145.944585 307.290714 
L 150.45162 305.703406 
L 154.958654 304.471458 
L 163.972723 307.162968 
L 168.479757 306.295745 
L 172.986792 305.937763 
L 177.493826 305.703406 
L 182.000861 305.703406 
L 186.507895 303.326174 
L 191.01493 301.883857 
L 195.521964 302.068944 
L 200.028999 301.430135 
L 204.536033 300.306411 
L 209.043067 300.057741 
L 213.550102 300.729488 
L 218.057136 303.836798 
L 222.564171 305.703406 
L 227.071205 305.358074 
L 231.57824 306.175541 
L 236.085274 308.214142 
L 240.592308 309.78009 
L 245.099343 309.483944 
L 249.606377 307.549252 
L 254.113412 308.078975 
L 258.620446 307.94492 
L 263.127481 309.193088 
L 267.634515 307.81196 
L 272.141549 307.162968 
L 276.648584 307.162968 
L 281.155618 306.785633 
L 285.662653 306.910443 
L 290.169687 307.549252 
L 294.676722 307.549252 
L 299.183756 309.78009 
L 303.69079 311.021647 
L 308.197825 313.081763 
L 312.704859 315.869348 
L 317.211894 315.230539 
L 321.718928 316.76204 
L 326.225963 316.76204 
L 330.732997 315.653616 
L 335.240031 317.95144 
L 339.747066 317.95144 
L 344.2541 317.22743 
L 348.761135 317.465209 
L 353.268169 317.465209 
L 357.775204 317.70651 
L 362.282238 317.465209 
L 366.789272 313.451951 
L 371.296307 315.023052 
L 375.803341 313.640248 
L 380.310376 312.541795 
L 384.81741 312.365712 
L 393.831479 312.719803 
L 398.338514 312.719803 
L 402.845548 311.512766 
L 407.352582 313.830748 
L 411.859617 314.023502 
L 416.366651 312.899777 
L 420.873686 312.899777 
L 425.38072 313.081763 
L 429.887755 314.818174 
L 434.394789 311.021647 
L 438.901823 309.337867 
L 443.408858 309.78009 
L 447.915892 309.78009 
L 452.422927 310.702273 
L 456.929961 310.702273 
L 461.436996 309.631344 
L 465.94403 311.848603 
L 470.451064 312.019155 
L 474.958099 313.081763 
L 479.465133 314.415992 
L 488.479202 313.265805 
L 492.986237 314.615842 
L 497.493271 314.818174 
L 502.000305 315.230539 
L 515.521409 315.230539 
L 515.521409 315.230539 
" style="fill:none;stroke:#777777;stroke-linecap:square;stroke-opacity:0.4;stroke-width:2;"/>
   </g>
   <g id="line2d_105">
    <defs>
     <path d="M 0 3 
C 0.795609 3 1.55874 2.683901 2.12132 2.12132 
C 2.683901 1.55874 3 0.795609 3 0 
C 3 -0.795609 2.683901 -1.55874 2.12132 -2.12132 
C 1.55874 -2.683901 0.795609 -3 0 -3 
C -0.795609 -3 -1.55874 -2.683901 -2.12132 -2.12132 
C -2.683901 -1.55874 -3 -0.795609 -3 0 
C -3 0.795609 -2.683901 1.55874 -2.12132 2.12132 
C -1.55874 2.683901 -0.795609 3 0 3 
z
" id="me52d375a57" style="stroke:#777777;stroke-opacity:0.4;"/>
    </defs>
    <g clip-path="url(#p17f8ee3e6d)">
     <use style="fill:#777777;fill-opacity:0.4;stroke:#777777;stroke-opacity:0.4;" x="515.521409" xlink:href="#me52d375a57" y="315.230539"/>
    </g>
   </g>
   <g id="line2d_106">
    <path clip-path="url(#p17f8ee3e6d)" d="M 6.220888 433 
L 6.226518 386.19064 
L 15.240587 363.611305 
L 19.747621 363.611305 
L 24.254656 359.976844 
L 28.76169 352.321638 
L 33.268725 344.413906 
L 42.282793 347.134807 
L 46.789828 345.717606 
L 51.296862 342.083144 
L 55.803897 339.113573 
L 60.310931 339.113573 
L 64.817966 341.03197 
L 69.325 337.397509 
L 73.832034 335.12113 
L 78.339069 334.427938 
L 91.860172 336.602837 
L 96.367207 335.84514 
L 105.381275 335.84514 
L 109.88831 337.397509 
L 118.902379 335.84514 
L 123.409413 333.763048 
L 127.916448 334.427938 
L 132.423482 334.427938 
L 136.930516 333.124239 
L 141.437551 331.34565 
L 145.944585 330.793477 
L 150.45162 330.793477 
L 154.958654 332.509541 
L 159.465689 331.917202 
L 168.479757 331.917202 
L 172.986792 332.509541 
L 182.000861 331.34565 
L 186.507895 329.742303 
L 191.01493 329.742303 
L 195.521964 328.28274 
L 200.028999 328.754876 
L 204.536033 328.28274 
L 209.043067 328.28274 
L 213.550102 328.754876 
L 218.057136 328.754876 
L 222.564171 327.823906 
L 227.071205 329.241108 
L 231.57824 329.241108 
L 236.085274 328.754876 
L 249.606377 328.754876 
L 254.113412 329.241108 
L 258.620446 329.241108 
L 263.127481 328.28274 
L 267.634515 328.754876 
L 272.141549 328.754876 
L 281.155618 327.823906 
L 285.662653 327.823906 
L 294.676722 328.754876 
L 299.183756 328.754876 
L 303.69079 328.28274 
L 308.197825 328.754876 
L 312.704859 328.754876 
L 317.211894 327.823906 
L 321.718928 326.520207 
L 326.225963 326.107842 
L 330.732997 326.107842 
L 335.240031 326.520207 
L 339.747066 326.107842 
L 344.2541 326.520207 
L 348.761135 327.823906 
L 357.775204 327.823906 
L 362.282238 326.943284 
L 371.296307 326.107842 
L 375.803341 326.943284 
L 380.310376 326.520207 
L 384.81741 326.520207 
L 389.324445 326.943284 
L 393.831479 327.823906 
L 398.338514 327.823906 
L 402.845548 328.754876 
L 407.352582 327.377644 
L 416.366651 328.28274 
L 420.873686 327.823906 
L 425.38072 326.943284 
L 429.887755 326.520207 
L 443.408858 326.520207 
L 443.408858 326.520207 
" style="fill:none;stroke:#fbc15e;stroke-linecap:square;stroke-opacity:0.4;stroke-width:2;"/>
   </g>
   <g id="line2d_107">
    <defs>
     <path d="M 0 3 
C 0.795609 3 1.55874 2.683901 2.12132 2.12132 
C 2.683901 1.55874 3 0.795609 3 0 
C 3 -0.795609 2.683901 -1.55874 2.12132 -2.12132 
C 1.55874 -2.683901 0.795609 -3 0 -3 
C -0.795609 -3 -1.55874 -2.683901 -2.12132 -2.12132 
C -2.683901 -1.55874 -3 -0.795609 -3 0 
C -3 0.795609 -2.683901 1.55874 -2.12132 2.12132 
C -1.55874 2.683901 -0.795609 3 0 3 
z
" id="ma0fff320f6" style="stroke:#fbc15e;stroke-opacity:0.4;"/>
    </defs>
    <g clip-path="url(#p17f8ee3e6d)">
     <use style="fill:#fbc15e;fill-opacity:0.4;stroke:#fbc15e;stroke-opacity:0.4;" x="443.408858" xlink:href="#ma0fff320f6" y="326.520207"/>
    </g>
   </g>
   <g id="line2d_108">
    <path clip-path="url(#p17f8ee3e6d)" d="M 19.741991 433 
L 19.747621 386.19064 
L 28.76169 386.19064 
L 33.268725 374.900973 
L 37.775759 374.900973 
L 42.282793 368.29694 
L 46.789828 363.611305 
L 51.296862 368.29694 
L 55.803897 348.687177 
L 60.310931 345.717606 
L 69.325 345.717606 
L 73.832034 334.427938 
L 78.339069 334.427938 
L 82.846103 327.377644 
L 87.353138 324.929915 
L 91.860172 318.969744 
L 96.367207 314.023502 
L 100.874241 310.234655 
L 105.381275 312.019155 
L 109.88831 307.549252 
L 114.395344 304.579681 
L 118.902379 301.883857 
L 127.916448 299.731979 
L 132.423482 296.992481 
L 136.930516 292.703492 
L 141.437551 291.492714 
L 145.944585 291.013634 
L 150.45162 290.320443 
L 154.958654 288.523143 
L 159.465689 288.004769 
L 163.972723 288.361879 
L 168.479757 289.100484 
L 172.986792 288.321811 
L 177.493826 288.122938 
L 182.000861 288.162519 
L 186.507895 289.87418 
L 191.01493 288.975034 
L 195.521964 289.742652 
L 200.028999 290.640264 
L 213.550102 291.986314 
L 218.057136 291.63923 
L 222.564171 294.011556 
L 227.071205 293.786119 
L 231.57824 293.074281 
L 236.085274 295.006078 
L 240.592308 295.127175 
L 245.099343 295.495966 
L 249.606377 297.547004 
L 254.113412 298.565308 
L 258.620446 297.198221 
L 267.634515 299.333731 
L 272.141549 300.901844 
L 276.648584 303.027312 
L 281.155618 303.225943 
L 285.662653 304.363949 
L 290.169687 308.35044 
L 294.676722 311.848603 
L 299.183756 313.081763 
L 303.69079 316.309579 
L 308.197825 317.22743 
L 312.704859 317.465209 
L 317.211894 316.76204 
L 321.718928 319.234588 
L 326.225963 316.534239 
L 330.732997 318.20011 
L 335.240031 318.969744 
L 344.2541 322.802433 
L 348.761135 323.138271 
L 353.268169 325.70566 
L 357.775204 334.427938 
L 362.282238 335.84514 
L 366.789272 333.124239 
L 371.296307 333.763048 
L 375.803341 333.124239 
L 380.310376 333.763048 
L 384.81741 332.509541 
L 389.324445 334.427938 
L 393.831479 333.763048 
L 398.338514 336.602837 
L 402.845548 341.03197 
L 407.352582 343.206869 
L 411.859617 343.206869 
L 416.366651 354.496537 
L 420.873686 359.976844 
L 425.38072 363.611305 
L 429.887755 374.900973 
L 438.901823 374.900973 
L 443.408858 386.19064 
L 447.915892 368.29694 
L 452.422927 343.206869 
L 461.436996 341.03197 
L 465.94403 340.044544 
L 474.958099 340.044544 
L 479.465133 341.03197 
L 483.972168 337.397509 
L 488.479202 337.397509 
L 497.493271 339.113573 
L 506.50734 339.113573 
L 511.014374 340.044544 
L 515.521409 374.900973 
L 524.535478 374.900973 
L 529.042512 357.007273 
L 542.563615 357.007273 
L 547.07065 354.496537 
L 556.084719 354.496537 
L 560.591753 368.29694 
L 574.112856 368.29694 
L 574.112856 368.29694 
" style="fill:none;stroke:#8eba42;stroke-linecap:square;stroke-opacity:0.4;stroke-width:2;"/>
   </g>
   <g id="line2d_109">
    <defs>
     <path d="M 0 3 
C 0.795609 3 1.55874 2.683901 2.12132 2.12132 
C 2.683901 1.55874 3 0.795609 3 0 
C 3 -0.795609 2.683901 -1.55874 2.12132 -2.12132 
C 1.55874 -2.683901 0.795609 -3 0 -3 
C -0.795609 -3 -1.55874 -2.683901 -2.12132 -2.12132 
C -2.683901 -1.55874 -3 -0.795609 -3 0 
C -3 0.795609 -2.683901 1.55874 -2.12132 2.12132 
C -1.55874 2.683901 -0.795609 3 0 3 
z
" id="mde4db9880b" style="stroke:#8eba42;stroke-opacity:0.4;"/>
    </defs>
    <g clip-path="url(#p17f8ee3e6d)">
     <use style="fill:#8eba42;fill-opacity:0.4;stroke:#8eba42;stroke-opacity:0.4;" x="574.112856" xlink:href="#mde4db9880b" y="368.29694"/>
    </g>
   </g>
   <g id="line2d_110">
    <path clip-path="url(#p17f8ee3e6d)" d="M 24.249026 433 
L 24.254656 386.19064 
L 28.76169 386.19064 
L 33.268725 357.007273 
L 37.775759 354.496537 
L 42.282793 347.134807 
L 46.789828 345.717606 
L 51.296862 343.206869 
L 55.803897 341.03197 
L 60.310931 337.397509 
L 64.817966 341.03197 
L 69.325 336.602837 
L 73.832034 335.84514 
L 78.339069 330.259411 
L 82.846103 326.943284 
L 87.353138 325.70566 
L 91.860172 322.802433 
L 96.367207 315.869348 
L 100.874241 310.702273 
L 105.381275 304.045615 
L 109.88831 298.194277 
L 114.395344 292.755948 
L 118.902379 288.68602 
L 123.409413 283.990157 
L 150.45162 258.900086 
L 154.958654 256.005178 
L 159.465689 252.830558 
L 163.972723 248.881286 
L 168.479757 245.875632 
L 172.986792 242.733653 
L 177.493826 240.977929 
L 182.000861 239.614948 
L 195.521964 234.860062 
L 200.028999 233.595932 
L 204.536033 232.929985 
L 213.550102 230.994695 
L 218.057136 230.605986 
L 227.071205 230.313603 
L 231.57824 229.828842 
L 236.085274 229.786981 
L 240.592308 229.223626 
L 245.099343 228.866221 
L 249.606377 229.439741 
L 263.127481 229.591224 
L 267.634515 229.242768 
L 272.141549 229.779281 
L 276.648584 230.609457 
L 281.155618 230.535564 
L 285.662653 230.969831 
L 290.169687 231.246646 
L 294.676722 231.117198 
L 299.183756 231.280375 
L 303.69079 231.583436 
L 308.197825 231.699327 
L 317.211894 232.088739 
L 321.718928 231.980122 
L 326.225963 232.03434 
L 330.732997 232.524093 
L 344.2541 233.101689 
L 348.761135 233.505826 
L 357.775204 235.564623 
L 362.282238 235.793683 
L 366.789272 235.899022 
L 371.296307 236.314179 
L 375.803341 236.524131 
L 380.310376 236.933552 
L 384.81741 237.037966 
L 389.324445 237.369296 
L 393.831479 238.355408 
L 398.338514 239.102115 
L 407.352582 239.588819 
L 411.859617 240.113315 
L 416.366651 242.016422 
L 429.887755 242.496651 
L 434.394789 242.878019 
L 438.901823 242.919854 
L 443.408858 242.293844 
L 447.915892 241.4889 
L 452.422927 242.704446 
L 461.436996 243.627408 
L 465.94403 244.375182 
L 470.451064 244.756832 
L 474.958099 245.510458 
L 488.479202 246.382737 
L 492.986237 246.840178 
L 497.493271 246.622219 
L 502.000305 247.102453 
L 511.014374 247.802155 
L 529.042512 250.056104 
L 533.549546 250.221149 
L 547.07065 250.148016 
L 551.577684 244.608563 
L 556.084719 244.792729 
L 560.591753 245.130698 
L 565.098787 245.173087 
L 569.605822 245.329467 
L 578.619891 245.911123 
L 583.126925 252.035239 
L 587.63396 251.923503 
L 601.155063 251.923503 
L 601.155063 251.923503 
" style="fill:none;stroke:#ffb5b8;stroke-linecap:square;stroke-opacity:0.4;stroke-width:2;"/>
   </g>
   <g id="line2d_111">
    <defs>
     <path d="M 0 3 
C 0.795609 3 1.55874 2.683901 2.12132 2.12132 
C 2.683901 1.55874 3 0.795609 3 0 
C 3 -0.795609 2.683901 -1.55874 2.12132 -2.12132 
C 1.55874 -2.683901 0.795609 -3 0 -3 
C -0.795609 -3 -1.55874 -2.683901 -2.12132 -2.12132 
C -2.683901 -1.55874 -3 -0.795609 -3 0 
C -3 0.795609 -2.683901 1.55874 -2.12132 2.12132 
C -1.55874 2.683901 -0.795609 3 0 3 
z
" id="m76d8e2b685" style="stroke:#ffb5b8;stroke-opacity:0.4;"/>
    </defs>
    <g clip-path="url(#p17f8ee3e6d)">
     <use style="fill:#ffb5b8;fill-opacity:0.4;stroke:#ffb5b8;stroke-opacity:0.4;" x="601.155063" xlink:href="#m76d8e2b685" y="251.923503"/>
    </g>
   </g>
   <g id="patch_3">
    <path d="M 69.325 392 
L 69.325 221 
" style="fill:none;stroke:#ffffff;stroke-linecap:square;stroke-linejoin:miter;"/>
   </g>
   <g id="patch_4">
    <path d="M 678 392 
L 678 221 
" style="fill:none;stroke:#ffffff;stroke-linecap:square;stroke-linejoin:miter;"/>
   </g>
   <g id="patch_5">
    <path d="M 69.325 392 
L 678 392 
" style="fill:none;stroke:#ffffff;stroke-linecap:square;stroke-linejoin:miter;"/>
   </g>
   <g id="patch_6">
    <path d="M 69.325 221 
L 678 221 
" style="fill:none;stroke:#ffffff;stroke-linecap:square;stroke-linejoin:miter;"/>
   </g>
   <g id="text_20">
    <!-- Korea, South -->
    <defs>
     <path d="M 16.59375 31.203125 
L 11.703125 25.796875 
L 11.703125 0 
L 4.203125 0 
L 4.203125 62.296875 
L 12.59375 62.296875 
L 12.59375 61.59375 
Q 12 61 11.84375 60.296875 
Q 11.703125 59.59375 11.703125 57.90625 
L 11.703125 33.59375 
L 37.703125 62.796875 
Q 38.796875 62.59375 40.09375 62.4375 
Q 41.40625 62.296875 42.90625 62.296875 
L 45.5 62.296875 
L 21.90625 35.40625 
L 47.09375 0 
L 38.09375 -0.40625 
z
" id="Inconsolata-Regular-75"/>
     <path d="M 19.90625 -16.796875 
L 16.5 -13.796875 
Q 19.296875 -11.203125 21.140625 -8.203125 
Q 23 -5.203125 23 -3.296875 
Q 23 -1.90625 21.75 -0.84375 
Q 20.5 0.203125 19.203125 1.390625 
Q 17.90625 2.59375 17.90625 4.40625 
Q 17.90625 6.90625 19.546875 8.59375 
Q 21.203125 10.296875 23.796875 10.296875 
Q 26.40625 10.296875 28.5 8 
Q 30.59375 5.703125 30.59375 2 
Q 30.59375 -5.796875 19.90625 -16.796875 
z
" id="Inconsolata-Regular-44"/>
     <path d="M 24.703125 -1 
Q 12.59375 -1 5.203125 6.90625 
L 8.796875 13.203125 
L 9.203125 14.09375 
L 9.90625 13.703125 
Q 10.09375 13 10.390625 12.140625 
Q 10.703125 11.296875 11.796875 10.09375 
Q 14.40625 7.90625 17.84375 6.59375 
Q 21.296875 5.296875 25.703125 5.296875 
Q 31.296875 5.296875 34.9375 8.4375 
Q 38.59375 11.59375 38.59375 16 
Q 38.59375 18.90625 37.4375 20.90625 
Q 36.296875 22.90625 33.25 24.796875 
Q 30.203125 26.703125 24.296875 29.203125 
Q 14.59375 33 10.890625 37.703125 
Q 7.203125 42.40625 7.203125 47.703125 
Q 7.203125 54.59375 12.296875 58.84375 
Q 17.40625 63.09375 26.203125 63.09375 
Q 31.296875 63.09375 35.796875 61.046875 
Q 40.296875 59 43.5 55.296875 
L 39 49.296875 
L 38.40625 49.703125 
Q 38.296875 50.5 38 51.296875 
Q 37.703125 52.09375 36.59375 53.296875 
Q 34.203125 55.59375 31.5 56.4375 
Q 28.796875 57.296875 25.09375 57.296875 
Q 20.203125 57.296875 17.296875 54.59375 
Q 14.40625 51.90625 14.40625 48.203125 
Q 14.40625 45.40625 15.65625 43.25 
Q 16.90625 41.09375 20.203125 39 
Q 23.5 36.90625 29.796875 34.40625 
Q 35.90625 31.90625 39.296875 29.34375 
Q 42.703125 26.796875 44.09375 23.84375 
Q 45.5 20.90625 45.5 17 
Q 45.5 12.703125 43.34375 8.546875 
Q 41.203125 4.40625 36.59375 1.703125 
Q 32 -1 24.703125 -1 
z
" id="Inconsolata-Regular-83"/>
     <path d="M 22.09375 -1.09375 
Q 15.296875 -1.09375 10.796875 4 
Q 6.296875 9.09375 6.40625 20.203125 
L 6.5 45.703125 
L 13.5 45.703125 
L 13.5 20.203125 
Q 13.5 11.5 16.546875 8.09375 
Q 19.59375 4.703125 23.90625 4.703125 
Q 27.09375 4.703125 29.890625 6.390625 
Q 32.703125 8.09375 34.453125 11.59375 
Q 36.203125 15.09375 36.203125 20.5 
L 36.203125 45.703125 
L 43.203125 45.703125 
L 43.203125 7.09375 
Q 43.203125 5.296875 43.34375 3.546875 
Q 43.5 1.796875 44.203125 0 
L 37.296875 0 
Q 36.59375 1.703125 36.4375 3.5 
Q 36.296875 5.296875 36.296875 7 
Q 34.09375 3.203125 30.34375 1.046875 
Q 26.59375 -1.09375 22.09375 -1.09375 
z
" id="Inconsolata-Regular-117"/>
    </defs>
    <g transform="translate(641.718373 386.19064)scale(0.1 -0.1)">
     <use xlink:href="#Inconsolata-Regular-75"/>
     <use x="49.999985" xlink:href="#Inconsolata-Regular-111"/>
     <use x="99.999969" xlink:href="#Inconsolata-Regular-114"/>
     <use x="149.999954" xlink:href="#Inconsolata-Regular-101"/>
     <use x="199.999939" xlink:href="#Inconsolata-Regular-97"/>
     <use x="249.999924" xlink:href="#Inconsolata-Regular-44"/>
     <use x="299.999908" xlink:href="#Inconsolata-Regular-32"/>
     <use x="349.999893" xlink:href="#Inconsolata-Regular-83"/>
     <use x="399.999878" xlink:href="#Inconsolata-Regular-111"/>
     <use x="449.999863" xlink:href="#Inconsolata-Regular-117"/>
     <use x="499.999847" xlink:href="#Inconsolata-Regular-116"/>
     <use x="549.999832" xlink:href="#Inconsolata-Regular-104"/>
    </g>
   </g>
   <g id="text_21">
    <!-- Germany -->
    <defs>
     <path d="M 27.703125 -1 
Q 20.296875 -1 14.84375 2.890625 
Q 9.40625 6.796875 6.5 13.890625 
Q 3.59375 21 3.59375 30.40625 
Q 3.5 40.5 5.84375 46.890625 
Q 8.203125 53.296875 11.953125 56.796875 
Q 15.703125 60.296875 19.84375 61.640625 
Q 24 63 27.40625 63 
Q 33 62.90625 38.09375 60.046875 
Q 43.203125 57.203125 45.796875 52.5 
L 40.90625 48.59375 
L 40.09375 47.90625 
L 39.703125 48.5 
Q 39.796875 49.296875 39.4375 49.9375 
Q 39.09375 50.59375 38 51.90625 
Q 35.703125 54.5 33.25 55.640625 
Q 30.796875 56.796875 27.296875 56.796875 
Q 22.796875 56.796875 18.9375 54.546875 
Q 15.09375 52.296875 12.796875 46.890625 
Q 10.5 41.5 10.5 31.90625 
Q 10.5 18.90625 15.140625 12.046875 
Q 19.796875 5.203125 27.703125 5.203125 
Q 30.40625 5.203125 33.75 6.09375 
Q 37.09375 7 39.5 9 
L 39.5 23.796875 
L 28.203125 23.796875 
L 28.203125 29.90625 
L 46 29.90625 
L 46 5.5 
Q 37.09375 -1 27.703125 -1 
z
" id="Inconsolata-Regular-71"/>
    </defs>
    <g transform="translate(583.126925 324.189445)scale(0.1 -0.1)">
     <use xlink:href="#Inconsolata-Regular-71"/>
     <use x="49.999985" xlink:href="#Inconsolata-Regular-101"/>
     <use x="99.999969" xlink:href="#Inconsolata-Regular-114"/>
     <use x="149.999954" xlink:href="#Inconsolata-Regular-109"/>
     <use x="199.999939" xlink:href="#Inconsolata-Regular-97"/>
     <use x="249.999924" xlink:href="#Inconsolata-Regular-110"/>
     <use x="299.999908" xlink:href="#Inconsolata-Regular-121"/>
    </g>
   </g>
   <g id="text_22">
    <!-- Poland -->
    <defs>
     <path d="M 5.90625 0 
L 5.90625 62.296875 
L 25.90625 62.296875 
Q 32.90625 62.296875 37.203125 59.890625 
Q 41.5 57.5 43.546875 53.546875 
Q 45.59375 49.59375 45.59375 44.703125 
Q 45.59375 39.90625 43.59375 36 
Q 41.59375 32.09375 37.390625 29.796875 
Q 33.203125 27.5 26.40625 27.5 
L 13.09375 27.5 
L 13.09375 0 
z
M 13.09375 33.703125 
L 25.59375 33.703125 
Q 32.40625 33.703125 35.40625 36.640625 
Q 38.40625 39.59375 38.40625 44.5 
Q 38.40625 49.09375 35.40625 52.390625 
Q 32.40625 55.703125 25.703125 55.703125 
L 13.09375 55.703125 
z
" id="Inconsolata-Regular-80"/>
    </defs>
    <g transform="translate(524.535478 315.230539)scale(0.1 -0.1)">
     <use xlink:href="#Inconsolata-Regular-80"/>
     <use x="49.999985" xlink:href="#Inconsolata-Regular-111"/>
     <use x="99.999969" xlink:href="#Inconsolata-Regular-108"/>
     <use x="149.999954" xlink:href="#Inconsolata-Regular-97"/>
     <use x="199.999939" xlink:href="#Inconsolata-Regular-110"/>
     <use x="249.999924" xlink:href="#Inconsolata-Regular-100"/>
    </g>
   </g>
   <g id="text_23">
    <!-- Belarus -->
    <defs>
     <path d="M 4.796875 0 
L 4.796875 62.296875 
L 22.5 62.296875 
Q 33.296875 62.296875 38.25 58.09375 
Q 43.203125 53.90625 43.203125 47.203125 
Q 43.203125 42.796875 40.796875 38.890625 
Q 38.40625 35 34 33.40625 
Q 39.296875 31.59375 42.5 27.140625 
Q 45.703125 22.703125 45.703125 17.5 
Q 45.703125 9.59375 40.09375 4.796875 
Q 34.5 0 22.40625 0 
z
M 11.703125 36.5 
L 21.5 36.5 
Q 29.796875 36.5 33 39.296875 
Q 36.203125 42.09375 36.203125 46.40625 
Q 36.203125 50.5 33.09375 53.453125 
Q 30 56.40625 22.59375 56.40625 
L 11.703125 56.40625 
z
M 11.703125 6.09375 
L 23.59375 6.09375 
Q 30.09375 6.09375 34.1875 8.75 
Q 38.296875 11.40625 38.296875 17.90625 
Q 38.296875 23.5 34.640625 27.046875 
Q 31 30.59375 21.90625 30.59375 
L 11.703125 30.59375 
z
" id="Inconsolata-Regular-66"/>
    </defs>
    <g transform="translate(452.422927 326.520207)scale(0.1 -0.1)">
     <use xlink:href="#Inconsolata-Regular-66"/>
     <use x="49.999985" xlink:href="#Inconsolata-Regular-101"/>
     <use x="99.999969" xlink:href="#Inconsolata-Regular-108"/>
     <use x="149.999954" xlink:href="#Inconsolata-Regular-97"/>
     <use x="199.999939" xlink:href="#Inconsolata-Regular-114"/>
     <use x="249.999924" xlink:href="#Inconsolata-Regular-117"/>
     <use x="299.999908" xlink:href="#Inconsolata-Regular-115"/>
    </g>
   </g>
   <g id="text_24">
    <!-- Switzerland -->
    <defs>
     <path d="M 5 4.90625 
L 33.296875 39.40625 
L 7.09375 39.40625 
L 7.09375 45.703125 
L 42.59375 45.703125 
L 42.59375 40.796875 
L 14.796875 6.203125 
L 40.59375 6.203125 
Q 42.296875 6.203125 43 6.390625 
Q 43.703125 6.59375 44.296875 7.203125 
L 45 7.203125 
L 45 0 
L 5 0 
z
" id="Inconsolata-Regular-122"/>
    </defs>
    <g transform="translate(583.126925 368.29694)scale(0.1 -0.1)">
     <use xlink:href="#Inconsolata-Regular-83"/>
     <use x="49.999985" xlink:href="#Inconsolata-Regular-119"/>
     <use x="99.999969" xlink:href="#Inconsolata-Regular-105"/>
     <use x="149.999954" xlink:href="#Inconsolata-Regular-116"/>
     <use x="199.999939" xlink:href="#Inconsolata-Regular-122"/>
     <use x="249.999924" xlink:href="#Inconsolata-Regular-101"/>
     <use x="299.999908" xlink:href="#Inconsolata-Regular-114"/>
     <use x="349.999893" xlink:href="#Inconsolata-Regular-108"/>
     <use x="399.999878" xlink:href="#Inconsolata-Regular-97"/>
     <use x="449.999863" xlink:href="#Inconsolata-Regular-110"/>
     <use x="499.999847" xlink:href="#Inconsolata-Regular-100"/>
    </g>
   </g>
   <g id="text_25">
    <!-- US -->
    <defs>
     <path d="M 25.09375 -1.09375 
Q 15.09375 -1.09375 10.046875 4.84375 
Q 5 10.796875 5 21.5 
L 5 62.296875 
L 12.796875 62.296875 
L 12.796875 61.59375 
Q 12.203125 61 12.046875 60.296875 
Q 11.90625 59.59375 11.90625 57.90625 
L 11.90625 21.40625 
Q 11.90625 13.796875 14.84375 9.296875 
Q 17.796875 4.796875 25.203125 4.796875 
Q 32.703125 4.796875 35.703125 9.296875 
Q 38.703125 13.796875 38.703125 21.703125 
L 38.703125 62.296875 
L 45.40625 62.296875 
L 45.40625 21.796875 
Q 45.40625 10 39.84375 4.453125 
Q 34.296875 -1.09375 25.09375 -1.09375 
z
" id="Inconsolata-Regular-85"/>
    </defs>
    <g transform="translate(610.169132 251.923503)scale(0.1 -0.1)">
     <use xlink:href="#Inconsolata-Regular-85"/>
     <use x="49.999985" xlink:href="#Inconsolata-Regular-83"/>
    </g>
   </g>
  </g>
 </g>
 <defs>
  <clipPath id="p17f8ee3e6d">
   <rect height="171" width="608.675" x="69.325" y="221"/>
  </clipPath>
 </defs>
</svg>
