<?xml version="1.0" encoding="utf-8" standalone="no"?>
<!DOCTYPE svg PUBLIC "-//W3C//DTD SVG 1.1//EN"
  "http://www.w3.org/Graphics/SVG/1.1/DTD/svg11.dtd">
<!-- Created with matplotlib (https://matplotlib.org/) -->
<svg height="432pt" version="1.1" viewBox="0 0 720 432" width="720pt" xmlns="http://www.w3.org/2000/svg" xmlns:xlink="http://www.w3.org/1999/xlink">
 <defs>
  <style type="text/css">
*{stroke-linecap:butt;stroke-linejoin:round;}
  </style>
 </defs>
 <g id="figure_1">
  <g id="patch_1">
   <path d="M 0 432 
L 720 432 
L 720 0 
L 0 0 
z
" style="fill:#ffffff;"/>
  </g>
  <g id="axes_1">
   <g id="patch_2">
    <path d="M 69.325 181 
L 678 181 
L 678 10 
L 69.325 10 
z
" style="fill:#e5e5e5;"/>
   </g>
   <g id="matplotlib.axis_1">
    <g id="xtick_1">
     <g id="line2d_1">
      <path clip-path="url(#p6f0cc5fdbb)" d="M 73.499726 181 
L 73.499726 10 
" style="fill:none;stroke:#ffffff;stroke-linecap:square;stroke-width:0.8;"/>
     </g>
     <g id="line2d_2">
      <defs>
       <path d="M 0 0 
L 0 3.5 
" id="ma9c34e33de" style="stroke:#555555;stroke-width:0.8;"/>
      </defs>
      <g>
       <use style="fill:#555555;stroke:#555555;stroke-width:0.8;" x="73.499726" xlink:href="#ma9c34e33de" y="181"/>
      </g>
     </g>
     <g id="text_1">
      <!-- 0 -->
      <defs>
       <path d="M 25 -1.09375 
Q 15.703125 -1.09375 10.703125 7.203125 
Q 5.703125 15.5 5.703125 30.796875 
Q 5.703125 45.59375 10.703125 54.140625 
Q 15.703125 62.703125 25 62.703125 
Q 34.296875 62.703125 39.296875 54.140625 
Q 44.296875 45.59375 44.296875 30.796875 
Q 44.296875 15.5 39.296875 7.203125 
Q 34.296875 -1.09375 25 -1.09375 
z
M 12.90625 30.796875 
Q 12.90625 24.40625 13.796875 19.40625 
L 35 46.703125 
Q 33.5 51.40625 30.953125 54 
Q 28.40625 56.59375 25 56.59375 
Q 19.296875 56.59375 16.09375 49.59375 
Q 12.90625 42.59375 12.90625 30.796875 
z
M 25 5 
Q 30.703125 5 33.890625 11.703125 
Q 37.09375 18.40625 37.09375 30.796875 
Q 37.09375 36.296875 36.40625 40.796875 
L 15.203125 13.90625 
Q 18.296875 5 25 5 
z
" id="Inconsolata-Regular-48"/>
      </defs>
      <g style="fill:#555555;" transform="translate(70.999726 194.65)scale(0.1 -0.1)">
       <use xlink:href="#Inconsolata-Regular-48"/>
      </g>
     </g>
    </g>
    <g id="xtick_2">
     <g id="line2d_3">
      <path clip-path="url(#p6f0cc5fdbb)" d="M 156.994239 181 
L 156.994239 10 
" style="fill:none;stroke:#ffffff;stroke-linecap:square;stroke-width:0.8;"/>
     </g>
     <g id="line2d_4">
      <g>
       <use style="fill:#555555;stroke:#555555;stroke-width:0.8;" x="156.994239" xlink:href="#ma9c34e33de" y="181"/>
      </g>
     </g>
     <g id="text_2">
      <!-- 20 -->
      <defs>
       <path d="M 7.296875 5.59375 
Q 14 12.5 19.390625 17.84375 
Q 24.796875 23.203125 28.59375 27.640625 
Q 32.40625 32.09375 34.40625 36.296875 
Q 36.40625 40.5 36.40625 45.09375 
Q 36.40625 51.59375 33.296875 54.09375 
Q 30.203125 56.59375 25.796875 56.59375 
Q 22.203125 56.59375 19.046875 55.046875 
Q 15.90625 53.5 13.296875 50.296875 
Q 12.40625 48.90625 12.203125 48.15625 
Q 12 47.40625 12.09375 46.59375 
L 11.703125 46.09375 
L 10.90625 46.59375 
L 5.796875 50.59375 
Q 8.796875 56.40625 14.046875 59.546875 
Q 19.296875 62.703125 25.703125 62.703125 
Q 33.59375 62.703125 38.59375 57.953125 
Q 43.59375 53.203125 43.59375 44.90625 
Q 43.59375 39.703125 41.296875 35 
Q 39 30.296875 35.140625 25.6875 
Q 31.296875 21.09375 26.390625 16.296875 
Q 21.5 11.5 16.296875 6.09375 
L 39.5 6.09375 
Q 41.203125 6.09375 41.890625 6.296875 
Q 42.59375 6.5 43.203125 7.09375 
L 43.90625 7.09375 
L 43.90625 0 
L 7.296875 0 
z
" id="Inconsolata-Regular-50"/>
      </defs>
      <g style="fill:#555555;" transform="translate(151.994239 194.65)scale(0.1 -0.1)">
       <use xlink:href="#Inconsolata-Regular-50"/>
       <use x="49.999985" xlink:href="#Inconsolata-Regular-48"/>
      </g>
     </g>
    </g>
    <g id="xtick_3">
     <g id="line2d_5">
      <path clip-path="url(#p6f0cc5fdbb)" d="M 240.488752 181 
L 240.488752 10 
" style="fill:none;stroke:#ffffff;stroke-linecap:square;stroke-width:0.8;"/>
     </g>
     <g id="line2d_6">
      <g>
       <use style="fill:#555555;stroke:#555555;stroke-width:0.8;" x="240.488752" xlink:href="#ma9c34e33de" y="181"/>
      </g>
     </g>
     <g id="text_3">
      <!-- 40 -->
      <defs>
       <path d="M 31.796875 0 
L 31.796875 15.296875 
L 4.796875 15.296875 
L 4.796875 20.40625 
L 33.296875 62.40625 
L 39.203125 62.40625 
L 39.203125 21.09375 
L 47.203125 21.09375 
L 47.203125 15.203125 
L 39.203125 15.203125 
L 39.203125 0 
z
M 12.90625 21.203125 
L 31.796875 21.203125 
L 31.796875 49.796875 
z
" id="Inconsolata-Regular-52"/>
      </defs>
      <g style="fill:#555555;" transform="translate(235.488752 194.65)scale(0.1 -0.1)">
       <use xlink:href="#Inconsolata-Regular-52"/>
       <use x="49.999985" xlink:href="#Inconsolata-Regular-48"/>
      </g>
     </g>
    </g>
    <g id="xtick_4">
     <g id="line2d_7">
      <path clip-path="url(#p6f0cc5fdbb)" d="M 323.983265 181 
L 323.983265 10 
" style="fill:none;stroke:#ffffff;stroke-linecap:square;stroke-width:0.8;"/>
     </g>
     <g id="line2d_8">
      <g>
       <use style="fill:#555555;stroke:#555555;stroke-width:0.8;" x="323.983265" xlink:href="#ma9c34e33de" y="181"/>
      </g>
     </g>
     <g id="text_4">
      <!-- 60 -->
      <defs>
       <path d="M 26.09375 -1 
Q 16.796875 -1 11.75 6.890625 
Q 6.703125 14.796875 6.703125 28.40625 
Q 6.703125 45.203125 12.703125 54.09375 
Q 18.703125 63 28.703125 63 
Q 36.59375 63 42.40625 57.296875 
L 38 52.296875 
L 37.296875 51.5 
L 36.796875 52 
Q 36.703125 52.796875 36.34375 53.5 
Q 36 54.203125 34.703125 55.296875 
Q 32.5 56.796875 28.90625 56.796875 
Q 26.90625 56.796875 24.296875 55.84375 
Q 21.703125 54.90625 19.296875 52.296875 
Q 16.90625 49.703125 15.296875 44.953125 
Q 13.703125 40.203125 13.59375 32.703125 
Q 15.703125 36.203125 19.25 38.203125 
Q 22.796875 40.203125 26.796875 40.203125 
Q 31.5 40.203125 35.34375 37.640625 
Q 39.203125 35.09375 41.546875 30.546875 
Q 43.90625 26 43.90625 19.796875 
Q 43.90625 13.59375 41.5 8.890625 
Q 39.09375 4.203125 35.09375 1.59375 
Q 31.09375 -1 26.09375 -1 
z
M 26.40625 5.203125 
Q 30.703125 5.203125 33.890625 8.890625 
Q 37.09375 12.59375 37.09375 19.703125 
Q 37.09375 24.703125 35.4375 27.890625 
Q 33.796875 31.09375 31.296875 32.59375 
Q 28.796875 34.09375 26.203125 34.09375 
Q 22.59375 34.09375 19.296875 31.640625 
Q 16 29.203125 14 25.703125 
Q 13.59375 22.296875 14.25 18.6875 
Q 14.90625 15.09375 16.546875 12.046875 
Q 18.203125 9 20.703125 7.09375 
Q 23.203125 5.203125 26.40625 5.203125 
z
" id="Inconsolata-Regular-54"/>
      </defs>
      <g style="fill:#555555;" transform="translate(318.983265 194.65)scale(0.1 -0.1)">
       <use xlink:href="#Inconsolata-Regular-54"/>
       <use x="49.999985" xlink:href="#Inconsolata-Regular-48"/>
      </g>
     </g>
    </g>
    <g id="xtick_5">
     <g id="line2d_9">
      <path clip-path="url(#p6f0cc5fdbb)" d="M 407.477778 181 
L 407.477778 10 
" style="fill:none;stroke:#ffffff;stroke-linecap:square;stroke-width:0.8;"/>
     </g>
     <g id="line2d_10">
      <g>
       <use style="fill:#555555;stroke:#555555;stroke-width:0.8;" x="407.477778" xlink:href="#ma9c34e33de" y="181"/>
      </g>
     </g>
     <g id="text_5">
      <!-- 80 -->
      <defs>
       <path d="M 25 -1 
Q 19.09375 -1 14.84375 1.25 
Q 10.59375 3.5 8.296875 7.296875 
Q 6 11.09375 6 15.703125 
Q 6 21.09375 9.390625 25.796875 
Q 12.796875 30.5 18.5 33.09375 
Q 14.203125 35.296875 11.59375 39.25 
Q 9 43.203125 9 47.703125 
Q 9 54.09375 13.140625 58.59375 
Q 17.296875 63.09375 25.5 63.09375 
Q 31.296875 63.09375 34.890625 61.09375 
Q 38.5 59.09375 40.25 55.75 
Q 42 52.40625 42 48.296875 
Q 42 43.796875 39.296875 39.75 
Q 36.59375 35.703125 32.09375 33.296875 
Q 37.5 30.796875 40.796875 26.140625 
Q 44.09375 21.5 44.09375 16.09375 
Q 44.09375 11.203125 41.75 7.34375 
Q 39.40625 3.5 35.15625 1.25 
Q 30.90625 -1 25 -1 
z
M 26.703125 35.796875 
Q 30.40625 37.796875 32.796875 41.1875 
Q 35.203125 44.59375 35.203125 48.09375 
Q 35.203125 51.59375 32.75 54.390625 
Q 30.296875 57.203125 25.296875 57.203125 
Q 20.40625 57.203125 18.046875 54.5 
Q 15.703125 51.796875 15.703125 48.40625 
Q 15.703125 43.796875 18.890625 41.046875 
Q 22.09375 38.296875 26.703125 35.796875 
z
M 25.203125 5.296875 
Q 31 5.296875 34 8.4375 
Q 37 11.59375 37 16.09375 
Q 37 20.703125 33.390625 24.546875 
Q 29.796875 28.40625 23.703125 30.296875 
Q 19.203125 28.40625 16.203125 24.65625 
Q 13.203125 20.90625 13.203125 16.40625 
Q 13.203125 11.90625 16.34375 8.59375 
Q 19.5 5.296875 25.203125 5.296875 
z
" id="Inconsolata-Regular-56"/>
      </defs>
      <g style="fill:#555555;" transform="translate(402.477778 194.65)scale(0.1 -0.1)">
       <use xlink:href="#Inconsolata-Regular-56"/>
       <use x="49.999985" xlink:href="#Inconsolata-Regular-48"/>
      </g>
     </g>
    </g>
    <g id="xtick_6">
     <g id="line2d_11">
      <path clip-path="url(#p6f0cc5fdbb)" d="M 490.972291 181 
L 490.972291 10 
" style="fill:none;stroke:#ffffff;stroke-linecap:square;stroke-width:0.8;"/>
     </g>
     <g id="line2d_12">
      <g>
       <use style="fill:#555555;stroke:#555555;stroke-width:0.8;" x="490.972291" xlink:href="#ma9c34e33de" y="181"/>
      </g>
     </g>
     <g id="text_6">
      <!-- 100 -->
      <defs>
       <path d="M 23 0 
L 23 53.703125 
L 10.40625 50 
L 8.796875 53.90625 
L 25.09375 62.40625 
L 30 62.40625 
L 30 0 
z
" id="Inconsolata-Regular-49"/>
      </defs>
      <g style="fill:#555555;" transform="translate(483.472291 194.65)scale(0.1 -0.1)">
       <use xlink:href="#Inconsolata-Regular-49"/>
       <use x="49.999985" xlink:href="#Inconsolata-Regular-48"/>
       <use x="99.999969" xlink:href="#Inconsolata-Regular-48"/>
      </g>
     </g>
    </g>
    <g id="xtick_7">
     <g id="line2d_13">
      <path clip-path="url(#p6f0cc5fdbb)" d="M 574.466804 181 
L 574.466804 10 
" style="fill:none;stroke:#ffffff;stroke-linecap:square;stroke-width:0.8;"/>
     </g>
     <g id="line2d_14">
      <g>
       <use style="fill:#555555;stroke:#555555;stroke-width:0.8;" x="574.466804" xlink:href="#ma9c34e33de" y="181"/>
      </g>
     </g>
     <g id="text_7">
      <!-- 120 -->
      <g style="fill:#555555;" transform="translate(566.966804 194.65)scale(0.1 -0.1)">
       <use xlink:href="#Inconsolata-Regular-49"/>
       <use x="49.999985" xlink:href="#Inconsolata-Regular-50"/>
       <use x="99.999969" xlink:href="#Inconsolata-Regular-48"/>
      </g>
     </g>
    </g>
    <g id="xtick_8">
     <g id="line2d_15">
      <path clip-path="url(#p6f0cc5fdbb)" d="M 657.961317 181 
L 657.961317 10 
" style="fill:none;stroke:#ffffff;stroke-linecap:square;stroke-width:0.8;"/>
     </g>
     <g id="line2d_16">
      <g>
       <use style="fill:#555555;stroke:#555555;stroke-width:0.8;" x="657.961317" xlink:href="#ma9c34e33de" y="181"/>
      </g>
     </g>
     <g id="text_8">
      <!-- 140 -->
      <g style="fill:#555555;" transform="translate(650.461317 194.65)scale(0.1 -0.1)">
       <use xlink:href="#Inconsolata-Regular-49"/>
       <use x="49.999985" xlink:href="#Inconsolata-Regular-52"/>
       <use x="99.999969" xlink:href="#Inconsolata-Regular-48"/>
      </g>
     </g>
    </g>
    <g id="text_9">
     <!-- days since 10 cases -->
     <defs>
      <path d="M 23.40625 -1 
Q 18.796875 -1 14.4375 1.640625 
Q 10.09375 4.296875 7.296875 9.6875 
Q 4.5 15.09375 4.5 23.296875 
Q 4.5 31.703125 7.390625 36.890625 
Q 10.296875 42.09375 14.75 44.5 
Q 19.203125 46.90625 23.796875 46.90625 
Q 28.5 46.90625 31.953125 44.75 
Q 35.40625 42.59375 37.09375 39 
L 37.09375 66.5 
L 44.703125 66.5 
L 44.703125 65.796875 
Q 44.09375 65.203125 43.9375 64.5 
Q 43.796875 63.796875 43.796875 62.09375 
L 43.90625 7.09375 
Q 43.90625 5.296875 44.046875 3.546875 
Q 44.203125 1.796875 44.90625 0 
L 37.796875 0 
Q 37.09375 1.796875 36.9375 3.546875 
Q 36.796875 5.296875 36.796875 7.09375 
Q 34.59375 3.40625 31.1875 1.203125 
Q 27.796875 -1 23.40625 -1 
z
M 24.5 5.296875 
Q 28.90625 5.296875 31.546875 7.6875 
Q 34.203125 10.09375 35.34375 14.140625 
Q 36.5 18.203125 36.5 23.09375 
Q 36.5 30.796875 33.5 35.890625 
Q 30.5 41 23.90625 41 
Q 17.796875 41 14.640625 36.5 
Q 11.5 32 11.5 24.40625 
Q 11.5 15.796875 14.796875 10.546875 
Q 18.09375 5.296875 24.5 5.296875 
z
" id="Inconsolata-Regular-100"/>
      <path d="M 21.09375 -1.09375 
Q 13.296875 -1.09375 9.09375 2.453125 
Q 4.90625 6 4.90625 11.5 
Q 4.90625 16.40625 8 19.953125 
Q 11.09375 23.5 16.34375 25.453125 
Q 21.59375 27.40625 27.90625 27.40625 
Q 30.203125 27.40625 32.75 27.296875 
Q 35.296875 27.203125 38.203125 26.796875 
Q 37.59375 34.796875 34.046875 37.796875 
Q 30.5 40.796875 23.90625 40.796875 
Q 20.59375 40.796875 17.390625 39.546875 
Q 14.203125 38.296875 11.59375 35.703125 
L 8.09375 40.296875 
Q 11.296875 43.5 15.5 45.09375 
Q 19.703125 46.703125 24.40625 46.703125 
Q 30.5 46.703125 35 44.703125 
Q 39.5 42.703125 42 37.796875 
Q 44.5 32.90625 44.5 24.296875 
L 44.5 0 
L 36.703125 0 
L 36.703125 7 
Q 35 3.703125 32.34375 1.953125 
Q 29.703125 0.203125 26.75 -0.4375 
Q 23.796875 -1.09375 21.09375 -1.09375 
z
M 12.09375 11.90625 
Q 12.09375 7.59375 14.890625 6 
Q 17.703125 4.40625 21.796875 4.40625 
Q 29.203125 4.40625 33.5 8.75 
Q 37.796875 13.09375 38.203125 21.296875 
Q 33 22 28.5 22 
Q 21.296875 22 16.6875 19.59375 
Q 12.09375 17.203125 12.09375 11.90625 
z
" id="Inconsolata-Regular-97"/>
      <path d="M 12.703125 -17.40625 
Q 6.296875 -17.40625 2.203125 -13.5 
L 5.296875 -8.59375 
L 5.90625 -7.703125 
L 6.5 -8.09375 
Q 6.703125 -8.90625 7.203125 -9.453125 
Q 7.703125 -10 9.09375 -10.90625 
Q 10.90625 -11.5 13.09375 -11.5 
Q 17 -11.5 19.203125 -8.75 
Q 21.40625 -6 23.296875 -0.296875 
L 4.59375 45.703125 
L 12.09375 45.703125 
L 26.296875 9.09375 
L 32.296875 27.5 
Q 33.796875 32.09375 35.1875 36.59375 
Q 36.59375 41.09375 37.09375 45.703125 
L 44.296875 45.703125 
Q 43.59375 41.09375 42.09375 36.390625 
Q 40.59375 31.703125 38.90625 27 
L 27.5 -5.203125 
Q 25.09375 -11.90625 21.34375 -14.65625 
Q 17.59375 -17.40625 12.703125 -17.40625 
z
" id="Inconsolata-Regular-121"/>
      <path d="M 25.09375 -1 
Q 13.5 -1 5.703125 6.203125 
L 9.703125 13 
L 10.296875 13.90625 
L 10.90625 13.5 
Q 11.09375 12.703125 11.34375 11.84375 
Q 11.59375 11 12.703125 9.796875 
Q 14.796875 7.703125 17.75 6.34375 
Q 20.703125 5 25.296875 5 
Q 30.796875 5 33.84375 6.953125 
Q 36.90625 8.90625 36.90625 12.296875 
Q 36.90625 15.203125 34.34375 17.09375 
Q 31.796875 19 25.40625 21.09375 
Q 17.5 23.40625 12.84375 26.796875 
Q 8.203125 30.203125 8.203125 35.296875 
Q 8.203125 40.5 12.453125 43.640625 
Q 16.703125 46.796875 25 46.796875 
Q 31.40625 46.796875 35.59375 45 
Q 39.796875 43.203125 43.203125 39.59375 
L 39.09375 34.59375 
L 38.40625 33.796875 
L 37.90625 34.296875 
Q 37.796875 35.09375 37.4375 35.84375 
Q 37.09375 36.59375 36 37.703125 
Q 33.703125 39.5 30.796875 40.453125 
Q 27.90625 41.40625 25.203125 41.40625 
Q 21.203125 41.40625 18.296875 40 
Q 15.40625 38.59375 15.40625 35.703125 
Q 15.40625 34.203125 16.453125 32.75 
Q 17.5 31.296875 20.296875 29.84375 
Q 23.09375 28.40625 28.296875 26.90625 
Q 36.90625 24.296875 40.453125 21.25 
Q 44 18.203125 44 13.296875 
Q 44 9.5 41.953125 6.203125 
Q 39.90625 2.90625 35.703125 0.953125 
Q 31.5 -1 25.09375 -1 
z
" id="Inconsolata-Regular-115"/>
      <path id="Inconsolata-Regular-32"/>
      <path d="M 10 0 
L 10 5.796875 
L 21.703125 5.796875 
L 21.703125 39.90625 
L 10.59375 39.90625 
L 10.59375 45.703125 
L 28.90625 45.703125 
L 28.90625 5.796875 
L 39.59375 5.796875 
L 39.59375 0 
z
M 24.90625 55.296875 
Q 22.796875 55.296875 21.296875 56.796875 
Q 19.796875 58.296875 19.796875 60.40625 
Q 19.796875 62.59375 21.25 64.09375 
Q 22.703125 65.59375 24.90625 65.59375 
Q 27 65.59375 28.546875 64.046875 
Q 30.09375 62.5 30.09375 60.40625 
Q 30.09375 58.296875 28.546875 56.796875 
Q 27 55.296875 24.90625 55.296875 
z
" id="Inconsolata-Regular-105"/>
      <path d="M 7.203125 0 
L 7.203125 45.703125 
L 14.203125 45.703125 
L 14.203125 37.59375 
Q 16.796875 41.796875 20.9375 44.296875 
Q 25.09375 46.796875 29.703125 46.796875 
Q 35.296875 46.796875 39.1875 42.4375 
Q 43.09375 38.09375 43.09375 27.703125 
L 43.09375 0 
L 36.09375 0 
L 36.09375 27.5 
Q 36.09375 34.703125 33.640625 37.59375 
Q 31.203125 40.5 27.703125 40.5 
Q 24.703125 40.5 21.546875 38.75 
Q 18.40625 37 16.296875 33.84375 
Q 14.203125 30.703125 14.203125 26.296875 
L 14.203125 0 
z
" id="Inconsolata-Regular-110"/>
      <path d="M 28.5 -1.09375 
Q 21.90625 -1.09375 16.703125 2 
Q 11.5 5.09375 8.546875 10.5 
Q 5.59375 15.90625 5.59375 22.796875 
Q 5.59375 29.703125 8.546875 35.046875 
Q 11.5 40.40625 16.640625 43.5 
Q 21.796875 46.59375 28.40625 46.59375 
Q 34 46.59375 38.453125 44.34375 
Q 42.90625 42.09375 45.703125 38.09375 
L 41.203125 33.703125 
L 40.5 33 
L 40 33.5 
Q 40 34.296875 39.640625 35 
Q 39.296875 35.703125 38.09375 36.90625 
Q 35.90625 38.90625 33.40625 39.703125 
Q 30.90625 40.5 27.59375 40.5 
Q 23.796875 40.5 20.4375 38.390625 
Q 17.09375 36.296875 15.046875 32.4375 
Q 13 28.59375 13 23.296875 
Q 13 18.203125 15.046875 14.140625 
Q 17.09375 10.09375 20.6875 7.75 
Q 24.296875 5.40625 28.90625 5.40625 
Q 35.796875 5.40625 40.796875 11 
L 45 6.09375 
Q 38.296875 -1.09375 28.5 -1.09375 
z
" id="Inconsolata-Regular-99"/>
      <path d="M 27.203125 -1 
Q 17.203125 -1 11.046875 5.09375 
Q 4.90625 11.203125 4.90625 22.703125 
Q 4.90625 30.5 7.75 35.84375 
Q 10.59375 41.203125 15.34375 44 
Q 20.09375 46.796875 25.90625 46.796875 
Q 31.09375 46.796875 35.296875 44.5 
Q 39.5 42.203125 42 37.390625 
Q 44.5 32.59375 44.5 25.09375 
Q 44.5 24.296875 44.453125 23.4375 
Q 44.40625 22.59375 44.296875 21.796875 
L 11.796875 21.796875 
Q 12.203125 13 16.75 8.890625 
Q 21.296875 4.796875 27.40625 4.796875 
Q 34.59375 4.796875 39.203125 9.90625 
L 43.203125 6 
Q 37.40625 -1 27.203125 -1 
z
M 12.09375 27.40625 
L 37.203125 27.40625 
Q 37.203125 33.796875 33.953125 37.546875 
Q 30.703125 41.296875 25.40625 41.296875 
Q 20.703125 41.296875 16.890625 37.9375 
Q 13.09375 34.59375 12.09375 27.40625 
z
" id="Inconsolata-Regular-101"/>
     </defs>
     <g style="fill:#555555;" transform="translate(316.6625 208.300312)scale(0.12 -0.12)">
      <use xlink:href="#Inconsolata-Regular-100"/>
      <use x="49.999985" xlink:href="#Inconsolata-Regular-97"/>
      <use x="99.999969" xlink:href="#Inconsolata-Regular-121"/>
      <use x="149.999954" xlink:href="#Inconsolata-Regular-115"/>
      <use x="199.999939" xlink:href="#Inconsolata-Regular-32"/>
      <use x="249.999924" xlink:href="#Inconsolata-Regular-115"/>
      <use x="299.999908" xlink:href="#Inconsolata-Regular-105"/>
      <use x="349.999893" xlink:href="#Inconsolata-Regular-110"/>
      <use x="399.999878" xlink:href="#Inconsolata-Regular-99"/>
      <use x="449.999863" xlink:href="#Inconsolata-Regular-101"/>
      <use x="499.999847" xlink:href="#Inconsolata-Regular-32"/>
      <use x="549.999832" xlink:href="#Inconsolata-Regular-49"/>
      <use x="599.999817" xlink:href="#Inconsolata-Regular-48"/>
      <use x="649.999802" xlink:href="#Inconsolata-Regular-32"/>
      <use x="699.999786" xlink:href="#Inconsolata-Regular-99"/>
      <use x="749.999771" xlink:href="#Inconsolata-Regular-97"/>
      <use x="799.999756" xlink:href="#Inconsolata-Regular-115"/>
      <use x="849.999741" xlink:href="#Inconsolata-Regular-101"/>
      <use x="899.999725" xlink:href="#Inconsolata-Regular-115"/>
     </g>
    </g>
   </g>
   <g id="matplotlib.axis_2">
    <g id="ytick_1">
     <g id="line2d_17">
      <path clip-path="url(#p6f0cc5fdbb)" d="M 69.325 181 
L 678 181 
" style="fill:none;stroke:#ffffff;stroke-linecap:square;stroke-width:0.8;"/>
     </g>
     <g id="line2d_18">
      <defs>
       <path d="M 0 0 
L -3.5 0 
" id="m9f64a112da" style="stroke:#555555;stroke-width:0.8;"/>
      </defs>
      <g>
       <use style="fill:#555555;stroke:#555555;stroke-width:0.8;" x="69.325" xlink:href="#m9f64a112da" y="181"/>
      </g>
     </g>
     <g id="line2d_19">
      <defs>
       <path d="M 0 0 
L 3.5 0 
" id="md287c6923a" style="stroke:#555555;stroke-width:0.8;"/>
      </defs>
      <g>
       <use style="fill:#555555;stroke:#555555;stroke-width:0.8;" x="678" xlink:href="#md287c6923a" y="181"/>
      </g>
     </g>
     <g id="text_10">
      <!-- 1 -->
      <g style="fill:#555555;" transform="translate(57.325 184.325)scale(0.1 -0.1)">
       <use xlink:href="#Inconsolata-Regular-49"/>
      </g>
     </g>
     <g id="text_11">
      <!-- 1 -->
      <g style="fill:#555555;" transform="translate(685 184.325)scale(0.1 -0.1)">
       <use xlink:href="#Inconsolata-Regular-49"/>
      </g>
     </g>
    </g>
    <g id="ytick_2">
     <g id="line2d_20">
      <path clip-path="url(#p6f0cc5fdbb)" d="M 69.325 146.184937 
L 678 146.184937 
" style="fill:none;stroke:#ffffff;stroke-linecap:square;stroke-width:0.8;"/>
     </g>
     <g id="line2d_21">
      <g>
       <use style="fill:#555555;stroke:#555555;stroke-width:0.8;" x="69.325" xlink:href="#m9f64a112da" y="146.184937"/>
      </g>
     </g>
     <g id="line2d_22">
      <g>
       <use style="fill:#555555;stroke:#555555;stroke-width:0.8;" x="678" xlink:href="#md287c6923a" y="146.184937"/>
      </g>
     </g>
     <g id="text_12">
      <!-- 10 -->
      <g style="fill:#555555;" transform="translate(52.325 149.509937)scale(0.1 -0.1)">
       <use xlink:href="#Inconsolata-Regular-49"/>
       <use x="49.999985" xlink:href="#Inconsolata-Regular-48"/>
      </g>
     </g>
     <g id="text_13">
      <!-- 10 -->
      <g style="fill:#555555;" transform="translate(685 149.509937)scale(0.1 -0.1)">
       <use xlink:href="#Inconsolata-Regular-49"/>
       <use x="49.999985" xlink:href="#Inconsolata-Regular-48"/>
      </g>
     </g>
    </g>
    <g id="ytick_3">
     <g id="line2d_23">
      <path clip-path="url(#p6f0cc5fdbb)" d="M 69.325 111.369874 
L 678 111.369874 
" style="fill:none;stroke:#ffffff;stroke-linecap:square;stroke-width:0.8;"/>
     </g>
     <g id="line2d_24">
      <g>
       <use style="fill:#555555;stroke:#555555;stroke-width:0.8;" x="69.325" xlink:href="#m9f64a112da" y="111.369874"/>
      </g>
     </g>
     <g id="line2d_25">
      <g>
       <use style="fill:#555555;stroke:#555555;stroke-width:0.8;" x="678" xlink:href="#md287c6923a" y="111.369874"/>
      </g>
     </g>
     <g id="text_14">
      <!-- 100 -->
      <g style="fill:#555555;" transform="translate(47.325 114.694874)scale(0.1 -0.1)">
       <use xlink:href="#Inconsolata-Regular-49"/>
       <use x="49.999985" xlink:href="#Inconsolata-Regular-48"/>
       <use x="99.999969" xlink:href="#Inconsolata-Regular-48"/>
      </g>
     </g>
     <g id="text_15">
      <!-- 100 -->
      <g style="fill:#555555;" transform="translate(685 114.694874)scale(0.1 -0.1)">
       <use xlink:href="#Inconsolata-Regular-49"/>
       <use x="49.999985" xlink:href="#Inconsolata-Regular-48"/>
       <use x="99.999969" xlink:href="#Inconsolata-Regular-48"/>
      </g>
     </g>
    </g>
    <g id="ytick_4">
     <g id="line2d_26">
      <path clip-path="url(#p6f0cc5fdbb)" d="M 69.325 76.554812 
L 678 76.554812 
" style="fill:none;stroke:#ffffff;stroke-linecap:square;stroke-width:0.8;"/>
     </g>
     <g id="line2d_27">
      <g>
       <use style="fill:#555555;stroke:#555555;stroke-width:0.8;" x="69.325" xlink:href="#m9f64a112da" y="76.554812"/>
      </g>
     </g>
     <g id="line2d_28">
      <g>
       <use style="fill:#555555;stroke:#555555;stroke-width:0.8;" x="678" xlink:href="#md287c6923a" y="76.554812"/>
      </g>
     </g>
     <g id="text_16">
      <!-- 1000 -->
      <g style="fill:#555555;" transform="translate(42.325 79.879812)scale(0.1 -0.1)">
       <use xlink:href="#Inconsolata-Regular-49"/>
       <use x="49.999985" xlink:href="#Inconsolata-Regular-48"/>
       <use x="99.999969" xlink:href="#Inconsolata-Regular-48"/>
       <use x="149.999954" xlink:href="#Inconsolata-Regular-48"/>
      </g>
     </g>
     <g id="text_17">
      <!-- 1000 -->
      <g style="fill:#555555;" transform="translate(685 79.879812)scale(0.1 -0.1)">
       <use xlink:href="#Inconsolata-Regular-49"/>
       <use x="49.999985" xlink:href="#Inconsolata-Regular-48"/>
       <use x="99.999969" xlink:href="#Inconsolata-Regular-48"/>
       <use x="149.999954" xlink:href="#Inconsolata-Regular-48"/>
      </g>
     </g>
    </g>
    <g id="ytick_5">
     <g id="line2d_29">
      <path clip-path="url(#p6f0cc5fdbb)" d="M 69.325 41.739749 
L 678 41.739749 
" style="fill:none;stroke:#ffffff;stroke-linecap:square;stroke-width:0.8;"/>
     </g>
     <g id="line2d_30">
      <g>
       <use style="fill:#555555;stroke:#555555;stroke-width:0.8;" x="69.325" xlink:href="#m9f64a112da" y="41.739749"/>
      </g>
     </g>
     <g id="line2d_31">
      <g>
       <use style="fill:#555555;stroke:#555555;stroke-width:0.8;" x="678" xlink:href="#md287c6923a" y="41.739749"/>
      </g>
     </g>
     <g id="text_18">
      <!-- 10000 -->
      <g style="fill:#555555;" transform="translate(37.325 45.064749)scale(0.1 -0.1)">
       <use xlink:href="#Inconsolata-Regular-49"/>
       <use x="49.999985" xlink:href="#Inconsolata-Regular-48"/>
       <use x="99.999969" xlink:href="#Inconsolata-Regular-48"/>
       <use x="149.999954" xlink:href="#Inconsolata-Regular-48"/>
       <use x="199.999939" xlink:href="#Inconsolata-Regular-48"/>
      </g>
     </g>
     <g id="text_19">
      <!-- 10000 -->
      <g style="fill:#555555;" transform="translate(685 45.064749)scale(0.1 -0.1)">
       <use xlink:href="#Inconsolata-Regular-49"/>
       <use x="49.999985" xlink:href="#Inconsolata-Regular-48"/>
       <use x="99.999969" xlink:href="#Inconsolata-Regular-48"/>
       <use x="149.999954" xlink:href="#Inconsolata-Regular-48"/>
       <use x="199.999939" xlink:href="#Inconsolata-Regular-48"/>
      </g>
     </g>
    </g>
    <g id="ytick_6">
     <g id="line2d_32">
      <defs>
       <path d="M 0 0 
L -2 0 
" id="m0cfcb7505b" style="stroke:#555555;stroke-width:0.6;"/>
      </defs>
      <g>
       <use style="fill:#555555;stroke:#555555;stroke-width:0.6;" x="69.325" xlink:href="#m0cfcb7505b" y="170.519622"/>
      </g>
     </g>
     <g id="line2d_33">
      <defs>
       <path d="M 0 0 
L 2 0 
" id="mabb1cfef4b" style="stroke:#555555;stroke-width:0.6;"/>
      </defs>
      <g>
       <use style="fill:#555555;stroke:#555555;stroke-width:0.6;" x="678" xlink:href="#mabb1cfef4b" y="170.519622"/>
      </g>
     </g>
    </g>
    <g id="ytick_7">
     <g id="line2d_34">
      <g>
       <use style="fill:#555555;stroke:#555555;stroke-width:0.6;" x="69.325" xlink:href="#m0cfcb7505b" y="164.388994"/>
      </g>
     </g>
     <g id="line2d_35">
      <g>
       <use style="fill:#555555;stroke:#555555;stroke-width:0.6;" x="678" xlink:href="#mabb1cfef4b" y="164.388994"/>
      </g>
     </g>
    </g>
    <g id="ytick_8">
     <g id="line2d_36">
      <g>
       <use style="fill:#555555;stroke:#555555;stroke-width:0.6;" x="69.325" xlink:href="#m0cfcb7505b" y="160.039244"/>
      </g>
     </g>
     <g id="line2d_37">
      <g>
       <use style="fill:#555555;stroke:#555555;stroke-width:0.6;" x="678" xlink:href="#mabb1cfef4b" y="160.039244"/>
      </g>
     </g>
    </g>
    <g id="ytick_9">
     <g id="line2d_38">
      <g>
       <use style="fill:#555555;stroke:#555555;stroke-width:0.6;" x="69.325" xlink:href="#m0cfcb7505b" y="156.665315"/>
      </g>
     </g>
     <g id="line2d_39">
      <g>
       <use style="fill:#555555;stroke:#555555;stroke-width:0.6;" x="678" xlink:href="#mabb1cfef4b" y="156.665315"/>
      </g>
     </g>
    </g>
    <g id="ytick_10">
     <g id="line2d_40">
      <g>
       <use style="fill:#555555;stroke:#555555;stroke-width:0.6;" x="69.325" xlink:href="#m0cfcb7505b" y="153.908615"/>
      </g>
     </g>
     <g id="line2d_41">
      <g>
       <use style="fill:#555555;stroke:#555555;stroke-width:0.6;" x="678" xlink:href="#mabb1cfef4b" y="153.908615"/>
      </g>
     </g>
    </g>
    <g id="ytick_11">
     <g id="line2d_42">
      <g>
       <use style="fill:#555555;stroke:#555555;stroke-width:0.6;" x="69.325" xlink:href="#m0cfcb7505b" y="151.577859"/>
      </g>
     </g>
     <g id="line2d_43">
      <g>
       <use style="fill:#555555;stroke:#555555;stroke-width:0.6;" x="678" xlink:href="#mabb1cfef4b" y="151.577859"/>
      </g>
     </g>
    </g>
    <g id="ytick_12">
     <g id="line2d_44">
      <g>
       <use style="fill:#555555;stroke:#555555;stroke-width:0.6;" x="69.325" xlink:href="#m0cfcb7505b" y="149.558865"/>
      </g>
     </g>
     <g id="line2d_45">
      <g>
       <use style="fill:#555555;stroke:#555555;stroke-width:0.6;" x="678" xlink:href="#mabb1cfef4b" y="149.558865"/>
      </g>
     </g>
    </g>
    <g id="ytick_13">
     <g id="line2d_46">
      <g>
       <use style="fill:#555555;stroke:#555555;stroke-width:0.6;" x="69.325" xlink:href="#m0cfcb7505b" y="147.777987"/>
      </g>
     </g>
     <g id="line2d_47">
      <g>
       <use style="fill:#555555;stroke:#555555;stroke-width:0.6;" x="678" xlink:href="#mabb1cfef4b" y="147.777987"/>
      </g>
     </g>
    </g>
    <g id="ytick_14">
     <g id="line2d_48">
      <g>
       <use style="fill:#555555;stroke:#555555;stroke-width:0.6;" x="69.325" xlink:href="#m0cfcb7505b" y="135.704559"/>
      </g>
     </g>
     <g id="line2d_49">
      <g>
       <use style="fill:#555555;stroke:#555555;stroke-width:0.6;" x="678" xlink:href="#mabb1cfef4b" y="135.704559"/>
      </g>
     </g>
    </g>
    <g id="ytick_15">
     <g id="line2d_50">
      <g>
       <use style="fill:#555555;stroke:#555555;stroke-width:0.6;" x="69.325" xlink:href="#m0cfcb7505b" y="129.573931"/>
      </g>
     </g>
     <g id="line2d_51">
      <g>
       <use style="fill:#555555;stroke:#555555;stroke-width:0.6;" x="678" xlink:href="#mabb1cfef4b" y="129.573931"/>
      </g>
     </g>
    </g>
    <g id="ytick_16">
     <g id="line2d_52">
      <g>
       <use style="fill:#555555;stroke:#555555;stroke-width:0.6;" x="69.325" xlink:href="#m0cfcb7505b" y="125.224181"/>
      </g>
     </g>
     <g id="line2d_53">
      <g>
       <use style="fill:#555555;stroke:#555555;stroke-width:0.6;" x="678" xlink:href="#mabb1cfef4b" y="125.224181"/>
      </g>
     </g>
    </g>
    <g id="ytick_17">
     <g id="line2d_54">
      <g>
       <use style="fill:#555555;stroke:#555555;stroke-width:0.6;" x="69.325" xlink:href="#m0cfcb7505b" y="121.850253"/>
      </g>
     </g>
     <g id="line2d_55">
      <g>
       <use style="fill:#555555;stroke:#555555;stroke-width:0.6;" x="678" xlink:href="#mabb1cfef4b" y="121.850253"/>
      </g>
     </g>
    </g>
    <g id="ytick_18">
     <g id="line2d_56">
      <g>
       <use style="fill:#555555;stroke:#555555;stroke-width:0.6;" x="69.325" xlink:href="#m0cfcb7505b" y="119.093553"/>
      </g>
     </g>
     <g id="line2d_57">
      <g>
       <use style="fill:#555555;stroke:#555555;stroke-width:0.6;" x="678" xlink:href="#mabb1cfef4b" y="119.093553"/>
      </g>
     </g>
    </g>
    <g id="ytick_19">
     <g id="line2d_58">
      <g>
       <use style="fill:#555555;stroke:#555555;stroke-width:0.6;" x="69.325" xlink:href="#m0cfcb7505b" y="116.762796"/>
      </g>
     </g>
     <g id="line2d_59">
      <g>
       <use style="fill:#555555;stroke:#555555;stroke-width:0.6;" x="678" xlink:href="#mabb1cfef4b" y="116.762796"/>
      </g>
     </g>
    </g>
    <g id="ytick_20">
     <g id="line2d_60">
      <g>
       <use style="fill:#555555;stroke:#555555;stroke-width:0.6;" x="69.325" xlink:href="#m0cfcb7505b" y="114.743803"/>
      </g>
     </g>
     <g id="line2d_61">
      <g>
       <use style="fill:#555555;stroke:#555555;stroke-width:0.6;" x="678" xlink:href="#mabb1cfef4b" y="114.743803"/>
      </g>
     </g>
    </g>
    <g id="ytick_21">
     <g id="line2d_62">
      <g>
       <use style="fill:#555555;stroke:#555555;stroke-width:0.6;" x="69.325" xlink:href="#m0cfcb7505b" y="112.962924"/>
      </g>
     </g>
     <g id="line2d_63">
      <g>
       <use style="fill:#555555;stroke:#555555;stroke-width:0.6;" x="678" xlink:href="#mabb1cfef4b" y="112.962924"/>
      </g>
     </g>
    </g>
    <g id="ytick_22">
     <g id="line2d_64">
      <g>
       <use style="fill:#555555;stroke:#555555;stroke-width:0.6;" x="69.325" xlink:href="#m0cfcb7505b" y="100.889496"/>
      </g>
     </g>
     <g id="line2d_65">
      <g>
       <use style="fill:#555555;stroke:#555555;stroke-width:0.6;" x="678" xlink:href="#mabb1cfef4b" y="100.889496"/>
      </g>
     </g>
    </g>
    <g id="ytick_23">
     <g id="line2d_66">
      <g>
       <use style="fill:#555555;stroke:#555555;stroke-width:0.6;" x="69.325" xlink:href="#m0cfcb7505b" y="94.758868"/>
      </g>
     </g>
     <g id="line2d_67">
      <g>
       <use style="fill:#555555;stroke:#555555;stroke-width:0.6;" x="678" xlink:href="#mabb1cfef4b" y="94.758868"/>
      </g>
     </g>
    </g>
    <g id="ytick_24">
     <g id="line2d_68">
      <g>
       <use style="fill:#555555;stroke:#555555;stroke-width:0.6;" x="69.325" xlink:href="#m0cfcb7505b" y="90.409118"/>
      </g>
     </g>
     <g id="line2d_69">
      <g>
       <use style="fill:#555555;stroke:#555555;stroke-width:0.6;" x="678" xlink:href="#mabb1cfef4b" y="90.409118"/>
      </g>
     </g>
    </g>
    <g id="ytick_25">
     <g id="line2d_70">
      <g>
       <use style="fill:#555555;stroke:#555555;stroke-width:0.6;" x="69.325" xlink:href="#m0cfcb7505b" y="87.03519"/>
      </g>
     </g>
     <g id="line2d_71">
      <g>
       <use style="fill:#555555;stroke:#555555;stroke-width:0.6;" x="678" xlink:href="#mabb1cfef4b" y="87.03519"/>
      </g>
     </g>
    </g>
    <g id="ytick_26">
     <g id="line2d_72">
      <g>
       <use style="fill:#555555;stroke:#555555;stroke-width:0.6;" x="69.325" xlink:href="#m0cfcb7505b" y="84.27849"/>
      </g>
     </g>
     <g id="line2d_73">
      <g>
       <use style="fill:#555555;stroke:#555555;stroke-width:0.6;" x="678" xlink:href="#mabb1cfef4b" y="84.27849"/>
      </g>
     </g>
    </g>
    <g id="ytick_27">
     <g id="line2d_74">
      <g>
       <use style="fill:#555555;stroke:#555555;stroke-width:0.6;" x="69.325" xlink:href="#m0cfcb7505b" y="81.947733"/>
      </g>
     </g>
     <g id="line2d_75">
      <g>
       <use style="fill:#555555;stroke:#555555;stroke-width:0.6;" x="678" xlink:href="#mabb1cfef4b" y="81.947733"/>
      </g>
     </g>
    </g>
    <g id="ytick_28">
     <g id="line2d_76">
      <g>
       <use style="fill:#555555;stroke:#555555;stroke-width:0.6;" x="69.325" xlink:href="#m0cfcb7505b" y="79.92874"/>
      </g>
     </g>
     <g id="line2d_77">
      <g>
       <use style="fill:#555555;stroke:#555555;stroke-width:0.6;" x="678" xlink:href="#mabb1cfef4b" y="79.92874"/>
      </g>
     </g>
    </g>
    <g id="ytick_29">
     <g id="line2d_78">
      <g>
       <use style="fill:#555555;stroke:#555555;stroke-width:0.6;" x="69.325" xlink:href="#m0cfcb7505b" y="78.147862"/>
      </g>
     </g>
     <g id="line2d_79">
      <g>
       <use style="fill:#555555;stroke:#555555;stroke-width:0.6;" x="678" xlink:href="#mabb1cfef4b" y="78.147862"/>
      </g>
     </g>
    </g>
    <g id="ytick_30">
     <g id="line2d_80">
      <g>
       <use style="fill:#555555;stroke:#555555;stroke-width:0.6;" x="69.325" xlink:href="#m0cfcb7505b" y="66.074434"/>
      </g>
     </g>
     <g id="line2d_81">
      <g>
       <use style="fill:#555555;stroke:#555555;stroke-width:0.6;" x="678" xlink:href="#mabb1cfef4b" y="66.074434"/>
      </g>
     </g>
    </g>
    <g id="ytick_31">
     <g id="line2d_82">
      <g>
       <use style="fill:#555555;stroke:#555555;stroke-width:0.6;" x="69.325" xlink:href="#m0cfcb7505b" y="59.943805"/>
      </g>
     </g>
     <g id="line2d_83">
      <g>
       <use style="fill:#555555;stroke:#555555;stroke-width:0.6;" x="678" xlink:href="#mabb1cfef4b" y="59.943805"/>
      </g>
     </g>
    </g>
    <g id="ytick_32">
     <g id="line2d_84">
      <g>
       <use style="fill:#555555;stroke:#555555;stroke-width:0.6;" x="69.325" xlink:href="#m0cfcb7505b" y="55.594055"/>
      </g>
     </g>
     <g id="line2d_85">
      <g>
       <use style="fill:#555555;stroke:#555555;stroke-width:0.6;" x="678" xlink:href="#mabb1cfef4b" y="55.594055"/>
      </g>
     </g>
    </g>
    <g id="ytick_33">
     <g id="line2d_86">
      <g>
       <use style="fill:#555555;stroke:#555555;stroke-width:0.6;" x="69.325" xlink:href="#m0cfcb7505b" y="52.220127"/>
      </g>
     </g>
     <g id="line2d_87">
      <g>
       <use style="fill:#555555;stroke:#555555;stroke-width:0.6;" x="678" xlink:href="#mabb1cfef4b" y="52.220127"/>
      </g>
     </g>
    </g>
    <g id="ytick_34">
     <g id="line2d_88">
      <g>
       <use style="fill:#555555;stroke:#555555;stroke-width:0.6;" x="69.325" xlink:href="#m0cfcb7505b" y="49.463427"/>
      </g>
     </g>
     <g id="line2d_89">
      <g>
       <use style="fill:#555555;stroke:#555555;stroke-width:0.6;" x="678" xlink:href="#mabb1cfef4b" y="49.463427"/>
      </g>
     </g>
    </g>
    <g id="ytick_35">
     <g id="line2d_90">
      <g>
       <use style="fill:#555555;stroke:#555555;stroke-width:0.6;" x="69.325" xlink:href="#m0cfcb7505b" y="47.13267"/>
      </g>
     </g>
     <g id="line2d_91">
      <g>
       <use style="fill:#555555;stroke:#555555;stroke-width:0.6;" x="678" xlink:href="#mabb1cfef4b" y="47.13267"/>
      </g>
     </g>
    </g>
    <g id="ytick_36">
     <g id="line2d_92">
      <g>
       <use style="fill:#555555;stroke:#555555;stroke-width:0.6;" x="69.325" xlink:href="#m0cfcb7505b" y="45.113677"/>
      </g>
     </g>
     <g id="line2d_93">
      <g>
       <use style="fill:#555555;stroke:#555555;stroke-width:0.6;" x="678" xlink:href="#mabb1cfef4b" y="45.113677"/>
      </g>
     </g>
    </g>
    <g id="ytick_37">
     <g id="line2d_94">
      <g>
       <use style="fill:#555555;stroke:#555555;stroke-width:0.6;" x="69.325" xlink:href="#m0cfcb7505b" y="43.332799"/>
      </g>
     </g>
     <g id="line2d_95">
      <g>
       <use style="fill:#555555;stroke:#555555;stroke-width:0.6;" x="678" xlink:href="#mabb1cfef4b" y="43.332799"/>
      </g>
     </g>
    </g>
    <g id="ytick_38">
     <g id="line2d_96">
      <g>
       <use style="fill:#555555;stroke:#555555;stroke-width:0.6;" x="69.325" xlink:href="#m0cfcb7505b" y="31.259371"/>
      </g>
     </g>
     <g id="line2d_97">
      <g>
       <use style="fill:#555555;stroke:#555555;stroke-width:0.6;" x="678" xlink:href="#mabb1cfef4b" y="31.259371"/>
      </g>
     </g>
    </g>
    <g id="ytick_39">
     <g id="line2d_98">
      <g>
       <use style="fill:#555555;stroke:#555555;stroke-width:0.6;" x="69.325" xlink:href="#m0cfcb7505b" y="25.128743"/>
      </g>
     </g>
     <g id="line2d_99">
      <g>
       <use style="fill:#555555;stroke:#555555;stroke-width:0.6;" x="678" xlink:href="#mabb1cfef4b" y="25.128743"/>
      </g>
     </g>
    </g>
    <g id="ytick_40">
     <g id="line2d_100">
      <g>
       <use style="fill:#555555;stroke:#555555;stroke-width:0.6;" x="69.325" xlink:href="#m0cfcb7505b" y="20.778993"/>
      </g>
     </g>
     <g id="line2d_101">
      <g>
       <use style="fill:#555555;stroke:#555555;stroke-width:0.6;" x="678" xlink:href="#mabb1cfef4b" y="20.778993"/>
      </g>
     </g>
    </g>
    <g id="ytick_41">
     <g id="line2d_102">
      <g>
       <use style="fill:#555555;stroke:#555555;stroke-width:0.6;" x="69.325" xlink:href="#m0cfcb7505b" y="17.405064"/>
      </g>
     </g>
     <g id="line2d_103">
      <g>
       <use style="fill:#555555;stroke:#555555;stroke-width:0.6;" x="678" xlink:href="#mabb1cfef4b" y="17.405064"/>
      </g>
     </g>
    </g>
    <g id="ytick_42">
     <g id="line2d_104">
      <g>
       <use style="fill:#555555;stroke:#555555;stroke-width:0.6;" x="69.325" xlink:href="#m0cfcb7505b" y="14.648364"/>
      </g>
     </g>
     <g id="line2d_105">
      <g>
       <use style="fill:#555555;stroke:#555555;stroke-width:0.6;" x="678" xlink:href="#mabb1cfef4b" y="14.648364"/>
      </g>
     </g>
    </g>
    <g id="ytick_43">
     <g id="line2d_106">
      <g>
       <use style="fill:#555555;stroke:#555555;stroke-width:0.6;" x="69.325" xlink:href="#m0cfcb7505b" y="12.317608"/>
      </g>
     </g>
     <g id="line2d_107">
      <g>
       <use style="fill:#555555;stroke:#555555;stroke-width:0.6;" x="678" xlink:href="#mabb1cfef4b" y="12.317608"/>
      </g>
     </g>
    </g>
    <g id="ytick_44">
     <g id="line2d_108">
      <g>
       <use style="fill:#555555;stroke:#555555;stroke-width:0.6;" x="69.325" xlink:href="#m0cfcb7505b" y="10.298614"/>
      </g>
     </g>
     <g id="line2d_109">
      <g>
       <use style="fill:#555555;stroke:#555555;stroke-width:0.6;" x="678" xlink:href="#mabb1cfef4b" y="10.298614"/>
      </g>
     </g>
    </g>
    <g id="text_20">
     <!-- daily new cases -->
     <defs>
      <path d="M 7.90625 0 
L 7.90625 5.796875 
L 21.40625 5.796875 
L 21.40625 60.703125 
L 8.5 60.703125 
L 8.5 66.5 
L 28.703125 66.5 
L 28.703125 5.796875 
L 42.09375 5.796875 
L 42.09375 0 
z
" id="Inconsolata-Regular-108"/>
      <path d="M 10.796875 -0.09375 
L 1.59375 45.703125 
L 7.90625 45.703125 
L 15.296875 9 
L 23.09375 41.40625 
L 27.5 41.40625 
L 37.203125 9.09375 
Q 38.5 18 39.34375 23.703125 
Q 40.203125 29.40625 40.640625 33.046875 
Q 41.09375 36.703125 41.25 39.203125 
Q 41.40625 41.703125 41.40625 44.203125 
L 41.40625 45.703125 
L 48.09375 45.703125 
Q 45.09375 22.5 40.5 -0.09375 
L 33.703125 -0.09375 
L 25.296875 29.5 
L 17.296875 -0.09375 
z
" id="Inconsolata-Regular-119"/>
     </defs>
     <g style="fill:#555555;" transform="translate(18.5635 140.5)rotate(-90)scale(0.12 -0.12)">
      <use xlink:href="#Inconsolata-Regular-100"/>
      <use x="49.999985" xlink:href="#Inconsolata-Regular-97"/>
      <use x="99.999969" xlink:href="#Inconsolata-Regular-105"/>
      <use x="149.999954" xlink:href="#Inconsolata-Regular-108"/>
      <use x="199.999939" xlink:href="#Inconsolata-Regular-121"/>
      <use x="249.999924" xlink:href="#Inconsolata-Regular-32"/>
      <use x="299.999908" xlink:href="#Inconsolata-Regular-110"/>
      <use x="349.999893" xlink:href="#Inconsolata-Regular-101"/>
      <use x="399.999878" xlink:href="#Inconsolata-Regular-119"/>
      <use x="449.999863" xlink:href="#Inconsolata-Regular-32"/>
      <use x="499.999847" xlink:href="#Inconsolata-Regular-99"/>
      <use x="549.999832" xlink:href="#Inconsolata-Regular-97"/>
      <use x="599.999817" xlink:href="#Inconsolata-Regular-115"/>
      <use x="649.999802" xlink:href="#Inconsolata-Regular-101"/>
      <use x="699.999786" xlink:href="#Inconsolata-Regular-115"/>
     </g>
     <!-- (rolling 7-day mean) -->
     <defs>
      <path d="M 39.5 -10.40625 
Q 31.203125 -6.5 25.046875 0.046875 
Q 18.90625 6.59375 15.546875 14.84375 
Q 12.203125 23.09375 12.203125 32 
Q 12.203125 40.90625 15.5 48.953125 
Q 18.796875 57 24.796875 63.34375 
Q 30.796875 69.703125 38.90625 73.5 
L 40.796875 67.296875 
Q 34.40625 63.796875 29.546875 58.296875 
Q 24.703125 52.796875 22 46 
Q 19.296875 39.203125 19.296875 31.703125 
Q 19.296875 24.203125 22 17.296875 
Q 24.703125 10.40625 29.703125 4.796875 
Q 34.703125 -0.796875 41.40625 -4.40625 
z
" id="Inconsolata-Regular-40"/>
      <path d="M 11.90625 45.703125 
L 19.40625 45.703125 
L 19.203125 37.296875 
Q 21.09375 41.90625 25.09375 44.34375 
Q 29.09375 46.796875 33.703125 46.796875 
Q 41 46.796875 45.796875 41.796875 
L 42.59375 36.203125 
L 42.203125 35.296875 
L 41.5 35.703125 
Q 41.296875 36.5 40.890625 37.203125 
Q 40.5 37.90625 39.203125 38.90625 
Q 37.59375 39.90625 36.25 40.25 
Q 34.90625 40.59375 33.203125 40.59375 
Q 29.90625 40.59375 26.65625 38.890625 
Q 23.40625 37.203125 21.296875 33.59375 
Q 19.203125 30 19.203125 24.203125 
L 19.203125 -0.09375 
L 11.90625 -0.09375 
z
" id="Inconsolata-Regular-114"/>
      <path d="M 25 -0.796875 
Q 18.796875 -0.796875 14.046875 2.25 
Q 9.296875 5.296875 6.59375 10.640625 
Q 3.90625 16 3.90625 22.90625 
Q 3.90625 29.90625 6.59375 35.25 
Q 9.296875 40.59375 14.046875 43.640625 
Q 18.796875 46.703125 25 46.703125 
Q 31.203125 46.703125 35.953125 43.640625 
Q 40.703125 40.59375 43.390625 35.25 
Q 46.09375 29.90625 46.09375 22.90625 
Q 46.09375 16 43.390625 10.640625 
Q 40.703125 5.296875 35.953125 2.25 
Q 31.203125 -0.796875 25 -0.796875 
z
M 25 5.203125 
Q 29 5.203125 32 7.5 
Q 35 9.796875 36.75 13.796875 
Q 38.5 17.796875 38.5 23 
Q 38.5 30.796875 34.703125 35.75 
Q 30.90625 40.703125 25 40.703125 
Q 19.09375 40.703125 15.296875 35.75 
Q 11.5 30.796875 11.5 23 
Q 11.5 17.796875 13.25 13.796875 
Q 15 9.796875 18.046875 7.5 
Q 21.09375 5.203125 25 5.203125 
z
" id="Inconsolata-Regular-111"/>
      <path d="M 22.59375 15.5 
Q 18.703125 15.5 15.5 16.90625 
Q 13.703125 14.703125 13.703125 12.703125 
Q 13.703125 10.296875 16.703125 9.25 
Q 19.703125 8.203125 27.703125 8.203125 
Q 34.703125 8.203125 38.296875 6.703125 
Q 41.90625 5.203125 43.203125 2.59375 
Q 44.5 0 44.5 -3.40625 
Q 44.5 -6.90625 42.59375 -10.09375 
Q 40.703125 -13.296875 36.34375 -15.25 
Q 32 -17.203125 24.703125 -17.203125 
Q 15.09375 -17.203125 9.4375 -14.25 
Q 3.796875 -11.296875 3.796875 -5.40625 
Q 3.796875 -1.703125 5.890625 0.9375 
Q 8 3.59375 10.90625 4.90625 
Q 7.59375 7.09375 7.59375 11 
Q 7.59375 13.203125 8.6875 15.296875 
Q 9.796875 17.40625 11.703125 19.40625 
Q 6.59375 23.90625 6.59375 31.5 
Q 6.59375 35.90625 8.546875 39.5 
Q 10.5 43.09375 14.09375 45.25 
Q 17.703125 47.40625 22.59375 47.40625 
Q 26.296875 47.40625 29.25 46.15625 
Q 32.203125 44.90625 34.296875 42.703125 
Q 36.90625 45.09375 39.796875 46.140625 
Q 42.703125 47.203125 46.59375 46.90625 
L 47.5 41 
Q 44.5 41.296875 41.84375 40.890625 
Q 39.203125 40.5 36.90625 39 
Q 38.59375 35.59375 38.59375 31.5 
Q 38.59375 27.09375 36.640625 23.4375 
Q 34.703125 19.796875 31.140625 17.640625 
Q 27.59375 15.5 22.59375 15.5 
z
M 22.59375 21.5 
Q 27 21.5 29.796875 24.453125 
Q 32.59375 27.40625 32.59375 31.5 
Q 32.59375 35.59375 29.796875 38.546875 
Q 27 41.5 22.59375 41.5 
Q 18.296875 41.5 15.4375 38.546875 
Q 12.59375 35.59375 12.59375 31.5 
Q 12.59375 27.40625 15.4375 24.453125 
Q 18.296875 21.5 22.59375 21.5 
z
M 10.40625 -4.59375 
Q 10.40625 -8 14.25 -9.890625 
Q 18.09375 -11.796875 24.796875 -11.796875 
Q 31.59375 -11.796875 34.75 -9.75 
Q 37.90625 -7.703125 37.90625 -4.5 
Q 37.90625 -2.296875 37.09375 -0.890625 
Q 36.296875 0.5 33.796875 1.203125 
Q 31.296875 1.90625 26.203125 1.90625 
Q 22.703125 1.90625 19.84375 2.203125 
Q 17 2.5 14.703125 3.203125 
Q 12.40625 1.59375 11.40625 -0.046875 
Q 10.40625 -1.703125 10.40625 -4.59375 
z
" id="Inconsolata-Regular-103"/>
      <path d="M 15.5 0 
Q 19.90625 14.296875 24.59375 28.09375 
Q 29.296875 41.90625 34.5 55.703125 
L 7.90625 55.703125 
L 7.90625 62.296875 
L 43.203125 62.296875 
L 43.203125 58.40625 
Q 37.5 44 32.5 29.5 
Q 27.5 15 23.40625 0 
z
" id="Inconsolata-Regular-55"/>
      <path d="M 11.09375 28.09375 
L 11.09375 34.796875 
L 39.09375 34.796875 
L 39.09375 28.09375 
z
" id="Inconsolata-Regular-45"/>
      <path d="M 3.796875 0 
L 3.796875 45.703125 
L 10.40625 45.703125 
L 10.40625 41.203125 
Q 12 43.703125 14.5 45.25 
Q 17 46.796875 19.703125 46.796875 
Q 22.703125 46.796875 24.953125 44.890625 
Q 27.203125 43 27.796875 40.09375 
Q 29.09375 43.09375 31.890625 44.9375 
Q 34.703125 46.796875 38.09375 46.796875 
Q 42.796875 46.796875 44.9375 43.4375 
Q 47.09375 40.09375 46.90625 35.09375 
L 46.90625 0 
L 40.296875 0 
L 40.296875 32.40625 
Q 40.296875 36.59375 39.75 38.5 
Q 39.203125 40.40625 38.203125 40.953125 
Q 37.203125 41.5 36 41.5 
Q 34.09375 41.5 32.4375 39.75 
Q 30.796875 38 29.75 35.390625 
Q 28.703125 32.796875 28.703125 30.203125 
L 28.703125 0 
L 22 0 
L 22 31.796875 
Q 22 37.5 20.953125 39.390625 
Q 19.90625 41.296875 17 41.296875 
Q 14.796875 41.296875 12.59375 38.4375 
Q 10.40625 35.59375 10.40625 30.5 
L 10.40625 0 
z
" id="Inconsolata-Regular-109"/>
      <path d="M 13.25 -10.40625 
Q 21.546875 -6.5 27.6875 0.046875 
Q 33.84375 6.59375 37.1875 14.84375 
Q 40.546875 23.09375 40.546875 32 
Q 40.546875 40.90625 37.25 48.953125 
Q 33.953125 57 27.953125 63.34375 
Q 21.953125 69.703125 13.84375 73.5 
L 11.953125 67.296875 
Q 18.34375 63.796875 23.1875 58.296875 
Q 28.046875 52.796875 30.75 46 
Q 33.453125 39.203125 33.453125 31.703125 
Q 33.453125 24.203125 30.75 17.296875 
Q 28.046875 10.40625 23.046875 4.796875 
Q 18.046875 -0.796875 11.34375 -4.40625 
z
" id="Inconsolata-Regular-41"/>
     </defs>
     <g style="fill:#555555;" transform="translate(31.23625 155.5)rotate(-90)scale(0.12 -0.12)">
      <use xlink:href="#Inconsolata-Regular-40"/>
      <use x="49.999985" xlink:href="#Inconsolata-Regular-114"/>
      <use x="99.999969" xlink:href="#Inconsolata-Regular-111"/>
      <use x="149.999954" xlink:href="#Inconsolata-Regular-108"/>
      <use x="199.999939" xlink:href="#Inconsolata-Regular-108"/>
      <use x="249.999924" xlink:href="#Inconsolata-Regular-105"/>
      <use x="299.999908" xlink:href="#Inconsolata-Regular-110"/>
      <use x="349.999893" xlink:href="#Inconsolata-Regular-103"/>
      <use x="399.999878" xlink:href="#Inconsolata-Regular-32"/>
      <use x="449.999863" xlink:href="#Inconsolata-Regular-55"/>
      <use x="499.999847" xlink:href="#Inconsolata-Regular-45"/>
      <use x="549.999832" xlink:href="#Inconsolata-Regular-100"/>
      <use x="599.999817" xlink:href="#Inconsolata-Regular-97"/>
      <use x="649.999802" xlink:href="#Inconsolata-Regular-121"/>
      <use x="699.999786" xlink:href="#Inconsolata-Regular-32"/>
      <use x="749.999771" xlink:href="#Inconsolata-Regular-109"/>
      <use x="799.999756" xlink:href="#Inconsolata-Regular-101"/>
      <use x="849.999741" xlink:href="#Inconsolata-Regular-97"/>
      <use x="899.999725" xlink:href="#Inconsolata-Regular-110"/>
      <use x="949.99971" xlink:href="#Inconsolata-Regular-41"/>
     </g>
    </g>
   </g>
   <g id="line2d_110">
    <path clip-path="url(#p6f0cc5fdbb)" d="M -1 173.053748 
L 2.52939 174.16599 
L 6.704115 172.850378 
L 10.878841 169.47645 
L 15.053567 165.902254 
L 19.228292 171.640134 
L 23.403018 172.850378 
L 27.577743 175.607079 
L 31.752469 172.850378 
L 35.927195 172.850378 
L 40.10192 177.200128 
L 44.276646 186.087457 
L 48.451372 189.461385 
L 56.800823 189.461385 
L 60.975549 193.811135 
L 69.325 193.811135 
L 73.499726 144.941498 
L 81.849177 119.643431 
L 90.198628 109.294287 
L 94.373354 106.816305 
L 98.54808 102.846901 
L 102.722805 98.29567 
L 111.072257 90.864095 
L 115.246982 88.705235 
L 119.421708 87.026552 
L 123.596433 84.246125 
L 127.771159 83.713191 
L 136.12061 84.078222 
L 144.470062 86.70193 
L 148.644787 88.661877 
L 152.819513 93.206914 
L 156.994239 94.516029 
L 161.168964 97.250073 
L 165.34369 101.041457 
L 169.518416 105.311418 
L 173.693141 108.469856 
L 177.867867 110.166277 
L 182.042593 109.219157 
L 186.217318 112.30543 
L 190.392044 111.456522 
L 194.56677 111.964619 
L 198.741495 111.09165 
L 202.916221 109.369793 
L 207.090947 110.839294 
L 211.265672 111.007063 
L 215.440398 110.860164 
L 219.615123 111.897369 
L 223.789849 111.808166 
L 227.964575 111.830417 
L 232.1393 113.156154 
L 236.314026 111.369874 
L 240.488752 110.346876 
L 244.663477 110.326703 
L 248.838203 110.632168 
L 253.012929 110.735376 
L 257.187654 111.852702 
L 261.36238 112.397625 
L 265.537106 113.131865 
L 269.711831 115.154325 
L 273.886557 116.548324 
L 278.061283 118.151519 
L 282.236008 120.291802 
L 286.410734 123.017359 
L 290.58546 125.49662 
L 298.934911 128.002496 
L 303.109636 129.791488 
L 307.284362 131.087192 
L 311.459088 131.490415 
L 315.633813 132.504426 
L 319.808539 134.762525 
L 323.983265 136.032081 
L 332.332716 140.345087 
L 336.507442 141.56757 
L 340.682167 143.609317 
L 344.856893 145.141766 
L 349.031619 144.743848 
L 353.206344 144.548749 
L 357.38107 144.548749 
L 361.555796 145.970466 
L 365.730521 147.074605 
L 369.905247 148.019912 
L 374.079973 147.305449 
L 378.254698 147.777987 
L 382.429424 150.679377 
L 386.60415 152.865444 
L 390.778875 152.865444 
L 394.953601 151.889622 
L 399.128326 148.515694 
L 403.303052 143.978116 
L 407.477778 139.628366 
L 411.652503 136.594227 
L 415.827229 134.068371 
L 420.001955 131.82092 
L 424.17668 130.617102 
L 428.351406 130.540156 
L 436.700857 134.068371 
L 440.875583 135.490088 
L 445.050309 134.864343 
L 449.225034 136.709208 
L 453.39976 137.539534 
L 457.574486 137.059494 
L 461.749211 135.704559 
L 465.923937 135.596943 
L 470.098663 134.966852 
L 474.273388 134.165606 
L 478.448114 128.733715 
L 482.62284 126.344693 
L 486.797565 125.441738 
L 490.972291 125.332568 
L 499.321742 123.395379 
L 503.496468 122.970764 
L 507.671193 124.956563 
L 511.845919 125.999735 
L 516.020645 125.332568 
L 520.19537 123.783092 
L 524.370096 123.636532 
L 532.719547 123.587993 
L 536.894273 123.299984 
L 541.068999 122.512548 
L 545.243724 122.648561 
L 549.41845 123.734081 
L 557.767901 124.03056 
L 561.942627 124.383965 
L 566.117353 123.685228 
L 570.292078 124.03056 
L 574.466804 123.110982 
L 578.641529 122.467481 
L 582.816255 123.347606 
L 586.990981 122.785808 
L 591.165706 122.422548 
L 595.340432 123.881594 
L 599.515158 124.383965 
L 603.689883 125.224181 
L 607.864609 124.486474 
L 612.039335 123.252512 
L 620.388786 123.443303 
L 624.563512 122.244139 
L 637.087689 122.244139 
L 637.087689 122.244139 
" style="fill:none;stroke:#348abd;stroke-linecap:square;stroke-width:4;"/>
   </g>
   <g id="line2d_111">
    <defs>
     <path d="M 0 3 
C 0.795609 3 1.55874 2.683901 2.12132 2.12132 
C 2.683901 1.55874 3 0.795609 3 0 
C 3 -0.795609 2.683901 -1.55874 2.12132 -2.12132 
C 1.55874 -2.683901 0.795609 -3 0 -3 
C -0.795609 -3 -1.55874 -2.683901 -2.12132 -2.12132 
C -2.683901 -1.55874 -3 -0.795609 -3 0 
C -3 0.795609 -2.683901 1.55874 -2.12132 2.12132 
C -1.55874 2.683901 -0.795609 3 0 3 
z
" id="m53fd721696" style="stroke:#348abd;"/>
    </defs>
    <g clip-path="url(#p6f0cc5fdbb)">
     <use style="fill:#348abd;stroke:#348abd;" x="637.087689" xlink:href="#m53fd721696" y="122.244139"/>
    </g>
   </g>
   <g id="line2d_112">
    <path clip-path="url(#p6f0cc5fdbb)" d="M -1 189.461385 
L 2.52939 189.461385 
L 6.704115 193.811135 
L 10.878841 193.811135 
L 15.053567 199.941763 
L 19.228292 199.941763 
L 19.256254 433 
M 52.599385 433 
L 52.626097 210.422141 
L 56.800823 174.16599 
L 60.975549 158.996072 
L 65.150274 158.02025 
L 69.325 147.777987 
L 73.499726 138.81087 
L 81.849177 131.988922 
L 86.023903 127.873265 
L 90.198628 118.528254 
L 94.373354 113.156154 
L 98.54808 110.943931 
L 102.722805 107.40293 
L 106.897531 105.722074 
L 111.072257 102.470551 
L 115.246982 98.441935 
L 119.421708 98.90835 
L 123.596433 89.340768 
L 131.945885 82.401915 
L 140.295336 74.918623 
L 144.470062 70.541276 
L 148.644787 66.916069 
L 152.819513 63.892833 
L 161.168964 61.395122 
L 165.34369 59.389608 
L 169.518416 58.096513 
L 173.693141 57.310003 
L 177.867867 55.263965 
L 182.042593 54.043888 
L 186.217318 52.013324 
L 190.392044 51.289463 
L 194.56677 51.044881 
L 198.741495 50.653106 
L 202.916221 49.995023 
L 207.090947 49.88098 
L 211.265672 50.09266 
L 215.440398 50.819543 
L 219.615123 50.965551 
L 223.789849 51.590186 
L 232.1393 52.03806 
L 236.314026 52.93351 
L 244.663477 55.159714 
L 253.012929 56.314007 
L 257.187654 58.117555 
L 265.537106 61.051141 
L 269.711831 61.278279 
L 273.886557 61.914328 
L 278.061283 62.848103 
L 282.236008 63.145024 
L 286.410734 63.199398 
L 290.58546 64.154992 
L 294.760185 64.602939 
L 298.934911 66.510501 
L 303.109636 66.997356 
L 307.284362 67.684293 
L 311.459088 68.797044 
L 315.633813 68.890434 
L 319.808539 69.871374 
L 323.983265 71.344428 
L 328.15799 72.624465 
L 336.507442 74.737497 
L 340.682167 75.726861 
L 344.856893 76.350992 
L 349.031619 77.39188 
L 353.206344 77.860215 
L 357.38107 77.649757 
L 365.730521 78.35325 
L 369.905247 77.853153 
L 378.254698 79.047715 
L 382.429424 81.497809 
L 386.60415 82.755803 
L 390.778875 83.479194 
L 394.953601 83.268956 
L 399.128326 85.110993 
L 403.303052 82.880006 
L 407.477778 83.661262 
L 411.652503 83.091524 
L 415.827229 83.312796 
L 420.001955 84.156583 
L 424.17668 85.171976 
L 428.351406 84.832102 
L 432.526132 87.375961 
L 436.700857 89.111067 
L 440.875583 88.508714 
L 445.050309 88.333531 
L 449.225034 88.375956 
L 453.39976 88.958214 
L 457.574486 89.396217 
L 461.749211 91.077056 
L 465.923937 91.547086 
L 474.273388 95.481462 
L 478.448114 93.641957 
L 482.62284 93.12268 
L 486.797565 92.032198 
L 490.972291 91.373424 
L 495.147016 92.733576 
L 499.321742 93.925465 
L 503.496468 93.370234 
L 507.671193 96.947495 
L 511.845919 97.360843 
L 516.020645 99.12783 
L 520.19537 97.550168 
L 524.370096 94.889027 
L 528.544822 88.743881 
L 532.719547 89.002432 
L 541.068999 85.975899 
L 545.243724 84.694562 
L 549.41845 84.178024 
L 553.593176 84.039194 
L 557.767901 86.803691 
L 561.942627 86.044525 
L 566.117353 85.839574 
L 570.292078 87.38038 
L 574.466804 88.044457 
L 578.641529 89.681701 
L 582.816255 89.255471 
L 595.340432 89.255471 
L 595.340432 89.255471 
" style="fill:none;stroke:#348abd;stroke-linecap:square;stroke-opacity:0.4;stroke-width:2;"/>
   </g>
   <g id="line2d_113">
    <defs>
     <path d="M 0 3 
C 0.795609 3 1.55874 2.683901 2.12132 2.12132 
C 2.683901 1.55874 3 0.795609 3 0 
C 3 -0.795609 2.683901 -1.55874 2.12132 -2.12132 
C 1.55874 -2.683901 0.795609 -3 0 -3 
C -0.795609 -3 -1.55874 -2.683901 -2.12132 -2.12132 
C -2.683901 -1.55874 -3 -0.795609 -3 0 
C -3 0.795609 -2.683901 1.55874 -2.12132 2.12132 
C -1.55874 2.683901 -0.795609 3 0 3 
z
" id="mbe860fe01c" style="stroke:#348abd;stroke-opacity:0.4;"/>
    </defs>
    <g clip-path="url(#p6f0cc5fdbb)">
     <use style="fill:#348abd;fill-opacity:0.4;stroke:#348abd;stroke-opacity:0.4;" x="595.340432" xlink:href="#mbe860fe01c" y="89.255471"/>
    </g>
   </g>
   <g id="line2d_114">
    <path clip-path="url(#p6f0cc5fdbb)" d="M 27.546884 433 
L 27.577743 175.607079 
L 31.752469 172.850378 
L 35.927195 169.47645 
L 40.10192 162.37 
L 44.276646 155.8251 
L 48.451372 154.646322 
L 52.626097 152.865444 
L 56.800823 155.421876 
L 60.975549 151.577859 
L 65.150274 148.265771 
L 73.499726 144.941498 
L 77.674451 145.550439 
L 81.849177 135.704559 
L 86.023903 131.327833 
L 90.198628 128.801977 
L 94.373354 124.903604 
L 98.54808 122.06781 
L 102.722805 118.39017 
L 106.897531 114.933994 
L 111.072257 113.929149 
L 115.246982 108.959101 
L 119.421708 102.578852 
L 123.596433 101.951966 
L 127.771159 98.946293 
L 131.945885 97.123262 
L 136.12061 94.551497 
L 140.295336 93.04534 
L 144.470062 91.71099 
L 148.644787 92.520967 
L 152.819513 91.077056 
L 156.994239 92.032198 
L 161.168964 92.134747 
L 165.34369 93.343984 
L 169.518416 94.145096 
L 173.693141 96.192759 
L 177.867867 97.927201 
L 182.042593 100.505611 
L 186.217318 101.596993 
L 194.56677 106.098399 
L 198.741495 107.824126 
L 202.916221 110.266344 
L 207.090947 113.011001 
L 211.265672 114.906677 
L 215.440398 115.864314 
L 223.789849 121.678433 
L 232.1393 126.056684 
L 236.314026 124.435133 
L 240.488752 125.662472 
L 244.663477 128.198438 
L 248.838203 129.430612 
L 253.012929 130.311638 
L 257.187654 134.165606 
L 261.36238 137.297609 
L 265.537106 140.198999 
L 269.711831 141.097481 
L 278.061283 140.792016 
L 282.236008 140.198999 
L 286.410734 140.641567 
L 290.58546 140.054309 
L 294.760185 139.628366 
L 298.934911 137.297609 
L 303.109636 136.709208 
L 307.284362 135.490088 
L 311.459088 134.966852 
L 315.633813 135.704559 
L 319.808539 135.704559 
L 323.983265 137.297609 
L 328.15799 137.661964 
L 332.332716 140.054309 
L 336.507442 141.56757 
L 340.682167 139.91099 
L 344.856893 138.418121 
L 349.031619 140.054309 
L 353.206344 139.91099 
L 357.38107 141.097481 
L 361.555796 142.052745 
L 365.730521 142.052745 
L 369.905247 144.941498 
L 374.079973 147.539872 
L 378.254698 146.184937 
L 382.429424 148.515694 
L 386.60415 149.028285 
L 390.778875 146.847232 
L 394.953601 146.402495 
L 399.128326 146.184937 
L 403.303052 143.2493 
L 407.477778 144.548749 
L 411.652503 142.724855 
L 415.827229 141.56757 
L 420.001955 142.385066 
L 424.17668 142.385066 
L 428.351406 143.792592 
L 432.526132 146.623229 
L 436.700857 146.847232 
L 440.875583 147.777987 
L 445.050309 152.533123 
L 449.225034 152.865444 
L 453.39976 152.865444 
L 457.574486 153.908615 
L 461.749211 153.908615 
L 465.923937 148.265771 
L 474.273388 144.165944 
L 478.448114 141.409244 
L 482.62284 139.91099 
L 486.797565 138.035316 
L 490.972291 138.418121 
L 495.147016 135.596943 
L 499.321742 135.812947 
L 507.671193 134.560922 
L 516.020645 131.408906 
L 520.19537 131.087192 
L 524.370096 128.530759 
L 528.544822 124.6936 
L 532.719547 122.199863 
L 536.894273 119.869107 
L 541.068999 118.287429 
L 553.593176 118.287429 
L 553.593176 118.287429 
" style="fill:none;stroke:#988ed5;stroke-linecap:square;stroke-opacity:0.4;stroke-width:2;"/>
   </g>
   <g id="line2d_115">
    <defs>
     <path d="M 0 3 
C 0.795609 3 1.55874 2.683901 2.12132 2.12132 
C 2.683901 1.55874 3 0.795609 3 0 
C 3 -0.795609 2.683901 -1.55874 2.12132 -2.12132 
C 1.55874 -2.683901 0.795609 -3 0 -3 
C -0.795609 -3 -1.55874 -2.683901 -2.12132 -2.12132 
C -2.683901 -1.55874 -3 -0.795609 -3 0 
C -3 0.795609 -2.683901 1.55874 -2.12132 2.12132 
C -1.55874 2.683901 -0.795609 3 0 3 
z
" id="m7675b49679" style="stroke:#988ed5;stroke-opacity:0.4;"/>
    </defs>
    <g clip-path="url(#p6f0cc5fdbb)">
     <use style="fill:#988ed5;fill-opacity:0.4;stroke:#988ed5;stroke-opacity:0.4;" x="553.593176" xlink:href="#m7675b49679" y="118.287429"/>
    </g>
   </g>
   <g id="line2d_116">
    <path clip-path="url(#p6f0cc5fdbb)" d="M 31.725757 433 
L 31.752469 210.422141 
L 35.927195 210.422141 
L 40.10192 186.087457 
L 44.276646 186.087457 
L 48.451372 174.16599 
L 52.626097 168.500629 
L 60.975549 158.996072 
L 65.150274 151.889622 
L 69.325 147.777987 
L 73.499726 141.097481 
L 77.674451 139.628366 
L 81.849177 133.59136 
L 86.023903 129.147987 
L 90.198628 128.870549 
L 94.373354 123.881594 
L 98.54808 121.550837 
L 102.722805 118.63265 
L 106.897531 116.010402 
L 111.072257 114.423226 
L 115.246982 112.190971 
L 119.421708 109.350881 
L 123.596433 108.152272 
L 127.771159 106.531312 
L 131.945885 104.508398 
L 136.12061 102.871506 
L 140.295336 101.940384 
L 144.470062 100.78188 
L 148.644787 99.816115 
L 156.994239 95.542003 
L 161.168964 95.579964 
L 165.34369 93.783046 
L 169.518416 93.006817 
L 173.693141 91.900511 
L 177.867867 91.235917 
L 182.042593 91.361917 
L 186.217318 91.693344 
L 190.392044 90.797463 
L 194.56677 91.693344 
L 198.741495 91.996169 
L 202.916221 93.032488 
L 207.090947 92.885473 
L 211.265672 93.103308 
L 215.440398 92.589426 
L 219.615123 92.828333 
L 223.789849 91.454218 
L 227.964575 91.190357 
L 232.1393 91.218816 
L 236.314026 91.605419 
L 240.488752 91.570392 
L 244.663477 92.044226 
L 248.838203 91.936312 
L 253.012929 93.187434 
L 257.187654 93.324326 
L 261.36238 92.98119 
L 265.537106 92.299064 
L 269.711831 92.955606 
L 273.886557 93.966403 
L 278.061283 94.744475 
L 282.236008 94.932663 
L 286.410734 94.730095 
L 290.58546 93.966403 
L 294.760185 94.758868 
L 298.934911 94.263086 
L 303.109636 93.641957 
L 315.633813 93.252466 
L 319.808539 92.183248 
L 323.983265 92.341957 
L 328.15799 91.716877 
L 332.332716 91.241621 
L 336.507442 91.494778 
L 340.682167 91.924369 
L 344.856893 91.76996 
L 349.031619 93.077517 
L 353.206344 91.912435 
L 357.38107 91.954244 
L 365.730521 91.105302 
L 369.905247 90.425327 
L 374.079973 90.703566 
L 378.254698 90.376753 
L 386.60415 91.060134 
L 390.778875 91.906472 
L 394.953601 91.298786 
L 399.128326 92.366523 
L 403.303052 91.918401 
L 407.477778 93.24595 
L 411.652503 93.959573 
L 415.827229 93.898234 
L 420.001955 93.682134 
L 424.17668 92.645669 
L 428.351406 90.544724 
L 432.526132 89.391168 
L 436.700857 88.556411 
L 445.050309 88.613847 
L 449.225034 88.546859 
L 453.39976 89.210508 
L 461.749211 91.36767 
L 465.923937 91.327449 
L 470.098663 90.093829 
L 474.273388 90.333707 
L 478.448114 90.742159 
L 482.62284 91.512194 
L 486.797565 91.888596 
L 495.147016 93.174461 
L 499.321742 94.61555 
L 507.671193 94.910829 
L 511.845919 94.80213 
L 516.020645 95.679112 
L 524.370096 96.545147 
L 528.544822 95.848396 
L 541.068999 95.848396 
L 541.068999 95.848396 
" style="fill:none;stroke:#777777;stroke-linecap:square;stroke-opacity:0.4;stroke-width:2;"/>
   </g>
   <g id="line2d_117">
    <defs>
     <path d="M 0 3 
C 0.795609 3 1.55874 2.683901 2.12132 2.12132 
C 2.683901 1.55874 3 0.795609 3 0 
C 3 -0.795609 2.683901 -1.55874 2.12132 -2.12132 
C 1.55874 -2.683901 0.795609 -3 0 -3 
C -0.795609 -3 -1.55874 -2.683901 -2.12132 -2.12132 
C -2.683901 -1.55874 -3 -0.795609 -3 0 
C -3 0.795609 -2.683901 1.55874 -2.12132 2.12132 
C -1.55874 2.683901 -0.795609 3 0 3 
z
" id="me9eb327222" style="stroke:#777777;stroke-opacity:0.4;"/>
    </defs>
    <g clip-path="url(#p6f0cc5fdbb)">
     <use style="fill:#777777;fill-opacity:0.4;stroke:#777777;stroke-opacity:0.4;" x="541.068999" xlink:href="#me9eb327222" y="95.848396"/>
    </g>
   </g>
   <g id="line2d_118">
    <path clip-path="url(#p6f0cc5fdbb)" d="M -1 180.402707 
L 2.52939 164.388994 
L 10.878841 164.388994 
L 15.053567 158.996072 
L 19.228292 160.589122 
L 23.403018 153.908615 
L 27.577743 155.029127 
L 31.752469 153.908615 
L 35.927195 151.577859 
L 40.10192 151.577859 
L 44.276646 152.865444 
L 48.451372 152.865444 
L 52.626097 156.665315 
L 56.800823 156.665315 
L 65.150274 166.71975 
L 69.325 166.71975 
L 73.499726 145.970466 
L 77.674451 145.970466 
L 81.849177 144.743848 
L 86.023903 129.008632 
L 90.198628 126.520168 
L 98.54808 117.457364 
L 102.722805 115.071324 
L 106.897531 111.176714 
L 111.072257 107.519687 
L 115.246982 103.448771 
L 119.421708 98.589628 
L 123.596433 97.207684 
L 127.771159 95.376096 
L 131.945885 93.925465 
L 136.12061 92.614397 
L 140.295336 91.173308 
L 144.470062 90.858531 
L 148.644787 90.419922 
L 152.819513 89.012276 
L 156.994239 88.253717 
L 165.34369 87.287849 
L 169.518416 86.807946 
L 173.693141 85.720299 
L 177.867867 85.038894 
L 182.042593 83.947343 
L 198.741495 79.139692 
L 211.265672 78.297399 
L 215.440398 78.287706 
L 227.964575 78.700229 
L 236.314026 78.428856 
L 244.663477 78.224857 
L 253.012929 77.621916 
L 265.537106 77.378189 
L 290.58546 77.446771 
L 303.109636 77.564078 
L 311.459088 77.557153 
L 323.983265 77.766317 
L 332.332716 78.009299 
L 340.682167 78.399545 
L 357.38107 78.653006 
L 369.905247 78.860389 
L 374.079973 79.012096 
L 378.254698 79.307192 
L 386.60415 80.228695 
L 394.953601 80.970947 
L 407.477778 82.130895 
L 411.652503 82.218602 
L 415.827229 82.593918 
L 424.17668 83.77226 
L 436.700857 86.093156 
L 440.875583 87.562685 
L 453.39976 90.588376 
L 457.574486 91.350419 
L 461.749211 92.250191 
L 474.273388 92.250191 
L 474.273388 92.250191 
" style="fill:none;stroke:#fbc15e;stroke-linecap:square;stroke-opacity:0.4;stroke-width:2;"/>
   </g>
   <g id="line2d_119">
    <defs>
     <path d="M 0 3 
C 0.795609 3 1.55874 2.683901 2.12132 2.12132 
C 2.683901 1.55874 3 0.795609 3 0 
C 3 -0.795609 2.683901 -1.55874 2.12132 -2.12132 
C 1.55874 -2.683901 0.795609 -3 0 -3 
C -0.795609 -3 -1.55874 -2.683901 -2.12132 -2.12132 
C -2.683901 -1.55874 -3 -0.795609 -3 0 
C -3 0.795609 -2.683901 1.55874 -2.12132 2.12132 
C -1.55874 2.683901 -0.795609 3 0 3 
z
" id="mde0069467b" style="stroke:#fbc15e;stroke-opacity:0.4;"/>
    </defs>
    <g clip-path="url(#p6f0cc5fdbb)">
     <use style="fill:#fbc15e;fill-opacity:0.4;stroke:#fbc15e;stroke-opacity:0.4;" x="474.273388" xlink:href="#mde0069467b" y="92.250191"/>
    </g>
   </g>
   <g id="line2d_120">
    <path clip-path="url(#p6f0cc5fdbb)" d="M 40.075208 433 
L 40.10192 210.422141 
L 44.276646 210.422141 
L 48.451372 178.981007 
L 52.626097 178.981007 
L 56.800823 166.71975 
L 60.975549 160.589122 
L 65.150274 153.908615 
L 69.325 149.831305 
L 73.499726 142.554006 
L 77.674451 139.91099 
L 81.849177 129.864709 
L 86.023903 126.937709 
L 90.198628 123.685228 
L 94.373354 122.648561 
L 98.54808 118.562972 
L 102.722805 114.689899 
L 106.897531 115.349785 
L 111.072257 107.155731 
L 115.246982 104.660082 
L 119.421708 96.569476 
L 123.596433 96.872787 
L 127.771159 93.993758 
L 131.945885 92.891836 
L 136.12061 87.371543 
L 140.295336 84.441364 
L 144.470062 81.0028 
L 148.644787 80.835599 
L 152.819513 77.455938 
L 161.168964 74.785458 
L 177.867867 75.806823 
L 182.042593 76.282951 
L 186.217318 77.154051 
L 194.56677 76.520291 
L 198.741495 77.266836 
L 202.916221 77.841389 
L 207.090947 78.217622 
L 211.265672 79.568564 
L 215.440398 79.799692 
L 219.615123 80.168226 
L 227.964575 81.80951 
L 236.314026 83.870057 
L 240.488752 84.899468 
L 244.663477 86.264605 
L 248.838203 89.086309 
L 253.012929 91.065773 
L 257.187654 91.960226 
L 261.36238 93.40311 
L 265.537106 93.219915 
L 269.711831 93.67543 
L 273.886557 94.565707 
L 286.410734 98.879956 
L 290.58546 99.947462 
L 294.760185 101.767714 
L 298.934911 102.97033 
L 303.109636 103.207658 
L 307.284362 104.009076 
L 311.459088 104.673947 
L 315.633813 105.559412 
L 319.808539 107.188458 
L 323.983265 108.541345 
L 328.15799 109.032948 
L 332.332716 110.42784 
L 336.507442 112.420762 
L 340.682167 115.293681 
L 344.856893 116.396972 
L 349.031619 118.597771 
L 353.206344 119.831259 
L 357.38107 121.298831 
L 361.555796 120.969227 
L 369.905247 122.422548 
L 374.079973 123.832263 
L 378.254698 123.158011 
L 382.429424 125.116565 
L 386.60415 126.75735 
L 390.778875 127.681465 
L 394.953601 127.243174 
L 399.128326 128.132842 
L 403.303052 130.85032 
L 407.477778 134.361972 
L 411.652503 134.762525 
L 415.827229 134.762525 
L 420.001955 135.383982 
L 424.17668 138.289439 
L 428.351406 140.4926 
L 432.526132 137.909838 
L 436.700857 138.035316 
L 440.875583 137.297609 
L 445.050309 137.418088 
L 449.225034 138.944086 
L 453.39976 138.418121 
L 457.574486 138.418121 
L 461.749211 139.628366 
L 465.923937 139.214093 
L 470.098663 140.345087 
L 474.273388 140.641567 
L 478.448114 138.81087 
L 482.62284 138.289439 
L 486.797565 136.709208 
L 490.972291 137.178083 
L 495.147016 135.922117 
L 499.321742 134.46112 
L 507.671193 133.128939 
L 511.845919 132.244477 
L 516.020645 134.068371 
L 520.19537 132.592078 
L 524.370096 134.762525 
L 528.544822 132.330631 
L 532.719547 131.988922 
L 536.894273 132.073628 
L 541.068999 131.166981 
L 545.243724 128.330492 
L 549.41845 126.87735 
L 553.593176 123.587993 
L 557.767901 122.970764 
L 561.942627 122.199863 
L 566.117353 120.527443 
L 570.292078 117.232885 
L 582.816255 117.232885 
L 582.816255 117.232885 
" style="fill:none;stroke:#8eba42;stroke-linecap:square;stroke-opacity:0.4;stroke-width:2;"/>
   </g>
   <g id="line2d_121">
    <defs>
     <path d="M 0 3 
C 0.795609 3 1.55874 2.683901 2.12132 2.12132 
C 2.683901 1.55874 3 0.795609 3 0 
C 3 -0.795609 2.683901 -1.55874 2.12132 -2.12132 
C 1.55874 -2.683901 0.795609 -3 0 -3 
C -0.795609 -3 -1.55874 -2.683901 -2.12132 -2.12132 
C -2.683901 -1.55874 -3 -0.795609 -3 0 
C -3 0.795609 -2.683901 1.55874 -2.12132 2.12132 
C -1.55874 2.683901 -0.795609 3 0 3 
z
" id="m83a7de2f15" style="stroke:#8eba42;stroke-opacity:0.4;"/>
    </defs>
    <g clip-path="url(#p6f0cc5fdbb)">
     <use style="fill:#8eba42;fill-opacity:0.4;stroke:#8eba42;stroke-opacity:0.4;" x="582.816255" xlink:href="#m83a7de2f15" y="117.232885"/>
    </g>
   </g>
   <g id="line2d_122">
    <path clip-path="url(#p6f0cc5fdbb)" d="M -1 199.941763 
L 6.704115 199.941763 
L 10.878841 210.422141 
L 15.053567 210.422141 
L 15.080279 433 
M 23.375056 433 
L 23.403018 199.941763 
L 44.276646 199.941763 
L 48.451372 193.811135 
L 52.626097 210.422141 
L 56.800823 177.200128 
L 60.975549 169.47645 
L 65.150274 155.421876 
L 73.499726 142.554006 
L 77.674451 133.875757 
L 81.849177 129.864709 
L 86.023903 123.539609 
L 90.198628 119.057595 
L 94.373354 117.522118 
L 98.54808 112.772133 
L 102.722805 105.901541 
L 111.072257 95.996137 
L 115.246982 91.924369 
L 119.421708 92.020179 
L 123.596433 85.629488 
L 127.771159 80.394851 
L 131.945885 74.903124 
L 136.12061 67.672284 
L 140.295336 62.855085 
L 144.470062 58.597925 
L 148.644787 54.156403 
L 152.819513 50.395153 
L 156.994239 47.453572 
L 161.168964 44.809498 
L 165.34369 41.754012 
L 169.518416 39.201154 
L 173.693141 36.925674 
L 177.867867 35.261218 
L 182.042593 33.734836 
L 186.217318 31.852768 
L 190.392044 30.403839 
L 202.916221 26.831792 
L 211.265672 25.529429 
L 223.789849 24.436911 
L 227.964575 24.32972 
L 232.1393 24.544728 
L 236.314026 24.497766 
L 244.663477 25.065085 
L 257.187654 25.563106 
L 265.537106 25.877567 
L 269.711831 25.723263 
L 278.061283 25.908238 
L 286.410734 25.425981 
L 290.58546 25.09336 
L 294.760185 24.975229 
L 298.934911 25.325643 
L 307.284362 25.45597 
L 311.459088 25.787277 
L 315.633813 25.948243 
L 319.808539 26.234142 
L 323.983265 26.397848 
L 332.332716 26.424495 
L 340.682167 26.742447 
L 344.856893 27.312544 
L 349.031619 27.603317 
L 353.206344 28.105367 
L 357.38107 28.424036 
L 361.555796 28.625115 
L 365.730521 28.998327 
L 369.905247 29.022991 
L 374.079973 29.198949 
L 382.429424 29.330705 
L 386.60415 29.058337 
L 390.778875 29.199514 
L 394.953601 28.972402 
L 407.477778 29.589491 
L 411.652503 29.415552 
L 415.827229 29.683492 
L 420.001955 29.836653 
L 424.17668 30.370808 
L 428.351406 30.650993 
L 432.526132 30.613382 
L 436.700857 30.366328 
L 445.050309 30.604485 
L 453.39976 30.227796 
L 457.574486 30.376206 
L 461.749211 30.303035 
L 478.448114 30.987828 
L 490.972291 30.720242 
L 499.321742 30.2163 
L 503.496468 29.99158 
L 511.845919 28.997769 
L 520.19537 28.007499 
L 528.544822 26.850337 
L 536.894273 25.146032 
L 541.068999 24.484858 
L 549.41845 22.799529 
L 553.593176 22.197138 
L 557.767901 21.473989 
L 566.117353 20.34717 
L 570.292078 19.543911 
L 582.816255 19.543911 
L 582.816255 19.543911 
" style="fill:none;stroke:#ffb5b8;stroke-linecap:square;stroke-opacity:0.4;stroke-width:2;"/>
   </g>
   <g id="line2d_123">
    <defs>
     <path d="M 0 3 
C 0.795609 3 1.55874 2.683901 2.12132 2.12132 
C 2.683901 1.55874 3 0.795609 3 0 
C 3 -0.795609 2.683901 -1.55874 2.12132 -2.12132 
C 1.55874 -2.683901 0.795609 -3 0 -3 
C -0.795609 -3 -1.55874 -2.683901 -2.12132 -2.12132 
C -2.683901 -1.55874 -3 -0.795609 -3 0 
C -3 0.795609 -2.683901 1.55874 -2.12132 2.12132 
C -1.55874 2.683901 -0.795609 3 0 3 
z
" id="mf5049af7d7" style="stroke:#ffb5b8;stroke-opacity:0.4;"/>
    </defs>
    <g clip-path="url(#p6f0cc5fdbb)">
     <use style="fill:#ffb5b8;fill-opacity:0.4;stroke:#ffb5b8;stroke-opacity:0.4;" x="582.816255" xlink:href="#mf5049af7d7" y="19.543911"/>
    </g>
   </g>
   <g id="patch_3">
    <path d="M 69.325 181 
L 69.325 10 
" style="fill:none;stroke:#ffffff;stroke-linecap:square;stroke-linejoin:miter;"/>
   </g>
   <g id="patch_4">
    <path d="M 678 181 
L 678 10 
" style="fill:none;stroke:#ffffff;stroke-linecap:square;stroke-linejoin:miter;"/>
   </g>
   <g id="patch_5">
    <path d="M 69.325 181 
L 678 181 
" style="fill:none;stroke:#ffffff;stroke-linecap:square;stroke-linejoin:miter;"/>
   </g>
   <g id="patch_6">
    <path d="M 69.325 10 
L 678 10 
" style="fill:none;stroke:#ffffff;stroke-linecap:square;stroke-linejoin:miter;"/>
   </g>
   <g id="text_21">
    <!-- Korea, South -->
    <defs>
     <path d="M 16.59375 31.203125 
L 11.703125 25.796875 
L 11.703125 0 
L 4.203125 0 
L 4.203125 62.296875 
L 12.59375 62.296875 
L 12.59375 61.59375 
Q 12 61 11.84375 60.296875 
Q 11.703125 59.59375 11.703125 57.90625 
L 11.703125 33.59375 
L 37.703125 62.796875 
Q 38.796875 62.59375 40.09375 62.4375 
Q 41.40625 62.296875 42.90625 62.296875 
L 45.5 62.296875 
L 21.90625 35.40625 
L 47.09375 0 
L 38.09375 -0.40625 
z
" id="Inconsolata-Regular-75"/>
     <path d="M 19.90625 -16.796875 
L 16.5 -13.796875 
Q 19.296875 -11.203125 21.140625 -8.203125 
Q 23 -5.203125 23 -3.296875 
Q 23 -1.90625 21.75 -0.84375 
Q 20.5 0.203125 19.203125 1.390625 
Q 17.90625 2.59375 17.90625 4.40625 
Q 17.90625 6.90625 19.546875 8.59375 
Q 21.203125 10.296875 23.796875 10.296875 
Q 26.40625 10.296875 28.5 8 
Q 30.59375 5.703125 30.59375 2 
Q 30.59375 -5.796875 19.90625 -16.796875 
z
" id="Inconsolata-Regular-44"/>
     <path d="M 24.703125 -1 
Q 12.59375 -1 5.203125 6.90625 
L 8.796875 13.203125 
L 9.203125 14.09375 
L 9.90625 13.703125 
Q 10.09375 13 10.390625 12.140625 
Q 10.703125 11.296875 11.796875 10.09375 
Q 14.40625 7.90625 17.84375 6.59375 
Q 21.296875 5.296875 25.703125 5.296875 
Q 31.296875 5.296875 34.9375 8.4375 
Q 38.59375 11.59375 38.59375 16 
Q 38.59375 18.90625 37.4375 20.90625 
Q 36.296875 22.90625 33.25 24.796875 
Q 30.203125 26.703125 24.296875 29.203125 
Q 14.59375 33 10.890625 37.703125 
Q 7.203125 42.40625 7.203125 47.703125 
Q 7.203125 54.59375 12.296875 58.84375 
Q 17.40625 63.09375 26.203125 63.09375 
Q 31.296875 63.09375 35.796875 61.046875 
Q 40.296875 59 43.5 55.296875 
L 39 49.296875 
L 38.40625 49.703125 
Q 38.296875 50.5 38 51.296875 
Q 37.703125 52.09375 36.59375 53.296875 
Q 34.203125 55.59375 31.5 56.4375 
Q 28.796875 57.296875 25.09375 57.296875 
Q 20.203125 57.296875 17.296875 54.59375 
Q 14.40625 51.90625 14.40625 48.203125 
Q 14.40625 45.40625 15.65625 43.25 
Q 16.90625 41.09375 20.203125 39 
Q 23.5 36.90625 29.796875 34.40625 
Q 35.90625 31.90625 39.296875 29.34375 
Q 42.703125 26.796875 44.09375 23.84375 
Q 45.5 20.90625 45.5 17 
Q 45.5 12.703125 43.34375 8.546875 
Q 41.203125 4.40625 36.59375 1.703125 
Q 32 -1 24.703125 -1 
z
" id="Inconsolata-Regular-83"/>
     <path d="M 22.09375 -1.09375 
Q 15.296875 -1.09375 10.796875 4 
Q 6.296875 9.09375 6.40625 20.203125 
L 6.5 45.703125 
L 13.5 45.703125 
L 13.5 20.203125 
Q 13.5 11.5 16.546875 8.09375 
Q 19.59375 4.703125 23.90625 4.703125 
Q 27.09375 4.703125 29.890625 6.390625 
Q 32.703125 8.09375 34.453125 11.59375 
Q 36.203125 15.09375 36.203125 20.5 
L 36.203125 45.703125 
L 43.203125 45.703125 
L 43.203125 7.09375 
Q 43.203125 5.296875 43.34375 3.546875 
Q 43.5 1.796875 44.203125 0 
L 37.296875 0 
Q 36.59375 1.703125 36.4375 3.5 
Q 36.296875 5.296875 36.296875 7 
Q 34.09375 3.203125 30.34375 1.046875 
Q 26.59375 -1.09375 22.09375 -1.09375 
z
" id="Inconsolata-Regular-117"/>
     <path d="M 29.90625 -0.703125 
Q 24 -0.703125 20.953125 2 
Q 17.90625 4.703125 16.90625 10.34375 
Q 15.90625 16 16.203125 24.796875 
L 16.796875 39.796875 
L 7 39.796875 
L 7 45.703125 
L 17 45.703125 
L 17.40625 57.40625 
L 24.90625 58.296875 
L 25.90625 58.40625 
L 26 57.703125 
Q 25.5 57 25.140625 56.296875 
Q 24.796875 55.59375 24.59375 53.90625 
L 23.90625 45.703125 
L 39.90625 45.703125 
L 39.90625 39.796875 
L 24 39.796875 
L 23.296875 24.296875 
Q 23 16.703125 23.703125 12.546875 
Q 24.40625 8.40625 26.203125 6.84375 
Q 28 5.296875 31 5.296875 
Q 34.296875 5.296875 36.84375 6.59375 
Q 39.40625 7.90625 42.203125 9.90625 
L 44.40625 4.203125 
Q 41 1.703125 37.390625 0.5 
Q 33.796875 -0.703125 29.90625 -0.703125 
z
" id="Inconsolata-Regular-116"/>
     <path d="M 7.296875 66.5 
L 15.203125 66.5 
L 15.203125 65.796875 
Q 14.59375 65.203125 14.4375 64.5 
Q 14.296875 63.796875 14.296875 62.09375 
L 14.296875 37.59375 
Q 17 41.796875 21.046875 44.296875 
Q 25.09375 46.796875 29.296875 46.796875 
Q 35.5 46.796875 39.34375 42.4375 
Q 43.203125 38.09375 43.203125 27.703125 
L 43.203125 0 
L 36.203125 0 
L 36.203125 27.5 
Q 36.203125 34.703125 33.75 37.59375 
Q 31.296875 40.5 27.796875 40.5 
Q 24.796875 40.5 21.640625 38.796875 
Q 18.5 37.09375 16.390625 33.9375 
Q 14.296875 30.796875 14.296875 26.296875 
L 14.296875 0 
L 7.296875 0 
z
" id="Inconsolata-Regular-104"/>
    </defs>
    <g transform="translate(645.43714 122.244139)scale(0.1 -0.1)">
     <use xlink:href="#Inconsolata-Regular-75"/>
     <use x="49.999985" xlink:href="#Inconsolata-Regular-111"/>
     <use x="99.999969" xlink:href="#Inconsolata-Regular-114"/>
     <use x="149.999954" xlink:href="#Inconsolata-Regular-101"/>
     <use x="199.999939" xlink:href="#Inconsolata-Regular-97"/>
     <use x="249.999924" xlink:href="#Inconsolata-Regular-44"/>
     <use x="299.999908" xlink:href="#Inconsolata-Regular-32"/>
     <use x="349.999893" xlink:href="#Inconsolata-Regular-83"/>
     <use x="399.999878" xlink:href="#Inconsolata-Regular-111"/>
     <use x="449.999863" xlink:href="#Inconsolata-Regular-117"/>
     <use x="499.999847" xlink:href="#Inconsolata-Regular-116"/>
     <use x="549.999832" xlink:href="#Inconsolata-Regular-104"/>
    </g>
   </g>
   <g id="text_22">
    <!-- Germany -->
    <defs>
     <path d="M 27.703125 -1 
Q 20.296875 -1 14.84375 2.890625 
Q 9.40625 6.796875 6.5 13.890625 
Q 3.59375 21 3.59375 30.40625 
Q 3.5 40.5 5.84375 46.890625 
Q 8.203125 53.296875 11.953125 56.796875 
Q 15.703125 60.296875 19.84375 61.640625 
Q 24 63 27.40625 63 
Q 33 62.90625 38.09375 60.046875 
Q 43.203125 57.203125 45.796875 52.5 
L 40.90625 48.59375 
L 40.09375 47.90625 
L 39.703125 48.5 
Q 39.796875 49.296875 39.4375 49.9375 
Q 39.09375 50.59375 38 51.90625 
Q 35.703125 54.5 33.25 55.640625 
Q 30.796875 56.796875 27.296875 56.796875 
Q 22.796875 56.796875 18.9375 54.546875 
Q 15.09375 52.296875 12.796875 46.890625 
Q 10.5 41.5 10.5 31.90625 
Q 10.5 18.90625 15.140625 12.046875 
Q 19.796875 5.203125 27.703125 5.203125 
Q 30.40625 5.203125 33.75 6.09375 
Q 37.09375 7 39.5 9 
L 39.5 23.796875 
L 28.203125 23.796875 
L 28.203125 29.90625 
L 46 29.90625 
L 46 5.5 
Q 37.09375 -1 27.703125 -1 
z
" id="Inconsolata-Regular-71"/>
    </defs>
    <g transform="translate(603.689883 89.255471)scale(0.1 -0.1)">
     <use xlink:href="#Inconsolata-Regular-71"/>
     <use x="49.999985" xlink:href="#Inconsolata-Regular-101"/>
     <use x="99.999969" xlink:href="#Inconsolata-Regular-114"/>
     <use x="149.999954" xlink:href="#Inconsolata-Regular-109"/>
     <use x="199.999939" xlink:href="#Inconsolata-Regular-97"/>
     <use x="249.999924" xlink:href="#Inconsolata-Regular-110"/>
     <use x="299.999908" xlink:href="#Inconsolata-Regular-121"/>
    </g>
   </g>
   <g id="text_23">
    <!-- Australia -->
    <defs>
     <path d="M 41.203125 0 
L 34.90625 18.203125 
L 14.796875 18.203125 
L 8.5 0 
L 1.59375 0 
L 24.59375 63.40625 
L 25.40625 63.40625 
L 48.40625 0 
z
M 24.90625 47.40625 
L 16.703125 23.59375 
L 33.09375 23.59375 
z
" id="Inconsolata-Regular-65"/>
    </defs>
    <g transform="translate(561.942627 118.287429)scale(0.1 -0.1)">
     <use xlink:href="#Inconsolata-Regular-65"/>
     <use x="49.999985" xlink:href="#Inconsolata-Regular-117"/>
     <use x="99.999969" xlink:href="#Inconsolata-Regular-115"/>
     <use x="149.999954" xlink:href="#Inconsolata-Regular-116"/>
     <use x="199.999939" xlink:href="#Inconsolata-Regular-114"/>
     <use x="249.999924" xlink:href="#Inconsolata-Regular-97"/>
     <use x="299.999908" xlink:href="#Inconsolata-Regular-108"/>
     <use x="349.999893" xlink:href="#Inconsolata-Regular-105"/>
     <use x="399.999878" xlink:href="#Inconsolata-Regular-97"/>
    </g>
   </g>
   <g id="text_24">
    <!-- Poland -->
    <defs>
     <path d="M 5.90625 0 
L 5.90625 62.296875 
L 25.90625 62.296875 
Q 32.90625 62.296875 37.203125 59.890625 
Q 41.5 57.5 43.546875 53.546875 
Q 45.59375 49.59375 45.59375 44.703125 
Q 45.59375 39.90625 43.59375 36 
Q 41.59375 32.09375 37.390625 29.796875 
Q 33.203125 27.5 26.40625 27.5 
L 13.09375 27.5 
L 13.09375 0 
z
M 13.09375 33.703125 
L 25.59375 33.703125 
Q 32.40625 33.703125 35.40625 36.640625 
Q 38.40625 39.59375 38.40625 44.5 
Q 38.40625 49.09375 35.40625 52.390625 
Q 32.40625 55.703125 25.703125 55.703125 
L 13.09375 55.703125 
z
" id="Inconsolata-Regular-80"/>
    </defs>
    <g transform="translate(549.41845 95.848396)scale(0.1 -0.1)">
     <use xlink:href="#Inconsolata-Regular-80"/>
     <use x="49.999985" xlink:href="#Inconsolata-Regular-111"/>
     <use x="99.999969" xlink:href="#Inconsolata-Regular-108"/>
     <use x="149.999954" xlink:href="#Inconsolata-Regular-97"/>
     <use x="199.999939" xlink:href="#Inconsolata-Regular-110"/>
     <use x="249.999924" xlink:href="#Inconsolata-Regular-100"/>
    </g>
   </g>
   <g id="text_25">
    <!-- Belarus -->
    <defs>
     <path d="M 4.796875 0 
L 4.796875 62.296875 
L 22.5 62.296875 
Q 33.296875 62.296875 38.25 58.09375 
Q 43.203125 53.90625 43.203125 47.203125 
Q 43.203125 42.796875 40.796875 38.890625 
Q 38.40625 35 34 33.40625 
Q 39.296875 31.59375 42.5 27.140625 
Q 45.703125 22.703125 45.703125 17.5 
Q 45.703125 9.59375 40.09375 4.796875 
Q 34.5 0 22.40625 0 
z
M 11.703125 36.5 
L 21.5 36.5 
Q 29.796875 36.5 33 39.296875 
Q 36.203125 42.09375 36.203125 46.40625 
Q 36.203125 50.5 33.09375 53.453125 
Q 30 56.40625 22.59375 56.40625 
L 11.703125 56.40625 
z
M 11.703125 6.09375 
L 23.59375 6.09375 
Q 30.09375 6.09375 34.1875 8.75 
Q 38.296875 11.40625 38.296875 17.90625 
Q 38.296875 23.5 34.640625 27.046875 
Q 31 30.59375 21.90625 30.59375 
L 11.703125 30.59375 
z
" id="Inconsolata-Regular-66"/>
    </defs>
    <g transform="translate(482.62284 92.250191)scale(0.1 -0.1)">
     <use xlink:href="#Inconsolata-Regular-66"/>
     <use x="49.999985" xlink:href="#Inconsolata-Regular-101"/>
     <use x="99.999969" xlink:href="#Inconsolata-Regular-108"/>
     <use x="149.999954" xlink:href="#Inconsolata-Regular-97"/>
     <use x="199.999939" xlink:href="#Inconsolata-Regular-114"/>
     <use x="249.999924" xlink:href="#Inconsolata-Regular-117"/>
     <use x="299.999908" xlink:href="#Inconsolata-Regular-115"/>
    </g>
   </g>
   <g id="text_26">
    <!-- Switzerland -->
    <defs>
     <path d="M 5 4.90625 
L 33.296875 39.40625 
L 7.09375 39.40625 
L 7.09375 45.703125 
L 42.59375 45.703125 
L 42.59375 40.796875 
L 14.796875 6.203125 
L 40.59375 6.203125 
Q 42.296875 6.203125 43 6.390625 
Q 43.703125 6.59375 44.296875 7.203125 
L 45 7.203125 
L 45 0 
L 5 0 
z
" id="Inconsolata-Regular-122"/>
    </defs>
    <g transform="translate(591.165706 117.232885)scale(0.1 -0.1)">
     <use xlink:href="#Inconsolata-Regular-83"/>
     <use x="49.999985" xlink:href="#Inconsolata-Regular-119"/>
     <use x="99.999969" xlink:href="#Inconsolata-Regular-105"/>
     <use x="149.999954" xlink:href="#Inconsolata-Regular-116"/>
     <use x="199.999939" xlink:href="#Inconsolata-Regular-122"/>
     <use x="249.999924" xlink:href="#Inconsolata-Regular-101"/>
     <use x="299.999908" xlink:href="#Inconsolata-Regular-114"/>
     <use x="349.999893" xlink:href="#Inconsolata-Regular-108"/>
     <use x="399.999878" xlink:href="#Inconsolata-Regular-97"/>
     <use x="449.999863" xlink:href="#Inconsolata-Regular-110"/>
     <use x="499.999847" xlink:href="#Inconsolata-Regular-100"/>
    </g>
   </g>
   <g id="text_27">
    <!-- US -->
    <defs>
     <path d="M 25.09375 -1.09375 
Q 15.09375 -1.09375 10.046875 4.84375 
Q 5 10.796875 5 21.5 
L 5 62.296875 
L 12.796875 62.296875 
L 12.796875 61.59375 
Q 12.203125 61 12.046875 60.296875 
Q 11.90625 59.59375 11.90625 57.90625 
L 11.90625 21.40625 
Q 11.90625 13.796875 14.84375 9.296875 
Q 17.796875 4.796875 25.203125 4.796875 
Q 32.703125 4.796875 35.703125 9.296875 
Q 38.703125 13.796875 38.703125 21.703125 
L 38.703125 62.296875 
L 45.40625 62.296875 
L 45.40625 21.796875 
Q 45.40625 10 39.84375 4.453125 
Q 34.296875 -1.09375 25.09375 -1.09375 
z
" id="Inconsolata-Regular-85"/>
    </defs>
    <g transform="translate(591.165706 19.543911)scale(0.1 -0.1)">
     <use xlink:href="#Inconsolata-Regular-85"/>
     <use x="49.999985" xlink:href="#Inconsolata-Regular-83"/>
    </g>
   </g>
  </g>
 </g>
 <defs>
  <clipPath id="p6f0cc5fdbb">
   <rect height="171" width="608.675" x="69.325" y="10"/>
  </clipPath>
 </defs>
</svg>
