<?xml version="1.0" encoding="utf-8" standalone="no"?>
<!DOCTYPE svg PUBLIC "-//W3C//DTD SVG 1.1//EN"
  "http://www.w3.org/Graphics/SVG/1.1/DTD/svg11.dtd">
<!-- Created with matplotlib (https://matplotlib.org/) -->
<svg height="432pt" version="1.1" viewBox="0 0 720 432" width="720pt" xmlns="http://www.w3.org/2000/svg" xmlns:xlink="http://www.w3.org/1999/xlink">
 <defs>
  <style type="text/css">
*{stroke-linecap:butt;stroke-linejoin:round;}
  </style>
 </defs>
 <g id="figure_1">
  <g id="patch_1">
   <path d="M 0 432 
L 720 432 
L 720 0 
L 0 0 
z
" style="fill:#ffffff;"/>
  </g>
  <g id="axes_1">
   <g id="patch_2">
    <path d="M 69.325 181 
L 678 181 
L 678 10 
L 69.325 10 
z
" style="fill:#e5e5e5;"/>
   </g>
   <g id="matplotlib.axis_1">
    <g id="xtick_1">
     <g id="line2d_1">
      <path clip-path="url(#pa870436f5c)" d="M 73.382833 181 
L 73.382833 10 
" style="fill:none;stroke:#ffffff;stroke-linecap:square;stroke-width:0.8;"/>
     </g>
     <g id="line2d_2">
      <defs>
       <path d="M 0 0 
L 0 3.5 
" id="md8dff12126" style="stroke:#555555;stroke-width:0.8;"/>
      </defs>
      <g>
       <use style="fill:#555555;stroke:#555555;stroke-width:0.8;" x="73.382833" xlink:href="#md8dff12126" y="181"/>
      </g>
     </g>
     <g id="text_1">
      <!-- 0 -->
      <defs>
       <path d="M 25 -1.09375 
Q 15.703125 -1.09375 10.703125 7.203125 
Q 5.703125 15.5 5.703125 30.796875 
Q 5.703125 45.59375 10.703125 54.140625 
Q 15.703125 62.703125 25 62.703125 
Q 34.296875 62.703125 39.296875 54.140625 
Q 44.296875 45.59375 44.296875 30.796875 
Q 44.296875 15.5 39.296875 7.203125 
Q 34.296875 -1.09375 25 -1.09375 
z
M 12.90625 30.796875 
Q 12.90625 24.40625 13.796875 19.40625 
L 35 46.703125 
Q 33.5 51.40625 30.953125 54 
Q 28.40625 56.59375 25 56.59375 
Q 19.296875 56.59375 16.09375 49.59375 
Q 12.90625 42.59375 12.90625 30.796875 
z
M 25 5 
Q 30.703125 5 33.890625 11.703125 
Q 37.09375 18.40625 37.09375 30.796875 
Q 37.09375 36.296875 36.40625 40.796875 
L 15.203125 13.90625 
Q 18.296875 5 25 5 
z
" id="Inconsolata-Regular-48"/>
      </defs>
      <g style="fill:#555555;" transform="translate(70.882833 194.65)scale(0.1 -0.1)">
       <use xlink:href="#Inconsolata-Regular-48"/>
      </g>
     </g>
    </g>
    <g id="xtick_2">
     <g id="line2d_3">
      <path clip-path="url(#pa870436f5c)" d="M 154.5395 181 
L 154.5395 10 
" style="fill:none;stroke:#ffffff;stroke-linecap:square;stroke-width:0.8;"/>
     </g>
     <g id="line2d_4">
      <g>
       <use style="fill:#555555;stroke:#555555;stroke-width:0.8;" x="154.5395" xlink:href="#md8dff12126" y="181"/>
      </g>
     </g>
     <g id="text_2">
      <!-- 20 -->
      <defs>
       <path d="M 7.296875 5.59375 
Q 14 12.5 19.390625 17.84375 
Q 24.796875 23.203125 28.59375 27.640625 
Q 32.40625 32.09375 34.40625 36.296875 
Q 36.40625 40.5 36.40625 45.09375 
Q 36.40625 51.59375 33.296875 54.09375 
Q 30.203125 56.59375 25.796875 56.59375 
Q 22.203125 56.59375 19.046875 55.046875 
Q 15.90625 53.5 13.296875 50.296875 
Q 12.40625 48.90625 12.203125 48.15625 
Q 12 47.40625 12.09375 46.59375 
L 11.703125 46.09375 
L 10.90625 46.59375 
L 5.796875 50.59375 
Q 8.796875 56.40625 14.046875 59.546875 
Q 19.296875 62.703125 25.703125 62.703125 
Q 33.59375 62.703125 38.59375 57.953125 
Q 43.59375 53.203125 43.59375 44.90625 
Q 43.59375 39.703125 41.296875 35 
Q 39 30.296875 35.140625 25.6875 
Q 31.296875 21.09375 26.390625 16.296875 
Q 21.5 11.5 16.296875 6.09375 
L 39.5 6.09375 
Q 41.203125 6.09375 41.890625 6.296875 
Q 42.59375 6.5 43.203125 7.09375 
L 43.90625 7.09375 
L 43.90625 0 
L 7.296875 0 
z
" id="Inconsolata-Regular-50"/>
      </defs>
      <g style="fill:#555555;" transform="translate(149.5395 194.65)scale(0.1 -0.1)">
       <use xlink:href="#Inconsolata-Regular-50"/>
       <use x="49.999985" xlink:href="#Inconsolata-Regular-48"/>
      </g>
     </g>
    </g>
    <g id="xtick_3">
     <g id="line2d_5">
      <path clip-path="url(#pa870436f5c)" d="M 235.696167 181 
L 235.696167 10 
" style="fill:none;stroke:#ffffff;stroke-linecap:square;stroke-width:0.8;"/>
     </g>
     <g id="line2d_6">
      <g>
       <use style="fill:#555555;stroke:#555555;stroke-width:0.8;" x="235.696167" xlink:href="#md8dff12126" y="181"/>
      </g>
     </g>
     <g id="text_3">
      <!-- 40 -->
      <defs>
       <path d="M 31.796875 0 
L 31.796875 15.296875 
L 4.796875 15.296875 
L 4.796875 20.40625 
L 33.296875 62.40625 
L 39.203125 62.40625 
L 39.203125 21.09375 
L 47.203125 21.09375 
L 47.203125 15.203125 
L 39.203125 15.203125 
L 39.203125 0 
z
M 12.90625 21.203125 
L 31.796875 21.203125 
L 31.796875 49.796875 
z
" id="Inconsolata-Regular-52"/>
      </defs>
      <g style="fill:#555555;" transform="translate(230.696167 194.65)scale(0.1 -0.1)">
       <use xlink:href="#Inconsolata-Regular-52"/>
       <use x="49.999985" xlink:href="#Inconsolata-Regular-48"/>
      </g>
     </g>
    </g>
    <g id="xtick_4">
     <g id="line2d_7">
      <path clip-path="url(#pa870436f5c)" d="M 316.852833 181 
L 316.852833 10 
" style="fill:none;stroke:#ffffff;stroke-linecap:square;stroke-width:0.8;"/>
     </g>
     <g id="line2d_8">
      <g>
       <use style="fill:#555555;stroke:#555555;stroke-width:0.8;" x="316.852833" xlink:href="#md8dff12126" y="181"/>
      </g>
     </g>
     <g id="text_4">
      <!-- 60 -->
      <defs>
       <path d="M 26.09375 -1 
Q 16.796875 -1 11.75 6.890625 
Q 6.703125 14.796875 6.703125 28.40625 
Q 6.703125 45.203125 12.703125 54.09375 
Q 18.703125 63 28.703125 63 
Q 36.59375 63 42.40625 57.296875 
L 38 52.296875 
L 37.296875 51.5 
L 36.796875 52 
Q 36.703125 52.796875 36.34375 53.5 
Q 36 54.203125 34.703125 55.296875 
Q 32.5 56.796875 28.90625 56.796875 
Q 26.90625 56.796875 24.296875 55.84375 
Q 21.703125 54.90625 19.296875 52.296875 
Q 16.90625 49.703125 15.296875 44.953125 
Q 13.703125 40.203125 13.59375 32.703125 
Q 15.703125 36.203125 19.25 38.203125 
Q 22.796875 40.203125 26.796875 40.203125 
Q 31.5 40.203125 35.34375 37.640625 
Q 39.203125 35.09375 41.546875 30.546875 
Q 43.90625 26 43.90625 19.796875 
Q 43.90625 13.59375 41.5 8.890625 
Q 39.09375 4.203125 35.09375 1.59375 
Q 31.09375 -1 26.09375 -1 
z
M 26.40625 5.203125 
Q 30.703125 5.203125 33.890625 8.890625 
Q 37.09375 12.59375 37.09375 19.703125 
Q 37.09375 24.703125 35.4375 27.890625 
Q 33.796875 31.09375 31.296875 32.59375 
Q 28.796875 34.09375 26.203125 34.09375 
Q 22.59375 34.09375 19.296875 31.640625 
Q 16 29.203125 14 25.703125 
Q 13.59375 22.296875 14.25 18.6875 
Q 14.90625 15.09375 16.546875 12.046875 
Q 18.203125 9 20.703125 7.09375 
Q 23.203125 5.203125 26.40625 5.203125 
z
" id="Inconsolata-Regular-54"/>
      </defs>
      <g style="fill:#555555;" transform="translate(311.852833 194.65)scale(0.1 -0.1)">
       <use xlink:href="#Inconsolata-Regular-54"/>
       <use x="49.999985" xlink:href="#Inconsolata-Regular-48"/>
      </g>
     </g>
    </g>
    <g id="xtick_5">
     <g id="line2d_9">
      <path clip-path="url(#pa870436f5c)" d="M 398.0095 181 
L 398.0095 10 
" style="fill:none;stroke:#ffffff;stroke-linecap:square;stroke-width:0.8;"/>
     </g>
     <g id="line2d_10">
      <g>
       <use style="fill:#555555;stroke:#555555;stroke-width:0.8;" x="398.0095" xlink:href="#md8dff12126" y="181"/>
      </g>
     </g>
     <g id="text_5">
      <!-- 80 -->
      <defs>
       <path d="M 25 -1 
Q 19.09375 -1 14.84375 1.25 
Q 10.59375 3.5 8.296875 7.296875 
Q 6 11.09375 6 15.703125 
Q 6 21.09375 9.390625 25.796875 
Q 12.796875 30.5 18.5 33.09375 
Q 14.203125 35.296875 11.59375 39.25 
Q 9 43.203125 9 47.703125 
Q 9 54.09375 13.140625 58.59375 
Q 17.296875 63.09375 25.5 63.09375 
Q 31.296875 63.09375 34.890625 61.09375 
Q 38.5 59.09375 40.25 55.75 
Q 42 52.40625 42 48.296875 
Q 42 43.796875 39.296875 39.75 
Q 36.59375 35.703125 32.09375 33.296875 
Q 37.5 30.796875 40.796875 26.140625 
Q 44.09375 21.5 44.09375 16.09375 
Q 44.09375 11.203125 41.75 7.34375 
Q 39.40625 3.5 35.15625 1.25 
Q 30.90625 -1 25 -1 
z
M 26.703125 35.796875 
Q 30.40625 37.796875 32.796875 41.1875 
Q 35.203125 44.59375 35.203125 48.09375 
Q 35.203125 51.59375 32.75 54.390625 
Q 30.296875 57.203125 25.296875 57.203125 
Q 20.40625 57.203125 18.046875 54.5 
Q 15.703125 51.796875 15.703125 48.40625 
Q 15.703125 43.796875 18.890625 41.046875 
Q 22.09375 38.296875 26.703125 35.796875 
z
M 25.203125 5.296875 
Q 31 5.296875 34 8.4375 
Q 37 11.59375 37 16.09375 
Q 37 20.703125 33.390625 24.546875 
Q 29.796875 28.40625 23.703125 30.296875 
Q 19.203125 28.40625 16.203125 24.65625 
Q 13.203125 20.90625 13.203125 16.40625 
Q 13.203125 11.90625 16.34375 8.59375 
Q 19.5 5.296875 25.203125 5.296875 
z
" id="Inconsolata-Regular-56"/>
      </defs>
      <g style="fill:#555555;" transform="translate(393.0095 194.65)scale(0.1 -0.1)">
       <use xlink:href="#Inconsolata-Regular-56"/>
       <use x="49.999985" xlink:href="#Inconsolata-Regular-48"/>
      </g>
     </g>
    </g>
    <g id="xtick_6">
     <g id="line2d_11">
      <path clip-path="url(#pa870436f5c)" d="M 479.166167 181 
L 479.166167 10 
" style="fill:none;stroke:#ffffff;stroke-linecap:square;stroke-width:0.8;"/>
     </g>
     <g id="line2d_12">
      <g>
       <use style="fill:#555555;stroke:#555555;stroke-width:0.8;" x="479.166167" xlink:href="#md8dff12126" y="181"/>
      </g>
     </g>
     <g id="text_6">
      <!-- 100 -->
      <defs>
       <path d="M 23 0 
L 23 53.703125 
L 10.40625 50 
L 8.796875 53.90625 
L 25.09375 62.40625 
L 30 62.40625 
L 30 0 
z
" id="Inconsolata-Regular-49"/>
      </defs>
      <g style="fill:#555555;" transform="translate(471.666167 194.65)scale(0.1 -0.1)">
       <use xlink:href="#Inconsolata-Regular-49"/>
       <use x="49.999985" xlink:href="#Inconsolata-Regular-48"/>
       <use x="99.999969" xlink:href="#Inconsolata-Regular-48"/>
      </g>
     </g>
    </g>
    <g id="xtick_7">
     <g id="line2d_13">
      <path clip-path="url(#pa870436f5c)" d="M 560.322833 181 
L 560.322833 10 
" style="fill:none;stroke:#ffffff;stroke-linecap:square;stroke-width:0.8;"/>
     </g>
     <g id="line2d_14">
      <g>
       <use style="fill:#555555;stroke:#555555;stroke-width:0.8;" x="560.322833" xlink:href="#md8dff12126" y="181"/>
      </g>
     </g>
     <g id="text_7">
      <!-- 120 -->
      <g style="fill:#555555;" transform="translate(552.822833 194.65)scale(0.1 -0.1)">
       <use xlink:href="#Inconsolata-Regular-49"/>
       <use x="49.999985" xlink:href="#Inconsolata-Regular-50"/>
       <use x="99.999969" xlink:href="#Inconsolata-Regular-48"/>
      </g>
     </g>
    </g>
    <g id="xtick_8">
     <g id="line2d_15">
      <path clip-path="url(#pa870436f5c)" d="M 641.4795 181 
L 641.4795 10 
" style="fill:none;stroke:#ffffff;stroke-linecap:square;stroke-width:0.8;"/>
     </g>
     <g id="line2d_16">
      <g>
       <use style="fill:#555555;stroke:#555555;stroke-width:0.8;" x="641.4795" xlink:href="#md8dff12126" y="181"/>
      </g>
     </g>
     <g id="text_8">
      <!-- 140 -->
      <g style="fill:#555555;" transform="translate(633.9795 194.65)scale(0.1 -0.1)">
       <use xlink:href="#Inconsolata-Regular-49"/>
       <use x="49.999985" xlink:href="#Inconsolata-Regular-52"/>
       <use x="99.999969" xlink:href="#Inconsolata-Regular-48"/>
      </g>
     </g>
    </g>
    <g id="text_9">
     <!-- days since 10 cases -->
     <defs>
      <path d="M 23.40625 -1 
Q 18.796875 -1 14.4375 1.640625 
Q 10.09375 4.296875 7.296875 9.6875 
Q 4.5 15.09375 4.5 23.296875 
Q 4.5 31.703125 7.390625 36.890625 
Q 10.296875 42.09375 14.75 44.5 
Q 19.203125 46.90625 23.796875 46.90625 
Q 28.5 46.90625 31.953125 44.75 
Q 35.40625 42.59375 37.09375 39 
L 37.09375 66.5 
L 44.703125 66.5 
L 44.703125 65.796875 
Q 44.09375 65.203125 43.9375 64.5 
Q 43.796875 63.796875 43.796875 62.09375 
L 43.90625 7.09375 
Q 43.90625 5.296875 44.046875 3.546875 
Q 44.203125 1.796875 44.90625 0 
L 37.796875 0 
Q 37.09375 1.796875 36.9375 3.546875 
Q 36.796875 5.296875 36.796875 7.09375 
Q 34.59375 3.40625 31.1875 1.203125 
Q 27.796875 -1 23.40625 -1 
z
M 24.5 5.296875 
Q 28.90625 5.296875 31.546875 7.6875 
Q 34.203125 10.09375 35.34375 14.140625 
Q 36.5 18.203125 36.5 23.09375 
Q 36.5 30.796875 33.5 35.890625 
Q 30.5 41 23.90625 41 
Q 17.796875 41 14.640625 36.5 
Q 11.5 32 11.5 24.40625 
Q 11.5 15.796875 14.796875 10.546875 
Q 18.09375 5.296875 24.5 5.296875 
z
" id="Inconsolata-Regular-100"/>
      <path d="M 21.09375 -1.09375 
Q 13.296875 -1.09375 9.09375 2.453125 
Q 4.90625 6 4.90625 11.5 
Q 4.90625 16.40625 8 19.953125 
Q 11.09375 23.5 16.34375 25.453125 
Q 21.59375 27.40625 27.90625 27.40625 
Q 30.203125 27.40625 32.75 27.296875 
Q 35.296875 27.203125 38.203125 26.796875 
Q 37.59375 34.796875 34.046875 37.796875 
Q 30.5 40.796875 23.90625 40.796875 
Q 20.59375 40.796875 17.390625 39.546875 
Q 14.203125 38.296875 11.59375 35.703125 
L 8.09375 40.296875 
Q 11.296875 43.5 15.5 45.09375 
Q 19.703125 46.703125 24.40625 46.703125 
Q 30.5 46.703125 35 44.703125 
Q 39.5 42.703125 42 37.796875 
Q 44.5 32.90625 44.5 24.296875 
L 44.5 0 
L 36.703125 0 
L 36.703125 7 
Q 35 3.703125 32.34375 1.953125 
Q 29.703125 0.203125 26.75 -0.4375 
Q 23.796875 -1.09375 21.09375 -1.09375 
z
M 12.09375 11.90625 
Q 12.09375 7.59375 14.890625 6 
Q 17.703125 4.40625 21.796875 4.40625 
Q 29.203125 4.40625 33.5 8.75 
Q 37.796875 13.09375 38.203125 21.296875 
Q 33 22 28.5 22 
Q 21.296875 22 16.6875 19.59375 
Q 12.09375 17.203125 12.09375 11.90625 
z
" id="Inconsolata-Regular-97"/>
      <path d="M 12.703125 -17.40625 
Q 6.296875 -17.40625 2.203125 -13.5 
L 5.296875 -8.59375 
L 5.90625 -7.703125 
L 6.5 -8.09375 
Q 6.703125 -8.90625 7.203125 -9.453125 
Q 7.703125 -10 9.09375 -10.90625 
Q 10.90625 -11.5 13.09375 -11.5 
Q 17 -11.5 19.203125 -8.75 
Q 21.40625 -6 23.296875 -0.296875 
L 4.59375 45.703125 
L 12.09375 45.703125 
L 26.296875 9.09375 
L 32.296875 27.5 
Q 33.796875 32.09375 35.1875 36.59375 
Q 36.59375 41.09375 37.09375 45.703125 
L 44.296875 45.703125 
Q 43.59375 41.09375 42.09375 36.390625 
Q 40.59375 31.703125 38.90625 27 
L 27.5 -5.203125 
Q 25.09375 -11.90625 21.34375 -14.65625 
Q 17.59375 -17.40625 12.703125 -17.40625 
z
" id="Inconsolata-Regular-121"/>
      <path d="M 25.09375 -1 
Q 13.5 -1 5.703125 6.203125 
L 9.703125 13 
L 10.296875 13.90625 
L 10.90625 13.5 
Q 11.09375 12.703125 11.34375 11.84375 
Q 11.59375 11 12.703125 9.796875 
Q 14.796875 7.703125 17.75 6.34375 
Q 20.703125 5 25.296875 5 
Q 30.796875 5 33.84375 6.953125 
Q 36.90625 8.90625 36.90625 12.296875 
Q 36.90625 15.203125 34.34375 17.09375 
Q 31.796875 19 25.40625 21.09375 
Q 17.5 23.40625 12.84375 26.796875 
Q 8.203125 30.203125 8.203125 35.296875 
Q 8.203125 40.5 12.453125 43.640625 
Q 16.703125 46.796875 25 46.796875 
Q 31.40625 46.796875 35.59375 45 
Q 39.796875 43.203125 43.203125 39.59375 
L 39.09375 34.59375 
L 38.40625 33.796875 
L 37.90625 34.296875 
Q 37.796875 35.09375 37.4375 35.84375 
Q 37.09375 36.59375 36 37.703125 
Q 33.703125 39.5 30.796875 40.453125 
Q 27.90625 41.40625 25.203125 41.40625 
Q 21.203125 41.40625 18.296875 40 
Q 15.40625 38.59375 15.40625 35.703125 
Q 15.40625 34.203125 16.453125 32.75 
Q 17.5 31.296875 20.296875 29.84375 
Q 23.09375 28.40625 28.296875 26.90625 
Q 36.90625 24.296875 40.453125 21.25 
Q 44 18.203125 44 13.296875 
Q 44 9.5 41.953125 6.203125 
Q 39.90625 2.90625 35.703125 0.953125 
Q 31.5 -1 25.09375 -1 
z
" id="Inconsolata-Regular-115"/>
      <path id="Inconsolata-Regular-32"/>
      <path d="M 10 0 
L 10 5.796875 
L 21.703125 5.796875 
L 21.703125 39.90625 
L 10.59375 39.90625 
L 10.59375 45.703125 
L 28.90625 45.703125 
L 28.90625 5.796875 
L 39.59375 5.796875 
L 39.59375 0 
z
M 24.90625 55.296875 
Q 22.796875 55.296875 21.296875 56.796875 
Q 19.796875 58.296875 19.796875 60.40625 
Q 19.796875 62.59375 21.25 64.09375 
Q 22.703125 65.59375 24.90625 65.59375 
Q 27 65.59375 28.546875 64.046875 
Q 30.09375 62.5 30.09375 60.40625 
Q 30.09375 58.296875 28.546875 56.796875 
Q 27 55.296875 24.90625 55.296875 
z
" id="Inconsolata-Regular-105"/>
      <path d="M 7.203125 0 
L 7.203125 45.703125 
L 14.203125 45.703125 
L 14.203125 37.59375 
Q 16.796875 41.796875 20.9375 44.296875 
Q 25.09375 46.796875 29.703125 46.796875 
Q 35.296875 46.796875 39.1875 42.4375 
Q 43.09375 38.09375 43.09375 27.703125 
L 43.09375 0 
L 36.09375 0 
L 36.09375 27.5 
Q 36.09375 34.703125 33.640625 37.59375 
Q 31.203125 40.5 27.703125 40.5 
Q 24.703125 40.5 21.546875 38.75 
Q 18.40625 37 16.296875 33.84375 
Q 14.203125 30.703125 14.203125 26.296875 
L 14.203125 0 
z
" id="Inconsolata-Regular-110"/>
      <path d="M 28.5 -1.09375 
Q 21.90625 -1.09375 16.703125 2 
Q 11.5 5.09375 8.546875 10.5 
Q 5.59375 15.90625 5.59375 22.796875 
Q 5.59375 29.703125 8.546875 35.046875 
Q 11.5 40.40625 16.640625 43.5 
Q 21.796875 46.59375 28.40625 46.59375 
Q 34 46.59375 38.453125 44.34375 
Q 42.90625 42.09375 45.703125 38.09375 
L 41.203125 33.703125 
L 40.5 33 
L 40 33.5 
Q 40 34.296875 39.640625 35 
Q 39.296875 35.703125 38.09375 36.90625 
Q 35.90625 38.90625 33.40625 39.703125 
Q 30.90625 40.5 27.59375 40.5 
Q 23.796875 40.5 20.4375 38.390625 
Q 17.09375 36.296875 15.046875 32.4375 
Q 13 28.59375 13 23.296875 
Q 13 18.203125 15.046875 14.140625 
Q 17.09375 10.09375 20.6875 7.75 
Q 24.296875 5.40625 28.90625 5.40625 
Q 35.796875 5.40625 40.796875 11 
L 45 6.09375 
Q 38.296875 -1.09375 28.5 -1.09375 
z
" id="Inconsolata-Regular-99"/>
      <path d="M 27.203125 -1 
Q 17.203125 -1 11.046875 5.09375 
Q 4.90625 11.203125 4.90625 22.703125 
Q 4.90625 30.5 7.75 35.84375 
Q 10.59375 41.203125 15.34375 44 
Q 20.09375 46.796875 25.90625 46.796875 
Q 31.09375 46.796875 35.296875 44.5 
Q 39.5 42.203125 42 37.390625 
Q 44.5 32.59375 44.5 25.09375 
Q 44.5 24.296875 44.453125 23.4375 
Q 44.40625 22.59375 44.296875 21.796875 
L 11.796875 21.796875 
Q 12.203125 13 16.75 8.890625 
Q 21.296875 4.796875 27.40625 4.796875 
Q 34.59375 4.796875 39.203125 9.90625 
L 43.203125 6 
Q 37.40625 -1 27.203125 -1 
z
M 12.09375 27.40625 
L 37.203125 27.40625 
Q 37.203125 33.796875 33.953125 37.546875 
Q 30.703125 41.296875 25.40625 41.296875 
Q 20.703125 41.296875 16.890625 37.9375 
Q 13.09375 34.59375 12.09375 27.40625 
z
" id="Inconsolata-Regular-101"/>
     </defs>
     <g style="fill:#555555;" transform="translate(316.6625 208.300312)scale(0.12 -0.12)">
      <use xlink:href="#Inconsolata-Regular-100"/>
      <use x="49.999985" xlink:href="#Inconsolata-Regular-97"/>
      <use x="99.999969" xlink:href="#Inconsolata-Regular-121"/>
      <use x="149.999954" xlink:href="#Inconsolata-Regular-115"/>
      <use x="199.999939" xlink:href="#Inconsolata-Regular-32"/>
      <use x="249.999924" xlink:href="#Inconsolata-Regular-115"/>
      <use x="299.999908" xlink:href="#Inconsolata-Regular-105"/>
      <use x="349.999893" xlink:href="#Inconsolata-Regular-110"/>
      <use x="399.999878" xlink:href="#Inconsolata-Regular-99"/>
      <use x="449.999863" xlink:href="#Inconsolata-Regular-101"/>
      <use x="499.999847" xlink:href="#Inconsolata-Regular-32"/>
      <use x="549.999832" xlink:href="#Inconsolata-Regular-49"/>
      <use x="599.999817" xlink:href="#Inconsolata-Regular-48"/>
      <use x="649.999802" xlink:href="#Inconsolata-Regular-32"/>
      <use x="699.999786" xlink:href="#Inconsolata-Regular-99"/>
      <use x="749.999771" xlink:href="#Inconsolata-Regular-97"/>
      <use x="799.999756" xlink:href="#Inconsolata-Regular-115"/>
      <use x="849.999741" xlink:href="#Inconsolata-Regular-101"/>
      <use x="899.999725" xlink:href="#Inconsolata-Regular-115"/>
     </g>
    </g>
   </g>
   <g id="matplotlib.axis_2">
    <g id="ytick_1">
     <g id="line2d_17">
      <path clip-path="url(#pa870436f5c)" d="M 69.325 181 
L 678 181 
" style="fill:none;stroke:#ffffff;stroke-linecap:square;stroke-width:0.8;"/>
     </g>
     <g id="line2d_18">
      <defs>
       <path d="M 0 0 
L -3.5 0 
" id="m82d6ecc358" style="stroke:#555555;stroke-width:0.8;"/>
      </defs>
      <g>
       <use style="fill:#555555;stroke:#555555;stroke-width:0.8;" x="69.325" xlink:href="#m82d6ecc358" y="181"/>
      </g>
     </g>
     <g id="line2d_19">
      <defs>
       <path d="M 0 0 
L 3.5 0 
" id="m5e80c943eb" style="stroke:#555555;stroke-width:0.8;"/>
      </defs>
      <g>
       <use style="fill:#555555;stroke:#555555;stroke-width:0.8;" x="678" xlink:href="#m5e80c943eb" y="181"/>
      </g>
     </g>
     <g id="text_10">
      <!-- 1 -->
      <g style="fill:#555555;" transform="translate(57.325 184.325)scale(0.1 -0.1)">
       <use xlink:href="#Inconsolata-Regular-49"/>
      </g>
     </g>
     <g id="text_11">
      <!-- 1 -->
      <g style="fill:#555555;" transform="translate(685 184.325)scale(0.1 -0.1)">
       <use xlink:href="#Inconsolata-Regular-49"/>
      </g>
     </g>
    </g>
    <g id="ytick_2">
     <g id="line2d_20">
      <path clip-path="url(#pa870436f5c)" d="M 69.325 146.538576 
L 678 146.538576 
" style="fill:none;stroke:#ffffff;stroke-linecap:square;stroke-width:0.8;"/>
     </g>
     <g id="line2d_21">
      <g>
       <use style="fill:#555555;stroke:#555555;stroke-width:0.8;" x="69.325" xlink:href="#m82d6ecc358" y="146.538576"/>
      </g>
     </g>
     <g id="line2d_22">
      <g>
       <use style="fill:#555555;stroke:#555555;stroke-width:0.8;" x="678" xlink:href="#m5e80c943eb" y="146.538576"/>
      </g>
     </g>
     <g id="text_12">
      <!-- 10 -->
      <g style="fill:#555555;" transform="translate(52.325 149.863576)scale(0.1 -0.1)">
       <use xlink:href="#Inconsolata-Regular-49"/>
       <use x="49.999985" xlink:href="#Inconsolata-Regular-48"/>
      </g>
     </g>
     <g id="text_13">
      <!-- 10 -->
      <g style="fill:#555555;" transform="translate(685 149.863576)scale(0.1 -0.1)">
       <use xlink:href="#Inconsolata-Regular-49"/>
       <use x="49.999985" xlink:href="#Inconsolata-Regular-48"/>
      </g>
     </g>
    </g>
    <g id="ytick_3">
     <g id="line2d_23">
      <path clip-path="url(#pa870436f5c)" d="M 69.325 112.077153 
L 678 112.077153 
" style="fill:none;stroke:#ffffff;stroke-linecap:square;stroke-width:0.8;"/>
     </g>
     <g id="line2d_24">
      <g>
       <use style="fill:#555555;stroke:#555555;stroke-width:0.8;" x="69.325" xlink:href="#m82d6ecc358" y="112.077153"/>
      </g>
     </g>
     <g id="line2d_25">
      <g>
       <use style="fill:#555555;stroke:#555555;stroke-width:0.8;" x="678" xlink:href="#m5e80c943eb" y="112.077153"/>
      </g>
     </g>
     <g id="text_14">
      <!-- 100 -->
      <g style="fill:#555555;" transform="translate(47.325 115.402153)scale(0.1 -0.1)">
       <use xlink:href="#Inconsolata-Regular-49"/>
       <use x="49.999985" xlink:href="#Inconsolata-Regular-48"/>
       <use x="99.999969" xlink:href="#Inconsolata-Regular-48"/>
      </g>
     </g>
     <g id="text_15">
      <!-- 100 -->
      <g style="fill:#555555;" transform="translate(685 115.402153)scale(0.1 -0.1)">
       <use xlink:href="#Inconsolata-Regular-49"/>
       <use x="49.999985" xlink:href="#Inconsolata-Regular-48"/>
       <use x="99.999969" xlink:href="#Inconsolata-Regular-48"/>
      </g>
     </g>
    </g>
    <g id="ytick_4">
     <g id="line2d_26">
      <path clip-path="url(#pa870436f5c)" d="M 69.325 77.615729 
L 678 77.615729 
" style="fill:none;stroke:#ffffff;stroke-linecap:square;stroke-width:0.8;"/>
     </g>
     <g id="line2d_27">
      <g>
       <use style="fill:#555555;stroke:#555555;stroke-width:0.8;" x="69.325" xlink:href="#m82d6ecc358" y="77.615729"/>
      </g>
     </g>
     <g id="line2d_28">
      <g>
       <use style="fill:#555555;stroke:#555555;stroke-width:0.8;" x="678" xlink:href="#m5e80c943eb" y="77.615729"/>
      </g>
     </g>
     <g id="text_16">
      <!-- 1000 -->
      <g style="fill:#555555;" transform="translate(42.325 80.940729)scale(0.1 -0.1)">
       <use xlink:href="#Inconsolata-Regular-49"/>
       <use x="49.999985" xlink:href="#Inconsolata-Regular-48"/>
       <use x="99.999969" xlink:href="#Inconsolata-Regular-48"/>
       <use x="149.999954" xlink:href="#Inconsolata-Regular-48"/>
      </g>
     </g>
     <g id="text_17">
      <!-- 1000 -->
      <g style="fill:#555555;" transform="translate(685 80.940729)scale(0.1 -0.1)">
       <use xlink:href="#Inconsolata-Regular-49"/>
       <use x="49.999985" xlink:href="#Inconsolata-Regular-48"/>
       <use x="99.999969" xlink:href="#Inconsolata-Regular-48"/>
       <use x="149.999954" xlink:href="#Inconsolata-Regular-48"/>
      </g>
     </g>
    </g>
    <g id="ytick_5">
     <g id="line2d_29">
      <path clip-path="url(#pa870436f5c)" d="M 69.325 43.154306 
L 678 43.154306 
" style="fill:none;stroke:#ffffff;stroke-linecap:square;stroke-width:0.8;"/>
     </g>
     <g id="line2d_30">
      <g>
       <use style="fill:#555555;stroke:#555555;stroke-width:0.8;" x="69.325" xlink:href="#m82d6ecc358" y="43.154306"/>
      </g>
     </g>
     <g id="line2d_31">
      <g>
       <use style="fill:#555555;stroke:#555555;stroke-width:0.8;" x="678" xlink:href="#m5e80c943eb" y="43.154306"/>
      </g>
     </g>
     <g id="text_18">
      <!-- 10000 -->
      <g style="fill:#555555;" transform="translate(37.325 46.479306)scale(0.1 -0.1)">
       <use xlink:href="#Inconsolata-Regular-49"/>
       <use x="49.999985" xlink:href="#Inconsolata-Regular-48"/>
       <use x="99.999969" xlink:href="#Inconsolata-Regular-48"/>
       <use x="149.999954" xlink:href="#Inconsolata-Regular-48"/>
       <use x="199.999939" xlink:href="#Inconsolata-Regular-48"/>
      </g>
     </g>
     <g id="text_19">
      <!-- 10000 -->
      <g style="fill:#555555;" transform="translate(685 46.479306)scale(0.1 -0.1)">
       <use xlink:href="#Inconsolata-Regular-49"/>
       <use x="49.999985" xlink:href="#Inconsolata-Regular-48"/>
       <use x="99.999969" xlink:href="#Inconsolata-Regular-48"/>
       <use x="149.999954" xlink:href="#Inconsolata-Regular-48"/>
       <use x="199.999939" xlink:href="#Inconsolata-Regular-48"/>
      </g>
     </g>
    </g>
    <g id="ytick_6">
     <g id="line2d_32">
      <defs>
       <path d="M 0 0 
L -2 0 
" id="m271e944949" style="stroke:#555555;stroke-width:0.6;"/>
      </defs>
      <g>
       <use style="fill:#555555;stroke:#555555;stroke-width:0.6;" x="69.325" xlink:href="#m271e944949" y="170.626078"/>
      </g>
     </g>
     <g id="line2d_33">
      <defs>
       <path d="M 0 0 
L 2 0 
" id="mc8ee72e934" style="stroke:#555555;stroke-width:0.6;"/>
      </defs>
      <g>
       <use style="fill:#555555;stroke:#555555;stroke-width:0.6;" x="678" xlink:href="#mc8ee72e934" y="170.626078"/>
      </g>
     </g>
    </g>
    <g id="ytick_7">
     <g id="line2d_34">
      <g>
       <use style="fill:#555555;stroke:#555555;stroke-width:0.6;" x="69.325" xlink:href="#m271e944949" y="164.557722"/>
      </g>
     </g>
     <g id="line2d_35">
      <g>
       <use style="fill:#555555;stroke:#555555;stroke-width:0.6;" x="678" xlink:href="#mc8ee72e934" y="164.557722"/>
      </g>
     </g>
    </g>
    <g id="ytick_8">
     <g id="line2d_36">
      <g>
       <use style="fill:#555555;stroke:#555555;stroke-width:0.6;" x="69.325" xlink:href="#m271e944949" y="160.252156"/>
      </g>
     </g>
     <g id="line2d_37">
      <g>
       <use style="fill:#555555;stroke:#555555;stroke-width:0.6;" x="678" xlink:href="#mc8ee72e934" y="160.252156"/>
      </g>
     </g>
    </g>
    <g id="ytick_9">
     <g id="line2d_38">
      <g>
       <use style="fill:#555555;stroke:#555555;stroke-width:0.6;" x="69.325" xlink:href="#m271e944949" y="156.912499"/>
      </g>
     </g>
     <g id="line2d_39">
      <g>
       <use style="fill:#555555;stroke:#555555;stroke-width:0.6;" x="678" xlink:href="#mc8ee72e934" y="156.912499"/>
      </g>
     </g>
    </g>
    <g id="ytick_10">
     <g id="line2d_40">
      <g>
       <use style="fill:#555555;stroke:#555555;stroke-width:0.6;" x="69.325" xlink:href="#m271e944949" y="154.1838"/>
      </g>
     </g>
     <g id="line2d_41">
      <g>
       <use style="fill:#555555;stroke:#555555;stroke-width:0.6;" x="678" xlink:href="#mc8ee72e934" y="154.1838"/>
      </g>
     </g>
    </g>
    <g id="ytick_11">
     <g id="line2d_42">
      <g>
       <use style="fill:#555555;stroke:#555555;stroke-width:0.6;" x="69.325" xlink:href="#m271e944949" y="151.876718"/>
      </g>
     </g>
     <g id="line2d_43">
      <g>
       <use style="fill:#555555;stroke:#555555;stroke-width:0.6;" x="678" xlink:href="#mc8ee72e934" y="151.876718"/>
      </g>
     </g>
    </g>
    <g id="ytick_12">
     <g id="line2d_44">
      <g>
       <use style="fill:#555555;stroke:#555555;stroke-width:0.6;" x="69.325" xlink:href="#m271e944949" y="149.878233"/>
      </g>
     </g>
     <g id="line2d_45">
      <g>
       <use style="fill:#555555;stroke:#555555;stroke-width:0.6;" x="678" xlink:href="#mc8ee72e934" y="149.878233"/>
      </g>
     </g>
    </g>
    <g id="ytick_13">
     <g id="line2d_46">
      <g>
       <use style="fill:#555555;stroke:#555555;stroke-width:0.6;" x="69.325" xlink:href="#m271e944949" y="148.115445"/>
      </g>
     </g>
     <g id="line2d_47">
      <g>
       <use style="fill:#555555;stroke:#555555;stroke-width:0.6;" x="678" xlink:href="#mc8ee72e934" y="148.115445"/>
      </g>
     </g>
    </g>
    <g id="ytick_14">
     <g id="line2d_48">
      <g>
       <use style="fill:#555555;stroke:#555555;stroke-width:0.6;" x="69.325" xlink:href="#m271e944949" y="136.164654"/>
      </g>
     </g>
     <g id="line2d_49">
      <g>
       <use style="fill:#555555;stroke:#555555;stroke-width:0.6;" x="678" xlink:href="#mc8ee72e934" y="136.164654"/>
      </g>
     </g>
    </g>
    <g id="ytick_15">
     <g id="line2d_50">
      <g>
       <use style="fill:#555555;stroke:#555555;stroke-width:0.6;" x="69.325" xlink:href="#m271e944949" y="130.096299"/>
      </g>
     </g>
     <g id="line2d_51">
      <g>
       <use style="fill:#555555;stroke:#555555;stroke-width:0.6;" x="678" xlink:href="#mc8ee72e934" y="130.096299"/>
      </g>
     </g>
    </g>
    <g id="ytick_16">
     <g id="line2d_52">
      <g>
       <use style="fill:#555555;stroke:#555555;stroke-width:0.6;" x="69.325" xlink:href="#m271e944949" y="125.790732"/>
      </g>
     </g>
     <g id="line2d_53">
      <g>
       <use style="fill:#555555;stroke:#555555;stroke-width:0.6;" x="678" xlink:href="#mc8ee72e934" y="125.790732"/>
      </g>
     </g>
    </g>
    <g id="ytick_17">
     <g id="line2d_54">
      <g>
       <use style="fill:#555555;stroke:#555555;stroke-width:0.6;" x="69.325" xlink:href="#m271e944949" y="122.451075"/>
      </g>
     </g>
     <g id="line2d_55">
      <g>
       <use style="fill:#555555;stroke:#555555;stroke-width:0.6;" x="678" xlink:href="#mc8ee72e934" y="122.451075"/>
      </g>
     </g>
    </g>
    <g id="ytick_18">
     <g id="line2d_56">
      <g>
       <use style="fill:#555555;stroke:#555555;stroke-width:0.6;" x="69.325" xlink:href="#m271e944949" y="119.722377"/>
      </g>
     </g>
     <g id="line2d_57">
      <g>
       <use style="fill:#555555;stroke:#555555;stroke-width:0.6;" x="678" xlink:href="#mc8ee72e934" y="119.722377"/>
      </g>
     </g>
    </g>
    <g id="ytick_19">
     <g id="line2d_58">
      <g>
       <use style="fill:#555555;stroke:#555555;stroke-width:0.6;" x="69.325" xlink:href="#m271e944949" y="117.415295"/>
      </g>
     </g>
     <g id="line2d_59">
      <g>
       <use style="fill:#555555;stroke:#555555;stroke-width:0.6;" x="678" xlink:href="#mc8ee72e934" y="117.415295"/>
      </g>
     </g>
    </g>
    <g id="ytick_20">
     <g id="line2d_60">
      <g>
       <use style="fill:#555555;stroke:#555555;stroke-width:0.6;" x="69.325" xlink:href="#m271e944949" y="115.41681"/>
      </g>
     </g>
     <g id="line2d_61">
      <g>
       <use style="fill:#555555;stroke:#555555;stroke-width:0.6;" x="678" xlink:href="#mc8ee72e934" y="115.41681"/>
      </g>
     </g>
    </g>
    <g id="ytick_21">
     <g id="line2d_62">
      <g>
       <use style="fill:#555555;stroke:#555555;stroke-width:0.6;" x="69.325" xlink:href="#m271e944949" y="113.654021"/>
      </g>
     </g>
     <g id="line2d_63">
      <g>
       <use style="fill:#555555;stroke:#555555;stroke-width:0.6;" x="678" xlink:href="#mc8ee72e934" y="113.654021"/>
      </g>
     </g>
    </g>
    <g id="ytick_22">
     <g id="line2d_64">
      <g>
       <use style="fill:#555555;stroke:#555555;stroke-width:0.6;" x="69.325" xlink:href="#m271e944949" y="101.703231"/>
      </g>
     </g>
     <g id="line2d_65">
      <g>
       <use style="fill:#555555;stroke:#555555;stroke-width:0.6;" x="678" xlink:href="#mc8ee72e934" y="101.703231"/>
      </g>
     </g>
    </g>
    <g id="ytick_23">
     <g id="line2d_66">
      <g>
       <use style="fill:#555555;stroke:#555555;stroke-width:0.6;" x="69.325" xlink:href="#m271e944949" y="95.634875"/>
      </g>
     </g>
     <g id="line2d_67">
      <g>
       <use style="fill:#555555;stroke:#555555;stroke-width:0.6;" x="678" xlink:href="#mc8ee72e934" y="95.634875"/>
      </g>
     </g>
    </g>
    <g id="ytick_24">
     <g id="line2d_68">
      <g>
       <use style="fill:#555555;stroke:#555555;stroke-width:0.6;" x="69.325" xlink:href="#m271e944949" y="91.329308"/>
      </g>
     </g>
     <g id="line2d_69">
      <g>
       <use style="fill:#555555;stroke:#555555;stroke-width:0.6;" x="678" xlink:href="#mc8ee72e934" y="91.329308"/>
      </g>
     </g>
    </g>
    <g id="ytick_25">
     <g id="line2d_70">
      <g>
       <use style="fill:#555555;stroke:#555555;stroke-width:0.6;" x="69.325" xlink:href="#m271e944949" y="87.989651"/>
      </g>
     </g>
     <g id="line2d_71">
      <g>
       <use style="fill:#555555;stroke:#555555;stroke-width:0.6;" x="678" xlink:href="#mc8ee72e934" y="87.989651"/>
      </g>
     </g>
    </g>
    <g id="ytick_26">
     <g id="line2d_72">
      <g>
       <use style="fill:#555555;stroke:#555555;stroke-width:0.6;" x="69.325" xlink:href="#m271e944949" y="85.260953"/>
      </g>
     </g>
     <g id="line2d_73">
      <g>
       <use style="fill:#555555;stroke:#555555;stroke-width:0.6;" x="678" xlink:href="#mc8ee72e934" y="85.260953"/>
      </g>
     </g>
    </g>
    <g id="ytick_27">
     <g id="line2d_74">
      <g>
       <use style="fill:#555555;stroke:#555555;stroke-width:0.6;" x="69.325" xlink:href="#m271e944949" y="82.953871"/>
      </g>
     </g>
     <g id="line2d_75">
      <g>
       <use style="fill:#555555;stroke:#555555;stroke-width:0.6;" x="678" xlink:href="#mc8ee72e934" y="82.953871"/>
      </g>
     </g>
    </g>
    <g id="ytick_28">
     <g id="line2d_76">
      <g>
       <use style="fill:#555555;stroke:#555555;stroke-width:0.6;" x="69.325" xlink:href="#m271e944949" y="80.955386"/>
      </g>
     </g>
     <g id="line2d_77">
      <g>
       <use style="fill:#555555;stroke:#555555;stroke-width:0.6;" x="678" xlink:href="#mc8ee72e934" y="80.955386"/>
      </g>
     </g>
    </g>
    <g id="ytick_29">
     <g id="line2d_78">
      <g>
       <use style="fill:#555555;stroke:#555555;stroke-width:0.6;" x="69.325" xlink:href="#m271e944949" y="79.192598"/>
      </g>
     </g>
     <g id="line2d_79">
      <g>
       <use style="fill:#555555;stroke:#555555;stroke-width:0.6;" x="678" xlink:href="#mc8ee72e934" y="79.192598"/>
      </g>
     </g>
    </g>
    <g id="ytick_30">
     <g id="line2d_80">
      <g>
       <use style="fill:#555555;stroke:#555555;stroke-width:0.6;" x="69.325" xlink:href="#m271e944949" y="67.241807"/>
      </g>
     </g>
     <g id="line2d_81">
      <g>
       <use style="fill:#555555;stroke:#555555;stroke-width:0.6;" x="678" xlink:href="#mc8ee72e934" y="67.241807"/>
      </g>
     </g>
    </g>
    <g id="ytick_31">
     <g id="line2d_82">
      <g>
       <use style="fill:#555555;stroke:#555555;stroke-width:0.6;" x="69.325" xlink:href="#m271e944949" y="61.173452"/>
      </g>
     </g>
     <g id="line2d_83">
      <g>
       <use style="fill:#555555;stroke:#555555;stroke-width:0.6;" x="678" xlink:href="#mc8ee72e934" y="61.173452"/>
      </g>
     </g>
    </g>
    <g id="ytick_32">
     <g id="line2d_84">
      <g>
       <use style="fill:#555555;stroke:#555555;stroke-width:0.6;" x="69.325" xlink:href="#m271e944949" y="56.867885"/>
      </g>
     </g>
     <g id="line2d_85">
      <g>
       <use style="fill:#555555;stroke:#555555;stroke-width:0.6;" x="678" xlink:href="#mc8ee72e934" y="56.867885"/>
      </g>
     </g>
    </g>
    <g id="ytick_33">
     <g id="line2d_86">
      <g>
       <use style="fill:#555555;stroke:#555555;stroke-width:0.6;" x="69.325" xlink:href="#m271e944949" y="53.528228"/>
      </g>
     </g>
     <g id="line2d_87">
      <g>
       <use style="fill:#555555;stroke:#555555;stroke-width:0.6;" x="678" xlink:href="#mc8ee72e934" y="53.528228"/>
      </g>
     </g>
    </g>
    <g id="ytick_34">
     <g id="line2d_88">
      <g>
       <use style="fill:#555555;stroke:#555555;stroke-width:0.6;" x="69.325" xlink:href="#m271e944949" y="50.799529"/>
      </g>
     </g>
     <g id="line2d_89">
      <g>
       <use style="fill:#555555;stroke:#555555;stroke-width:0.6;" x="678" xlink:href="#mc8ee72e934" y="50.799529"/>
      </g>
     </g>
    </g>
    <g id="ytick_35">
     <g id="line2d_90">
      <g>
       <use style="fill:#555555;stroke:#555555;stroke-width:0.6;" x="69.325" xlink:href="#m271e944949" y="48.492448"/>
      </g>
     </g>
     <g id="line2d_91">
      <g>
       <use style="fill:#555555;stroke:#555555;stroke-width:0.6;" x="678" xlink:href="#mc8ee72e934" y="48.492448"/>
      </g>
     </g>
    </g>
    <g id="ytick_36">
     <g id="line2d_92">
      <g>
       <use style="fill:#555555;stroke:#555555;stroke-width:0.6;" x="69.325" xlink:href="#m271e944949" y="46.493963"/>
      </g>
     </g>
     <g id="line2d_93">
      <g>
       <use style="fill:#555555;stroke:#555555;stroke-width:0.6;" x="678" xlink:href="#mc8ee72e934" y="46.493963"/>
      </g>
     </g>
    </g>
    <g id="ytick_37">
     <g id="line2d_94">
      <g>
       <use style="fill:#555555;stroke:#555555;stroke-width:0.6;" x="69.325" xlink:href="#m271e944949" y="44.731174"/>
      </g>
     </g>
     <g id="line2d_95">
      <g>
       <use style="fill:#555555;stroke:#555555;stroke-width:0.6;" x="678" xlink:href="#mc8ee72e934" y="44.731174"/>
      </g>
     </g>
    </g>
    <g id="ytick_38">
     <g id="line2d_96">
      <g>
       <use style="fill:#555555;stroke:#555555;stroke-width:0.6;" x="69.325" xlink:href="#m271e944949" y="32.780383"/>
      </g>
     </g>
     <g id="line2d_97">
      <g>
       <use style="fill:#555555;stroke:#555555;stroke-width:0.6;" x="678" xlink:href="#mc8ee72e934" y="32.780383"/>
      </g>
     </g>
    </g>
    <g id="ytick_39">
     <g id="line2d_98">
      <g>
       <use style="fill:#555555;stroke:#555555;stroke-width:0.6;" x="69.325" xlink:href="#m271e944949" y="26.712028"/>
      </g>
     </g>
     <g id="line2d_99">
      <g>
       <use style="fill:#555555;stroke:#555555;stroke-width:0.6;" x="678" xlink:href="#mc8ee72e934" y="26.712028"/>
      </g>
     </g>
    </g>
    <g id="ytick_40">
     <g id="line2d_100">
      <g>
       <use style="fill:#555555;stroke:#555555;stroke-width:0.6;" x="69.325" xlink:href="#m271e944949" y="22.406461"/>
      </g>
     </g>
     <g id="line2d_101">
      <g>
       <use style="fill:#555555;stroke:#555555;stroke-width:0.6;" x="678" xlink:href="#mc8ee72e934" y="22.406461"/>
      </g>
     </g>
    </g>
    <g id="ytick_41">
     <g id="line2d_102">
      <g>
       <use style="fill:#555555;stroke:#555555;stroke-width:0.6;" x="69.325" xlink:href="#m271e944949" y="19.066804"/>
      </g>
     </g>
     <g id="line2d_103">
      <g>
       <use style="fill:#555555;stroke:#555555;stroke-width:0.6;" x="678" xlink:href="#mc8ee72e934" y="19.066804"/>
      </g>
     </g>
    </g>
    <g id="ytick_42">
     <g id="line2d_104">
      <g>
       <use style="fill:#555555;stroke:#555555;stroke-width:0.6;" x="69.325" xlink:href="#m271e944949" y="16.338106"/>
      </g>
     </g>
     <g id="line2d_105">
      <g>
       <use style="fill:#555555;stroke:#555555;stroke-width:0.6;" x="678" xlink:href="#mc8ee72e934" y="16.338106"/>
      </g>
     </g>
    </g>
    <g id="ytick_43">
     <g id="line2d_106">
      <g>
       <use style="fill:#555555;stroke:#555555;stroke-width:0.6;" x="69.325" xlink:href="#m271e944949" y="14.031024"/>
      </g>
     </g>
     <g id="line2d_107">
      <g>
       <use style="fill:#555555;stroke:#555555;stroke-width:0.6;" x="678" xlink:href="#mc8ee72e934" y="14.031024"/>
      </g>
     </g>
    </g>
    <g id="ytick_44">
     <g id="line2d_108">
      <g>
       <use style="fill:#555555;stroke:#555555;stroke-width:0.6;" x="69.325" xlink:href="#m271e944949" y="12.032539"/>
      </g>
     </g>
     <g id="line2d_109">
      <g>
       <use style="fill:#555555;stroke:#555555;stroke-width:0.6;" x="678" xlink:href="#mc8ee72e934" y="12.032539"/>
      </g>
     </g>
    </g>
    <g id="ytick_45">
     <g id="line2d_110">
      <g>
       <use style="fill:#555555;stroke:#555555;stroke-width:0.6;" x="69.325" xlink:href="#m271e944949" y="10.26975"/>
      </g>
     </g>
     <g id="line2d_111">
      <g>
       <use style="fill:#555555;stroke:#555555;stroke-width:0.6;" x="678" xlink:href="#mc8ee72e934" y="10.26975"/>
      </g>
     </g>
    </g>
    <g id="text_20">
     <!-- daily new cases -->
     <defs>
      <path d="M 7.90625 0 
L 7.90625 5.796875 
L 21.40625 5.796875 
L 21.40625 60.703125 
L 8.5 60.703125 
L 8.5 66.5 
L 28.703125 66.5 
L 28.703125 5.796875 
L 42.09375 5.796875 
L 42.09375 0 
z
" id="Inconsolata-Regular-108"/>
      <path d="M 10.796875 -0.09375 
L 1.59375 45.703125 
L 7.90625 45.703125 
L 15.296875 9 
L 23.09375 41.40625 
L 27.5 41.40625 
L 37.203125 9.09375 
Q 38.5 18 39.34375 23.703125 
Q 40.203125 29.40625 40.640625 33.046875 
Q 41.09375 36.703125 41.25 39.203125 
Q 41.40625 41.703125 41.40625 44.203125 
L 41.40625 45.703125 
L 48.09375 45.703125 
Q 45.09375 22.5 40.5 -0.09375 
L 33.703125 -0.09375 
L 25.296875 29.5 
L 17.296875 -0.09375 
z
" id="Inconsolata-Regular-119"/>
     </defs>
     <g style="fill:#555555;" transform="translate(18.5635 140.5)rotate(-90)scale(0.12 -0.12)">
      <use xlink:href="#Inconsolata-Regular-100"/>
      <use x="49.999985" xlink:href="#Inconsolata-Regular-97"/>
      <use x="99.999969" xlink:href="#Inconsolata-Regular-105"/>
      <use x="149.999954" xlink:href="#Inconsolata-Regular-108"/>
      <use x="199.999939" xlink:href="#Inconsolata-Regular-121"/>
      <use x="249.999924" xlink:href="#Inconsolata-Regular-32"/>
      <use x="299.999908" xlink:href="#Inconsolata-Regular-110"/>
      <use x="349.999893" xlink:href="#Inconsolata-Regular-101"/>
      <use x="399.999878" xlink:href="#Inconsolata-Regular-119"/>
      <use x="449.999863" xlink:href="#Inconsolata-Regular-32"/>
      <use x="499.999847" xlink:href="#Inconsolata-Regular-99"/>
      <use x="549.999832" xlink:href="#Inconsolata-Regular-97"/>
      <use x="599.999817" xlink:href="#Inconsolata-Regular-115"/>
      <use x="649.999802" xlink:href="#Inconsolata-Regular-101"/>
      <use x="699.999786" xlink:href="#Inconsolata-Regular-115"/>
     </g>
     <!-- (rolling 7-day mean) -->
     <defs>
      <path d="M 39.5 -10.40625 
Q 31.203125 -6.5 25.046875 0.046875 
Q 18.90625 6.59375 15.546875 14.84375 
Q 12.203125 23.09375 12.203125 32 
Q 12.203125 40.90625 15.5 48.953125 
Q 18.796875 57 24.796875 63.34375 
Q 30.796875 69.703125 38.90625 73.5 
L 40.796875 67.296875 
Q 34.40625 63.796875 29.546875 58.296875 
Q 24.703125 52.796875 22 46 
Q 19.296875 39.203125 19.296875 31.703125 
Q 19.296875 24.203125 22 17.296875 
Q 24.703125 10.40625 29.703125 4.796875 
Q 34.703125 -0.796875 41.40625 -4.40625 
z
" id="Inconsolata-Regular-40"/>
      <path d="M 11.90625 45.703125 
L 19.40625 45.703125 
L 19.203125 37.296875 
Q 21.09375 41.90625 25.09375 44.34375 
Q 29.09375 46.796875 33.703125 46.796875 
Q 41 46.796875 45.796875 41.796875 
L 42.59375 36.203125 
L 42.203125 35.296875 
L 41.5 35.703125 
Q 41.296875 36.5 40.890625 37.203125 
Q 40.5 37.90625 39.203125 38.90625 
Q 37.59375 39.90625 36.25 40.25 
Q 34.90625 40.59375 33.203125 40.59375 
Q 29.90625 40.59375 26.65625 38.890625 
Q 23.40625 37.203125 21.296875 33.59375 
Q 19.203125 30 19.203125 24.203125 
L 19.203125 -0.09375 
L 11.90625 -0.09375 
z
" id="Inconsolata-Regular-114"/>
      <path d="M 25 -0.796875 
Q 18.796875 -0.796875 14.046875 2.25 
Q 9.296875 5.296875 6.59375 10.640625 
Q 3.90625 16 3.90625 22.90625 
Q 3.90625 29.90625 6.59375 35.25 
Q 9.296875 40.59375 14.046875 43.640625 
Q 18.796875 46.703125 25 46.703125 
Q 31.203125 46.703125 35.953125 43.640625 
Q 40.703125 40.59375 43.390625 35.25 
Q 46.09375 29.90625 46.09375 22.90625 
Q 46.09375 16 43.390625 10.640625 
Q 40.703125 5.296875 35.953125 2.25 
Q 31.203125 -0.796875 25 -0.796875 
z
M 25 5.203125 
Q 29 5.203125 32 7.5 
Q 35 9.796875 36.75 13.796875 
Q 38.5 17.796875 38.5 23 
Q 38.5 30.796875 34.703125 35.75 
Q 30.90625 40.703125 25 40.703125 
Q 19.09375 40.703125 15.296875 35.75 
Q 11.5 30.796875 11.5 23 
Q 11.5 17.796875 13.25 13.796875 
Q 15 9.796875 18.046875 7.5 
Q 21.09375 5.203125 25 5.203125 
z
" id="Inconsolata-Regular-111"/>
      <path d="M 22.59375 15.5 
Q 18.703125 15.5 15.5 16.90625 
Q 13.703125 14.703125 13.703125 12.703125 
Q 13.703125 10.296875 16.703125 9.25 
Q 19.703125 8.203125 27.703125 8.203125 
Q 34.703125 8.203125 38.296875 6.703125 
Q 41.90625 5.203125 43.203125 2.59375 
Q 44.5 0 44.5 -3.40625 
Q 44.5 -6.90625 42.59375 -10.09375 
Q 40.703125 -13.296875 36.34375 -15.25 
Q 32 -17.203125 24.703125 -17.203125 
Q 15.09375 -17.203125 9.4375 -14.25 
Q 3.796875 -11.296875 3.796875 -5.40625 
Q 3.796875 -1.703125 5.890625 0.9375 
Q 8 3.59375 10.90625 4.90625 
Q 7.59375 7.09375 7.59375 11 
Q 7.59375 13.203125 8.6875 15.296875 
Q 9.796875 17.40625 11.703125 19.40625 
Q 6.59375 23.90625 6.59375 31.5 
Q 6.59375 35.90625 8.546875 39.5 
Q 10.5 43.09375 14.09375 45.25 
Q 17.703125 47.40625 22.59375 47.40625 
Q 26.296875 47.40625 29.25 46.15625 
Q 32.203125 44.90625 34.296875 42.703125 
Q 36.90625 45.09375 39.796875 46.140625 
Q 42.703125 47.203125 46.59375 46.90625 
L 47.5 41 
Q 44.5 41.296875 41.84375 40.890625 
Q 39.203125 40.5 36.90625 39 
Q 38.59375 35.59375 38.59375 31.5 
Q 38.59375 27.09375 36.640625 23.4375 
Q 34.703125 19.796875 31.140625 17.640625 
Q 27.59375 15.5 22.59375 15.5 
z
M 22.59375 21.5 
Q 27 21.5 29.796875 24.453125 
Q 32.59375 27.40625 32.59375 31.5 
Q 32.59375 35.59375 29.796875 38.546875 
Q 27 41.5 22.59375 41.5 
Q 18.296875 41.5 15.4375 38.546875 
Q 12.59375 35.59375 12.59375 31.5 
Q 12.59375 27.40625 15.4375 24.453125 
Q 18.296875 21.5 22.59375 21.5 
z
M 10.40625 -4.59375 
Q 10.40625 -8 14.25 -9.890625 
Q 18.09375 -11.796875 24.796875 -11.796875 
Q 31.59375 -11.796875 34.75 -9.75 
Q 37.90625 -7.703125 37.90625 -4.5 
Q 37.90625 -2.296875 37.09375 -0.890625 
Q 36.296875 0.5 33.796875 1.203125 
Q 31.296875 1.90625 26.203125 1.90625 
Q 22.703125 1.90625 19.84375 2.203125 
Q 17 2.5 14.703125 3.203125 
Q 12.40625 1.59375 11.40625 -0.046875 
Q 10.40625 -1.703125 10.40625 -4.59375 
z
" id="Inconsolata-Regular-103"/>
      <path d="M 15.5 0 
Q 19.90625 14.296875 24.59375 28.09375 
Q 29.296875 41.90625 34.5 55.703125 
L 7.90625 55.703125 
L 7.90625 62.296875 
L 43.203125 62.296875 
L 43.203125 58.40625 
Q 37.5 44 32.5 29.5 
Q 27.5 15 23.40625 0 
z
" id="Inconsolata-Regular-55"/>
      <path d="M 11.09375 28.09375 
L 11.09375 34.796875 
L 39.09375 34.796875 
L 39.09375 28.09375 
z
" id="Inconsolata-Regular-45"/>
      <path d="M 3.796875 0 
L 3.796875 45.703125 
L 10.40625 45.703125 
L 10.40625 41.203125 
Q 12 43.703125 14.5 45.25 
Q 17 46.796875 19.703125 46.796875 
Q 22.703125 46.796875 24.953125 44.890625 
Q 27.203125 43 27.796875 40.09375 
Q 29.09375 43.09375 31.890625 44.9375 
Q 34.703125 46.796875 38.09375 46.796875 
Q 42.796875 46.796875 44.9375 43.4375 
Q 47.09375 40.09375 46.90625 35.09375 
L 46.90625 0 
L 40.296875 0 
L 40.296875 32.40625 
Q 40.296875 36.59375 39.75 38.5 
Q 39.203125 40.40625 38.203125 40.953125 
Q 37.203125 41.5 36 41.5 
Q 34.09375 41.5 32.4375 39.75 
Q 30.796875 38 29.75 35.390625 
Q 28.703125 32.796875 28.703125 30.203125 
L 28.703125 0 
L 22 0 
L 22 31.796875 
Q 22 37.5 20.953125 39.390625 
Q 19.90625 41.296875 17 41.296875 
Q 14.796875 41.296875 12.59375 38.4375 
Q 10.40625 35.59375 10.40625 30.5 
L 10.40625 0 
z
" id="Inconsolata-Regular-109"/>
      <path d="M 13.25 -10.40625 
Q 21.546875 -6.5 27.6875 0.046875 
Q 33.84375 6.59375 37.1875 14.84375 
Q 40.546875 23.09375 40.546875 32 
Q 40.546875 40.90625 37.25 48.953125 
Q 33.953125 57 27.953125 63.34375 
Q 21.953125 69.703125 13.84375 73.5 
L 11.953125 67.296875 
Q 18.34375 63.796875 23.1875 58.296875 
Q 28.046875 52.796875 30.75 46 
Q 33.453125 39.203125 33.453125 31.703125 
Q 33.453125 24.203125 30.75 17.296875 
Q 28.046875 10.40625 23.046875 4.796875 
Q 18.046875 -0.796875 11.34375 -4.40625 
z
" id="Inconsolata-Regular-41"/>
     </defs>
     <g style="fill:#555555;" transform="translate(31.23625 155.5)rotate(-90)scale(0.12 -0.12)">
      <use xlink:href="#Inconsolata-Regular-40"/>
      <use x="49.999985" xlink:href="#Inconsolata-Regular-114"/>
      <use x="99.999969" xlink:href="#Inconsolata-Regular-111"/>
      <use x="149.999954" xlink:href="#Inconsolata-Regular-108"/>
      <use x="199.999939" xlink:href="#Inconsolata-Regular-108"/>
      <use x="249.999924" xlink:href="#Inconsolata-Regular-105"/>
      <use x="299.999908" xlink:href="#Inconsolata-Regular-110"/>
      <use x="349.999893" xlink:href="#Inconsolata-Regular-103"/>
      <use x="399.999878" xlink:href="#Inconsolata-Regular-32"/>
      <use x="449.999863" xlink:href="#Inconsolata-Regular-55"/>
      <use x="499.999847" xlink:href="#Inconsolata-Regular-45"/>
      <use x="549.999832" xlink:href="#Inconsolata-Regular-100"/>
      <use x="599.999817" xlink:href="#Inconsolata-Regular-97"/>
      <use x="649.999802" xlink:href="#Inconsolata-Regular-121"/>
      <use x="699.999786" xlink:href="#Inconsolata-Regular-32"/>
      <use x="749.999771" xlink:href="#Inconsolata-Regular-109"/>
      <use x="799.999756" xlink:href="#Inconsolata-Regular-101"/>
      <use x="849.999741" xlink:href="#Inconsolata-Regular-97"/>
      <use x="899.999725" xlink:href="#Inconsolata-Regular-110"/>
      <use x="949.99971" xlink:href="#Inconsolata-Regular-41"/>
     </g>
    </g>
   </g>
   <g id="line2d_112">
    <path clip-path="url(#pa870436f5c)" d="M -1 173.835478 
L 0.341833 172.933159 
L 4.399667 174.235407 
L 8.4575 172.933159 
L 12.515333 169.593502 
L 16.573167 166.055612 
L 20.631 171.735208 
L 24.688833 172.933159 
L 28.746667 175.661858 
L 32.8045 172.933159 
L 36.862333 172.933159 
L 40.920167 177.238726 
L 44.978 186.03578 
L 49.035833 189.375437 
L 57.1515 189.375437 
L 61.209333 193.681004 
L 69.325 193.681004 
L 73.382833 145.307768 
L 81.4985 120.266669 
L 89.614167 110.022649 
L 93.672 107.569837 
L 97.729833 103.640753 
L 101.787667 99.135752 
L 109.903333 91.779664 
L 113.961167 89.642733 
L 118.019 87.981102 
L 122.076833 85.228916 
L 126.134667 84.701396 
L 134.250333 85.06272 
L 142.366 87.659777 
L 146.423833 89.599815 
L 150.481667 94.098685 
L 154.5395 95.394503 
L 158.597333 98.100775 
L 162.655167 101.853648 
L 166.713 106.080236 
L 170.770833 109.206592 
L 174.828667 110.885781 
L 178.8865 109.948281 
L 182.944333 113.003205 
L 187.002167 112.16292 
L 191.06 112.665856 
L 195.117833 111.801755 
L 199.175667 110.097387 
L 203.2335 111.551962 
L 207.291333 111.718026 
L 211.349167 111.572619 
L 215.407 112.59929 
L 223.522667 112.533018 
L 227.5805 113.845288 
L 231.638333 112.077153 
L 235.696167 111.064546 
L 239.754 111.044577 
L 243.811833 111.346939 
L 247.869667 111.4491 
L 251.9275 112.555076 
L 255.985333 113.094464 
L 260.043167 113.821245 
L 264.101 115.823163 
L 268.158833 117.203002 
L 272.216667 118.789911 
L 276.2745 120.908455 
L 280.332333 123.606326 
L 284.390167 126.060404 
L 292.505833 128.540826 
L 296.563667 130.311646 
L 300.6215 131.594188 
L 304.679333 131.993316 
L 308.737167 132.997027 
L 312.795 135.232189 
L 316.852833 136.488849 
L 324.9685 140.758045 
L 329.026333 141.968111 
L 333.084167 143.989118 
L 337.142 145.506001 
L 341.199833 145.112126 
L 345.257667 144.919008 
L 349.3155 144.919008 
L 353.373333 146.326283 
L 357.431167 147.419207 
L 361.489 148.354912 
L 365.546833 147.647706 
L 369.604667 148.115445 
L 373.6625 150.987363 
L 377.720333 153.151225 
L 381.778167 153.151225 
L 385.836 152.185315 
L 389.893833 148.845658 
L 393.951667 144.354171 
L 398.0095 140.048604 
L 402.067333 137.045285 
L 406.125167 134.545086 
L 410.183 132.320464 
L 414.240833 131.128874 
L 418.298667 131.052709 
L 426.414333 134.545086 
L 430.472167 135.952361 
L 434.53 135.332973 
L 438.587833 137.159099 
L 442.645667 137.98099 
L 446.7035 137.505826 
L 450.761333 136.164654 
L 454.819167 136.058131 
L 458.877 135.434441 
L 462.934833 134.641333 
L 466.992667 129.264618 
L 471.0505 126.899862 
L 475.108333 126.00608 
L 479.166167 125.898019 
L 487.281833 123.980506 
L 491.339667 123.560205 
L 495.3975 125.525833 
L 499.455333 126.558408 
L 503.513167 125.898019 
L 507.571 124.364281 
L 511.628833 124.21921 
L 519.7445 124.171164 
L 523.802333 123.886081 
L 527.860167 123.106643 
L 531.918 123.241274 
L 535.975833 124.315768 
L 544.0915 124.609236 
L 548.149333 124.959051 
L 552.207167 124.267411 
L 556.265 124.609236 
L 560.322833 123.698998 
L 564.380667 123.062034 
L 568.4385 123.933219 
L 572.496333 123.377127 
L 576.554167 123.017557 
L 580.612 124.461783 
L 584.669833 124.959051 
L 588.727667 125.790732 
L 592.7855 125.060519 
L 596.843333 123.83909 
L 604.959 124.027943 
L 609.016833 122.84096 
L 613.074667 121.823022 
L 617.1325 121.338891 
L 621.190333 121.378642 
L 625.248167 121.220266 
L 637.421667 121.220266 
L 637.421667 121.220266 
" style="fill:none;stroke:#348abd;stroke-linecap:square;stroke-width:4;"/>
   </g>
   <g id="line2d_113">
    <defs>
     <path d="M 0 3 
C 0.795609 3 1.55874 2.683901 2.12132 2.12132 
C 2.683901 1.55874 3 0.795609 3 0 
C 3 -0.795609 2.683901 -1.55874 2.12132 -2.12132 
C 1.55874 -2.683901 0.795609 -3 0 -3 
C -0.795609 -3 -1.55874 -2.683901 -2.12132 -2.12132 
C -2.683901 -1.55874 -3 -0.795609 -3 0 
C -3 0.795609 -2.683901 1.55874 -2.12132 2.12132 
C -1.55874 2.683901 -0.795609 3 0 3 
z
" id="m486059e205" style="stroke:#348abd;"/>
    </defs>
    <g clip-path="url(#pa870436f5c)">
     <use style="fill:#348abd;stroke:#348abd;" x="637.421667" xlink:href="#m486059e205" y="121.220266"/>
    </g>
   </g>
   <g id="line2d_114">
    <path clip-path="url(#pa870436f5c)" d="M -1 189.375437 
L 4.399667 189.375437 
L 8.4575 193.681004 
L 12.515333 193.681004 
L 16.573167 199.749359 
L 20.631 199.749359 
L 20.65848 433 
M 53.067401 433 
L 53.093667 210.123282 
L 57.1515 174.235407 
L 61.209333 159.21958 
L 65.267167 158.253671 
L 69.325 148.115445 
L 73.382833 139.239412 
L 81.4985 132.486759 
L 85.556333 128.412908 
L 89.614167 119.16282 
L 93.672 113.845288 
L 97.729833 111.655536 
L 101.787667 108.150503 
L 105.8455 106.48672 
L 109.903333 103.268226 
L 113.961167 99.280531 
L 118.019 99.742208 
L 122.076833 90.27181 
L 130.1925 83.40344 
L 138.308167 75.996161 
L 142.366 71.663277 
L 146.423833 68.074893 
L 150.481667 65.082366 
L 158.597333 62.610026 
L 162.655167 60.624883 
L 166.713 59.344924 
L 170.770833 58.566403 
L 174.828667 56.541148 
L 178.8865 55.333464 
L 182.944333 53.323525 
L 187.002167 52.607017 
L 191.06 52.36492 
L 195.117833 51.977124 
L 199.175667 51.325726 
L 203.2335 51.212841 
L 207.291333 51.422371 
L 211.349167 52.141871 
L 215.407 52.286395 
L 219.464833 52.904686 
L 227.5805 53.34801 
L 231.638333 54.234365 
L 239.754 56.437956 
L 247.869667 57.580523 
L 251.9275 59.365752 
L 260.043167 62.26954 
L 264.101 62.49437 
L 268.158833 63.123958 
L 272.216667 64.048249 
L 276.2745 64.342153 
L 280.332333 64.395975 
L 284.390167 65.341863 
L 288.448 65.785259 
L 292.505833 67.673446 
L 296.563667 68.155355 
L 300.6215 68.835314 
L 304.679333 69.936762 
L 308.737167 70.029203 
L 312.795 71.000179 
L 316.852833 72.45827 
L 320.910667 73.725305 
L 329.026333 75.816875 
L 333.084167 76.796188 
L 337.142 77.41398 
L 341.199833 78.444295 
L 345.257667 78.907873 
L 349.3155 78.699553 
L 357.431167 79.3959 
L 361.489 78.900882 
L 369.604667 80.08331 
L 373.6625 82.508517 
L 377.720333 83.753733 
L 381.778167 84.469777 
L 385.836 84.261673 
L 389.893833 86.085 
L 393.951667 83.876675 
L 398.0095 84.649994 
L 402.067333 84.086044 
L 406.125167 84.305069 
L 410.183 85.140284 
L 414.240833 86.145364 
L 418.298667 85.808942 
L 422.3565 88.326961 
L 426.414333 90.044443 
L 430.472167 89.448208 
L 434.53 89.274804 
L 438.587833 89.316799 
L 442.645667 89.893142 
L 446.7035 90.326696 
L 450.761333 91.990462 
L 454.819167 92.455717 
L 462.934833 96.35013 
L 466.992667 94.529309 
L 471.0505 94.015307 
L 475.108333 92.935901 
L 479.166167 92.28382 
L 483.224 93.630155 
L 487.281833 94.809937 
L 491.339667 94.260346 
L 495.3975 97.801271 
L 499.455333 98.21042 
L 503.513167 99.959459 
L 507.571 98.397822 
L 511.628833 95.763712 
L 515.686667 89.680986 
L 519.7445 89.936911 
L 527.860167 86.94112 
L 531.918 85.672799 
L 535.975833 85.161508 
L 540.033667 85.024087 
L 544.0915 87.760504 
L 548.149333 87.00905 
L 552.207167 86.80618 
L 556.265 88.331335 
L 560.322833 88.988666 
L 564.380667 90.60928 
L 568.4385 90.18738 
L 572.496333 90.301723 
L 576.554167 91.63167 
L 580.612 91.653503 
L 584.669833 91.169807 
L 596.843333 91.169807 
L 596.843333 91.169807 
" style="fill:none;stroke:#348abd;stroke-linecap:square;stroke-opacity:0.4;stroke-width:2;"/>
   </g>
   <g id="line2d_115">
    <defs>
     <path d="M 0 3 
C 0.795609 3 1.55874 2.683901 2.12132 2.12132 
C 2.683901 1.55874 3 0.795609 3 0 
C 3 -0.795609 2.683901 -1.55874 2.12132 -2.12132 
C 1.55874 -2.683901 0.795609 -3 0 -3 
C -0.795609 -3 -1.55874 -2.683901 -2.12132 -2.12132 
C -2.683901 -1.55874 -3 -0.795609 -3 0 
C -3 0.795609 -2.683901 1.55874 -2.12132 2.12132 
C -1.55874 2.683901 -0.795609 3 0 3 
z
" id="m19bb7aa483" style="stroke:#348abd;stroke-opacity:0.4;"/>
    </defs>
    <g clip-path="url(#pa870436f5c)">
     <use style="fill:#348abd;fill-opacity:0.4;stroke:#348abd;stroke-opacity:0.4;" x="596.843333" xlink:href="#m19bb7aa483" y="91.169807"/>
    </g>
   </g>
   <g id="line2d_116">
    <path clip-path="url(#pa870436f5c)" d="M 28.71637 433 
L 28.746667 175.661858 
L 32.8045 172.933159 
L 36.862333 169.593502 
L 40.920167 162.559237 
L 44.978 156.080818 
L 49.035833 154.914014 
L 53.093667 153.151225 
L 57.1515 155.68169 
L 61.209333 151.876718 
L 65.267167 148.598274 
L 73.382833 145.307768 
L 77.440667 145.910523 
L 81.4985 136.164654 
L 85.556333 131.832386 
L 89.614167 129.332186 
L 93.672 125.473411 
L 97.729833 122.666423 
L 101.787667 119.026139 
L 105.8455 115.605069 
L 109.903333 114.610431 
L 113.961167 109.690868 
L 118.019 103.375427 
L 122.076833 102.754908 
L 126.134667 99.779765 
L 130.1925 97.975253 
L 134.250333 95.42961 
L 138.308167 93.938752 
L 142.366 92.617956 
L 146.423833 93.419706 
L 150.481667 91.990462 
L 154.5395 92.935901 
L 158.597333 93.037409 
L 162.655167 94.234363 
L 166.713 95.027338 
L 170.770833 97.054201 
L 174.828667 98.771025 
L 178.8865 101.323245 
L 182.944333 102.403541 
L 191.06 106.859224 
L 195.117833 108.567421 
L 199.175667 110.984831 
L 203.2335 113.701609 
L 207.291333 115.578029 
L 211.349167 116.52594 
L 219.464833 122.281 
L 227.5805 126.614779 
L 231.638333 125.009699 
L 235.696167 126.224571 
L 239.754 128.734778 
L 243.811833 129.954436 
L 247.869667 130.826512 
L 251.9275 134.641333 
L 255.985333 137.741522 
L 260.043167 140.613441 
L 264.101 141.502796 
L 272.216667 141.200434 
L 276.2745 140.613441 
L 280.332333 141.051514 
L 284.390167 140.470221 
L 288.448 140.048604 
L 292.505833 137.741522 
L 296.563667 137.159099 
L 300.6215 135.952361 
L 304.679333 135.434441 
L 308.737167 136.164654 
L 312.795 136.164654 
L 316.852833 137.741522 
L 320.910667 138.102176 
L 324.9685 140.470221 
L 329.026333 141.968111 
L 333.084167 140.328358 
L 337.142 138.850652 
L 341.199833 140.470221 
L 345.257667 140.328358 
L 349.3155 141.502796 
L 353.373333 142.448357 
L 357.431167 142.448357 
L 361.489 145.307768 
L 365.546833 147.879748 
L 369.604667 146.538576 
L 373.6625 148.845658 
L 377.720333 149.353042 
L 381.778167 147.194144 
L 385.836 146.753924 
L 389.893833 146.538576 
L 393.951667 143.632759 
L 398.0095 144.919008 
L 402.067333 143.113641 
L 406.125167 141.968111 
L 410.183 142.777303 
L 414.240833 142.777303 
L 418.298667 144.170532 
L 422.3565 146.972416 
L 426.414333 147.194144 
L 430.472167 148.115445 
L 434.53 152.82228 
L 438.587833 153.151225 
L 442.645667 153.151225 
L 446.7035 154.1838 
L 450.761333 154.1838 
L 454.819167 148.598274 
L 462.934833 144.540091 
L 466.992667 141.811393 
L 471.0505 140.328358 
L 475.108333 138.471736 
L 479.166167 138.850652 
L 483.224 136.058131 
L 487.281833 136.271941 
L 495.3975 135.032634 
L 503.513167 131.912635 
L 507.571 131.594188 
L 511.628833 129.063723 
L 515.686667 125.265541 
L 519.7445 122.797135 
L 523.802333 120.490053 
L 527.860167 118.924442 
L 531.918 118.007176 
L 535.975833 112.980477 
L 540.033667 110.905539 
L 544.0915 109.727371 
L 556.265 109.727371 
L 556.265 109.727371 
" style="fill:none;stroke:#988ed5;stroke-linecap:square;stroke-opacity:0.4;stroke-width:2;"/>
   </g>
   <g id="line2d_117">
    <defs>
     <path d="M 0 3 
C 0.795609 3 1.55874 2.683901 2.12132 2.12132 
C 2.683901 1.55874 3 0.795609 3 0 
C 3 -0.795609 2.683901 -1.55874 2.12132 -2.12132 
C 1.55874 -2.683901 0.795609 -3 0 -3 
C -0.795609 -3 -1.55874 -2.683901 -2.12132 -2.12132 
C -2.683901 -1.55874 -3 -0.795609 -3 0 
C -3 0.795609 -2.683901 1.55874 -2.12132 2.12132 
C -1.55874 2.683901 -0.795609 3 0 3 
z
" id="mece0c6b16f" style="stroke:#988ed5;stroke-opacity:0.4;"/>
    </defs>
    <g clip-path="url(#pa870436f5c)">
     <use style="fill:#988ed5;fill-opacity:0.4;stroke:#988ed5;stroke-opacity:0.4;" x="556.265" xlink:href="#mece0c6b16f" y="109.727371"/>
    </g>
   </g>
   <g id="line2d_118">
    <path clip-path="url(#pa870436f5c)" d="M 32.778234 433 
L 32.8045 210.123282 
L 36.862333 210.123282 
L 40.920167 186.03578 
L 44.978 186.03578 
L 49.035833 174.235407 
L 53.093667 168.627593 
L 61.209333 159.21958 
L 65.267167 152.185315 
L 69.325 148.115445 
L 73.382833 141.502796 
L 77.440667 140.048604 
L 81.4985 134.07292 
L 85.556333 129.674682 
L 89.614167 129.400061 
L 93.672 124.461783 
L 97.729833 122.154701 
L 101.787667 119.266155 
L 105.8455 116.670544 
L 109.903333 115.099489 
L 113.961167 112.889909 
L 118.019 110.078668 
L 122.076833 108.892233 
L 126.134667 107.287739 
L 130.1925 105.285373 
L 134.250333 103.665108 
L 138.308167 102.743444 
L 142.366 101.596708 
L 146.423833 100.640752 
L 154.5395 96.410055 
L 158.597333 96.447631 
L 162.655167 94.668965 
L 166.713 93.900621 
L 170.770833 92.805552 
L 174.828667 92.147709 
L 178.8865 92.27243 
L 182.944333 92.600489 
L 187.002167 91.713708 
L 191.06 92.600489 
L 195.117833 92.900239 
L 199.175667 93.926031 
L 203.2335 93.78051 
L 207.291333 93.996131 
L 211.349167 93.487469 
L 215.407 93.72395 
L 219.464833 92.363793 
L 223.522667 92.102612 
L 227.5805 92.130782 
L 231.638333 92.513458 
L 235.696167 92.478787 
L 239.754 92.947808 
L 243.811833 92.840989 
L 247.869667 94.079403 
L 251.9275 94.214905 
L 255.985333 93.875254 
L 260.043167 93.200057 
L 264.101 93.84993 
L 268.158833 94.85046 
L 272.216667 95.620628 
L 276.2745 95.806905 
L 280.332333 95.606395 
L 284.390167 94.85046 
L 288.448 95.634875 
L 292.505833 95.144129 
L 296.563667 94.529309 
L 308.737167 94.143775 
L 312.795 93.085417 
L 316.852833 93.242515 
L 320.910667 92.623783 
L 324.9685 92.153355 
L 329.026333 92.40394 
L 333.084167 92.829168 
L 337.142 92.676328 
L 341.199833 93.970602 
L 345.257667 92.817355 
L 349.3155 92.85874 
L 357.431167 92.018421 
L 361.489 91.345352 
L 365.546833 91.620766 
L 369.604667 91.297272 
L 377.720333 91.973711 
L 381.778167 92.811452 
L 385.836 92.209939 
L 389.893833 93.26683 
L 393.951667 92.82326 
L 398.0095 94.137325 
L 402.067333 94.843699 
L 406.125167 94.782983 
L 410.183 94.569078 
L 414.240833 93.543141 
L 418.298667 91.463537 
L 422.3565 90.321698 
L 426.414333 89.49542 
L 434.53 89.552273 
L 438.587833 89.485966 
L 442.645667 90.142874 
L 450.761333 92.278123 
L 454.819167 92.238312 
L 458.877 91.017222 
L 462.934833 91.254663 
L 466.992667 91.658966 
L 471.0505 92.421179 
L 475.108333 92.793758 
L 483.224 94.066562 
L 487.281833 95.493012 
L 495.3975 95.785293 
L 499.455333 95.677698 
L 503.513167 96.545772 
L 511.628833 97.40301 
L 515.686667 96.713336 
L 519.7445 96.164394 
L 527.860167 96.327719 
L 531.918 96.046721 
L 544.0915 96.046721 
L 544.0915 96.046721 
" style="fill:none;stroke:#777777;stroke-linecap:square;stroke-opacity:0.4;stroke-width:2;"/>
   </g>
   <g id="line2d_119">
    <defs>
     <path d="M 0 3 
C 0.795609 3 1.55874 2.683901 2.12132 2.12132 
C 2.683901 1.55874 3 0.795609 3 0 
C 3 -0.795609 2.683901 -1.55874 2.12132 -2.12132 
C 1.55874 -2.683901 0.795609 -3 0 -3 
C -0.795609 -3 -1.55874 -2.683901 -2.12132 -2.12132 
C -2.683901 -1.55874 -3 -0.795609 -3 0 
C -3 0.795609 -2.683901 1.55874 -2.12132 2.12132 
C -1.55874 2.683901 -0.795609 3 0 3 
z
" id="me2ab6c0ab1" style="stroke:#777777;stroke-opacity:0.4;"/>
    </defs>
    <g clip-path="url(#pa870436f5c)">
     <use style="fill:#777777;fill-opacity:0.4;stroke:#777777;stroke-opacity:0.4;" x="544.0915" xlink:href="#me2ab6c0ab1" y="96.046721"/>
    </g>
   </g>
   <g id="line2d_120">
    <path clip-path="url(#pa870436f5c)" d="M -1 186.737502 
L 0.341833 183.307082 
L 4.399667 164.557722 
L 12.515333 164.557722 
L 16.573167 159.21958 
L 20.631 160.796449 
L 24.688833 154.1838 
L 28.746667 155.29293 
L 32.8045 154.1838 
L 36.862333 151.876718 
L 40.920167 151.876718 
L 44.978 153.151225 
L 49.035833 153.151225 
L 53.093667 156.912499 
L 57.1515 156.912499 
L 65.267167 166.864804 
L 69.325 166.864804 
L 73.382833 146.326283 
L 77.440667 146.326283 
L 81.4985 145.112126 
L 85.556333 129.536742 
L 89.614167 127.073555 
L 97.729833 118.102808 
L 101.787667 115.741005 
L 105.8455 111.885954 
L 109.903333 108.266074 
L 113.961167 104.236509 
L 118.019 99.426724 
L 122.076833 98.058817 
L 126.134667 96.245834 
L 130.1925 94.809937 
L 134.250333 93.512187 
L 138.308167 92.085736 
L 142.366 91.774156 
L 146.423833 91.340003 
L 150.481667 89.946655 
L 154.5395 89.195801 
L 162.655167 88.239744 
L 166.713 87.764716 
L 170.770833 86.688117 
L 174.828667 86.013633 
L 178.8865 84.93317 
L 195.117833 80.174353 
L 207.291333 79.340615 
L 215.407 79.432065 
L 223.522667 79.739354 
L 231.638333 79.470738 
L 239.754 79.268811 
L 247.869667 78.671995 
L 260.043167 78.430743 
L 284.390167 78.498628 
L 296.563667 78.614744 
L 304.679333 78.607889 
L 316.852833 78.814928 
L 324.9685 79.055442 
L 333.084167 79.441724 
L 349.3155 79.692611 
L 361.489 79.897888 
L 365.546833 80.048054 
L 369.604667 80.340152 
L 377.720333 81.252295 
L 385.836 81.987007 
L 398.0095 83.135173 
L 402.067333 83.221989 
L 406.125167 83.593492 
L 414.240833 84.759865 
L 426.414333 87.057186 
L 430.472167 88.511788 
L 442.645667 91.506746 
L 446.7035 92.261048 
L 450.761333 93.15168 
L 454.819167 94.169601 
L 458.877 94.377833 
L 466.992667 95.785293 
L 479.166167 95.785293 
L 479.166167 95.785293 
" style="fill:none;stroke:#fbc15e;stroke-linecap:square;stroke-opacity:0.4;stroke-width:2;"/>
   </g>
   <g id="line2d_121">
    <defs>
     <path d="M 0 3 
C 0.795609 3 1.55874 2.683901 2.12132 2.12132 
C 2.683901 1.55874 3 0.795609 3 0 
C 3 -0.795609 2.683901 -1.55874 2.12132 -2.12132 
C 1.55874 -2.683901 0.795609 -3 0 -3 
C -0.795609 -3 -1.55874 -2.683901 -2.12132 -2.12132 
C -2.683901 -1.55874 -3 -0.795609 -3 0 
C -3 0.795609 -2.683901 1.55874 -2.12132 2.12132 
C -1.55874 2.683901 -0.795609 3 0 3 
z
" id="m2695d20319" style="stroke:#fbc15e;stroke-opacity:0.4;"/>
    </defs>
    <g clip-path="url(#pa870436f5c)">
     <use style="fill:#fbc15e;fill-opacity:0.4;stroke:#fbc15e;stroke-opacity:0.4;" x="479.166167" xlink:href="#m2695d20319" y="95.785293"/>
    </g>
   </g>
   <g id="line2d_122">
    <path clip-path="url(#pa870436f5c)" d="M 40.893901 433 
L 40.920167 210.123282 
L 44.978 210.123282 
L 49.035833 179.001515 
L 53.093667 179.001515 
L 57.1515 166.864804 
L 61.209333 160.796449 
L 65.267167 154.1838 
L 69.325 150.147906 
L 73.382833 142.944527 
L 77.440667 140.328358 
L 81.4985 130.384123 
L 85.556333 127.486855 
L 89.614167 124.267411 
L 93.672 123.241274 
L 97.729833 119.197186 
L 101.787667 115.363454 
L 105.8455 116.016637 
L 109.903333 107.905815 
L 113.961167 105.435516 
L 118.019 97.427091 
L 122.076833 97.727322 
L 126.134667 94.877536 
L 130.1925 93.786808 
L 134.250333 88.322588 
L 138.308167 85.422173 
L 142.366 82.018536 
L 146.423833 81.853034 
L 150.481667 78.507703 
L 158.597333 75.864348 
L 174.828667 76.875338 
L 178.8865 77.34663 
L 182.944333 78.208881 
L 191.06 77.581559 
L 195.117833 78.320521 
L 199.175667 78.889238 
L 203.2335 79.26165 
L 207.291333 80.598869 
L 211.349167 80.827649 
L 215.407 81.19244 
L 223.522667 82.817052 
L 231.638333 84.856668 
L 235.696167 85.875624 
L 239.754 87.226893 
L 243.811833 90.019936 
L 247.869667 91.979293 
L 251.9275 92.864661 
L 255.985333 94.292889 
L 260.043167 94.111554 
L 264.101 94.562443 
L 268.158833 95.443676 
L 280.332333 99.714103 
L 284.390167 100.770765 
L 288.448 102.572528 
L 292.505833 103.762928 
L 296.563667 103.997845 
L 300.6215 104.791123 
L 304.679333 105.44924 
L 308.737167 106.325711 
L 312.795 107.93821 
L 316.852833 109.277355 
L 320.910667 109.763964 
L 324.9685 111.144688 
L 329.026333 113.117366 
L 333.084167 115.961103 
L 337.142 117.053187 
L 341.199833 119.231631 
L 345.257667 120.45259 
L 349.3155 121.905255 
L 353.373333 121.578999 
L 361.489 123.017557 
L 365.546833 124.412952 
L 369.604667 123.74555 
L 373.6625 125.684209 
L 377.720333 127.308327 
L 381.778167 128.223056 
L 385.836 127.789217 
L 389.893833 128.669848 
L 393.951667 131.359723 
L 398.0095 134.835705 
L 402.067333 135.232189 
L 406.125167 135.232189 
L 410.183 135.847333 
L 414.240833 138.723278 
L 418.298667 140.90406 
L 422.3565 138.347533 
L 426.414333 138.471736 
L 430.472167 137.741522 
L 434.53 137.860777 
L 438.587833 139.371276 
L 442.645667 138.850652 
L 446.7035 138.850652 
L 450.761333 140.048604 
L 454.819167 139.63854 
L 458.877 140.758045 
L 462.934833 141.051514 
L 466.992667 139.239412 
L 471.0505 138.723278 
L 475.108333 137.159099 
L 479.166167 137.62321 
L 483.224 136.380002 
L 487.281833 134.933845 
L 495.3975 133.615196 
L 499.455333 132.739718 
L 503.513167 134.545086 
L 507.571 133.083789 
L 511.628833 135.232189 
L 515.686667 132.824997 
L 519.7445 132.486759 
L 523.802333 132.570605 
L 527.860167 131.673167 
L 531.918 128.86549 
L 535.975833 127.427109 
L 540.033667 124.171164 
L 544.0915 123.560205 
L 548.149333 122.797135 
L 552.207167 121.141702 
L 556.265 117.880609 
L 564.380667 114.014675 
L 568.4385 113.348334 
L 572.496333 113.163275 
L 584.669833 113.163275 
L 584.669833 113.163275 
" style="fill:none;stroke:#8eba42;stroke-linecap:square;stroke-opacity:0.4;stroke-width:2;"/>
   </g>
   <g id="line2d_123">
    <defs>
     <path d="M 0 3 
C 0.795609 3 1.55874 2.683901 2.12132 2.12132 
C 2.683901 1.55874 3 0.795609 3 0 
C 3 -0.795609 2.683901 -1.55874 2.12132 -2.12132 
C 1.55874 -2.683901 0.795609 -3 0 -3 
C -0.795609 -3 -1.55874 -2.683901 -2.12132 -2.12132 
C -2.683901 -1.55874 -3 -0.795609 -3 0 
C -3 0.795609 -2.683901 1.55874 -2.12132 2.12132 
C -1.55874 2.683901 -0.795609 3 0 3 
z
" id="m1e56aa0692" style="stroke:#8eba42;stroke-opacity:0.4;"/>
    </defs>
    <g clip-path="url(#pa870436f5c)">
     <use style="fill:#8eba42;fill-opacity:0.4;stroke:#8eba42;stroke-opacity:0.4;" x="584.669833" xlink:href="#m1e56aa0692" y="113.163275"/>
    </g>
   </g>
   <g id="line2d_124">
    <path clip-path="url(#pa870436f5c)" d="M -1 199.749359 
L 8.4575 199.749359 
L 12.515333 210.123282 
L 16.573167 210.123282 
L 16.599433 433 
M 24.661353 433 
L 24.688833 199.749359 
L 44.978 199.749359 
L 49.035833 193.681004 
L 53.093667 210.123282 
L 57.1515 177.238726 
L 61.209333 169.593502 
L 65.267167 155.68169 
L 73.382833 142.944527 
L 77.440667 134.354428 
L 81.4985 130.384123 
L 85.556333 124.123271 
L 89.614167 119.686785 
L 93.672 118.166904 
L 97.729833 113.465168 
L 101.787667 106.664365 
L 109.903333 96.859576 
L 113.961167 92.829168 
L 118.019 92.924004 
L 122.076833 86.598228 
L 126.134667 81.416763 
L 130.1925 75.980818 
L 134.250333 68.823427 
L 138.308167 64.055159 
L 142.366 59.841242 
L 146.423833 55.444836 
L 150.481667 51.721791 
L 154.5395 48.810089 
L 158.597333 46.192873 
L 162.655167 43.168423 
L 166.713 40.641497 
L 170.770833 38.389131 
L 174.828667 36.741582 
L 178.8865 35.230703 
L 182.944333 33.367753 
L 187.002167 31.933542 
L 199.175667 28.397778 
L 207.291333 27.108644 
L 219.464833 26.027224 
L 223.522667 25.921122 
L 227.5805 26.133946 
L 231.638333 26.08746 
L 239.754 26.649017 
L 251.9275 27.141979 
L 260.043167 27.453246 
L 264.101 27.300509 
L 272.216667 27.483606 
L 280.332333 27.006247 
L 284.390167 26.677005 
L 288.448 26.560073 
L 292.505833 26.906928 
L 300.6215 27.035931 
L 304.679333 27.363873 
L 308.737167 27.523204 
L 312.795 27.806199 
L 316.852833 27.968242 
L 324.9685 27.994618 
L 333.084167 28.309341 
L 337.142 28.873647 
L 341.199833 29.161467 
L 345.257667 29.658417 
L 349.3155 29.973849 
L 353.373333 30.172886 
L 357.431167 30.542306 
L 361.489 30.56672 
L 365.546833 30.740891 
L 373.6625 30.871309 
L 377.720333 30.601707 
L 381.778167 30.74145 
L 385.836 30.516645 
L 398.0095 31.127466 
L 402.067333 30.955293 
L 406.125167 31.220512 
L 410.183 31.372117 
L 414.240833 31.900846 
L 418.298667 32.178185 
L 422.3565 32.140956 
L 426.414333 31.896412 
L 434.53 32.132149 
L 442.645667 31.759287 
L 446.7035 31.90619 
L 450.761333 31.833762 
L 466.992667 32.511599 
L 479.166167 32.246731 
L 487.281833 31.747908 
L 491.339667 31.525471 
L 499.455333 30.541754 
L 507.571 29.561543 
L 515.686667 28.416135 
L 523.802333 26.729142 
L 527.860167 26.074683 
L 535.975833 24.406474 
L 540.033667 23.810202 
L 544.0915 23.088411 
L 552.207167 21.936956 
L 556.265 21.118554 
L 560.322833 20.419673 
L 564.380667 20.10248 
L 568.4385 19.984807 
L 572.496333 19.52968 
L 584.669833 19.52968 
L 584.669833 19.52968 
" style="fill:none;stroke:#ffb5b8;stroke-linecap:square;stroke-opacity:0.4;stroke-width:2;"/>
   </g>
   <g id="line2d_125">
    <defs>
     <path d="M 0 3 
C 0.795609 3 1.55874 2.683901 2.12132 2.12132 
C 2.683901 1.55874 3 0.795609 3 0 
C 3 -0.795609 2.683901 -1.55874 2.12132 -2.12132 
C 1.55874 -2.683901 0.795609 -3 0 -3 
C -0.795609 -3 -1.55874 -2.683901 -2.12132 -2.12132 
C -2.683901 -1.55874 -3 -0.795609 -3 0 
C -3 0.795609 -2.683901 1.55874 -2.12132 2.12132 
C -1.55874 2.683901 -0.795609 3 0 3 
z
" id="m85db4b7c55" style="stroke:#ffb5b8;stroke-opacity:0.4;"/>
    </defs>
    <g clip-path="url(#pa870436f5c)">
     <use style="fill:#ffb5b8;fill-opacity:0.4;stroke:#ffb5b8;stroke-opacity:0.4;" x="584.669833" xlink:href="#m85db4b7c55" y="19.52968"/>
    </g>
   </g>
   <g id="patch_3">
    <path d="M 69.325 181 
L 69.325 10 
" style="fill:none;stroke:#ffffff;stroke-linecap:square;stroke-linejoin:miter;"/>
   </g>
   <g id="patch_4">
    <path d="M 678 181 
L 678 10 
" style="fill:none;stroke:#ffffff;stroke-linecap:square;stroke-linejoin:miter;"/>
   </g>
   <g id="patch_5">
    <path d="M 69.325 181 
L 678 181 
" style="fill:none;stroke:#ffffff;stroke-linecap:square;stroke-linejoin:miter;"/>
   </g>
   <g id="patch_6">
    <path d="M 69.325 10 
L 678 10 
" style="fill:none;stroke:#ffffff;stroke-linecap:square;stroke-linejoin:miter;"/>
   </g>
   <g id="text_21">
    <!-- Korea, South -->
    <defs>
     <path d="M 16.59375 31.203125 
L 11.703125 25.796875 
L 11.703125 0 
L 4.203125 0 
L 4.203125 62.296875 
L 12.59375 62.296875 
L 12.59375 61.59375 
Q 12 61 11.84375 60.296875 
Q 11.703125 59.59375 11.703125 57.90625 
L 11.703125 33.59375 
L 37.703125 62.796875 
Q 38.796875 62.59375 40.09375 62.4375 
Q 41.40625 62.296875 42.90625 62.296875 
L 45.5 62.296875 
L 21.90625 35.40625 
L 47.09375 0 
L 38.09375 -0.40625 
z
" id="Inconsolata-Regular-75"/>
     <path d="M 19.90625 -16.796875 
L 16.5 -13.796875 
Q 19.296875 -11.203125 21.140625 -8.203125 
Q 23 -5.203125 23 -3.296875 
Q 23 -1.90625 21.75 -0.84375 
Q 20.5 0.203125 19.203125 1.390625 
Q 17.90625 2.59375 17.90625 4.40625 
Q 17.90625 6.90625 19.546875 8.59375 
Q 21.203125 10.296875 23.796875 10.296875 
Q 26.40625 10.296875 28.5 8 
Q 30.59375 5.703125 30.59375 2 
Q 30.59375 -5.796875 19.90625 -16.796875 
z
" id="Inconsolata-Regular-44"/>
     <path d="M 24.703125 -1 
Q 12.59375 -1 5.203125 6.90625 
L 8.796875 13.203125 
L 9.203125 14.09375 
L 9.90625 13.703125 
Q 10.09375 13 10.390625 12.140625 
Q 10.703125 11.296875 11.796875 10.09375 
Q 14.40625 7.90625 17.84375 6.59375 
Q 21.296875 5.296875 25.703125 5.296875 
Q 31.296875 5.296875 34.9375 8.4375 
Q 38.59375 11.59375 38.59375 16 
Q 38.59375 18.90625 37.4375 20.90625 
Q 36.296875 22.90625 33.25 24.796875 
Q 30.203125 26.703125 24.296875 29.203125 
Q 14.59375 33 10.890625 37.703125 
Q 7.203125 42.40625 7.203125 47.703125 
Q 7.203125 54.59375 12.296875 58.84375 
Q 17.40625 63.09375 26.203125 63.09375 
Q 31.296875 63.09375 35.796875 61.046875 
Q 40.296875 59 43.5 55.296875 
L 39 49.296875 
L 38.40625 49.703125 
Q 38.296875 50.5 38 51.296875 
Q 37.703125 52.09375 36.59375 53.296875 
Q 34.203125 55.59375 31.5 56.4375 
Q 28.796875 57.296875 25.09375 57.296875 
Q 20.203125 57.296875 17.296875 54.59375 
Q 14.40625 51.90625 14.40625 48.203125 
Q 14.40625 45.40625 15.65625 43.25 
Q 16.90625 41.09375 20.203125 39 
Q 23.5 36.90625 29.796875 34.40625 
Q 35.90625 31.90625 39.296875 29.34375 
Q 42.703125 26.796875 44.09375 23.84375 
Q 45.5 20.90625 45.5 17 
Q 45.5 12.703125 43.34375 8.546875 
Q 41.203125 4.40625 36.59375 1.703125 
Q 32 -1 24.703125 -1 
z
" id="Inconsolata-Regular-83"/>
     <path d="M 22.09375 -1.09375 
Q 15.296875 -1.09375 10.796875 4 
Q 6.296875 9.09375 6.40625 20.203125 
L 6.5 45.703125 
L 13.5 45.703125 
L 13.5 20.203125 
Q 13.5 11.5 16.546875 8.09375 
Q 19.59375 4.703125 23.90625 4.703125 
Q 27.09375 4.703125 29.890625 6.390625 
Q 32.703125 8.09375 34.453125 11.59375 
Q 36.203125 15.09375 36.203125 20.5 
L 36.203125 45.703125 
L 43.203125 45.703125 
L 43.203125 7.09375 
Q 43.203125 5.296875 43.34375 3.546875 
Q 43.5 1.796875 44.203125 0 
L 37.296875 0 
Q 36.59375 1.703125 36.4375 3.5 
Q 36.296875 5.296875 36.296875 7 
Q 34.09375 3.203125 30.34375 1.046875 
Q 26.59375 -1.09375 22.09375 -1.09375 
z
" id="Inconsolata-Regular-117"/>
     <path d="M 29.90625 -0.703125 
Q 24 -0.703125 20.953125 2 
Q 17.90625 4.703125 16.90625 10.34375 
Q 15.90625 16 16.203125 24.796875 
L 16.796875 39.796875 
L 7 39.796875 
L 7 45.703125 
L 17 45.703125 
L 17.40625 57.40625 
L 24.90625 58.296875 
L 25.90625 58.40625 
L 26 57.703125 
Q 25.5 57 25.140625 56.296875 
Q 24.796875 55.59375 24.59375 53.90625 
L 23.90625 45.703125 
L 39.90625 45.703125 
L 39.90625 39.796875 
L 24 39.796875 
L 23.296875 24.296875 
Q 23 16.703125 23.703125 12.546875 
Q 24.40625 8.40625 26.203125 6.84375 
Q 28 5.296875 31 5.296875 
Q 34.296875 5.296875 36.84375 6.59375 
Q 39.40625 7.90625 42.203125 9.90625 
L 44.40625 4.203125 
Q 41 1.703125 37.390625 0.5 
Q 33.796875 -0.703125 29.90625 -0.703125 
z
" id="Inconsolata-Regular-116"/>
     <path d="M 7.296875 66.5 
L 15.203125 66.5 
L 15.203125 65.796875 
Q 14.59375 65.203125 14.4375 64.5 
Q 14.296875 63.796875 14.296875 62.09375 
L 14.296875 37.59375 
Q 17 41.796875 21.046875 44.296875 
Q 25.09375 46.796875 29.296875 46.796875 
Q 35.5 46.796875 39.34375 42.4375 
Q 43.203125 38.09375 43.203125 27.703125 
L 43.203125 0 
L 36.203125 0 
L 36.203125 27.5 
Q 36.203125 34.703125 33.75 37.59375 
Q 31.296875 40.5 27.796875 40.5 
Q 24.796875 40.5 21.640625 38.796875 
Q 18.5 37.09375 16.390625 33.9375 
Q 14.296875 30.796875 14.296875 26.296875 
L 14.296875 0 
L 7.296875 0 
z
" id="Inconsolata-Regular-104"/>
    </defs>
    <g transform="translate(645.537333 121.220266)scale(0.1 -0.1)">
     <use xlink:href="#Inconsolata-Regular-75"/>
     <use x="49.999985" xlink:href="#Inconsolata-Regular-111"/>
     <use x="99.999969" xlink:href="#Inconsolata-Regular-114"/>
     <use x="149.999954" xlink:href="#Inconsolata-Regular-101"/>
     <use x="199.999939" xlink:href="#Inconsolata-Regular-97"/>
     <use x="249.999924" xlink:href="#Inconsolata-Regular-44"/>
     <use x="299.999908" xlink:href="#Inconsolata-Regular-32"/>
     <use x="349.999893" xlink:href="#Inconsolata-Regular-83"/>
     <use x="399.999878" xlink:href="#Inconsolata-Regular-111"/>
     <use x="449.999863" xlink:href="#Inconsolata-Regular-117"/>
     <use x="499.999847" xlink:href="#Inconsolata-Regular-116"/>
     <use x="549.999832" xlink:href="#Inconsolata-Regular-104"/>
    </g>
   </g>
   <g id="text_22">
    <!-- Germany -->
    <defs>
     <path d="M 27.703125 -1 
Q 20.296875 -1 14.84375 2.890625 
Q 9.40625 6.796875 6.5 13.890625 
Q 3.59375 21 3.59375 30.40625 
Q 3.5 40.5 5.84375 46.890625 
Q 8.203125 53.296875 11.953125 56.796875 
Q 15.703125 60.296875 19.84375 61.640625 
Q 24 63 27.40625 63 
Q 33 62.90625 38.09375 60.046875 
Q 43.203125 57.203125 45.796875 52.5 
L 40.90625 48.59375 
L 40.09375 47.90625 
L 39.703125 48.5 
Q 39.796875 49.296875 39.4375 49.9375 
Q 39.09375 50.59375 38 51.90625 
Q 35.703125 54.5 33.25 55.640625 
Q 30.796875 56.796875 27.296875 56.796875 
Q 22.796875 56.796875 18.9375 54.546875 
Q 15.09375 52.296875 12.796875 46.890625 
Q 10.5 41.5 10.5 31.90625 
Q 10.5 18.90625 15.140625 12.046875 
Q 19.796875 5.203125 27.703125 5.203125 
Q 30.40625 5.203125 33.75 6.09375 
Q 37.09375 7 39.5 9 
L 39.5 23.796875 
L 28.203125 23.796875 
L 28.203125 29.90625 
L 46 29.90625 
L 46 5.5 
Q 37.09375 -1 27.703125 -1 
z
" id="Inconsolata-Regular-71"/>
    </defs>
    <g transform="translate(604.959 91.169807)scale(0.1 -0.1)">
     <use xlink:href="#Inconsolata-Regular-71"/>
     <use x="49.999985" xlink:href="#Inconsolata-Regular-101"/>
     <use x="99.999969" xlink:href="#Inconsolata-Regular-114"/>
     <use x="149.999954" xlink:href="#Inconsolata-Regular-109"/>
     <use x="199.999939" xlink:href="#Inconsolata-Regular-97"/>
     <use x="249.999924" xlink:href="#Inconsolata-Regular-110"/>
     <use x="299.999908" xlink:href="#Inconsolata-Regular-121"/>
    </g>
   </g>
   <g id="text_23">
    <!-- Australia -->
    <defs>
     <path d="M 41.203125 0 
L 34.90625 18.203125 
L 14.796875 18.203125 
L 8.5 0 
L 1.59375 0 
L 24.59375 63.40625 
L 25.40625 63.40625 
L 48.40625 0 
z
M 24.90625 47.40625 
L 16.703125 23.59375 
L 33.09375 23.59375 
z
" id="Inconsolata-Regular-65"/>
    </defs>
    <g transform="translate(564.380667 109.727371)scale(0.1 -0.1)">
     <use xlink:href="#Inconsolata-Regular-65"/>
     <use x="49.999985" xlink:href="#Inconsolata-Regular-117"/>
     <use x="99.999969" xlink:href="#Inconsolata-Regular-115"/>
     <use x="149.999954" xlink:href="#Inconsolata-Regular-116"/>
     <use x="199.999939" xlink:href="#Inconsolata-Regular-114"/>
     <use x="249.999924" xlink:href="#Inconsolata-Regular-97"/>
     <use x="299.999908" xlink:href="#Inconsolata-Regular-108"/>
     <use x="349.999893" xlink:href="#Inconsolata-Regular-105"/>
     <use x="399.999878" xlink:href="#Inconsolata-Regular-97"/>
    </g>
   </g>
   <g id="text_24">
    <!-- Poland -->
    <defs>
     <path d="M 5.90625 0 
L 5.90625 62.296875 
L 25.90625 62.296875 
Q 32.90625 62.296875 37.203125 59.890625 
Q 41.5 57.5 43.546875 53.546875 
Q 45.59375 49.59375 45.59375 44.703125 
Q 45.59375 39.90625 43.59375 36 
Q 41.59375 32.09375 37.390625 29.796875 
Q 33.203125 27.5 26.40625 27.5 
L 13.09375 27.5 
L 13.09375 0 
z
M 13.09375 33.703125 
L 25.59375 33.703125 
Q 32.40625 33.703125 35.40625 36.640625 
Q 38.40625 39.59375 38.40625 44.5 
Q 38.40625 49.09375 35.40625 52.390625 
Q 32.40625 55.703125 25.703125 55.703125 
L 13.09375 55.703125 
z
" id="Inconsolata-Regular-80"/>
    </defs>
    <g transform="translate(552.207167 96.046721)scale(0.1 -0.1)">
     <use xlink:href="#Inconsolata-Regular-80"/>
     <use x="49.999985" xlink:href="#Inconsolata-Regular-111"/>
     <use x="99.999969" xlink:href="#Inconsolata-Regular-108"/>
     <use x="149.999954" xlink:href="#Inconsolata-Regular-97"/>
     <use x="199.999939" xlink:href="#Inconsolata-Regular-110"/>
     <use x="249.999924" xlink:href="#Inconsolata-Regular-100"/>
    </g>
   </g>
   <g id="text_25">
    <!-- Belarus -->
    <defs>
     <path d="M 4.796875 0 
L 4.796875 62.296875 
L 22.5 62.296875 
Q 33.296875 62.296875 38.25 58.09375 
Q 43.203125 53.90625 43.203125 47.203125 
Q 43.203125 42.796875 40.796875 38.890625 
Q 38.40625 35 34 33.40625 
Q 39.296875 31.59375 42.5 27.140625 
Q 45.703125 22.703125 45.703125 17.5 
Q 45.703125 9.59375 40.09375 4.796875 
Q 34.5 0 22.40625 0 
z
M 11.703125 36.5 
L 21.5 36.5 
Q 29.796875 36.5 33 39.296875 
Q 36.203125 42.09375 36.203125 46.40625 
Q 36.203125 50.5 33.09375 53.453125 
Q 30 56.40625 22.59375 56.40625 
L 11.703125 56.40625 
z
M 11.703125 6.09375 
L 23.59375 6.09375 
Q 30.09375 6.09375 34.1875 8.75 
Q 38.296875 11.40625 38.296875 17.90625 
Q 38.296875 23.5 34.640625 27.046875 
Q 31 30.59375 21.90625 30.59375 
L 11.703125 30.59375 
z
" id="Inconsolata-Regular-66"/>
    </defs>
    <g transform="translate(487.281833 95.785293)scale(0.1 -0.1)">
     <use xlink:href="#Inconsolata-Regular-66"/>
     <use x="49.999985" xlink:href="#Inconsolata-Regular-101"/>
     <use x="99.999969" xlink:href="#Inconsolata-Regular-108"/>
     <use x="149.999954" xlink:href="#Inconsolata-Regular-97"/>
     <use x="199.999939" xlink:href="#Inconsolata-Regular-114"/>
     <use x="249.999924" xlink:href="#Inconsolata-Regular-117"/>
     <use x="299.999908" xlink:href="#Inconsolata-Regular-115"/>
    </g>
   </g>
   <g id="text_26">
    <!-- Switzerland -->
    <defs>
     <path d="M 5 4.90625 
L 33.296875 39.40625 
L 7.09375 39.40625 
L 7.09375 45.703125 
L 42.59375 45.703125 
L 42.59375 40.796875 
L 14.796875 6.203125 
L 40.59375 6.203125 
Q 42.296875 6.203125 43 6.390625 
Q 43.703125 6.59375 44.296875 7.203125 
L 45 7.203125 
L 45 0 
L 5 0 
z
" id="Inconsolata-Regular-122"/>
    </defs>
    <g transform="translate(592.7855 113.163275)scale(0.1 -0.1)">
     <use xlink:href="#Inconsolata-Regular-83"/>
     <use x="49.999985" xlink:href="#Inconsolata-Regular-119"/>
     <use x="99.999969" xlink:href="#Inconsolata-Regular-105"/>
     <use x="149.999954" xlink:href="#Inconsolata-Regular-116"/>
     <use x="199.999939" xlink:href="#Inconsolata-Regular-122"/>
     <use x="249.999924" xlink:href="#Inconsolata-Regular-101"/>
     <use x="299.999908" xlink:href="#Inconsolata-Regular-114"/>
     <use x="349.999893" xlink:href="#Inconsolata-Regular-108"/>
     <use x="399.999878" xlink:href="#Inconsolata-Regular-97"/>
     <use x="449.999863" xlink:href="#Inconsolata-Regular-110"/>
     <use x="499.999847" xlink:href="#Inconsolata-Regular-100"/>
    </g>
   </g>
   <g id="text_27">
    <!-- US -->
    <defs>
     <path d="M 25.09375 -1.09375 
Q 15.09375 -1.09375 10.046875 4.84375 
Q 5 10.796875 5 21.5 
L 5 62.296875 
L 12.796875 62.296875 
L 12.796875 61.59375 
Q 12.203125 61 12.046875 60.296875 
Q 11.90625 59.59375 11.90625 57.90625 
L 11.90625 21.40625 
Q 11.90625 13.796875 14.84375 9.296875 
Q 17.796875 4.796875 25.203125 4.796875 
Q 32.703125 4.796875 35.703125 9.296875 
Q 38.703125 13.796875 38.703125 21.703125 
L 38.703125 62.296875 
L 45.40625 62.296875 
L 45.40625 21.796875 
Q 45.40625 10 39.84375 4.453125 
Q 34.296875 -1.09375 25.09375 -1.09375 
z
" id="Inconsolata-Regular-85"/>
    </defs>
    <g transform="translate(592.7855 19.52968)scale(0.1 -0.1)">
     <use xlink:href="#Inconsolata-Regular-85"/>
     <use x="49.999985" xlink:href="#Inconsolata-Regular-83"/>
    </g>
   </g>
  </g>
 </g>
 <defs>
  <clipPath id="pa870436f5c">
   <rect height="171" width="608.675" x="69.325" y="10"/>
  </clipPath>
 </defs>
</svg>
