<?xml version="1.0" encoding="utf-8" standalone="no"?>
<!DOCTYPE svg PUBLIC "-//W3C//DTD SVG 1.1//EN"
  "http://www.w3.org/Graphics/SVG/1.1/DTD/svg11.dtd">
<!-- Created with matplotlib (https://matplotlib.org/) -->
<svg height="180pt" version="1.1" viewBox="0 0 864 180" width="864pt" xmlns="http://www.w3.org/2000/svg" xmlns:xlink="http://www.w3.org/1999/xlink">
 <defs>
  <style type="text/css">
*{stroke-linecap:butt;stroke-linejoin:round;}
  </style>
 </defs>
 <g id="figure_1">
  <g id="patch_1">
   <path d="M 0 180 
L 864 180 
L 864 0 
L 0 0 
z
" style="fill:#ffffff;"/>
  </g>
  <g id="axes_1">
   <g id="patch_2">
    <path d="M 51.8 153.2 
L 826.2 153.2 
L 826.2 10.8 
L 51.8 10.8 
z
" style="fill:#e5e5e5;"/>
   </g>
   <g id="matplotlib.axis_1">
    <g id="xtick_1">
     <g id="line2d_1">
      <path clip-path="url(#peda3b3cf47)" d="M 126.203791 153.2 
L 126.203791 10.8 
" style="fill:none;stroke:#ffffff;stroke-linecap:square;stroke-width:0.8;"/>
     </g>
     <g id="line2d_2">
      <defs>
       <path d="M 0 0 
L 0 3.5 
" id="m1bd15c0ff2" style="stroke:#555555;stroke-width:0.8;"/>
      </defs>
      <g>
       <use style="fill:#555555;stroke:#555555;stroke-width:0.8;" x="126.203791" xlink:href="#m1bd15c0ff2" y="153.2"/>
      </g>
     </g>
     <g id="text_1">
      <!-- 2020-02 -->
      <defs>
       <path d="M 7.296875 5.59375 
Q 14 12.5 19.390625 17.84375 
Q 24.796875 23.203125 28.59375 27.640625 
Q 32.40625 32.09375 34.40625 36.296875 
Q 36.40625 40.5 36.40625 45.09375 
Q 36.40625 51.59375 33.296875 54.09375 
Q 30.203125 56.59375 25.796875 56.59375 
Q 22.203125 56.59375 19.046875 55.046875 
Q 15.90625 53.5 13.296875 50.296875 
Q 12.40625 48.90625 12.203125 48.15625 
Q 12 47.40625 12.09375 46.59375 
L 11.703125 46.09375 
L 10.90625 46.59375 
L 5.796875 50.59375 
Q 8.796875 56.40625 14.046875 59.546875 
Q 19.296875 62.703125 25.703125 62.703125 
Q 33.59375 62.703125 38.59375 57.953125 
Q 43.59375 53.203125 43.59375 44.90625 
Q 43.59375 39.703125 41.296875 35 
Q 39 30.296875 35.140625 25.6875 
Q 31.296875 21.09375 26.390625 16.296875 
Q 21.5 11.5 16.296875 6.09375 
L 39.5 6.09375 
Q 41.203125 6.09375 41.890625 6.296875 
Q 42.59375 6.5 43.203125 7.09375 
L 43.90625 7.09375 
L 43.90625 0 
L 7.296875 0 
z
" id="Inconsolata-Regular-50"/>
       <path d="M 25 -1.09375 
Q 15.703125 -1.09375 10.703125 7.203125 
Q 5.703125 15.5 5.703125 30.796875 
Q 5.703125 45.59375 10.703125 54.140625 
Q 15.703125 62.703125 25 62.703125 
Q 34.296875 62.703125 39.296875 54.140625 
Q 44.296875 45.59375 44.296875 30.796875 
Q 44.296875 15.5 39.296875 7.203125 
Q 34.296875 -1.09375 25 -1.09375 
z
M 12.90625 30.796875 
Q 12.90625 24.40625 13.796875 19.40625 
L 35 46.703125 
Q 33.5 51.40625 30.953125 54 
Q 28.40625 56.59375 25 56.59375 
Q 19.296875 56.59375 16.09375 49.59375 
Q 12.90625 42.59375 12.90625 30.796875 
z
M 25 5 
Q 30.703125 5 33.890625 11.703125 
Q 37.09375 18.40625 37.09375 30.796875 
Q 37.09375 36.296875 36.40625 40.796875 
L 15.203125 13.90625 
Q 18.296875 5 25 5 
z
" id="Inconsolata-Regular-48"/>
       <path d="M 11.09375 28.09375 
L 11.09375 34.796875 
L 39.09375 34.796875 
L 39.09375 28.09375 
z
" id="Inconsolata-Regular-45"/>
      </defs>
      <g style="fill:#555555;" transform="translate(108.703791 166.85)scale(0.1 -0.1)">
       <use xlink:href="#Inconsolata-Regular-50"/>
       <use x="49.999985" xlink:href="#Inconsolata-Regular-48"/>
       <use x="99.999969" xlink:href="#Inconsolata-Regular-50"/>
       <use x="149.999954" xlink:href="#Inconsolata-Regular-48"/>
       <use x="199.999939" xlink:href="#Inconsolata-Regular-45"/>
       <use x="249.999924" xlink:href="#Inconsolata-Regular-48"/>
       <use x="299.999908" xlink:href="#Inconsolata-Regular-50"/>
      </g>
     </g>
    </g>
    <g id="xtick_2">
     <g id="line2d_3">
      <path clip-path="url(#peda3b3cf47)" d="M 247.151659 153.2 
L 247.151659 10.8 
" style="fill:none;stroke:#ffffff;stroke-linecap:square;stroke-width:0.8;"/>
     </g>
     <g id="line2d_4">
      <g>
       <use style="fill:#555555;stroke:#555555;stroke-width:0.8;" x="247.151659" xlink:href="#m1bd15c0ff2" y="153.2"/>
      </g>
     </g>
     <g id="text_2">
      <!-- 2020-03 -->
      <defs>
       <path d="M 24 -1.09375 
Q 19.09375 -1.09375 14.59375 0.703125 
Q 10.09375 2.5 6.90625 6 
L 11.5 11.5 
L 12.203125 12.296875 
L 12.703125 11.796875 
Q 12.796875 11 13.09375 10.25 
Q 13.40625 9.5 14.5 8.296875 
Q 16.203125 6.796875 18.390625 5.84375 
Q 20.59375 4.90625 23.703125 4.90625 
Q 29.703125 4.90625 32.59375 8.40625 
Q 35.5 11.90625 35.5 17.40625 
Q 35.5 24.5 30.75 27.453125 
Q 26 30.40625 18 29.59375 
L 18 35.203125 
Q 24.5 35.203125 27.796875 36.890625 
Q 31.09375 38.59375 32.25 41.4375 
Q 33.40625 44.296875 33.40625 47.5 
Q 33.40625 51.796875 30.953125 54.25 
Q 28.5 56.703125 24.5 56.703125 
Q 21.5 56.703125 18.640625 55.703125 
Q 15.796875 54.703125 13.09375 52.09375 
L 8.90625 56.296875 
Q 12.296875 59.796875 16.34375 61.25 
Q 20.40625 62.703125 24.40625 62.703125 
Q 32 62.703125 36.296875 58.390625 
Q 40.59375 54.09375 40.59375 47.203125 
Q 40.59375 42.296875 38.1875 38.4375 
Q 35.796875 34.59375 30.796875 33 
Q 36.09375 31.296875 39.390625 27.390625 
Q 42.703125 23.5 42.703125 17.09375 
Q 42.703125 12.203125 40.546875 8.046875 
Q 38.40625 3.90625 34.25 1.40625 
Q 30.09375 -1.09375 24 -1.09375 
z
" id="Inconsolata-Regular-51"/>
      </defs>
      <g style="fill:#555555;" transform="translate(229.651659 166.85)scale(0.1 -0.1)">
       <use xlink:href="#Inconsolata-Regular-50"/>
       <use x="49.999985" xlink:href="#Inconsolata-Regular-48"/>
       <use x="99.999969" xlink:href="#Inconsolata-Regular-50"/>
       <use x="149.999954" xlink:href="#Inconsolata-Regular-48"/>
       <use x="199.999939" xlink:href="#Inconsolata-Regular-45"/>
       <use x="249.999924" xlink:href="#Inconsolata-Regular-48"/>
       <use x="299.999908" xlink:href="#Inconsolata-Regular-51"/>
      </g>
     </g>
    </g>
    <g id="xtick_3">
     <g id="line2d_5">
      <path clip-path="url(#peda3b3cf47)" d="M 376.440758 153.2 
L 376.440758 10.8 
" style="fill:none;stroke:#ffffff;stroke-linecap:square;stroke-width:0.8;"/>
     </g>
     <g id="line2d_6">
      <g>
       <use style="fill:#555555;stroke:#555555;stroke-width:0.8;" x="376.440758" xlink:href="#m1bd15c0ff2" y="153.2"/>
      </g>
     </g>
     <g id="text_3">
      <!-- 2020-04 -->
      <defs>
       <path d="M 31.796875 0 
L 31.796875 15.296875 
L 4.796875 15.296875 
L 4.796875 20.40625 
L 33.296875 62.40625 
L 39.203125 62.40625 
L 39.203125 21.09375 
L 47.203125 21.09375 
L 47.203125 15.203125 
L 39.203125 15.203125 
L 39.203125 0 
z
M 12.90625 21.203125 
L 31.796875 21.203125 
L 31.796875 49.796875 
z
" id="Inconsolata-Regular-52"/>
      </defs>
      <g style="fill:#555555;" transform="translate(358.940758 166.85)scale(0.1 -0.1)">
       <use xlink:href="#Inconsolata-Regular-50"/>
       <use x="49.999985" xlink:href="#Inconsolata-Regular-48"/>
       <use x="99.999969" xlink:href="#Inconsolata-Regular-50"/>
       <use x="149.999954" xlink:href="#Inconsolata-Regular-48"/>
       <use x="199.999939" xlink:href="#Inconsolata-Regular-45"/>
       <use x="249.999924" xlink:href="#Inconsolata-Regular-48"/>
       <use x="299.999908" xlink:href="#Inconsolata-Regular-52"/>
      </g>
     </g>
    </g>
    <g id="xtick_4">
     <g id="line2d_7">
      <path clip-path="url(#peda3b3cf47)" d="M 501.559242 153.2 
L 501.559242 10.8 
" style="fill:none;stroke:#ffffff;stroke-linecap:square;stroke-width:0.8;"/>
     </g>
     <g id="line2d_8">
      <g>
       <use style="fill:#555555;stroke:#555555;stroke-width:0.8;" x="501.559242" xlink:href="#m1bd15c0ff2" y="153.2"/>
      </g>
     </g>
     <g id="text_4">
      <!-- 2020-05 -->
      <defs>
       <path d="M 24.90625 -1.09375 
Q 19.203125 -1.09375 14.34375 1.40625 
Q 9.5 3.90625 6.40625 8.5 
L 12.796875 13.296875 
L 13.203125 12.796875 
Q 13.09375 12 13.4375 11.296875 
Q 13.796875 10.59375 14.796875 9.296875 
Q 16.796875 7.09375 19.25 6.046875 
Q 21.703125 5 25.296875 5 
Q 28.5 5 31.25 6.796875 
Q 34 8.59375 35.703125 11.9375 
Q 37.40625 15.296875 37.40625 19.90625 
Q 37.40625 26.90625 33.65625 30.796875 
Q 29.90625 34.703125 24.59375 34.703125 
Q 21.40625 34.703125 18.296875 33.140625 
Q 15.203125 31.59375 12.90625 28.796875 
L 8.5 30.59375 
L 10.59375 62.296875 
L 42.203125 62.296875 
L 42.203125 56 
L 16.5 56 
L 15.5 38.09375 
Q 20.5 40.5 25.703125 40.5 
Q 31.09375 40.5 35.34375 37.953125 
Q 39.59375 35.40625 42.046875 30.703125 
Q 44.5 26 44.5 19.59375 
Q 44.5 13.203125 41.890625 8.546875 
Q 39.296875 3.90625 34.890625 1.40625 
Q 30.5 -1.09375 24.90625 -1.09375 
z
" id="Inconsolata-Regular-53"/>
      </defs>
      <g style="fill:#555555;" transform="translate(484.059242 166.85)scale(0.1 -0.1)">
       <use xlink:href="#Inconsolata-Regular-50"/>
       <use x="49.999985" xlink:href="#Inconsolata-Regular-48"/>
       <use x="99.999969" xlink:href="#Inconsolata-Regular-50"/>
       <use x="149.999954" xlink:href="#Inconsolata-Regular-48"/>
       <use x="199.999939" xlink:href="#Inconsolata-Regular-45"/>
       <use x="249.999924" xlink:href="#Inconsolata-Regular-48"/>
       <use x="299.999908" xlink:href="#Inconsolata-Regular-53"/>
      </g>
     </g>
    </g>
    <g id="xtick_5">
     <g id="line2d_9">
      <path clip-path="url(#peda3b3cf47)" d="M 630.848341 153.2 
L 630.848341 10.8 
" style="fill:none;stroke:#ffffff;stroke-linecap:square;stroke-width:0.8;"/>
     </g>
     <g id="line2d_10">
      <g>
       <use style="fill:#555555;stroke:#555555;stroke-width:0.8;" x="630.848341" xlink:href="#m1bd15c0ff2" y="153.2"/>
      </g>
     </g>
     <g id="text_5">
      <!-- 2020-06 -->
      <defs>
       <path d="M 26.09375 -1 
Q 16.796875 -1 11.75 6.890625 
Q 6.703125 14.796875 6.703125 28.40625 
Q 6.703125 45.203125 12.703125 54.09375 
Q 18.703125 63 28.703125 63 
Q 36.59375 63 42.40625 57.296875 
L 38 52.296875 
L 37.296875 51.5 
L 36.796875 52 
Q 36.703125 52.796875 36.34375 53.5 
Q 36 54.203125 34.703125 55.296875 
Q 32.5 56.796875 28.90625 56.796875 
Q 26.90625 56.796875 24.296875 55.84375 
Q 21.703125 54.90625 19.296875 52.296875 
Q 16.90625 49.703125 15.296875 44.953125 
Q 13.703125 40.203125 13.59375 32.703125 
Q 15.703125 36.203125 19.25 38.203125 
Q 22.796875 40.203125 26.796875 40.203125 
Q 31.5 40.203125 35.34375 37.640625 
Q 39.203125 35.09375 41.546875 30.546875 
Q 43.90625 26 43.90625 19.796875 
Q 43.90625 13.59375 41.5 8.890625 
Q 39.09375 4.203125 35.09375 1.59375 
Q 31.09375 -1 26.09375 -1 
z
M 26.40625 5.203125 
Q 30.703125 5.203125 33.890625 8.890625 
Q 37.09375 12.59375 37.09375 19.703125 
Q 37.09375 24.703125 35.4375 27.890625 
Q 33.796875 31.09375 31.296875 32.59375 
Q 28.796875 34.09375 26.203125 34.09375 
Q 22.59375 34.09375 19.296875 31.640625 
Q 16 29.203125 14 25.703125 
Q 13.59375 22.296875 14.25 18.6875 
Q 14.90625 15.09375 16.546875 12.046875 
Q 18.203125 9 20.703125 7.09375 
Q 23.203125 5.203125 26.40625 5.203125 
z
" id="Inconsolata-Regular-54"/>
      </defs>
      <g style="fill:#555555;" transform="translate(613.348341 166.85)scale(0.1 -0.1)">
       <use xlink:href="#Inconsolata-Regular-50"/>
       <use x="49.999985" xlink:href="#Inconsolata-Regular-48"/>
       <use x="99.999969" xlink:href="#Inconsolata-Regular-50"/>
       <use x="149.999954" xlink:href="#Inconsolata-Regular-48"/>
       <use x="199.999939" xlink:href="#Inconsolata-Regular-45"/>
       <use x="249.999924" xlink:href="#Inconsolata-Regular-48"/>
       <use x="299.999908" xlink:href="#Inconsolata-Regular-54"/>
      </g>
     </g>
    </g>
    <g id="xtick_6">
     <g id="line2d_11">
      <path clip-path="url(#peda3b3cf47)" d="M 755.966825 153.2 
L 755.966825 10.8 
" style="fill:none;stroke:#ffffff;stroke-linecap:square;stroke-width:0.8;"/>
     </g>
     <g id="line2d_12">
      <g>
       <use style="fill:#555555;stroke:#555555;stroke-width:0.8;" x="755.966825" xlink:href="#m1bd15c0ff2" y="153.2"/>
      </g>
     </g>
     <g id="text_6">
      <!-- 2020-07 -->
      <defs>
       <path d="M 15.5 0 
Q 19.90625 14.296875 24.59375 28.09375 
Q 29.296875 41.90625 34.5 55.703125 
L 7.90625 55.703125 
L 7.90625 62.296875 
L 43.203125 62.296875 
L 43.203125 58.40625 
Q 37.5 44 32.5 29.5 
Q 27.5 15 23.40625 0 
z
" id="Inconsolata-Regular-55"/>
      </defs>
      <g style="fill:#555555;" transform="translate(738.466825 166.85)scale(0.1 -0.1)">
       <use xlink:href="#Inconsolata-Regular-50"/>
       <use x="49.999985" xlink:href="#Inconsolata-Regular-48"/>
       <use x="99.999969" xlink:href="#Inconsolata-Regular-50"/>
       <use x="149.999954" xlink:href="#Inconsolata-Regular-48"/>
       <use x="199.999939" xlink:href="#Inconsolata-Regular-45"/>
       <use x="249.999924" xlink:href="#Inconsolata-Regular-48"/>
       <use x="299.999908" xlink:href="#Inconsolata-Regular-55"/>
      </g>
     </g>
    </g>
   </g>
   <g id="matplotlib.axis_2">
    <g id="ytick_1">
     <g id="line2d_13">
      <path clip-path="url(#peda3b3cf47)" d="M 51.8 153.2 
L 826.2 153.2 
" style="fill:none;stroke:#ffffff;stroke-linecap:square;stroke-width:0.8;"/>
     </g>
     <g id="line2d_14">
      <defs>
       <path d="M 0 0 
L -3.5 0 
" id="m82a05cefbf" style="stroke:#555555;stroke-width:0.8;"/>
      </defs>
      <g>
       <use style="fill:#555555;stroke:#555555;stroke-width:0.8;" x="51.8" xlink:href="#m82a05cefbf" y="153.2"/>
      </g>
     </g>
     <g id="line2d_15">
      <defs>
       <path d="M 0 0 
L 3.5 0 
" id="ma9b962c864" style="stroke:#555555;stroke-width:0.8;"/>
      </defs>
      <g>
       <use style="fill:#555555;stroke:#555555;stroke-width:0.8;" x="826.2" xlink:href="#ma9b962c864" y="153.2"/>
      </g>
     </g>
     <g id="text_7">
      <!-- 0 -->
      <g style="fill:#555555;" transform="translate(39.8 156.525)scale(0.1 -0.1)">
       <use xlink:href="#Inconsolata-Regular-48"/>
      </g>
     </g>
     <g id="text_8">
      <!-- 0 -->
      <g style="fill:#555555;" transform="translate(833.2 156.525)scale(0.1 -0.1)">
       <use xlink:href="#Inconsolata-Regular-48"/>
      </g>
     </g>
    </g>
    <g id="ytick_2">
     <g id="line2d_16">
      <path clip-path="url(#peda3b3cf47)" d="M 51.8 115.253988 
L 826.2 115.253988 
" style="fill:none;stroke:#ffffff;stroke-linecap:square;stroke-width:0.8;"/>
     </g>
     <g id="line2d_17">
      <g>
       <use style="fill:#555555;stroke:#555555;stroke-width:0.8;" x="51.8" xlink:href="#m82a05cefbf" y="115.253988"/>
      </g>
     </g>
     <g id="line2d_18">
      <g>
       <use style="fill:#555555;stroke:#555555;stroke-width:0.8;" x="826.2" xlink:href="#ma9b962c864" y="115.253988"/>
      </g>
     </g>
     <g id="text_9">
      <!-- 1000 -->
      <defs>
       <path d="M 23 0 
L 23 53.703125 
L 10.40625 50 
L 8.796875 53.90625 
L 25.09375 62.40625 
L 30 62.40625 
L 30 0 
z
" id="Inconsolata-Regular-49"/>
      </defs>
      <g style="fill:#555555;" transform="translate(24.8 118.578988)scale(0.1 -0.1)">
       <use xlink:href="#Inconsolata-Regular-49"/>
       <use x="49.999985" xlink:href="#Inconsolata-Regular-48"/>
       <use x="99.999969" xlink:href="#Inconsolata-Regular-48"/>
       <use x="149.999954" xlink:href="#Inconsolata-Regular-48"/>
      </g>
     </g>
     <g id="text_10">
      <!-- 1000 -->
      <g style="fill:#555555;" transform="translate(833.2 118.578988)scale(0.1 -0.1)">
       <use xlink:href="#Inconsolata-Regular-49"/>
       <use x="49.999985" xlink:href="#Inconsolata-Regular-48"/>
       <use x="99.999969" xlink:href="#Inconsolata-Regular-48"/>
       <use x="149.999954" xlink:href="#Inconsolata-Regular-48"/>
      </g>
     </g>
    </g>
    <g id="ytick_3">
     <g id="line2d_19">
      <path clip-path="url(#peda3b3cf47)" d="M 51.8 77.307976 
L 826.2 77.307976 
" style="fill:none;stroke:#ffffff;stroke-linecap:square;stroke-width:0.8;"/>
     </g>
     <g id="line2d_20">
      <g>
       <use style="fill:#555555;stroke:#555555;stroke-width:0.8;" x="51.8" xlink:href="#m82a05cefbf" y="77.307976"/>
      </g>
     </g>
     <g id="line2d_21">
      <g>
       <use style="fill:#555555;stroke:#555555;stroke-width:0.8;" x="826.2" xlink:href="#ma9b962c864" y="77.307976"/>
      </g>
     </g>
     <g id="text_11">
      <!-- 2000 -->
      <g style="fill:#555555;" transform="translate(24.8 80.632976)scale(0.1 -0.1)">
       <use xlink:href="#Inconsolata-Regular-50"/>
       <use x="49.999985" xlink:href="#Inconsolata-Regular-48"/>
       <use x="99.999969" xlink:href="#Inconsolata-Regular-48"/>
       <use x="149.999954" xlink:href="#Inconsolata-Regular-48"/>
      </g>
     </g>
     <g id="text_12">
      <!-- 2000 -->
      <g style="fill:#555555;" transform="translate(833.2 80.632976)scale(0.1 -0.1)">
       <use xlink:href="#Inconsolata-Regular-50"/>
       <use x="49.999985" xlink:href="#Inconsolata-Regular-48"/>
       <use x="99.999969" xlink:href="#Inconsolata-Regular-48"/>
       <use x="149.999954" xlink:href="#Inconsolata-Regular-48"/>
      </g>
     </g>
    </g>
    <g id="ytick_4">
     <g id="line2d_22">
      <path clip-path="url(#peda3b3cf47)" d="M 51.8 39.361963 
L 826.2 39.361963 
" style="fill:none;stroke:#ffffff;stroke-linecap:square;stroke-width:0.8;"/>
     </g>
     <g id="line2d_23">
      <g>
       <use style="fill:#555555;stroke:#555555;stroke-width:0.8;" x="51.8" xlink:href="#m82a05cefbf" y="39.361963"/>
      </g>
     </g>
     <g id="line2d_24">
      <g>
       <use style="fill:#555555;stroke:#555555;stroke-width:0.8;" x="826.2" xlink:href="#ma9b962c864" y="39.361963"/>
      </g>
     </g>
     <g id="text_13">
      <!-- 3000 -->
      <g style="fill:#555555;" transform="translate(24.8 42.686963)scale(0.1 -0.1)">
       <use xlink:href="#Inconsolata-Regular-51"/>
       <use x="49.999985" xlink:href="#Inconsolata-Regular-48"/>
       <use x="99.999969" xlink:href="#Inconsolata-Regular-48"/>
       <use x="149.999954" xlink:href="#Inconsolata-Regular-48"/>
      </g>
     </g>
     <g id="text_14">
      <!-- 3000 -->
      <g style="fill:#555555;" transform="translate(833.2 42.686963)scale(0.1 -0.1)">
       <use xlink:href="#Inconsolata-Regular-51"/>
       <use x="49.999985" xlink:href="#Inconsolata-Regular-48"/>
       <use x="99.999969" xlink:href="#Inconsolata-Regular-48"/>
       <use x="149.999954" xlink:href="#Inconsolata-Regular-48"/>
      </g>
     </g>
    </g>
    <g id="text_15">
     <!-- daily change -->
     <defs>
      <path d="M 23.40625 -1 
Q 18.796875 -1 14.4375 1.640625 
Q 10.09375 4.296875 7.296875 9.6875 
Q 4.5 15.09375 4.5 23.296875 
Q 4.5 31.703125 7.390625 36.890625 
Q 10.296875 42.09375 14.75 44.5 
Q 19.203125 46.90625 23.796875 46.90625 
Q 28.5 46.90625 31.953125 44.75 
Q 35.40625 42.59375 37.09375 39 
L 37.09375 66.5 
L 44.703125 66.5 
L 44.703125 65.796875 
Q 44.09375 65.203125 43.9375 64.5 
Q 43.796875 63.796875 43.796875 62.09375 
L 43.90625 7.09375 
Q 43.90625 5.296875 44.046875 3.546875 
Q 44.203125 1.796875 44.90625 0 
L 37.796875 0 
Q 37.09375 1.796875 36.9375 3.546875 
Q 36.796875 5.296875 36.796875 7.09375 
Q 34.59375 3.40625 31.1875 1.203125 
Q 27.796875 -1 23.40625 -1 
z
M 24.5 5.296875 
Q 28.90625 5.296875 31.546875 7.6875 
Q 34.203125 10.09375 35.34375 14.140625 
Q 36.5 18.203125 36.5 23.09375 
Q 36.5 30.796875 33.5 35.890625 
Q 30.5 41 23.90625 41 
Q 17.796875 41 14.640625 36.5 
Q 11.5 32 11.5 24.40625 
Q 11.5 15.796875 14.796875 10.546875 
Q 18.09375 5.296875 24.5 5.296875 
z
" id="Inconsolata-Regular-100"/>
      <path d="M 21.09375 -1.09375 
Q 13.296875 -1.09375 9.09375 2.453125 
Q 4.90625 6 4.90625 11.5 
Q 4.90625 16.40625 8 19.953125 
Q 11.09375 23.5 16.34375 25.453125 
Q 21.59375 27.40625 27.90625 27.40625 
Q 30.203125 27.40625 32.75 27.296875 
Q 35.296875 27.203125 38.203125 26.796875 
Q 37.59375 34.796875 34.046875 37.796875 
Q 30.5 40.796875 23.90625 40.796875 
Q 20.59375 40.796875 17.390625 39.546875 
Q 14.203125 38.296875 11.59375 35.703125 
L 8.09375 40.296875 
Q 11.296875 43.5 15.5 45.09375 
Q 19.703125 46.703125 24.40625 46.703125 
Q 30.5 46.703125 35 44.703125 
Q 39.5 42.703125 42 37.796875 
Q 44.5 32.90625 44.5 24.296875 
L 44.5 0 
L 36.703125 0 
L 36.703125 7 
Q 35 3.703125 32.34375 1.953125 
Q 29.703125 0.203125 26.75 -0.4375 
Q 23.796875 -1.09375 21.09375 -1.09375 
z
M 12.09375 11.90625 
Q 12.09375 7.59375 14.890625 6 
Q 17.703125 4.40625 21.796875 4.40625 
Q 29.203125 4.40625 33.5 8.75 
Q 37.796875 13.09375 38.203125 21.296875 
Q 33 22 28.5 22 
Q 21.296875 22 16.6875 19.59375 
Q 12.09375 17.203125 12.09375 11.90625 
z
" id="Inconsolata-Regular-97"/>
      <path d="M 10 0 
L 10 5.796875 
L 21.703125 5.796875 
L 21.703125 39.90625 
L 10.59375 39.90625 
L 10.59375 45.703125 
L 28.90625 45.703125 
L 28.90625 5.796875 
L 39.59375 5.796875 
L 39.59375 0 
z
M 24.90625 55.296875 
Q 22.796875 55.296875 21.296875 56.796875 
Q 19.796875 58.296875 19.796875 60.40625 
Q 19.796875 62.59375 21.25 64.09375 
Q 22.703125 65.59375 24.90625 65.59375 
Q 27 65.59375 28.546875 64.046875 
Q 30.09375 62.5 30.09375 60.40625 
Q 30.09375 58.296875 28.546875 56.796875 
Q 27 55.296875 24.90625 55.296875 
z
" id="Inconsolata-Regular-105"/>
      <path d="M 7.90625 0 
L 7.90625 5.796875 
L 21.40625 5.796875 
L 21.40625 60.703125 
L 8.5 60.703125 
L 8.5 66.5 
L 28.703125 66.5 
L 28.703125 5.796875 
L 42.09375 5.796875 
L 42.09375 0 
z
" id="Inconsolata-Regular-108"/>
      <path d="M 12.703125 -17.40625 
Q 6.296875 -17.40625 2.203125 -13.5 
L 5.296875 -8.59375 
L 5.90625 -7.703125 
L 6.5 -8.09375 
Q 6.703125 -8.90625 7.203125 -9.453125 
Q 7.703125 -10 9.09375 -10.90625 
Q 10.90625 -11.5 13.09375 -11.5 
Q 17 -11.5 19.203125 -8.75 
Q 21.40625 -6 23.296875 -0.296875 
L 4.59375 45.703125 
L 12.09375 45.703125 
L 26.296875 9.09375 
L 32.296875 27.5 
Q 33.796875 32.09375 35.1875 36.59375 
Q 36.59375 41.09375 37.09375 45.703125 
L 44.296875 45.703125 
Q 43.59375 41.09375 42.09375 36.390625 
Q 40.59375 31.703125 38.90625 27 
L 27.5 -5.203125 
Q 25.09375 -11.90625 21.34375 -14.65625 
Q 17.59375 -17.40625 12.703125 -17.40625 
z
" id="Inconsolata-Regular-121"/>
      <path id="Inconsolata-Regular-32"/>
      <path d="M 28.5 -1.09375 
Q 21.90625 -1.09375 16.703125 2 
Q 11.5 5.09375 8.546875 10.5 
Q 5.59375 15.90625 5.59375 22.796875 
Q 5.59375 29.703125 8.546875 35.046875 
Q 11.5 40.40625 16.640625 43.5 
Q 21.796875 46.59375 28.40625 46.59375 
Q 34 46.59375 38.453125 44.34375 
Q 42.90625 42.09375 45.703125 38.09375 
L 41.203125 33.703125 
L 40.5 33 
L 40 33.5 
Q 40 34.296875 39.640625 35 
Q 39.296875 35.703125 38.09375 36.90625 
Q 35.90625 38.90625 33.40625 39.703125 
Q 30.90625 40.5 27.59375 40.5 
Q 23.796875 40.5 20.4375 38.390625 
Q 17.09375 36.296875 15.046875 32.4375 
Q 13 28.59375 13 23.296875 
Q 13 18.203125 15.046875 14.140625 
Q 17.09375 10.09375 20.6875 7.75 
Q 24.296875 5.40625 28.90625 5.40625 
Q 35.796875 5.40625 40.796875 11 
L 45 6.09375 
Q 38.296875 -1.09375 28.5 -1.09375 
z
" id="Inconsolata-Regular-99"/>
      <path d="M 7.296875 66.5 
L 15.203125 66.5 
L 15.203125 65.796875 
Q 14.59375 65.203125 14.4375 64.5 
Q 14.296875 63.796875 14.296875 62.09375 
L 14.296875 37.59375 
Q 17 41.796875 21.046875 44.296875 
Q 25.09375 46.796875 29.296875 46.796875 
Q 35.5 46.796875 39.34375 42.4375 
Q 43.203125 38.09375 43.203125 27.703125 
L 43.203125 0 
L 36.203125 0 
L 36.203125 27.5 
Q 36.203125 34.703125 33.75 37.59375 
Q 31.296875 40.5 27.796875 40.5 
Q 24.796875 40.5 21.640625 38.796875 
Q 18.5 37.09375 16.390625 33.9375 
Q 14.296875 30.796875 14.296875 26.296875 
L 14.296875 0 
L 7.296875 0 
z
" id="Inconsolata-Regular-104"/>
      <path d="M 7.203125 0 
L 7.203125 45.703125 
L 14.203125 45.703125 
L 14.203125 37.59375 
Q 16.796875 41.796875 20.9375 44.296875 
Q 25.09375 46.796875 29.703125 46.796875 
Q 35.296875 46.796875 39.1875 42.4375 
Q 43.09375 38.09375 43.09375 27.703125 
L 43.09375 0 
L 36.09375 0 
L 36.09375 27.5 
Q 36.09375 34.703125 33.640625 37.59375 
Q 31.203125 40.5 27.703125 40.5 
Q 24.703125 40.5 21.546875 38.75 
Q 18.40625 37 16.296875 33.84375 
Q 14.203125 30.703125 14.203125 26.296875 
L 14.203125 0 
z
" id="Inconsolata-Regular-110"/>
      <path d="M 22.59375 15.5 
Q 18.703125 15.5 15.5 16.90625 
Q 13.703125 14.703125 13.703125 12.703125 
Q 13.703125 10.296875 16.703125 9.25 
Q 19.703125 8.203125 27.703125 8.203125 
Q 34.703125 8.203125 38.296875 6.703125 
Q 41.90625 5.203125 43.203125 2.59375 
Q 44.5 0 44.5 -3.40625 
Q 44.5 -6.90625 42.59375 -10.09375 
Q 40.703125 -13.296875 36.34375 -15.25 
Q 32 -17.203125 24.703125 -17.203125 
Q 15.09375 -17.203125 9.4375 -14.25 
Q 3.796875 -11.296875 3.796875 -5.40625 
Q 3.796875 -1.703125 5.890625 0.9375 
Q 8 3.59375 10.90625 4.90625 
Q 7.59375 7.09375 7.59375 11 
Q 7.59375 13.203125 8.6875 15.296875 
Q 9.796875 17.40625 11.703125 19.40625 
Q 6.59375 23.90625 6.59375 31.5 
Q 6.59375 35.90625 8.546875 39.5 
Q 10.5 43.09375 14.09375 45.25 
Q 17.703125 47.40625 22.59375 47.40625 
Q 26.296875 47.40625 29.25 46.15625 
Q 32.203125 44.90625 34.296875 42.703125 
Q 36.90625 45.09375 39.796875 46.140625 
Q 42.703125 47.203125 46.59375 46.90625 
L 47.5 41 
Q 44.5 41.296875 41.84375 40.890625 
Q 39.203125 40.5 36.90625 39 
Q 38.59375 35.59375 38.59375 31.5 
Q 38.59375 27.09375 36.640625 23.4375 
Q 34.703125 19.796875 31.140625 17.640625 
Q 27.59375 15.5 22.59375 15.5 
z
M 22.59375 21.5 
Q 27 21.5 29.796875 24.453125 
Q 32.59375 27.40625 32.59375 31.5 
Q 32.59375 35.59375 29.796875 38.546875 
Q 27 41.5 22.59375 41.5 
Q 18.296875 41.5 15.4375 38.546875 
Q 12.59375 35.59375 12.59375 31.5 
Q 12.59375 27.40625 15.4375 24.453125 
Q 18.296875 21.5 22.59375 21.5 
z
M 10.40625 -4.59375 
Q 10.40625 -8 14.25 -9.890625 
Q 18.09375 -11.796875 24.796875 -11.796875 
Q 31.59375 -11.796875 34.75 -9.75 
Q 37.90625 -7.703125 37.90625 -4.5 
Q 37.90625 -2.296875 37.09375 -0.890625 
Q 36.296875 0.5 33.796875 1.203125 
Q 31.296875 1.90625 26.203125 1.90625 
Q 22.703125 1.90625 19.84375 2.203125 
Q 17 2.5 14.703125 3.203125 
Q 12.40625 1.59375 11.40625 -0.046875 
Q 10.40625 -1.703125 10.40625 -4.59375 
z
" id="Inconsolata-Regular-103"/>
      <path d="M 27.203125 -1 
Q 17.203125 -1 11.046875 5.09375 
Q 4.90625 11.203125 4.90625 22.703125 
Q 4.90625 30.5 7.75 35.84375 
Q 10.59375 41.203125 15.34375 44 
Q 20.09375 46.796875 25.90625 46.796875 
Q 31.09375 46.796875 35.296875 44.5 
Q 39.5 42.203125 42 37.390625 
Q 44.5 32.59375 44.5 25.09375 
Q 44.5 24.296875 44.453125 23.4375 
Q 44.40625 22.59375 44.296875 21.796875 
L 11.796875 21.796875 
Q 12.203125 13 16.75 8.890625 
Q 21.296875 4.796875 27.40625 4.796875 
Q 34.59375 4.796875 39.203125 9.90625 
L 43.203125 6 
Q 37.40625 -1 27.203125 -1 
z
M 12.09375 27.40625 
L 37.203125 27.40625 
Q 37.203125 33.796875 33.953125 37.546875 
Q 30.703125 41.296875 25.40625 41.296875 
Q 20.703125 41.296875 16.890625 37.9375 
Q 13.09375 34.59375 12.09375 27.40625 
z
" id="Inconsolata-Regular-101"/>
     </defs>
     <g style="fill:#555555;" transform="translate(18.71125 118)rotate(-90)scale(0.12 -0.12)">
      <use xlink:href="#Inconsolata-Regular-100"/>
      <use x="49.999985" xlink:href="#Inconsolata-Regular-97"/>
      <use x="99.999969" xlink:href="#Inconsolata-Regular-105"/>
      <use x="149.999954" xlink:href="#Inconsolata-Regular-108"/>
      <use x="199.999939" xlink:href="#Inconsolata-Regular-121"/>
      <use x="249.999924" xlink:href="#Inconsolata-Regular-32"/>
      <use x="299.999908" xlink:href="#Inconsolata-Regular-99"/>
      <use x="349.999893" xlink:href="#Inconsolata-Regular-104"/>
      <use x="399.999878" xlink:href="#Inconsolata-Regular-97"/>
      <use x="449.999863" xlink:href="#Inconsolata-Regular-110"/>
      <use x="499.999847" xlink:href="#Inconsolata-Regular-103"/>
      <use x="549.999832" xlink:href="#Inconsolata-Regular-101"/>
     </g>
    </g>
   </g>
   <g id="patch_3">
    <path clip-path="url(#peda3b3cf47)" d="M 87 153.2 
L 90.336493 153.2 
L 90.336493 153.2 
L 87 153.2 
z
" style="fill:#348abd;opacity:0.2;"/>
   </g>
   <g id="patch_4">
    <path clip-path="url(#peda3b3cf47)" d="M 91.170616 153.2 
L 94.507109 153.2 
L 94.507109 153.2 
L 91.170616 153.2 
z
" style="fill:#348abd;opacity:0.2;"/>
   </g>
   <g id="patch_5">
    <path clip-path="url(#peda3b3cf47)" d="M 95.341232 153.2 
L 98.677725 153.2 
L 98.677725 153.2 
L 95.341232 153.2 
z
" style="fill:#348abd;opacity:0.2;"/>
   </g>
   <g id="patch_6">
    <path clip-path="url(#peda3b3cf47)" d="M 99.511848 153.2 
L 102.848341 153.2 
L 102.848341 153.2 
L 99.511848 153.2 
z
" style="fill:#348abd;opacity:0.2;"/>
   </g>
   <g id="patch_7">
    <path clip-path="url(#peda3b3cf47)" d="M 103.682464 153.2 
L 107.018957 153.2 
L 107.018957 153.2 
L 103.682464 153.2 
z
" style="fill:#348abd;opacity:0.2;"/>
   </g>
   <g id="patch_8">
    <path clip-path="url(#peda3b3cf47)" d="M 107.853081 153.2 
L 111.189573 153.2 
L 111.189573 153.2 
L 107.853081 153.2 
z
" style="fill:#348abd;opacity:0.2;"/>
   </g>
   <g id="patch_9">
    <path clip-path="url(#peda3b3cf47)" d="M 112.023697 153.2 
L 115.36019 153.2 
L 115.36019 153.2 
L 112.023697 153.2 
z
" style="fill:#348abd;opacity:0.2;"/>
   </g>
   <g id="patch_10">
    <path clip-path="url(#peda3b3cf47)" d="M 116.194313 153.2 
L 119.530806 153.2 
L 119.530806 153.2 
L 116.194313 153.2 
z
" style="fill:#348abd;opacity:0.2;"/>
   </g>
   <g id="patch_11">
    <path clip-path="url(#peda3b3cf47)" d="M 120.364929 153.2 
L 123.701422 153.2 
L 123.701422 153.2 
L 120.364929 153.2 
z
" style="fill:#348abd;opacity:0.2;"/>
   </g>
   <g id="patch_12">
    <path clip-path="url(#peda3b3cf47)" d="M 124.535545 153.2 
L 127.872038 153.2 
L 127.872038 153.2 
L 124.535545 153.2 
z
" style="fill:#348abd;opacity:0.2;"/>
   </g>
   <g id="patch_13">
    <path clip-path="url(#peda3b3cf47)" d="M 128.706161 153.2 
L 132.042654 153.2 
L 132.042654 153.2 
L 128.706161 153.2 
z
" style="fill:#348abd;opacity:0.2;"/>
   </g>
   <g id="patch_14">
    <path clip-path="url(#peda3b3cf47)" d="M 132.876777 153.2 
L 136.21327 153.2 
L 136.21327 153.2 
L 132.876777 153.2 
z
" style="fill:#348abd;opacity:0.2;"/>
   </g>
   <g id="patch_15">
    <path clip-path="url(#peda3b3cf47)" d="M 137.047393 153.2 
L 140.383886 153.2 
L 140.383886 153.2 
L 137.047393 153.2 
z
" style="fill:#348abd;opacity:0.2;"/>
   </g>
   <g id="patch_16">
    <path clip-path="url(#peda3b3cf47)" d="M 141.218009 153.2 
L 144.554502 153.2 
L 144.554502 153.2 
L 141.218009 153.2 
z
" style="fill:#348abd;opacity:0.2;"/>
   </g>
   <g id="patch_17">
    <path clip-path="url(#peda3b3cf47)" d="M 145.388626 153.2 
L 148.725118 153.2 
L 148.725118 153.2 
L 145.388626 153.2 
z
" style="fill:#348abd;opacity:0.2;"/>
   </g>
   <g id="patch_18">
    <path clip-path="url(#peda3b3cf47)" d="M 149.559242 153.2 
L 152.895735 153.2 
L 152.895735 153.2 
L 149.559242 153.2 
z
" style="fill:#348abd;opacity:0.2;"/>
   </g>
   <g id="patch_19">
    <path clip-path="url(#peda3b3cf47)" d="M 153.729858 153.2 
L 157.066351 153.2 
L 157.066351 153.2 
L 153.729858 153.2 
z
" style="fill:#348abd;opacity:0.2;"/>
   </g>
   <g id="patch_20">
    <path clip-path="url(#peda3b3cf47)" d="M 157.900474 153.2 
L 161.236967 153.2 
L 161.236967 153.2 
L 157.900474 153.2 
z
" style="fill:#348abd;opacity:0.2;"/>
   </g>
   <g id="patch_21">
    <path clip-path="url(#peda3b3cf47)" d="M 162.07109 153.2 
L 165.407583 153.2 
L 165.407583 153.2 
L 162.07109 153.2 
z
" style="fill:#348abd;opacity:0.2;"/>
   </g>
   <g id="patch_22">
    <path clip-path="url(#peda3b3cf47)" d="M 166.241706 153.2 
L 169.578199 153.2 
L 169.578199 153.2 
L 166.241706 153.2 
z
" style="fill:#348abd;opacity:0.2;"/>
   </g>
   <g id="patch_23">
    <path clip-path="url(#peda3b3cf47)" d="M 170.412322 153.2 
L 173.748815 153.2 
L 173.748815 153.2 
L 170.412322 153.2 
z
" style="fill:#348abd;opacity:0.2;"/>
   </g>
   <g id="patch_24">
    <path clip-path="url(#peda3b3cf47)" d="M 174.582938 153.2 
L 177.919431 153.2 
L 177.919431 153.2 
L 174.582938 153.2 
z
" style="fill:#348abd;opacity:0.2;"/>
   </g>
   <g id="patch_25">
    <path clip-path="url(#peda3b3cf47)" d="M 178.753555 153.2 
L 182.090047 153.2 
L 182.090047 153.2 
L 178.753555 153.2 
z
" style="fill:#348abd;opacity:0.2;"/>
   </g>
   <g id="patch_26">
    <path clip-path="url(#peda3b3cf47)" d="M 182.924171 153.2 
L 186.260664 153.2 
L 186.260664 153.2 
L 182.924171 153.2 
z
" style="fill:#348abd;opacity:0.2;"/>
   </g>
   <g id="patch_27">
    <path clip-path="url(#peda3b3cf47)" d="M 187.094787 153.2 
L 190.43128 153.2 
L 190.43128 153.2 
L 187.094787 153.2 
z
" style="fill:#348abd;opacity:0.2;"/>
   </g>
   <g id="patch_28">
    <path clip-path="url(#peda3b3cf47)" d="M 191.265403 153.2 
L 194.601896 153.2 
L 194.601896 153.2 
L 191.265403 153.2 
z
" style="fill:#348abd;opacity:0.2;"/>
   </g>
   <g id="patch_29">
    <path clip-path="url(#peda3b3cf47)" d="M 195.436019 153.2 
L 198.772512 153.2 
L 198.772512 153.2 
L 195.436019 153.2 
z
" style="fill:#348abd;opacity:0.2;"/>
   </g>
   <g id="patch_30">
    <path clip-path="url(#peda3b3cf47)" d="M 199.606635 153.2 
L 202.943128 153.2 
L 202.943128 153.124108 
L 199.606635 153.124108 
z
" style="fill:#348abd;opacity:0.2;"/>
   </g>
   <g id="patch_31">
    <path clip-path="url(#peda3b3cf47)" d="M 203.777251 153.2 
L 207.113744 153.2 
L 207.113744 153.086162 
L 203.777251 153.086162 
z
" style="fill:#348abd;opacity:0.2;"/>
   </g>
   <g id="patch_32">
    <path clip-path="url(#peda3b3cf47)" d="M 207.947867 153.2 
L 211.28436 153.2 
L 211.28436 152.706702 
L 207.947867 152.706702 
z
" style="fill:#348abd;opacity:0.2;"/>
   </g>
   <g id="patch_33">
    <path clip-path="url(#peda3b3cf47)" d="M 212.118483 153.2 
L 215.454976 153.2 
L 215.454976 152.82054 
L 212.118483 152.82054 
z
" style="fill:#348abd;opacity:0.2;"/>
   </g>
   <g id="patch_34">
    <path clip-path="url(#peda3b3cf47)" d="M 216.2891 153.2 
L 219.625592 153.2 
L 219.625592 152.63081 
L 216.2891 152.63081 
z
" style="fill:#348abd;opacity:0.2;"/>
   </g>
   <g id="patch_35">
    <path clip-path="url(#peda3b3cf47)" d="M 220.459716 153.2 
L 223.796209 153.2 
L 223.796209 152.516972 
L 220.459716 152.516972 
z
" style="fill:#348abd;opacity:0.2;"/>
   </g>
   <g id="patch_36">
    <path clip-path="url(#peda3b3cf47)" d="M 224.630332 153.2 
L 227.966825 153.2 
L 227.966825 151.909836 
L 224.630332 151.909836 
z
" style="fill:#348abd;opacity:0.2;"/>
   </g>
   <g id="patch_37">
    <path clip-path="url(#peda3b3cf47)" d="M 228.800948 153.2 
L 232.137441 153.2 
L 232.137441 151.530375 
L 228.800948 151.530375 
z
" style="fill:#348abd;opacity:0.2;"/>
   </g>
   <g id="patch_38">
    <path clip-path="url(#peda3b3cf47)" d="M 232.971564 153.2 
L 236.308057 153.2 
L 236.308057 149.177723 
L 232.971564 149.177723 
z
" style="fill:#348abd;opacity:0.2;"/>
   </g>
   <g id="patch_39">
    <path clip-path="url(#peda3b3cf47)" d="M 237.14218 153.2 
L 240.478673 153.2 
L 240.478673 147.77372 
L 237.14218 147.77372 
z
" style="fill:#348abd;opacity:0.2;"/>
   </g>
   <g id="patch_40">
    <path clip-path="url(#peda3b3cf47)" d="M 241.312796 153.2 
L 244.649289 153.2 
L 244.649289 145.421067 
L 241.312796 145.421067 
z
" style="fill:#348abd;opacity:0.2;"/>
   </g>
   <g id="patch_41">
    <path clip-path="url(#peda3b3cf47)" d="M 245.483412 153.2 
L 248.819905 153.2 
L 248.819905 138.590785 
L 245.483412 138.590785 
z
" style="fill:#348abd;opacity:0.2;"/>
   </g>
   <g id="patch_42">
    <path clip-path="url(#peda3b3cf47)" d="M 249.654028 153.2 
L 252.990521 153.2 
L 252.990521 133.354236 
L 249.654028 133.354236 
z
" style="fill:#348abd;opacity:0.2;"/>
   </g>
   <g id="patch_43">
    <path clip-path="url(#peda3b3cf47)" d="M 253.824645 153.2 
L 257.161137 153.2 
L 257.161137 121.51508 
L 253.824645 121.51508 
z
" style="fill:#348abd;opacity:0.2;"/>
   </g>
   <g id="patch_44">
    <path clip-path="url(#peda3b3cf47)" d="M 257.995261 153.2 
L 261.331754 153.2 
L 261.331754 130.963637 
L 257.995261 130.963637 
z
" style="fill:#348abd;opacity:0.2;"/>
   </g>
   <g id="patch_45">
    <path clip-path="url(#peda3b3cf47)" d="M 262.165877 153.2 
L 265.50237 153.2 
L 265.50237 130.773907 
L 262.165877 130.773907 
z
" style="fill:#348abd;opacity:0.2;"/>
   </g>
   <g id="patch_46">
    <path clip-path="url(#peda3b3cf47)" d="M 266.336493 153.2 
L 269.672986 153.2 
L 269.672986 106.374621 
L 266.336493 106.374621 
z
" style="fill:#348abd;opacity:0.2;"/>
   </g>
   <g id="patch_47">
    <path clip-path="url(#peda3b3cf47)" d="M 270.507109 153.2 
L 273.843602 153.2 
L 273.843602 112.370091 
L 270.507109 112.370091 
z
" style="fill:#348abd;opacity:0.2;"/>
   </g>
   <g id="patch_48">
    <path clip-path="url(#peda3b3cf47)" d="M 274.677725 153.2 
L 278.014218 153.2 
L 278.014218 125.006113 
L 274.677725 125.006113 
z
" style="fill:#348abd;opacity:0.2;"/>
   </g>
   <g id="patch_49">
    <path clip-path="url(#peda3b3cf47)" d="M 278.848341 153.2 
L 282.184834 153.2 
L 282.184834 130.622123 
L 278.848341 130.622123 
z
" style="fill:#348abd;opacity:0.2;"/>
   </g>
   <g id="patch_50">
    <path clip-path="url(#peda3b3cf47)" d="M 283.018957 153.2 
L 286.35545 153.2 
L 286.35545 119.769563 
L 283.018957 119.769563 
z
" style="fill:#348abd;opacity:0.2;"/>
   </g>
   <g id="patch_51">
    <path clip-path="url(#peda3b3cf47)" d="M 287.189573 153.2 
L 290.526066 153.2 
L 290.526066 116.84772 
L 287.189573 116.84772 
z
" style="fill:#348abd;opacity:0.2;"/>
   </g>
   <g id="patch_52">
    <path clip-path="url(#peda3b3cf47)" d="M 291.36019 153.2 
L 294.696682 153.2 
L 294.696682 112.408037 
L 291.36019 112.408037 
z
" style="fill:#348abd;opacity:0.2;"/>
   </g>
   <g id="patch_53">
    <path clip-path="url(#peda3b3cf47)" d="M 295.530806 153.2 
L 298.867299 153.2 
L 298.867299 104.28759 
L 295.530806 104.28759 
z
" style="fill:#348abd;opacity:0.2;"/>
   </g>
   <g id="patch_54">
    <path clip-path="url(#peda3b3cf47)" d="M 299.701422 153.2 
L 303.037915 153.2 
L 303.037915 101.403693 
L 299.701422 101.403693 
z
" style="fill:#348abd;opacity:0.2;"/>
   </g>
   <g id="patch_55">
    <path clip-path="url(#peda3b3cf47)" d="M 303.872038 153.2 
L 307.208531 153.2 
L 307.208531 107.323271 
L 303.872038 107.323271 
z
" style="fill:#348abd;opacity:0.2;"/>
   </g>
   <g id="patch_56">
    <path clip-path="url(#peda3b3cf47)" d="M 308.042654 153.2 
L 311.379147 153.2 
L 311.379147 113.242849 
L 308.042654 113.242849 
z
" style="fill:#348abd;opacity:0.2;"/>
   </g>
   <g id="patch_57">
    <path clip-path="url(#peda3b3cf47)" d="M 312.21327 153.2 
L 315.549763 153.2 
L 315.549763 108.499598 
L 312.21327 108.499598 
z
" style="fill:#348abd;opacity:0.2;"/>
   </g>
   <g id="patch_58">
    <path clip-path="url(#peda3b3cf47)" d="M 316.383886 153.2 
L 319.720379 153.2 
L 319.720379 107.968353 
L 316.383886 107.968353 
z
" style="fill:#348abd;opacity:0.2;"/>
   </g>
   <g id="patch_59">
    <path clip-path="url(#peda3b3cf47)" d="M 320.554502 153.2 
L 323.890995 153.2 
L 323.890995 113.508471 
L 320.554502 113.508471 
z
" style="fill:#348abd;opacity:0.2;"/>
   </g>
   <g id="patch_60">
    <path clip-path="url(#peda3b3cf47)" d="M 324.725118 153.2 
L 328.061611 153.2 
L 328.061611 106.260783 
L 324.725118 106.260783 
z
" style="fill:#348abd;opacity:0.2;"/>
   </g>
   <g id="patch_61">
    <path clip-path="url(#peda3b3cf47)" d="M 328.895735 153.2 
L 332.232227 153.2 
L 332.232227 116.544152 
L 328.895735 116.544152 
z
" style="fill:#348abd;opacity:0.2;"/>
   </g>
   <g id="patch_62">
    <path clip-path="url(#peda3b3cf47)" d="M 333.066351 153.2 
L 336.402844 153.2 
L 336.402844 114.191499 
L 333.066351 114.191499 
z
" style="fill:#348abd;opacity:0.2;"/>
   </g>
   <g id="patch_63">
    <path clip-path="url(#peda3b3cf47)" d="M 337.236967 153.2 
L 340.57346 153.2 
L 340.57346 99.658177 
L 337.236967 99.658177 
z
" style="fill:#348abd;opacity:0.2;"/>
   </g>
   <g id="patch_64">
    <path clip-path="url(#peda3b3cf47)" d="M 341.407583 153.2 
L 344.744076 153.2 
L 344.744076 86.339126 
L 341.407583 86.339126 
z
" style="fill:#348abd;opacity:0.2;"/>
   </g>
   <g id="patch_65">
    <path clip-path="url(#peda3b3cf47)" d="M 345.578199 153.2 
L 348.914692 153.2 
L 348.914692 69.491097 
L 345.578199 69.491097 
z
" style="fill:#348abd;opacity:0.2;"/>
   </g>
   <g id="patch_66">
    <path clip-path="url(#peda3b3cf47)" d="M 349.748815 153.2 
L 353.085308 153.2 
L 353.085308 62.546977 
L 349.748815 62.546977 
z
" style="fill:#348abd;opacity:0.2;"/>
   </g>
   <g id="patch_67">
    <path clip-path="url(#peda3b3cf47)" d="M 353.919431 153.2 
L 357.255924 153.2 
L 357.255924 42.169968 
L 353.919431 42.169968 
z
" style="fill:#348abd;opacity:0.2;"/>
   </g>
   <g id="patch_68">
    <path clip-path="url(#peda3b3cf47)" d="M 358.090047 153.2 
L 361.42654 153.2 
L 361.42654 36.478066 
L 358.090047 36.478066 
z
" style="fill:#348abd;opacity:0.2;"/>
   </g>
   <g id="patch_69">
    <path clip-path="url(#peda3b3cf47)" d="M 362.260664 153.2 
L 365.597156 153.2 
L 365.597156 43.118619 
L 362.260664 43.118619 
z
" style="fill:#348abd;opacity:0.2;"/>
   </g>
   <g id="patch_70">
    <path clip-path="url(#peda3b3cf47)" d="M 366.43128 153.2 
L 369.767773 153.2 
L 369.767773 32.304005 
L 366.43128 32.304005 
z
" style="fill:#348abd;opacity:0.2;"/>
   </g>
   <g id="patch_71">
    <path clip-path="url(#peda3b3cf47)" d="M 370.601896 153.2 
L 373.938389 153.2 
L 373.938389 35.187902 
L 370.601896 35.187902 
z
" style="fill:#348abd;opacity:0.2;"/>
   </g>
   <g id="patch_72">
    <path clip-path="url(#peda3b3cf47)" d="M 374.772512 153.2 
L 378.109005 153.2 
L 378.109005 39.817316 
L 374.772512 39.817316 
z
" style="fill:#348abd;opacity:0.2;"/>
   </g>
   <g id="patch_73">
    <path clip-path="url(#peda3b3cf47)" d="M 378.943128 153.2 
L 382.279621 153.2 
L 382.279621 44.105215 
L 378.943128 44.105215 
z
" style="fill:#348abd;opacity:0.2;"/>
   </g>
   <g id="patch_74">
    <path clip-path="url(#peda3b3cf47)" d="M 383.113744 153.2 
L 386.450237 153.2 
L 386.450237 50.176577 
L 383.113744 50.176577 
z
" style="fill:#348abd;opacity:0.2;"/>
   </g>
   <g id="patch_75">
    <path clip-path="url(#peda3b3cf47)" d="M 387.28436 153.2 
L 390.620853 153.2 
L 390.620853 56.058209 
L 387.28436 56.058209 
z
" style="fill:#348abd;opacity:0.2;"/>
   </g>
   <g id="patch_76">
    <path clip-path="url(#peda3b3cf47)" d="M 391.454976 153.2 
L 394.791469 153.2 
L 394.791469 58.980052 
L 391.454976 58.980052 
z
" style="fill:#348abd;opacity:0.2;"/>
   </g>
   <g id="patch_77">
    <path clip-path="url(#peda3b3cf47)" d="M 395.625592 153.2 
L 398.962085 153.2 
L 398.962085 66.910768 
L 395.625592 66.910768 
z
" style="fill:#348abd;opacity:0.2;"/>
   </g>
   <g id="patch_78">
    <path clip-path="url(#peda3b3cf47)" d="M 399.796209 153.2 
L 403.132701 153.2 
L 403.132701 73.930781 
L 399.796209 73.930781 
z
" style="fill:#348abd;opacity:0.2;"/>
   </g>
   <g id="patch_79">
    <path clip-path="url(#peda3b3cf47)" d="M 403.966825 153.2 
L 407.303318 153.2 
L 407.303318 77.421814 
L 403.966825 77.421814 
z
" style="fill:#348abd;opacity:0.2;"/>
   </g>
   <g id="patch_80">
    <path clip-path="url(#peda3b3cf47)" d="M 408.137441 153.2 
L 411.473934 153.2 
L 411.473934 91.196216 
L 408.137441 91.196216 
z
" style="fill:#348abd;opacity:0.2;"/>
   </g>
   <g id="patch_81">
    <path clip-path="url(#peda3b3cf47)" d="M 412.308057 153.2 
L 415.64455 153.2 
L 415.64455 78.370464 
L 412.308057 78.370464 
z
" style="fill:#348abd;opacity:0.2;"/>
   </g>
   <g id="patch_82">
    <path clip-path="url(#peda3b3cf47)" d="M 416.478673 153.2 
L 419.815166 153.2 
L 419.815166 83.493176 
L 416.478673 83.493176 
z
" style="fill:#348abd;opacity:0.2;"/>
   </g>
   <g id="patch_83">
    <path clip-path="url(#peda3b3cf47)" d="M 420.649289 153.2 
L 423.985782 153.2 
L 423.985782 90.323458 
L 420.649289 90.323458 
z
" style="fill:#348abd;opacity:0.2;"/>
   </g>
   <g id="patch_84">
    <path clip-path="url(#peda3b3cf47)" d="M 424.819905 153.2 
L 428.156398 153.2 
L 428.156398 91.841298 
L 424.819905 91.841298 
z
" style="fill:#348abd;opacity:0.2;"/>
   </g>
   <g id="patch_85">
    <path clip-path="url(#peda3b3cf47)" d="M 428.990521 153.2 
L 432.327014 153.2 
L 432.327014 93.472977 
L 428.990521 93.472977 
z
" style="fill:#348abd;opacity:0.2;"/>
   </g>
   <g id="patch_86">
    <path clip-path="url(#peda3b3cf47)" d="M 433.161137 153.2 
L 436.49763 153.2 
L 436.49763 95.82563 
L 433.161137 95.82563 
z
" style="fill:#348abd;opacity:0.2;"/>
   </g>
   <g id="patch_87">
    <path clip-path="url(#peda3b3cf47)" d="M 437.331754 153.2 
L 440.668246 153.2 
L 440.668246 92.258704 
L 437.331754 92.258704 
z
" style="fill:#348abd;opacity:0.2;"/>
   </g>
   <g id="patch_88">
    <path clip-path="url(#peda3b3cf47)" d="M 441.50237 153.2 
L 444.838863 153.2 
L 444.838863 96.318928 
L 441.50237 96.318928 
z
" style="fill:#348abd;opacity:0.2;"/>
   </g>
   <g id="patch_89">
    <path clip-path="url(#peda3b3cf47)" d="M 445.672986 153.2 
L 449.009479 153.2 
L 449.009479 101.062179 
L 445.672986 101.062179 
z
" style="fill:#348abd;opacity:0.2;"/>
   </g>
   <g id="patch_90">
    <path clip-path="url(#peda3b3cf47)" d="M 449.843602 153.2 
L 453.180095 153.2 
L 453.180095 102.238506 
L 449.843602 102.238506 
z
" style="fill:#348abd;opacity:0.2;"/>
   </g>
   <g id="patch_91">
    <path clip-path="url(#peda3b3cf47)" d="M 454.014218 153.2 
L 457.350711 153.2 
L 457.350711 104.09786 
L 454.014218 104.09786 
z
" style="fill:#348abd;opacity:0.2;"/>
   </g>
   <g id="patch_92">
    <path clip-path="url(#peda3b3cf47)" d="M 458.184834 153.2 
L 461.521327 153.2 
L 461.521327 103.984022 
L 458.184834 103.984022 
z
" style="fill:#348abd;opacity:0.2;"/>
   </g>
   <g id="patch_93">
    <path clip-path="url(#peda3b3cf47)" d="M 462.35545 153.2 
L 465.691943 153.2 
L 465.691943 107.892461 
L 462.35545 107.892461 
z
" style="fill:#348abd;opacity:0.2;"/>
   </g>
   <g id="patch_94">
    <path clip-path="url(#peda3b3cf47)" d="M 466.526066 153.2 
L 469.862559 153.2 
L 469.862559 114.115607 
L 466.526066 114.115607 
z
" style="fill:#348abd;opacity:0.2;"/>
   </g>
   <g id="patch_95">
    <path clip-path="url(#peda3b3cf47)" d="M 470.696682 153.2 
L 474.033175 153.2 
L 474.033175 108.879058 
L 470.696682 108.879058 
z
" style="fill:#348abd;opacity:0.2;"/>
   </g>
   <g id="patch_96">
    <path clip-path="url(#peda3b3cf47)" d="M 474.867299 153.2 
L 478.203791 153.2 
L 478.203791 110.169222 
L 474.867299 110.169222 
z
" style="fill:#348abd;opacity:0.2;"/>
   </g>
   <g id="patch_97">
    <path clip-path="url(#peda3b3cf47)" d="M 479.037915 153.2 
L 482.374408 153.2 
L 482.374408 109.448248 
L 479.037915 109.448248 
z
" style="fill:#348abd;opacity:0.2;"/>
   </g>
   <g id="patch_98">
    <path clip-path="url(#peda3b3cf47)" d="M 483.208531 153.2 
L 486.545024 153.2 
L 486.545024 115.595502 
L 483.208531 115.595502 
z
" style="fill:#348abd;opacity:0.2;"/>
   </g>
   <g id="patch_99">
    <path clip-path="url(#peda3b3cf47)" d="M 487.379147 153.2 
L 490.71564 153.2 
L 490.71564 111.004034 
L 487.379147 111.004034 
z
" style="fill:#348abd;opacity:0.2;"/>
   </g>
   <g id="patch_100">
    <path clip-path="url(#peda3b3cf47)" d="M 491.549763 153.2 
L 494.886256 153.2 
L 494.886256 112.483929 
L 491.549763 112.483929 
z
" style="fill:#348abd;opacity:0.2;"/>
   </g>
   <g id="patch_101">
    <path clip-path="url(#peda3b3cf47)" d="M 495.720379 153.2 
L 499.056872 153.2 
L 499.056872 115.89907 
L 495.720379 115.89907 
z
" style="fill:#348abd;opacity:0.2;"/>
   </g>
   <g id="patch_102">
    <path clip-path="url(#peda3b3cf47)" d="M 499.890995 153.2 
L 503.227488 153.2 
L 503.227488 115.026312 
L 499.890995 115.026312 
z
" style="fill:#348abd;opacity:0.2;"/>
   </g>
   <g id="patch_103">
    <path clip-path="url(#peda3b3cf47)" d="M 504.061611 153.2 
L 507.398104 153.2 
L 507.398104 122.767298 
L 504.061611 122.767298 
z
" style="fill:#348abd;opacity:0.2;"/>
   </g>
   <g id="patch_104">
    <path clip-path="url(#peda3b3cf47)" d="M 508.232227 153.2 
L 511.56872 153.2 
L 511.56872 116.164692 
L 508.232227 116.164692 
z
" style="fill:#348abd;opacity:0.2;"/>
   </g>
   <g id="patch_105">
    <path clip-path="url(#peda3b3cf47)" d="M 512.402844 153.2 
L 515.739336 153.2 
L 515.739336 106.792027 
L 512.402844 106.792027 
z
" style="fill:#348abd;opacity:0.2;"/>
   </g>
   <g id="patch_106">
    <path clip-path="url(#peda3b3cf47)" d="M 516.57346 153.2 
L 519.909953 153.2 
L 519.909953 102.997426 
L 516.57346 102.997426 
z
" style="fill:#348abd;opacity:0.2;"/>
   </g>
   <g id="patch_107">
    <path clip-path="url(#peda3b3cf47)" d="M 520.744076 153.2 
L 524.080569 153.2 
L 524.080569 89.450699 
L 520.744076 89.450699 
z
" style="fill:#348abd;opacity:0.2;"/>
   </g>
   <g id="patch_108">
    <path clip-path="url(#peda3b3cf47)" d="M 524.914692 153.2 
L 528.251185 153.2 
L 528.251185 96.850172 
L 524.914692 96.850172 
z
" style="fill:#348abd;opacity:0.2;"/>
   </g>
   <g id="patch_109">
    <path clip-path="url(#peda3b3cf47)" d="M 529.085308 153.2 
L 532.421801 153.2 
L 532.421801 94.156005 
L 529.085308 94.156005 
z
" style="fill:#348abd;opacity:0.2;"/>
   </g>
   <g id="patch_110">
    <path clip-path="url(#peda3b3cf47)" d="M 533.255924 153.2 
L 536.592417 153.2 
L 536.592417 95.180547 
L 533.255924 95.180547 
z
" style="fill:#348abd;opacity:0.2;"/>
   </g>
   <g id="patch_111">
    <path clip-path="url(#peda3b3cf47)" d="M 537.42654 153.2 
L 540.763033 153.2 
L 540.763033 100.720665 
L 537.42654 100.720665 
z
" style="fill:#348abd;opacity:0.2;"/>
   </g>
   <g id="patch_112">
    <path clip-path="url(#peda3b3cf47)" d="M 541.597156 153.2 
L 544.933649 153.2 
L 544.933649 89.336861 
L 541.597156 89.336861 
z
" style="fill:#348abd;opacity:0.2;"/>
   </g>
   <g id="patch_113">
    <path clip-path="url(#peda3b3cf47)" d="M 545.767773 153.2 
L 549.104265 153.2 
L 549.104265 97.001956 
L 545.767773 97.001956 
z
" style="fill:#348abd;opacity:0.2;"/>
   </g>
   <g id="patch_114">
    <path clip-path="url(#peda3b3cf47)" d="M 549.938389 153.2 
L 553.274882 153.2 
L 553.274882 78.901708 
L 549.938389 78.901708 
z
" style="fill:#348abd;opacity:0.2;"/>
   </g>
   <g id="patch_115">
    <path clip-path="url(#peda3b3cf47)" d="M 554.109005 153.2 
L 557.445498 153.2 
L 557.445498 84.59361 
L 554.109005 84.59361 
z
" style="fill:#348abd;opacity:0.2;"/>
   </g>
   <g id="patch_116">
    <path clip-path="url(#peda3b3cf47)" d="M 558.279621 153.2 
L 561.616114 153.2 
L 561.616114 73.437482 
L 558.279621 73.437482 
z
" style="fill:#348abd;opacity:0.2;"/>
   </g>
   <g id="patch_117">
    <path clip-path="url(#peda3b3cf47)" d="M 562.450237 153.2 
L 565.78673 153.2 
L 565.78673 86.528857 
L 562.450237 86.528857 
z
" style="fill:#348abd;opacity:0.2;"/>
   </g>
   <g id="patch_118">
    <path clip-path="url(#peda3b3cf47)" d="M 566.620853 153.2 
L 569.957346 153.2 
L 569.957346 84.669502 
L 566.620853 84.669502 
z
" style="fill:#348abd;opacity:0.2;"/>
   </g>
   <g id="patch_119">
    <path clip-path="url(#peda3b3cf47)" d="M 570.791469 153.2 
L 574.127962 153.2 
L 574.127962 66.151848 
L 570.791469 66.151848 
z
" style="fill:#348abd;opacity:0.2;"/>
   </g>
   <g id="patch_120">
    <path clip-path="url(#peda3b3cf47)" d="M 574.962085 153.2 
L 578.298578 153.2 
L 578.298578 73.095968 
L 574.962085 73.095968 
z
" style="fill:#348abd;opacity:0.2;"/>
   </g>
   <g id="patch_121">
    <path clip-path="url(#peda3b3cf47)" d="M 579.132701 153.2 
L 582.469194 153.2 
L 582.469194 64.178655 
L 579.132701 64.178655 
z
" style="fill:#348abd;opacity:0.2;"/>
   </g>
   <g id="patch_122">
    <path clip-path="url(#peda3b3cf47)" d="M 583.303318 153.2 
L 586.63981 153.2 
L 586.63981 62.433139 
L 583.303318 62.433139 
z
" style="fill:#348abd;opacity:0.2;"/>
   </g>
   <g id="patch_123">
    <path clip-path="url(#peda3b3cf47)" d="M 587.473934 153.2 
L 590.810427 153.2 
L 590.810427 65.506766 
L 587.473934 65.506766 
z
" style="fill:#348abd;opacity:0.2;"/>
   </g>
   <g id="patch_124">
    <path clip-path="url(#peda3b3cf47)" d="M 591.64455 153.2 
L 594.981043 153.2 
L 594.981043 82.278903 
L 591.64455 82.278903 
z
" style="fill:#348abd;opacity:0.2;"/>
   </g>
   <g id="patch_125">
    <path clip-path="url(#peda3b3cf47)" d="M 595.815166 153.2 
L 599.151659 153.2 
L 599.151659 70.477693 
L 595.815166 70.477693 
z
" style="fill:#348abd;opacity:0.2;"/>
   </g>
   <g id="patch_126">
    <path clip-path="url(#peda3b3cf47)" d="M 599.985782 153.2 
L 603.322275 153.2 
L 603.322275 76.435217 
L 599.985782 76.435217 
z
" style="fill:#348abd;opacity:0.2;"/>
   </g>
   <g id="patch_127">
    <path clip-path="url(#peda3b3cf47)" d="M 604.156398 153.2 
L 607.492891 153.2 
L 607.492891 85.390476 
L 604.156398 85.390476 
z
" style="fill:#348abd;opacity:0.2;"/>
   </g>
   <g id="patch_128">
    <path clip-path="url(#peda3b3cf47)" d="M 608.327014 153.2 
L 611.663507 153.2 
L 611.663507 74.272295 
L 608.327014 74.272295 
z
" style="fill:#348abd;opacity:0.2;"/>
   </g>
   <g id="patch_129">
    <path clip-path="url(#peda3b3cf47)" d="M 612.49763 153.2 
L 615.834123 153.2 
L 615.834123 67.517904 
L 612.49763 67.517904 
z
" style="fill:#348abd;opacity:0.2;"/>
   </g>
   <g id="patch_130">
    <path clip-path="url(#peda3b3cf47)" d="M 616.668246 153.2 
L 620.004739 153.2 
L 620.004739 46.230192 
L 616.668246 46.230192 
z
" style="fill:#348abd;opacity:0.2;"/>
   </g>
   <g id="patch_131">
    <path clip-path="url(#peda3b3cf47)" d="M 620.838863 153.2 
L 624.175355 153.2 
L 624.175355 66.6072 
L 620.838863 66.6072 
z
" style="fill:#348abd;opacity:0.2;"/>
   </g>
   <g id="patch_132">
    <path clip-path="url(#peda3b3cf47)" d="M 625.009479 153.2 
L 628.345972 153.2 
L 628.345972 57.727833 
L 625.009479 57.727833 
z
" style="fill:#348abd;opacity:0.2;"/>
   </g>
   <g id="patch_133">
    <path clip-path="url(#peda3b3cf47)" d="M 629.180095 153.2 
L 632.516588 153.2 
L 632.516588 40.15883 
L 629.180095 40.15883 
z
" style="fill:#348abd;opacity:0.2;"/>
   </g>
   <g id="patch_134">
    <path clip-path="url(#peda3b3cf47)" d="M 633.350711 153.2 
L 636.687204 153.2 
L 636.687204 34.92228 
L 633.350711 34.92228 
z
" style="fill:#348abd;opacity:0.2;"/>
   </g>
   <g id="patch_135">
    <path clip-path="url(#peda3b3cf47)" d="M 637.521327 153.2 
L 640.85782 153.2 
L 640.85782 34.277198 
L 637.521327 34.277198 
z
" style="fill:#348abd;opacity:0.2;"/>
   </g>
   <g id="patch_136">
    <path clip-path="url(#peda3b3cf47)" d="M 641.691943 153.2 
L 645.028436 153.2 
L 645.028436 17.580952 
L 641.691943 17.580952 
z
" style="fill:#348abd;opacity:0.2;"/>
   </g>
   <g id="patch_137">
    <path clip-path="url(#peda3b3cf47)" d="M 645.862559 153.2 
L 649.199052 153.2 
L 649.199052 43.687809 
L 645.862559 43.687809 
z
" style="fill:#348abd;opacity:0.2;"/>
   </g>
   <g id="patch_138">
    <path clip-path="url(#peda3b3cf47)" d="M 650.033175 153.2 
L 653.369668 153.2 
L 653.369668 67.100498 
L 650.033175 67.100498 
z
" style="fill:#348abd;opacity:0.2;"/>
   </g>
   <g id="patch_139">
    <path clip-path="url(#peda3b3cf47)" d="M 654.203791 153.2 
L 657.540284 153.2 
L 657.540284 63.495627 
L 654.203791 63.495627 
z
" style="fill:#348abd;opacity:0.2;"/>
   </g>
   <g id="patch_140">
    <path clip-path="url(#peda3b3cf47)" d="M 658.374408 153.2 
L 661.7109 153.2 
L 661.7109 75.676297 
L 658.374408 75.676297 
z
" style="fill:#348abd;opacity:0.2;"/>
   </g>
   <g id="patch_141">
    <path clip-path="url(#peda3b3cf47)" d="M 662.545024 153.2 
L 665.881517 153.2 
L 665.881517 73.703104 
L 662.545024 73.703104 
z
" style="fill:#348abd;opacity:0.2;"/>
   </g>
   <g id="patch_142">
    <path clip-path="url(#peda3b3cf47)" d="M 666.71564 153.2 
L 670.052133 153.2 
L 670.052133 76.890569 
L 666.71564 76.890569 
z
" style="fill:#348abd;opacity:0.2;"/>
   </g>
   <g id="patch_143">
    <path clip-path="url(#peda3b3cf47)" d="M 670.886256 153.2 
L 674.222749 153.2 
L 674.222749 69.035745 
L 670.886256 69.035745 
z
" style="fill:#348abd;opacity:0.2;"/>
   </g>
   <g id="patch_144">
    <path clip-path="url(#peda3b3cf47)" d="M 675.056872 153.2 
L 678.393365 153.2 
L 678.393365 63.305897 
L 675.056872 63.305897 
z
" style="fill:#348abd;opacity:0.2;"/>
   </g>
   <g id="patch_145">
    <path clip-path="url(#peda3b3cf47)" d="M 679.227488 153.2 
L 682.563981 153.2 
L 682.563981 60.99119 
L 679.227488 60.99119 
z
" style="fill:#348abd;opacity:0.2;"/>
   </g>
   <g id="patch_146">
    <path clip-path="url(#peda3b3cf47)" d="M 683.398104 153.2 
L 686.734597 153.2 
L 686.734597 59.397458 
L 683.398104 59.397458 
z
" style="fill:#348abd;opacity:0.2;"/>
   </g>
   <g id="patch_147">
    <path clip-path="url(#peda3b3cf47)" d="M 687.56872 153.2 
L 690.905213 153.2 
L 690.905213 60.270216 
L 687.56872 60.270216 
z
" style="fill:#348abd;opacity:0.2;"/>
   </g>
   <g id="patch_148">
    <path clip-path="url(#peda3b3cf47)" d="M 691.739336 153.2 
L 695.075829 153.2 
L 695.075829 55.944371 
L 691.739336 55.944371 
z
" style="fill:#348abd;opacity:0.2;"/>
   </g>
   <g id="patch_149">
    <path clip-path="url(#peda3b3cf47)" d="M 695.909953 153.2 
L 699.246445 153.2 
L 699.246445 54.085016 
L 695.909953 54.085016 
z
" style="fill:#348abd;opacity:0.2;"/>
   </g>
   <g id="patch_150">
    <path clip-path="url(#peda3b3cf47)" d="M 700.080569 153.2 
L 703.417062 153.2 
L 703.417062 54.692152 
L 700.080569 54.692152 
z
" style="fill:#348abd;opacity:0.2;"/>
   </g>
   <g id="patch_151">
    <path clip-path="url(#peda3b3cf47)" d="M 704.251185 153.2 
L 707.587678 153.2 
L 707.587678 53.971178 
L 704.251185 53.971178 
z
" style="fill:#348abd;opacity:0.2;"/>
   </g>
   <g id="patch_152">
    <path clip-path="url(#peda3b3cf47)" d="M 708.421801 153.2 
L 711.758294 153.2 
L 711.758294 65.08936 
L 708.421801 65.08936 
z
" style="fill:#348abd;opacity:0.2;"/>
   </g>
   <g id="patch_153">
    <path clip-path="url(#peda3b3cf47)" d="M 712.592417 153.2 
L 715.92891 153.2 
L 715.92891 63.343843 
L 712.592417 63.343843 
z
" style="fill:#348abd;opacity:0.2;"/>
   </g>
   <g id="patch_154">
    <path clip-path="url(#peda3b3cf47)" d="M 716.763033 153.2 
L 720.099526 153.2 
L 720.099526 55.564911 
L 716.763033 55.564911 
z
" style="fill:#348abd;opacity:0.2;"/>
   </g>
   <g id="patch_155">
    <path clip-path="url(#peda3b3cf47)" d="M 720.933649 153.2 
L 724.270142 153.2 
L 724.270142 60.422 
L 720.933649 60.422 
z
" style="fill:#348abd;opacity:0.2;"/>
   </g>
   <g id="patch_156">
    <path clip-path="url(#peda3b3cf47)" d="M 725.104265 153.2 
L 728.440758 153.2 
L 728.440758 57.158643 
L 725.104265 57.158643 
z
" style="fill:#348abd;opacity:0.2;"/>
   </g>
   <g id="patch_157">
    <path clip-path="url(#peda3b3cf47)" d="M 729.274882 153.2 
L 732.611374 153.2 
L 732.611374 54.730098 
L 729.274882 54.730098 
z
" style="fill:#348abd;opacity:0.2;"/>
   </g>
   <g id="patch_158">
    <path clip-path="url(#peda3b3cf47)" d="M 733.445498 153.2 
L 736.781991 153.2 
L 736.781991 53.47788 
L 733.445498 53.47788 
z
" style="fill:#348abd;opacity:0.2;"/>
   </g>
   <g id="patch_159">
    <path clip-path="url(#peda3b3cf47)" d="M 737.616114 153.2 
L 740.952607 153.2 
L 740.952607 60.004594 
L 737.616114 60.004594 
z
" style="fill:#348abd;opacity:0.2;"/>
   </g>
   <g id="patch_160">
    <path clip-path="url(#peda3b3cf47)" d="M 741.78673 153.2 
L 745.123223 153.2 
L 745.123223 58.752376 
L 741.78673 58.752376 
z
" style="fill:#348abd;opacity:0.2;"/>
   </g>
   <g id="patch_161">
    <path clip-path="url(#peda3b3cf47)" d="M 745.957346 153.2 
L 749.293839 153.2 
L 749.293839 56.968913 
L 745.957346 56.968913 
z
" style="fill:#348abd;opacity:0.2;"/>
   </g>
   <g id="patch_162">
    <path clip-path="url(#peda3b3cf47)" d="M 750.127962 153.2 
L 753.464455 153.2 
L 753.464455 59.966648 
L 750.127962 59.966648 
z
" style="fill:#348abd;opacity:0.2;"/>
   </g>
   <g id="patch_163">
    <path clip-path="url(#peda3b3cf47)" d="M 754.298578 153.2 
L 757.635071 153.2 
L 757.635071 56.475615 
L 754.298578 56.475615 
z
" style="fill:#348abd;opacity:0.2;"/>
   </g>
   <g id="patch_164">
    <path clip-path="url(#peda3b3cf47)" d="M 758.469194 153.2 
L 761.805687 153.2 
L 761.805687 52.567176 
L 758.469194 52.567176 
z
" style="fill:#348abd;opacity:0.2;"/>
   </g>
   <g id="patch_165">
    <path clip-path="url(#peda3b3cf47)" d="M 762.63981 153.2 
L 765.976303 153.2 
L 765.976303 55.830533 
L 762.63981 55.830533 
z
" style="fill:#348abd;opacity:0.2;"/>
   </g>
   <g id="patch_166">
    <path clip-path="url(#peda3b3cf47)" d="M 766.810427 153.2 
L 770.146919 153.2 
L 770.146919 60.270216 
L 766.810427 60.270216 
z
" style="fill:#348abd;opacity:0.2;"/>
   </g>
   <g id="patch_167">
    <path clip-path="url(#peda3b3cf47)" d="M 770.981043 153.2 
L 774.317536 153.2 
L 774.317536 56.058209 
L 770.981043 56.058209 
z
" style="fill:#348abd;opacity:0.2;"/>
   </g>
   <g id="patch_168">
    <path clip-path="url(#peda3b3cf47)" d="M 775.151659 153.2 
L 778.488152 153.2 
L 778.488152 54.04707 
L 775.151659 54.04707 
z
" style="fill:#348abd;opacity:0.2;"/>
   </g>
   <g id="patch_169">
    <path clip-path="url(#peda3b3cf47)" d="M 779.322275 153.2 
L 782.658768 153.2 
L 782.658768 53.136366 
L 779.322275 53.136366 
z
" style="fill:#348abd;opacity:0.2;"/>
   </g>
   <g id="patch_170">
    <path clip-path="url(#peda3b3cf47)" d="M 783.492891 153.2 
L 786.829384 153.2 
L 786.829384 51.087281 
L 783.492891 51.087281 
z
" style="fill:#348abd;opacity:0.2;"/>
   </g>
   <g id="patch_171">
    <path clip-path="url(#peda3b3cf47)" d="M 787.663507 153.2 
L 791 153.2 
L 791 74.310241 
L 787.663507 74.310241 
z
" style="fill:#348abd;opacity:0.2;"/>
   </g>
   <g id="line2d_25">
    <path clip-path="url(#peda3b3cf47)" d="M 88.668246 153.2 
L 197.104265 153.120989 
L 209.616114 152.874059 
L 217.957346 152.413032 
L 222.127962 151.967982 
L 226.298578 151.242204 
L 230.469194 150.109174 
L 234.63981 148.339654 
L 238.810427 145.959391 
L 242.981043 143.113903 
L 247.151659 139.716589 
L 259.663507 128.470077 
L 263.834123 125.556678 
L 268.004739 123.415839 
L 272.175355 121.931597 
L 276.345972 120.645773 
L 280.516588 119.238902 
L 284.687204 117.709338 
L 293.028436 114.131152 
L 297.199052 112.261197 
L 301.369668 110.545693 
L 305.540284 109.25094 
L 309.7109 108.717009 
L 313.881517 108.925351 
L 318.052133 109.375697 
L 322.222749 109.554041 
L 326.393365 108.654725 
L 330.563981 106.193865 
L 334.734597 101.814283 
L 338.905213 95.424002 
L 343.075829 87.461616 
L 347.246445 78.212402 
L 351.417062 68.553281 
L 355.587678 59.480926 
L 359.758294 51.708597 
L 363.92891 46.063359 
L 368.099526 42.735902 
L 372.270142 41.669366 
L 376.440758 42.608172 
L 380.611374 45.08681 
L 384.781991 48.819564 
L 388.952607 53.486874 
L 401.464455 69.00808 
L 405.635071 73.603485 
L 409.805687 77.773505 
L 413.976303 81.444129 
L 418.146919 84.532095 
L 422.317536 87.11813 
L 426.488152 89.237846 
L 439 94.992496 
L 464.023697 106.342234 
L 468.194313 107.86713 
L 472.364929 109.11165 
L 476.535545 110.184706 
L 489.047393 112.806715 
L 493.218009 113.57335 
L 497.388626 114.088885 
L 501.559242 113.884698 
L 505.729858 112.831633 
L 509.900474 110.932762 
L 514.07109 108.307081 
L 518.241706 105.451907 
L 522.412322 102.429452 
L 526.582938 99.71119 
L 530.753555 97.380816 
L 534.924171 95.384269 
L 543.265403 91.850023 
L 547.436019 90.000423 
L 551.606635 87.855508 
L 555.777251 85.47303 
L 559.947867 82.917775 
L 568.2891 77.426374 
L 572.459716 75.026215 
L 576.630332 73.062629 
L 580.800948 71.692778 
L 584.971564 71.011673 
L 589.14218 71.108831 
L 597.483412 72.429765 
L 601.654028 72.692172 
L 605.824645 72.09589 
L 609.995261 70.312648 
L 614.165877 67.449137 
L 618.336493 63.414166 
L 622.507109 58.295171 
L 626.677725 52.960753 
L 630.848341 48.182333 
L 635.018957 44.868351 
L 639.189573 43.658427 
L 643.36019 44.539203 
L 647.530806 47.410708 
L 651.701422 51.776194 
L 660.042654 61.931942 
L 664.21327 65.667594 
L 668.383886 67.613591 
L 672.554502 67.858318 
L 676.725118 66.576604 
L 680.895735 64.548848 
L 685.066351 62.273148 
L 689.236967 60.215991 
L 693.407583 58.785759 
L 697.578199 57.972961 
L 701.748815 57.783528 
L 710.090047 58.079188 
L 714.260664 58.27187 
L 718.43128 58.338577 
L 722.601896 58.287088 
L 739.28436 57.276318 
L 760.137441 56.827384 
L 764.308057 56.440487 
L 768.478673 56.20972 
L 772.649289 56.231453 
L 776.819905 56.558376 
L 785.161137 57.747464 
L 789.331754 58.134624 
L 789.331754 58.134624 
" style="fill:none;stroke:#348abd;stroke-linecap:square;stroke-width:3;"/>
   </g>
   <g id="line2d_26">
    <defs>
     <path d="M 0 3 
C 0.795609 3 1.55874 2.683901 2.12132 2.12132 
C 2.683901 1.55874 3 0.795609 3 0 
C 3 -0.795609 2.683901 -1.55874 2.12132 -2.12132 
C 1.55874 -2.683901 0.795609 -3 0 -3 
C -0.795609 -3 -1.55874 -2.683901 -2.12132 -2.12132 
C -2.683901 -1.55874 -3 -0.795609 -3 0 
C -3 0.795609 -2.683901 1.55874 -2.12132 2.12132 
C -1.55874 2.683901 -0.795609 3 0 3 
z
" id="m9d076ddb69" style="stroke:#e24a33;stroke-opacity:0.001;"/>
    </defs>
    <g clip-path="url(#peda3b3cf47)">
     <use style="fill:#e24a33;fill-opacity:0.001;stroke:#e24a33;stroke-opacity:0.001;" x="439" xlink:href="#m9d076ddb69" y="82"/>
    </g>
   </g>
   <g id="patch_172">
    <path d="M 51.8 153.2 
L 51.8 10.8 
" style="fill:none;stroke:#ffffff;stroke-linecap:square;stroke-linejoin:miter;"/>
   </g>
   <g id="patch_173">
    <path d="M 826.2 153.2 
L 826.2 10.8 
" style="fill:none;stroke:#ffffff;stroke-linecap:square;stroke-linejoin:miter;"/>
   </g>
   <g id="patch_174">
    <path d="M 51.8 153.2 
L 826.2 153.2 
" style="fill:none;stroke:#ffffff;stroke-linecap:square;stroke-linejoin:miter;"/>
   </g>
   <g id="patch_175">
    <path d="M 51.8 10.8 
L 826.2 10.8 
" style="fill:none;stroke:#ffffff;stroke-linecap:square;stroke-linejoin:miter;"/>
   </g>
   <g id="legend_1">
    <g id="patch_176">
     <path d="M 58.8 60.210938 
L 235.8 60.210938 
Q 237.8 60.210938 237.8 58.210938 
L 237.8 17.8 
Q 237.8 15.8 235.8 15.8 
L 58.8 15.8 
Q 56.8 15.8 56.8 17.8 
L 56.8 58.210938 
Q 56.8 60.210938 58.8 60.210938 
z
" style="fill:#e5e5e5;opacity:0.8;stroke:#cccccc;stroke-linejoin:miter;stroke-width:0.5;"/>
    </g>
    <g id="patch_177">
     <path d="M 60.8 26.8 
L 80.8 26.8 
L 80.8 19.8 
L 60.8 19.8 
z
" style="fill:#348abd;opacity:0.2;"/>
    </g>
    <g id="text_16">
     <!-- Iran new cases -->
     <defs>
      <path d="M 8.09375 0 
L 8.09375 5.90625 
L 20.40625 5.90625 
L 20.40625 56.40625 
L 8.796875 56.40625 
L 8.796875 62.296875 
L 39.703125 62.296875 
L 39.703125 56.40625 
L 27.40625 56.40625 
L 27.40625 5.796875 
L 40.296875 5.796875 
L 40.296875 0 
z
" id="Inconsolata-Regular-73"/>
      <path d="M 11.90625 45.703125 
L 19.40625 45.703125 
L 19.203125 37.296875 
Q 21.09375 41.90625 25.09375 44.34375 
Q 29.09375 46.796875 33.703125 46.796875 
Q 41 46.796875 45.796875 41.796875 
L 42.59375 36.203125 
L 42.203125 35.296875 
L 41.5 35.703125 
Q 41.296875 36.5 40.890625 37.203125 
Q 40.5 37.90625 39.203125 38.90625 
Q 37.59375 39.90625 36.25 40.25 
Q 34.90625 40.59375 33.203125 40.59375 
Q 29.90625 40.59375 26.65625 38.890625 
Q 23.40625 37.203125 21.296875 33.59375 
Q 19.203125 30 19.203125 24.203125 
L 19.203125 -0.09375 
L 11.90625 -0.09375 
z
" id="Inconsolata-Regular-114"/>
      <path d="M 10.796875 -0.09375 
L 1.59375 45.703125 
L 7.90625 45.703125 
L 15.296875 9 
L 23.09375 41.40625 
L 27.5 41.40625 
L 37.203125 9.09375 
Q 38.5 18 39.34375 23.703125 
Q 40.203125 29.40625 40.640625 33.046875 
Q 41.09375 36.703125 41.25 39.203125 
Q 41.40625 41.703125 41.40625 44.203125 
L 41.40625 45.703125 
L 48.09375 45.703125 
Q 45.09375 22.5 40.5 -0.09375 
L 33.703125 -0.09375 
L 25.296875 29.5 
L 17.296875 -0.09375 
z
" id="Inconsolata-Regular-119"/>
      <path d="M 25.09375 -1 
Q 13.5 -1 5.703125 6.203125 
L 9.703125 13 
L 10.296875 13.90625 
L 10.90625 13.5 
Q 11.09375 12.703125 11.34375 11.84375 
Q 11.59375 11 12.703125 9.796875 
Q 14.796875 7.703125 17.75 6.34375 
Q 20.703125 5 25.296875 5 
Q 30.796875 5 33.84375 6.953125 
Q 36.90625 8.90625 36.90625 12.296875 
Q 36.90625 15.203125 34.34375 17.09375 
Q 31.796875 19 25.40625 21.09375 
Q 17.5 23.40625 12.84375 26.796875 
Q 8.203125 30.203125 8.203125 35.296875 
Q 8.203125 40.5 12.453125 43.640625 
Q 16.703125 46.796875 25 46.796875 
Q 31.40625 46.796875 35.59375 45 
Q 39.796875 43.203125 43.203125 39.59375 
L 39.09375 34.59375 
L 38.40625 33.796875 
L 37.90625 34.296875 
Q 37.796875 35.09375 37.4375 35.84375 
Q 37.09375 36.59375 36 37.703125 
Q 33.703125 39.5 30.796875 40.453125 
Q 27.90625 41.40625 25.203125 41.40625 
Q 21.203125 41.40625 18.296875 40 
Q 15.40625 38.59375 15.40625 35.703125 
Q 15.40625 34.203125 16.453125 32.75 
Q 17.5 31.296875 20.296875 29.84375 
Q 23.09375 28.40625 28.296875 26.90625 
Q 36.90625 24.296875 40.453125 21.25 
Q 44 18.203125 44 13.296875 
Q 44 9.5 41.953125 6.203125 
Q 39.90625 2.90625 35.703125 0.953125 
Q 31.5 -1 25.09375 -1 
z
" id="Inconsolata-Regular-115"/>
     </defs>
     <g transform="translate(88.8 26.8)scale(0.1 -0.1)">
      <use xlink:href="#Inconsolata-Regular-73"/>
      <use x="49.999985" xlink:href="#Inconsolata-Regular-114"/>
      <use x="99.999969" xlink:href="#Inconsolata-Regular-97"/>
      <use x="149.999954" xlink:href="#Inconsolata-Regular-110"/>
      <use x="199.999939" xlink:href="#Inconsolata-Regular-32"/>
      <use x="249.999924" xlink:href="#Inconsolata-Regular-110"/>
      <use x="299.999908" xlink:href="#Inconsolata-Regular-101"/>
      <use x="349.999893" xlink:href="#Inconsolata-Regular-119"/>
      <use x="399.999878" xlink:href="#Inconsolata-Regular-32"/>
      <use x="449.999863" xlink:href="#Inconsolata-Regular-99"/>
      <use x="499.999847" xlink:href="#Inconsolata-Regular-97"/>
      <use x="549.999832" xlink:href="#Inconsolata-Regular-115"/>
      <use x="599.999817" xlink:href="#Inconsolata-Regular-101"/>
      <use x="649.999802" xlink:href="#Inconsolata-Regular-115"/>
     </g>
    </g>
    <g id="line2d_27">
     <path d="M 60.8 37.320313 
L 80.8 37.320313 
" style="fill:none;stroke:#348abd;stroke-linecap:square;stroke-width:3;"/>
    </g>
    <g id="line2d_28"/>
    <g id="text_17">
     <!-- Iran new cases (rolling mean) -->
     <defs>
      <path d="M 39.5 -10.40625 
Q 31.203125 -6.5 25.046875 0.046875 
Q 18.90625 6.59375 15.546875 14.84375 
Q 12.203125 23.09375 12.203125 32 
Q 12.203125 40.90625 15.5 48.953125 
Q 18.796875 57 24.796875 63.34375 
Q 30.796875 69.703125 38.90625 73.5 
L 40.796875 67.296875 
Q 34.40625 63.796875 29.546875 58.296875 
Q 24.703125 52.796875 22 46 
Q 19.296875 39.203125 19.296875 31.703125 
Q 19.296875 24.203125 22 17.296875 
Q 24.703125 10.40625 29.703125 4.796875 
Q 34.703125 -0.796875 41.40625 -4.40625 
z
" id="Inconsolata-Regular-40"/>
      <path d="M 25 -0.796875 
Q 18.796875 -0.796875 14.046875 2.25 
Q 9.296875 5.296875 6.59375 10.640625 
Q 3.90625 16 3.90625 22.90625 
Q 3.90625 29.90625 6.59375 35.25 
Q 9.296875 40.59375 14.046875 43.640625 
Q 18.796875 46.703125 25 46.703125 
Q 31.203125 46.703125 35.953125 43.640625 
Q 40.703125 40.59375 43.390625 35.25 
Q 46.09375 29.90625 46.09375 22.90625 
Q 46.09375 16 43.390625 10.640625 
Q 40.703125 5.296875 35.953125 2.25 
Q 31.203125 -0.796875 25 -0.796875 
z
M 25 5.203125 
Q 29 5.203125 32 7.5 
Q 35 9.796875 36.75 13.796875 
Q 38.5 17.796875 38.5 23 
Q 38.5 30.796875 34.703125 35.75 
Q 30.90625 40.703125 25 40.703125 
Q 19.09375 40.703125 15.296875 35.75 
Q 11.5 30.796875 11.5 23 
Q 11.5 17.796875 13.25 13.796875 
Q 15 9.796875 18.046875 7.5 
Q 21.09375 5.203125 25 5.203125 
z
" id="Inconsolata-Regular-111"/>
      <path d="M 3.796875 0 
L 3.796875 45.703125 
L 10.40625 45.703125 
L 10.40625 41.203125 
Q 12 43.703125 14.5 45.25 
Q 17 46.796875 19.703125 46.796875 
Q 22.703125 46.796875 24.953125 44.890625 
Q 27.203125 43 27.796875 40.09375 
Q 29.09375 43.09375 31.890625 44.9375 
Q 34.703125 46.796875 38.09375 46.796875 
Q 42.796875 46.796875 44.9375 43.4375 
Q 47.09375 40.09375 46.90625 35.09375 
L 46.90625 0 
L 40.296875 0 
L 40.296875 32.40625 
Q 40.296875 36.59375 39.75 38.5 
Q 39.203125 40.40625 38.203125 40.953125 
Q 37.203125 41.5 36 41.5 
Q 34.09375 41.5 32.4375 39.75 
Q 30.796875 38 29.75 35.390625 
Q 28.703125 32.796875 28.703125 30.203125 
L 28.703125 0 
L 22 0 
L 22 31.796875 
Q 22 37.5 20.953125 39.390625 
Q 19.90625 41.296875 17 41.296875 
Q 14.796875 41.296875 12.59375 38.4375 
Q 10.40625 35.59375 10.40625 30.5 
L 10.40625 0 
z
" id="Inconsolata-Regular-109"/>
      <path d="M 13.25 -10.40625 
Q 21.546875 -6.5 27.6875 0.046875 
Q 33.84375 6.59375 37.1875 14.84375 
Q 40.546875 23.09375 40.546875 32 
Q 40.546875 40.90625 37.25 48.953125 
Q 33.953125 57 27.953125 63.34375 
Q 21.953125 69.703125 13.84375 73.5 
L 11.953125 67.296875 
Q 18.34375 63.796875 23.1875 58.296875 
Q 28.046875 52.796875 30.75 46 
Q 33.453125 39.203125 33.453125 31.703125 
Q 33.453125 24.203125 30.75 17.296875 
Q 28.046875 10.40625 23.046875 4.796875 
Q 18.046875 -0.796875 11.34375 -4.40625 
z
" id="Inconsolata-Regular-41"/>
     </defs>
     <g transform="translate(88.8 40.820313)scale(0.1 -0.1)">
      <use xlink:href="#Inconsolata-Regular-73"/>
      <use x="49.999985" xlink:href="#Inconsolata-Regular-114"/>
      <use x="99.999969" xlink:href="#Inconsolata-Regular-97"/>
      <use x="149.999954" xlink:href="#Inconsolata-Regular-110"/>
      <use x="199.999939" xlink:href="#Inconsolata-Regular-32"/>
      <use x="249.999924" xlink:href="#Inconsolata-Regular-110"/>
      <use x="299.999908" xlink:href="#Inconsolata-Regular-101"/>
      <use x="349.999893" xlink:href="#Inconsolata-Regular-119"/>
      <use x="399.999878" xlink:href="#Inconsolata-Regular-32"/>
      <use x="449.999863" xlink:href="#Inconsolata-Regular-99"/>
      <use x="499.999847" xlink:href="#Inconsolata-Regular-97"/>
      <use x="549.999832" xlink:href="#Inconsolata-Regular-115"/>
      <use x="599.999817" xlink:href="#Inconsolata-Regular-101"/>
      <use x="649.999802" xlink:href="#Inconsolata-Regular-115"/>
      <use x="699.999786" xlink:href="#Inconsolata-Regular-32"/>
      <use x="749.999771" xlink:href="#Inconsolata-Regular-40"/>
      <use x="799.999756" xlink:href="#Inconsolata-Regular-114"/>
      <use x="849.999741" xlink:href="#Inconsolata-Regular-111"/>
      <use x="899.999725" xlink:href="#Inconsolata-Regular-108"/>
      <use x="949.99971" xlink:href="#Inconsolata-Regular-108"/>
      <use x="999.999695" xlink:href="#Inconsolata-Regular-105"/>
      <use x="1049.99968" xlink:href="#Inconsolata-Regular-110"/>
      <use x="1099.999664" xlink:href="#Inconsolata-Regular-103"/>
      <use x="1149.999649" xlink:href="#Inconsolata-Regular-32"/>
      <use x="1199.999634" xlink:href="#Inconsolata-Regular-109"/>
      <use x="1249.999619" xlink:href="#Inconsolata-Regular-101"/>
      <use x="1299.999603" xlink:href="#Inconsolata-Regular-97"/>
      <use x="1349.999588" xlink:href="#Inconsolata-Regular-110"/>
      <use x="1399.999573" xlink:href="#Inconsolata-Regular-41"/>
     </g>
    </g>
    <g id="line2d_29"/>
    <g id="line2d_30">
     <g>
      <use style="fill:#e24a33;fill-opacity:0.001;stroke:#e24a33;stroke-opacity:0.001;" x="70.8" xlink:href="#m9d076ddb69" y="51.040625"/>
     </g>
    </g>
    <g id="text_18">
     <!-- [last updated: 10/07/2020] -->
     <defs>
      <path d="M 13.09375 -8.90625 
L 13.09375 67 
L 41.703125 67 
L 41.703125 61 
L 19.5 61 
L 19.5 -3.203125 
L 41.796875 -3.203125 
L 41.796875 -8.90625 
z
" id="Inconsolata-Regular-91"/>
      <path d="M 29.90625 -0.703125 
Q 24 -0.703125 20.953125 2 
Q 17.90625 4.703125 16.90625 10.34375 
Q 15.90625 16 16.203125 24.796875 
L 16.796875 39.796875 
L 7 39.796875 
L 7 45.703125 
L 17 45.703125 
L 17.40625 57.40625 
L 24.90625 58.296875 
L 25.90625 58.40625 
L 26 57.703125 
Q 25.5 57 25.140625 56.296875 
Q 24.796875 55.59375 24.59375 53.90625 
L 23.90625 45.703125 
L 39.90625 45.703125 
L 39.90625 39.796875 
L 24 39.796875 
L 23.296875 24.296875 
Q 23 16.703125 23.703125 12.546875 
Q 24.40625 8.40625 26.203125 6.84375 
Q 28 5.296875 31 5.296875 
Q 34.296875 5.296875 36.84375 6.59375 
Q 39.40625 7.90625 42.203125 9.90625 
L 44.40625 4.203125 
Q 41 1.703125 37.390625 0.5 
Q 33.796875 -0.703125 29.90625 -0.703125 
z
" id="Inconsolata-Regular-116"/>
      <path d="M 22.09375 -1.09375 
Q 15.296875 -1.09375 10.796875 4 
Q 6.296875 9.09375 6.40625 20.203125 
L 6.5 45.703125 
L 13.5 45.703125 
L 13.5 20.203125 
Q 13.5 11.5 16.546875 8.09375 
Q 19.59375 4.703125 23.90625 4.703125 
Q 27.09375 4.703125 29.890625 6.390625 
Q 32.703125 8.09375 34.453125 11.59375 
Q 36.203125 15.09375 36.203125 20.5 
L 36.203125 45.703125 
L 43.203125 45.703125 
L 43.203125 7.09375 
Q 43.203125 5.296875 43.34375 3.546875 
Q 43.5 1.796875 44.203125 0 
L 37.296875 0 
Q 36.59375 1.703125 36.4375 3.5 
Q 36.296875 5.296875 36.296875 7 
Q 34.09375 3.203125 30.34375 1.046875 
Q 26.59375 -1.09375 22.09375 -1.09375 
z
" id="Inconsolata-Regular-117"/>
      <path d="M 6 -16.703125 
L 6 45.703125 
L 13.296875 45.703125 
L 13.296875 36.703125 
Q 14.90625 41.90625 18.65625 44.296875 
Q 22.40625 46.703125 27.203125 46.703125 
Q 32.296875 46.703125 36.640625 44.140625 
Q 41 41.59375 43.640625 36.390625 
Q 46.296875 31.203125 46.296875 23.203125 
Q 46.296875 15.203125 43.5 9.75 
Q 40.703125 4.296875 36.296875 1.546875 
Q 31.90625 -1.203125 27 -1.203125 
Q 22.90625 -1.203125 19.296875 0.6875 
Q 15.703125 2.59375 13.40625 6 
L 13.40625 -16.703125 
z
M 25.796875 5.203125 
Q 29 5.203125 32 6.75 
Q 35 8.296875 36.890625 12.1875 
Q 38.796875 16.09375 38.796875 22.90625 
Q 38.796875 31.09375 35.6875 35.640625 
Q 32.59375 40.203125 26.90625 40.5 
Q 23.203125 40.703125 20.09375 38.84375 
Q 17 37 15.140625 32.703125 
Q 13.296875 28.40625 13.296875 21.296875 
Q 13.5 13.203125 16.890625 9.203125 
Q 20.296875 5.203125 25.796875 5.203125 
z
" id="Inconsolata-Regular-112"/>
      <path d="M 23.796875 30.796875 
Q 21.5 30.796875 19.703125 32.5 
Q 17.90625 34.203125 17.90625 36.5 
Q 17.90625 38.90625 19.703125 40.59375 
Q 21.5 42.296875 23.796875 42.296875 
Q 26.09375 42.296875 27.9375 40.59375 
Q 29.796875 38.90625 29.796875 36.5 
Q 29.796875 34.203125 28 32.5 
Q 26.203125 30.796875 23.796875 30.796875 
z
M 23.796875 -1.09375 
Q 21.296875 -1.09375 19.59375 0.546875 
Q 17.90625 2.203125 17.90625 4.59375 
Q 17.90625 7 19.703125 8.703125 
Q 21.5 10.40625 23.796875 10.40625 
Q 26.09375 10.40625 27.9375 8.703125 
Q 29.796875 7 29.796875 4.59375 
Q 29.796875 2.296875 28.046875 0.59375 
Q 26.296875 -1.09375 23.796875 -1.09375 
z
" id="Inconsolata-Regular-58"/>
      <path d="M 12.296875 -4.203125 
L 6.40625 -1.296875 
L 37.703125 66.5 
L 43.703125 63.40625 
z
" id="Inconsolata-Regular-47"/>
      <path d="M 41.78125 -8.90625 
L 41.78125 67 
L 13.171875 67 
L 13.171875 61 
L 35.375 61 
L 35.375 -3.203125 
L 13.078125 -3.203125 
L 13.078125 -8.90625 
z
" id="Inconsolata-Regular-93"/>
     </defs>
     <g transform="translate(88.8 54.540625)scale(0.1 -0.1)">
      <use xlink:href="#Inconsolata-Regular-91"/>
      <use x="49.999985" xlink:href="#Inconsolata-Regular-108"/>
      <use x="99.999969" xlink:href="#Inconsolata-Regular-97"/>
      <use x="149.999954" xlink:href="#Inconsolata-Regular-115"/>
      <use x="199.999939" xlink:href="#Inconsolata-Regular-116"/>
      <use x="249.999924" xlink:href="#Inconsolata-Regular-32"/>
      <use x="299.999908" xlink:href="#Inconsolata-Regular-117"/>
      <use x="349.999893" xlink:href="#Inconsolata-Regular-112"/>
      <use x="399.999878" xlink:href="#Inconsolata-Regular-100"/>
      <use x="449.999863" xlink:href="#Inconsolata-Regular-97"/>
      <use x="499.999847" xlink:href="#Inconsolata-Regular-116"/>
      <use x="549.999832" xlink:href="#Inconsolata-Regular-101"/>
      <use x="599.999817" xlink:href="#Inconsolata-Regular-100"/>
      <use x="649.999802" xlink:href="#Inconsolata-Regular-58"/>
      <use x="699.999786" xlink:href="#Inconsolata-Regular-32"/>
      <use x="749.999771" xlink:href="#Inconsolata-Regular-49"/>
      <use x="799.999756" xlink:href="#Inconsolata-Regular-48"/>
      <use x="849.999741" xlink:href="#Inconsolata-Regular-47"/>
      <use x="899.999725" xlink:href="#Inconsolata-Regular-48"/>
      <use x="949.99971" xlink:href="#Inconsolata-Regular-55"/>
      <use x="999.999695" xlink:href="#Inconsolata-Regular-47"/>
      <use x="1049.99968" xlink:href="#Inconsolata-Regular-50"/>
      <use x="1099.999664" xlink:href="#Inconsolata-Regular-48"/>
      <use x="1149.999649" xlink:href="#Inconsolata-Regular-50"/>
      <use x="1199.999634" xlink:href="#Inconsolata-Regular-48"/>
      <use x="1249.999619" xlink:href="#Inconsolata-Regular-93"/>
     </g>
    </g>
   </g>
  </g>
 </g>
 <defs>
  <clipPath id="peda3b3cf47">
   <rect height="142.4" width="774.4" x="51.8" y="10.8"/>
  </clipPath>
 </defs>
</svg>
