<?xml version="1.0" encoding="utf-8" standalone="no"?>
<!DOCTYPE svg PUBLIC "-//W3C//DTD SVG 1.1//EN"
  "http://www.w3.org/Graphics/SVG/1.1/DTD/svg11.dtd">
<!-- Created with matplotlib (https://matplotlib.org/) -->
<svg height="180pt" version="1.1" viewBox="0 0 720 180" width="720pt" xmlns="http://www.w3.org/2000/svg" xmlns:xlink="http://www.w3.org/1999/xlink">
 <defs>
  <style type="text/css">
*{stroke-linecap:butt;stroke-linejoin:round;}
  </style>
 </defs>
 <g id="figure_1">
  <g id="patch_1">
   <path d="M 0 180 
L 720 180 
L 720 0 
L 0 0 
z
" style="fill:#ffffff;"/>
  </g>
  <g id="axes_1">
   <g id="patch_2">
    <path d="M 90 157.5 
L 648 157.5 
L 648 21.6 
L 90 21.6 
z
" style="fill:#e5e5e5;"/>
   </g>
   <g id="matplotlib.axis_1">
    <g id="xtick_1">
     <g id="line2d_1">
      <path clip-path="url(#p1a0682dd47)" d="M 145.379774 157.5 
L 145.379774 21.6 
" style="fill:none;stroke:#ffffff;stroke-linecap:square;stroke-width:0.8;"/>
     </g>
     <g id="line2d_2">
      <defs>
       <path d="M 0 0 
L 0 3.5 
" id="m22c7b01a01" style="stroke:#555555;stroke-width:0.8;"/>
      </defs>
      <g>
       <use style="fill:#555555;stroke:#555555;stroke-width:0.8;" x="145.379774" xlink:href="#m22c7b01a01" y="157.5"/>
      </g>
     </g>
     <g id="text_1">
      <!-- 2020-02 -->
      <defs>
       <path d="M 7.296875 5.59375 
Q 14 12.5 19.390625 17.84375 
Q 24.796875 23.203125 28.59375 27.640625 
Q 32.40625 32.09375 34.40625 36.296875 
Q 36.40625 40.5 36.40625 45.09375 
Q 36.40625 51.59375 33.296875 54.09375 
Q 30.203125 56.59375 25.796875 56.59375 
Q 22.203125 56.59375 19.046875 55.046875 
Q 15.90625 53.5 13.296875 50.296875 
Q 12.40625 48.90625 12.203125 48.15625 
Q 12 47.40625 12.09375 46.59375 
L 11.703125 46.09375 
L 10.90625 46.59375 
L 5.796875 50.59375 
Q 8.796875 56.40625 14.046875 59.546875 
Q 19.296875 62.703125 25.703125 62.703125 
Q 33.59375 62.703125 38.59375 57.953125 
Q 43.59375 53.203125 43.59375 44.90625 
Q 43.59375 39.703125 41.296875 35 
Q 39 30.296875 35.140625 25.6875 
Q 31.296875 21.09375 26.390625 16.296875 
Q 21.5 11.5 16.296875 6.09375 
L 39.5 6.09375 
Q 41.203125 6.09375 41.890625 6.296875 
Q 42.59375 6.5 43.203125 7.09375 
L 43.90625 7.09375 
L 43.90625 0 
L 7.296875 0 
z
" id="Inconsolata-Regular-50"/>
       <path d="M 25 -1.09375 
Q 15.703125 -1.09375 10.703125 7.203125 
Q 5.703125 15.5 5.703125 30.796875 
Q 5.703125 45.59375 10.703125 54.140625 
Q 15.703125 62.703125 25 62.703125 
Q 34.296875 62.703125 39.296875 54.140625 
Q 44.296875 45.59375 44.296875 30.796875 
Q 44.296875 15.5 39.296875 7.203125 
Q 34.296875 -1.09375 25 -1.09375 
z
M 12.90625 30.796875 
Q 12.90625 24.40625 13.796875 19.40625 
L 35 46.703125 
Q 33.5 51.40625 30.953125 54 
Q 28.40625 56.59375 25 56.59375 
Q 19.296875 56.59375 16.09375 49.59375 
Q 12.90625 42.59375 12.90625 30.796875 
z
M 25 5 
Q 30.703125 5 33.890625 11.703125 
Q 37.09375 18.40625 37.09375 30.796875 
Q 37.09375 36.296875 36.40625 40.796875 
L 15.203125 13.90625 
Q 18.296875 5 25 5 
z
" id="Inconsolata-Regular-48"/>
       <path d="M 11.09375 28.09375 
L 11.09375 34.796875 
L 39.09375 34.796875 
L 39.09375 28.09375 
z
" id="Inconsolata-Regular-45"/>
      </defs>
      <g style="fill:#555555;" transform="translate(127.879774 171.15)scale(0.1 -0.1)">
       <use xlink:href="#Inconsolata-Regular-50"/>
       <use x="49.999985" xlink:href="#Inconsolata-Regular-48"/>
       <use x="99.999969" xlink:href="#Inconsolata-Regular-50"/>
       <use x="149.999954" xlink:href="#Inconsolata-Regular-48"/>
       <use x="199.999939" xlink:href="#Inconsolata-Regular-45"/>
       <use x="249.999924" xlink:href="#Inconsolata-Regular-48"/>
       <use x="299.999908" xlink:href="#Inconsolata-Regular-50"/>
      </g>
     </g>
    </g>
    <g id="xtick_2">
     <g id="line2d_3">
      <path clip-path="url(#p1a0682dd47)" d="M 232.426573 157.5 
L 232.426573 21.6 
" style="fill:none;stroke:#ffffff;stroke-linecap:square;stroke-width:0.8;"/>
     </g>
     <g id="line2d_4">
      <g>
       <use style="fill:#555555;stroke:#555555;stroke-width:0.8;" x="232.426573" xlink:href="#m22c7b01a01" y="157.5"/>
      </g>
     </g>
     <g id="text_2">
      <!-- 2020-03 -->
      <defs>
       <path d="M 24 -1.09375 
Q 19.09375 -1.09375 14.59375 0.703125 
Q 10.09375 2.5 6.90625 6 
L 11.5 11.5 
L 12.203125 12.296875 
L 12.703125 11.796875 
Q 12.796875 11 13.09375 10.25 
Q 13.40625 9.5 14.5 8.296875 
Q 16.203125 6.796875 18.390625 5.84375 
Q 20.59375 4.90625 23.703125 4.90625 
Q 29.703125 4.90625 32.59375 8.40625 
Q 35.5 11.90625 35.5 17.40625 
Q 35.5 24.5 30.75 27.453125 
Q 26 30.40625 18 29.59375 
L 18 35.203125 
Q 24.5 35.203125 27.796875 36.890625 
Q 31.09375 38.59375 32.25 41.4375 
Q 33.40625 44.296875 33.40625 47.5 
Q 33.40625 51.796875 30.953125 54.25 
Q 28.5 56.703125 24.5 56.703125 
Q 21.5 56.703125 18.640625 55.703125 
Q 15.796875 54.703125 13.09375 52.09375 
L 8.90625 56.296875 
Q 12.296875 59.796875 16.34375 61.25 
Q 20.40625 62.703125 24.40625 62.703125 
Q 32 62.703125 36.296875 58.390625 
Q 40.59375 54.09375 40.59375 47.203125 
Q 40.59375 42.296875 38.1875 38.4375 
Q 35.796875 34.59375 30.796875 33 
Q 36.09375 31.296875 39.390625 27.390625 
Q 42.703125 23.5 42.703125 17.09375 
Q 42.703125 12.203125 40.546875 8.046875 
Q 38.40625 3.90625 34.25 1.40625 
Q 30.09375 -1.09375 24 -1.09375 
z
" id="Inconsolata-Regular-51"/>
      </defs>
      <g style="fill:#555555;" transform="translate(214.926573 171.15)scale(0.1 -0.1)">
       <use xlink:href="#Inconsolata-Regular-50"/>
       <use x="49.999985" xlink:href="#Inconsolata-Regular-48"/>
       <use x="99.999969" xlink:href="#Inconsolata-Regular-50"/>
       <use x="149.999954" xlink:href="#Inconsolata-Regular-48"/>
       <use x="199.999939" xlink:href="#Inconsolata-Regular-45"/>
       <use x="249.999924" xlink:href="#Inconsolata-Regular-48"/>
       <use x="299.999908" xlink:href="#Inconsolata-Regular-51"/>
      </g>
     </g>
    </g>
    <g id="xtick_3">
     <g id="line2d_5">
      <path clip-path="url(#p1a0682dd47)" d="M 325.4766 157.5 
L 325.4766 21.6 
" style="fill:none;stroke:#ffffff;stroke-linecap:square;stroke-width:0.8;"/>
     </g>
     <g id="line2d_6">
      <g>
       <use style="fill:#555555;stroke:#555555;stroke-width:0.8;" x="325.4766" xlink:href="#m22c7b01a01" y="157.5"/>
      </g>
     </g>
     <g id="text_3">
      <!-- 2020-04 -->
      <defs>
       <path d="M 31.796875 0 
L 31.796875 15.296875 
L 4.796875 15.296875 
L 4.796875 20.40625 
L 33.296875 62.40625 
L 39.203125 62.40625 
L 39.203125 21.09375 
L 47.203125 21.09375 
L 47.203125 15.203125 
L 39.203125 15.203125 
L 39.203125 0 
z
M 12.90625 21.203125 
L 31.796875 21.203125 
L 31.796875 49.796875 
z
" id="Inconsolata-Regular-52"/>
      </defs>
      <g style="fill:#555555;" transform="translate(307.9766 171.15)scale(0.1 -0.1)">
       <use xlink:href="#Inconsolata-Regular-50"/>
       <use x="49.999985" xlink:href="#Inconsolata-Regular-48"/>
       <use x="99.999969" xlink:href="#Inconsolata-Regular-50"/>
       <use x="149.999954" xlink:href="#Inconsolata-Regular-48"/>
       <use x="199.999939" xlink:href="#Inconsolata-Regular-45"/>
       <use x="249.999924" xlink:href="#Inconsolata-Regular-48"/>
       <use x="299.999908" xlink:href="#Inconsolata-Regular-52"/>
      </g>
     </g>
    </g>
    <g id="xtick_4">
     <g id="line2d_7">
      <path clip-path="url(#p1a0682dd47)" d="M 415.525013 157.5 
L 415.525013 21.6 
" style="fill:none;stroke:#ffffff;stroke-linecap:square;stroke-width:0.8;"/>
     </g>
     <g id="line2d_8">
      <g>
       <use style="fill:#555555;stroke:#555555;stroke-width:0.8;" x="415.525013" xlink:href="#m22c7b01a01" y="157.5"/>
      </g>
     </g>
     <g id="text_4">
      <!-- 2020-05 -->
      <defs>
       <path d="M 24.90625 -1.09375 
Q 19.203125 -1.09375 14.34375 1.40625 
Q 9.5 3.90625 6.40625 8.5 
L 12.796875 13.296875 
L 13.203125 12.796875 
Q 13.09375 12 13.4375 11.296875 
Q 13.796875 10.59375 14.796875 9.296875 
Q 16.796875 7.09375 19.25 6.046875 
Q 21.703125 5 25.296875 5 
Q 28.5 5 31.25 6.796875 
Q 34 8.59375 35.703125 11.9375 
Q 37.40625 15.296875 37.40625 19.90625 
Q 37.40625 26.90625 33.65625 30.796875 
Q 29.90625 34.703125 24.59375 34.703125 
Q 21.40625 34.703125 18.296875 33.140625 
Q 15.203125 31.59375 12.90625 28.796875 
L 8.5 30.59375 
L 10.59375 62.296875 
L 42.203125 62.296875 
L 42.203125 56 
L 16.5 56 
L 15.5 38.09375 
Q 20.5 40.5 25.703125 40.5 
Q 31.09375 40.5 35.34375 37.953125 
Q 39.59375 35.40625 42.046875 30.703125 
Q 44.5 26 44.5 19.59375 
Q 44.5 13.203125 41.890625 8.546875 
Q 39.296875 3.90625 34.890625 1.40625 
Q 30.5 -1.09375 24.90625 -1.09375 
z
" id="Inconsolata-Regular-53"/>
      </defs>
      <g style="fill:#555555;" transform="translate(398.025013 171.15)scale(0.1 -0.1)">
       <use xlink:href="#Inconsolata-Regular-50"/>
       <use x="49.999985" xlink:href="#Inconsolata-Regular-48"/>
       <use x="99.999969" xlink:href="#Inconsolata-Regular-50"/>
       <use x="149.999954" xlink:href="#Inconsolata-Regular-48"/>
       <use x="199.999939" xlink:href="#Inconsolata-Regular-45"/>
       <use x="249.999924" xlink:href="#Inconsolata-Regular-48"/>
       <use x="299.999908" xlink:href="#Inconsolata-Regular-53"/>
      </g>
     </g>
    </g>
    <g id="xtick_5">
     <g id="line2d_9">
      <path clip-path="url(#p1a0682dd47)" d="M 508.57504 157.5 
L 508.57504 21.6 
" style="fill:none;stroke:#ffffff;stroke-linecap:square;stroke-width:0.8;"/>
     </g>
     <g id="line2d_10">
      <g>
       <use style="fill:#555555;stroke:#555555;stroke-width:0.8;" x="508.57504" xlink:href="#m22c7b01a01" y="157.5"/>
      </g>
     </g>
     <g id="text_5">
      <!-- 2020-06 -->
      <defs>
       <path d="M 26.09375 -1 
Q 16.796875 -1 11.75 6.890625 
Q 6.703125 14.796875 6.703125 28.40625 
Q 6.703125 45.203125 12.703125 54.09375 
Q 18.703125 63 28.703125 63 
Q 36.59375 63 42.40625 57.296875 
L 38 52.296875 
L 37.296875 51.5 
L 36.796875 52 
Q 36.703125 52.796875 36.34375 53.5 
Q 36 54.203125 34.703125 55.296875 
Q 32.5 56.796875 28.90625 56.796875 
Q 26.90625 56.796875 24.296875 55.84375 
Q 21.703125 54.90625 19.296875 52.296875 
Q 16.90625 49.703125 15.296875 44.953125 
Q 13.703125 40.203125 13.59375 32.703125 
Q 15.703125 36.203125 19.25 38.203125 
Q 22.796875 40.203125 26.796875 40.203125 
Q 31.5 40.203125 35.34375 37.640625 
Q 39.203125 35.09375 41.546875 30.546875 
Q 43.90625 26 43.90625 19.796875 
Q 43.90625 13.59375 41.5 8.890625 
Q 39.09375 4.203125 35.09375 1.59375 
Q 31.09375 -1 26.09375 -1 
z
M 26.40625 5.203125 
Q 30.703125 5.203125 33.890625 8.890625 
Q 37.09375 12.59375 37.09375 19.703125 
Q 37.09375 24.703125 35.4375 27.890625 
Q 33.796875 31.09375 31.296875 32.59375 
Q 28.796875 34.09375 26.203125 34.09375 
Q 22.59375 34.09375 19.296875 31.640625 
Q 16 29.203125 14 25.703125 
Q 13.59375 22.296875 14.25 18.6875 
Q 14.90625 15.09375 16.546875 12.046875 
Q 18.203125 9 20.703125 7.09375 
Q 23.203125 5.203125 26.40625 5.203125 
z
" id="Inconsolata-Regular-54"/>
      </defs>
      <g style="fill:#555555;" transform="translate(491.07504 171.15)scale(0.1 -0.1)">
       <use xlink:href="#Inconsolata-Regular-50"/>
       <use x="49.999985" xlink:href="#Inconsolata-Regular-48"/>
       <use x="99.999969" xlink:href="#Inconsolata-Regular-50"/>
       <use x="149.999954" xlink:href="#Inconsolata-Regular-48"/>
       <use x="199.999939" xlink:href="#Inconsolata-Regular-45"/>
       <use x="249.999924" xlink:href="#Inconsolata-Regular-48"/>
       <use x="299.999908" xlink:href="#Inconsolata-Regular-54"/>
      </g>
     </g>
    </g>
    <g id="xtick_6">
     <g id="line2d_11">
      <path clip-path="url(#p1a0682dd47)" d="M 598.623453 157.5 
L 598.623453 21.6 
" style="fill:none;stroke:#ffffff;stroke-linecap:square;stroke-width:0.8;"/>
     </g>
     <g id="line2d_12">
      <g>
       <use style="fill:#555555;stroke:#555555;stroke-width:0.8;" x="598.623453" xlink:href="#m22c7b01a01" y="157.5"/>
      </g>
     </g>
     <g id="text_6">
      <!-- 2020-07 -->
      <defs>
       <path d="M 15.5 0 
Q 19.90625 14.296875 24.59375 28.09375 
Q 29.296875 41.90625 34.5 55.703125 
L 7.90625 55.703125 
L 7.90625 62.296875 
L 43.203125 62.296875 
L 43.203125 58.40625 
Q 37.5 44 32.5 29.5 
Q 27.5 15 23.40625 0 
z
" id="Inconsolata-Regular-55"/>
      </defs>
      <g style="fill:#555555;" transform="translate(581.123453 171.15)scale(0.1 -0.1)">
       <use xlink:href="#Inconsolata-Regular-50"/>
       <use x="49.999985" xlink:href="#Inconsolata-Regular-48"/>
       <use x="99.999969" xlink:href="#Inconsolata-Regular-50"/>
       <use x="149.999954" xlink:href="#Inconsolata-Regular-48"/>
       <use x="199.999939" xlink:href="#Inconsolata-Regular-45"/>
       <use x="249.999924" xlink:href="#Inconsolata-Regular-48"/>
       <use x="299.999908" xlink:href="#Inconsolata-Regular-55"/>
      </g>
     </g>
    </g>
   </g>
   <g id="matplotlib.axis_2">
    <g id="ytick_1">
     <g id="line2d_13">
      <path clip-path="url(#p1a0682dd47)" d="M 90 121.164919 
L 648 121.164919 
" style="fill:none;stroke:#ffffff;stroke-linecap:square;stroke-width:0.8;"/>
     </g>
     <g id="line2d_14">
      <defs>
       <path d="M 0 0 
L -3.5 0 
" id="mfb102d6f4d" style="stroke:#555555;stroke-width:0.8;"/>
      </defs>
      <g>
       <use style="fill:#555555;stroke:#555555;stroke-width:0.8;" x="90" xlink:href="#mfb102d6f4d" y="121.164919"/>
      </g>
     </g>
     <g id="line2d_15">
      <defs>
       <path d="M 0 0 
L 3.5 0 
" id="ma806db6821" style="stroke:#555555;stroke-width:0.8;"/>
      </defs>
      <g>
       <use style="fill:#555555;stroke:#555555;stroke-width:0.8;" x="648" xlink:href="#ma806db6821" y="121.164919"/>
      </g>
     </g>
     <g id="text_7">
      <!-- 2 -->
      <g style="fill:#555555;" transform="translate(78 124.489919)scale(0.1 -0.1)">
       <use xlink:href="#Inconsolata-Regular-50"/>
      </g>
     </g>
     <g id="text_8">
      <!-- 2 -->
      <g style="fill:#555555;" transform="translate(655 124.489919)scale(0.1 -0.1)">
       <use xlink:href="#Inconsolata-Regular-50"/>
      </g>
     </g>
    </g>
    <g id="ytick_2">
     <g id="line2d_16">
      <path clip-path="url(#p1a0682dd47)" d="M 90 82.501497 
L 648 82.501497 
" style="fill:none;stroke:#ffffff;stroke-linecap:square;stroke-width:0.8;"/>
     </g>
     <g id="line2d_17">
      <g>
       <use style="fill:#555555;stroke:#555555;stroke-width:0.8;" x="90" xlink:href="#mfb102d6f4d" y="82.501497"/>
      </g>
     </g>
     <g id="line2d_18">
      <g>
       <use style="fill:#555555;stroke:#555555;stroke-width:0.8;" x="648" xlink:href="#ma806db6821" y="82.501497"/>
      </g>
     </g>
     <g id="text_9">
      <!-- 4 -->
      <g style="fill:#555555;" transform="translate(78 85.826497)scale(0.1 -0.1)">
       <use xlink:href="#Inconsolata-Regular-52"/>
      </g>
     </g>
     <g id="text_10">
      <!-- 4 -->
      <g style="fill:#555555;" transform="translate(655 85.826497)scale(0.1 -0.1)">
       <use xlink:href="#Inconsolata-Regular-52"/>
      </g>
     </g>
    </g>
    <g id="ytick_3">
     <g id="line2d_19">
      <path clip-path="url(#p1a0682dd47)" d="M 90 43.838076 
L 648 43.838076 
" style="fill:none;stroke:#ffffff;stroke-linecap:square;stroke-width:0.8;"/>
     </g>
     <g id="line2d_20">
      <g>
       <use style="fill:#555555;stroke:#555555;stroke-width:0.8;" x="90" xlink:href="#mfb102d6f4d" y="43.838076"/>
      </g>
     </g>
     <g id="line2d_21">
      <g>
       <use style="fill:#555555;stroke:#555555;stroke-width:0.8;" x="648" xlink:href="#ma806db6821" y="43.838076"/>
      </g>
     </g>
     <g id="text_11">
      <!-- 6 -->
      <g style="fill:#555555;" transform="translate(78 47.163076)scale(0.1 -0.1)">
       <use xlink:href="#Inconsolata-Regular-54"/>
      </g>
     </g>
     <g id="text_12">
      <!-- 6 -->
      <g style="fill:#555555;" transform="translate(655 47.163076)scale(0.1 -0.1)">
       <use xlink:href="#Inconsolata-Regular-54"/>
      </g>
     </g>
    </g>
    <g id="text_13">
     <!-- R &amp; growth factor -->
     <defs>
      <path d="M 5.59375 0 
L 5.59375 62.296875 
L 24 62.296875 
Q 35 62.296875 39.84375 57.390625 
Q 44.703125 52.5 44.703125 44.5 
Q 44.703125 41 43.140625 37.5 
Q 41.59375 34 38.75 31.390625 
Q 35.90625 28.796875 32 27.796875 
L 46.40625 0 
L 38.59375 0 
L 24.796875 27.5 
L 12.703125 27.5 
L 12.703125 0 
z
M 12.703125 33.703125 
L 24.796875 33.703125 
Q 31.5 33.703125 34.5 36.640625 
Q 37.5 39.59375 37.5 44.5 
Q 37.5 49.203125 34.5 52.453125 
Q 31.5 55.703125 24.796875 55.703125 
L 12.703125 55.703125 
z
" id="Inconsolata-Regular-82"/>
      <path id="Inconsolata-Regular-32"/>
      <path d="M 41.59375 -1.203125 
L 36.09375 7.59375 
Q 33 3.703125 28.546875 1.34375 
Q 24.09375 -1 19.203125 -1 
Q 14.703125 -1 11.140625 1.046875 
Q 7.59375 3.09375 5.59375 6.546875 
Q 3.59375 10 3.59375 14.09375 
Q 3.59375 20.40625 7.046875 25.75 
Q 10.5 31.09375 16.203125 34.296875 
Q 9.09375 42.90625 9.09375 49.796875 
Q 9.09375 53.59375 10.9375 56.546875 
Q 12.796875 59.5 15.9375 61.203125 
Q 19.09375 62.90625 22.796875 62.90625 
Q 26.90625 62.90625 29.90625 61 
Q 32.90625 59.09375 34.59375 56.140625 
Q 36.296875 53.203125 36.296875 49.796875 
Q 36.296875 46.59375 34.890625 43.25 
Q 33.5 39.90625 31.09375 37.203125 
Q 28.703125 34.5 25.5 33 
L 36.703125 17.296875 
Q 39.296875 20.40625 40.140625 22.546875 
Q 41 24.703125 41.203125 27.40625 
Q 41.203125 28 41.59375 28.40625 
L 48.09375 23.90625 
Q 46.40625 20.90625 44.5 18 
Q 42.59375 15.09375 40.5 12.296875 
L 47.5 3.203125 
z
M 22.09375 37.296875 
Q 25.703125 39 27.703125 42.453125 
Q 29.703125 45.90625 29.703125 49.203125 
Q 29.703125 52.5 27.640625 54.75 
Q 25.59375 57 22.90625 57 
Q 20.09375 57 18.046875 55 
Q 16 53 16 49.703125 
Q 16 44.90625 22.09375 37.296875 
z
M 19.90625 5.40625 
Q 23.5 5.40625 26.546875 7.296875 
Q 29.59375 9.203125 32.40625 12.296875 
L 19.703125 29.59375 
Q 15.703125 27.09375 13.453125 23.09375 
Q 11.203125 19.09375 11.203125 15.203125 
Q 11.203125 11.09375 13.796875 8.25 
Q 16.40625 5.40625 19.90625 5.40625 
z
" id="Inconsolata-Regular-38"/>
      <path d="M 22.59375 15.5 
Q 18.703125 15.5 15.5 16.90625 
Q 13.703125 14.703125 13.703125 12.703125 
Q 13.703125 10.296875 16.703125 9.25 
Q 19.703125 8.203125 27.703125 8.203125 
Q 34.703125 8.203125 38.296875 6.703125 
Q 41.90625 5.203125 43.203125 2.59375 
Q 44.5 0 44.5 -3.40625 
Q 44.5 -6.90625 42.59375 -10.09375 
Q 40.703125 -13.296875 36.34375 -15.25 
Q 32 -17.203125 24.703125 -17.203125 
Q 15.09375 -17.203125 9.4375 -14.25 
Q 3.796875 -11.296875 3.796875 -5.40625 
Q 3.796875 -1.703125 5.890625 0.9375 
Q 8 3.59375 10.90625 4.90625 
Q 7.59375 7.09375 7.59375 11 
Q 7.59375 13.203125 8.6875 15.296875 
Q 9.796875 17.40625 11.703125 19.40625 
Q 6.59375 23.90625 6.59375 31.5 
Q 6.59375 35.90625 8.546875 39.5 
Q 10.5 43.09375 14.09375 45.25 
Q 17.703125 47.40625 22.59375 47.40625 
Q 26.296875 47.40625 29.25 46.15625 
Q 32.203125 44.90625 34.296875 42.703125 
Q 36.90625 45.09375 39.796875 46.140625 
Q 42.703125 47.203125 46.59375 46.90625 
L 47.5 41 
Q 44.5 41.296875 41.84375 40.890625 
Q 39.203125 40.5 36.90625 39 
Q 38.59375 35.59375 38.59375 31.5 
Q 38.59375 27.09375 36.640625 23.4375 
Q 34.703125 19.796875 31.140625 17.640625 
Q 27.59375 15.5 22.59375 15.5 
z
M 22.59375 21.5 
Q 27 21.5 29.796875 24.453125 
Q 32.59375 27.40625 32.59375 31.5 
Q 32.59375 35.59375 29.796875 38.546875 
Q 27 41.5 22.59375 41.5 
Q 18.296875 41.5 15.4375 38.546875 
Q 12.59375 35.59375 12.59375 31.5 
Q 12.59375 27.40625 15.4375 24.453125 
Q 18.296875 21.5 22.59375 21.5 
z
M 10.40625 -4.59375 
Q 10.40625 -8 14.25 -9.890625 
Q 18.09375 -11.796875 24.796875 -11.796875 
Q 31.59375 -11.796875 34.75 -9.75 
Q 37.90625 -7.703125 37.90625 -4.5 
Q 37.90625 -2.296875 37.09375 -0.890625 
Q 36.296875 0.5 33.796875 1.203125 
Q 31.296875 1.90625 26.203125 1.90625 
Q 22.703125 1.90625 19.84375 2.203125 
Q 17 2.5 14.703125 3.203125 
Q 12.40625 1.59375 11.40625 -0.046875 
Q 10.40625 -1.703125 10.40625 -4.59375 
z
" id="Inconsolata-Regular-103"/>
      <path d="M 11.90625 45.703125 
L 19.40625 45.703125 
L 19.203125 37.296875 
Q 21.09375 41.90625 25.09375 44.34375 
Q 29.09375 46.796875 33.703125 46.796875 
Q 41 46.796875 45.796875 41.796875 
L 42.59375 36.203125 
L 42.203125 35.296875 
L 41.5 35.703125 
Q 41.296875 36.5 40.890625 37.203125 
Q 40.5 37.90625 39.203125 38.90625 
Q 37.59375 39.90625 36.25 40.25 
Q 34.90625 40.59375 33.203125 40.59375 
Q 29.90625 40.59375 26.65625 38.890625 
Q 23.40625 37.203125 21.296875 33.59375 
Q 19.203125 30 19.203125 24.203125 
L 19.203125 -0.09375 
L 11.90625 -0.09375 
z
" id="Inconsolata-Regular-114"/>
      <path d="M 25 -0.796875 
Q 18.796875 -0.796875 14.046875 2.25 
Q 9.296875 5.296875 6.59375 10.640625 
Q 3.90625 16 3.90625 22.90625 
Q 3.90625 29.90625 6.59375 35.25 
Q 9.296875 40.59375 14.046875 43.640625 
Q 18.796875 46.703125 25 46.703125 
Q 31.203125 46.703125 35.953125 43.640625 
Q 40.703125 40.59375 43.390625 35.25 
Q 46.09375 29.90625 46.09375 22.90625 
Q 46.09375 16 43.390625 10.640625 
Q 40.703125 5.296875 35.953125 2.25 
Q 31.203125 -0.796875 25 -0.796875 
z
M 25 5.203125 
Q 29 5.203125 32 7.5 
Q 35 9.796875 36.75 13.796875 
Q 38.5 17.796875 38.5 23 
Q 38.5 30.796875 34.703125 35.75 
Q 30.90625 40.703125 25 40.703125 
Q 19.09375 40.703125 15.296875 35.75 
Q 11.5 30.796875 11.5 23 
Q 11.5 17.796875 13.25 13.796875 
Q 15 9.796875 18.046875 7.5 
Q 21.09375 5.203125 25 5.203125 
z
" id="Inconsolata-Regular-111"/>
      <path d="M 10.796875 -0.09375 
L 1.59375 45.703125 
L 7.90625 45.703125 
L 15.296875 9 
L 23.09375 41.40625 
L 27.5 41.40625 
L 37.203125 9.09375 
Q 38.5 18 39.34375 23.703125 
Q 40.203125 29.40625 40.640625 33.046875 
Q 41.09375 36.703125 41.25 39.203125 
Q 41.40625 41.703125 41.40625 44.203125 
L 41.40625 45.703125 
L 48.09375 45.703125 
Q 45.09375 22.5 40.5 -0.09375 
L 33.703125 -0.09375 
L 25.296875 29.5 
L 17.296875 -0.09375 
z
" id="Inconsolata-Regular-119"/>
      <path d="M 29.90625 -0.703125 
Q 24 -0.703125 20.953125 2 
Q 17.90625 4.703125 16.90625 10.34375 
Q 15.90625 16 16.203125 24.796875 
L 16.796875 39.796875 
L 7 39.796875 
L 7 45.703125 
L 17 45.703125 
L 17.40625 57.40625 
L 24.90625 58.296875 
L 25.90625 58.40625 
L 26 57.703125 
Q 25.5 57 25.140625 56.296875 
Q 24.796875 55.59375 24.59375 53.90625 
L 23.90625 45.703125 
L 39.90625 45.703125 
L 39.90625 39.796875 
L 24 39.796875 
L 23.296875 24.296875 
Q 23 16.703125 23.703125 12.546875 
Q 24.40625 8.40625 26.203125 6.84375 
Q 28 5.296875 31 5.296875 
Q 34.296875 5.296875 36.84375 6.59375 
Q 39.40625 7.90625 42.203125 9.90625 
L 44.40625 4.203125 
Q 41 1.703125 37.390625 0.5 
Q 33.796875 -0.703125 29.90625 -0.703125 
z
" id="Inconsolata-Regular-116"/>
      <path d="M 7.296875 66.5 
L 15.203125 66.5 
L 15.203125 65.796875 
Q 14.59375 65.203125 14.4375 64.5 
Q 14.296875 63.796875 14.296875 62.09375 
L 14.296875 37.59375 
Q 17 41.796875 21.046875 44.296875 
Q 25.09375 46.796875 29.296875 46.796875 
Q 35.5 46.796875 39.34375 42.4375 
Q 43.203125 38.09375 43.203125 27.703125 
L 43.203125 0 
L 36.203125 0 
L 36.203125 27.5 
Q 36.203125 34.703125 33.75 37.59375 
Q 31.296875 40.5 27.796875 40.5 
Q 24.796875 40.5 21.640625 38.796875 
Q 18.5 37.09375 16.390625 33.9375 
Q 14.296875 30.796875 14.296875 26.296875 
L 14.296875 0 
L 7.296875 0 
z
" id="Inconsolata-Regular-104"/>
      <path d="M 16.203125 40 
L 6.296875 40 
L 6.296875 45.703125 
L 16.203125 45.703125 
L 16.203125 49.5 
Q 16.203125 58.703125 20.953125 62.890625 
Q 25.703125 67.09375 33 67.09375 
Q 37.296875 67.09375 41.046875 65.546875 
Q 44.796875 64 47.296875 60.796875 
L 43.5 55.5 
L 42.90625 54.703125 
L 42.296875 55.09375 
Q 42.203125 55.90625 41.890625 56.703125 
Q 41.59375 57.5 40.5 58.703125 
Q 38.90625 60.09375 37.296875 60.6875 
Q 35.703125 61.296875 33.203125 61.296875 
Q 28.90625 61.296875 26 58.640625 
Q 23.09375 56 23.09375 49.5 
L 23.09375 45.703125 
L 38.09375 45.703125 
L 38.09375 40 
L 23.09375 40 
L 23.09375 0 
L 16.203125 0 
z
" id="Inconsolata-Regular-102"/>
      <path d="M 21.09375 -1.09375 
Q 13.296875 -1.09375 9.09375 2.453125 
Q 4.90625 6 4.90625 11.5 
Q 4.90625 16.40625 8 19.953125 
Q 11.09375 23.5 16.34375 25.453125 
Q 21.59375 27.40625 27.90625 27.40625 
Q 30.203125 27.40625 32.75 27.296875 
Q 35.296875 27.203125 38.203125 26.796875 
Q 37.59375 34.796875 34.046875 37.796875 
Q 30.5 40.796875 23.90625 40.796875 
Q 20.59375 40.796875 17.390625 39.546875 
Q 14.203125 38.296875 11.59375 35.703125 
L 8.09375 40.296875 
Q 11.296875 43.5 15.5 45.09375 
Q 19.703125 46.703125 24.40625 46.703125 
Q 30.5 46.703125 35 44.703125 
Q 39.5 42.703125 42 37.796875 
Q 44.5 32.90625 44.5 24.296875 
L 44.5 0 
L 36.703125 0 
L 36.703125 7 
Q 35 3.703125 32.34375 1.953125 
Q 29.703125 0.203125 26.75 -0.4375 
Q 23.796875 -1.09375 21.09375 -1.09375 
z
M 12.09375 11.90625 
Q 12.09375 7.59375 14.890625 6 
Q 17.703125 4.40625 21.796875 4.40625 
Q 29.203125 4.40625 33.5 8.75 
Q 37.796875 13.09375 38.203125 21.296875 
Q 33 22 28.5 22 
Q 21.296875 22 16.6875 19.59375 
Q 12.09375 17.203125 12.09375 11.90625 
z
" id="Inconsolata-Regular-97"/>
      <path d="M 28.5 -1.09375 
Q 21.90625 -1.09375 16.703125 2 
Q 11.5 5.09375 8.546875 10.5 
Q 5.59375 15.90625 5.59375 22.796875 
Q 5.59375 29.703125 8.546875 35.046875 
Q 11.5 40.40625 16.640625 43.5 
Q 21.796875 46.59375 28.40625 46.59375 
Q 34 46.59375 38.453125 44.34375 
Q 42.90625 42.09375 45.703125 38.09375 
L 41.203125 33.703125 
L 40.5 33 
L 40 33.5 
Q 40 34.296875 39.640625 35 
Q 39.296875 35.703125 38.09375 36.90625 
Q 35.90625 38.90625 33.40625 39.703125 
Q 30.90625 40.5 27.59375 40.5 
Q 23.796875 40.5 20.4375 38.390625 
Q 17.09375 36.296875 15.046875 32.4375 
Q 13 28.59375 13 23.296875 
Q 13 18.203125 15.046875 14.140625 
Q 17.09375 10.09375 20.6875 7.75 
Q 24.296875 5.40625 28.90625 5.40625 
Q 35.796875 5.40625 40.796875 11 
L 45 6.09375 
Q 38.296875 -1.09375 28.5 -1.09375 
z
" id="Inconsolata-Regular-99"/>
     </defs>
     <g style="fill:#555555;" transform="translate(60.254 140.55)rotate(-90)scale(0.12 -0.12)">
      <use xlink:href="#Inconsolata-Regular-82"/>
      <use x="49.999985" xlink:href="#Inconsolata-Regular-32"/>
      <use x="99.999969" xlink:href="#Inconsolata-Regular-38"/>
      <use x="149.999954" xlink:href="#Inconsolata-Regular-32"/>
      <use x="199.999939" xlink:href="#Inconsolata-Regular-103"/>
      <use x="249.999924" xlink:href="#Inconsolata-Regular-114"/>
      <use x="299.999908" xlink:href="#Inconsolata-Regular-111"/>
      <use x="349.999893" xlink:href="#Inconsolata-Regular-119"/>
      <use x="399.999878" xlink:href="#Inconsolata-Regular-116"/>
      <use x="449.999863" xlink:href="#Inconsolata-Regular-104"/>
      <use x="499.999847" xlink:href="#Inconsolata-Regular-32"/>
      <use x="549.999832" xlink:href="#Inconsolata-Regular-102"/>
      <use x="599.999817" xlink:href="#Inconsolata-Regular-97"/>
      <use x="649.999802" xlink:href="#Inconsolata-Regular-99"/>
      <use x="699.999786" xlink:href="#Inconsolata-Regular-116"/>
      <use x="749.999771" xlink:href="#Inconsolata-Regular-111"/>
      <use x="799.999756" xlink:href="#Inconsolata-Regular-114"/>
     </g>
     <!-- (based on deaths) -->
     <defs>
      <path d="M 39.5 -10.40625 
Q 31.203125 -6.5 25.046875 0.046875 
Q 18.90625 6.59375 15.546875 14.84375 
Q 12.203125 23.09375 12.203125 32 
Q 12.203125 40.90625 15.5 48.953125 
Q 18.796875 57 24.796875 63.34375 
Q 30.796875 69.703125 38.90625 73.5 
L 40.796875 67.296875 
Q 34.40625 63.796875 29.546875 58.296875 
Q 24.703125 52.796875 22 46 
Q 19.296875 39.203125 19.296875 31.703125 
Q 19.296875 24.203125 22 17.296875 
Q 24.703125 10.40625 29.703125 4.796875 
Q 34.703125 -0.796875 41.40625 -4.40625 
z
" id="Inconsolata-Regular-40"/>
      <path d="M 26.59375 -1.09375 
Q 22.40625 -1.09375 18.90625 0.796875 
Q 15.40625 2.703125 13.09375 6 
L 10.59375 0 
L 6 0 
L 6 66.5 
L 14.203125 66.5 
L 14.203125 65.796875 
Q 13.59375 65.203125 13.4375 64.5 
Q 13.296875 63.796875 13.296875 62.09375 
L 13.296875 38.703125 
Q 15.5 42.40625 19.25 44.59375 
Q 23 46.796875 26.90625 46.796875 
Q 35.203125 46.796875 40.453125 40.9375 
Q 45.703125 35.09375 45.703125 23.296875 
Q 45.703125 15.09375 42.890625 9.6875 
Q 40.09375 4.296875 35.75 1.59375 
Q 31.40625 -1.09375 26.59375 -1.09375 
z
M 25.703125 5.296875 
Q 28.90625 5.296875 31.796875 6.9375 
Q 34.703125 8.59375 36.5 12.5 
Q 38.296875 16.40625 38.296875 22.90625 
Q 38.296875 32 34.84375 36.296875 
Q 31.40625 40.59375 25.90625 40.59375 
Q 20.40625 40.59375 16.84375 35.640625 
Q 13.296875 30.703125 13.296875 22.703125 
Q 13.296875 14.796875 16.140625 10.046875 
Q 19 5.296875 25.703125 5.296875 
z
" id="Inconsolata-Regular-98"/>
      <path d="M 25.09375 -1 
Q 13.5 -1 5.703125 6.203125 
L 9.703125 13 
L 10.296875 13.90625 
L 10.90625 13.5 
Q 11.09375 12.703125 11.34375 11.84375 
Q 11.59375 11 12.703125 9.796875 
Q 14.796875 7.703125 17.75 6.34375 
Q 20.703125 5 25.296875 5 
Q 30.796875 5 33.84375 6.953125 
Q 36.90625 8.90625 36.90625 12.296875 
Q 36.90625 15.203125 34.34375 17.09375 
Q 31.796875 19 25.40625 21.09375 
Q 17.5 23.40625 12.84375 26.796875 
Q 8.203125 30.203125 8.203125 35.296875 
Q 8.203125 40.5 12.453125 43.640625 
Q 16.703125 46.796875 25 46.796875 
Q 31.40625 46.796875 35.59375 45 
Q 39.796875 43.203125 43.203125 39.59375 
L 39.09375 34.59375 
L 38.40625 33.796875 
L 37.90625 34.296875 
Q 37.796875 35.09375 37.4375 35.84375 
Q 37.09375 36.59375 36 37.703125 
Q 33.703125 39.5 30.796875 40.453125 
Q 27.90625 41.40625 25.203125 41.40625 
Q 21.203125 41.40625 18.296875 40 
Q 15.40625 38.59375 15.40625 35.703125 
Q 15.40625 34.203125 16.453125 32.75 
Q 17.5 31.296875 20.296875 29.84375 
Q 23.09375 28.40625 28.296875 26.90625 
Q 36.90625 24.296875 40.453125 21.25 
Q 44 18.203125 44 13.296875 
Q 44 9.5 41.953125 6.203125 
Q 39.90625 2.90625 35.703125 0.953125 
Q 31.5 -1 25.09375 -1 
z
" id="Inconsolata-Regular-115"/>
      <path d="M 27.203125 -1 
Q 17.203125 -1 11.046875 5.09375 
Q 4.90625 11.203125 4.90625 22.703125 
Q 4.90625 30.5 7.75 35.84375 
Q 10.59375 41.203125 15.34375 44 
Q 20.09375 46.796875 25.90625 46.796875 
Q 31.09375 46.796875 35.296875 44.5 
Q 39.5 42.203125 42 37.390625 
Q 44.5 32.59375 44.5 25.09375 
Q 44.5 24.296875 44.453125 23.4375 
Q 44.40625 22.59375 44.296875 21.796875 
L 11.796875 21.796875 
Q 12.203125 13 16.75 8.890625 
Q 21.296875 4.796875 27.40625 4.796875 
Q 34.59375 4.796875 39.203125 9.90625 
L 43.203125 6 
Q 37.40625 -1 27.203125 -1 
z
M 12.09375 27.40625 
L 37.203125 27.40625 
Q 37.203125 33.796875 33.953125 37.546875 
Q 30.703125 41.296875 25.40625 41.296875 
Q 20.703125 41.296875 16.890625 37.9375 
Q 13.09375 34.59375 12.09375 27.40625 
z
" id="Inconsolata-Regular-101"/>
      <path d="M 23.40625 -1 
Q 18.796875 -1 14.4375 1.640625 
Q 10.09375 4.296875 7.296875 9.6875 
Q 4.5 15.09375 4.5 23.296875 
Q 4.5 31.703125 7.390625 36.890625 
Q 10.296875 42.09375 14.75 44.5 
Q 19.203125 46.90625 23.796875 46.90625 
Q 28.5 46.90625 31.953125 44.75 
Q 35.40625 42.59375 37.09375 39 
L 37.09375 66.5 
L 44.703125 66.5 
L 44.703125 65.796875 
Q 44.09375 65.203125 43.9375 64.5 
Q 43.796875 63.796875 43.796875 62.09375 
L 43.90625 7.09375 
Q 43.90625 5.296875 44.046875 3.546875 
Q 44.203125 1.796875 44.90625 0 
L 37.796875 0 
Q 37.09375 1.796875 36.9375 3.546875 
Q 36.796875 5.296875 36.796875 7.09375 
Q 34.59375 3.40625 31.1875 1.203125 
Q 27.796875 -1 23.40625 -1 
z
M 24.5 5.296875 
Q 28.90625 5.296875 31.546875 7.6875 
Q 34.203125 10.09375 35.34375 14.140625 
Q 36.5 18.203125 36.5 23.09375 
Q 36.5 30.796875 33.5 35.890625 
Q 30.5 41 23.90625 41 
Q 17.796875 41 14.640625 36.5 
Q 11.5 32 11.5 24.40625 
Q 11.5 15.796875 14.796875 10.546875 
Q 18.09375 5.296875 24.5 5.296875 
z
" id="Inconsolata-Regular-100"/>
      <path d="M 7.203125 0 
L 7.203125 45.703125 
L 14.203125 45.703125 
L 14.203125 37.59375 
Q 16.796875 41.796875 20.9375 44.296875 
Q 25.09375 46.796875 29.703125 46.796875 
Q 35.296875 46.796875 39.1875 42.4375 
Q 43.09375 38.09375 43.09375 27.703125 
L 43.09375 0 
L 36.09375 0 
L 36.09375 27.5 
Q 36.09375 34.703125 33.640625 37.59375 
Q 31.203125 40.5 27.703125 40.5 
Q 24.703125 40.5 21.546875 38.75 
Q 18.40625 37 16.296875 33.84375 
Q 14.203125 30.703125 14.203125 26.296875 
L 14.203125 0 
z
" id="Inconsolata-Regular-110"/>
      <path d="M 13.25 -10.40625 
Q 21.546875 -6.5 27.6875 0.046875 
Q 33.84375 6.59375 37.1875 14.84375 
Q 40.546875 23.09375 40.546875 32 
Q 40.546875 40.90625 37.25 48.953125 
Q 33.953125 57 27.953125 63.34375 
Q 21.953125 69.703125 13.84375 73.5 
L 11.953125 67.296875 
Q 18.34375 63.796875 23.1875 58.296875 
Q 28.046875 52.796875 30.75 46 
Q 33.453125 39.203125 33.453125 31.703125 
Q 33.453125 24.203125 30.75 17.296875 
Q 28.046875 10.40625 23.046875 4.796875 
Q 18.046875 -0.796875 11.34375 -4.40625 
z
" id="Inconsolata-Regular-41"/>
     </defs>
     <g style="fill:#555555;" transform="translate(71.995625 140.55)rotate(-90)scale(0.12 -0.12)">
      <use xlink:href="#Inconsolata-Regular-40"/>
      <use x="49.999985" xlink:href="#Inconsolata-Regular-98"/>
      <use x="99.999969" xlink:href="#Inconsolata-Regular-97"/>
      <use x="149.999954" xlink:href="#Inconsolata-Regular-115"/>
      <use x="199.999939" xlink:href="#Inconsolata-Regular-101"/>
      <use x="249.999924" xlink:href="#Inconsolata-Regular-100"/>
      <use x="299.999908" xlink:href="#Inconsolata-Regular-32"/>
      <use x="349.999893" xlink:href="#Inconsolata-Regular-111"/>
      <use x="399.999878" xlink:href="#Inconsolata-Regular-110"/>
      <use x="449.999863" xlink:href="#Inconsolata-Regular-32"/>
      <use x="499.999847" xlink:href="#Inconsolata-Regular-100"/>
      <use x="549.999832" xlink:href="#Inconsolata-Regular-101"/>
      <use x="599.999817" xlink:href="#Inconsolata-Regular-97"/>
      <use x="649.999802" xlink:href="#Inconsolata-Regular-116"/>
      <use x="699.999786" xlink:href="#Inconsolata-Regular-104"/>
      <use x="749.999771" xlink:href="#Inconsolata-Regular-115"/>
      <use x="799.999756" xlink:href="#Inconsolata-Regular-41"/>
     </g>
    </g>
   </g>
   <g id="line2d_22">
    <defs>
     <path d="M 0 3 
C 0.795609 3 1.55874 2.683901 2.12132 2.12132 
C 2.683901 1.55874 3 0.795609 3 0 
C 3 -0.795609 2.683901 -1.55874 2.12132 -2.12132 
C 1.55874 -2.683901 0.795609 -3 0 -3 
C -0.795609 -3 -1.55874 -2.683901 -2.12132 -2.12132 
C -2.683901 -1.55874 -3 -0.795609 -3 0 
C -3 0.795609 -2.683901 1.55874 -2.12132 2.12132 
C -1.55874 2.683901 -0.795609 3 0 3 
z
" id="mcaeb6e307b" style="stroke:#e24a33;stroke-opacity:0.3;"/>
    </defs>
    <g clip-path="url(#p1a0682dd47)">
     <use style="fill:#e24a33;fill-opacity:0.3;stroke:#e24a33;stroke-opacity:0.3;" x="193.405594" xlink:href="#mcaeb6e307b" y="111.975771"/>
     <use style="fill:#e24a33;fill-opacity:0.3;stroke:#e24a33;stroke-opacity:0.3;" x="196.407208" xlink:href="#mcaeb6e307b" y="133.095094"/>
     <use style="fill:#e24a33;fill-opacity:0.3;stroke:#e24a33;stroke-opacity:0.3;" x="199.408822" xlink:href="#mcaeb6e307b" y="113.244"/>
     <use style="fill:#e24a33;fill-opacity:0.3;stroke:#e24a33;stroke-opacity:0.3;" x="202.410436" xlink:href="#mcaeb6e307b" y="130.217455"/>
     <use style="fill:#e24a33;fill-opacity:0.3;stroke:#e24a33;stroke-opacity:0.3;" x="205.412049" xlink:href="#mcaeb6e307b" y="133.090839"/>
     <use style="fill:#e24a33;fill-opacity:0.3;stroke:#e24a33;stroke-opacity:0.3;" x="208.413663" xlink:href="#mcaeb6e307b" y="135.16037"/>
     <use style="fill:#e24a33;fill-opacity:0.3;stroke:#e24a33;stroke-opacity:0.3;" x="211.415277" xlink:href="#mcaeb6e307b" y="137.633891"/>
     <use style="fill:#e24a33;fill-opacity:0.3;stroke:#e24a33;stroke-opacity:0.3;" x="214.416891" xlink:href="#mcaeb6e307b" y="139.804957"/>
     <use style="fill:#e24a33;fill-opacity:0.3;stroke:#e24a33;stroke-opacity:0.3;" x="217.418505" xlink:href="#mcaeb6e307b" y="139.55576"/>
     <use style="fill:#e24a33;fill-opacity:0.3;stroke:#e24a33;stroke-opacity:0.3;" x="220.420118" xlink:href="#mcaeb6e307b" y="141.064464"/>
     <use style="fill:#e24a33;fill-opacity:0.3;stroke:#e24a33;stroke-opacity:0.3;" x="223.421732" xlink:href="#mcaeb6e307b" y="133.901198"/>
     <use style="fill:#e24a33;fill-opacity:0.3;stroke:#e24a33;stroke-opacity:0.3;" x="226.423346" xlink:href="#mcaeb6e307b" y="140.481962"/>
     <use style="fill:#e24a33;fill-opacity:0.3;stroke:#e24a33;stroke-opacity:0.3;" x="229.42496" xlink:href="#mcaeb6e307b" y="135.85657"/>
     <use style="fill:#e24a33;fill-opacity:0.3;stroke:#e24a33;stroke-opacity:0.3;" x="232.426573" xlink:href="#mcaeb6e307b" y="138.978783"/>
     <use style="fill:#e24a33;fill-opacity:0.3;stroke:#e24a33;stroke-opacity:0.3;" x="235.428187" xlink:href="#mcaeb6e307b" y="137.270136"/>
     <use style="fill:#e24a33;fill-opacity:0.3;stroke:#e24a33;stroke-opacity:0.3;" x="238.429801" xlink:href="#mcaeb6e307b" y="139.271207"/>
     <use style="fill:#e24a33;fill-opacity:0.3;stroke:#e24a33;stroke-opacity:0.3;" x="241.431415" xlink:href="#mcaeb6e307b" y="138.762299"/>
     <use style="fill:#e24a33;fill-opacity:0.3;stroke:#e24a33;stroke-opacity:0.3;" x="244.433029" xlink:href="#mcaeb6e307b" y="140.591733"/>
     <use style="fill:#e24a33;fill-opacity:0.3;stroke:#e24a33;stroke-opacity:0.3;" x="247.434642" xlink:href="#mcaeb6e307b" y="141.034688"/>
     <use style="fill:#e24a33;fill-opacity:0.3;stroke:#e24a33;stroke-opacity:0.3;" x="250.436256" xlink:href="#mcaeb6e307b" y="142.007169"/>
     <use style="fill:#e24a33;fill-opacity:0.3;stroke:#e24a33;stroke-opacity:0.3;" x="253.43787" xlink:href="#mcaeb6e307b" y="138.805823"/>
     <use style="fill:#e24a33;fill-opacity:0.3;stroke:#e24a33;stroke-opacity:0.3;" x="256.439484" xlink:href="#mcaeb6e307b" y="142.129968"/>
     <use style="fill:#e24a33;fill-opacity:0.3;stroke:#e24a33;stroke-opacity:0.3;" x="259.441097" xlink:href="#mcaeb6e307b" y="139.067728"/>
     <use style="fill:#e24a33;fill-opacity:0.3;stroke:#e24a33;stroke-opacity:0.3;" x="262.442711" xlink:href="#mcaeb6e307b" y="141.491932"/>
     <use style="fill:#e24a33;fill-opacity:0.3;stroke:#e24a33;stroke-opacity:0.3;" x="265.444325" xlink:href="#mcaeb6e307b" y="141.267332"/>
     <use style="fill:#e24a33;fill-opacity:0.3;stroke:#e24a33;stroke-opacity:0.3;" x="268.445939" xlink:href="#mcaeb6e307b" y="140.928189"/>
     <use style="fill:#e24a33;fill-opacity:0.3;stroke:#e24a33;stroke-opacity:0.3;" x="271.447552" xlink:href="#mcaeb6e307b" y="140.749912"/>
     <use style="fill:#e24a33;fill-opacity:0.3;stroke:#e24a33;stroke-opacity:0.3;" x="274.449166" xlink:href="#mcaeb6e307b" y="139.024551"/>
     <use style="fill:#e24a33;fill-opacity:0.3;stroke:#e24a33;stroke-opacity:0.3;" x="277.45078" xlink:href="#mcaeb6e307b" y="140.988149"/>
     <use style="fill:#e24a33;fill-opacity:0.3;stroke:#e24a33;stroke-opacity:0.3;" x="280.452394" xlink:href="#mcaeb6e307b" y="138.922605"/>
     <use style="fill:#e24a33;fill-opacity:0.3;stroke:#e24a33;stroke-opacity:0.3;" x="283.454008" xlink:href="#mcaeb6e307b" y="136.761194"/>
     <use style="fill:#e24a33;fill-opacity:0.3;stroke:#e24a33;stroke-opacity:0.3;" x="286.455621" xlink:href="#mcaeb6e307b" y="140.471317"/>
     <use style="fill:#e24a33;fill-opacity:0.3;stroke:#e24a33;stroke-opacity:0.3;" x="289.457235" xlink:href="#mcaeb6e307b" y="138.246456"/>
     <use style="fill:#e24a33;fill-opacity:0.3;stroke:#e24a33;stroke-opacity:0.3;" x="292.458849" xlink:href="#mcaeb6e307b" y="138.780228"/>
     <use style="fill:#e24a33;fill-opacity:0.3;stroke:#e24a33;stroke-opacity:0.3;" x="295.460463" xlink:href="#mcaeb6e307b" y="140.402005"/>
     <use style="fill:#e24a33;fill-opacity:0.3;stroke:#e24a33;stroke-opacity:0.3;" x="298.462076" xlink:href="#mcaeb6e307b" y="139.510021"/>
     <use style="fill:#e24a33;fill-opacity:0.3;stroke:#e24a33;stroke-opacity:0.3;" x="301.46369" xlink:href="#mcaeb6e307b" y="140.682308"/>
     <use style="fill:#e24a33;fill-opacity:0.3;stroke:#e24a33;stroke-opacity:0.3;" x="304.465304" xlink:href="#mcaeb6e307b" y="139.582195"/>
     <use style="fill:#e24a33;fill-opacity:0.3;stroke:#e24a33;stroke-opacity:0.3;" x="307.466918" xlink:href="#mcaeb6e307b" y="140.613361"/>
     <use style="fill:#e24a33;fill-opacity:0.3;stroke:#e24a33;stroke-opacity:0.3;" x="310.468531" xlink:href="#mcaeb6e307b" y="141.003108"/>
     <use style="fill:#e24a33;fill-opacity:0.3;stroke:#e24a33;stroke-opacity:0.3;" x="313.470145" xlink:href="#mcaeb6e307b" y="140.236768"/>
     <use style="fill:#e24a33;fill-opacity:0.3;stroke:#e24a33;stroke-opacity:0.3;" x="316.471759" xlink:href="#mcaeb6e307b" y="141.931352"/>
     <use style="fill:#e24a33;fill-opacity:0.3;stroke:#e24a33;stroke-opacity:0.3;" x="319.473373" xlink:href="#mcaeb6e307b" y="141.453794"/>
     <use style="fill:#e24a33;fill-opacity:0.3;stroke:#e24a33;stroke-opacity:0.3;" x="322.474987" xlink:href="#mcaeb6e307b" y="141.836976"/>
     <use style="fill:#e24a33;fill-opacity:0.3;stroke:#e24a33;stroke-opacity:0.3;" x="325.4766" xlink:href="#mcaeb6e307b" y="141.761473"/>
     <use style="fill:#e24a33;fill-opacity:0.3;stroke:#e24a33;stroke-opacity:0.3;" x="328.478214" xlink:href="#mcaeb6e307b" y="141.50617"/>
     <use style="fill:#e24a33;fill-opacity:0.3;stroke:#e24a33;stroke-opacity:0.3;" x="331.479828" xlink:href="#mcaeb6e307b" y="141.141183"/>
     <use style="fill:#e24a33;fill-opacity:0.3;stroke:#e24a33;stroke-opacity:0.3;" x="334.481442" xlink:href="#mcaeb6e307b" y="139.533458"/>
     <use style="fill:#e24a33;fill-opacity:0.3;stroke:#e24a33;stroke-opacity:0.3;" x="337.483055" xlink:href="#mcaeb6e307b" y="139.683209"/>
     <use style="fill:#e24a33;fill-opacity:0.3;stroke:#e24a33;stroke-opacity:0.3;" x="340.484669" xlink:href="#mcaeb6e307b" y="139.697066"/>
     <use style="fill:#e24a33;fill-opacity:0.3;stroke:#e24a33;stroke-opacity:0.3;" x="343.486283" xlink:href="#mcaeb6e307b" y="140.472248"/>
     <use style="fill:#e24a33;fill-opacity:0.3;stroke:#e24a33;stroke-opacity:0.3;" x="346.487897" xlink:href="#mcaeb6e307b" y="141.07592"/>
     <use style="fill:#e24a33;fill-opacity:0.3;stroke:#e24a33;stroke-opacity:0.3;" x="349.48951" xlink:href="#mcaeb6e307b" y="141.178357"/>
     <use style="fill:#e24a33;fill-opacity:0.3;stroke:#e24a33;stroke-opacity:0.3;" x="352.491124" xlink:href="#mcaeb6e307b" y="141.608685"/>
     <use style="fill:#e24a33;fill-opacity:0.3;stroke:#e24a33;stroke-opacity:0.3;" x="355.492738" xlink:href="#mcaeb6e307b" y="141.433604"/>
     <use style="fill:#e24a33;fill-opacity:0.3;stroke:#e24a33;stroke-opacity:0.3;" x="358.494352" xlink:href="#mcaeb6e307b" y="141.758645"/>
     <use style="fill:#e24a33;fill-opacity:0.3;stroke:#e24a33;stroke-opacity:0.3;" x="361.495966" xlink:href="#mcaeb6e307b" y="142.642239"/>
     <use style="fill:#e24a33;fill-opacity:0.3;stroke:#e24a33;stroke-opacity:0.3;" x="364.497579" xlink:href="#mcaeb6e307b" y="141.456444"/>
     <use style="fill:#e24a33;fill-opacity:0.3;stroke:#e24a33;stroke-opacity:0.3;" x="367.499193" xlink:href="#mcaeb6e307b" y="141.746456"/>
     <use style="fill:#e24a33;fill-opacity:0.3;stroke:#e24a33;stroke-opacity:0.3;" x="370.500807" xlink:href="#mcaeb6e307b" y="141.792502"/>
     <use style="fill:#e24a33;fill-opacity:0.3;stroke:#e24a33;stroke-opacity:0.3;" x="373.502421" xlink:href="#mcaeb6e307b" y="142.492455"/>
     <use style="fill:#e24a33;fill-opacity:0.3;stroke:#e24a33;stroke-opacity:0.3;" x="376.504034" xlink:href="#mcaeb6e307b" y="142.870284"/>
     <use style="fill:#e24a33;fill-opacity:0.3;stroke:#e24a33;stroke-opacity:0.3;" x="379.505648" xlink:href="#mcaeb6e307b" y="143.238524"/>
     <use style="fill:#e24a33;fill-opacity:0.3;stroke:#e24a33;stroke-opacity:0.3;" x="382.507262" xlink:href="#mcaeb6e307b" y="143.238873"/>
     <use style="fill:#e24a33;fill-opacity:0.3;stroke:#e24a33;stroke-opacity:0.3;" x="385.508876" xlink:href="#mcaeb6e307b" y="142.694366"/>
     <use style="fill:#e24a33;fill-opacity:0.3;stroke:#e24a33;stroke-opacity:0.3;" x="388.51049" xlink:href="#mcaeb6e307b" y="141.288083"/>
     <use style="fill:#e24a33;fill-opacity:0.3;stroke:#e24a33;stroke-opacity:0.3;" x="391.512103" xlink:href="#mcaeb6e307b" y="141.979017"/>
     <use style="fill:#e24a33;fill-opacity:0.3;stroke:#e24a33;stroke-opacity:0.3;" x="394.513717" xlink:href="#mcaeb6e307b" y="140.86084"/>
     <use style="fill:#e24a33;fill-opacity:0.3;stroke:#e24a33;stroke-opacity:0.3;" x="397.515331" xlink:href="#mcaeb6e307b" y="141.089598"/>
     <use style="fill:#e24a33;fill-opacity:0.3;stroke:#e24a33;stroke-opacity:0.3;" x="400.516945" xlink:href="#mcaeb6e307b" y="140.276016"/>
     <use style="fill:#e24a33;fill-opacity:0.3;stroke:#e24a33;stroke-opacity:0.3;" x="403.518558" xlink:href="#mcaeb6e307b" y="139.516068"/>
     <use style="fill:#e24a33;fill-opacity:0.3;stroke:#e24a33;stroke-opacity:0.3;" x="406.520172" xlink:href="#mcaeb6e307b" y="141.797893"/>
     <use style="fill:#e24a33;fill-opacity:0.3;stroke:#e24a33;stroke-opacity:0.3;" x="409.521786" xlink:href="#mcaeb6e307b" y="139.101454"/>
     <use style="fill:#e24a33;fill-opacity:0.3;stroke:#e24a33;stroke-opacity:0.3;" x="412.5234" xlink:href="#mcaeb6e307b" y="140.493871"/>
     <use style="fill:#e24a33;fill-opacity:0.3;stroke:#e24a33;stroke-opacity:0.3;" x="415.525013" xlink:href="#mcaeb6e307b" y="140.259346"/>
     <use style="fill:#e24a33;fill-opacity:0.3;stroke:#e24a33;stroke-opacity:0.3;" x="418.526627" xlink:href="#mcaeb6e307b" y="140.415832"/>
     <use style="fill:#e24a33;fill-opacity:0.3;stroke:#e24a33;stroke-opacity:0.3;" x="421.528241" xlink:href="#mcaeb6e307b" y="142.095899"/>
     <use style="fill:#e24a33;fill-opacity:0.3;stroke:#e24a33;stroke-opacity:0.3;" x="424.529855" xlink:href="#mcaeb6e307b" y="142.097001"/>
     <use style="fill:#e24a33;fill-opacity:0.3;stroke:#e24a33;stroke-opacity:0.3;" x="427.531469" xlink:href="#mcaeb6e307b" y="143.161602"/>
     <use style="fill:#e24a33;fill-opacity:0.3;stroke:#e24a33;stroke-opacity:0.3;" x="430.533082" xlink:href="#mcaeb6e307b" y="145.131002"/>
     <use style="fill:#e24a33;fill-opacity:0.3;stroke:#e24a33;stroke-opacity:0.3;" x="433.534696" xlink:href="#mcaeb6e307b" y="141.131294"/>
     <use style="fill:#e24a33;fill-opacity:0.3;stroke:#e24a33;stroke-opacity:0.3;" x="436.53631" xlink:href="#mcaeb6e307b" y="143.64793"/>
     <use style="fill:#e24a33;fill-opacity:0.3;stroke:#e24a33;stroke-opacity:0.3;" x="439.537924" xlink:href="#mcaeb6e307b" y="141.584724"/>
     <use style="fill:#e24a33;fill-opacity:0.3;stroke:#e24a33;stroke-opacity:0.3;" x="442.539537" xlink:href="#mcaeb6e307b" y="140.105725"/>
     <use style="fill:#e24a33;fill-opacity:0.3;stroke:#e24a33;stroke-opacity:0.3;" x="445.541151" xlink:href="#mcaeb6e307b" y="136.022965"/>
     <use style="fill:#e24a33;fill-opacity:0.3;stroke:#e24a33;stroke-opacity:0.3;" x="448.542765" xlink:href="#mcaeb6e307b" y="138.457146"/>
     <use style="fill:#e24a33;fill-opacity:0.3;stroke:#e24a33;stroke-opacity:0.3;" x="451.544379" xlink:href="#mcaeb6e307b" y="138.548196"/>
     <use style="fill:#e24a33;fill-opacity:0.3;stroke:#e24a33;stroke-opacity:0.3;" x="454.545992" xlink:href="#mcaeb6e307b" y="140.850626"/>
     <use style="fill:#e24a33;fill-opacity:0.3;stroke:#e24a33;stroke-opacity:0.3;" x="457.547606" xlink:href="#mcaeb6e307b" y="142.012428"/>
     <use style="fill:#e24a33;fill-opacity:0.3;stroke:#e24a33;stroke-opacity:0.3;" x="460.54922" xlink:href="#mcaeb6e307b" y="143.431212"/>
     <use style="fill:#e24a33;fill-opacity:0.3;stroke:#e24a33;stroke-opacity:0.3;" x="463.550834" xlink:href="#mcaeb6e307b" y="143.430462"/>
     <use style="fill:#e24a33;fill-opacity:0.3;stroke:#e24a33;stroke-opacity:0.3;" x="466.552448" xlink:href="#mcaeb6e307b" y="139.626677"/>
     <use style="fill:#e24a33;fill-opacity:0.3;stroke:#e24a33;stroke-opacity:0.3;" x="469.554061" xlink:href="#mcaeb6e307b" y="140.496629"/>
     <use style="fill:#e24a33;fill-opacity:0.3;stroke:#e24a33;stroke-opacity:0.3;" x="472.555675" xlink:href="#mcaeb6e307b" y="141.329118"/>
     <use style="fill:#e24a33;fill-opacity:0.3;stroke:#e24a33;stroke-opacity:0.3;" x="475.557289" xlink:href="#mcaeb6e307b" y="134.84191"/>
     <use style="fill:#e24a33;fill-opacity:0.3;stroke:#e24a33;stroke-opacity:0.3;" x="478.558903" xlink:href="#mcaeb6e307b" y="139.931317"/>
     <use style="fill:#e24a33;fill-opacity:0.3;stroke:#e24a33;stroke-opacity:0.3;" x="481.560516" xlink:href="#mcaeb6e307b" y="139.567703"/>
     <use style="fill:#e24a33;fill-opacity:0.3;stroke:#e24a33;stroke-opacity:0.3;" x="484.56213" xlink:href="#mcaeb6e307b" y="141.038274"/>
     <use style="fill:#e24a33;fill-opacity:0.3;stroke:#e24a33;stroke-opacity:0.3;" x="487.563744" xlink:href="#mcaeb6e307b" y="143.435051"/>
     <use style="fill:#e24a33;fill-opacity:0.3;stroke:#e24a33;stroke-opacity:0.3;" x="490.565358" xlink:href="#mcaeb6e307b" y="141.579774"/>
     <use style="fill:#e24a33;fill-opacity:0.3;stroke:#e24a33;stroke-opacity:0.3;" x="493.566971" xlink:href="#mcaeb6e307b" y="143.945149"/>
     <use style="fill:#e24a33;fill-opacity:0.3;stroke:#e24a33;stroke-opacity:0.3;" x="496.568585" xlink:href="#mcaeb6e307b" y="139.196688"/>
     <use style="fill:#e24a33;fill-opacity:0.3;stroke:#e24a33;stroke-opacity:0.3;" x="499.570199" xlink:href="#mcaeb6e307b" y="139.687937"/>
     <use style="fill:#e24a33;fill-opacity:0.3;stroke:#e24a33;stroke-opacity:0.3;" x="502.571813" xlink:href="#mcaeb6e307b" y="141.754323"/>
     <use style="fill:#e24a33;fill-opacity:0.3;stroke:#e24a33;stroke-opacity:0.3;" x="505.573427" xlink:href="#mcaeb6e307b" y="138.539786"/>
     <use style="fill:#e24a33;fill-opacity:0.3;stroke:#e24a33;stroke-opacity:0.3;" x="508.57504" xlink:href="#mcaeb6e307b" y="140.496629"/>
     <use style="fill:#e24a33;fill-opacity:0.3;stroke:#e24a33;stroke-opacity:0.3;" x="511.576654" xlink:href="#mcaeb6e307b" y="142.273599"/>
     <use style="fill:#e24a33;fill-opacity:0.3;stroke:#e24a33;stroke-opacity:0.3;" x="514.578268" xlink:href="#mcaeb6e307b" y="143.891629"/>
     <use style="fill:#e24a33;fill-opacity:0.3;stroke:#e24a33;stroke-opacity:0.3;" x="517.579882" xlink:href="#mcaeb6e307b" y="144.236948"/>
     <use style="fill:#e24a33;fill-opacity:0.3;stroke:#e24a33;stroke-opacity:0.3;" x="520.581495" xlink:href="#mcaeb6e307b" y="138.615863"/>
     <use style="fill:#e24a33;fill-opacity:0.3;stroke:#e24a33;stroke-opacity:0.3;" x="523.583109" xlink:href="#mcaeb6e307b" y="140.666423"/>
     <use style="fill:#e24a33;fill-opacity:0.3;stroke:#e24a33;stroke-opacity:0.3;" x="526.584723" xlink:href="#mcaeb6e307b" y="136.242416"/>
     <use style="fill:#e24a33;fill-opacity:0.3;stroke:#e24a33;stroke-opacity:0.3;" x="529.586337" xlink:href="#mcaeb6e307b" y="136.968799"/>
     <use style="fill:#e24a33;fill-opacity:0.3;stroke:#e24a33;stroke-opacity:0.3;" x="532.587951" xlink:href="#mcaeb6e307b" y="139.124866"/>
     <use style="fill:#e24a33;fill-opacity:0.3;stroke:#e24a33;stroke-opacity:0.3;" x="535.589564" xlink:href="#mcaeb6e307b" y="141.054292"/>
     <use style="fill:#e24a33;fill-opacity:0.3;stroke:#e24a33;stroke-opacity:0.3;" x="538.591178" xlink:href="#mcaeb6e307b" y="140.600221"/>
     <use style="fill:#e24a33;fill-opacity:0.3;stroke:#e24a33;stroke-opacity:0.3;" x="541.592792" xlink:href="#mcaeb6e307b" y="140.664043"/>
     <use style="fill:#e24a33;fill-opacity:0.3;stroke:#e24a33;stroke-opacity:0.3;" x="544.594406" xlink:href="#mcaeb6e307b" y="141.285646"/>
     <use style="fill:#e24a33;fill-opacity:0.3;stroke:#e24a33;stroke-opacity:0.3;" x="547.596019" xlink:href="#mcaeb6e307b" y="143.201924"/>
     <use style="fill:#e24a33;fill-opacity:0.3;stroke:#e24a33;stroke-opacity:0.3;" x="550.597633" xlink:href="#mcaeb6e307b" y="139.203056"/>
     <use style="fill:#e24a33;fill-opacity:0.3;stroke:#e24a33;stroke-opacity:0.3;" x="553.599247" xlink:href="#mcaeb6e307b" y="142.124376"/>
     <use style="fill:#e24a33;fill-opacity:0.3;stroke:#e24a33;stroke-opacity:0.3;" x="556.600861" xlink:href="#mcaeb6e307b" y="141.4674"/>
     <use style="fill:#e24a33;fill-opacity:0.3;stroke:#e24a33;stroke-opacity:0.3;" x="559.602474" xlink:href="#mcaeb6e307b" y="140.372455"/>
     <use style="fill:#e24a33;fill-opacity:0.3;stroke:#e24a33;stroke-opacity:0.3;" x="562.604088" xlink:href="#mcaeb6e307b" y="142.870339"/>
     <use style="fill:#e24a33;fill-opacity:0.3;stroke:#e24a33;stroke-opacity:0.3;" x="565.605702" xlink:href="#mcaeb6e307b" y="142.05453"/>
     <use style="fill:#e24a33;fill-opacity:0.3;stroke:#e24a33;stroke-opacity:0.3;" x="568.607316" xlink:href="#mcaeb6e307b" y="142.802137"/>
     <use style="fill:#e24a33;fill-opacity:0.3;stroke:#e24a33;stroke-opacity:0.3;" x="571.60893" xlink:href="#mcaeb6e307b" y="142.100039"/>
     <use style="fill:#e24a33;fill-opacity:0.3;stroke:#e24a33;stroke-opacity:0.3;" x="574.610543" xlink:href="#mcaeb6e307b" y="139.517755"/>
     <use style="fill:#e24a33;fill-opacity:0.3;stroke:#e24a33;stroke-opacity:0.3;" x="577.612157" xlink:href="#mcaeb6e307b" y="141.428326"/>
     <use style="fill:#e24a33;fill-opacity:0.3;stroke:#e24a33;stroke-opacity:0.3;" x="580.613771" xlink:href="#mcaeb6e307b" y="143.161673"/>
     <use style="fill:#e24a33;fill-opacity:0.3;stroke:#e24a33;stroke-opacity:0.3;" x="583.615385" xlink:href="#mcaeb6e307b" y="144.738307"/>
     <use style="fill:#e24a33;fill-opacity:0.3;stroke:#e24a33;stroke-opacity:0.3;" x="586.616998" xlink:href="#mcaeb6e307b" y="150.152821"/>
     <use style="fill:#e24a33;fill-opacity:0.3;stroke:#e24a33;stroke-opacity:0.3;" x="589.618612" xlink:href="#mcaeb6e307b" y="146.725121"/>
     <use style="fill:#e24a33;fill-opacity:0.3;stroke:#e24a33;stroke-opacity:0.3;" x="592.620226" xlink:href="#mcaeb6e307b" y="140.496629"/>
     <use style="fill:#e24a33;fill-opacity:0.3;stroke:#e24a33;stroke-opacity:0.3;" x="595.62184" xlink:href="#mcaeb6e307b" y="131.307482"/>
     <use style="fill:#e24a33;fill-opacity:0.3;stroke:#e24a33;stroke-opacity:0.3;" x="598.623453" xlink:href="#mcaeb6e307b" y="121.203536"/>
     <use style="fill:#e24a33;fill-opacity:0.3;stroke:#e24a33;stroke-opacity:0.3;" x="601.625067" xlink:href="#mcaeb6e307b" y="128.504493"/>
     <use style="fill:#e24a33;fill-opacity:0.3;stroke:#e24a33;stroke-opacity:0.3;" x="604.626681" xlink:href="#mcaeb6e307b" y="136.128731"/>
     <use style="fill:#e24a33;fill-opacity:0.3;stroke:#e24a33;stroke-opacity:0.3;" x="607.628295" xlink:href="#mcaeb6e307b" y="131.601878"/>
     <use style="fill:#e24a33;fill-opacity:0.3;stroke:#e24a33;stroke-opacity:0.3;" x="610.629909" xlink:href="#mcaeb6e307b" y="135.78872"/>
     <use style="fill:#e24a33;fill-opacity:0.3;stroke:#e24a33;stroke-opacity:0.3;" x="613.631522" xlink:href="#mcaeb6e307b" y="137.358441"/>
     <use style="fill:#e24a33;fill-opacity:0.3;stroke:#e24a33;stroke-opacity:0.3;" x="616.633136" xlink:href="#mcaeb6e307b" y="137.963465"/>
     <use style="fill:#e24a33;fill-opacity:0.3;stroke:#e24a33;stroke-opacity:0.3;" x="619.63475" xlink:href="#mcaeb6e307b" y="139.528948"/>
     <use style="fill:#e24a33;fill-opacity:0.3;stroke:#e24a33;stroke-opacity:0.3;" x="622.636364" xlink:href="#mcaeb6e307b" y="138.103995"/>
    </g>
   </g>
   <g id="line2d_23">
    <path clip-path="url(#p1a0682dd47)" d="M 190.403981 119.265508 
L 193.405594 120.977919 
L 196.407208 122.840438 
L 199.408822 125.069403 
L 202.410436 127.793977 
L 205.412049 131.402949 
L 208.413663 133.969053 
L 211.415277 136.952992 
L 214.416891 138.014421 
L 217.418505 138.654538 
L 220.420118 138.563098 
L 226.423346 137.933806 
L 229.42496 137.868072 
L 232.426573 137.921406 
L 235.428187 138.44631 
L 238.429801 138.811436 
L 241.431415 139.553365 
L 247.434642 140.498793 
L 253.43787 140.690549 
L 259.441097 140.704805 
L 265.444325 140.792524 
L 271.447552 140.477768 
L 274.449166 139.962796 
L 283.454008 138.930149 
L 289.457235 138.996509 
L 301.46369 140.092213 
L 310.468531 140.727164 
L 319.473373 141.47081 
L 322.474987 141.557423 
L 325.4766 141.461152 
L 331.479828 140.741876 
L 334.481442 140.37083 
L 337.483055 140.177429 
L 340.484669 140.206793 
L 343.486283 140.442536 
L 352.491124 141.435831 
L 358.494352 141.764334 
L 370.500807 142.175501 
L 376.504034 142.684309 
L 379.505648 142.760953 
L 382.507262 142.690191 
L 388.51049 142.010664 
L 394.513717 141.131354 
L 403.518558 140.411028 
L 409.521786 140.26199 
L 412.5234 140.388083 
L 418.526627 141.037412 
L 421.528241 141.775204 
L 427.531469 142.769829 
L 430.533082 142.938797 
L 433.534696 142.6954 
L 436.53631 141.935512 
L 439.537924 140.937075 
L 442.539537 139.820039 
L 445.541151 139.199498 
L 448.542765 139.008958 
L 451.544379 139.544878 
L 457.547606 141.376414 
L 460.54922 141.775082 
L 463.550834 141.806326 
L 472.555675 139.550644 
L 475.557289 139.180772 
L 478.558903 139.505149 
L 481.560516 140.06973 
L 487.563744 141.640898 
L 490.565358 141.727471 
L 493.566971 141.605923 
L 499.570199 140.585323 
L 502.571813 140.437229 
L 505.573427 140.587507 
L 508.57504 141.277857 
L 511.576654 141.718168 
L 514.578268 141.910627 
L 517.579882 141.550417 
L 520.581495 140.600433 
L 523.583109 139.533104 
L 526.584723 138.812067 
L 529.586337 138.631964 
L 535.589564 139.691705 
L 538.591178 140.523205 
L 541.592792 140.943734 
L 544.594406 141.212353 
L 550.597633 141.277145 
L 559.602474 141.596185 
L 562.604088 141.939166 
L 574.610543 141.826975 
L 577.612157 142.624918 
L 580.613771 143.746049 
L 583.615385 144.632942 
L 586.616998 144.350168 
L 589.618612 141.869101 
L 595.62184 134.446914 
L 598.623453 131.52815 
L 601.625067 130.691954 
L 604.626681 131.558497 
L 607.628295 133.329027 
L 610.629909 135.370578 
L 613.631522 136.670451 
L 619.63475 138.130259 
L 622.636364 138.434607 
L 622.636364 138.434607 
" style="fill:none;stroke:#e24a33;stroke-linecap:square;stroke-opacity:0.7;stroke-width:3;"/>
   </g>
   <g id="line2d_24">
    <path clip-path="url(#p1a0682dd47)" d="M 148.381388 140.496629 
L 190.403981 140.496629 
L 191.529705 -1 
M 198.215392 -1 
L 199.408822 14.740264 
L 202.410436 80.359895 
L 205.412049 108.357235 
L 208.413663 122.449533 
L 211.415277 133.7595 
L 214.416891 135.277699 
L 217.418505 134.52132 
L 220.420118 132.427718 
L 223.421732 126.608509 
L 226.423346 126.398826 
L 229.42496 126.726017 
L 232.426573 128.965564 
L 235.428187 133.14719 
L 238.429801 136.801946 
L 241.431415 139.631855 
L 244.433029 141.450365 
L 247.434642 141.951576 
L 250.436256 141.250607 
L 253.43787 140.711044 
L 256.439484 141.694799 
L 259.441097 141.235552 
L 262.442711 142.196852 
L 265.444325 142.328759 
L 268.445939 140.176309 
L 271.447552 139.786231 
L 274.449166 136.503057 
L 277.45078 133.953865 
L 280.452394 132.946937 
L 283.454008 131.705677 
L 286.455621 133.954523 
L 289.457235 135.248028 
L 292.458849 136.90711 
L 295.460463 138.713614 
L 298.462076 138.535243 
L 301.46369 139.684172 
L 304.465304 140.244991 
L 307.466918 140.635875 
L 310.468531 142.634099 
L 316.471759 144.458111 
L 319.473373 145.264715 
L 322.474987 144.746863 
L 325.4766 143.419135 
L 328.478214 141.622176 
L 331.479828 139.199608 
L 334.481442 137.661793 
L 337.483055 138.469189 
L 340.484669 139.905643 
L 343.486283 141.679654 
L 346.487897 143.627121 
L 355.492738 145.450729 
L 358.494352 145.038819 
L 364.497579 145.511817 
L 367.499193 146.119407 
L 370.500807 147.348807 
L 373.502421 148.393361 
L 376.504034 148.542433 
L 379.505648 148.244637 
L 382.507262 147.436436 
L 385.508876 145.75168 
L 391.512103 143.264678 
L 394.513717 140.982382 
L 397.515331 140.696057 
L 400.516945 140.227947 
L 403.518558 139.011608 
L 406.520172 140.456496 
L 409.521786 139.617223 
L 412.5234 140.011109 
L 415.525013 142.574002 
L 418.526627 143.89165 
L 421.528241 147.073027 
L 424.529855 149.323172 
L 427.531469 149.846393 
L 430.533082 150.013453 
L 433.534696 147.420769 
L 436.53631 141.944913 
L 439.537924 136.229261 
L 442.539537 129.695241 
L 445.541151 129.829494 
L 448.542765 136.159206 
L 451.544379 141.115454 
L 454.545992 145.843572 
L 457.547606 147.320347 
L 460.54922 146.347988 
L 463.550834 144.689954 
L 466.552448 139.527915 
L 469.554061 134.964281 
L 472.555675 133.043859 
L 475.557289 132.183778 
L 478.558903 138.5261 
L 481.560516 143.31411 
L 484.56213 145.917156 
L 487.563744 148.308572 
L 490.565358 145.81568 
L 493.566971 143.149886 
L 496.568585 140.308545 
L 499.570199 135.592669 
L 502.571813 138.629624 
L 508.57504 146.768293 
L 511.576654 149.227815 
L 514.578268 148.284596 
L 517.579882 142.719504 
L 520.581495 133.65777 
L 523.583109 126.438371 
L 526.584723 125.11792 
L 529.586337 132.886776 
L 532.587951 139.89832 
L 535.589564 142.467841 
L 538.591178 144.255386 
L 541.592792 144.154783 
L 544.594406 142.065645 
L 547.596019 142.617763 
L 550.597633 142.399284 
L 553.599247 144.113428 
L 556.600861 146.364075 
L 562.604088 146.958909 
L 565.605702 144.694512 
L 568.607316 142.65319 
L 571.60893 143.556225 
L 574.610543 145.714108 
L 577.612157 151.079568 
L 580.613771 155.566829 
L 583.615385 155.287767 
L 586.616998 153.792283 
L 589.618612 140.496629 
L 592.620226 89.002325 
L 598.623453 23.533171 
L 601.625067 73.196387 
L 601.625067 73.196387 
" style="fill:none;stroke:#fbc15e;stroke-linecap:square;stroke-width:4.5;"/>
   </g>
   <g id="line2d_25">
    <path clip-path="url(#p1a0682dd47)" d="M 115.363636 140.496629 
L 622.636364 140.496629 
" style="fill:none;stroke:#777777;stroke-linecap:square;stroke-width:1.5;"/>
   </g>
   <g id="patch_3">
    <path d="M 90 157.5 
L 90 21.6 
" style="fill:none;stroke:#ffffff;stroke-linecap:square;stroke-linejoin:miter;"/>
   </g>
   <g id="patch_4">
    <path d="M 648 157.5 
L 648 21.6 
" style="fill:none;stroke:#ffffff;stroke-linecap:square;stroke-linejoin:miter;"/>
   </g>
   <g id="patch_5">
    <path d="M 90 157.5 
L 648 157.5 
" style="fill:none;stroke:#ffffff;stroke-linecap:square;stroke-linejoin:miter;"/>
   </g>
   <g id="patch_6">
    <path d="M 90 21.6 
L 648 21.6 
" style="fill:none;stroke:#ffffff;stroke-linecap:square;stroke-linejoin:miter;"/>
   </g>
   <g id="legend_1">
    <g id="patch_7">
     <path d="M 218 71.501562 
L 520 71.501562 
Q 522 71.501562 522 69.501562 
L 522 28.6 
Q 522 26.6 520 26.6 
L 218 26.6 
Q 216 26.6 216 28.6 
L 216 69.501562 
Q 216 71.501562 218 71.501562 
z
" style="fill:#e5e5e5;opacity:0.8;stroke:#cccccc;stroke-linejoin:miter;stroke-width:0.5;"/>
    </g>
    <g id="line2d_26"/>
    <g id="line2d_27">
     <g>
      <use style="fill:#e24a33;fill-opacity:0.3;stroke:#e24a33;stroke-opacity:0.3;" x="230" xlink:href="#mcaeb6e307b" y="34.1"/>
     </g>
    </g>
    <g id="text_14">
     <!-- Korea, South deaths daily growth factor  -->
     <defs>
      <path d="M 16.59375 31.203125 
L 11.703125 25.796875 
L 11.703125 0 
L 4.203125 0 
L 4.203125 62.296875 
L 12.59375 62.296875 
L 12.59375 61.59375 
Q 12 61 11.84375 60.296875 
Q 11.703125 59.59375 11.703125 57.90625 
L 11.703125 33.59375 
L 37.703125 62.796875 
Q 38.796875 62.59375 40.09375 62.4375 
Q 41.40625 62.296875 42.90625 62.296875 
L 45.5 62.296875 
L 21.90625 35.40625 
L 47.09375 0 
L 38.09375 -0.40625 
z
" id="Inconsolata-Regular-75"/>
      <path d="M 19.90625 -16.796875 
L 16.5 -13.796875 
Q 19.296875 -11.203125 21.140625 -8.203125 
Q 23 -5.203125 23 -3.296875 
Q 23 -1.90625 21.75 -0.84375 
Q 20.5 0.203125 19.203125 1.390625 
Q 17.90625 2.59375 17.90625 4.40625 
Q 17.90625 6.90625 19.546875 8.59375 
Q 21.203125 10.296875 23.796875 10.296875 
Q 26.40625 10.296875 28.5 8 
Q 30.59375 5.703125 30.59375 2 
Q 30.59375 -5.796875 19.90625 -16.796875 
z
" id="Inconsolata-Regular-44"/>
      <path d="M 24.703125 -1 
Q 12.59375 -1 5.203125 6.90625 
L 8.796875 13.203125 
L 9.203125 14.09375 
L 9.90625 13.703125 
Q 10.09375 13 10.390625 12.140625 
Q 10.703125 11.296875 11.796875 10.09375 
Q 14.40625 7.90625 17.84375 6.59375 
Q 21.296875 5.296875 25.703125 5.296875 
Q 31.296875 5.296875 34.9375 8.4375 
Q 38.59375 11.59375 38.59375 16 
Q 38.59375 18.90625 37.4375 20.90625 
Q 36.296875 22.90625 33.25 24.796875 
Q 30.203125 26.703125 24.296875 29.203125 
Q 14.59375 33 10.890625 37.703125 
Q 7.203125 42.40625 7.203125 47.703125 
Q 7.203125 54.59375 12.296875 58.84375 
Q 17.40625 63.09375 26.203125 63.09375 
Q 31.296875 63.09375 35.796875 61.046875 
Q 40.296875 59 43.5 55.296875 
L 39 49.296875 
L 38.40625 49.703125 
Q 38.296875 50.5 38 51.296875 
Q 37.703125 52.09375 36.59375 53.296875 
Q 34.203125 55.59375 31.5 56.4375 
Q 28.796875 57.296875 25.09375 57.296875 
Q 20.203125 57.296875 17.296875 54.59375 
Q 14.40625 51.90625 14.40625 48.203125 
Q 14.40625 45.40625 15.65625 43.25 
Q 16.90625 41.09375 20.203125 39 
Q 23.5 36.90625 29.796875 34.40625 
Q 35.90625 31.90625 39.296875 29.34375 
Q 42.703125 26.796875 44.09375 23.84375 
Q 45.5 20.90625 45.5 17 
Q 45.5 12.703125 43.34375 8.546875 
Q 41.203125 4.40625 36.59375 1.703125 
Q 32 -1 24.703125 -1 
z
" id="Inconsolata-Regular-83"/>
      <path d="M 22.09375 -1.09375 
Q 15.296875 -1.09375 10.796875 4 
Q 6.296875 9.09375 6.40625 20.203125 
L 6.5 45.703125 
L 13.5 45.703125 
L 13.5 20.203125 
Q 13.5 11.5 16.546875 8.09375 
Q 19.59375 4.703125 23.90625 4.703125 
Q 27.09375 4.703125 29.890625 6.390625 
Q 32.703125 8.09375 34.453125 11.59375 
Q 36.203125 15.09375 36.203125 20.5 
L 36.203125 45.703125 
L 43.203125 45.703125 
L 43.203125 7.09375 
Q 43.203125 5.296875 43.34375 3.546875 
Q 43.5 1.796875 44.203125 0 
L 37.296875 0 
Q 36.59375 1.703125 36.4375 3.5 
Q 36.296875 5.296875 36.296875 7 
Q 34.09375 3.203125 30.34375 1.046875 
Q 26.59375 -1.09375 22.09375 -1.09375 
z
" id="Inconsolata-Regular-117"/>
      <path d="M 10 0 
L 10 5.796875 
L 21.703125 5.796875 
L 21.703125 39.90625 
L 10.59375 39.90625 
L 10.59375 45.703125 
L 28.90625 45.703125 
L 28.90625 5.796875 
L 39.59375 5.796875 
L 39.59375 0 
z
M 24.90625 55.296875 
Q 22.796875 55.296875 21.296875 56.796875 
Q 19.796875 58.296875 19.796875 60.40625 
Q 19.796875 62.59375 21.25 64.09375 
Q 22.703125 65.59375 24.90625 65.59375 
Q 27 65.59375 28.546875 64.046875 
Q 30.09375 62.5 30.09375 60.40625 
Q 30.09375 58.296875 28.546875 56.796875 
Q 27 55.296875 24.90625 55.296875 
z
" id="Inconsolata-Regular-105"/>
      <path d="M 7.90625 0 
L 7.90625 5.796875 
L 21.40625 5.796875 
L 21.40625 60.703125 
L 8.5 60.703125 
L 8.5 66.5 
L 28.703125 66.5 
L 28.703125 5.796875 
L 42.09375 5.796875 
L 42.09375 0 
z
" id="Inconsolata-Regular-108"/>
      <path d="M 12.703125 -17.40625 
Q 6.296875 -17.40625 2.203125 -13.5 
L 5.296875 -8.59375 
L 5.90625 -7.703125 
L 6.5 -8.09375 
Q 6.703125 -8.90625 7.203125 -9.453125 
Q 7.703125 -10 9.09375 -10.90625 
Q 10.90625 -11.5 13.09375 -11.5 
Q 17 -11.5 19.203125 -8.75 
Q 21.40625 -6 23.296875 -0.296875 
L 4.59375 45.703125 
L 12.09375 45.703125 
L 26.296875 9.09375 
L 32.296875 27.5 
Q 33.796875 32.09375 35.1875 36.59375 
Q 36.59375 41.09375 37.09375 45.703125 
L 44.296875 45.703125 
Q 43.59375 41.09375 42.09375 36.390625 
Q 40.59375 31.703125 38.90625 27 
L 27.5 -5.203125 
Q 25.09375 -11.90625 21.34375 -14.65625 
Q 17.59375 -17.40625 12.703125 -17.40625 
z
" id="Inconsolata-Regular-121"/>
     </defs>
     <g transform="translate(248 37.6)scale(0.1 -0.1)">
      <use xlink:href="#Inconsolata-Regular-75"/>
      <use x="49.999985" xlink:href="#Inconsolata-Regular-111"/>
      <use x="99.999969" xlink:href="#Inconsolata-Regular-114"/>
      <use x="149.999954" xlink:href="#Inconsolata-Regular-101"/>
      <use x="199.999939" xlink:href="#Inconsolata-Regular-97"/>
      <use x="249.999924" xlink:href="#Inconsolata-Regular-44"/>
      <use x="299.999908" xlink:href="#Inconsolata-Regular-32"/>
      <use x="349.999893" xlink:href="#Inconsolata-Regular-83"/>
      <use x="399.999878" xlink:href="#Inconsolata-Regular-111"/>
      <use x="449.999863" xlink:href="#Inconsolata-Regular-117"/>
      <use x="499.999847" xlink:href="#Inconsolata-Regular-116"/>
      <use x="549.999832" xlink:href="#Inconsolata-Regular-104"/>
      <use x="599.999817" xlink:href="#Inconsolata-Regular-32"/>
      <use x="649.999802" xlink:href="#Inconsolata-Regular-100"/>
      <use x="699.999786" xlink:href="#Inconsolata-Regular-101"/>
      <use x="749.999771" xlink:href="#Inconsolata-Regular-97"/>
      <use x="799.999756" xlink:href="#Inconsolata-Regular-116"/>
      <use x="849.999741" xlink:href="#Inconsolata-Regular-104"/>
      <use x="899.999725" xlink:href="#Inconsolata-Regular-115"/>
      <use x="949.99971" xlink:href="#Inconsolata-Regular-32"/>
      <use x="999.999695" xlink:href="#Inconsolata-Regular-100"/>
      <use x="1049.99968" xlink:href="#Inconsolata-Regular-97"/>
      <use x="1099.999664" xlink:href="#Inconsolata-Regular-105"/>
      <use x="1149.999649" xlink:href="#Inconsolata-Regular-108"/>
      <use x="1199.999634" xlink:href="#Inconsolata-Regular-121"/>
      <use x="1249.999619" xlink:href="#Inconsolata-Regular-32"/>
      <use x="1299.999603" xlink:href="#Inconsolata-Regular-103"/>
      <use x="1349.999588" xlink:href="#Inconsolata-Regular-114"/>
      <use x="1399.999573" xlink:href="#Inconsolata-Regular-111"/>
      <use x="1449.999557" xlink:href="#Inconsolata-Regular-119"/>
      <use x="1499.999542" xlink:href="#Inconsolata-Regular-116"/>
      <use x="1549.999527" xlink:href="#Inconsolata-Regular-104"/>
      <use x="1599.999512" xlink:href="#Inconsolata-Regular-32"/>
      <use x="1649.999496" xlink:href="#Inconsolata-Regular-102"/>
      <use x="1699.999481" xlink:href="#Inconsolata-Regular-97"/>
      <use x="1749.999466" xlink:href="#Inconsolata-Regular-99"/>
      <use x="1799.999451" xlink:href="#Inconsolata-Regular-116"/>
      <use x="1849.999435" xlink:href="#Inconsolata-Regular-111"/>
      <use x="1899.99942" xlink:href="#Inconsolata-Regular-114"/>
      <use x="1949.999405" xlink:href="#Inconsolata-Regular-32"/>
     </g>
    </g>
    <g id="line2d_28">
     <path d="M 220 48.190625 
L 240 48.190625 
" style="fill:none;stroke:#e24a33;stroke-linecap:square;stroke-opacity:0.7;stroke-width:3;"/>
    </g>
    <g id="line2d_29"/>
    <g id="text_15">
     <!-- Korea, South deaths daily growth factor (rolling mean) -->
     <defs>
      <path d="M 3.796875 0 
L 3.796875 45.703125 
L 10.40625 45.703125 
L 10.40625 41.203125 
Q 12 43.703125 14.5 45.25 
Q 17 46.796875 19.703125 46.796875 
Q 22.703125 46.796875 24.953125 44.890625 
Q 27.203125 43 27.796875 40.09375 
Q 29.09375 43.09375 31.890625 44.9375 
Q 34.703125 46.796875 38.09375 46.796875 
Q 42.796875 46.796875 44.9375 43.4375 
Q 47.09375 40.09375 46.90625 35.09375 
L 46.90625 0 
L 40.296875 0 
L 40.296875 32.40625 
Q 40.296875 36.59375 39.75 38.5 
Q 39.203125 40.40625 38.203125 40.953125 
Q 37.203125 41.5 36 41.5 
Q 34.09375 41.5 32.4375 39.75 
Q 30.796875 38 29.75 35.390625 
Q 28.703125 32.796875 28.703125 30.203125 
L 28.703125 0 
L 22 0 
L 22 31.796875 
Q 22 37.5 20.953125 39.390625 
Q 19.90625 41.296875 17 41.296875 
Q 14.796875 41.296875 12.59375 38.4375 
Q 10.40625 35.59375 10.40625 30.5 
L 10.40625 0 
z
" id="Inconsolata-Regular-109"/>
     </defs>
     <g transform="translate(248 51.690625)scale(0.1 -0.1)">
      <use xlink:href="#Inconsolata-Regular-75"/>
      <use x="49.999985" xlink:href="#Inconsolata-Regular-111"/>
      <use x="99.999969" xlink:href="#Inconsolata-Regular-114"/>
      <use x="149.999954" xlink:href="#Inconsolata-Regular-101"/>
      <use x="199.999939" xlink:href="#Inconsolata-Regular-97"/>
      <use x="249.999924" xlink:href="#Inconsolata-Regular-44"/>
      <use x="299.999908" xlink:href="#Inconsolata-Regular-32"/>
      <use x="349.999893" xlink:href="#Inconsolata-Regular-83"/>
      <use x="399.999878" xlink:href="#Inconsolata-Regular-111"/>
      <use x="449.999863" xlink:href="#Inconsolata-Regular-117"/>
      <use x="499.999847" xlink:href="#Inconsolata-Regular-116"/>
      <use x="549.999832" xlink:href="#Inconsolata-Regular-104"/>
      <use x="599.999817" xlink:href="#Inconsolata-Regular-32"/>
      <use x="649.999802" xlink:href="#Inconsolata-Regular-100"/>
      <use x="699.999786" xlink:href="#Inconsolata-Regular-101"/>
      <use x="749.999771" xlink:href="#Inconsolata-Regular-97"/>
      <use x="799.999756" xlink:href="#Inconsolata-Regular-116"/>
      <use x="849.999741" xlink:href="#Inconsolata-Regular-104"/>
      <use x="899.999725" xlink:href="#Inconsolata-Regular-115"/>
      <use x="949.99971" xlink:href="#Inconsolata-Regular-32"/>
      <use x="999.999695" xlink:href="#Inconsolata-Regular-100"/>
      <use x="1049.99968" xlink:href="#Inconsolata-Regular-97"/>
      <use x="1099.999664" xlink:href="#Inconsolata-Regular-105"/>
      <use x="1149.999649" xlink:href="#Inconsolata-Regular-108"/>
      <use x="1199.999634" xlink:href="#Inconsolata-Regular-121"/>
      <use x="1249.999619" xlink:href="#Inconsolata-Regular-32"/>
      <use x="1299.999603" xlink:href="#Inconsolata-Regular-103"/>
      <use x="1349.999588" xlink:href="#Inconsolata-Regular-114"/>
      <use x="1399.999573" xlink:href="#Inconsolata-Regular-111"/>
      <use x="1449.999557" xlink:href="#Inconsolata-Regular-119"/>
      <use x="1499.999542" xlink:href="#Inconsolata-Regular-116"/>
      <use x="1549.999527" xlink:href="#Inconsolata-Regular-104"/>
      <use x="1599.999512" xlink:href="#Inconsolata-Regular-32"/>
      <use x="1649.999496" xlink:href="#Inconsolata-Regular-102"/>
      <use x="1699.999481" xlink:href="#Inconsolata-Regular-97"/>
      <use x="1749.999466" xlink:href="#Inconsolata-Regular-99"/>
      <use x="1799.999451" xlink:href="#Inconsolata-Regular-116"/>
      <use x="1849.999435" xlink:href="#Inconsolata-Regular-111"/>
      <use x="1899.99942" xlink:href="#Inconsolata-Regular-114"/>
      <use x="1949.999405" xlink:href="#Inconsolata-Regular-32"/>
      <use x="1999.99939" xlink:href="#Inconsolata-Regular-40"/>
      <use x="2049.999374" xlink:href="#Inconsolata-Regular-114"/>
      <use x="2099.999359" xlink:href="#Inconsolata-Regular-111"/>
      <use x="2149.999344" xlink:href="#Inconsolata-Regular-108"/>
      <use x="2199.999329" xlink:href="#Inconsolata-Regular-108"/>
      <use x="2249.999313" xlink:href="#Inconsolata-Regular-105"/>
      <use x="2299.999298" xlink:href="#Inconsolata-Regular-110"/>
      <use x="2349.999283" xlink:href="#Inconsolata-Regular-103"/>
      <use x="2399.999268" xlink:href="#Inconsolata-Regular-32"/>
      <use x="2449.999252" xlink:href="#Inconsolata-Regular-109"/>
      <use x="2499.999237" xlink:href="#Inconsolata-Regular-101"/>
      <use x="2549.999222" xlink:href="#Inconsolata-Regular-97"/>
      <use x="2599.999207" xlink:href="#Inconsolata-Regular-110"/>
      <use x="2649.999191" xlink:href="#Inconsolata-Regular-41"/>
     </g>
    </g>
    <g id="line2d_30">
     <path d="M 220 62.28125 
L 240 62.28125 
" style="fill:none;stroke:#fbc15e;stroke-linecap:square;stroke-width:4.5;"/>
    </g>
    <g id="line2d_31"/>
    <g id="text_16">
     <!-- Korea, South estimated R (using deaths) -->
     <g transform="translate(248 65.78125)scale(0.1 -0.1)">
      <use xlink:href="#Inconsolata-Regular-75"/>
      <use x="49.999985" xlink:href="#Inconsolata-Regular-111"/>
      <use x="99.999969" xlink:href="#Inconsolata-Regular-114"/>
      <use x="149.999954" xlink:href="#Inconsolata-Regular-101"/>
      <use x="199.999939" xlink:href="#Inconsolata-Regular-97"/>
      <use x="249.999924" xlink:href="#Inconsolata-Regular-44"/>
      <use x="299.999908" xlink:href="#Inconsolata-Regular-32"/>
      <use x="349.999893" xlink:href="#Inconsolata-Regular-83"/>
      <use x="399.999878" xlink:href="#Inconsolata-Regular-111"/>
      <use x="449.999863" xlink:href="#Inconsolata-Regular-117"/>
      <use x="499.999847" xlink:href="#Inconsolata-Regular-116"/>
      <use x="549.999832" xlink:href="#Inconsolata-Regular-104"/>
      <use x="599.999817" xlink:href="#Inconsolata-Regular-32"/>
      <use x="649.999802" xlink:href="#Inconsolata-Regular-101"/>
      <use x="699.999786" xlink:href="#Inconsolata-Regular-115"/>
      <use x="749.999771" xlink:href="#Inconsolata-Regular-116"/>
      <use x="799.999756" xlink:href="#Inconsolata-Regular-105"/>
      <use x="849.999741" xlink:href="#Inconsolata-Regular-109"/>
      <use x="899.999725" xlink:href="#Inconsolata-Regular-97"/>
      <use x="949.99971" xlink:href="#Inconsolata-Regular-116"/>
      <use x="999.999695" xlink:href="#Inconsolata-Regular-101"/>
      <use x="1049.99968" xlink:href="#Inconsolata-Regular-100"/>
      <use x="1099.999664" xlink:href="#Inconsolata-Regular-32"/>
      <use x="1149.999649" xlink:href="#Inconsolata-Regular-82"/>
      <use x="1199.999634" xlink:href="#Inconsolata-Regular-32"/>
      <use x="1249.999619" xlink:href="#Inconsolata-Regular-40"/>
      <use x="1299.999603" xlink:href="#Inconsolata-Regular-117"/>
      <use x="1349.999588" xlink:href="#Inconsolata-Regular-115"/>
      <use x="1399.999573" xlink:href="#Inconsolata-Regular-105"/>
      <use x="1449.999557" xlink:href="#Inconsolata-Regular-110"/>
      <use x="1499.999542" xlink:href="#Inconsolata-Regular-103"/>
      <use x="1549.999527" xlink:href="#Inconsolata-Regular-32"/>
      <use x="1599.999512" xlink:href="#Inconsolata-Regular-100"/>
      <use x="1649.999496" xlink:href="#Inconsolata-Regular-101"/>
      <use x="1699.999481" xlink:href="#Inconsolata-Regular-97"/>
      <use x="1749.999466" xlink:href="#Inconsolata-Regular-116"/>
      <use x="1799.999451" xlink:href="#Inconsolata-Regular-104"/>
      <use x="1849.999435" xlink:href="#Inconsolata-Regular-115"/>
      <use x="1899.99942" xlink:href="#Inconsolata-Regular-41"/>
     </g>
    </g>
   </g>
  </g>
 </g>
 <defs>
  <clipPath id="p1a0682dd47">
   <rect height="135.9" width="558" x="90" y="21.6"/>
  </clipPath>
 </defs>
</svg>
